<svg xmlns="http://www.w3.org/2000/svg" width="760" height="960" viewBox="0 0 760 960">
  <defs>
    <marker id="arrow" markerWidth="10" markerHeight="10" refX="9" refY="5" orient="auto"><path d="M0,0 L10,5 L0,10 z" fill="#475569"/></marker>
  </defs>
  <rect width="100%" height="100%" fill="#ffffff"/>
  <text x="40" y="50" text-anchor="start" font-family="Arial, Helvetica, sans-serif" font-size="22" font-weight="700" fill="#0f172a"><tspan x="40" dy="0">UC-01 - Thiết lập chiến dịch theo dõi</tspan></text>
  <ellipse cx="380" cy="100" rx="16" ry="16" fill="#1e1e1e" stroke="#1e1e1e" stroke-width="2"/>
  <rect x="215" y="140" width="330" height="62" rx="14" fill="#ffffff" stroke="#0284c7" stroke-width="2"/>
  <text x="380" y="177" text-anchor="middle" font-family="Arial, Helvetica, sans-serif" font-size="16" font-weight="500" fill="#0f172a"><tspan x="380" dy="0">Tạo hoặc chọn campaign</tspan></text>
  <rect x="215" y="230" width="330" height="62" rx="14" fill="#ffffff" stroke="#0284c7" stroke-width="2"/>
  <text x="380" y="257" text-anchor="middle" font-family="Arial, Helvetica, sans-serif" font-size="16" font-weight="500" fill="#0f172a"><tspan x="380" dy="0">Tạo project</tspan><tspan x="380" dy="20">và bối cảnh theo dõi</tspan></text>
  <rect x="215" y="320" width="330" height="72" rx="14" fill="#ffffff" stroke="#0284c7" stroke-width="2"/>
  <text x="380" y="352" text-anchor="middle" font-family="Arial, Helvetica, sans-serif" font-size="16" font-weight="500" fill="#0f172a"><tspan x="380" dy="0">Khai báo nguồn dữ liệu</tspan><tspan x="380" dy="20">và mục tiêu thu thập</tspan></text>
  <polygon points="380,440 475,490 380,540 285,490" fill="#fff7ed" stroke="#f97316" stroke-width="2"/>
  <text x="380" y="486.25" text-anchor="middle" font-family="Arial, Helvetica, sans-serif" font-size="15" font-weight="500" fill="#0f172a"><tspan x="380" dy="0">Cần kiểm</tspan><tspan x="380" dy="18.75">tra thử?</tspan></text>
  <rect x="215" y="590" width="330" height="62" rx="14" fill="#ffffff" stroke="#0284c7" stroke-width="2"/>
  <text x="380" y="617" text-anchor="middle" font-family="Arial, Helvetica, sans-serif" font-size="16" font-weight="500" fill="#0f172a"><tspan x="380" dy="0">Chạy kiểm tra thử</tspan><tspan x="380" dy="20">và lưu kết quả</tspan></text>
  <polygon points="380,700 475,750 380,800 285,750" fill="#fff7ed" stroke="#f97316" stroke-width="2"/>
  <text x="380" y="746.25" text-anchor="middle" font-family="Arial, Helvetica, sans-serif" font-size="15" font-weight="500" fill="#0f172a"><tspan x="380" dy="0">Đủ điều kiện</tspan><tspan x="380" dy="18.75">vận hành?</tspan></text>
  <rect x="55" y="715" width="230" height="70" rx="14" fill="#fef2f2" stroke="#ef4444" stroke-width="2"/>
  <text x="170" y="746" text-anchor="middle" font-family="Arial, Helvetica, sans-serif" font-size="16" font-weight="500" fill="#0f172a"><tspan x="170" dy="0">Hiển thị điểm</tspan><tspan x="170" dy="20">cần điều chỉnh</tspan></text>
  <ellipse cx="380" cy="900" rx="24" ry="24" fill="none" stroke="#1e1e1e" stroke-width="2"/>
  <ellipse cx="380" cy="900" rx="12" ry="12" fill="#1e1e1e" stroke="#1e1e1e" stroke-width="2"/>
  <path d="M380 116 L380 140" fill="none" stroke="#475569" stroke-width="2" marker-end="url(#arrow)"/>
  <path d="M380 202 L380 230" fill="none" stroke="#475569" stroke-width="2" marker-end="url(#arrow)"/>
  <path d="M380 292 L380 320" fill="none" stroke="#475569" stroke-width="2" marker-end="url(#arrow)"/>
  <path d="M380 392 L380 440" fill="none" stroke="#475569" stroke-width="2" marker-end="url(#arrow)"/>
  <path d="M380 540 L380 590" fill="none" stroke="#475569" stroke-width="2" marker-end="url(#arrow)"/>
  <path d="M380 652 L380 700" fill="none" stroke="#475569" stroke-width="2" marker-end="url(#arrow)"/>
  <path d="M475 490 L610 490 L610 750 L475 750" fill="none" stroke="#475569" stroke-width="2" marker-end="url(#arrow)"/>
  <path d="M380 800 L380 876" fill="none" stroke="#475569" stroke-width="2" marker-end="url(#arrow)"/>
  <path d="M285 750 L255 750" fill="none" stroke="#475569" stroke-width="2" marker-end="url(#arrow)"/>
  <path d="M55 750 L25 750 L25 356 L215 356" fill="none" stroke="#475569" stroke-width="2" marker-end="url(#arrow)"/>
  <text x="398" y="568" text-anchor="start" font-family="Arial, Helvetica, sans-serif" font-size="13" font-weight="500" fill="#475569"><tspan x="398" dy="0">[có]</tspan></text>
  <text x="610" y="518" text-anchor="start" font-family="Arial, Helvetica, sans-serif" font-size="13" font-weight="500" fill="#475569"><tspan x="610" dy="0">[không]</tspan></text>
  <text x="398" y="848" text-anchor="start" font-family="Arial, Helvetica, sans-serif" font-size="13" font-weight="500" fill="#475569"><tspan x="398" dy="0">[có]</tspan></text>
  <text x="120" y="708" text-anchor="start" font-family="Arial, Helvetica, sans-serif" font-size="13" font-weight="500" fill="#475569"><tspan x="120" dy="0">[không]</tspan></text>
</svg>
