<svg xmlns="http://www.w3.org/2000/svg" width="760" height="930" viewBox="0 0 760 930">
  <defs>
    <marker id="arrow" markerWidth="10" markerHeight="10" refX="9" refY="5" orient="auto"><path d="M0,0 L10,5 L0,10 z" fill="#475569"/></marker>
  </defs>
  <rect width="100%" height="100%" fill="#ffffff"/>
  <text x="40" y="50" text-anchor="start" font-family="Arial, Helvetica, sans-serif" font-size="22" font-weight="700" fill="#0f172a"><tspan x="40" dy="0">UC-03 - Tra cứu và hỏi đáp dữ liệu phân tích</tspan></text>
  <ellipse cx="380" cy="100" rx="16" ry="16" fill="#1e1e1e" stroke="#1e1e1e" stroke-width="2"/>
  <rect x="215" y="140" width="330" height="62" rx="14" fill="#ffffff" stroke="#0284c7" stroke-width="2"/>
  <text x="380" y="167" text-anchor="middle" font-family="Arial, Helvetica, sans-serif" font-size="16" font-weight="500" fill="#0f172a"><tspan x="380" dy="0">Nhập truy vấn, câu hỏi</tspan><tspan x="380" dy="20">và bộ lọc</tspan></text>
  <rect x="215" y="230" width="330" height="62" rx="14" fill="#ffffff" stroke="#0284c7" stroke-width="2"/>
  <text x="380" y="257" text-anchor="middle" font-family="Arial, Helvetica, sans-serif" font-size="16" font-weight="500" fill="#0f172a"><tspan x="380" dy="0">Kiểm tra quyền truy cập</tspan><tspan x="380" dy="20">và phạm vi dữ liệu</tspan></text>
  <rect x="215" y="320" width="330" height="62" rx="14" fill="#ffffff" stroke="#0284c7" stroke-width="2"/>
  <text x="380" y="347" text-anchor="middle" font-family="Arial, Helvetica, sans-serif" font-size="16" font-weight="500" fill="#0f172a"><tspan x="380" dy="0">Tìm dữ liệu phân tích</tspan><tspan x="380" dy="20">liên quan</tspan></text>
  <polygon points="380,425 475,475 380,525 285,475" fill="#fff7ed" stroke="#f97316" stroke-width="2"/>
  <text x="380" y="471.25" text-anchor="middle" font-family="Arial, Helvetica, sans-serif" font-size="15" font-weight="500" fill="#0f172a"><tspan x="380" dy="0">Có dữ liệu</tspan><tspan x="380" dy="18.75">phù hợp?</tspan></text>
  <polygon points="380,565 475,615 380,665 285,615" fill="#fff7ed" stroke="#f97316" stroke-width="2"/>
  <text x="380" y="620.625" text-anchor="middle" font-family="Arial, Helvetica, sans-serif" font-size="15" font-weight="500" fill="#0f172a"><tspan x="380" dy="0">Là câu hỏi?</tspan></text>
  <rect x="65" y="710" width="285" height="62" rx="14" fill="#ffffff" stroke="#0284c7" stroke-width="2"/>
  <text x="207.5" y="737" text-anchor="middle" font-family="Arial, Helvetica, sans-serif" font-size="16" font-weight="500" fill="#0f172a"><tspan x="207.5" dy="0">Trả câu trả lời</tspan><tspan x="207.5" dy="20">kèm dẫn chứng</tspan></text>
  <rect x="410" y="710" width="285" height="62" rx="14" fill="#ffffff" stroke="#0284c7" stroke-width="2"/>
  <text x="552.5" y="737" text-anchor="middle" font-family="Arial, Helvetica, sans-serif" font-size="16" font-weight="500" fill="#0f172a"><tspan x="552.5" dy="0">Trả danh sách</tspan><tspan x="552.5" dy="20">kết quả tra cứu</tspan></text>
  <rect x="500" y="450" width="220" height="70" rx="14" fill="#fef2f2" stroke="#ef4444" stroke-width="2"/>
  <text x="610" y="481" text-anchor="middle" font-family="Arial, Helvetica, sans-serif" font-size="16" font-weight="500" fill="#0f172a"><tspan x="610" dy="0">Thông báo không có</tspan><tspan x="610" dy="20">ngữ cảnh phù hợp</tspan></text>
  <ellipse cx="380" cy="875" rx="24" ry="24" fill="none" stroke="#1e1e1e" stroke-width="2"/>
  <ellipse cx="380" cy="875" rx="12" ry="12" fill="#1e1e1e" stroke="#1e1e1e" stroke-width="2"/>
  <path d="M380 116 L380 140" fill="none" stroke="#475569" stroke-width="2" marker-end="url(#arrow)"/>
  <path d="M380 202 L380 230" fill="none" stroke="#475569" stroke-width="2" marker-end="url(#arrow)"/>
  <path d="M380 292 L380 320" fill="none" stroke="#475569" stroke-width="2" marker-end="url(#arrow)"/>
  <path d="M380 382 L380 425" fill="none" stroke="#475569" stroke-width="2" marker-end="url(#arrow)"/>
  <path d="M380 525 L380 565" fill="none" stroke="#475569" stroke-width="2" marker-end="url(#arrow)"/>
  <path d="M285 615 L208 615 L208 710" fill="none" stroke="#475569" stroke-width="2" marker-end="url(#arrow)"/>
  <path d="M475 615 L553 615 L553 710" fill="none" stroke="#475569" stroke-width="2" marker-end="url(#arrow)"/>
  <path d="M475 475 L500 475" fill="none" stroke="#475569" stroke-width="2" marker-end="url(#arrow)"/>
  <path d="M610 520 L610 875 L404 875" fill="none" stroke="#475569" stroke-width="2" marker-end="url(#arrow)"/>
  <path d="M208 772 L208 875 L356 875" fill="none" stroke="#475569" stroke-width="2" marker-end="url(#arrow)"/>
  <path d="M553 772 L553 875 L404 875" fill="none" stroke="#475569" stroke-width="2" marker-end="url(#arrow)"/>
  <text x="398" y="553" text-anchor="start" font-family="Arial, Helvetica, sans-serif" font-size="13" font-weight="500" fill="#475569"><tspan x="398" dy="0">[có]</tspan></text>
  <text x="505" y="443" text-anchor="start" font-family="Arial, Helvetica, sans-serif" font-size="13" font-weight="500" fill="#475569"><tspan x="505" dy="0">[không]</tspan></text>
  <text x="180" y="645" text-anchor="start" font-family="Arial, Helvetica, sans-serif" font-size="13" font-weight="500" fill="#475569"><tspan x="180" dy="0">[có]</tspan></text>
  <text x="560" y="645" text-anchor="start" font-family="Arial, Helvetica, sans-serif" font-size="13" font-weight="500" fill="#475569"><tspan x="560" dy="0">[không]</tspan></text>
</svg>
