<svg xmlns="http://www.w3.org/2000/svg" width="1988" height="320" viewBox="0 0 1988 320">
  <defs>
    <marker id="arrow" markerWidth="10" markerHeight="10" refX="9" refY="5" orient="auto"><path d="M0,0 L10,5 L0,10 z" fill="#475569"/></marker>
  </defs>
  <rect width="100%" height="100%" fill="#ffffff"/>
  <text x="40" y="76" text-anchor="start" font-family="Arial, Helvetica, sans-serif" font-size="24" font-weight="700" fill="#0f172a"><tspan x="40" dy="0">UC-04 Activity - Monitor Status and Receive Alerts</tspan></text>
  <ellipse cx="88" cy="158" rx="18" ry="18" fill="#1e1e1e" stroke="#1e1e1e" stroke-width="2"/>
  <rect x="160" y="120" width="245" height="76" rx="14" fill="#ffffff" stroke="#0284c7" stroke-width="2"/>
  <text x="282.5" y="157.8" text-anchor="middle" font-family="Arial, Helvetica, sans-serif" font-size="16" font-weight="500" fill="#0f172a"><tspan x="282.5" dy="0">Open monitoring</tspan><tspan x="282.5" dy="19.2">area</tspan></text>
  <rect x="480" y="120" width="245" height="76" rx="14" fill="#ffffff" stroke="#0284c7" stroke-width="2"/>
  <text x="602.5" y="157.8" text-anchor="middle" font-family="Arial, Helvetica, sans-serif" font-size="16" font-weight="500" fill="#0f172a"><tspan x="602.5" dy="0">Load status</tspan><tspan x="602.5" dy="19.2">within scope</tspan></text>
  <polygon points="892.5,107 975,158 892.5,209 810,158" fill="#fff7ed" stroke="#f97316" stroke-width="2"/>
  <text x="895" y="155.8" text-anchor="middle" font-family="Arial, Helvetica, sans-serif" font-size="16" font-weight="500" fill="#0f172a"><tspan x="895" dy="0">New</tspan><tspan x="895" dy="19.2">event?</tspan></text>
  <rect x="1110" y="40" width="270" height="76" rx="14" fill="#ffffff" stroke="#0284c7" stroke-width="2"/>
  <text x="1245" y="77.8" text-anchor="middle" font-family="Arial, Helvetica, sans-serif" font-size="16" font-weight="500" fill="#0f172a"><tspan x="1245" dy="0">Show notification</tspan><tspan x="1245" dy="19.2">or alert</tspan></text>
  <rect x="1110" y="204" width="270" height="76" rx="14" fill="#ffffff" stroke="#0284c7" stroke-width="2"/>
  <text x="1245" y="241.8" text-anchor="middle" font-family="Arial, Helvetica, sans-serif" font-size="16" font-weight="500" fill="#0f172a"><tspan x="1245" dy="0">Show current</tspan><tspan x="1245" dy="19.2">status only</tspan></text>
  <rect x="1510" y="120" width="270" height="76" rx="14" fill="#ffffff" stroke="#0284c7" stroke-width="2"/>
  <text x="1645" y="157.8" text-anchor="middle" font-family="Arial, Helvetica, sans-serif" font-size="16" font-weight="500" fill="#0f172a"><tspan x="1645" dy="0">Open detail</tspan><tspan x="1645" dy="19.2">if needed</tspan></text>
  <ellipse cx="1924" cy="158" rx="24" ry="24" fill="none" stroke="#1e1e1e" stroke-width="2"/>
  <ellipse cx="1924" cy="158" rx="12" ry="12" fill="#1e1e1e" stroke="#1e1e1e" stroke-width="2"/>
  <path d="M106 158 L160 158" fill="none" stroke="#475569" stroke-width="2" marker-end="url(#arrow)"/>
  <path d="M405 158 L480 158" fill="none" stroke="#475569" stroke-width="2" marker-end="url(#arrow)"/>
  <path d="M725 158 L810 158" fill="none" stroke="#475569" stroke-width="2" marker-end="url(#arrow)"/>
  <path d="M975 137 L1110 77" fill="none" stroke="#475569" stroke-width="2" marker-end="url(#arrow)"/>
  <path d="M975 182 L1110 242" fill="none" stroke="#475569" stroke-width="2" marker-end="url(#arrow)"/>
  <path d="M1380 78 L1510 158" fill="none" stroke="#475569" stroke-width="2" marker-end="url(#arrow)"/>
  <path d="M1380 242 L1510 158" fill="none" stroke="#475569" stroke-width="2" marker-end="url(#arrow)"/>
  <path d="M1780 158 L1900 158" fill="none" stroke="#475569" stroke-width="2" marker-end="url(#arrow)"/>
  <text x="1005" y="104" text-anchor="start" font-family="Arial, Helvetica, sans-serif" font-size="14" font-weight="500" fill="#475569"><tspan x="1005" dy="0">[yes]</tspan></text>
  <text x="1005" y="236" text-anchor="start" font-family="Arial, Helvetica, sans-serif" font-size="14" font-weight="500" fill="#475569"><tspan x="1005" dy="0">[no]</tspan></text>
</svg>
