<svg xmlns="http://www.w3.org/2000/svg" width="1480" height="980" viewBox="0 0 1480 980">
  <defs>
    <marker id="arrow" markerWidth="10" markerHeight="10" refX="9" refY="5" orient="auto">
      <path d="M0,0 L10,5 L0,10 z" fill="#64748b"/>
    </marker>
  </defs>
  <rect width="100%" height="100%" fill="#ffffff"/>
  <text x="60" y="62" font-family="Arial, Helvetica, sans-serif" font-size="30" font-weight="700" fill="#0f172a">Deployment View of SMAP</text>

  <rect x="450" y="110" width="520" height="120" rx="18" fill="#eff6ff" stroke="#60a5fa" stroke-width="2"/>
  <text x="474" y="140" font-family="Arial, Helvetica, sans-serif" font-size="21" font-weight="700" fill="#1e3a8a">Client Access</text>
  <rect x="488" y="160" width="180" height="44" rx="12" fill="#ffffff" stroke="#475569" stroke-width="2"/>
  <rect x="742" y="160" width="180" height="44" rx="12" fill="#ffffff" stroke="#475569" stroke-width="2"/>
  <text x="578" y="188" text-anchor="middle" font-family="Arial, Helvetica, sans-serif" font-size="18" fill="#0f172a">Users</text>
  <text x="832" y="188" text-anchor="middle" font-family="Arial, Helvetica, sans-serif" font-size="18" fill="#0f172a">Operators</text>

  <rect x="560" y="274" width="300" height="72" rx="16" fill="#dcfce7" stroke="#16a34a" stroke-width="2"/>
  <text x="710" y="303" text-anchor="middle" font-family="Arial, Helvetica, sans-serif" font-size="20" font-weight="700" fill="#14532d">Traefik Gateway</text>
  <text x="710" y="327" text-anchor="middle" font-family="Arial, Helvetica, sans-serif" font-size="16" fill="#166534">smap-api.tantai.dev</text>

  <rect x="60" y="390" width="1100" height="470" rx="20" fill="#f5f3ff" stroke="#c4b5fd" stroke-width="2"/>
  <text x="84" y="420" font-family="Arial, Helvetica, sans-serif" font-size="21" font-weight="700" fill="#6d28d9">Kubernetes Workloads</text>

  <g font-family="Arial, Helvetica, sans-serif" font-size="18" fill="#0f172a" text-anchor="middle">
    <rect x="108" y="466" width="180" height="56" rx="12" fill="#ffffff" stroke="#2563eb" stroke-width="2"/>
    <text x="198" y="500">smap-ui</text>

    <rect x="320" y="466" width="180" height="56" rx="12" fill="#ffffff" stroke="#2563eb" stroke-width="2"/>
    <text x="410" y="500">identity-srv</text>

    <rect x="532" y="466" width="180" height="56" rx="12" fill="#ffffff" stroke="#2563eb" stroke-width="2"/>
    <text x="622" y="500">project-srv</text>

    <rect x="744" y="466" width="180" height="56" rx="12" fill="#ffffff" stroke="#2563eb" stroke-width="2"/>
    <text x="834" y="500">ingest-srv</text>

    <rect x="956" y="466" width="180" height="56" rx="12" fill="#ffffff" stroke="#2563eb" stroke-width="2"/>
    <text x="1046" y="500">knowledge-srv</text>

    <rect x="214" y="610" width="220" height="56" rx="12" fill="#ffffff" stroke="#2563eb" stroke-width="2"/>
    <text x="324" y="644">notification-srv</text>

    <rect x="468" y="610" width="220" height="56" rx="12" fill="#fff7ed" stroke="#ea580c" stroke-width="2"/>
    <text x="578" y="644" fill="#9a3412">scapper-srv</text>

    <rect x="722" y="610" width="220" height="56" rx="12" fill="#fff7ed" stroke="#ea580c" stroke-width="2"/>
    <text x="832" y="644" fill="#9a3412">analysis-consumer</text>
  </g>

  <rect x="1200" y="390" width="240" height="470" rx="20" fill="#f0fdf4" stroke="#86efac" stroke-width="2"/>
  <text x="1224" y="420" font-family="Arial, Helvetica, sans-serif" font-size="21" font-weight="700" fill="#166534">Platform Services</text>

  <g font-family="Arial, Helvetica, sans-serif" font-size="18" fill="#0f172a" text-anchor="middle">
    <rect x="1230" y="458" width="180" height="44" rx="12" fill="#ffffff" stroke="#16a34a" stroke-width="2"/>
    <text x="1320" y="486">PostgreSQL</text>
    <rect x="1230" y="520" width="180" height="44" rx="12" fill="#ffffff" stroke="#16a34a" stroke-width="2"/>
    <text x="1320" y="548">Redis</text>
    <rect x="1230" y="582" width="180" height="44" rx="12" fill="#ffffff" stroke="#16a34a" stroke-width="2"/>
    <text x="1320" y="610">RabbitMQ</text>
    <rect x="1230" y="644" width="180" height="44" rx="12" fill="#ffffff" stroke="#16a34a" stroke-width="2"/>
    <text x="1320" y="672">Kafka</text>
    <rect x="1230" y="706" width="180" height="44" rx="12" fill="#ffffff" stroke="#16a34a" stroke-width="2"/>
    <text x="1320" y="734">MinIO</text>
    <rect x="1230" y="768" width="180" height="44" rx="12" fill="#ffffff" stroke="#16a34a" stroke-width="2"/>
    <text x="1320" y="796">Qdrant</text>
  </g>

  <rect x="60" y="884" width="300" height="48" rx="12" fill="#ecfeff" stroke="#0ea5e9" stroke-width="2"/>
  <text x="210" y="914" text-anchor="middle" font-family="Arial, Helvetica, sans-serif" font-size="18" fill="#0f172a">Harbor Registry / Image Pull</text>

  <g fill="none" stroke="#64748b" stroke-width="2" marker-end="url(#arrow)">
    <path d="M578 204 L640 274"/>
    <path d="M832 204 L780 274"/>
    <path d="M710 346 L198 466"/>
    <path d="M710 346 L410 466"/>
    <path d="M710 346 L622 466"/>
    <path d="M710 346 L834 466"/>
    <path d="M710 346 L1046 466"/>
    <path d="M710 346 L324 610"/>
    <path d="M710 346 L578 610"/>
    <path d="M710 346 L832 610"/>

    <path d="M712 494 L744 494"/>
    <path d="M834 522 L634 610"/>
    <path d="M578 638 L744 638"/>
    <path d="M942 638 L956 522"/>

    <path d="M410 522 L1260 458"/>
    <path d="M622 522 L1260 458"/>
    <path d="M834 522 L1230 582"/>
    <path d="M834 522 L1230 644"/>
    <path d="M834 522 L1230 706"/>
    <path d="M1046 522 L1230 458"/>
    <path d="M1046 522 L1230 520"/>
    <path d="M1046 522 L1230 644"/>
    <path d="M1046 522 L1230 706"/>
    <path d="M1046 522 L1230 768"/>
    <path d="M324 610 L1230 520"/>
    <path d="M578 610 L1230 582"/>
    <path d="M578 610 L1230 706"/>
    <path d="M832 610 L1230 644"/>

    <path d="M360 884 L198 522"/>
    <path d="M360 884 L410 522"/>
    <path d="M360 884 L622 522"/>
    <path d="M360 884 L834 522"/>
    <path d="M360 884 L1046 522"/>
    <path d="M360 884 L578 666"/>
    <path d="M360 884 L832 666"/>
  </g>

  <g font-family="Arial, Helvetica, sans-serif" font-size="14" fill="#475569">
    <text x="650" y="478">internal HTTP</text>
    <text x="692" y="560">RabbitMQ tasks</text>
    <text x="650" y="628">completion</text>
    <text x="950" y="620">analytics topics</text>
    <text x="890" y="568">Kafka / UAP</text>
  </g>
</svg>
