<?xml version="1.0" encoding="UTF-8" standalone="no"?>
<!DOCTYPE svg PUBLIC "-//W3C//DTD SVG 1.1//EN"
 "http://www.w3.org/Graphics/SVG/1.1/DTD/svg11.dtd">
<!-- Generated by graphviz version 14.1.5 (20260411.2331)
 -->
<!-- Title: AnalyticsERD Pages: 1 -->
<svg width="1030pt" height="709pt"
 viewBox="0.00 0.00 1030.00 709.00" xmlns="http://www.w3.org/2000/svg" xmlns:xlink="http://www.w3.org/1999/xlink">
<g id="graph0" class="graph" transform="scale(1 1) rotate(0) translate(14.4 694.65)">
<title>AnalyticsERD</title>
<polygon fill="white" stroke="none" points="-14.4,14.4 -14.4,-694.65 1015.15,-694.65 1015.15,14.4 -14.4,14.4"/>
<!-- postinsight -->
<g id="node1" class="node">
<title>postinsight</title>
<polygon fill="#f5f2ff" stroke="none" points="1,-644.5 1,-679.25 563,-679.25 563,-644.5 1,-644.5"/>
<polygon fill="none" stroke="#8f7cff" points="1,-644.5 1,-679.25 563,-679.25 563,-644.5 1,-644.5"/>
<text xml:space="preserve" text-anchor="start" x="223.5" y="-656.25" font-family="Arial" font-size="16.00">POST_INSIGHT</text>
<polygon fill="none" stroke="#8f7cff" points="1,-612.75 1,-644.5 91.25,-644.5 91.25,-612.75 1,-612.75"/>
<text xml:space="preserve" text-anchor="start" x="9" y="-623.75" font-family="Arial" font-size="14.00">uuid</text>
<polygon fill="none" stroke="#8f7cff" points="91.25,-612.75 91.25,-644.5 399.75,-644.5 399.75,-612.75 91.25,-612.75"/>
<text xml:space="preserve" text-anchor="start" x="99.25" y="-623.75" font-family="Arial" font-size="14.00">id</text>
<polygon fill="none" stroke="#8f7cff" points="399.75,-612.75 399.75,-644.5 433.75,-644.5 433.75,-612.75 399.75,-612.75"/>
<text xml:space="preserve" text-anchor="start" x="407.75" y="-623.75" font-family="Arial" font-size="14.00">PK</text>
<polygon fill="none" stroke="#8f7cff" points="433.75,-612.75 433.75,-644.5 563,-644.5 563,-612.75 433.75,-612.75"/>
<polygon fill="none" stroke="#8f7cff" points="1,-581 1,-612.75 91.25,-612.75 91.25,-581 1,-581"/>
<text xml:space="preserve" text-anchor="start" x="9" y="-592" font-family="Arial" font-size="14.00">varchar</text>
<polygon fill="none" stroke="#8f7cff" points="91.25,-581 91.25,-612.75 399.75,-612.75 399.75,-581 91.25,-581"/>
<text xml:space="preserve" text-anchor="start" x="99.25" y="-592" font-family="Arial" font-size="14.00">project_id</text>
<polygon fill="none" stroke="#8f7cff" points="399.75,-581 399.75,-612.75 433.75,-612.75 433.75,-581 399.75,-581"/>
<polygon fill="none" stroke="#8f7cff" points="433.75,-581 433.75,-612.75 563,-612.75 563,-581 433.75,-581"/>
<text xml:space="preserve" text-anchor="start" x="441.75" y="-592" font-family="Arial" font-size="14.00">External project ref</text>
<polygon fill="none" stroke="#8f7cff" points="1,-549.25 1,-581 91.25,-581 91.25,-549.25 1,-549.25"/>
<text xml:space="preserve" text-anchor="start" x="9" y="-560.25" font-family="Arial" font-size="14.00">varchar</text>
<polygon fill="none" stroke="#8f7cff" points="91.25,-549.25 91.25,-581 399.75,-581 399.75,-549.25 91.25,-549.25"/>
<text xml:space="preserve" text-anchor="start" x="99.25" y="-560.25" font-family="Arial" font-size="14.00">source_id</text>
<polygon fill="none" stroke="#8f7cff" points="399.75,-549.25 399.75,-581 433.75,-581 433.75,-549.25 399.75,-549.25"/>
<polygon fill="none" stroke="#8f7cff" points="433.75,-549.25 433.75,-581 563,-581 563,-549.25 433.75,-549.25"/>
<text xml:space="preserve" text-anchor="start" x="441.75" y="-560.25" font-family="Arial" font-size="14.00">External source ref</text>
<polygon fill="none" stroke="#8f7cff" points="1,-517.5 1,-549.25 91.25,-549.25 91.25,-517.5 1,-517.5"/>
<text xml:space="preserve" text-anchor="start" x="9" y="-528.5" font-family="Arial" font-size="14.00">text</text>
<polygon fill="none" stroke="#8f7cff" points="91.25,-517.5 91.25,-549.25 399.75,-549.25 399.75,-517.5 91.25,-517.5"/>
<text xml:space="preserve" text-anchor="start" x="99.25" y="-528.5" font-family="Arial" font-size="14.00">content</text>
<polygon fill="none" stroke="#8f7cff" points="399.75,-517.5 399.75,-549.25 433.75,-549.25 433.75,-517.5 399.75,-517.5"/>
<polygon fill="none" stroke="#8f7cff" points="433.75,-517.5 433.75,-549.25 563,-549.25 563,-517.5 433.75,-517.5"/>
<polygon fill="none" stroke="#8f7cff" points="1,-485.75 1,-517.5 91.25,-517.5 91.25,-485.75 1,-485.75"/>
<text xml:space="preserve" text-anchor="start" x="9" y="-496.75" font-family="Arial" font-size="14.00">timestamptz</text>
<polygon fill="none" stroke="#8f7cff" points="91.25,-485.75 91.25,-517.5 399.75,-517.5 399.75,-485.75 91.25,-485.75"/>
<text xml:space="preserve" text-anchor="start" x="99.25" y="-496.75" font-family="Arial" font-size="14.00">content_created_at, ingested_at</text>
<polygon fill="none" stroke="#8f7cff" points="399.75,-485.75 399.75,-517.5 433.75,-517.5 433.75,-485.75 399.75,-485.75"/>
<polygon fill="none" stroke="#8f7cff" points="433.75,-485.75 433.75,-517.5 563,-517.5 563,-485.75 433.75,-485.75"/>
<polygon fill="none" stroke="#8f7cff" points="1,-454 1,-485.75 91.25,-485.75 91.25,-454 1,-454"/>
<text xml:space="preserve" text-anchor="start" x="9" y="-465" font-family="Arial" font-size="14.00">varchar</text>
<polygon fill="none" stroke="#8f7cff" points="91.25,-454 91.25,-485.75 399.75,-485.75 399.75,-454 91.25,-454"/>
<text xml:space="preserve" text-anchor="start" x="99.25" y="-465" font-family="Arial" font-size="14.00">platform</text>
<polygon fill="none" stroke="#8f7cff" points="399.75,-454 399.75,-485.75 433.75,-485.75 433.75,-454 399.75,-454"/>
<polygon fill="none" stroke="#8f7cff" points="433.75,-454 433.75,-485.75 563,-485.75 563,-454 433.75,-454"/>
<polygon fill="none" stroke="#8f7cff" points="1,-422.25 1,-454 91.25,-454 91.25,-422.25 1,-422.25"/>
<text xml:space="preserve" text-anchor="start" x="9" y="-433.25" font-family="Arial" font-size="14.00">jsonb</text>
<polygon fill="none" stroke="#8f7cff" points="91.25,-422.25 91.25,-454 399.75,-454 399.75,-422.25 91.25,-422.25"/>
<text xml:space="preserve" text-anchor="start" x="99.25" y="-433.25" font-family="Arial" font-size="14.00">uap_metadata, aspects, risk_factors</text>
<polygon fill="none" stroke="#8f7cff" points="399.75,-422.25 399.75,-454 433.75,-454 433.75,-422.25 399.75,-422.25"/>
<polygon fill="none" stroke="#8f7cff" points="433.75,-422.25 433.75,-454 563,-454 563,-422.25 433.75,-422.25"/>
<polygon fill="none" stroke="#8f7cff" points="1,-390.5 1,-422.25 91.25,-422.25 91.25,-390.5 1,-390.5"/>
<text xml:space="preserve" text-anchor="start" x="9" y="-401.5" font-family="Arial" font-size="14.00">text[]</text>
<polygon fill="none" stroke="#8f7cff" points="91.25,-390.5 91.25,-422.25 399.75,-422.25 399.75,-390.5 91.25,-390.5"/>
<text xml:space="preserve" text-anchor="start" x="99.25" y="-401.5" font-family="Arial" font-size="14.00">keywords</text>
<polygon fill="none" stroke="#8f7cff" points="399.75,-390.5 399.75,-422.25 433.75,-422.25 433.75,-390.5 399.75,-390.5"/>
<polygon fill="none" stroke="#8f7cff" points="433.75,-390.5 433.75,-422.25 563,-422.25 563,-390.5 433.75,-390.5"/>
<polygon fill="none" stroke="#8f7cff" points="1,-358.75 1,-390.5 91.25,-390.5 91.25,-358.75 1,-358.75"/>
<text xml:space="preserve" text-anchor="start" x="9" y="-369.75" font-family="Arial" font-size="14.00">varchar/float</text>
<polygon fill="none" stroke="#8f7cff" points="91.25,-358.75 91.25,-390.5 399.75,-390.5 399.75,-358.75 91.25,-358.75"/>
<text xml:space="preserve" text-anchor="start" x="99.25" y="-369.75" font-family="Arial" font-size="14.00">overall_sentiment, risk_level, scores</text>
<polygon fill="none" stroke="#8f7cff" points="399.75,-358.75 399.75,-390.5 433.75,-390.5 433.75,-358.75 399.75,-358.75"/>
<polygon fill="none" stroke="#8f7cff" points="433.75,-358.75 433.75,-390.5 563,-390.5 563,-358.75 433.75,-358.75"/>
<polygon fill="none" stroke="#8f7cff" points="1,-327 1,-358.75 91.25,-358.75 91.25,-327 1,-327"/>
<text xml:space="preserve" text-anchor="start" x="9" y="-338" font-family="Arial" font-size="14.00">timestamptz</text>
<polygon fill="none" stroke="#8f7cff" points="91.25,-327 91.25,-358.75 399.75,-358.75 399.75,-327 91.25,-327"/>
<text xml:space="preserve" text-anchor="start" x="99.25" y="-338" font-family="Arial" font-size="14.00">analyzed_at, indexed_at, created_at, updated_at</text>
<polygon fill="none" stroke="#8f7cff" points="399.75,-327 399.75,-358.75 433.75,-358.75 433.75,-327 399.75,-327"/>
<polygon fill="none" stroke="#8f7cff" points="433.75,-327 433.75,-358.75 563,-358.75 563,-327 433.75,-327"/>
<polygon fill="none" stroke="#8f7cff" points="0,-326 0,-680.25 564,-680.25 564,-326 0,-326"/>
</g>
<!-- outbox -->
<g id="node2" class="node">
<title>outbox</title>
<polygon fill="#f5f2ff" stroke="none" points="82,-223.25 82,-258 482,-258 482,-223.25 82,-223.25"/>
<polygon fill="none" stroke="#8f7cff" points="82,-223.25 82,-258 482,-258 482,-223.25 82,-223.25"/>
<text xml:space="preserve" text-anchor="start" x="200.62" y="-235" font-family="Arial" font-size="16.00">ANALYTICS_OUTBOX</text>
<polygon fill="none" stroke="#8f7cff" points="82,-191.5 82,-223.25 172.25,-223.25 172.25,-191.5 82,-191.5"/>
<text xml:space="preserve" text-anchor="start" x="90" y="-202.5" font-family="Arial" font-size="14.00">uuid</text>
<polygon fill="none" stroke="#8f7cff" points="172.25,-191.5 172.25,-223.25 303.75,-223.25 303.75,-191.5 172.25,-191.5"/>
<text xml:space="preserve" text-anchor="start" x="180.25" y="-202.5" font-family="Arial" font-size="14.00">id</text>
<polygon fill="none" stroke="#8f7cff" points="303.75,-191.5 303.75,-223.25 337.75,-223.25 337.75,-191.5 303.75,-191.5"/>
<text xml:space="preserve" text-anchor="start" x="311.75" y="-202.5" font-family="Arial" font-size="14.00">PK</text>
<polygon fill="none" stroke="#8f7cff" points="337.75,-191.5 337.75,-223.25 482,-223.25 482,-191.5 337.75,-191.5"/>
<polygon fill="none" stroke="#8f7cff" points="82,-159.75 82,-191.5 172.25,-191.5 172.25,-159.75 82,-159.75"/>
<text xml:space="preserve" text-anchor="start" x="90" y="-170.75" font-family="Arial" font-size="14.00">text</text>
<polygon fill="none" stroke="#8f7cff" points="172.25,-159.75 172.25,-191.5 303.75,-191.5 303.75,-159.75 172.25,-159.75"/>
<text xml:space="preserve" text-anchor="start" x="180.25" y="-170.75" font-family="Arial" font-size="14.00">run_id</text>
<polygon fill="none" stroke="#8f7cff" points="303.75,-159.75 303.75,-191.5 337.75,-191.5 337.75,-159.75 303.75,-159.75"/>
<polygon fill="none" stroke="#8f7cff" points="337.75,-159.75 337.75,-191.5 482,-191.5 482,-159.75 337.75,-159.75"/>
<text xml:space="preserve" text-anchor="start" x="345.75" y="-170.75" font-family="Arial" font-size="14.00">Logical correlation</text>
<polygon fill="none" stroke="#8f7cff" points="82,-128 82,-159.75 172.25,-159.75 172.25,-128 82,-128"/>
<text xml:space="preserve" text-anchor="start" x="90" y="-139" font-family="Arial" font-size="14.00">text</text>
<polygon fill="none" stroke="#8f7cff" points="172.25,-128 172.25,-159.75 303.75,-159.75 303.75,-128 172.25,-128"/>
<text xml:space="preserve" text-anchor="start" x="180.25" y="-139" font-family="Arial" font-size="14.00">topic</text>
<polygon fill="none" stroke="#8f7cff" points="303.75,-128 303.75,-159.75 337.75,-159.75 337.75,-128 303.75,-128"/>
<polygon fill="none" stroke="#8f7cff" points="337.75,-128 337.75,-159.75 482,-159.75 482,-128 337.75,-128"/>
<polygon fill="none" stroke="#8f7cff" points="82,-96.25 82,-128 172.25,-128 172.25,-96.25 82,-96.25"/>
<text xml:space="preserve" text-anchor="start" x="90" y="-107.25" font-family="Arial" font-size="14.00">jsonb</text>
<polygon fill="none" stroke="#8f7cff" points="172.25,-96.25 172.25,-128 303.75,-128 303.75,-96.25 172.25,-96.25"/>
<text xml:space="preserve" text-anchor="start" x="180.25" y="-107.25" font-family="Arial" font-size="14.00">payload</text>
<polygon fill="none" stroke="#8f7cff" points="303.75,-96.25 303.75,-128 337.75,-128 337.75,-96.25 303.75,-96.25"/>
<polygon fill="none" stroke="#8f7cff" points="337.75,-96.25 337.75,-128 482,-128 482,-96.25 337.75,-96.25"/>
<polygon fill="none" stroke="#8f7cff" points="82,-64.5 82,-96.25 172.25,-96.25 172.25,-64.5 82,-64.5"/>
<text xml:space="preserve" text-anchor="start" x="90" y="-75.5" font-family="Arial" font-size="14.00">text</text>
<polygon fill="none" stroke="#8f7cff" points="172.25,-64.5 172.25,-96.25 303.75,-96.25 303.75,-64.5 172.25,-64.5"/>
<text xml:space="preserve" text-anchor="start" x="180.25" y="-75.5" font-family="Arial" font-size="14.00">status</text>
<polygon fill="none" stroke="#8f7cff" points="303.75,-64.5 303.75,-96.25 337.75,-96.25 337.75,-64.5 303.75,-64.5"/>
<polygon fill="none" stroke="#8f7cff" points="337.75,-64.5 337.75,-96.25 482,-96.25 482,-64.5 337.75,-64.5"/>
<text xml:space="preserve" text-anchor="start" x="345.75" y="-75.5" font-family="Arial" font-size="14.00">pending | sent | failed</text>
<polygon fill="none" stroke="#8f7cff" points="82,-32.75 82,-64.5 172.25,-64.5 172.25,-32.75 82,-32.75"/>
<text xml:space="preserve" text-anchor="start" x="90" y="-43.75" font-family="Arial" font-size="14.00">text</text>
<polygon fill="none" stroke="#8f7cff" points="172.25,-32.75 172.25,-64.5 303.75,-64.5 303.75,-32.75 172.25,-32.75"/>
<text xml:space="preserve" text-anchor="start" x="180.25" y="-43.75" font-family="Arial" font-size="14.00">error</text>
<polygon fill="none" stroke="#8f7cff" points="303.75,-32.75 303.75,-64.5 337.75,-64.5 337.75,-32.75 303.75,-32.75"/>
<polygon fill="none" stroke="#8f7cff" points="337.75,-32.75 337.75,-64.5 482,-64.5 482,-32.75 337.75,-32.75"/>
<polygon fill="none" stroke="#8f7cff" points="82,-1 82,-32.75 172.25,-32.75 172.25,-1 82,-1"/>
<text xml:space="preserve" text-anchor="start" x="90" y="-12" font-family="Arial" font-size="14.00">timestamptz</text>
<polygon fill="none" stroke="#8f7cff" points="172.25,-1 172.25,-32.75 303.75,-32.75 303.75,-1 172.25,-1"/>
<text xml:space="preserve" text-anchor="start" x="180.25" y="-12" font-family="Arial" font-size="14.00">created_at, sent_at</text>
<polygon fill="none" stroke="#8f7cff" points="303.75,-1 303.75,-32.75 337.75,-32.75 337.75,-1 303.75,-1"/>
<polygon fill="none" stroke="#8f7cff" points="337.75,-1 337.75,-32.75 482,-32.75 482,-1 337.75,-1"/>
<polygon fill="none" stroke="#8f7cff" points="81,0 81,-259 483,-259 483,0 81,0"/>
</g>
<!-- postinsight&#45;&gt;outbox -->
<!-- manifest -->
<g id="node3" class="node">
<title>manifest</title>
<polygon fill="#f5f2ff" stroke="none" points="634.25,-191.5 634.25,-226.25 999.75,-226.25 999.75,-191.5 634.25,-191.5"/>
<polygon fill="none" stroke="#8f7cff" points="634.25,-191.5 634.25,-226.25 999.75,-226.25 999.75,-191.5 634.25,-191.5"/>
<text xml:space="preserve" text-anchor="start" x="707.88" y="-203.25" font-family="Arial" font-size="16.00">ANALYTICS_RUN_MANIFEST</text>
<polygon fill="none" stroke="#8f7cff" points="634.25,-159.75 634.25,-191.5 724.5,-191.5 724.5,-159.75 634.25,-159.75"/>
<text xml:space="preserve" text-anchor="start" x="642.25" y="-170.75" font-family="Arial" font-size="14.00">text</text>
<polygon fill="none" stroke="#8f7cff" points="724.5,-159.75 724.5,-191.5 817.75,-191.5 817.75,-159.75 724.5,-159.75"/>
<text xml:space="preserve" text-anchor="start" x="732.5" y="-170.75" font-family="Arial" font-size="14.00">run_id</text>
<polygon fill="none" stroke="#8f7cff" points="817.75,-159.75 817.75,-191.5 851.75,-191.5 851.75,-159.75 817.75,-159.75"/>
<text xml:space="preserve" text-anchor="start" x="825.75" y="-170.75" font-family="Arial" font-size="14.00">PK</text>
<polygon fill="none" stroke="#8f7cff" points="851.75,-159.75 851.75,-191.5 999.75,-191.5 999.75,-159.75 851.75,-159.75"/>
<polygon fill="none" stroke="#8f7cff" points="634.25,-128 634.25,-159.75 724.5,-159.75 724.5,-128 634.25,-128"/>
<text xml:space="preserve" text-anchor="start" x="642.25" y="-139" font-family="Arial" font-size="14.00">text</text>
<polygon fill="none" stroke="#8f7cff" points="724.5,-128 724.5,-159.75 817.75,-159.75 817.75,-128 724.5,-128"/>
<text xml:space="preserve" text-anchor="start" x="732.5" y="-139" font-family="Arial" font-size="14.00">project_id</text>
<polygon fill="none" stroke="#8f7cff" points="817.75,-128 817.75,-159.75 851.75,-159.75 851.75,-128 817.75,-128"/>
<polygon fill="none" stroke="#8f7cff" points="851.75,-128 851.75,-159.75 999.75,-159.75 999.75,-128 851.75,-128"/>
<text xml:space="preserve" text-anchor="start" x="859.75" y="-139" font-family="Arial" font-size="14.00">External project ref</text>
<polygon fill="none" stroke="#8f7cff" points="634.25,-96.25 634.25,-128 724.5,-128 724.5,-96.25 634.25,-96.25"/>
<text xml:space="preserve" text-anchor="start" x="642.25" y="-107.25" font-family="Arial" font-size="14.00">text</text>
<polygon fill="none" stroke="#8f7cff" points="724.5,-96.25 724.5,-128 817.75,-128 817.75,-96.25 724.5,-96.25"/>
<text xml:space="preserve" text-anchor="start" x="732.5" y="-107.25" font-family="Arial" font-size="14.00">campaign_id</text>
<polygon fill="none" stroke="#8f7cff" points="817.75,-96.25 817.75,-128 851.75,-128 851.75,-96.25 817.75,-96.25"/>
<polygon fill="none" stroke="#8f7cff" points="851.75,-96.25 851.75,-128 999.75,-128 999.75,-96.25 851.75,-96.25"/>
<text xml:space="preserve" text-anchor="start" x="859.75" y="-107.25" font-family="Arial" font-size="14.00">External campaign ref</text>
<polygon fill="none" stroke="#8f7cff" points="634.25,-64.5 634.25,-96.25 724.5,-96.25 724.5,-64.5 634.25,-64.5"/>
<text xml:space="preserve" text-anchor="start" x="642.25" y="-75.5" font-family="Arial" font-size="14.00">jsonb</text>
<polygon fill="none" stroke="#8f7cff" points="724.5,-64.5 724.5,-96.25 817.75,-96.25 817.75,-64.5 724.5,-64.5"/>
<text xml:space="preserve" text-anchor="start" x="732.5" y="-75.5" font-family="Arial" font-size="14.00">data</text>
<polygon fill="none" stroke="#8f7cff" points="817.75,-64.5 817.75,-96.25 851.75,-96.25 851.75,-64.5 817.75,-64.5"/>
<polygon fill="none" stroke="#8f7cff" points="851.75,-64.5 851.75,-96.25 999.75,-96.25 999.75,-64.5 851.75,-64.5"/>
<text xml:space="preserve" text-anchor="start" x="859.75" y="-75.5" font-family="Arial" font-size="14.00">Run manifest payload</text>
<polygon fill="none" stroke="#8f7cff" points="634.25,-32.75 634.25,-64.5 724.5,-64.5 724.5,-32.75 634.25,-32.75"/>
<text xml:space="preserve" text-anchor="start" x="642.25" y="-43.75" font-family="Arial" font-size="14.00">timestamptz</text>
<polygon fill="none" stroke="#8f7cff" points="724.5,-32.75 724.5,-64.5 817.75,-64.5 817.75,-32.75 724.5,-32.75"/>
<text xml:space="preserve" text-anchor="start" x="732.5" y="-43.75" font-family="Arial" font-size="14.00">updated_at</text>
<polygon fill="none" stroke="#8f7cff" points="817.75,-32.75 817.75,-64.5 851.75,-64.5 851.75,-32.75 817.75,-32.75"/>
<polygon fill="none" stroke="#8f7cff" points="851.75,-32.75 851.75,-64.5 999.75,-64.5 999.75,-32.75 851.75,-32.75"/>
<polygon fill="none" stroke="#8f7cff" points="633.25,-31.75 633.25,-227.25 1000.75,-227.25 1000.75,-31.75 633.25,-31.75"/>
</g>
<!-- outbox&#45;&gt;manifest -->
<g id="edge1" class="edge">
<title>outbox&#45;&gt;manifest</title>
<path fill="none" stroke="#7f7f7f" stroke-width="1.4" stroke-dasharray="5,2" d="M482.74,-129.5C532.25,-129.5 585.03,-129.5 633.67,-129.5"/>
<text xml:space="preserve" text-anchor="middle" x="558.12" y="-135.35" font-family="Arial" font-size="12.00">run_id correlation</text>
</g>
</g>
</svg>
