<?xml version="1.0" encoding="UTF-8" standalone="no"?>
<!DOCTYPE svg PUBLIC "-//W3C//DTD SVG 1.1//EN"
 "http://www.w3.org/Graphics/SVG/1.1/DTD/svg11.dtd">
<!-- Generated by graphviz version 14.1.5 (20260411.2331)
 -->
<!-- Title: IdentityERD Pages: 1 -->
<svg width="855pt" height="754pt"
 viewBox="0.00 0.00 855.00 754.00" xmlns="http://www.w3.org/2000/svg" xmlns:xlink="http://www.w3.org/1999/xlink">
<g id="graph0" class="graph" transform="scale(1 1) rotate(0) translate(14.4 739.65)">
<title>IdentityERD</title>
<polygon fill="white" stroke="none" points="-14.4,14.4 -14.4,-739.65 840.4,-739.65 840.4,14.4 -14.4,14.4"/>
<!-- users -->
<g id="node1" class="node">
<title>users</title>
<polygon fill="#f5f2ff" stroke="none" points="1,-689.5 1,-724.25 326.75,-724.25 326.75,-689.5 1,-689.5"/>
<polygon fill="none" stroke="#8f7cff" points="1,-689.5 1,-724.25 326.75,-724.25 326.75,-689.5 1,-689.5"/>
<text xml:space="preserve" text-anchor="start" x="136.88" y="-701.25" font-family="Arial" font-size="16.00">USERS</text>
<polygon fill="none" stroke="#8f7cff" points="1,-657.75 1,-689.5 91.25,-689.5 91.25,-657.75 1,-657.75"/>
<text xml:space="preserve" text-anchor="start" x="9" y="-668.75" font-family="Arial" font-size="14.00">uuid</text>
<polygon fill="none" stroke="#8f7cff" points="91.25,-657.75 91.25,-689.5 183,-689.5 183,-657.75 91.25,-657.75"/>
<text xml:space="preserve" text-anchor="start" x="99.25" y="-668.75" font-family="Arial" font-size="14.00">id</text>
<polygon fill="none" stroke="#8f7cff" points="183,-657.75 183,-689.5 217.75,-689.5 217.75,-657.75 183,-657.75"/>
<text xml:space="preserve" text-anchor="start" x="191.38" y="-668.75" font-family="Arial" font-size="14.00">PK</text>
<polygon fill="none" stroke="#8f7cff" points="217.75,-657.75 217.75,-689.5 326.75,-689.5 326.75,-657.75 217.75,-657.75"/>
<polygon fill="none" stroke="#8f7cff" points="1,-626 1,-657.75 91.25,-657.75 91.25,-626 1,-626"/>
<text xml:space="preserve" text-anchor="start" x="9" y="-637" font-family="Arial" font-size="14.00">varchar</text>
<polygon fill="none" stroke="#8f7cff" points="91.25,-626 91.25,-657.75 183,-657.75 183,-626 91.25,-626"/>
<text xml:space="preserve" text-anchor="start" x="99.25" y="-637" font-family="Arial" font-size="14.00">email</text>
<polygon fill="none" stroke="#8f7cff" points="183,-626 183,-657.75 217.75,-657.75 217.75,-626 183,-626"/>
<text xml:space="preserve" text-anchor="start" x="191" y="-637" font-family="Arial" font-size="14.00">UK</text>
<polygon fill="none" stroke="#8f7cff" points="217.75,-626 217.75,-657.75 326.75,-657.75 326.75,-626 217.75,-626"/>
<text xml:space="preserve" text-anchor="start" x="225.75" y="-637" font-family="Arial" font-size="14.00">OAuth principal</text>
<polygon fill="none" stroke="#8f7cff" points="1,-594.25 1,-626 91.25,-626 91.25,-594.25 1,-594.25"/>
<text xml:space="preserve" text-anchor="start" x="9" y="-605.25" font-family="Arial" font-size="14.00">varchar</text>
<polygon fill="none" stroke="#8f7cff" points="91.25,-594.25 91.25,-626 183,-626 183,-594.25 91.25,-594.25"/>
<text xml:space="preserve" text-anchor="start" x="99.25" y="-605.25" font-family="Arial" font-size="14.00">name</text>
<polygon fill="none" stroke="#8f7cff" points="183,-594.25 183,-626 217.75,-626 217.75,-594.25 183,-594.25"/>
<polygon fill="none" stroke="#8f7cff" points="217.75,-594.25 217.75,-626 326.75,-626 326.75,-594.25 217.75,-594.25"/>
<polygon fill="none" stroke="#8f7cff" points="1,-562.5 1,-594.25 91.25,-594.25 91.25,-562.5 1,-562.5"/>
<text xml:space="preserve" text-anchor="start" x="9" y="-573.5" font-family="Arial" font-size="14.00">text</text>
<polygon fill="none" stroke="#8f7cff" points="91.25,-562.5 91.25,-594.25 183,-594.25 183,-562.5 91.25,-562.5"/>
<text xml:space="preserve" text-anchor="start" x="99.25" y="-573.5" font-family="Arial" font-size="14.00">avatar_url</text>
<polygon fill="none" stroke="#8f7cff" points="183,-562.5 183,-594.25 217.75,-594.25 217.75,-562.5 183,-562.5"/>
<polygon fill="none" stroke="#8f7cff" points="217.75,-562.5 217.75,-594.25 326.75,-594.25 326.75,-562.5 217.75,-562.5"/>
<polygon fill="none" stroke="#8f7cff" points="1,-530.75 1,-562.5 91.25,-562.5 91.25,-530.75 1,-530.75"/>
<text xml:space="preserve" text-anchor="start" x="9" y="-541.75" font-family="Arial" font-size="14.00">varchar</text>
<polygon fill="none" stroke="#8f7cff" points="91.25,-530.75 91.25,-562.5 183,-562.5 183,-530.75 91.25,-530.75"/>
<text xml:space="preserve" text-anchor="start" x="99.25" y="-541.75" font-family="Arial" font-size="14.00">role_hash</text>
<polygon fill="none" stroke="#8f7cff" points="183,-530.75 183,-562.5 217.75,-562.5 217.75,-530.75 183,-530.75"/>
<polygon fill="none" stroke="#8f7cff" points="217.75,-530.75 217.75,-562.5 326.75,-562.5 326.75,-530.75 217.75,-530.75"/>
<text xml:space="preserve" text-anchor="start" x="225.75" y="-541.75" font-family="Arial" font-size="14.00">Protected role</text>
<polygon fill="none" stroke="#8f7cff" points="1,-499 1,-530.75 91.25,-530.75 91.25,-499 1,-499"/>
<text xml:space="preserve" text-anchor="start" x="9" y="-510" font-family="Arial" font-size="14.00">boolean</text>
<polygon fill="none" stroke="#8f7cff" points="91.25,-499 91.25,-530.75 183,-530.75 183,-499 91.25,-499"/>
<text xml:space="preserve" text-anchor="start" x="99.25" y="-510" font-family="Arial" font-size="14.00">is_active</text>
<polygon fill="none" stroke="#8f7cff" points="183,-499 183,-530.75 217.75,-530.75 217.75,-499 183,-499"/>
<polygon fill="none" stroke="#8f7cff" points="217.75,-499 217.75,-530.75 326.75,-530.75 326.75,-499 217.75,-499"/>
<polygon fill="none" stroke="#8f7cff" points="1,-467.25 1,-499 91.25,-499 91.25,-467.25 1,-467.25"/>
<text xml:space="preserve" text-anchor="start" x="9" y="-478.25" font-family="Arial" font-size="14.00">timestamptz</text>
<polygon fill="none" stroke="#8f7cff" points="91.25,-467.25 91.25,-499 183,-499 183,-467.25 91.25,-467.25"/>
<text xml:space="preserve" text-anchor="start" x="99.25" y="-478.25" font-family="Arial" font-size="14.00">last_login_at</text>
<polygon fill="none" stroke="#8f7cff" points="183,-467.25 183,-499 217.75,-499 217.75,-467.25 183,-467.25"/>
<polygon fill="none" stroke="#8f7cff" points="217.75,-467.25 217.75,-499 326.75,-499 326.75,-467.25 217.75,-467.25"/>
<polygon fill="none" stroke="#8f7cff" points="1,-435.5 1,-467.25 91.25,-467.25 91.25,-435.5 1,-435.5"/>
<text xml:space="preserve" text-anchor="start" x="9" y="-446.5" font-family="Arial" font-size="14.00">timestamptz</text>
<polygon fill="none" stroke="#8f7cff" points="91.25,-435.5 91.25,-467.25 183,-467.25 183,-435.5 91.25,-435.5"/>
<text xml:space="preserve" text-anchor="start" x="99.25" y="-446.5" font-family="Arial" font-size="14.00">created_at</text>
<polygon fill="none" stroke="#8f7cff" points="183,-435.5 183,-467.25 217.75,-467.25 217.75,-435.5 183,-435.5"/>
<polygon fill="none" stroke="#8f7cff" points="217.75,-435.5 217.75,-467.25 326.75,-467.25 326.75,-435.5 217.75,-435.5"/>
<polygon fill="none" stroke="#8f7cff" points="1,-403.75 1,-435.5 91.25,-435.5 91.25,-403.75 1,-403.75"/>
<text xml:space="preserve" text-anchor="start" x="9" y="-414.75" font-family="Arial" font-size="14.00">timestamptz</text>
<polygon fill="none" stroke="#8f7cff" points="91.25,-403.75 91.25,-435.5 183,-435.5 183,-403.75 91.25,-403.75"/>
<text xml:space="preserve" text-anchor="start" x="99.25" y="-414.75" font-family="Arial" font-size="14.00">updated_at</text>
<polygon fill="none" stroke="#8f7cff" points="183,-403.75 183,-435.5 217.75,-435.5 217.75,-403.75 183,-403.75"/>
<polygon fill="none" stroke="#8f7cff" points="217.75,-403.75 217.75,-435.5 326.75,-435.5 326.75,-403.75 217.75,-403.75"/>
<polygon fill="none" stroke="#8f7cff" points="0,-402.75 0,-725.25 327.75,-725.25 327.75,-402.75 0,-402.75"/>
</g>
<!-- jwtkeys -->
<g id="node2" class="node">
<title>jwtkeys</title>
<polygon fill="#f5f2ff" stroke="none" points="458.75,-657.75 458.75,-692.5 825,-692.5 825,-657.75 458.75,-657.75"/>
<polygon fill="none" stroke="#8f7cff" points="458.75,-657.75 458.75,-692.5 825,-692.5 825,-657.75 458.75,-657.75"/>
<text xml:space="preserve" text-anchor="start" x="599.88" y="-669.5" font-family="Arial" font-size="16.00">JWT_KEYS</text>
<polygon fill="none" stroke="#8f7cff" points="458.75,-626 458.75,-657.75 549,-657.75 549,-626 458.75,-626"/>
<text xml:space="preserve" text-anchor="start" x="466.75" y="-637" font-family="Arial" font-size="14.00">varchar</text>
<polygon fill="none" stroke="#8f7cff" points="549,-626 549,-657.75 634,-657.75 634,-626 549,-626"/>
<text xml:space="preserve" text-anchor="start" x="557" y="-637" font-family="Arial" font-size="14.00">kid</text>
<polygon fill="none" stroke="#8f7cff" points="634,-626 634,-657.75 668,-657.75 668,-626 634,-626"/>
<text xml:space="preserve" text-anchor="start" x="642" y="-637" font-family="Arial" font-size="14.00">PK</text>
<polygon fill="none" stroke="#8f7cff" points="668,-626 668,-657.75 825,-657.75 825,-626 668,-626"/>
<text xml:space="preserve" text-anchor="start" x="676" y="-637" font-family="Arial" font-size="14.00">Key identifier</text>
<polygon fill="none" stroke="#8f7cff" points="458.75,-594.25 458.75,-626 549,-626 549,-594.25 458.75,-594.25"/>
<text xml:space="preserve" text-anchor="start" x="466.75" y="-605.25" font-family="Arial" font-size="14.00">text</text>
<polygon fill="none" stroke="#8f7cff" points="549,-594.25 549,-626 634,-626 634,-594.25 549,-594.25"/>
<text xml:space="preserve" text-anchor="start" x="557" y="-605.25" font-family="Arial" font-size="14.00">private_key</text>
<polygon fill="none" stroke="#8f7cff" points="634,-594.25 634,-626 668,-626 668,-594.25 634,-594.25"/>
<polygon fill="none" stroke="#8f7cff" points="668,-594.25 668,-626 825,-626 825,-594.25 668,-594.25"/>
<text xml:space="preserve" text-anchor="start" x="676" y="-605.25" font-family="Arial" font-size="14.00">Encrypted at rest</text>
<polygon fill="none" stroke="#8f7cff" points="458.75,-562.5 458.75,-594.25 549,-594.25 549,-562.5 458.75,-562.5"/>
<text xml:space="preserve" text-anchor="start" x="466.75" y="-573.5" font-family="Arial" font-size="14.00">text</text>
<polygon fill="none" stroke="#8f7cff" points="549,-562.5 549,-594.25 634,-594.25 634,-562.5 549,-562.5"/>
<text xml:space="preserve" text-anchor="start" x="557" y="-573.5" font-family="Arial" font-size="14.00">public_key</text>
<polygon fill="none" stroke="#8f7cff" points="634,-562.5 634,-594.25 668,-594.25 668,-562.5 634,-562.5"/>
<polygon fill="none" stroke="#8f7cff" points="668,-562.5 668,-594.25 825,-594.25 825,-562.5 668,-562.5"/>
<text xml:space="preserve" text-anchor="start" x="676" y="-573.5" font-family="Arial" font-size="14.00">JWKS material</text>
<polygon fill="none" stroke="#8f7cff" points="458.75,-530.75 458.75,-562.5 549,-562.5 549,-530.75 458.75,-530.75"/>
<text xml:space="preserve" text-anchor="start" x="466.75" y="-541.75" font-family="Arial" font-size="14.00">varchar</text>
<polygon fill="none" stroke="#8f7cff" points="549,-530.75 549,-562.5 634,-562.5 634,-530.75 549,-530.75"/>
<text xml:space="preserve" text-anchor="start" x="557" y="-541.75" font-family="Arial" font-size="14.00">status</text>
<polygon fill="none" stroke="#8f7cff" points="634,-530.75 634,-562.5 668,-562.5 668,-530.75 634,-530.75"/>
<polygon fill="none" stroke="#8f7cff" points="668,-530.75 668,-562.5 825,-562.5 825,-530.75 668,-530.75"/>
<text xml:space="preserve" text-anchor="start" x="676" y="-541.75" font-family="Arial" font-size="14.00">active | rotating | retired</text>
<polygon fill="none" stroke="#8f7cff" points="458.75,-499 458.75,-530.75 549,-530.75 549,-499 458.75,-499"/>
<text xml:space="preserve" text-anchor="start" x="466.75" y="-510" font-family="Arial" font-size="14.00">timestamptz</text>
<polygon fill="none" stroke="#8f7cff" points="549,-499 549,-530.75 634,-530.75 634,-499 549,-499"/>
<text xml:space="preserve" text-anchor="start" x="557" y="-510" font-family="Arial" font-size="14.00">created_at</text>
<polygon fill="none" stroke="#8f7cff" points="634,-499 634,-530.75 668,-530.75 668,-499 634,-499"/>
<polygon fill="none" stroke="#8f7cff" points="668,-499 668,-530.75 825,-530.75 825,-499 668,-499"/>
<polygon fill="none" stroke="#8f7cff" points="458.75,-467.25 458.75,-499 549,-499 549,-467.25 458.75,-467.25"/>
<text xml:space="preserve" text-anchor="start" x="466.75" y="-478.25" font-family="Arial" font-size="14.00">timestamptz</text>
<polygon fill="none" stroke="#8f7cff" points="549,-467.25 549,-499 634,-499 634,-467.25 549,-467.25"/>
<text xml:space="preserve" text-anchor="start" x="557" y="-478.25" font-family="Arial" font-size="14.00">expires_at</text>
<polygon fill="none" stroke="#8f7cff" points="634,-467.25 634,-499 668,-499 668,-467.25 634,-467.25"/>
<polygon fill="none" stroke="#8f7cff" points="668,-467.25 668,-499 825,-499 825,-467.25 668,-467.25"/>
<polygon fill="none" stroke="#8f7cff" points="458.75,-435.5 458.75,-467.25 549,-467.25 549,-435.5 458.75,-435.5"/>
<text xml:space="preserve" text-anchor="start" x="466.75" y="-446.5" font-family="Arial" font-size="14.00">timestamptz</text>
<polygon fill="none" stroke="#8f7cff" points="549,-435.5 549,-467.25 634,-467.25 634,-435.5 549,-435.5"/>
<text xml:space="preserve" text-anchor="start" x="557" y="-446.5" font-family="Arial" font-size="14.00">retired_at</text>
<polygon fill="none" stroke="#8f7cff" points="634,-435.5 634,-467.25 668,-467.25 668,-435.5 634,-435.5"/>
<polygon fill="none" stroke="#8f7cff" points="668,-435.5 668,-467.25 825,-467.25 825,-435.5 668,-435.5"/>
<polygon fill="none" stroke="#8f7cff" points="457.75,-434.5 457.75,-693.5 826,-693.5 826,-434.5 457.75,-434.5"/>
</g>
<!-- users&#45;&gt;jwtkeys -->
<!-- auditlogs -->
<g id="node3" class="node">
<title>auditlogs</title>
<polygon fill="#f5f2ff" stroke="none" points="239.25,-286.75 239.25,-321.5 566.5,-321.5 566.5,-286.75 239.25,-286.75"/>
<polygon fill="none" stroke="#8f7cff" points="239.25,-286.75 239.25,-321.5 566.5,-321.5 566.5,-286.75 239.25,-286.75"/>
<text xml:space="preserve" text-anchor="start" x="352.25" y="-298.5" font-family="Arial" font-size="16.00">AUDIT_LOGS</text>
<polygon fill="none" stroke="#8f7cff" points="239.25,-255 239.25,-286.75 329.5,-286.75 329.5,-255 239.25,-255"/>
<text xml:space="preserve" text-anchor="start" x="247.25" y="-266" font-family="Arial" font-size="14.00">uuid</text>
<polygon fill="none" stroke="#8f7cff" points="329.5,-255 329.5,-286.75 431,-286.75 431,-255 329.5,-255"/>
<text xml:space="preserve" text-anchor="start" x="337.5" y="-266" font-family="Arial" font-size="14.00">id</text>
<polygon fill="none" stroke="#8f7cff" points="431,-255 431,-286.75 465,-286.75 465,-255 431,-255"/>
<text xml:space="preserve" text-anchor="start" x="439" y="-266" font-family="Arial" font-size="14.00">PK</text>
<polygon fill="none" stroke="#8f7cff" points="465,-255 465,-286.75 566.5,-286.75 566.5,-255 465,-255"/>
<polygon fill="none" stroke="#8f7cff" points="239.25,-223.25 239.25,-255 329.5,-255 329.5,-223.25 239.25,-223.25"/>
<text xml:space="preserve" text-anchor="start" x="247.25" y="-234.25" font-family="Arial" font-size="14.00">uuid</text>
<polygon fill="none" stroke="#8f7cff" points="329.5,-223.25 329.5,-255 431,-255 431,-223.25 329.5,-223.25"/>
<text xml:space="preserve" text-anchor="start" x="337.5" y="-234.25" font-family="Arial" font-size="14.00">user_id</text>
<polygon fill="none" stroke="#8f7cff" points="431,-223.25 431,-255 465,-255 465,-223.25 431,-223.25"/>
<text xml:space="preserve" text-anchor="start" x="439.38" y="-234.25" font-family="Arial" font-size="14.00">FK</text>
<polygon fill="none" stroke="#8f7cff" points="465,-223.25 465,-255 566.5,-255 566.5,-223.25 465,-223.25"/>
<text xml:space="preserve" text-anchor="start" x="473" y="-234.25" font-family="Arial" font-size="14.00">Ref USERS.id</text>
<polygon fill="none" stroke="#8f7cff" points="239.25,-191.5 239.25,-223.25 329.5,-223.25 329.5,-191.5 239.25,-191.5"/>
<text xml:space="preserve" text-anchor="start" x="247.25" y="-202.5" font-family="Arial" font-size="14.00">varchar</text>
<polygon fill="none" stroke="#8f7cff" points="329.5,-191.5 329.5,-223.25 431,-223.25 431,-191.5 329.5,-191.5"/>
<text xml:space="preserve" text-anchor="start" x="337.5" y="-202.5" font-family="Arial" font-size="14.00">action</text>
<polygon fill="none" stroke="#8f7cff" points="431,-191.5 431,-223.25 465,-223.25 465,-191.5 431,-191.5"/>
<polygon fill="none" stroke="#8f7cff" points="465,-191.5 465,-223.25 566.5,-223.25 566.5,-191.5 465,-191.5"/>
<text xml:space="preserve" text-anchor="start" x="473" y="-202.5" font-family="Arial" font-size="14.00">Required</text>
<polygon fill="none" stroke="#8f7cff" points="239.25,-159.75 239.25,-191.5 329.5,-191.5 329.5,-159.75 239.25,-159.75"/>
<text xml:space="preserve" text-anchor="start" x="247.25" y="-170.75" font-family="Arial" font-size="14.00">varchar</text>
<polygon fill="none" stroke="#8f7cff" points="329.5,-159.75 329.5,-191.5 431,-191.5 431,-159.75 329.5,-159.75"/>
<text xml:space="preserve" text-anchor="start" x="337.5" y="-170.75" font-family="Arial" font-size="14.00">resource_type</text>
<polygon fill="none" stroke="#8f7cff" points="431,-159.75 431,-191.5 465,-191.5 465,-159.75 431,-159.75"/>
<polygon fill="none" stroke="#8f7cff" points="465,-159.75 465,-191.5 566.5,-191.5 566.5,-159.75 465,-159.75"/>
<polygon fill="none" stroke="#8f7cff" points="239.25,-128 239.25,-159.75 329.5,-159.75 329.5,-128 239.25,-128"/>
<text xml:space="preserve" text-anchor="start" x="247.25" y="-139" font-family="Arial" font-size="14.00">varchar</text>
<polygon fill="none" stroke="#8f7cff" points="329.5,-128 329.5,-159.75 431,-159.75 431,-128 329.5,-128"/>
<text xml:space="preserve" text-anchor="start" x="337.5" y="-139" font-family="Arial" font-size="14.00">resource_id</text>
<polygon fill="none" stroke="#8f7cff" points="431,-128 431,-159.75 465,-159.75 465,-128 431,-128"/>
<polygon fill="none" stroke="#8f7cff" points="465,-128 465,-159.75 566.5,-159.75 566.5,-128 465,-128"/>
<polygon fill="none" stroke="#8f7cff" points="239.25,-96.25 239.25,-128 329.5,-128 329.5,-96.25 239.25,-96.25"/>
<text xml:space="preserve" text-anchor="start" x="247.25" y="-107.25" font-family="Arial" font-size="14.00">inet</text>
<polygon fill="none" stroke="#8f7cff" points="329.5,-96.25 329.5,-128 431,-128 431,-96.25 329.5,-96.25"/>
<text xml:space="preserve" text-anchor="start" x="337.5" y="-107.25" font-family="Arial" font-size="14.00">ip_address</text>
<polygon fill="none" stroke="#8f7cff" points="431,-96.25 431,-128 465,-128 465,-96.25 431,-96.25"/>
<polygon fill="none" stroke="#8f7cff" points="465,-96.25 465,-128 566.5,-128 566.5,-96.25 465,-96.25"/>
<polygon fill="none" stroke="#8f7cff" points="239.25,-64.5 239.25,-96.25 329.5,-96.25 329.5,-64.5 239.25,-64.5"/>
<text xml:space="preserve" text-anchor="start" x="247.25" y="-75.5" font-family="Arial" font-size="14.00">text</text>
<polygon fill="none" stroke="#8f7cff" points="329.5,-64.5 329.5,-96.25 431,-96.25 431,-64.5 329.5,-64.5"/>
<text xml:space="preserve" text-anchor="start" x="337.5" y="-75.5" font-family="Arial" font-size="14.00">user_agent</text>
<polygon fill="none" stroke="#8f7cff" points="431,-64.5 431,-96.25 465,-96.25 465,-64.5 431,-64.5"/>
<polygon fill="none" stroke="#8f7cff" points="465,-64.5 465,-96.25 566.5,-96.25 566.5,-64.5 465,-64.5"/>
<polygon fill="none" stroke="#8f7cff" points="239.25,-32.75 239.25,-64.5 329.5,-64.5 329.5,-32.75 239.25,-32.75"/>
<text xml:space="preserve" text-anchor="start" x="247.25" y="-43.75" font-family="Arial" font-size="14.00">jsonb</text>
<polygon fill="none" stroke="#8f7cff" points="329.5,-32.75 329.5,-64.5 431,-64.5 431,-32.75 329.5,-32.75"/>
<text xml:space="preserve" text-anchor="start" x="337.5" y="-43.75" font-family="Arial" font-size="14.00">metadata</text>
<polygon fill="none" stroke="#8f7cff" points="431,-32.75 431,-64.5 465,-64.5 465,-32.75 431,-32.75"/>
<polygon fill="none" stroke="#8f7cff" points="465,-32.75 465,-64.5 566.5,-64.5 566.5,-32.75 465,-32.75"/>
<polygon fill="none" stroke="#8f7cff" points="239.25,-1 239.25,-32.75 329.5,-32.75 329.5,-1 239.25,-1"/>
<text xml:space="preserve" text-anchor="start" x="247.25" y="-12" font-family="Arial" font-size="14.00">timestamptz</text>
<polygon fill="none" stroke="#8f7cff" points="329.5,-1 329.5,-32.75 431,-32.75 431,-1 329.5,-1"/>
<text xml:space="preserve" text-anchor="start" x="337.5" y="-12" font-family="Arial" font-size="14.00">created_at</text>
<polygon fill="none" stroke="#8f7cff" points="431,-1 431,-32.75 465,-32.75 465,-1 431,-1"/>
<polygon fill="none" stroke="#8f7cff" points="465,-1 465,-32.75 566.5,-32.75 566.5,-1 465,-1"/>
<polygon fill="none" stroke="#8f7cff" points="238.25,0 238.25,-322.5 567.5,-322.5 567.5,0 238.25,0"/>
</g>
<!-- users&#45;&gt;auditlogs -->
<g id="edge2" class="edge">
<title>users&#45;&gt;auditlogs</title>
<path fill="none" stroke="#7f7f7f" stroke-width="1.4" d="M259.36,-402.89C275.16,-376.4 291.54,-348.93 307.34,-322.44"/>
<text xml:space="preserve" text-anchor="middle" x="309.25" y="-358.35" font-family="Arial" font-size="12.00">has many</text>
</g>
<!-- jwtkeys&#45;&gt;auditlogs -->
</g>
</svg>
