<?xml version="1.0" encoding="UTF-8" standalone="no"?>
<!DOCTYPE svg PUBLIC "-//W3C//DTD SVG 1.1//EN"
 "http://www.w3.org/Graphics/SVG/1.1/DTD/svg11.dtd">
<!-- Generated by graphviz version 14.1.5 (20260411.2331)
 -->
<!-- Title: IngestERD Pages: 1 -->
<svg width="1996pt" height="812pt"
 viewBox="0.00 0.00 1996.00 812.00" xmlns="http://www.w3.org/2000/svg" xmlns:xlink="http://www.w3.org/1999/xlink">
<g id="graph0" class="graph" transform="scale(1 1) rotate(0) translate(14.4 797.15)">
<title>IngestERD</title>
<polygon fill="white" stroke="none" points="-14.4,14.4 -14.4,-797.15 1981.53,-797.15 1981.53,14.4 -14.4,14.4"/>
<!-- datasource -->
<g id="node1" class="node">
<title>datasource</title>
<polygon fill="#f5f2ff" stroke="none" points="851.38,-749 851.38,-781.75 1365.62,-781.75 1365.62,-749 851.38,-749"/>
<polygon fill="none" stroke="#8f7cff" points="851.38,-749 851.38,-781.75 1365.62,-781.75 1365.62,-749 851.38,-749"/>
<text xml:space="preserve" text-anchor="start" x="1045.12" y="-759.75" font-family="Arial" font-size="16.00">DATA_SOURCES</text>
<polygon fill="none" stroke="#8f7cff" points="851.38,-719.25 851.38,-749 948.62,-749 948.62,-719.25 851.38,-719.25"/>
<text xml:space="preserve" text-anchor="start" x="858.38" y="-729.25" font-family="Arial" font-size="14.00">uuid</text>
<polygon fill="none" stroke="#8f7cff" points="948.62,-719.25 948.62,-749 1206.38,-749 1206.38,-719.25 948.62,-719.25"/>
<text xml:space="preserve" text-anchor="start" x="955.62" y="-729.25" font-family="Arial" font-size="14.00">id</text>
<polygon fill="none" stroke="#8f7cff" points="1206.38,-719.25 1206.38,-749 1238.38,-749 1238.38,-719.25 1206.38,-719.25"/>
<text xml:space="preserve" text-anchor="start" x="1213.38" y="-729.25" font-family="Arial" font-size="14.00">PK</text>
<polygon fill="none" stroke="#8f7cff" points="1238.38,-719.25 1238.38,-749 1365.62,-749 1365.62,-719.25 1238.38,-719.25"/>
<polygon fill="none" stroke="#8f7cff" points="851.38,-689.5 851.38,-719.25 948.62,-719.25 948.62,-689.5 851.38,-689.5"/>
<text xml:space="preserve" text-anchor="start" x="858.38" y="-699.5" font-family="Arial" font-size="14.00">uuid</text>
<polygon fill="none" stroke="#8f7cff" points="948.62,-689.5 948.62,-719.25 1206.38,-719.25 1206.38,-689.5 948.62,-689.5"/>
<text xml:space="preserve" text-anchor="start" x="955.62" y="-699.5" font-family="Arial" font-size="14.00">project_id</text>
<polygon fill="none" stroke="#8f7cff" points="1206.38,-689.5 1206.38,-719.25 1238.38,-719.25 1238.38,-689.5 1206.38,-689.5"/>
<polygon fill="none" stroke="#8f7cff" points="1238.38,-689.5 1238.38,-719.25 1365.62,-719.25 1365.62,-689.5 1238.38,-689.5"/>
<text xml:space="preserve" text-anchor="start" x="1245.38" y="-699.5" font-family="Arial" font-size="14.00">External project ref</text>
<polygon fill="none" stroke="#8f7cff" points="851.38,-659.75 851.38,-689.5 948.62,-689.5 948.62,-659.75 851.38,-659.75"/>
<text xml:space="preserve" text-anchor="start" x="858.38" y="-669.75" font-family="Arial" font-size="14.00">varchar/enum</text>
<polygon fill="none" stroke="#8f7cff" points="948.62,-659.75 948.62,-689.5 1206.38,-689.5 1206.38,-659.75 948.62,-659.75"/>
<text xml:space="preserve" text-anchor="start" x="955.62" y="-669.75" font-family="Arial" font-size="14.00">name, source_type, source_category</text>
<polygon fill="none" stroke="#8f7cff" points="1206.38,-659.75 1206.38,-689.5 1238.38,-689.5 1238.38,-659.75 1206.38,-659.75"/>
<polygon fill="none" stroke="#8f7cff" points="1238.38,-659.75 1238.38,-689.5 1365.62,-689.5 1365.62,-659.75 1238.38,-659.75"/>
<polygon fill="none" stroke="#8f7cff" points="851.38,-630 851.38,-659.75 948.62,-659.75 948.62,-630 851.38,-630"/>
<text xml:space="preserve" text-anchor="start" x="858.38" y="-640" font-family="Arial" font-size="14.00">enum</text>
<polygon fill="none" stroke="#8f7cff" points="948.62,-630 948.62,-659.75 1206.38,-659.75 1206.38,-630 948.62,-630"/>
<text xml:space="preserve" text-anchor="start" x="955.62" y="-640" font-family="Arial" font-size="14.00">status, onboarding_status, dryrun_status</text>
<polygon fill="none" stroke="#8f7cff" points="1206.38,-630 1206.38,-659.75 1238.38,-659.75 1238.38,-630 1206.38,-630"/>
<polygon fill="none" stroke="#8f7cff" points="1238.38,-630 1238.38,-659.75 1365.62,-659.75 1365.62,-630 1238.38,-630"/>
<polygon fill="none" stroke="#8f7cff" points="851.38,-600.25 851.38,-630 948.62,-630 948.62,-600.25 851.38,-600.25"/>
<text xml:space="preserve" text-anchor="start" x="858.38" y="-610.25" font-family="Arial" font-size="14.00">jsonb</text>
<polygon fill="none" stroke="#8f7cff" points="948.62,-600.25 948.62,-630 1206.38,-630 1206.38,-600.25 948.62,-600.25"/>
<text xml:space="preserve" text-anchor="start" x="955.62" y="-610.25" font-family="Arial" font-size="14.00">config, account_ref, mapping_rules</text>
<polygon fill="none" stroke="#8f7cff" points="1206.38,-600.25 1206.38,-630 1238.38,-630 1238.38,-600.25 1206.38,-600.25"/>
<polygon fill="none" stroke="#8f7cff" points="1238.38,-600.25 1238.38,-630 1365.62,-630 1365.62,-600.25 1238.38,-600.25"/>
<polygon fill="none" stroke="#8f7cff" points="851.38,-570.5 851.38,-600.25 948.62,-600.25 948.62,-570.5 851.38,-570.5"/>
<text xml:space="preserve" text-anchor="start" x="858.38" y="-580.5" font-family="Arial" font-size="14.00">enum/int</text>
<polygon fill="none" stroke="#8f7cff" points="948.62,-570.5 948.62,-600.25 1206.38,-600.25 1206.38,-570.5 948.62,-570.5"/>
<text xml:space="preserve" text-anchor="start" x="955.62" y="-580.5" font-family="Arial" font-size="14.00">crawl_mode, crawl_interval_minutes</text>
<polygon fill="none" stroke="#8f7cff" points="1206.38,-570.5 1206.38,-600.25 1238.38,-600.25 1238.38,-570.5 1206.38,-570.5"/>
<polygon fill="none" stroke="#8f7cff" points="1238.38,-570.5 1238.38,-600.25 1365.62,-600.25 1365.62,-570.5 1238.38,-570.5"/>
<polygon fill="none" stroke="#8f7cff" points="851.38,-540.75 851.38,-570.5 948.62,-570.5 948.62,-540.75 851.38,-540.75"/>
<text xml:space="preserve" text-anchor="start" x="858.38" y="-550.75" font-family="Arial" font-size="14.00">uuid</text>
<polygon fill="none" stroke="#8f7cff" points="948.62,-540.75 948.62,-570.5 1206.38,-570.5 1206.38,-540.75 948.62,-540.75"/>
<text xml:space="preserve" text-anchor="start" x="955.62" y="-550.75" font-family="Arial" font-size="14.00">dryrun_last_result_id</text>
<polygon fill="none" stroke="#8f7cff" points="1206.38,-540.75 1206.38,-570.5 1238.38,-570.5 1238.38,-540.75 1206.38,-540.75"/>
<text xml:space="preserve" text-anchor="start" x="1213.75" y="-550.75" font-family="Arial" font-size="14.00">FK</text>
<polygon fill="none" stroke="#8f7cff" points="1238.38,-540.75 1238.38,-570.5 1365.62,-570.5 1365.62,-540.75 1238.38,-540.75"/>
<text xml:space="preserve" text-anchor="start" x="1245.38" y="-550.75" font-family="Arial" font-size="14.00">Optional</text>
<polygon fill="none" stroke="#8f7cff" points="850.38,-539.75 850.38,-782.75 1366.62,-782.75 1366.62,-539.75 850.38,-539.75"/>
</g>
<!-- targets -->
<g id="node2" class="node">
<title>targets</title>
<polygon fill="#f5f2ff" stroke="none" points="1,-434.5 1,-467.25 588,-467.25 588,-434.5 1,-434.5"/>
<polygon fill="none" stroke="#8f7cff" points="1,-434.5 1,-467.25 588,-467.25 588,-434.5 1,-434.5"/>
<text xml:space="preserve" text-anchor="start" x="225.12" y="-445.25" font-family="Arial" font-size="16.00">CRAWL_TARGETS</text>
<polygon fill="none" stroke="#8f7cff" points="1,-404.75 1,-434.5 58.5,-434.5 58.5,-404.75 1,-404.75"/>
<text xml:space="preserve" text-anchor="start" x="8" y="-414.75" font-family="Arial" font-size="14.00">uuid</text>
<polygon fill="none" stroke="#8f7cff" points="58.5,-404.75 58.5,-434.5 317.75,-434.5 317.75,-404.75 58.5,-404.75"/>
<text xml:space="preserve" text-anchor="start" x="65.5" y="-414.75" font-family="Arial" font-size="14.00">id</text>
<polygon fill="none" stroke="#8f7cff" points="317.75,-404.75 317.75,-434.5 349.75,-434.5 349.75,-404.75 317.75,-404.75"/>
<text xml:space="preserve" text-anchor="start" x="324.75" y="-414.75" font-family="Arial" font-size="14.00">PK</text>
<polygon fill="none" stroke="#8f7cff" points="349.75,-404.75 349.75,-434.5 588,-434.5 588,-404.75 349.75,-404.75"/>
<polygon fill="none" stroke="#8f7cff" points="1,-375 1,-404.75 58.5,-404.75 58.5,-375 1,-375"/>
<text xml:space="preserve" text-anchor="start" x="8" y="-385" font-family="Arial" font-size="14.00">uuid</text>
<polygon fill="none" stroke="#8f7cff" points="58.5,-375 58.5,-404.75 317.75,-404.75 317.75,-375 58.5,-375"/>
<text xml:space="preserve" text-anchor="start" x="65.5" y="-385" font-family="Arial" font-size="14.00">data_source_id</text>
<polygon fill="none" stroke="#8f7cff" points="317.75,-375 317.75,-404.75 349.75,-404.75 349.75,-375 317.75,-375"/>
<text xml:space="preserve" text-anchor="start" x="325.12" y="-385" font-family="Arial" font-size="14.00">FK</text>
<polygon fill="none" stroke="#8f7cff" points="349.75,-375 349.75,-404.75 588,-404.75 588,-375 349.75,-375"/>
<text xml:space="preserve" text-anchor="start" x="356.75" y="-385" font-family="Arial" font-size="14.00">Ref DATA_SOURCES.id</text>
<polygon fill="none" stroke="#8f7cff" points="1,-345.25 1,-375 58.5,-375 58.5,-345.25 1,-345.25"/>
<text xml:space="preserve" text-anchor="start" x="8" y="-355.25" font-family="Arial" font-size="14.00">enum</text>
<polygon fill="none" stroke="#8f7cff" points="58.5,-345.25 58.5,-375 317.75,-375 317.75,-345.25 58.5,-345.25"/>
<text xml:space="preserve" text-anchor="start" x="65.5" y="-355.25" font-family="Arial" font-size="14.00">target_type</text>
<polygon fill="none" stroke="#8f7cff" points="317.75,-345.25 317.75,-375 349.75,-375 349.75,-345.25 317.75,-345.25"/>
<polygon fill="none" stroke="#8f7cff" points="349.75,-345.25 349.75,-375 588,-375 588,-345.25 349.75,-345.25"/>
<text xml:space="preserve" text-anchor="start" x="356.75" y="-355.25" font-family="Arial" font-size="14.00">KEYWORD | PROFILE | POST_URL</text>
<polygon fill="none" stroke="#8f7cff" points="1,-315.5 1,-345.25 58.5,-345.25 58.5,-315.5 1,-315.5"/>
<text xml:space="preserve" text-anchor="start" x="8" y="-325.5" font-family="Arial" font-size="14.00">jsonb</text>
<polygon fill="none" stroke="#8f7cff" points="58.5,-315.5 58.5,-345.25 317.75,-345.25 317.75,-315.5 58.5,-315.5"/>
<text xml:space="preserve" text-anchor="start" x="65.5" y="-325.5" font-family="Arial" font-size="14.00">values, platform_meta</text>
<polygon fill="none" stroke="#8f7cff" points="317.75,-315.5 317.75,-345.25 349.75,-345.25 349.75,-315.5 317.75,-315.5"/>
<polygon fill="none" stroke="#8f7cff" points="349.75,-315.5 349.75,-345.25 588,-345.25 588,-315.5 349.75,-315.5"/>
<polygon fill="none" stroke="#8f7cff" points="1,-285.75 1,-315.5 58.5,-315.5 58.5,-285.75 1,-285.75"/>
<text xml:space="preserve" text-anchor="start" x="8" y="-295.75" font-family="Arial" font-size="14.00">bool/int</text>
<polygon fill="none" stroke="#8f7cff" points="58.5,-285.75 58.5,-315.5 317.75,-315.5 317.75,-285.75 58.5,-285.75"/>
<text xml:space="preserve" text-anchor="start" x="65.5" y="-295.75" font-family="Arial" font-size="14.00">is_active, priority, crawl_interval_minutes</text>
<polygon fill="none" stroke="#8f7cff" points="317.75,-285.75 317.75,-315.5 349.75,-315.5 349.75,-285.75 317.75,-285.75"/>
<polygon fill="none" stroke="#8f7cff" points="349.75,-285.75 349.75,-315.5 588,-315.5 588,-285.75 349.75,-285.75"/>
<polygon fill="none" stroke="#8f7cff" points="0,-284.75 0,-468.25 589,-468.25 589,-284.75 0,-284.75"/>
</g>
<!-- datasource&#45;&gt;targets -->
<g id="edge1" class="edge">
<title>datasource&#45;&gt;targets</title>
<path fill="none" stroke="#7f7f7f" stroke-width="1.3" d="M850.39,-570.59C756.32,-537.92 649.96,-500.97 555.63,-468.21"/>
<text xml:space="preserve" text-anchor="middle" x="704.47" y="-500.3" font-family="Arial" font-size="11.00">owns many</text>
</g>
<!-- dryrun -->
<g id="node3" class="node">
<title>dryrun</title>
<polygon fill="#f5f2ff" stroke="none" points="633.25,-434.5 633.25,-467.25 1119.75,-467.25 1119.75,-434.5 633.25,-434.5"/>
<polygon fill="none" stroke="#8f7cff" points="633.25,-434.5 633.25,-467.25 1119.75,-467.25 1119.75,-434.5 633.25,-434.5"/>
<text xml:space="preserve" text-anchor="start" x="803" y="-445.25" font-family="Arial" font-size="16.00">DRYRUN_RESULTS</text>
<polygon fill="none" stroke="#8f7cff" points="633.25,-404.75 633.25,-434.5 705,-434.5 705,-404.75 633.25,-404.75"/>
<text xml:space="preserve" text-anchor="start" x="640.25" y="-414.75" font-family="Arial" font-size="14.00">uuid</text>
<polygon fill="none" stroke="#8f7cff" points="705,-404.75 705,-434.5 957.5,-434.5 957.5,-404.75 705,-404.75"/>
<text xml:space="preserve" text-anchor="start" x="712" y="-414.75" font-family="Arial" font-size="14.00">id</text>
<polygon fill="none" stroke="#8f7cff" points="957.5,-404.75 957.5,-434.5 989.5,-434.5 989.5,-404.75 957.5,-404.75"/>
<text xml:space="preserve" text-anchor="start" x="964.5" y="-414.75" font-family="Arial" font-size="14.00">PK</text>
<polygon fill="none" stroke="#8f7cff" points="989.5,-404.75 989.5,-434.5 1119.75,-434.5 1119.75,-404.75 989.5,-404.75"/>
<polygon fill="none" stroke="#8f7cff" points="633.25,-375 633.25,-404.75 705,-404.75 705,-375 633.25,-375"/>
<text xml:space="preserve" text-anchor="start" x="640.25" y="-385" font-family="Arial" font-size="14.00">uuid</text>
<polygon fill="none" stroke="#8f7cff" points="705,-375 705,-404.75 957.5,-404.75 957.5,-375 705,-375"/>
<text xml:space="preserve" text-anchor="start" x="712" y="-385" font-family="Arial" font-size="14.00">source_id</text>
<polygon fill="none" stroke="#8f7cff" points="957.5,-375 957.5,-404.75 989.5,-404.75 989.5,-375 957.5,-375"/>
<text xml:space="preserve" text-anchor="start" x="964.88" y="-385" font-family="Arial" font-size="14.00">FK</text>
<polygon fill="none" stroke="#8f7cff" points="989.5,-375 989.5,-404.75 1119.75,-404.75 1119.75,-375 989.5,-375"/>
<polygon fill="none" stroke="#8f7cff" points="633.25,-345.25 633.25,-375 705,-375 705,-345.25 633.25,-345.25"/>
<text xml:space="preserve" text-anchor="start" x="640.25" y="-355.25" font-family="Arial" font-size="14.00">uuid</text>
<polygon fill="none" stroke="#8f7cff" points="705,-345.25 705,-375 957.5,-375 957.5,-345.25 705,-345.25"/>
<text xml:space="preserve" text-anchor="start" x="712" y="-355.25" font-family="Arial" font-size="14.00">target_id</text>
<polygon fill="none" stroke="#8f7cff" points="957.5,-345.25 957.5,-375 989.5,-375 989.5,-345.25 957.5,-345.25"/>
<text xml:space="preserve" text-anchor="start" x="964.88" y="-355.25" font-family="Arial" font-size="14.00">FK</text>
<polygon fill="none" stroke="#8f7cff" points="989.5,-345.25 989.5,-375 1119.75,-375 1119.75,-345.25 989.5,-345.25"/>
<text xml:space="preserve" text-anchor="start" x="996.5" y="-355.25" font-family="Arial" font-size="14.00">Nullable</text>
<polygon fill="none" stroke="#8f7cff" points="633.25,-315.5 633.25,-345.25 705,-345.25 705,-315.5 633.25,-315.5"/>
<text xml:space="preserve" text-anchor="start" x="640.25" y="-325.5" font-family="Arial" font-size="14.00">enum</text>
<polygon fill="none" stroke="#8f7cff" points="705,-315.5 705,-345.25 957.5,-345.25 957.5,-315.5 705,-315.5"/>
<text xml:space="preserve" text-anchor="start" x="712" y="-325.5" font-family="Arial" font-size="14.00">status</text>
<polygon fill="none" stroke="#8f7cff" points="957.5,-315.5 957.5,-345.25 989.5,-345.25 989.5,-315.5 957.5,-315.5"/>
<polygon fill="none" stroke="#8f7cff" points="989.5,-315.5 989.5,-345.25 1119.75,-345.25 1119.75,-315.5 989.5,-315.5"/>
<text xml:space="preserve" text-anchor="start" x="996.5" y="-325.5" font-family="Arial" font-size="14.00">PENDING..FAILED</text>
<polygon fill="none" stroke="#8f7cff" points="633.25,-285.75 633.25,-315.5 705,-315.5 705,-285.75 633.25,-285.75"/>
<text xml:space="preserve" text-anchor="start" x="640.25" y="-295.75" font-family="Arial" font-size="14.00">jsonb/text</text>
<polygon fill="none" stroke="#8f7cff" points="705,-285.75 705,-315.5 957.5,-315.5 957.5,-285.75 705,-285.75"/>
<text xml:space="preserve" text-anchor="start" x="712" y="-295.75" font-family="Arial" font-size="14.00">sample_data, warnings, error_message</text>
<polygon fill="none" stroke="#8f7cff" points="957.5,-285.75 957.5,-315.5 989.5,-315.5 989.5,-285.75 957.5,-285.75"/>
<polygon fill="none" stroke="#8f7cff" points="989.5,-285.75 989.5,-315.5 1119.75,-315.5 1119.75,-285.75 989.5,-285.75"/>
<polygon fill="none" stroke="#8f7cff" points="632.25,-284.75 632.25,-468.25 1120.75,-468.25 1120.75,-284.75 632.25,-284.75"/>
</g>
<!-- datasource&#45;&gt;dryrun -->
<g id="edge2" class="edge">
<title>datasource&#45;&gt;dryrun</title>
<path fill="none" stroke="#7f7f7f" stroke-width="1.3" d="M1009.77,-539.93C990.04,-515.88 969.63,-491 950.88,-468.15"/>
<text xml:space="preserve" text-anchor="middle" x="1006.92" y="-500.3" font-family="Arial" font-size="11.00">evidence</text>
</g>
<!-- jobs -->
<g id="node4" class="node">
<title>jobs</title>
<polygon fill="#f5f2ff" stroke="none" points="1165,-434.5 1165,-467.25 1518,-467.25 1518,-434.5 1165,-434.5"/>
<polygon fill="none" stroke="#8f7cff" points="1165,-434.5 1165,-467.25 1518,-467.25 1518,-434.5 1165,-434.5"/>
<text xml:space="preserve" text-anchor="start" x="1267.62" y="-445.25" font-family="Arial" font-size="16.00">SCHEDULED_JOBS</text>
<polygon fill="none" stroke="#8f7cff" points="1165,-404.75 1165,-434.5 1213.5,-434.5 1213.5,-404.75 1165,-404.75"/>
<text xml:space="preserve" text-anchor="start" x="1172" y="-414.75" font-family="Arial" font-size="14.00">uuid</text>
<polygon fill="none" stroke="#8f7cff" points="1213.5,-404.75 1213.5,-434.5 1423.25,-434.5 1423.25,-404.75 1213.5,-404.75"/>
<text xml:space="preserve" text-anchor="start" x="1220.5" y="-414.75" font-family="Arial" font-size="14.00">id</text>
<polygon fill="none" stroke="#8f7cff" points="1423.25,-404.75 1423.25,-434.5 1455.25,-434.5 1455.25,-404.75 1423.25,-404.75"/>
<text xml:space="preserve" text-anchor="start" x="1430.25" y="-414.75" font-family="Arial" font-size="14.00">PK</text>
<polygon fill="none" stroke="#8f7cff" points="1455.25,-404.75 1455.25,-434.5 1518,-434.5 1518,-404.75 1455.25,-404.75"/>
<polygon fill="none" stroke="#8f7cff" points="1165,-375 1165,-404.75 1213.5,-404.75 1213.5,-375 1165,-375"/>
<text xml:space="preserve" text-anchor="start" x="1172" y="-385" font-family="Arial" font-size="14.00">uuid</text>
<polygon fill="none" stroke="#8f7cff" points="1213.5,-375 1213.5,-404.75 1423.25,-404.75 1423.25,-375 1213.5,-375"/>
<text xml:space="preserve" text-anchor="start" x="1220.5" y="-385" font-family="Arial" font-size="14.00">source_id</text>
<polygon fill="none" stroke="#8f7cff" points="1423.25,-375 1423.25,-404.75 1455.25,-404.75 1455.25,-375 1423.25,-375"/>
<text xml:space="preserve" text-anchor="start" x="1430.62" y="-385" font-family="Arial" font-size="14.00">FK</text>
<polygon fill="none" stroke="#8f7cff" points="1455.25,-375 1455.25,-404.75 1518,-404.75 1518,-375 1455.25,-375"/>
<polygon fill="none" stroke="#8f7cff" points="1165,-345.25 1165,-375 1213.5,-375 1213.5,-345.25 1165,-345.25"/>
<text xml:space="preserve" text-anchor="start" x="1172" y="-355.25" font-family="Arial" font-size="14.00">uuid</text>
<polygon fill="none" stroke="#8f7cff" points="1213.5,-345.25 1213.5,-375 1423.25,-375 1423.25,-345.25 1213.5,-345.25"/>
<text xml:space="preserve" text-anchor="start" x="1220.5" y="-355.25" font-family="Arial" font-size="14.00">target_id</text>
<polygon fill="none" stroke="#8f7cff" points="1423.25,-345.25 1423.25,-375 1455.25,-375 1455.25,-345.25 1423.25,-345.25"/>
<text xml:space="preserve" text-anchor="start" x="1430.62" y="-355.25" font-family="Arial" font-size="14.00">FK</text>
<polygon fill="none" stroke="#8f7cff" points="1455.25,-345.25 1455.25,-375 1518,-375 1518,-345.25 1455.25,-345.25"/>
<text xml:space="preserve" text-anchor="start" x="1462.25" y="-355.25" font-family="Arial" font-size="14.00">Nullable</text>
<polygon fill="none" stroke="#8f7cff" points="1165,-315.5 1165,-345.25 1213.5,-345.25 1213.5,-315.5 1165,-315.5"/>
<text xml:space="preserve" text-anchor="start" x="1172" y="-325.5" font-family="Arial" font-size="14.00">enum</text>
<polygon fill="none" stroke="#8f7cff" points="1213.5,-315.5 1213.5,-345.25 1423.25,-345.25 1423.25,-315.5 1213.5,-315.5"/>
<text xml:space="preserve" text-anchor="start" x="1220.5" y="-325.5" font-family="Arial" font-size="14.00">status, trigger_type, crawl_mode</text>
<polygon fill="none" stroke="#8f7cff" points="1423.25,-315.5 1423.25,-345.25 1455.25,-345.25 1455.25,-315.5 1423.25,-315.5"/>
<polygon fill="none" stroke="#8f7cff" points="1455.25,-315.5 1455.25,-345.25 1518,-345.25 1518,-315.5 1455.25,-315.5"/>
<polygon fill="none" stroke="#8f7cff" points="1165,-285.75 1165,-315.5 1213.5,-315.5 1213.5,-285.75 1165,-285.75"/>
<text xml:space="preserve" text-anchor="start" x="1172" y="-295.75" font-family="Arial" font-size="14.00">jsonb</text>
<polygon fill="none" stroke="#8f7cff" points="1213.5,-285.75 1213.5,-315.5 1423.25,-315.5 1423.25,-285.75 1213.5,-285.75"/>
<text xml:space="preserve" text-anchor="start" x="1220.5" y="-295.75" font-family="Arial" font-size="14.00">payload</text>
<polygon fill="none" stroke="#8f7cff" points="1423.25,-285.75 1423.25,-315.5 1455.25,-315.5 1455.25,-285.75 1423.25,-285.75"/>
<polygon fill="none" stroke="#8f7cff" points="1455.25,-285.75 1455.25,-315.5 1518,-315.5 1518,-285.75 1455.25,-285.75"/>
<polygon fill="none" stroke="#8f7cff" points="1164,-284.75 1164,-468.25 1519,-468.25 1519,-284.75 1164,-284.75"/>
</g>
<!-- datasource&#45;&gt;jobs -->
<g id="edge3" class="edge">
<title>datasource&#45;&gt;jobs</title>
<path fill="none" stroke="#7f7f7f" stroke-width="1.3" d="M1207.65,-539.93C1227.47,-515.88 1247.97,-491 1266.8,-468.15"/>
<text xml:space="preserve" text-anchor="middle" x="1262.95" y="-500.3" font-family="Arial" font-size="11.00">schedules</text>
</g>
<!-- modechg -->
<g id="node7" class="node">
<title>modechg</title>
<polygon fill="#f5f2ff" stroke="none" points="1563.5,-419.62 1563.5,-452.38 1931.5,-452.38 1931.5,-419.62 1563.5,-419.62"/>
<polygon fill="none" stroke="#8f7cff" points="1563.5,-419.62 1563.5,-452.38 1931.5,-452.38 1931.5,-419.62 1563.5,-419.62"/>
<text xml:space="preserve" text-anchor="start" x="1647.38" y="-430.38" font-family="Arial" font-size="16.00">CRAWL_MODE_CHANGES</text>
<polygon fill="none" stroke="#8f7cff" points="1563.5,-389.88 1563.5,-419.62 1612,-419.62 1612,-389.88 1563.5,-389.88"/>
<text xml:space="preserve" text-anchor="start" x="1570.5" y="-399.88" font-family="Arial" font-size="14.00">uuid</text>
<polygon fill="none" stroke="#8f7cff" points="1612,-389.88 1612,-419.62 1885.5,-419.62 1885.5,-389.88 1612,-389.88"/>
<text xml:space="preserve" text-anchor="start" x="1619" y="-399.88" font-family="Arial" font-size="14.00">id</text>
<polygon fill="none" stroke="#8f7cff" points="1885.5,-389.88 1885.5,-419.62 1917.5,-419.62 1917.5,-389.88 1885.5,-389.88"/>
<text xml:space="preserve" text-anchor="start" x="1892.5" y="-399.88" font-family="Arial" font-size="14.00">PK</text>
<polygon fill="none" stroke="#8f7cff" points="1917.5,-389.88 1917.5,-419.62 1931.5,-419.62 1931.5,-389.88 1917.5,-389.88"/>
<polygon fill="none" stroke="#8f7cff" points="1563.5,-360.12 1563.5,-389.88 1612,-389.88 1612,-360.12 1563.5,-360.12"/>
<text xml:space="preserve" text-anchor="start" x="1570.5" y="-370.12" font-family="Arial" font-size="14.00">uuid</text>
<polygon fill="none" stroke="#8f7cff" points="1612,-360.12 1612,-389.88 1885.5,-389.88 1885.5,-360.12 1612,-360.12"/>
<text xml:space="preserve" text-anchor="start" x="1619" y="-370.12" font-family="Arial" font-size="14.00">source_id</text>
<polygon fill="none" stroke="#8f7cff" points="1885.5,-360.12 1885.5,-389.88 1917.5,-389.88 1917.5,-360.12 1885.5,-360.12"/>
<text xml:space="preserve" text-anchor="start" x="1892.88" y="-370.12" font-family="Arial" font-size="14.00">FK</text>
<polygon fill="none" stroke="#8f7cff" points="1917.5,-360.12 1917.5,-389.88 1931.5,-389.88 1931.5,-360.12 1917.5,-360.12"/>
<polygon fill="none" stroke="#8f7cff" points="1563.5,-330.38 1563.5,-360.12 1612,-360.12 1612,-330.38 1563.5,-330.38"/>
<text xml:space="preserve" text-anchor="start" x="1570.5" y="-340.38" font-family="Arial" font-size="14.00">enum</text>
<polygon fill="none" stroke="#8f7cff" points="1612,-330.38 1612,-360.12 1885.5,-360.12 1885.5,-330.38 1612,-330.38"/>
<text xml:space="preserve" text-anchor="start" x="1619" y="-340.38" font-family="Arial" font-size="14.00">trigger_type, from_mode, to_mode</text>
<polygon fill="none" stroke="#8f7cff" points="1885.5,-330.38 1885.5,-360.12 1917.5,-360.12 1917.5,-330.38 1885.5,-330.38"/>
<polygon fill="none" stroke="#8f7cff" points="1917.5,-330.38 1917.5,-360.12 1931.5,-360.12 1931.5,-330.38 1917.5,-330.38"/>
<polygon fill="none" stroke="#8f7cff" points="1563.5,-300.62 1563.5,-330.38 1612,-330.38 1612,-300.62 1563.5,-300.62"/>
<text xml:space="preserve" text-anchor="start" x="1570.5" y="-310.62" font-family="Arial" font-size="14.00">int</text>
<polygon fill="none" stroke="#8f7cff" points="1612,-300.62 1612,-330.38 1885.5,-330.38 1885.5,-300.62 1612,-300.62"/>
<text xml:space="preserve" text-anchor="start" x="1619" y="-310.62" font-family="Arial" font-size="14.00">from_interval_minutes, to_interval_minutes</text>
<polygon fill="none" stroke="#8f7cff" points="1885.5,-300.62 1885.5,-330.38 1917.5,-330.38 1917.5,-300.62 1885.5,-300.62"/>
<polygon fill="none" stroke="#8f7cff" points="1917.5,-300.62 1917.5,-330.38 1931.5,-330.38 1931.5,-300.62 1917.5,-300.62"/>
<polygon fill="none" stroke="#8f7cff" points="1562.5,-299.62 1562.5,-453.38 1932.5,-453.38 1932.5,-299.62 1562.5,-299.62"/>
</g>
<!-- datasource&#45;&gt;modechg -->
<g id="edge6" class="edge">
<title>datasource&#45;&gt;modechg</title>
<path fill="none" stroke="#7f7f7f" stroke-width="1.3" d="M1366.56,-546.06C1437.05,-514.87 1511.69,-481.84 1576.03,-453.37"/>
<text xml:space="preserve" text-anchor="middle" x="1517.26" y="-500.3" font-family="Arial" font-size="11.00">tracks mode changes</text>
</g>
<!-- ext -->
<g id="node5" class="node">
<title>ext</title>
<polygon fill="#f5f2ff" stroke="none" points="1101.62,-164.62 1101.62,-197.38 1581.38,-197.38 1581.38,-164.62 1101.62,-164.62"/>
<polygon fill="none" stroke="#8f7cff" points="1101.62,-164.62 1101.62,-197.38 1581.38,-197.38 1581.38,-164.62 1101.62,-164.62"/>
<text xml:space="preserve" text-anchor="start" x="1270.25" y="-175.38" font-family="Arial" font-size="16.00">EXTERNAL_TASKS</text>
<polygon fill="none" stroke="#8f7cff" points="1101.62,-134.88 1101.62,-164.62 1198.88,-164.62 1198.88,-134.88 1101.62,-134.88"/>
<text xml:space="preserve" text-anchor="start" x="1108.62" y="-144.88" font-family="Arial" font-size="14.00">uuid</text>
<polygon fill="none" stroke="#8f7cff" points="1198.88,-134.88 1198.88,-164.62 1443.88,-164.62 1443.88,-134.88 1198.88,-134.88"/>
<text xml:space="preserve" text-anchor="start" x="1205.88" y="-144.88" font-family="Arial" font-size="14.00">id</text>
<polygon fill="none" stroke="#8f7cff" points="1443.88,-134.88 1443.88,-164.62 1476.62,-164.62 1476.62,-134.88 1443.88,-134.88"/>
<text xml:space="preserve" text-anchor="start" x="1451.25" y="-144.88" font-family="Arial" font-size="14.00">PK</text>
<polygon fill="none" stroke="#8f7cff" points="1476.62,-134.88 1476.62,-164.62 1581.38,-164.62 1581.38,-134.88 1476.62,-134.88"/>
<polygon fill="none" stroke="#8f7cff" points="1101.62,-105.12 1101.62,-134.88 1198.88,-134.88 1198.88,-105.12 1101.62,-105.12"/>
<text xml:space="preserve" text-anchor="start" x="1108.62" y="-115.12" font-family="Arial" font-size="14.00">uuid</text>
<polygon fill="none" stroke="#8f7cff" points="1198.88,-105.12 1198.88,-134.88 1443.88,-134.88 1443.88,-105.12 1198.88,-105.12"/>
<text xml:space="preserve" text-anchor="start" x="1205.88" y="-115.12" font-family="Arial" font-size="14.00">source_id, scheduled_job_id, target_id</text>
<polygon fill="none" stroke="#8f7cff" points="1443.88,-105.12 1443.88,-134.88 1476.62,-134.88 1476.62,-105.12 1443.88,-105.12"/>
<text xml:space="preserve" text-anchor="start" x="1451.62" y="-115.12" font-family="Arial" font-size="14.00">FK</text>
<polygon fill="none" stroke="#8f7cff" points="1476.62,-105.12 1476.62,-134.88 1581.38,-134.88 1581.38,-105.12 1476.62,-105.12"/>
<polygon fill="none" stroke="#8f7cff" points="1101.62,-75.38 1101.62,-105.12 1198.88,-105.12 1198.88,-75.38 1101.62,-75.38"/>
<text xml:space="preserve" text-anchor="start" x="1108.62" y="-85.38" font-family="Arial" font-size="14.00">uuid</text>
<polygon fill="none" stroke="#8f7cff" points="1198.88,-75.38 1198.88,-105.12 1443.88,-105.12 1443.88,-75.38 1198.88,-75.38"/>
<text xml:space="preserve" text-anchor="start" x="1205.88" y="-85.38" font-family="Arial" font-size="14.00">task_id</text>
<polygon fill="none" stroke="#8f7cff" points="1443.88,-75.38 1443.88,-105.12 1476.62,-105.12 1476.62,-75.38 1443.88,-75.38"/>
<text xml:space="preserve" text-anchor="start" x="1450.88" y="-85.38" font-family="Arial" font-size="14.00">UK</text>
<polygon fill="none" stroke="#8f7cff" points="1476.62,-75.38 1476.62,-105.12 1581.38,-105.12 1581.38,-75.38 1476.62,-75.38"/>
<text xml:space="preserve" text-anchor="start" x="1483.62" y="-85.38" font-family="Arial" font-size="14.00">Correlation key</text>
<polygon fill="none" stroke="#8f7cff" points="1101.62,-45.62 1101.62,-75.38 1198.88,-75.38 1198.88,-45.62 1101.62,-45.62"/>
<text xml:space="preserve" text-anchor="start" x="1108.62" y="-55.62" font-family="Arial" font-size="14.00">varchar/enum</text>
<polygon fill="none" stroke="#8f7cff" points="1198.88,-45.62 1198.88,-75.38 1443.88,-75.38 1443.88,-45.62 1198.88,-45.62"/>
<text xml:space="preserve" text-anchor="start" x="1205.88" y="-55.62" font-family="Arial" font-size="14.00">platform, task_type, status</text>
<polygon fill="none" stroke="#8f7cff" points="1443.88,-45.62 1443.88,-75.38 1476.62,-75.38 1476.62,-45.62 1443.88,-45.62"/>
<polygon fill="none" stroke="#8f7cff" points="1476.62,-45.62 1476.62,-75.38 1581.38,-75.38 1581.38,-45.62 1476.62,-45.62"/>
<polygon fill="none" stroke="#8f7cff" points="1101.62,-15.88 1101.62,-45.62 1198.88,-45.62 1198.88,-15.88 1101.62,-15.88"/>
<text xml:space="preserve" text-anchor="start" x="1108.62" y="-25.88" font-family="Arial" font-size="14.00">jsonb</text>
<polygon fill="none" stroke="#8f7cff" points="1198.88,-15.88 1198.88,-45.62 1443.88,-45.62 1443.88,-15.88 1198.88,-15.88"/>
<text xml:space="preserve" text-anchor="start" x="1205.88" y="-25.88" font-family="Arial" font-size="14.00">request_payload</text>
<polygon fill="none" stroke="#8f7cff" points="1443.88,-15.88 1443.88,-45.62 1476.62,-45.62 1476.62,-15.88 1443.88,-15.88"/>
<polygon fill="none" stroke="#8f7cff" points="1476.62,-15.88 1476.62,-45.62 1581.38,-45.62 1581.38,-15.88 1476.62,-15.88"/>
<polygon fill="none" stroke="#8f7cff" points="1100.62,-14.88 1100.62,-198.38 1582.38,-198.38 1582.38,-14.88 1100.62,-14.88"/>
</g>
<!-- jobs&#45;&gt;ext -->
<g id="edge4" class="edge">
<title>jobs&#45;&gt;ext</title>
<path fill="none" stroke="#7f7f7f" stroke-width="1.3" d="M1341.5,-284.81C1341.5,-256.88 1341.5,-226.14 1341.5,-198.22"/>
<text xml:space="preserve" text-anchor="middle" x="1367" y="-245.3" font-family="Arial" font-size="11.00">dispatches</text>
</g>
<!-- raw -->
<g id="node6" class="node">
<title>raw</title>
<polygon fill="#f5f2ff" stroke="none" points="1682.88,-179.5 1682.88,-212.25 1966.12,-212.25 1966.12,-179.5 1682.88,-179.5"/>
<polygon fill="none" stroke="#8f7cff" points="1682.88,-179.5 1682.88,-212.25 1966.12,-212.25 1966.12,-179.5 1682.88,-179.5"/>
<text xml:space="preserve" text-anchor="start" x="1765.25" y="-190.25" font-family="Arial" font-size="16.00">RAW_BATCHES</text>
<polygon fill="none" stroke="#8f7cff" points="1682.88,-149.75 1682.88,-179.5 1741.88,-179.5 1741.88,-149.75 1682.88,-149.75"/>
<text xml:space="preserve" text-anchor="start" x="1689.88" y="-159.75" font-family="Arial" font-size="14.00">uuid</text>
<polygon fill="none" stroke="#8f7cff" points="1741.88,-149.75 1741.88,-179.5 1920.12,-179.5 1920.12,-149.75 1741.88,-149.75"/>
<text xml:space="preserve" text-anchor="start" x="1748.88" y="-159.75" font-family="Arial" font-size="14.00">id</text>
<polygon fill="none" stroke="#8f7cff" points="1920.12,-149.75 1920.12,-179.5 1952.12,-179.5 1952.12,-149.75 1920.12,-149.75"/>
<text xml:space="preserve" text-anchor="start" x="1927.12" y="-159.75" font-family="Arial" font-size="14.00">PK</text>
<polygon fill="none" stroke="#8f7cff" points="1952.12,-149.75 1952.12,-179.5 1966.12,-179.5 1966.12,-149.75 1952.12,-149.75"/>
<polygon fill="none" stroke="#8f7cff" points="1682.88,-120 1682.88,-149.75 1741.88,-149.75 1741.88,-120 1682.88,-120"/>
<text xml:space="preserve" text-anchor="start" x="1689.88" y="-130" font-family="Arial" font-size="14.00">uuid</text>
<polygon fill="none" stroke="#8f7cff" points="1741.88,-120 1741.88,-149.75 1920.12,-149.75 1920.12,-120 1741.88,-120"/>
<text xml:space="preserve" text-anchor="start" x="1748.88" y="-130" font-family="Arial" font-size="14.00">source_id, external_task_id</text>
<polygon fill="none" stroke="#8f7cff" points="1920.12,-120 1920.12,-149.75 1952.12,-149.75 1952.12,-120 1920.12,-120"/>
<text xml:space="preserve" text-anchor="start" x="1927.5" y="-130" font-family="Arial" font-size="14.00">FK</text>
<polygon fill="none" stroke="#8f7cff" points="1952.12,-120 1952.12,-149.75 1966.12,-149.75 1966.12,-120 1952.12,-120"/>
<polygon fill="none" stroke="#8f7cff" points="1682.88,-90.25 1682.88,-120 1741.88,-120 1741.88,-90.25 1682.88,-90.25"/>
<text xml:space="preserve" text-anchor="start" x="1689.88" y="-100.25" font-family="Arial" font-size="14.00">varchar</text>
<polygon fill="none" stroke="#8f7cff" points="1741.88,-90.25 1741.88,-120 1920.12,-120 1920.12,-90.25 1741.88,-90.25"/>
<text xml:space="preserve" text-anchor="start" x="1748.88" y="-100.25" font-family="Arial" font-size="14.00">batch_id, storage_bucket</text>
<polygon fill="none" stroke="#8f7cff" points="1920.12,-90.25 1920.12,-120 1952.12,-120 1952.12,-90.25 1920.12,-90.25"/>
<polygon fill="none" stroke="#8f7cff" points="1952.12,-90.25 1952.12,-120 1966.12,-120 1966.12,-90.25 1952.12,-90.25"/>
<polygon fill="none" stroke="#8f7cff" points="1682.88,-60.5 1682.88,-90.25 1741.88,-90.25 1741.88,-60.5 1682.88,-60.5"/>
<text xml:space="preserve" text-anchor="start" x="1689.88" y="-70.5" font-family="Arial" font-size="14.00">text</text>
<polygon fill="none" stroke="#8f7cff" points="1741.88,-60.5 1741.88,-90.25 1920.12,-90.25 1920.12,-60.5 1741.88,-60.5"/>
<text xml:space="preserve" text-anchor="start" x="1748.88" y="-70.5" font-family="Arial" font-size="14.00">storage_path, storage_url</text>
<polygon fill="none" stroke="#8f7cff" points="1920.12,-60.5 1920.12,-90.25 1952.12,-90.25 1952.12,-60.5 1920.12,-60.5"/>
<polygon fill="none" stroke="#8f7cff" points="1952.12,-60.5 1952.12,-90.25 1966.12,-90.25 1966.12,-60.5 1952.12,-60.5"/>
<polygon fill="none" stroke="#8f7cff" points="1682.88,-30.75 1682.88,-60.5 1741.88,-60.5 1741.88,-30.75 1682.88,-30.75"/>
<text xml:space="preserve" text-anchor="start" x="1689.88" y="-40.75" font-family="Arial" font-size="14.00">enum</text>
<polygon fill="none" stroke="#8f7cff" points="1741.88,-30.75 1741.88,-60.5 1920.12,-60.5 1920.12,-30.75 1741.88,-30.75"/>
<text xml:space="preserve" text-anchor="start" x="1748.88" y="-40.75" font-family="Arial" font-size="14.00">status, publish_status</text>
<polygon fill="none" stroke="#8f7cff" points="1920.12,-30.75 1920.12,-60.5 1952.12,-60.5 1952.12,-30.75 1920.12,-30.75"/>
<polygon fill="none" stroke="#8f7cff" points="1952.12,-30.75 1952.12,-60.5 1966.12,-60.5 1966.12,-30.75 1952.12,-30.75"/>
<polygon fill="none" stroke="#8f7cff" points="1682.88,-1 1682.88,-30.75 1741.88,-30.75 1741.88,-1 1682.88,-1"/>
<text xml:space="preserve" text-anchor="start" x="1689.88" y="-11" font-family="Arial" font-size="14.00">jsonb</text>
<polygon fill="none" stroke="#8f7cff" points="1741.88,-1 1741.88,-30.75 1920.12,-30.75 1920.12,-1 1741.88,-1"/>
<text xml:space="preserve" text-anchor="start" x="1748.88" y="-11" font-family="Arial" font-size="14.00">raw_metadata</text>
<polygon fill="none" stroke="#8f7cff" points="1920.12,-1 1920.12,-30.75 1952.12,-30.75 1952.12,-1 1920.12,-1"/>
<polygon fill="none" stroke="#8f7cff" points="1952.12,-1 1952.12,-30.75 1966.12,-30.75 1966.12,-1 1952.12,-1"/>
<polygon fill="none" stroke="#8f7cff" points="1681.88,0 1681.88,-213.25 1967.12,-213.25 1967.12,0 1681.88,0"/>
</g>
<!-- ext&#45;&gt;raw -->
<g id="edge5" class="edge">
<title>ext&#45;&gt;raw</title>
<path fill="none" stroke="#7f7f7f" stroke-width="1.3" d="M1582.29,-106.62C1616.44,-106.62 1650.6,-106.62 1682.05,-106.62"/>
<text xml:space="preserve" text-anchor="middle" x="1632.12" y="-112.67" font-family="Arial" font-size="11.00">materializes</text>
</g>
</g>
</svg>
