<?xml version="1.0" encoding="UTF-8" standalone="no"?>
<!DOCTYPE svg PUBLIC "-//W3C//DTD SVG 1.1//EN"
 "http://www.w3.org/Graphics/SVG/1.1/DTD/svg11.dtd">
<!-- Generated by graphviz version 14.1.5 (20260411.2331)
 -->
<!-- Title: KnowledgeERD Pages: 1 -->
<svg width="2652pt" height="564pt"
 viewBox="0.00 0.00 2652.00 564.00" xmlns="http://www.w3.org/2000/svg" xmlns:xlink="http://www.w3.org/1999/xlink">
<g id="graph0" class="graph" transform="scale(1 1) rotate(0) translate(14.4 549.15)">
<title>KnowledgeERD</title>
<polygon fill="white" stroke="none" points="-14.4,14.4 -14.4,-549.15 2637.65,-549.15 2637.65,14.4 -14.4,14.4"/>
<!-- docs -->
<g id="node1" class="node">
<title>docs</title>
<polygon fill="#f5f2ff" stroke="none" points="1,-499 1,-533.75 534.5,-533.75 534.5,-499 1,-499"/>
<polygon fill="none" stroke="#8f7cff" points="1,-499 1,-533.75 534.5,-533.75 534.5,-499 1,-499"/>
<text xml:space="preserve" text-anchor="start" x="177.38" y="-510.75" font-family="Arial" font-size="16.00">INDEXED_DOCUMENTS</text>
<polygon fill="none" stroke="#8f7cff" points="1,-467.25 1,-499 91.25,-499 91.25,-467.25 1,-467.25"/>
<text xml:space="preserve" text-anchor="start" x="9" y="-478.25" font-family="Arial" font-size="14.00">uuid</text>
<polygon fill="none" stroke="#8f7cff" points="91.25,-467.25 91.25,-499 337.5,-499 337.5,-467.25 91.25,-467.25"/>
<text xml:space="preserve" text-anchor="start" x="99.25" y="-478.25" font-family="Arial" font-size="14.00">id</text>
<polygon fill="none" stroke="#8f7cff" points="337.5,-467.25 337.5,-499 372.25,-499 372.25,-467.25 337.5,-467.25"/>
<text xml:space="preserve" text-anchor="start" x="345.88" y="-478.25" font-family="Arial" font-size="14.00">PK</text>
<polygon fill="none" stroke="#8f7cff" points="372.25,-467.25 372.25,-499 534.5,-499 534.5,-467.25 372.25,-467.25"/>
<polygon fill="none" stroke="#8f7cff" points="1,-435.5 1,-467.25 91.25,-467.25 91.25,-435.5 1,-435.5"/>
<text xml:space="preserve" text-anchor="start" x="9" y="-446.5" font-family="Arial" font-size="14.00">uuid</text>
<polygon fill="none" stroke="#8f7cff" points="91.25,-435.5 91.25,-467.25 337.5,-467.25 337.5,-435.5 91.25,-435.5"/>
<text xml:space="preserve" text-anchor="start" x="99.25" y="-446.5" font-family="Arial" font-size="14.00">analytics_id</text>
<polygon fill="none" stroke="#8f7cff" points="337.5,-435.5 337.5,-467.25 372.25,-467.25 372.25,-435.5 337.5,-435.5"/>
<text xml:space="preserve" text-anchor="start" x="345.5" y="-446.5" font-family="Arial" font-size="14.00">UK</text>
<polygon fill="none" stroke="#8f7cff" points="372.25,-435.5 372.25,-467.25 534.5,-467.25 534.5,-435.5 372.25,-435.5"/>
<text xml:space="preserve" text-anchor="start" x="380.25" y="-446.5" font-family="Arial" font-size="14.00">Indexed analytics record</text>
<polygon fill="none" stroke="#8f7cff" points="1,-403.75 1,-435.5 91.25,-435.5 91.25,-403.75 1,-403.75"/>
<text xml:space="preserve" text-anchor="start" x="9" y="-414.75" font-family="Arial" font-size="14.00">uuid</text>
<polygon fill="none" stroke="#8f7cff" points="91.25,-403.75 91.25,-435.5 337.5,-435.5 337.5,-403.75 91.25,-403.75"/>
<text xml:space="preserve" text-anchor="start" x="99.25" y="-414.75" font-family="Arial" font-size="14.00">project_id, source_id</text>
<polygon fill="none" stroke="#8f7cff" points="337.5,-403.75 337.5,-435.5 372.25,-435.5 372.25,-403.75 337.5,-403.75"/>
<polygon fill="none" stroke="#8f7cff" points="372.25,-403.75 372.25,-435.5 534.5,-435.5 534.5,-403.75 372.25,-403.75"/>
<text xml:space="preserve" text-anchor="start" x="380.25" y="-414.75" font-family="Arial" font-size="14.00">External refs</text>
<polygon fill="none" stroke="#8f7cff" points="1,-372 1,-403.75 91.25,-403.75 91.25,-372 1,-372"/>
<text xml:space="preserve" text-anchor="start" x="9" y="-383" font-family="Arial" font-size="14.00">uuid</text>
<polygon fill="none" stroke="#8f7cff" points="91.25,-372 91.25,-403.75 337.5,-403.75 337.5,-372 91.25,-372"/>
<text xml:space="preserve" text-anchor="start" x="99.25" y="-383" font-family="Arial" font-size="14.00">qdrant_point_id</text>
<polygon fill="none" stroke="#8f7cff" points="337.5,-372 337.5,-403.75 372.25,-403.75 372.25,-372 337.5,-372"/>
<polygon fill="none" stroke="#8f7cff" points="372.25,-372 372.25,-403.75 534.5,-403.75 534.5,-372 372.25,-372"/>
<text xml:space="preserve" text-anchor="start" x="380.25" y="-383" font-family="Arial" font-size="14.00">Vector point ref</text>
<polygon fill="none" stroke="#8f7cff" points="1,-340.25 1,-372 91.25,-372 91.25,-340.25 1,-340.25"/>
<text xml:space="preserve" text-anchor="start" x="9" y="-351.25" font-family="Arial" font-size="14.00">varchar</text>
<polygon fill="none" stroke="#8f7cff" points="91.25,-340.25 91.25,-372 337.5,-372 337.5,-340.25 91.25,-340.25"/>
<text xml:space="preserve" text-anchor="start" x="99.25" y="-351.25" font-family="Arial" font-size="14.00">collection_name, content_hash, status</text>
<polygon fill="none" stroke="#8f7cff" points="337.5,-340.25 337.5,-372 372.25,-372 372.25,-340.25 337.5,-340.25"/>
<polygon fill="none" stroke="#8f7cff" points="372.25,-340.25 372.25,-372 534.5,-372 534.5,-340.25 372.25,-340.25"/>
<polygon fill="none" stroke="#8f7cff" points="1,-308.5 1,-340.25 91.25,-340.25 91.25,-308.5 1,-308.5"/>
<text xml:space="preserve" text-anchor="start" x="9" y="-319.5" font-family="Arial" font-size="14.00">int / text</text>
<polygon fill="none" stroke="#8f7cff" points="91.25,-308.5 91.25,-340.25 337.5,-340.25 337.5,-308.5 91.25,-308.5"/>
<text xml:space="preserve" text-anchor="start" x="99.25" y="-319.5" font-family="Arial" font-size="14.00">retry_count, error_message</text>
<polygon fill="none" stroke="#8f7cff" points="337.5,-308.5 337.5,-340.25 372.25,-340.25 372.25,-308.5 337.5,-308.5"/>
<polygon fill="none" stroke="#8f7cff" points="372.25,-308.5 372.25,-340.25 534.5,-340.25 534.5,-308.5 372.25,-308.5"/>
<polygon fill="none" stroke="#8f7cff" points="1,-276.75 1,-308.5 91.25,-308.5 91.25,-276.75 1,-276.75"/>
<text xml:space="preserve" text-anchor="start" x="9" y="-287.75" font-family="Arial" font-size="14.00">timestamptz</text>
<polygon fill="none" stroke="#8f7cff" points="91.25,-276.75 91.25,-308.5 337.5,-308.5 337.5,-276.75 91.25,-276.75"/>
<text xml:space="preserve" text-anchor="start" x="99.25" y="-287.75" font-family="Arial" font-size="14.00">indexed_at, created_at, updated_at</text>
<polygon fill="none" stroke="#8f7cff" points="337.5,-276.75 337.5,-308.5 372.25,-308.5 372.25,-276.75 337.5,-276.75"/>
<polygon fill="none" stroke="#8f7cff" points="372.25,-276.75 372.25,-308.5 534.5,-308.5 534.5,-276.75 372.25,-276.75"/>
<polygon fill="none" stroke="#8f7cff" points="0,-275.75 0,-534.75 535.5,-534.75 535.5,-275.75 0,-275.75"/>
</g>
<!-- dlq -->
<g id="node2" class="node">
<title>dlq</title>
<polygon fill="#f5f2ff" stroke="none" points="756.75,-483.12 756.75,-517.88 1252.75,-517.88 1252.75,-483.12 756.75,-483.12"/>
<polygon fill="none" stroke="#8f7cff" points="756.75,-483.12 756.75,-517.88 1252.75,-517.88 1252.75,-483.12 756.75,-483.12"/>
<text xml:space="preserve" text-anchor="start" x="945.5" y="-494.88" font-family="Arial" font-size="16.00">INDEXING_DLQ</text>
<polygon fill="none" stroke="#8f7cff" points="756.75,-451.38 756.75,-483.12 847,-483.12 847,-451.38 756.75,-451.38"/>
<text xml:space="preserve" text-anchor="start" x="764.75" y="-462.38" font-family="Arial" font-size="14.00">uuid</text>
<polygon fill="none" stroke="#8f7cff" points="847,-451.38 847,-483.12 1067.75,-483.12 1067.75,-451.38 847,-451.38"/>
<text xml:space="preserve" text-anchor="start" x="855" y="-462.38" font-family="Arial" font-size="14.00">id</text>
<polygon fill="none" stroke="#8f7cff" points="1067.75,-451.38 1067.75,-483.12 1101.75,-483.12 1101.75,-451.38 1067.75,-451.38"/>
<text xml:space="preserve" text-anchor="start" x="1075.75" y="-462.38" font-family="Arial" font-size="14.00">PK</text>
<polygon fill="none" stroke="#8f7cff" points="1101.75,-451.38 1101.75,-483.12 1252.75,-483.12 1252.75,-451.38 1101.75,-451.38"/>
<polygon fill="none" stroke="#8f7cff" points="756.75,-419.62 756.75,-451.38 847,-451.38 847,-419.62 756.75,-419.62"/>
<text xml:space="preserve" text-anchor="start" x="764.75" y="-430.62" font-family="Arial" font-size="14.00">uuid</text>
<polygon fill="none" stroke="#8f7cff" points="847,-419.62 847,-451.38 1067.75,-451.38 1067.75,-419.62 847,-419.62"/>
<text xml:space="preserve" text-anchor="start" x="855" y="-430.62" font-family="Arial" font-size="14.00">analytics_id</text>
<polygon fill="none" stroke="#8f7cff" points="1067.75,-419.62 1067.75,-451.38 1101.75,-451.38 1101.75,-419.62 1067.75,-419.62"/>
<polygon fill="none" stroke="#8f7cff" points="1101.75,-419.62 1101.75,-451.38 1252.75,-451.38 1252.75,-419.62 1101.75,-419.62"/>
<text xml:space="preserve" text-anchor="start" x="1109.75" y="-430.62" font-family="Arial" font-size="14.00">Failed analytics record</text>
<polygon fill="none" stroke="#8f7cff" points="756.75,-387.88 756.75,-419.62 847,-419.62 847,-387.88 756.75,-387.88"/>
<text xml:space="preserve" text-anchor="start" x="764.75" y="-398.88" font-family="Arial" font-size="14.00">jsonb</text>
<polygon fill="none" stroke="#8f7cff" points="847,-387.88 847,-419.62 1067.75,-419.62 1067.75,-387.88 847,-387.88"/>
<text xml:space="preserve" text-anchor="start" x="855" y="-398.88" font-family="Arial" font-size="14.00">raw_payload</text>
<polygon fill="none" stroke="#8f7cff" points="1067.75,-387.88 1067.75,-419.62 1101.75,-419.62 1101.75,-387.88 1067.75,-387.88"/>
<polygon fill="none" stroke="#8f7cff" points="1101.75,-387.88 1101.75,-419.62 1252.75,-419.62 1252.75,-387.88 1101.75,-387.88"/>
<text xml:space="preserve" text-anchor="start" x="1109.75" y="-398.88" font-family="Arial" font-size="14.00">Replay/debug payload</text>
<polygon fill="none" stroke="#8f7cff" points="756.75,-356.12 756.75,-387.88 847,-387.88 847,-356.12 756.75,-356.12"/>
<text xml:space="preserve" text-anchor="start" x="764.75" y="-367.12" font-family="Arial" font-size="14.00">varchar/text</text>
<polygon fill="none" stroke="#8f7cff" points="847,-356.12 847,-387.88 1067.75,-387.88 1067.75,-356.12 847,-356.12"/>
<text xml:space="preserve" text-anchor="start" x="855" y="-367.12" font-family="Arial" font-size="14.00">error_type, error_message</text>
<polygon fill="none" stroke="#8f7cff" points="1067.75,-356.12 1067.75,-387.88 1101.75,-387.88 1101.75,-356.12 1067.75,-356.12"/>
<polygon fill="none" stroke="#8f7cff" points="1101.75,-356.12 1101.75,-387.88 1252.75,-387.88 1252.75,-356.12 1101.75,-356.12"/>
<polygon fill="none" stroke="#8f7cff" points="756.75,-324.38 756.75,-356.12 847,-356.12 847,-324.38 756.75,-324.38"/>
<text xml:space="preserve" text-anchor="start" x="764.75" y="-335.38" font-family="Arial" font-size="14.00">int/bool</text>
<polygon fill="none" stroke="#8f7cff" points="847,-324.38 847,-356.12 1067.75,-356.12 1067.75,-324.38 847,-324.38"/>
<text xml:space="preserve" text-anchor="start" x="855" y="-335.38" font-family="Arial" font-size="14.00">retry_count, max_retries, resolved</text>
<polygon fill="none" stroke="#8f7cff" points="1067.75,-324.38 1067.75,-356.12 1101.75,-356.12 1101.75,-324.38 1067.75,-324.38"/>
<polygon fill="none" stroke="#8f7cff" points="1101.75,-324.38 1101.75,-356.12 1252.75,-356.12 1252.75,-324.38 1101.75,-324.38"/>
<polygon fill="none" stroke="#8f7cff" points="756.75,-292.62 756.75,-324.38 847,-324.38 847,-292.62 756.75,-292.62"/>
<text xml:space="preserve" text-anchor="start" x="764.75" y="-303.62" font-family="Arial" font-size="14.00">timestamptz</text>
<polygon fill="none" stroke="#8f7cff" points="847,-292.62 847,-324.38 1067.75,-324.38 1067.75,-292.62 847,-292.62"/>
<text xml:space="preserve" text-anchor="start" x="855" y="-303.62" font-family="Arial" font-size="14.00">created_at, updated_at</text>
<polygon fill="none" stroke="#8f7cff" points="1067.75,-292.62 1067.75,-324.38 1101.75,-324.38 1101.75,-292.62 1067.75,-292.62"/>
<polygon fill="none" stroke="#8f7cff" points="1101.75,-292.62 1101.75,-324.38 1252.75,-324.38 1252.75,-292.62 1101.75,-292.62"/>
<polygon fill="none" stroke="#8f7cff" points="755.75,-291.62 755.75,-518.88 1253.75,-518.88 1253.75,-291.62 755.75,-291.62"/>
</g>
<!-- docs&#45;&gt;dlq -->
<g id="edge3" class="edge">
<title>docs&#45;&gt;dlq</title>
<path fill="none" stroke="#7f7f7f" stroke-width="1.4" stroke-dasharray="5,2" d="M535.39,-405.25C607.34,-405.25 684.86,-405.25 755.75,-405.25"/>
<text xml:space="preserve" text-anchor="middle" x="645.62" y="-411.1" font-family="Arial" font-size="12.00">failed records may spill to DLQ</text>
</g>
<!-- qdrantnote -->
<g id="node6" class="node">
<title>qdrantnote</title>
<polygon fill="#f5f2ff" stroke="none" points="139.38,-112.12 139.38,-146.88 396.12,-146.88 396.12,-112.12 139.38,-112.12"/>
<polygon fill="none" stroke="#8f7cff" points="139.38,-112.12 139.38,-146.88 396.12,-146.88 396.12,-112.12 139.38,-112.12"/>
<text xml:space="preserve" text-anchor="start" x="198" y="-123.88" font-family="Arial" font-size="16.00">QDRANT (external)</text>
<polygon fill="none" stroke="#8f7cff" points="139.38,-80.38 139.38,-112.12 396.12,-112.12 396.12,-80.38 139.38,-80.38"/>
<text xml:space="preserve" text-anchor="start" x="147.38" y="-91.38" font-family="Arial" font-size="14.00">Collection per project: `proj_{project_id}`</text>
<polygon fill="none" stroke="#8f7cff" points="139.38,-48.62 139.38,-80.38 396.12,-80.38 396.12,-48.62 139.38,-48.62"/>
<text xml:space="preserve" text-anchor="start" x="147.38" y="-59.62" font-family="Arial" font-size="14.00">Shared collection: `macro_insights`</text>
<polygon fill="none" stroke="#8f7cff" points="138.38,-47.62 138.38,-147.88 397.12,-147.88 397.12,-47.62 138.38,-47.62"/>
</g>
<!-- docs&#45;&gt;qdrantnote -->
<g id="edge2" class="edge">
<title>docs&#45;&gt;qdrantnote</title>
<path fill="none" stroke="#7f7f7f" stroke-width="1.4" stroke-dasharray="5,2" d="M267.75,-276.02C267.75,-230.62 267.75,-182.26 267.75,-147.54"/>
<text xml:space="preserve" text-anchor="middle" x="350.62" y="-231.35" font-family="Arial" font-size="12.00">collection_name &#45;&gt; vector store</text>
</g>
<!-- conv -->
<g id="node3" class="node">
<title>conv</title>
<polygon fill="#f5f2ff" stroke="none" points="1312.62,-467.25 1312.62,-502 1846.88,-502 1846.88,-467.25 1312.62,-467.25"/>
<polygon fill="none" stroke="#8f7cff" points="1312.62,-467.25 1312.62,-502 1846.88,-502 1846.88,-467.25 1312.62,-467.25"/>
<text xml:space="preserve" text-anchor="start" x="1511.5" y="-479" font-family="Arial" font-size="16.00">CONVERSATIONS</text>
<polygon fill="none" stroke="#8f7cff" points="1312.62,-435.5 1312.62,-467.25 1402.88,-467.25 1402.88,-435.5 1312.62,-435.5"/>
<text xml:space="preserve" text-anchor="start" x="1320.62" y="-446.5" font-family="Arial" font-size="14.00">uuid</text>
<polygon fill="none" stroke="#8f7cff" points="1402.88,-435.5 1402.88,-467.25 1667.88,-467.25 1667.88,-435.5 1402.88,-435.5"/>
<text xml:space="preserve" text-anchor="start" x="1410.88" y="-446.5" font-family="Arial" font-size="14.00">id</text>
<polygon fill="none" stroke="#8f7cff" points="1667.88,-435.5 1667.88,-467.25 1701.88,-467.25 1701.88,-435.5 1667.88,-435.5"/>
<text xml:space="preserve" text-anchor="start" x="1675.88" y="-446.5" font-family="Arial" font-size="14.00">PK</text>
<polygon fill="none" stroke="#8f7cff" points="1701.88,-435.5 1701.88,-467.25 1846.88,-467.25 1846.88,-435.5 1701.88,-435.5"/>
<polygon fill="none" stroke="#8f7cff" points="1312.62,-403.75 1312.62,-435.5 1402.88,-435.5 1402.88,-403.75 1312.62,-403.75"/>
<text xml:space="preserve" text-anchor="start" x="1320.62" y="-414.75" font-family="Arial" font-size="14.00">varchar</text>
<polygon fill="none" stroke="#8f7cff" points="1402.88,-403.75 1402.88,-435.5 1667.88,-435.5 1667.88,-403.75 1402.88,-403.75"/>
<text xml:space="preserve" text-anchor="start" x="1410.88" y="-414.75" font-family="Arial" font-size="14.00">campaign_id, user_id</text>
<polygon fill="none" stroke="#8f7cff" points="1667.88,-403.75 1667.88,-435.5 1701.88,-435.5 1701.88,-403.75 1667.88,-403.75"/>
<polygon fill="none" stroke="#8f7cff" points="1701.88,-403.75 1701.88,-435.5 1846.88,-435.5 1846.88,-403.75 1701.88,-403.75"/>
<text xml:space="preserve" text-anchor="start" x="1709.88" y="-414.75" font-family="Arial" font-size="14.00">Scoped conversation</text>
<polygon fill="none" stroke="#8f7cff" points="1312.62,-372 1312.62,-403.75 1402.88,-403.75 1402.88,-372 1312.62,-372"/>
<text xml:space="preserve" text-anchor="start" x="1320.62" y="-383" font-family="Arial" font-size="14.00">varchar</text>
<polygon fill="none" stroke="#8f7cff" points="1402.88,-372 1402.88,-403.75 1667.88,-403.75 1667.88,-372 1402.88,-372"/>
<text xml:space="preserve" text-anchor="start" x="1410.88" y="-383" font-family="Arial" font-size="14.00">title, status</text>
<polygon fill="none" stroke="#8f7cff" points="1667.88,-372 1667.88,-403.75 1701.88,-403.75 1701.88,-372 1667.88,-372"/>
<polygon fill="none" stroke="#8f7cff" points="1701.88,-372 1701.88,-403.75 1846.88,-403.75 1846.88,-372 1701.88,-372"/>
<text xml:space="preserve" text-anchor="start" x="1709.88" y="-383" font-family="Arial" font-size="14.00">ACTIVE | ARCHIVED</text>
<polygon fill="none" stroke="#8f7cff" points="1312.62,-340.25 1312.62,-372 1402.88,-372 1402.88,-340.25 1312.62,-340.25"/>
<text xml:space="preserve" text-anchor="start" x="1320.62" y="-351.25" font-family="Arial" font-size="14.00">int</text>
<polygon fill="none" stroke="#8f7cff" points="1402.88,-340.25 1402.88,-372 1667.88,-372 1667.88,-340.25 1402.88,-340.25"/>
<text xml:space="preserve" text-anchor="start" x="1410.88" y="-351.25" font-family="Arial" font-size="14.00">message_count</text>
<polygon fill="none" stroke="#8f7cff" points="1667.88,-340.25 1667.88,-372 1701.88,-372 1701.88,-340.25 1667.88,-340.25"/>
<polygon fill="none" stroke="#8f7cff" points="1701.88,-340.25 1701.88,-372 1846.88,-372 1846.88,-340.25 1701.88,-340.25"/>
<polygon fill="none" stroke="#8f7cff" points="1312.62,-308.5 1312.62,-340.25 1402.88,-340.25 1402.88,-308.5 1312.62,-308.5"/>
<text xml:space="preserve" text-anchor="start" x="1320.62" y="-319.5" font-family="Arial" font-size="14.00">timestamptz</text>
<polygon fill="none" stroke="#8f7cff" points="1402.88,-308.5 1402.88,-340.25 1667.88,-340.25 1667.88,-308.5 1402.88,-308.5"/>
<text xml:space="preserve" text-anchor="start" x="1410.88" y="-319.5" font-family="Arial" font-size="14.00">last_message_at, created_at, updated_at</text>
<polygon fill="none" stroke="#8f7cff" points="1667.88,-308.5 1667.88,-340.25 1701.88,-340.25 1701.88,-308.5 1667.88,-308.5"/>
<polygon fill="none" stroke="#8f7cff" points="1701.88,-308.5 1701.88,-340.25 1846.88,-340.25 1846.88,-308.5 1701.88,-308.5"/>
<polygon fill="none" stroke="#8f7cff" points="1311.62,-307.5 1311.62,-503 1847.88,-503 1847.88,-307.5 1311.62,-307.5"/>
</g>
<!-- msg -->
<g id="node4" class="node">
<title>msg</title>
<polygon fill="#f5f2ff" stroke="none" points="1264.25,-159.75 1264.25,-194.5 1895.25,-194.5 1895.25,-159.75 1264.25,-159.75"/>
<polygon fill="none" stroke="#8f7cff" points="1264.25,-159.75 1264.25,-194.5 1895.25,-194.5 1895.25,-159.75 1264.25,-159.75"/>
<text xml:space="preserve" text-anchor="start" x="1535.12" y="-171.5" font-family="Arial" font-size="16.00">MESSAGES</text>
<polygon fill="none" stroke="#8f7cff" points="1264.25,-128 1264.25,-159.75 1354.5,-159.75 1354.5,-128 1264.25,-128"/>
<text xml:space="preserve" text-anchor="start" x="1272.25" y="-139" font-family="Arial" font-size="14.00">uuid</text>
<polygon fill="none" stroke="#8f7cff" points="1354.5,-128 1354.5,-159.75 1688.5,-159.75 1688.5,-128 1354.5,-128"/>
<text xml:space="preserve" text-anchor="start" x="1362.5" y="-139" font-family="Arial" font-size="14.00">id</text>
<polygon fill="none" stroke="#8f7cff" points="1688.5,-128 1688.5,-159.75 1722.5,-159.75 1722.5,-128 1688.5,-128"/>
<text xml:space="preserve" text-anchor="start" x="1696.5" y="-139" font-family="Arial" font-size="14.00">PK</text>
<polygon fill="none" stroke="#8f7cff" points="1722.5,-128 1722.5,-159.75 1895.25,-159.75 1895.25,-128 1722.5,-128"/>
<polygon fill="none" stroke="#8f7cff" points="1264.25,-96.25 1264.25,-128 1354.5,-128 1354.5,-96.25 1264.25,-96.25"/>
<text xml:space="preserve" text-anchor="start" x="1272.25" y="-107.25" font-family="Arial" font-size="14.00">uuid</text>
<polygon fill="none" stroke="#8f7cff" points="1354.5,-96.25 1354.5,-128 1688.5,-128 1688.5,-96.25 1354.5,-96.25"/>
<text xml:space="preserve" text-anchor="start" x="1362.5" y="-107.25" font-family="Arial" font-size="14.00">conversation_id</text>
<polygon fill="none" stroke="#8f7cff" points="1688.5,-96.25 1688.5,-128 1722.5,-128 1722.5,-96.25 1688.5,-96.25"/>
<text xml:space="preserve" text-anchor="start" x="1696.88" y="-107.25" font-family="Arial" font-size="14.00">FK</text>
<polygon fill="none" stroke="#8f7cff" points="1722.5,-96.25 1722.5,-128 1895.25,-128 1895.25,-96.25 1722.5,-96.25"/>
<text xml:space="preserve" text-anchor="start" x="1730.5" y="-107.25" font-family="Arial" font-size="14.00">Ref CONVERSATIONS.id</text>
<polygon fill="none" stroke="#8f7cff" points="1264.25,-64.5 1264.25,-96.25 1354.5,-96.25 1354.5,-64.5 1264.25,-64.5"/>
<text xml:space="preserve" text-anchor="start" x="1272.25" y="-75.5" font-family="Arial" font-size="14.00">varchar/text</text>
<polygon fill="none" stroke="#8f7cff" points="1354.5,-64.5 1354.5,-96.25 1688.5,-96.25 1688.5,-64.5 1354.5,-64.5"/>
<text xml:space="preserve" text-anchor="start" x="1362.5" y="-75.5" font-family="Arial" font-size="14.00">role, content</text>
<polygon fill="none" stroke="#8f7cff" points="1688.5,-64.5 1688.5,-96.25 1722.5,-96.25 1722.5,-64.5 1688.5,-64.5"/>
<polygon fill="none" stroke="#8f7cff" points="1722.5,-64.5 1722.5,-96.25 1895.25,-96.25 1895.25,-64.5 1722.5,-64.5"/>
<polygon fill="none" stroke="#8f7cff" points="1264.25,-32.75 1264.25,-64.5 1354.5,-64.5 1354.5,-32.75 1264.25,-32.75"/>
<text xml:space="preserve" text-anchor="start" x="1272.25" y="-43.75" font-family="Arial" font-size="14.00">jsonb</text>
<polygon fill="none" stroke="#8f7cff" points="1354.5,-32.75 1354.5,-64.5 1688.5,-64.5 1688.5,-32.75 1354.5,-32.75"/>
<text xml:space="preserve" text-anchor="start" x="1362.5" y="-43.75" font-family="Arial" font-size="14.00">citations, search_metadata, suggestions, filters_used</text>
<polygon fill="none" stroke="#8f7cff" points="1688.5,-32.75 1688.5,-64.5 1722.5,-64.5 1722.5,-32.75 1688.5,-32.75"/>
<polygon fill="none" stroke="#8f7cff" points="1722.5,-32.75 1722.5,-64.5 1895.25,-64.5 1895.25,-32.75 1722.5,-32.75"/>
<polygon fill="none" stroke="#8f7cff" points="1264.25,-1 1264.25,-32.75 1354.5,-32.75 1354.5,-1 1264.25,-1"/>
<text xml:space="preserve" text-anchor="start" x="1272.25" y="-12" font-family="Arial" font-size="14.00">timestamptz</text>
<polygon fill="none" stroke="#8f7cff" points="1354.5,-1 1354.5,-32.75 1688.5,-32.75 1688.5,-1 1354.5,-1"/>
<text xml:space="preserve" text-anchor="start" x="1362.5" y="-12" font-family="Arial" font-size="14.00">created_at</text>
<polygon fill="none" stroke="#8f7cff" points="1688.5,-1 1688.5,-32.75 1722.5,-32.75 1722.5,-1 1688.5,-1"/>
<polygon fill="none" stroke="#8f7cff" points="1722.5,-1 1722.5,-32.75 1895.25,-32.75 1895.25,-1 1722.5,-1"/>
<polygon fill="none" stroke="#8f7cff" points="1263.25,0 1263.25,-195.5 1896.25,-195.5 1896.25,0 1263.25,0"/>
</g>
<!-- conv&#45;&gt;msg -->
<g id="edge1" class="edge">
<title>conv&#45;&gt;msg</title>
<path fill="none" stroke="#7f7f7f" stroke-width="1.4" d="M1579.75,-307.59C1579.75,-271.75 1579.75,-231.13 1579.75,-195.31"/>
<text xml:space="preserve" text-anchor="middle" x="1605.62" y="-231.35" font-family="Arial" font-size="12.00">has many</text>
</g>
<!-- reports -->
<g id="node5" class="node">
<title>reports</title>
<polygon fill="#f5f2ff" stroke="none" points="1907.25,-499 1907.25,-533.75 2622.25,-533.75 2622.25,-499 1907.25,-499"/>
<polygon fill="none" stroke="#8f7cff" points="1907.25,-499 1907.25,-533.75 2622.25,-533.75 2622.25,-499 1907.25,-499"/>
<text xml:space="preserve" text-anchor="start" x="2226.5" y="-510.75" font-family="Arial" font-size="16.00">REPORTS</text>
<polygon fill="none" stroke="#8f7cff" points="1907.25,-467.25 1907.25,-499 1997.5,-499 1997.5,-467.25 1907.25,-467.25"/>
<text xml:space="preserve" text-anchor="start" x="1915.25" y="-478.25" font-family="Arial" font-size="14.00">uuid</text>
<polygon fill="none" stroke="#8f7cff" points="1997.5,-467.25 1997.5,-499 2461.25,-499 2461.25,-467.25 1997.5,-467.25"/>
<text xml:space="preserve" text-anchor="start" x="2005.5" y="-478.25" font-family="Arial" font-size="14.00">id</text>
<polygon fill="none" stroke="#8f7cff" points="2461.25,-467.25 2461.25,-499 2495.25,-499 2495.25,-467.25 2461.25,-467.25"/>
<text xml:space="preserve" text-anchor="start" x="2469.25" y="-478.25" font-family="Arial" font-size="14.00">PK</text>
<polygon fill="none" stroke="#8f7cff" points="2495.25,-467.25 2495.25,-499 2622.25,-499 2622.25,-467.25 2495.25,-467.25"/>
<polygon fill="none" stroke="#8f7cff" points="1907.25,-435.5 1907.25,-467.25 1997.5,-467.25 1997.5,-435.5 1907.25,-435.5"/>
<text xml:space="preserve" text-anchor="start" x="1915.25" y="-446.5" font-family="Arial" font-size="14.00">uuid</text>
<polygon fill="none" stroke="#8f7cff" points="1997.5,-435.5 1997.5,-467.25 2461.25,-467.25 2461.25,-435.5 1997.5,-435.5"/>
<text xml:space="preserve" text-anchor="start" x="2005.5" y="-446.5" font-family="Arial" font-size="14.00">campaign_id, user_id</text>
<polygon fill="none" stroke="#8f7cff" points="2461.25,-435.5 2461.25,-467.25 2495.25,-467.25 2495.25,-435.5 2461.25,-435.5"/>
<polygon fill="none" stroke="#8f7cff" points="2495.25,-435.5 2495.25,-467.25 2622.25,-467.25 2622.25,-435.5 2495.25,-435.5"/>
<text xml:space="preserve" text-anchor="start" x="2503.25" y="-446.5" font-family="Arial" font-size="14.00">Scope + requester</text>
<polygon fill="none" stroke="#8f7cff" points="1907.25,-403.75 1907.25,-435.5 1997.5,-435.5 1997.5,-403.75 1907.25,-403.75"/>
<text xml:space="preserve" text-anchor="start" x="1915.25" y="-414.75" font-family="Arial" font-size="14.00">varchar</text>
<polygon fill="none" stroke="#8f7cff" points="1997.5,-403.75 1997.5,-435.5 2461.25,-435.5 2461.25,-403.75 1997.5,-403.75"/>
<text xml:space="preserve" text-anchor="start" x="2005.5" y="-414.75" font-family="Arial" font-size="14.00">report_type, params_hash, status</text>
<polygon fill="none" stroke="#8f7cff" points="2461.25,-403.75 2461.25,-435.5 2495.25,-435.5 2495.25,-403.75 2461.25,-403.75"/>
<polygon fill="none" stroke="#8f7cff" points="2495.25,-403.75 2495.25,-435.5 2622.25,-435.5 2622.25,-403.75 2495.25,-403.75"/>
<polygon fill="none" stroke="#8f7cff" points="1907.25,-372 1907.25,-403.75 1997.5,-403.75 1997.5,-372 1907.25,-372"/>
<text xml:space="preserve" text-anchor="start" x="1915.25" y="-383" font-family="Arial" font-size="14.00">jsonb</text>
<polygon fill="none" stroke="#8f7cff" points="1997.5,-372 1997.5,-403.75 2461.25,-403.75 2461.25,-372 1997.5,-372"/>
<text xml:space="preserve" text-anchor="start" x="2005.5" y="-383" font-family="Arial" font-size="14.00">filters</text>
<polygon fill="none" stroke="#8f7cff" points="2461.25,-372 2461.25,-403.75 2495.25,-403.75 2495.25,-372 2461.25,-372"/>
<polygon fill="none" stroke="#8f7cff" points="2495.25,-372 2495.25,-403.75 2622.25,-403.75 2622.25,-372 2495.25,-372"/>
<polygon fill="none" stroke="#8f7cff" points="1907.25,-340.25 1907.25,-372 1997.5,-372 1997.5,-340.25 1907.25,-340.25"/>
<text xml:space="preserve" text-anchor="start" x="1915.25" y="-351.25" font-family="Arial" font-size="14.00">text</text>
<polygon fill="none" stroke="#8f7cff" points="1997.5,-340.25 1997.5,-372 2461.25,-372 2461.25,-340.25 1997.5,-340.25"/>
<text xml:space="preserve" text-anchor="start" x="2005.5" y="-351.25" font-family="Arial" font-size="14.00">file_url, error_message</text>
<polygon fill="none" stroke="#8f7cff" points="2461.25,-340.25 2461.25,-372 2495.25,-372 2495.25,-340.25 2461.25,-340.25"/>
<polygon fill="none" stroke="#8f7cff" points="2495.25,-340.25 2495.25,-372 2622.25,-372 2622.25,-340.25 2495.25,-340.25"/>
<polygon fill="none" stroke="#8f7cff" points="1907.25,-308.5 1907.25,-340.25 1997.5,-340.25 1997.5,-308.5 1907.25,-308.5"/>
<text xml:space="preserve" text-anchor="start" x="1915.25" y="-319.5" font-family="Arial" font-size="14.00">int/bigint</text>
<polygon fill="none" stroke="#8f7cff" points="1997.5,-308.5 1997.5,-340.25 2461.25,-340.25 2461.25,-308.5 1997.5,-308.5"/>
<text xml:space="preserve" text-anchor="start" x="2005.5" y="-319.5" font-family="Arial" font-size="14.00">file_size_bytes, total_docs_analyzed, sections_count, generation_time_ms</text>
<polygon fill="none" stroke="#8f7cff" points="2461.25,-308.5 2461.25,-340.25 2495.25,-340.25 2495.25,-308.5 2461.25,-308.5"/>
<polygon fill="none" stroke="#8f7cff" points="2495.25,-308.5 2495.25,-340.25 2622.25,-340.25 2622.25,-308.5 2495.25,-308.5"/>
<polygon fill="none" stroke="#8f7cff" points="1907.25,-276.75 1907.25,-308.5 1997.5,-308.5 1997.5,-276.75 1907.25,-276.75"/>
<text xml:space="preserve" text-anchor="start" x="1915.25" y="-287.75" font-family="Arial" font-size="14.00">timestamptz</text>
<polygon fill="none" stroke="#8f7cff" points="1997.5,-276.75 1997.5,-308.5 2461.25,-308.5 2461.25,-276.75 1997.5,-276.75"/>
<text xml:space="preserve" text-anchor="start" x="2005.5" y="-287.75" font-family="Arial" font-size="14.00">completed_at, created_at, updated_at</text>
<polygon fill="none" stroke="#8f7cff" points="2461.25,-276.75 2461.25,-308.5 2495.25,-308.5 2495.25,-276.75 2461.25,-276.75"/>
<polygon fill="none" stroke="#8f7cff" points="2495.25,-276.75 2495.25,-308.5 2622.25,-308.5 2622.25,-276.75 2495.25,-276.75"/>
<polygon fill="none" stroke="#8f7cff" points="1906.25,-275.75 1906.25,-534.75 2623.25,-534.75 2623.25,-275.75 1906.25,-275.75"/>
</g>
</g>
</svg>
