<?xml version="1.0" encoding="UTF-8" standalone="no"?>
<!DOCTYPE svg PUBLIC "-//W3C//DTD SVG 1.1//EN"
 "http://www.w3.org/Graphics/SVG/1.1/DTD/svg11.dtd">
<!-- Generated by graphviz version 14.1.5 (20260411.2331)
 -->
<!-- Title: ProjectERD Pages: 1 -->
<svg width="1823pt" height="447pt"
 viewBox="0.00 0.00 1823.00 447.00" xmlns="http://www.w3.org/2000/svg" xmlns:xlink="http://www.w3.org/1999/xlink">
<g id="graph0" class="graph" transform="scale(1 1) rotate(0) translate(14.4 432.15)">
<title>ProjectERD</title>
<polygon fill="white" stroke="none" points="-14.4,14.4 -14.4,-432.15 1808.53,-432.15 1808.53,14.4 -14.4,14.4"/>
<!-- campaigns -->
<g id="node1" class="node">
<title>campaigns</title>
<polygon fill="#f5f2ff" stroke="none" points="1,-318.5 1,-353.25 482,-353.25 482,-318.5 1,-318.5"/>
<polygon fill="none" stroke="#8f7cff" points="1,-318.5 1,-353.25 482,-353.25 482,-318.5 1,-318.5"/>
<text xml:space="preserve" text-anchor="start" x="194.25" y="-330.25" font-family="Arial" font-size="16.00">CAMPAIGNS</text>
<polygon fill="none" stroke="#8f7cff" points="1,-286.75 1,-318.5 91.25,-318.5 91.25,-286.75 1,-286.75"/>
<text xml:space="preserve" text-anchor="start" x="9" y="-297.75" font-family="Arial" font-size="14.00">uuid</text>
<polygon fill="none" stroke="#8f7cff" points="91.25,-286.75 91.25,-318.5 316.5,-318.5 316.5,-286.75 91.25,-286.75"/>
<text xml:space="preserve" text-anchor="start" x="99.25" y="-297.75" font-family="Arial" font-size="14.00">id</text>
<polygon fill="none" stroke="#8f7cff" points="316.5,-286.75 316.5,-318.5 350.5,-318.5 350.5,-286.75 316.5,-286.75"/>
<text xml:space="preserve" text-anchor="start" x="324.5" y="-297.75" font-family="Arial" font-size="14.00">PK</text>
<polygon fill="none" stroke="#8f7cff" points="350.5,-286.75 350.5,-318.5 482,-318.5 482,-286.75 350.5,-286.75"/>
<polygon fill="none" stroke="#8f7cff" points="1,-255 1,-286.75 91.25,-286.75 91.25,-255 1,-255"/>
<text xml:space="preserve" text-anchor="start" x="9" y="-266" font-family="Arial" font-size="14.00">varchar</text>
<polygon fill="none" stroke="#8f7cff" points="91.25,-255 91.25,-286.75 316.5,-286.75 316.5,-255 91.25,-255"/>
<text xml:space="preserve" text-anchor="start" x="99.25" y="-266" font-family="Arial" font-size="14.00">name</text>
<polygon fill="none" stroke="#8f7cff" points="316.5,-255 316.5,-286.75 350.5,-286.75 350.5,-255 316.5,-255"/>
<polygon fill="none" stroke="#8f7cff" points="350.5,-255 350.5,-286.75 482,-286.75 482,-255 350.5,-255"/>
<polygon fill="none" stroke="#8f7cff" points="1,-223.25 1,-255 91.25,-255 91.25,-223.25 1,-223.25"/>
<text xml:space="preserve" text-anchor="start" x="9" y="-234.25" font-family="Arial" font-size="14.00">text</text>
<polygon fill="none" stroke="#8f7cff" points="91.25,-223.25 91.25,-255 316.5,-255 316.5,-223.25 91.25,-223.25"/>
<text xml:space="preserve" text-anchor="start" x="99.25" y="-234.25" font-family="Arial" font-size="14.00">description</text>
<polygon fill="none" stroke="#8f7cff" points="316.5,-223.25 316.5,-255 350.5,-255 350.5,-223.25 316.5,-223.25"/>
<polygon fill="none" stroke="#8f7cff" points="350.5,-223.25 350.5,-255 482,-255 482,-223.25 350.5,-223.25"/>
<polygon fill="none" stroke="#8f7cff" points="1,-191.5 1,-223.25 91.25,-223.25 91.25,-191.5 1,-191.5"/>
<text xml:space="preserve" text-anchor="start" x="9" y="-202.5" font-family="Arial" font-size="14.00">enum</text>
<polygon fill="none" stroke="#8f7cff" points="91.25,-191.5 91.25,-223.25 316.5,-223.25 316.5,-191.5 91.25,-191.5"/>
<text xml:space="preserve" text-anchor="start" x="99.25" y="-202.5" font-family="Arial" font-size="14.00">status</text>
<polygon fill="none" stroke="#8f7cff" points="316.5,-191.5 316.5,-223.25 350.5,-223.25 350.5,-191.5 316.5,-191.5"/>
<polygon fill="none" stroke="#8f7cff" points="350.5,-191.5 350.5,-223.25 482,-223.25 482,-191.5 350.5,-191.5"/>
<text xml:space="preserve" text-anchor="start" x="358.5" y="-202.5" font-family="Arial" font-size="14.00">campaign_status</text>
<polygon fill="none" stroke="#8f7cff" points="1,-159.75 1,-191.5 91.25,-191.5 91.25,-159.75 1,-159.75"/>
<text xml:space="preserve" text-anchor="start" x="9" y="-170.75" font-family="Arial" font-size="14.00">timestamptz</text>
<polygon fill="none" stroke="#8f7cff" points="91.25,-159.75 91.25,-191.5 316.5,-191.5 316.5,-159.75 91.25,-159.75"/>
<text xml:space="preserve" text-anchor="start" x="99.25" y="-170.75" font-family="Arial" font-size="14.00">start_date, end_date</text>
<polygon fill="none" stroke="#8f7cff" points="316.5,-159.75 316.5,-191.5 350.5,-191.5 350.5,-159.75 316.5,-159.75"/>
<polygon fill="none" stroke="#8f7cff" points="350.5,-159.75 350.5,-191.5 482,-191.5 482,-159.75 350.5,-159.75"/>
<polygon fill="none" stroke="#8f7cff" points="1,-128 1,-159.75 91.25,-159.75 91.25,-128 1,-128"/>
<text xml:space="preserve" text-anchor="start" x="9" y="-139" font-family="Arial" font-size="14.00">uuid</text>
<polygon fill="none" stroke="#8f7cff" points="91.25,-128 91.25,-159.75 316.5,-159.75 316.5,-128 91.25,-128"/>
<text xml:space="preserve" text-anchor="start" x="99.25" y="-139" font-family="Arial" font-size="14.00">created_by</text>
<polygon fill="none" stroke="#8f7cff" points="316.5,-128 316.5,-159.75 350.5,-159.75 350.5,-128 316.5,-128"/>
<polygon fill="none" stroke="#8f7cff" points="350.5,-128 350.5,-159.75 482,-159.75 482,-128 350.5,-128"/>
<text xml:space="preserve" text-anchor="start" x="358.5" y="-139" font-family="Arial" font-size="14.00">External identity ref</text>
<polygon fill="none" stroke="#8f7cff" points="1,-96.25 1,-128 91.25,-128 91.25,-96.25 1,-96.25"/>
<text xml:space="preserve" text-anchor="start" x="9" y="-107.25" font-family="Arial" font-size="14.00">uuid[]</text>
<polygon fill="none" stroke="#8f7cff" points="91.25,-96.25 91.25,-128 316.5,-128 316.5,-96.25 91.25,-96.25"/>
<text xml:space="preserve" text-anchor="start" x="99.25" y="-107.25" font-family="Arial" font-size="14.00">favorite_user_ids</text>
<polygon fill="none" stroke="#8f7cff" points="316.5,-96.25 316.5,-128 350.5,-128 350.5,-96.25 316.5,-96.25"/>
<polygon fill="none" stroke="#8f7cff" points="350.5,-96.25 350.5,-128 482,-128 482,-96.25 350.5,-96.25"/>
<text xml:space="preserve" text-anchor="start" x="358.5" y="-107.25" font-family="Arial" font-size="14.00">GIN indexed</text>
<polygon fill="none" stroke="#8f7cff" points="1,-64.5 1,-96.25 91.25,-96.25 91.25,-64.5 1,-64.5"/>
<text xml:space="preserve" text-anchor="start" x="9" y="-75.5" font-family="Arial" font-size="14.00">timestamptz</text>
<polygon fill="none" stroke="#8f7cff" points="91.25,-64.5 91.25,-96.25 316.5,-96.25 316.5,-64.5 91.25,-64.5"/>
<text xml:space="preserve" text-anchor="start" x="99.25" y="-75.5" font-family="Arial" font-size="14.00">created_at, updated_at, deleted_at</text>
<polygon fill="none" stroke="#8f7cff" points="316.5,-64.5 316.5,-96.25 350.5,-96.25 350.5,-64.5 316.5,-64.5"/>
<polygon fill="none" stroke="#8f7cff" points="350.5,-64.5 350.5,-96.25 482,-96.25 482,-64.5 350.5,-64.5"/>
<polygon fill="none" stroke="#8f7cff" points="0,-63.5 0,-354.25 483,-354.25 483,-63.5 0,-63.5"/>
</g>
<!-- projects -->
<g id="node2" class="node">
<title>projects</title>
<polygon fill="#f5f2ff" stroke="none" points="599.88,-382 599.88,-416.75 1107.12,-416.75 1107.12,-382 599.88,-382"/>
<polygon fill="none" stroke="#8f7cff" points="599.88,-382 599.88,-416.75 1107.12,-416.75 1107.12,-382 599.88,-382"/>
<text xml:space="preserve" text-anchor="start" x="811.12" y="-393.75" font-family="Arial" font-size="16.00">PROJECTS</text>
<polygon fill="none" stroke="#8f7cff" points="599.88,-350.25 599.88,-382 693.88,-382 693.88,-350.25 599.88,-350.25"/>
<text xml:space="preserve" text-anchor="start" x="607.88" y="-361.25" font-family="Arial" font-size="14.00">uuid</text>
<polygon fill="none" stroke="#8f7cff" points="693.88,-350.25 693.88,-382 919.12,-382 919.12,-350.25 693.88,-350.25"/>
<text xml:space="preserve" text-anchor="start" x="701.88" y="-361.25" font-family="Arial" font-size="14.00">id</text>
<polygon fill="none" stroke="#8f7cff" points="919.12,-350.25 919.12,-382 953.12,-382 953.12,-350.25 919.12,-350.25"/>
<text xml:space="preserve" text-anchor="start" x="927.12" y="-361.25" font-family="Arial" font-size="14.00">PK</text>
<polygon fill="none" stroke="#8f7cff" points="953.12,-350.25 953.12,-382 1107.12,-382 1107.12,-350.25 953.12,-350.25"/>
<polygon fill="none" stroke="#8f7cff" points="599.88,-318.5 599.88,-350.25 693.88,-350.25 693.88,-318.5 599.88,-318.5"/>
<text xml:space="preserve" text-anchor="start" x="607.88" y="-329.5" font-family="Arial" font-size="14.00">uuid</text>
<polygon fill="none" stroke="#8f7cff" points="693.88,-318.5 693.88,-350.25 919.12,-350.25 919.12,-318.5 693.88,-318.5"/>
<text xml:space="preserve" text-anchor="start" x="701.88" y="-329.5" font-family="Arial" font-size="14.00">campaign_id</text>
<polygon fill="none" stroke="#8f7cff" points="919.12,-318.5 919.12,-350.25 953.12,-350.25 953.12,-318.5 919.12,-318.5"/>
<text xml:space="preserve" text-anchor="start" x="927.5" y="-329.5" font-family="Arial" font-size="14.00">FK</text>
<polygon fill="none" stroke="#8f7cff" points="953.12,-318.5 953.12,-350.25 1107.12,-350.25 1107.12,-318.5 953.12,-318.5"/>
<text xml:space="preserve" text-anchor="start" x="961.12" y="-329.5" font-family="Arial" font-size="14.00">Ref CAMPAIGNS.id</text>
<polygon fill="none" stroke="#8f7cff" points="599.88,-286.75 599.88,-318.5 693.88,-318.5 693.88,-286.75 599.88,-286.75"/>
<text xml:space="preserve" text-anchor="start" x="607.88" y="-297.75" font-family="Arial" font-size="14.00">varchar</text>
<polygon fill="none" stroke="#8f7cff" points="693.88,-286.75 693.88,-318.5 919.12,-318.5 919.12,-286.75 693.88,-286.75"/>
<text xml:space="preserve" text-anchor="start" x="701.88" y="-297.75" font-family="Arial" font-size="14.00">name</text>
<polygon fill="none" stroke="#8f7cff" points="919.12,-286.75 919.12,-318.5 953.12,-318.5 953.12,-286.75 919.12,-286.75"/>
<polygon fill="none" stroke="#8f7cff" points="953.12,-286.75 953.12,-318.5 1107.12,-318.5 1107.12,-286.75 953.12,-286.75"/>
<polygon fill="none" stroke="#8f7cff" points="599.88,-255 599.88,-286.75 693.88,-286.75 693.88,-255 599.88,-255"/>
<text xml:space="preserve" text-anchor="start" x="607.88" y="-266" font-family="Arial" font-size="14.00">text / varchar</text>
<polygon fill="none" stroke="#8f7cff" points="693.88,-255 693.88,-286.75 919.12,-286.75 919.12,-255 693.88,-255"/>
<text xml:space="preserve" text-anchor="start" x="701.88" y="-266" font-family="Arial" font-size="14.00">description, brand</text>
<polygon fill="none" stroke="#8f7cff" points="919.12,-255 919.12,-286.75 953.12,-286.75 953.12,-255 919.12,-255"/>
<polygon fill="none" stroke="#8f7cff" points="953.12,-255 953.12,-286.75 1107.12,-286.75 1107.12,-255 953.12,-255"/>
<polygon fill="none" stroke="#8f7cff" points="599.88,-223.25 599.88,-255 693.88,-255 693.88,-223.25 599.88,-223.25"/>
<text xml:space="preserve" text-anchor="start" x="607.88" y="-234.25" font-family="Arial" font-size="14.00">enum</text>
<polygon fill="none" stroke="#8f7cff" points="693.88,-223.25 693.88,-255 919.12,-255 919.12,-223.25 693.88,-223.25"/>
<text xml:space="preserve" text-anchor="start" x="701.88" y="-234.25" font-family="Arial" font-size="14.00">entity_type</text>
<polygon fill="none" stroke="#8f7cff" points="919.12,-223.25 919.12,-255 953.12,-255 953.12,-223.25 919.12,-223.25"/>
<polygon fill="none" stroke="#8f7cff" points="953.12,-223.25 953.12,-255 1107.12,-255 1107.12,-223.25 953.12,-223.25"/>
<text xml:space="preserve" text-anchor="start" x="961.12" y="-234.25" font-family="Arial" font-size="14.00">product | campaign | ...</text>
<polygon fill="none" stroke="#8f7cff" points="599.88,-191.5 599.88,-223.25 693.88,-223.25 693.88,-191.5 599.88,-191.5"/>
<text xml:space="preserve" text-anchor="start" x="607.88" y="-202.5" font-family="Arial" font-size="14.00">varchar</text>
<polygon fill="none" stroke="#8f7cff" points="693.88,-191.5 693.88,-223.25 919.12,-223.25 919.12,-191.5 693.88,-191.5"/>
<text xml:space="preserve" text-anchor="start" x="701.88" y="-202.5" font-family="Arial" font-size="14.00">entity_name</text>
<polygon fill="none" stroke="#8f7cff" points="919.12,-191.5 919.12,-223.25 953.12,-223.25 953.12,-191.5 919.12,-191.5"/>
<polygon fill="none" stroke="#8f7cff" points="953.12,-191.5 953.12,-223.25 1107.12,-223.25 1107.12,-191.5 953.12,-191.5"/>
<polygon fill="none" stroke="#8f7cff" points="599.88,-159.75 599.88,-191.5 693.88,-191.5 693.88,-159.75 599.88,-159.75"/>
<text xml:space="preserve" text-anchor="start" x="607.88" y="-170.75" font-family="Arial" font-size="14.00">varchar</text>
<polygon fill="none" stroke="#8f7cff" points="693.88,-159.75 693.88,-191.5 919.12,-191.5 919.12,-159.75 693.88,-159.75"/>
<text xml:space="preserve" text-anchor="start" x="701.88" y="-170.75" font-family="Arial" font-size="14.00">domain_type_code</text>
<polygon fill="none" stroke="#8f7cff" points="919.12,-159.75 919.12,-191.5 953.12,-191.5 953.12,-159.75 919.12,-159.75"/>
<polygon fill="none" stroke="#8f7cff" points="953.12,-159.75 953.12,-191.5 1107.12,-191.5 1107.12,-159.75 953.12,-159.75"/>
<text xml:space="preserve" text-anchor="start" x="961.12" y="-170.75" font-family="Arial" font-size="14.00">Default `_default`</text>
<polygon fill="none" stroke="#8f7cff" points="599.88,-128 599.88,-159.75 693.88,-159.75 693.88,-128 599.88,-128"/>
<text xml:space="preserve" text-anchor="start" x="607.88" y="-139" font-family="Arial" font-size="14.00">enum</text>
<polygon fill="none" stroke="#8f7cff" points="693.88,-128 693.88,-159.75 919.12,-159.75 919.12,-128 693.88,-128"/>
<text xml:space="preserve" text-anchor="start" x="701.88" y="-139" font-family="Arial" font-size="14.00">status</text>
<polygon fill="none" stroke="#8f7cff" points="919.12,-128 919.12,-159.75 953.12,-159.75 953.12,-128 919.12,-128"/>
<polygon fill="none" stroke="#8f7cff" points="953.12,-128 953.12,-159.75 1107.12,-159.75 1107.12,-128 953.12,-128"/>
<text xml:space="preserve" text-anchor="start" x="961.12" y="-139" font-family="Arial" font-size="14.00">project_status</text>
<polygon fill="none" stroke="#8f7cff" points="599.88,-96.25 599.88,-128 693.88,-128 693.88,-96.25 599.88,-96.25"/>
<text xml:space="preserve" text-anchor="start" x="607.88" y="-107.25" font-family="Arial" font-size="14.00">enum</text>
<polygon fill="none" stroke="#8f7cff" points="693.88,-96.25 693.88,-128 919.12,-128 919.12,-96.25 693.88,-96.25"/>
<text xml:space="preserve" text-anchor="start" x="701.88" y="-107.25" font-family="Arial" font-size="14.00">config_status</text>
<polygon fill="none" stroke="#8f7cff" points="919.12,-96.25 919.12,-128 953.12,-128 953.12,-96.25 919.12,-96.25"/>
<polygon fill="none" stroke="#8f7cff" points="953.12,-96.25 953.12,-128 1107.12,-128 1107.12,-96.25 953.12,-96.25"/>
<text xml:space="preserve" text-anchor="start" x="961.12" y="-107.25" font-family="Arial" font-size="14.00">project_config_status</text>
<polygon fill="none" stroke="#8f7cff" points="599.88,-64.5 599.88,-96.25 693.88,-96.25 693.88,-64.5 599.88,-64.5"/>
<text xml:space="preserve" text-anchor="start" x="607.88" y="-75.5" font-family="Arial" font-size="14.00">uuid</text>
<polygon fill="none" stroke="#8f7cff" points="693.88,-64.5 693.88,-96.25 919.12,-96.25 919.12,-64.5 693.88,-64.5"/>
<text xml:space="preserve" text-anchor="start" x="701.88" y="-75.5" font-family="Arial" font-size="14.00">created_by</text>
<polygon fill="none" stroke="#8f7cff" points="919.12,-64.5 919.12,-96.25 953.12,-96.25 953.12,-64.5 919.12,-64.5"/>
<polygon fill="none" stroke="#8f7cff" points="953.12,-64.5 953.12,-96.25 1107.12,-96.25 1107.12,-64.5 953.12,-64.5"/>
<text xml:space="preserve" text-anchor="start" x="961.12" y="-75.5" font-family="Arial" font-size="14.00">External identity ref</text>
<polygon fill="none" stroke="#8f7cff" points="599.88,-32.75 599.88,-64.5 693.88,-64.5 693.88,-32.75 599.88,-32.75"/>
<text xml:space="preserve" text-anchor="start" x="607.88" y="-43.75" font-family="Arial" font-size="14.00">uuid[]</text>
<polygon fill="none" stroke="#8f7cff" points="693.88,-32.75 693.88,-64.5 919.12,-64.5 919.12,-32.75 693.88,-32.75"/>
<text xml:space="preserve" text-anchor="start" x="701.88" y="-43.75" font-family="Arial" font-size="14.00">favorite_user_ids</text>
<polygon fill="none" stroke="#8f7cff" points="919.12,-32.75 919.12,-64.5 953.12,-64.5 953.12,-32.75 919.12,-32.75"/>
<polygon fill="none" stroke="#8f7cff" points="953.12,-32.75 953.12,-64.5 1107.12,-64.5 1107.12,-32.75 953.12,-32.75"/>
<text xml:space="preserve" text-anchor="start" x="961.12" y="-43.75" font-family="Arial" font-size="14.00">GIN indexed</text>
<polygon fill="none" stroke="#8f7cff" points="599.88,-1 599.88,-32.75 693.88,-32.75 693.88,-1 599.88,-1"/>
<text xml:space="preserve" text-anchor="start" x="607.88" y="-12" font-family="Arial" font-size="14.00">timestamptz</text>
<polygon fill="none" stroke="#8f7cff" points="693.88,-1 693.88,-32.75 919.12,-32.75 919.12,-1 693.88,-1"/>
<text xml:space="preserve" text-anchor="start" x="701.88" y="-12" font-family="Arial" font-size="14.00">created_at, updated_at, deleted_at</text>
<polygon fill="none" stroke="#8f7cff" points="919.12,-1 919.12,-32.75 953.12,-32.75 953.12,-1 919.12,-1"/>
<polygon fill="none" stroke="#8f7cff" points="953.12,-1 953.12,-32.75 1107.12,-32.75 1107.12,-1 953.12,-1"/>
<polygon fill="none" stroke="#8f7cff" points="598.88,0 598.88,-417.75 1108.12,-417.75 1108.12,0 598.88,0"/>
</g>
<!-- campaigns&#45;&gt;projects -->
<g id="edge1" class="edge">
<title>campaigns&#45;&gt;projects</title>
<path fill="none" stroke="#7f7f7f" stroke-width="1.4" d="M482.94,-208.88C521.05,-208.88 560.56,-208.88 598.96,-208.88"/>
<text xml:space="preserve" text-anchor="middle" x="540.94" y="-214.72" font-family="Arial" font-size="12.00">contains</text>
</g>
<!-- crisis -->
<g id="node3" class="node">
<title>crisis</title>
<polygon fill="#f5f2ff" stroke="none" points="1267.88,-302.62 1267.88,-337.38 1793.12,-337.38 1793.12,-302.62 1267.88,-302.62"/>
<polygon fill="none" stroke="#8f7cff" points="1267.88,-302.62 1267.88,-337.38 1793.12,-337.38 1793.12,-302.62 1267.88,-302.62"/>
<text xml:space="preserve" text-anchor="start" x="1421.75" y="-314.38" font-family="Arial" font-size="16.00">PROJECTS_CRISIS_CONFIG</text>
<polygon fill="none" stroke="#8f7cff" points="1267.88,-270.88 1267.88,-302.62 1358.12,-302.62 1358.12,-270.88 1267.88,-270.88"/>
<text xml:space="preserve" text-anchor="start" x="1275.88" y="-281.88" font-family="Arial" font-size="14.00">uuid</text>
<polygon fill="none" stroke="#8f7cff" points="1358.12,-270.88 1358.12,-302.62 1512.88,-302.62 1512.88,-270.88 1358.12,-270.88"/>
<text xml:space="preserve" text-anchor="start" x="1366.12" y="-281.88" font-family="Arial" font-size="14.00">project_id</text>
<polygon fill="none" stroke="#8f7cff" points="1512.88,-270.88 1512.88,-302.62 1567.88,-302.62 1567.88,-270.88 1512.88,-270.88"/>
<text xml:space="preserve" text-anchor="start" x="1520.88" y="-281.88" font-family="Arial" font-size="14.00">PK/FK</text>
<polygon fill="none" stroke="#8f7cff" points="1567.88,-270.88 1567.88,-302.62 1793.12,-302.62 1793.12,-270.88 1567.88,-270.88"/>
<text xml:space="preserve" text-anchor="start" x="1575.88" y="-281.88" font-family="Arial" font-size="14.00">Ref PROJECTS.id</text>
<polygon fill="none" stroke="#8f7cff" points="1267.88,-239.12 1267.88,-270.88 1358.12,-270.88 1358.12,-239.12 1267.88,-239.12"/>
<text xml:space="preserve" text-anchor="start" x="1275.88" y="-250.12" font-family="Arial" font-size="14.00">enum</text>
<polygon fill="none" stroke="#8f7cff" points="1358.12,-239.12 1358.12,-270.88 1512.88,-270.88 1512.88,-239.12 1358.12,-239.12"/>
<text xml:space="preserve" text-anchor="start" x="1366.12" y="-250.12" font-family="Arial" font-size="14.00">status</text>
<polygon fill="none" stroke="#8f7cff" points="1512.88,-239.12 1512.88,-270.88 1567.88,-270.88 1567.88,-239.12 1512.88,-239.12"/>
<polygon fill="none" stroke="#8f7cff" points="1567.88,-239.12 1567.88,-270.88 1793.12,-270.88 1793.12,-239.12 1567.88,-239.12"/>
<text xml:space="preserve" text-anchor="start" x="1575.88" y="-250.12" font-family="Arial" font-size="14.00">NORMAL | WARNING | CRITICAL</text>
<polygon fill="none" stroke="#8f7cff" points="1267.88,-207.38 1267.88,-239.12 1358.12,-239.12 1358.12,-207.38 1267.88,-207.38"/>
<text xml:space="preserve" text-anchor="start" x="1275.88" y="-218.38" font-family="Arial" font-size="14.00">jsonb</text>
<polygon fill="none" stroke="#8f7cff" points="1358.12,-207.38 1358.12,-239.12 1512.88,-239.12 1512.88,-207.38 1358.12,-207.38"/>
<text xml:space="preserve" text-anchor="start" x="1366.12" y="-218.38" font-family="Arial" font-size="14.00">keywords_rules</text>
<polygon fill="none" stroke="#8f7cff" points="1512.88,-207.38 1512.88,-239.12 1567.88,-239.12 1567.88,-207.38 1512.88,-207.38"/>
<polygon fill="none" stroke="#8f7cff" points="1567.88,-207.38 1567.88,-239.12 1793.12,-239.12 1793.12,-207.38 1567.88,-207.38"/>
<polygon fill="none" stroke="#8f7cff" points="1267.88,-175.62 1267.88,-207.38 1358.12,-207.38 1358.12,-175.62 1267.88,-175.62"/>
<text xml:space="preserve" text-anchor="start" x="1275.88" y="-186.62" font-family="Arial" font-size="14.00">jsonb</text>
<polygon fill="none" stroke="#8f7cff" points="1358.12,-175.62 1358.12,-207.38 1512.88,-207.38 1512.88,-175.62 1358.12,-175.62"/>
<text xml:space="preserve" text-anchor="start" x="1366.12" y="-186.62" font-family="Arial" font-size="14.00">volume_rules</text>
<polygon fill="none" stroke="#8f7cff" points="1512.88,-175.62 1512.88,-207.38 1567.88,-207.38 1567.88,-175.62 1512.88,-175.62"/>
<polygon fill="none" stroke="#8f7cff" points="1567.88,-175.62 1567.88,-207.38 1793.12,-207.38 1793.12,-175.62 1567.88,-175.62"/>
<polygon fill="none" stroke="#8f7cff" points="1267.88,-143.88 1267.88,-175.62 1358.12,-175.62 1358.12,-143.88 1267.88,-143.88"/>
<text xml:space="preserve" text-anchor="start" x="1275.88" y="-154.88" font-family="Arial" font-size="14.00">jsonb</text>
<polygon fill="none" stroke="#8f7cff" points="1358.12,-143.88 1358.12,-175.62 1512.88,-175.62 1512.88,-143.88 1358.12,-143.88"/>
<text xml:space="preserve" text-anchor="start" x="1366.12" y="-154.88" font-family="Arial" font-size="14.00">sentiment_rules</text>
<polygon fill="none" stroke="#8f7cff" points="1512.88,-143.88 1512.88,-175.62 1567.88,-175.62 1567.88,-143.88 1512.88,-143.88"/>
<polygon fill="none" stroke="#8f7cff" points="1567.88,-143.88 1567.88,-175.62 1793.12,-175.62 1793.12,-143.88 1567.88,-143.88"/>
<polygon fill="none" stroke="#8f7cff" points="1267.88,-112.12 1267.88,-143.88 1358.12,-143.88 1358.12,-112.12 1267.88,-112.12"/>
<text xml:space="preserve" text-anchor="start" x="1275.88" y="-123.12" font-family="Arial" font-size="14.00">jsonb</text>
<polygon fill="none" stroke="#8f7cff" points="1358.12,-112.12 1358.12,-143.88 1512.88,-143.88 1512.88,-112.12 1358.12,-112.12"/>
<text xml:space="preserve" text-anchor="start" x="1366.12" y="-123.12" font-family="Arial" font-size="14.00">influencer_rules</text>
<polygon fill="none" stroke="#8f7cff" points="1512.88,-112.12 1512.88,-143.88 1567.88,-143.88 1567.88,-112.12 1512.88,-112.12"/>
<polygon fill="none" stroke="#8f7cff" points="1567.88,-112.12 1567.88,-143.88 1793.12,-143.88 1793.12,-112.12 1567.88,-112.12"/>
<polygon fill="none" stroke="#8f7cff" points="1267.88,-80.38 1267.88,-112.12 1358.12,-112.12 1358.12,-80.38 1267.88,-80.38"/>
<text xml:space="preserve" text-anchor="start" x="1275.88" y="-91.38" font-family="Arial" font-size="14.00">timestamptz</text>
<polygon fill="none" stroke="#8f7cff" points="1358.12,-80.38 1358.12,-112.12 1512.88,-112.12 1512.88,-80.38 1358.12,-80.38"/>
<text xml:space="preserve" text-anchor="start" x="1366.12" y="-91.38" font-family="Arial" font-size="14.00">created_at, updated_at</text>
<polygon fill="none" stroke="#8f7cff" points="1512.88,-80.38 1512.88,-112.12 1567.88,-112.12 1567.88,-80.38 1512.88,-80.38"/>
<polygon fill="none" stroke="#8f7cff" points="1567.88,-80.38 1567.88,-112.12 1793.12,-112.12 1793.12,-80.38 1567.88,-80.38"/>
<polygon fill="none" stroke="#8f7cff" points="1266.88,-79.38 1266.88,-338.38 1794.12,-338.38 1794.12,-79.38 1266.88,-79.38"/>
</g>
<!-- projects&#45;&gt;crisis -->
<g id="edge2" class="edge">
<title>projects&#45;&gt;crisis</title>
<path fill="none" stroke="#7f7f7f" stroke-width="1.4" d="M1108,-208.88C1159.94,-208.88 1214.69,-208.88 1266.94,-208.88"/>
<text xml:space="preserve" text-anchor="middle" x="1187.5" y="-214.72" font-family="Arial" font-size="12.00">has optional config</text>
</g>
</g>
</svg>
