<svg xmlns="http://www.w3.org/2000/svg" xmlns:xlink="http://www.w3.org/1999/xlink" contentStyleType="text/css" data-diagram-type="SEQUENCE" height="1317px" preserveAspectRatio="none" style="width:2276px;height:1317px;background:#FFFFFF;" version="1.1" viewBox="0 0 2276 1317" width="2276px" zoomAndPan="magnify"><defs/><g><rect fill="none" height="46.6211" style="stroke:#000000;stroke-width:1.5;" width="493.0576" x="589.0474" y="330.9727"/><rect fill="none" height="46.6211" style="stroke:#000000;stroke-width:1.5;" width="481.4551" x="259.6372" y="420.9043"/><rect fill="none" height="46.6211" style="stroke:#000000;stroke-width:1.5;" width="481.4551" x="259.6372" y="510.8359"/><rect fill="none" height="648.4766" style="stroke:#000000;stroke-width:1.5;" width="2259.7749" x="10" y="571.457"/><rect fill="none" height="237.4844" style="stroke:#000000;stroke-width:1.5;" width="2239.7749" x="20" y="975.4492"/><rect fill="none" height="59.6211" style="stroke:#000000;stroke-width:1.5;" width="307.7524" x="1881.644" y="1117.002"/><g><title>User</title><rect fill="#000000" fill-opacity="0.00000" height="1155.4453" width="8" x="44.1826" y="81.4883"/><line style="stroke:#181818;stroke-width:0.5;stroke-dasharray:5,5;" x1="48" x2="48" y1="81.4883" y2="1236.9336"/></g><g><title>ingest-srv</title><rect fill="#000000" fill-opacity="0.00000" height="1155.4453" width="8" x="132.29" y="81.4883"/><line style="stroke:#181818;stroke-width:0.5;stroke-dasharray:5,5;" x1="135.3652" x2="135.3652" y1="81.4883" y2="1236.9336"/></g><g><title>Redpanda . Kafka API</title><rect fill="#000000" fill-opacity="0.00000" height="1155.4453" width="8" x="349.2534" y="81.4883"/><line style="stroke:#181818;stroke-width:0.5;stroke-dasharray:5,5;" x1="352.6372" x2="352.6372" y1="81.4883" y2="1236.9336"/></g><g><title>analysis-srv</title><rect fill="#000000" fill-opacity="0.00000" height="1155.4453" width="8" x="661.0698" y="81.4883"/><line style="stroke:#181818;stroke-width:0.5;stroke-dasharray:5,5;" x1="665.0474" x2="665.0474" y1="81.4883" y2="1236.9336"/></g><g><title>PostgreSQL</title><rect fill="#000000" fill-opacity="0.00000" height="1155.4453" width="8" x="1026.6802" y="81.4883"/><line style="stroke:#181818;stroke-width:0.5;stroke-dasharray:5,5;" x1="1030.2554" x2="1030.2554" y1="81.4883" y2="1236.9336"/></g><g><title>knowledge-srv</title><rect fill="#000000" fill-opacity="0.00000" height="1155.4453" width="8" x="1153.9336" y="81.4883"/><line style="stroke:#181818;stroke-width:0.5;stroke-dasharray:5,5;" x1="1157.105" x2="1157.105" y1="81.4883" y2="1236.9336"/></g><g><title>Qdrant</title><rect fill="#000000" fill-opacity="0.00000" height="1155.4453" width="8" x="1355.2817" y="81.4883"/><line style="stroke:#181818;stroke-width:0.5;stroke-dasharray:5,5;" x1="1358.7456" x2="1358.7456" y1="81.4883" y2="1236.9336"/></g><g><title>notification-srv bridge</title><rect fill="#000000" fill-opacity="0.00000" height="1155.4453" width="8" x="1493.7222" y="81.4883"/><line style="stroke:#181818;stroke-width:0.5;stroke-dasharray:5,5;" x1="1496.8179" x2="1496.8179" y1="81.4883" y2="1236.9336"/></g><g><title>notification-srv Redis subscriber</title><rect fill="#000000" fill-opacity="0.00000" height="1155.4453" width="8" x="1741.6353" y="81.4883"/><line style="stroke:#181818;stroke-width:0.5;stroke-dasharray:5,5;" x1="1745.6265" x2="1745.6265" y1="81.4883" y2="1236.9336"/></g><g><title>notification-srv WebSocket</title><rect fill="#000000" fill-opacity="0.00000" height="1155.4453" width="8" x="2004.1431" y="81.4883"/><line style="stroke:#181818;stroke-width:0.5;stroke-dasharray:5,5;" x1="2007.644" x2="2007.644" y1="81.4883" y2="1236.9336"/></g><g><title>Redis</title><rect fill="#000000" fill-opacity="0.00000" height="1155.4453" width="8" x="2224.4512" y="81.4883"/><line style="stroke:#181818;stroke-width:0.5;stroke-dasharray:5,5;" x1="2228.1274" x2="2228.1274" y1="81.4883" y2="1236.9336"/></g><g class="participant participant-head" data-participant="User"><text fill="#000000" font-family="sans-serif" font-size="14" lengthAdjust="spacing" textLength="30.3652" x="30" y="78.5352">User</text><ellipse cx="48.1826" cy="13.5" fill="#E2E2F0" rx="8" ry="8" style="stroke:#181818;stroke-width:0.5;"/><path d="M48.1826,21.5 L48.1826,48.5 M35.1826,29.5 L61.1826,29.5 M48.1826,48.5 L35.1826,63.5 M48.1826,48.5 L61.1826,63.5" fill="none" style="stroke:#181818;stroke-width:0.5;"/></g><g class="participant participant-tail" data-participant="User"><text fill="#000000" font-family="sans-serif" font-size="14" lengthAdjust="spacing" textLength="30.3652" x="30" y="1249.4688">User</text><ellipse cx="48.1826" cy="1260.9219" fill="#E2E2F0" rx="8" ry="8" style="stroke:#181818;stroke-width:0.5;"/><path d="M48.1826,1268.9219 L48.1826,1295.9219 M35.1826,1276.9219 L61.1826,1276.9219 M48.1826,1295.9219 L35.1826,1310.9219 M48.1826,1295.9219 L61.1826,1310.9219" fill="none" style="stroke:#181818;stroke-width:0.5;"/></g><g class="participant participant-head" data-participant="Ingest"><rect fill="#E2E2F0" height="30.4883" rx="2.5" ry="2.5" style="stroke:#181818;stroke-width:0.5;" width="83.8496" x="94.3652" y="50"/><text fill="#000000" font-family="sans-serif" font-size="14" lengthAdjust="spacing" textLength="69.8496" x="101.3652" y="70.5352">ingest-srv</text></g><g class="participant participant-tail" data-participant="Ingest"><rect fill="#E2E2F0" height="30.4883" rx="2.5" ry="2.5" style="stroke:#181818;stroke-width:0.5;" width="83.8496" x="94.3652" y="1235.9336"/><text fill="#000000" font-family="sans-serif" font-size="14" lengthAdjust="spacing" textLength="69.8496" x="101.3652" y="1256.4688">ingest-srv</text></g><g class="participant participant-head" data-participant="Stream"><path d="M274.6372,55 L431.8696,55 C436.8696,55 436.8696,68.2441 436.8696,68.2441 C436.8696,68.2441 436.8696,81.4883 431.8696,81.4883 L274.6372,81.4883 C269.6372,81.4883 269.6372,68.2441 269.6372,68.2441 C269.6372,68.2441 269.6372,55 274.6372,55" fill="#E2E2F0" style="stroke:#181818;stroke-width:0.5;"/><path d="M431.8696,55 C426.8696,55 426.8696,68.2441 426.8696,68.2441 C426.8696,81.4883 431.8696,81.4883 431.8696,81.4883" fill="none" style="stroke:#181818;stroke-width:0.5;"/><text fill="#000000" font-family="sans-serif" font-size="14" lengthAdjust="spacing" textLength="147.2324" x="274.6372" y="73.5352">Redpanda / Kafka API</text></g><g class="participant participant-tail" data-participant="Stream"><path d="M274.6372,1235.9336 L431.8696,1235.9336 C436.8696,1235.9336 436.8696,1249.1777 436.8696,1249.1777 C436.8696,1249.1777 436.8696,1262.4219 431.8696,1262.4219 L274.6372,1262.4219 C269.6372,1262.4219 269.6372,1249.1777 269.6372,1249.1777 C269.6372,1249.1777 269.6372,1235.9336 274.6372,1235.9336" fill="#E2E2F0" style="stroke:#181818;stroke-width:0.5;"/><path d="M431.8696,1235.9336 C426.8696,1235.9336 426.8696,1249.1777 426.8696,1249.1777 C426.8696,1262.4219 431.8696,1262.4219 431.8696,1262.4219" fill="none" style="stroke:#181818;stroke-width:0.5;"/><text fill="#000000" font-family="sans-serif" font-size="14" lengthAdjust="spacing" textLength="147.2324" x="274.6372" y="1254.4688">Redpanda / Kafka API</text></g><g class="participant participant-head" data-participant="Analysis"><rect fill="#E2E2F0" height="30.4883" rx="2.5" ry="2.5" style="stroke:#181818;stroke-width:0.5;" width="96.0449" x="617.0474" y="50"/><text fill="#000000" font-family="sans-serif" font-size="14" lengthAdjust="spacing" textLength="82.0449" x="624.0474" y="70.5352">analysis-srv</text></g><g class="participant participant-tail" data-participant="Analysis"><rect fill="#E2E2F0" height="30.4883" rx="2.5" ry="2.5" style="stroke:#181818;stroke-width:0.5;" width="96.0449" x="617.0474" y="1235.9336"/><text fill="#000000" font-family="sans-serif" font-size="14" lengthAdjust="spacing" textLength="82.0449" x="624.0474" y="1256.4688">analysis-srv</text></g><g class="participant participant-head" data-participant="AnalysisPG"><text fill="#000000" font-family="sans-serif" font-size="14" lengthAdjust="spacing" textLength="76.8496" x="989.2554" y="78.5352">PostgreSQL</text><path d="M1012.6802,29 C1012.6802,19 1030.6802,19 1030.6802,19 C1030.6802,19 1048.6802,19 1048.6802,29 L1048.6802,55 C1048.6802,65 1030.6802,65 1030.6802,65 C1030.6802,65 1012.6802,65 1012.6802,55 L1012.6802,29" fill="#E2E2F0" style="stroke:#181818;stroke-width:0.5;"/><path d="M1012.6802,29 C1012.6802,39 1030.6802,39 1030.6802,39 C1030.6802,39 1048.6802,39 1048.6802,29" fill="none" style="stroke:#181818;stroke-width:0.5;"/></g><g class="participant participant-tail" data-participant="AnalysisPG"><text fill="#000000" font-family="sans-serif" font-size="14" lengthAdjust="spacing" textLength="76.8496" x="989.2554" y="1249.4688">PostgreSQL</text><path d="M1012.6802,1262.4219 C1012.6802,1252.4219 1030.6802,1252.4219 1030.6802,1252.4219 C1030.6802,1252.4219 1048.6802,1252.4219 1048.6802,1262.4219 L1048.6802,1288.4219 C1048.6802,1298.4219 1030.6802,1298.4219 1030.6802,1298.4219 C1030.6802,1298.4219 1012.6802,1298.4219 1012.6802,1288.4219 L1012.6802,1262.4219" fill="#E2E2F0" style="stroke:#181818;stroke-width:0.5;"/><path d="M1012.6802,1262.4219 C1012.6802,1272.4219 1030.6802,1272.4219 1030.6802,1272.4219 C1030.6802,1272.4219 1048.6802,1272.4219 1048.6802,1262.4219" fill="none" style="stroke:#181818;stroke-width:0.5;"/></g><g class="participant participant-head" data-participant="Knowledge"><rect fill="#E2E2F0" height="30.4883" rx="2.5" ry="2.5" style="stroke:#181818;stroke-width:0.5;" width="115.6572" x="1100.105" y="50"/><text fill="#000000" font-family="sans-serif" font-size="14" lengthAdjust="spacing" textLength="101.6572" x="1107.105" y="70.5352">knowledge-srv</text></g><g class="participant participant-tail" data-participant="Knowledge"><rect fill="#E2E2F0" height="30.4883" rx="2.5" ry="2.5" style="stroke:#181818;stroke-width:0.5;" width="115.6572" x="1100.105" y="1235.9336"/><text fill="#000000" font-family="sans-serif" font-size="14" lengthAdjust="spacing" textLength="101.6572" x="1107.105" y="1256.4688">knowledge-srv</text></g><g class="participant participant-head" data-participant="Qdrant"><text fill="#000000" font-family="sans-serif" font-size="14" lengthAdjust="spacing" textLength="47.0723" x="1332.7456" y="78.5352">Qdrant</text><path d="M1341.2817,29 C1341.2817,19 1359.2817,19 1359.2817,19 C1359.2817,19 1377.2817,19 1377.2817,29 L1377.2817,55 C1377.2817,65 1359.2817,65 1359.2817,65 C1359.2817,65 1341.2817,65 1341.2817,55 L1341.2817,29" fill="#E2E2F0" style="stroke:#181818;stroke-width:0.5;"/><path d="M1341.2817,29 C1341.2817,39 1359.2817,39 1359.2817,39 C1359.2817,39 1377.2817,39 1377.2817,29" fill="none" style="stroke:#181818;stroke-width:0.5;"/></g><g class="participant participant-tail" data-participant="Qdrant"><text fill="#000000" font-family="sans-serif" font-size="14" lengthAdjust="spacing" textLength="47.0723" x="1332.7456" y="1249.4688">Qdrant</text><path d="M1341.2817,1262.4219 C1341.2817,1252.4219 1359.2817,1252.4219 1359.2817,1252.4219 C1359.2817,1252.4219 1377.2817,1252.4219 1377.2817,1262.4219 L1377.2817,1288.4219 C1377.2817,1298.4219 1359.2817,1298.4219 1359.2817,1298.4219 C1359.2817,1298.4219 1341.2817,1298.4219 1341.2817,1288.4219 L1341.2817,1262.4219" fill="#E2E2F0" style="stroke:#181818;stroke-width:0.5;"/><path d="M1341.2817,1262.4219 C1341.2817,1272.4219 1359.2817,1272.4219 1359.2817,1272.4219 C1359.2817,1272.4219 1377.2817,1272.4219 1377.2817,1262.4219" fill="none" style="stroke:#181818;stroke-width:0.5;"/></g><g class="participant participant-head" data-participant="Bridge"><rect fill="#E2E2F0" height="30.4883" rx="2.5" ry="2.5" style="stroke:#181818;stroke-width:0.5;" width="167.8086" x="1413.8179" y="50"/><text fill="#000000" font-family="sans-serif" font-size="14" lengthAdjust="spacing" textLength="153.8086" x="1420.8179" y="70.5352">notification-srv bridge</text></g><g class="participant participant-tail" data-participant="Bridge"><rect fill="#E2E2F0" height="30.4883" rx="2.5" ry="2.5" style="stroke:#181818;stroke-width:0.5;" width="167.8086" x="1413.8179" y="1235.9336"/><text fill="#000000" font-family="sans-serif" font-size="14" lengthAdjust="spacing" textLength="153.8086" x="1420.8179" y="1256.4688">notification-srv bridge</text></g><g class="participant participant-head" data-participant="RedisSub"><rect fill="#E2E2F0" height="30.4883" rx="2.5" ry="2.5" style="stroke:#181818;stroke-width:0.5;" width="236.0176" x="1627.6265" y="50"/><text fill="#000000" font-family="sans-serif" font-size="14" lengthAdjust="spacing" textLength="222.0176" x="1634.6265" y="70.5352">notification-srv Redis subscriber</text></g><g class="participant participant-tail" data-participant="RedisSub"><rect fill="#E2E2F0" height="30.4883" rx="2.5" ry="2.5" style="stroke:#181818;stroke-width:0.5;" width="236.0176" x="1627.6265" y="1235.9336"/><text fill="#000000" font-family="sans-serif" font-size="14" lengthAdjust="spacing" textLength="222.0176" x="1634.6265" y="1256.4688">notification-srv Redis subscriber</text></g><g class="participant participant-head" data-participant="WebSocket"><rect fill="#E2E2F0" height="30.4883" rx="2.5" ry="2.5" style="stroke:#181818;stroke-width:0.5;" width="196.998" x="1909.644" y="50"/><text fill="#000000" font-family="sans-serif" font-size="14" lengthAdjust="spacing" textLength="182.998" x="1916.644" y="70.5352">notification-srv WebSocket</text></g><g class="participant participant-tail" data-participant="WebSocket"><rect fill="#E2E2F0" height="30.4883" rx="2.5" ry="2.5" style="stroke:#181818;stroke-width:0.5;" width="196.998" x="1909.644" y="1235.9336"/><text fill="#000000" font-family="sans-serif" font-size="14" lengthAdjust="spacing" textLength="182.998" x="1916.644" y="1256.4688">notification-srv WebSocket</text></g><g class="participant participant-head" data-participant="Redis"><text fill="#000000" font-family="sans-serif" font-size="14" lengthAdjust="spacing" textLength="36.6475" x="2207.1274" y="78.5352">Redis</text><path d="M2210.4512,29 C2210.4512,19 2228.4512,19 2228.4512,19 C2228.4512,19 2246.4512,19 2246.4512,29 L2246.4512,55 C2246.4512,65 2228.4512,65 2228.4512,65 C2228.4512,65 2210.4512,65 2210.4512,55 L2210.4512,29" fill="#E2E2F0" style="stroke:#181818;stroke-width:0.5;"/><path d="M2210.4512,29 C2210.4512,39 2228.4512,39 2228.4512,39 C2228.4512,39 2246.4512,39 2246.4512,29" fill="none" style="stroke:#181818;stroke-width:0.5;"/></g><g class="participant participant-tail" data-participant="Redis"><text fill="#000000" font-family="sans-serif" font-size="14" lengthAdjust="spacing" textLength="36.6475" x="2207.1274" y="1249.4688">Redis</text><path d="M2210.4512,1262.4219 C2210.4512,1252.4219 2228.4512,1252.4219 2228.4512,1252.4219 C2228.4512,1252.4219 2246.4512,1252.4219 2246.4512,1262.4219 L2246.4512,1288.4219 C2246.4512,1298.4219 2228.4512,1298.4219 2228.4512,1298.4219 C2228.4512,1298.4219 2210.4512,1298.4219 2210.4512,1288.4219 L2210.4512,1262.4219" fill="#E2E2F0" style="stroke:#181818;stroke-width:0.5;"/><path d="M2210.4512,1262.4219 C2210.4512,1272.4219 2228.4512,1272.4219 2228.4512,1272.4219 C2228.4512,1272.4219 2246.4512,1272.4219 2246.4512,1262.4219" fill="none" style="stroke:#181818;stroke-width:0.5;"/></g><g class="message" data-participant-1="User" data-participant-2="WebSocket"><polygon fill="#181818" points="1996.1431,108.7988,2006.1431,112.7988,1996.1431,116.7988,2000.1431,112.7988" style="stroke:#181818;stroke-width:1;"/><line style="stroke:#181818;stroke-width:1;" x1="48.1826" x2="2002.1431" y1="112.7988" y2="112.7988"/><text fill="#000000" font-family="sans-serif" font-size="13" font-weight="bold" lengthAdjust="spacing" textLength="8.5757" x="55.1826" y="108.0566">1</text><text fill="#000000" font-family="sans-serif" font-size="13" lengthAdjust="spacing" textLength="116.1494" x="67.7583" y="108.0566">GET /ws?token=...</text></g><g class="message" data-participant-1="WebSocket" data-participant-2="WebSocket"><line style="stroke:#181818;stroke-width:1;" x1="2008.1431" x2="2050.1431" y1="142.1094" y2="142.1094"/><line style="stroke:#181818;stroke-width:1;" x1="2050.1431" x2="2050.1431" y1="142.1094" y2="155.1094"/><line style="stroke:#181818;stroke-width:1;" x1="2009.1431" x2="2050.1431" y1="155.1094" y2="155.1094"/><polygon fill="#181818" points="2019.1431,151.1094,2009.1431,155.1094,2019.1431,159.1094,2015.1431,155.1094" style="stroke:#181818;stroke-width:1;"/><text fill="#000000" font-family="sans-serif" font-size="13" font-weight="bold" lengthAdjust="spacing" textLength="8.5757" x="2015.1431" y="137.3672">2</text><text fill="#000000" font-family="sans-serif" font-size="13" lengthAdjust="spacing" textLength="169.2158" x="2027.7188" y="137.3672">Register connection in hub</text></g><g class="message" data-participant-1="RedisSub" data-participant-2="Redis"><polygon fill="#181818" points="2216.4512,180.4199,2226.4512,184.4199,2216.4512,188.4199,2220.4512,184.4199" style="stroke:#181818;stroke-width:1;"/><line style="stroke:#181818;stroke-width:1;" x1="1745.6353" x2="2222.4512" y1="184.4199" y2="184.4199"/><text fill="#000000" font-family="sans-serif" font-size="13" font-weight="bold" lengthAdjust="spacing" textLength="8.5757" x="1752.6353" y="179.6777">3</text><text fill="#000000" font-family="sans-serif" font-size="13" lengthAdjust="spacing" textLength="446.2402" x="1765.2109" y="179.6777">PSubscribe(project:*:user:*, campaign:*:user:*, alert:*:user:*, system:*)</text></g><g class="message" data-participant-1="Ingest" data-participant-2="Stream"><polygon fill="#181818" points="341.2534,225.041,351.2534,229.041,341.2534,233.041,345.2534,229.041" style="stroke:#181818;stroke-width:1;"/><line style="stroke:#181818;stroke-width:1;" x1="136.29" x2="347.2534" y1="229.041" y2="229.041"/><text fill="#000000" font-family="sans-serif" font-size="13" font-weight="bold" lengthAdjust="spacing" textLength="8.5757" x="143.29" y="216.6436">4</text><text fill="#000000" font-family="sans-serif" font-size="13" lengthAdjust="spacing" textLength="134.8242" x="155.8657" y="208.9883">Publish UAP record(s)</text><text fill="#000000" font-family="sans-serif" font-size="13" lengthAdjust="spacing" textLength="180.3877" x="155.8657" y="224.2988">topic=smap.collector.output</text></g><g class="message" data-participant-1="Stream" data-participant-2="Analysis"><polygon fill="#181818" points="653.0698,254.3516,663.0698,258.3516,653.0698,262.3516,657.0698,258.3516" style="stroke:#181818;stroke-width:1;"/><line style="stroke:#181818;stroke-width:1;stroke-dasharray:2,2;" x1="353.2534" x2="659.0698" y1="258.3516" y2="258.3516"/><text fill="#000000" font-family="sans-serif" font-size="13" font-weight="bold" lengthAdjust="spacing" textLength="8.5757" x="360.2534" y="253.6094">5</text><text fill="#000000" font-family="sans-serif" font-size="13" lengthAdjust="spacing" textLength="275.2407" x="372.8291" y="253.6094">Consume batch from smap.collector.output</text></g><g class="message" data-participant-1="Analysis" data-participant-2="Analysis"><line style="stroke:#181818;stroke-width:1;" x1="665.0698" x2="707.0698" y1="302.9727" y2="302.9727"/><line style="stroke:#181818;stroke-width:1;" x1="707.0698" x2="707.0698" y1="302.9727" y2="315.9727"/><line style="stroke:#181818;stroke-width:1;" x1="666.0698" x2="707.0698" y1="315.9727" y2="315.9727"/><polygon fill="#181818" points="676.0698,311.9727,666.0698,315.9727,676.0698,319.9727,672.0698,315.9727" style="stroke:#181818;stroke-width:1;"/><text fill="#000000" font-family="sans-serif" font-size="13" font-weight="bold" lengthAdjust="spacing" textLength="8.5757" x="672.0698" y="290.5752">6</text><text fill="#000000" font-family="sans-serif" font-size="13" lengthAdjust="spacing" textLength="339.0347" x="684.6455" y="282.9199">Parse UAP + group by (project_id, domain_type_code)</text><text fill="#000000" font-family="sans-serif" font-size="13" lengthAdjust="spacing" textLength="103.5938" x="684.6455" y="298.2305">run NLP pipeline</text></g><path d="M589.0474,330.9727 L663.4941,330.9727 L663.4941,338.2832 L653.4941,348.2832 L589.0474,348.2832 L589.0474,330.9727" fill="#EEEEEE" style="stroke:#000000;stroke-width:1.5;"/><rect fill="none" height="46.6211" style="stroke:#000000;stroke-width:1.5;" width="493.0576" x="589.0474" y="330.9727"/><text fill="#000000" font-family="sans-serif" font-size="13" font-weight="bold" lengthAdjust="spacing" textLength="29.4468" x="604.0474" y="344.541">loop</text><text fill="#000000" font-family="sans-serif" font-size="11" font-weight="bold" lengthAdjust="spacing" textLength="119.292" x="678.4941" y="343.6074">[m&#7895;i NLP fact h&#7907;p l&#7879;]</text><g class="message" data-participant-1="Analysis" data-participant-2="AnalysisPG"><polygon fill="#181818" points="1018.6802,365.5938,1028.6802,369.5938,1018.6802,373.5938,1022.6802,369.5938" style="stroke:#181818;stroke-width:1;"/><line style="stroke:#181818;stroke-width:1;" x1="665.0698" x2="1024.6802" y1="369.5938" y2="369.5938"/><text fill="#000000" font-family="sans-serif" font-size="13" font-weight="bold" lengthAdjust="spacing" textLength="8.5757" x="672.0698" y="364.8516">7</text><text fill="#000000" font-family="sans-serif" font-size="13" lengthAdjust="spacing" textLength="171.4819" x="684.6455" y="364.8516">Insert analysis.post_insight</text></g><g class="message" data-participant-1="Analysis" data-participant-2="Stream"><polygon fill="#181818" points="364.2534,401.9043,354.2534,405.9043,364.2534,409.9043,360.2534,405.9043" style="stroke:#181818;stroke-width:1;"/><line style="stroke:#181818;stroke-width:1;" x1="358.2534" x2="664.0698" y1="405.9043" y2="405.9043"/><text fill="#000000" font-family="sans-serif" font-size="13" font-weight="bold" lengthAdjust="spacing" textLength="8.5757" x="370.2534" y="401.1621">8</text><text fill="#000000" font-family="sans-serif" font-size="13" lengthAdjust="spacing" textLength="214.0684" x="382.8291" y="401.1621">Publish analytics.batch.completed</text></g><path d="M259.6372,420.9043 L334.084,420.9043 L334.084,428.2148 L324.084,438.2148 L259.6372,438.2148 L259.6372,420.9043" fill="#EEEEEE" style="stroke:#000000;stroke-width:1.5;"/><rect fill="none" height="46.6211" style="stroke:#000000;stroke-width:1.5;" width="481.4551" x="259.6372" y="420.9043"/><text fill="#000000" font-family="sans-serif" font-size="13" font-weight="bold" lengthAdjust="spacing" textLength="29.4468" x="274.6372" y="434.4727">loop</text><text fill="#000000" font-family="sans-serif" font-size="11" font-weight="bold" lengthAdjust="spacing" textLength="100.8208" x="349.084" y="433.5391">[m&#7895;i insight card]</text><g class="message" data-participant-1="Analysis" data-participant-2="Stream"><polygon fill="#181818" points="364.2534,455.5254,354.2534,459.5254,364.2534,463.5254,360.2534,459.5254" style="stroke:#181818;stroke-width:1;"/><line style="stroke:#181818;stroke-width:1;" x1="358.2534" x2="664.0698" y1="459.5254" y2="459.5254"/><text fill="#000000" font-family="sans-serif" font-size="13" font-weight="bold" lengthAdjust="spacing" textLength="8.5757" x="370.2534" y="454.7832">9</text><text fill="#000000" font-family="sans-serif" font-size="13" lengthAdjust="spacing" textLength="224.8086" x="382.8291" y="454.7832">Publish analytics.insights.published</text></g><g class="message" data-participant-1="Analysis" data-participant-2="Stream"><polygon fill="#181818" points="364.2534,491.8359,354.2534,495.8359,364.2534,499.8359,360.2534,495.8359" style="stroke:#181818;stroke-width:1;"/><line style="stroke:#181818;stroke-width:1;" x1="358.2534" x2="664.0698" y1="495.8359" y2="495.8359"/><text fill="#000000" font-family="sans-serif" font-size="13" font-weight="bold" lengthAdjust="spacing" textLength="17.1514" x="370.2534" y="491.0938">10</text><text fill="#000000" font-family="sans-serif" font-size="13" lengthAdjust="spacing" textLength="190.5566" x="391.4048" y="491.0938">Publish analytics.report.digest</text></g><path d="M259.6372,510.8359 L326.8223,510.8359 L326.8223,518.1465 L316.8223,528.1465 L259.6372,528.1465 L259.6372,510.8359" fill="#EEEEEE" style="stroke:#000000;stroke-width:1.5;"/><rect fill="none" height="46.6211" style="stroke:#000000;stroke-width:1.5;" width="481.4551" x="259.6372" y="510.8359"/><text fill="#000000" font-family="sans-serif" font-size="13" font-weight="bold" lengthAdjust="spacing" textLength="22.1851" x="274.6372" y="524.4043">opt</text><text fill="#000000" font-family="sans-serif" font-size="11" font-weight="bold" lengthAdjust="spacing" textLength="190.6309" x="341.8223" y="523.4707">[crisis level &gt;= trigger threshold]</text><g class="message" data-participant-1="Analysis" data-participant-2="Stream"><polygon fill="#181818" points="364.2534,545.457,354.2534,549.457,364.2534,553.457,360.2534,549.457" style="stroke:#181818;stroke-width:1;"/><line style="stroke:#181818;stroke-width:1;" x1="358.2534" x2="664.0698" y1="549.457" y2="549.457"/><text fill="#000000" font-family="sans-serif" font-size="13" font-weight="bold" lengthAdjust="spacing" textLength="17.1514" x="370.2534" y="544.7148">11</text><text fill="#000000" font-family="sans-serif" font-size="13" lengthAdjust="spacing" textLength="173.9766" x="391.4048" y="544.7148">Publish analytics.crisis.alert</text></g><path d="M10,571.457 L77.166,571.457 L77.166,578.7676 L67.166,588.7676 L10,588.7676 L10,571.457" fill="#EEEEEE" style="stroke:#000000;stroke-width:1.5;"/><rect fill="none" height="648.4766" style="stroke:#000000;stroke-width:1.5;" width="2259.7749" x="10" y="571.457"/><text fill="#000000" font-family="sans-serif" font-size="13" font-weight="bold" lengthAdjust="spacing" textLength="22.166" x="25" y="585.0254">par</text><text fill="#000000" font-family="sans-serif" font-size="11" font-weight="bold" lengthAdjust="spacing" textLength="123.4331" x="92.166" y="584.0918">[Knowledge indexing]</text><g class="message" data-participant-1="Stream" data-participant-2="Knowledge"><polygon fill="#181818" points="1145.9336,606.0781,1155.9336,610.0781,1145.9336,614.0781,1149.9336,610.0781" style="stroke:#181818;stroke-width:1;"/><line style="stroke:#181818;stroke-width:1;stroke-dasharray:2,2;" x1="353.2534" x2="1151.9336" y1="610.0781" y2="610.0781"/><text fill="#000000" font-family="sans-serif" font-size="13" font-weight="bold" lengthAdjust="spacing" textLength="17.1514" x="360.2534" y="605.3359">12</text><text fill="#000000" font-family="sans-serif" font-size="13" lengthAdjust="spacing" textLength="227.5444" x="381.4048" y="605.3359">Consume analytics.batch.completed</text></g><g class="message" data-participant-1="Knowledge" data-participant-2="Qdrant"><polygon fill="#181818" points="1347.2817,635.3887,1357.2817,639.3887,1347.2817,643.3887,1351.2817,639.3887" style="stroke:#181818;stroke-width:1;"/><line style="stroke:#181818;stroke-width:1;" x1="1157.9336" x2="1353.2817" y1="639.3887" y2="639.3887"/><text fill="#000000" font-family="sans-serif" font-size="13" font-weight="bold" lengthAdjust="spacing" textLength="17.1514" x="1164.9336" y="634.6465">13</text><text fill="#000000" font-family="sans-serif" font-size="13" lengthAdjust="spacing" textLength="156.1968" x="1186.085" y="634.6465">IndexBatch(documents[])</text></g><g class="message" data-participant-1="Stream" data-participant-2="Knowledge"><polygon fill="#181818" points="1145.9336,664.6992,1155.9336,668.6992,1145.9336,672.6992,1149.9336,668.6992" style="stroke:#181818;stroke-width:1;"/><line style="stroke:#181818;stroke-width:1;stroke-dasharray:2,2;" x1="353.2534" x2="1151.9336" y1="668.6992" y2="668.6992"/><text fill="#000000" font-family="sans-serif" font-size="13" font-weight="bold" lengthAdjust="spacing" textLength="17.1514" x="360.2534" y="663.957">14</text><text fill="#000000" font-family="sans-serif" font-size="13" lengthAdjust="spacing" textLength="238.2847" x="381.4048" y="663.957">Consume analytics.insights.published</text></g><g class="message" data-participant-1="Knowledge" data-participant-2="Qdrant"><polygon fill="#181818" points="1347.2817,694.0098,1357.2817,698.0098,1347.2817,702.0098,1351.2817,698.0098" style="stroke:#181818;stroke-width:1;"/><line style="stroke:#181818;stroke-width:1;" x1="1157.9336" x2="1353.2817" y1="698.0098" y2="698.0098"/><text fill="#000000" font-family="sans-serif" font-size="13" font-weight="bold" lengthAdjust="spacing" textLength="17.1514" x="1164.9336" y="693.2676">15</text><text fill="#000000" font-family="sans-serif" font-size="13" lengthAdjust="spacing" textLength="99.2393" x="1186.085" y="693.2676">IndexInsight(...)</text></g><g class="message" data-participant-1="Stream" data-participant-2="Knowledge"><polygon fill="#181818" points="1145.9336,723.3203,1155.9336,727.3203,1145.9336,731.3203,1149.9336,727.3203" style="stroke:#181818;stroke-width:1;"/><line style="stroke:#181818;stroke-width:1;stroke-dasharray:2,2;" x1="353.2534" x2="1151.9336" y1="727.3203" y2="727.3203"/><text fill="#000000" font-family="sans-serif" font-size="13" font-weight="bold" lengthAdjust="spacing" textLength="17.1514" x="360.2534" y="722.5781">16</text><text fill="#000000" font-family="sans-serif" font-size="13" lengthAdjust="spacing" textLength="204.0327" x="381.4048" y="722.5781">Consume analytics.report.digest</text></g><g class="message" data-participant-1="Knowledge" data-participant-2="Qdrant"><polygon fill="#181818" points="1347.2817,752.6309,1357.2817,756.6309,1347.2817,760.6309,1351.2817,756.6309" style="stroke:#181818;stroke-width:1;"/><line style="stroke:#181818;stroke-width:1;" x1="1157.9336" x2="1353.2817" y1="756.6309" y2="756.6309"/><text fill="#000000" font-family="sans-serif" font-size="13" font-weight="bold" lengthAdjust="spacing" textLength="17.1514" x="1164.9336" y="751.8887">17</text><text fill="#000000" font-family="sans-serif" font-size="13" lengthAdjust="spacing" textLength="96.3384" x="1186.085" y="751.8887">IndexDigest(...)</text></g><line style="stroke:#000000;stroke-width:1;stroke-dasharray:2,2;" x1="10" x2="2269.7749" y1="765.6309" y2="765.6309"/><text fill="#000000" font-family="sans-serif" font-size="11" font-weight="bold" lengthAdjust="spacing" textLength="123.3096" x="15" y="776.2656">[Notification delivery]</text><g class="message" data-participant-1="Stream" data-participant-2="Bridge"><polygon fill="#181818" points="1485.7222,796.8965,1495.7222,800.8965,1485.7222,804.8965,1489.7222,800.8965" style="stroke:#181818;stroke-width:1;"/><line style="stroke:#181818;stroke-width:1;stroke-dasharray:2,2;" x1="353.2534" x2="1491.7222" y1="800.8965" y2="800.8965"/><text fill="#000000" font-family="sans-serif" font-size="13" font-weight="bold" lengthAdjust="spacing" textLength="17.1514" x="360.2534" y="796.1543">18</text><text fill="#000000" font-family="sans-serif" font-size="13" lengthAdjust="spacing" textLength="204.0327" x="381.4048" y="796.1543">Consume analytics.report.digest</text></g><g class="message" data-participant-1="Bridge" data-participant-2="Redis"><polygon fill="#181818" points="2216.4512,826.207,2226.4512,830.207,2216.4512,834.207,2220.4512,830.207" style="stroke:#181818;stroke-width:1;"/><line style="stroke:#181818;stroke-width:1;" x1="1497.7222" x2="2222.4512" y1="830.207" y2="830.207"/><text fill="#000000" font-family="sans-serif" font-size="13" font-weight="bold" lengthAdjust="spacing" textLength="17.1514" x="1504.7222" y="825.4648">19</text><text fill="#000000" font-family="sans-serif" font-size="13" lengthAdjust="spacing" textLength="158.2979" x="1525.8735" y="825.4648">PUBLISH system:analytics</text></g><g class="message" data-participant-1="Redis" data-participant-2="RedisSub"><polygon fill="#181818" points="1756.6353,855.5176,1746.6353,859.5176,1756.6353,863.5176,1752.6353,859.5176" style="stroke:#181818;stroke-width:1;"/><line style="stroke:#181818;stroke-width:1;stroke-dasharray:2,2;" x1="1750.6353" x2="2227.4512" y1="859.5176" y2="859.5176"/><text fill="#000000" font-family="sans-serif" font-size="13" font-weight="bold" lengthAdjust="spacing" textLength="17.1514" x="1762.6353" y="854.7754">20</text><text fill="#000000" font-family="sans-serif" font-size="13" lengthAdjust="spacing" textLength="161.8398" x="1783.7866" y="854.7754">Deliver system:* message</text></g><g class="message" data-participant-1="RedisSub" data-participant-2="WebSocket"><polygon fill="#181818" points="1996.1431,884.8281,2006.1431,888.8281,1996.1431,892.8281,2000.1431,888.8281" style="stroke:#181818;stroke-width:1;"/><line style="stroke:#181818;stroke-width:1;" x1="1745.6353" x2="2002.1431" y1="888.8281" y2="888.8281"/><text fill="#000000" font-family="sans-serif" font-size="13" font-weight="bold" lengthAdjust="spacing" textLength="17.1514" x="1752.6353" y="884.0859">21</text><text fill="#000000" font-family="sans-serif" font-size="13" lengthAdjust="spacing" textLength="216.8486" x="1773.7866" y="884.0859">ProcessMessage(channel, payload)</text></g><g class="message" data-participant-1="WebSocket" data-participant-2="WebSocket"><line style="stroke:#181818;stroke-width:1;" x1="2008.1431" x2="2050.1431" y1="918.1387" y2="918.1387"/><line style="stroke:#181818;stroke-width:1;" x1="2050.1431" x2="2050.1431" y1="918.1387" y2="931.1387"/><line style="stroke:#181818;stroke-width:1;" x1="2009.1431" x2="2050.1431" y1="931.1387" y2="931.1387"/><polygon fill="#181818" points="2019.1431,927.1387,2009.1431,931.1387,2019.1431,935.1387,2015.1431,931.1387" style="stroke:#181818;stroke-width:1;"/><text fill="#000000" font-family="sans-serif" font-size="13" font-weight="bold" lengthAdjust="spacing" textLength="17.1514" x="2015.1431" y="913.3965">22</text><text fill="#000000" font-family="sans-serif" font-size="13" lengthAdjust="spacing" textLength="108.4941" x="2036.2944" y="913.3965">routeMessage(...)</text></g><g class="message" data-participant-1="WebSocket" data-participant-2="User"><polygon fill="#181818" points="59.1826,956.4492,49.1826,960.4492,59.1826,964.4492,55.1826,960.4492" style="stroke:#181818;stroke-width:1;"/><line style="stroke:#181818;stroke-width:1;stroke-dasharray:2,2;" x1="53.1826" x2="2007.1431" y1="960.4492" y2="960.4492"/><text fill="#000000" font-family="sans-serif" font-size="13" font-weight="bold" lengthAdjust="spacing" textLength="17.1514" x="65.1826" y="955.707">23</text><text fill="#000000" font-family="sans-serif" font-size="13" lengthAdjust="spacing" textLength="174.7192" x="86.334" y="955.707">WebSocket analytics update</text></g><path d="M20,975.4492 L87.1851,975.4492 L87.1851,982.7598 L77.1851,992.7598 L20,992.7598 L20,975.4492" fill="#EEEEEE" style="stroke:#000000;stroke-width:1.5;"/><rect fill="none" height="237.4844" style="stroke:#000000;stroke-width:1.5;" width="2239.7749" x="20" y="975.4492"/><text fill="#000000" font-family="sans-serif" font-size="13" font-weight="bold" lengthAdjust="spacing" textLength="22.1851" x="35" y="989.0176">opt</text><text fill="#000000" font-family="sans-serif" font-size="11" font-weight="bold" lengthAdjust="spacing" textLength="161.8149" x="102.1851" y="988.084">[crisis alert &#273;&#432;&#7907;c ph&#225;t h&#224;nh]</text><g class="message" data-participant-1="Stream" data-participant-2="Bridge"><polygon fill="#181818" points="1485.7222,1010.0703,1495.7222,1014.0703,1485.7222,1018.0703,1489.7222,1014.0703" style="stroke:#181818;stroke-width:1;"/><line style="stroke:#181818;stroke-width:1;stroke-dasharray:2,2;" x1="353.2534" x2="1491.7222" y1="1014.0703" y2="1014.0703"/><text fill="#000000" font-family="sans-serif" font-size="13" font-weight="bold" lengthAdjust="spacing" textLength="17.1514" x="360.2534" y="1009.3281">24</text><text fill="#000000" font-family="sans-serif" font-size="13" lengthAdjust="spacing" textLength="187.4526" x="381.4048" y="1009.3281">Consume analytics.crisis.alert</text></g><g class="message" data-participant-1="Bridge" data-participant-2="Redis"><polygon fill="#181818" points="2216.4512,1039.3809,2226.4512,1043.3809,2216.4512,1047.3809,2220.4512,1043.3809" style="stroke:#181818;stroke-width:1;"/><line style="stroke:#181818;stroke-width:1;" x1="1497.7222" x2="2222.4512" y1="1043.3809" y2="1043.3809"/><text fill="#000000" font-family="sans-serif" font-size="13" font-weight="bold" lengthAdjust="spacing" textLength="17.1514" x="1504.7222" y="1038.6387">25</text><text fill="#000000" font-family="sans-serif" font-size="13" lengthAdjust="spacing" textLength="209.8726" x="1525.8735" y="1038.6387">PUBLISH alert:crisis:user:{user_id}</text></g><g class="message" data-participant-1="Redis" data-participant-2="RedisSub"><polygon fill="#181818" points="1756.6353,1068.6914,1746.6353,1072.6914,1756.6353,1076.6914,1752.6353,1072.6914" style="stroke:#181818;stroke-width:1;"/><line style="stroke:#181818;stroke-width:1;stroke-dasharray:2,2;" x1="1750.6353" x2="2227.4512" y1="1072.6914" y2="1072.6914"/><text fill="#000000" font-family="sans-serif" font-size="13" font-weight="bold" lengthAdjust="spacing" textLength="17.1514" x="1762.6353" y="1067.9492">26</text><text fill="#000000" font-family="sans-serif" font-size="13" lengthAdjust="spacing" textLength="187.6621" x="1783.7866" y="1067.9492">Deliver alert:*:user:* message</text></g><g class="message" data-participant-1="RedisSub" data-participant-2="WebSocket"><polygon fill="#181818" points="1996.1431,1098.002,2006.1431,1102.002,1996.1431,1106.002,2000.1431,1102.002" style="stroke:#181818;stroke-width:1;"/><line style="stroke:#181818;stroke-width:1;" x1="1745.6353" x2="2002.1431" y1="1102.002" y2="1102.002"/><text fill="#000000" font-family="sans-serif" font-size="13" font-weight="bold" lengthAdjust="spacing" textLength="17.1514" x="1752.6353" y="1097.2598">27</text><text fill="#000000" font-family="sans-serif" font-size="13" lengthAdjust="spacing" textLength="216.8486" x="1773.7866" y="1097.2598">ProcessMessage(channel, payload)</text></g><path d="M1881.644,1117.002 L1948.8291,1117.002 L1948.8291,1124.3125 L1938.8291,1134.3125 L1881.644,1134.3125 L1881.644,1117.002" fill="#EEEEEE" style="stroke:#000000;stroke-width:1.5;"/><rect fill="none" height="59.6211" style="stroke:#000000;stroke-width:1.5;" width="307.7524" x="1881.644" y="1117.002"/><text fill="#000000" font-family="sans-serif" font-size="13" font-weight="bold" lengthAdjust="spacing" textLength="22.1851" x="1896.644" y="1130.5703">opt</text><text fill="#000000" font-family="sans-serif" font-size="11" font-weight="bold" lengthAdjust="spacing" textLength="204.4561" x="1963.8291" y="1129.6367">[severity=critical v&#224; ops_alert=true]</text><g class="message" data-participant-1="WebSocket" data-participant-2="WebSocket"><line style="stroke:#181818;stroke-width:1;" x1="2008.1431" x2="2050.1431" y1="1155.623" y2="1155.623"/><line style="stroke:#181818;stroke-width:1;" x1="2050.1431" x2="2050.1431" y1="1155.623" y2="1168.623"/><line style="stroke:#181818;stroke-width:1;" x1="2009.1431" x2="2050.1431" y1="1168.623" y2="1168.623"/><polygon fill="#181818" points="2019.1431,1164.623,2009.1431,1168.623,2019.1431,1172.623,2015.1431,1168.623" style="stroke:#181818;stroke-width:1;"/><text fill="#000000" font-family="sans-serif" font-size="13" font-weight="bold" lengthAdjust="spacing" textLength="17.1514" x="2015.1431" y="1150.8809">28</text><text fill="#000000" font-family="sans-serif" font-size="13" lengthAdjust="spacing" textLength="141.1021" x="2036.2944" y="1150.8809">DispatchCrisisAlert(...)</text></g><g class="message" data-participant-1="WebSocket" data-participant-2="User"><polygon fill="#181818" points="59.1826,1200.9336,49.1826,1204.9336,59.1826,1208.9336,55.1826,1204.9336" style="stroke:#181818;stroke-width:1;"/><line style="stroke:#181818;stroke-width:1;stroke-dasharray:2,2;" x1="53.1826" x2="2007.1431" y1="1204.9336" y2="1204.9336"/><text fill="#000000" font-family="sans-serif" font-size="13" font-weight="bold" lengthAdjust="spacing" textLength="17.1514" x="65.1826" y="1200.1914">29</text><text fill="#000000" font-family="sans-serif" font-size="13" lengthAdjust="spacing" textLength="137.23" x="86.334" y="1200.1914">WebSocket crisis alert</text></g><!--SRC=[fLPDR-Cs4BthLmnoSjB4szuA0Tx2tXHfiEb2ksxGGriOb3YHM5CaIrB96ekUU-wfrotw1thFCKN_H_v9XvJaI84TPD402MpnlJV3-NWAQxnMJPsZJTnQACCigy6YCrev_1QTOoKkKEgRkRNw1hnjS03CcFMY48Ofdp7EXIhXYoy7vmlzVllyyoHXXTSMBXq5CmzCE5SbEW_CmO687q-SlJv8VccmGLXwYwGK3jyX9pndy09UiwirWtbsVZ1IcYicDqwu26VTbrQDCyzovd2BoSuYAjFEbnQNRo_6Kg-Llf78IuoeTV_jaTXRRWay8Ywiw5bAUt4b2kQ5Le48UJmR1w9R2RTiyjsCU0gkoLrX1NLfpFqUywKkrkXtaxV7WuoZO9A49i39omT82cTVVmSlRjnNNgzHpQRJQV8WFqQ-mr8uJmA5LWgB40-4Wgh9a-rjY14_fv0j- -mdnkgV2PyUfGt5Ju-EeM2rOQ9KWqTCeXr2t8PYrUdHOP9qaqBQxLYGU9DBuIgud6SqjeMsVE8EVrHU6r7CNCtCjD1IOXYygMwyQNpIJTG9gVIpaC8hclUcHiYPBoguihg6tUpjY8tej0XKsv34Pr1QtHZ8Dz1VToNuCN1TCw5MVcDmLMYEbAHj5BovoC08Wr8eJAJM1khxspz4V7v5-mBL_UrV1kJzxMy9mAxWsLbA6qIreY7e7aqD3VLAA2VAoYUe-2ZhnwMBB1efDusNfolNHg97Fiod4wD-MVueaVrw7OdoQOz8yld9M3JQ-YaNeUM9DXJRYi2IU8qINix8Z4HPqXJwYWohqlBvYRLAqpXfCQMmLOEL5uhZU_8Y4XnCo_RyOLpsrmu6SiHjZI9qYfGN0JlXkY09vTqFFnr-Gg0THNqgrdaBdz0-VqgKSVMV2d0Q8Qq-Ijg2DmCR0awJVOrsCmxTUkHpudPkEd2JoyN5-VARtXMsJCAsNddIOybsKZXjuszD1EhsdTR3EwiQc5jcTK6OxjqtAIf67YUFmR2Dr8o78kxpHLfytxyq-u8Fi0GEjfiERRjF7nf35eq9CGQZ7WSK_ldztx_91GemrTsVv0Xt7rL5k6TMT3JhWRMtfAtnjlZMVJ-4lsHVlqRYK_KTc_QWol-dpcqj7Esx5NupeypeHap2zTr7Ed6h67GM_oU1-BElCQV2cR1ph-BTve7MzmSWxFyZyevE3JkIj2Jw_Gy0]--></g></svg>