<svg xmlns="http://www.w3.org/2000/svg" xmlns:xlink="http://www.w3.org/1999/xlink" contentStyleType="text/css" data-diagram-type="SEQUENCE" height="731px" preserveAspectRatio="none" style="width:1400px;height:731px;background:#FFFFFF;" version="1.1" viewBox="0 0 1400 731" width="1400px" zoomAndPan="magnify"><defs/><g><rect fill="none" height="107.2422" style="stroke:#000000;stroke-width:1.5;" width="533.8447" x="860.7114" y="245.041"/><rect fill="none" height="46.6211" style="stroke:#000000;stroke-width:1.5;" width="513.8447" x="870.7114" y="298.6621"/><rect fill="none" height="266.75" style="stroke:#000000;stroke-width:1.5;" width="1293.3545" x="91.2017" y="366.2832"/><g><title>User</title><rect fill="#000000" fill-opacity="0.00000" height="568.5449" width="8" x="19.1826" y="81.4883"/><line style="stroke:#181818;stroke-width:0.5;stroke-dasharray:5,5;" x1="23" x2="23" y1="81.4883" y2="650.0332"/></g><g><title>Giao di.n</title><rect fill="#000000" fill-opacity="0.00000" height="568.5449" width="8" x="154.3374" y="81.4883"/><line style="stroke:#181818;stroke-width:0.5;stroke-dasharray:5,5;" x1="158.2017" x2="158.2017" y1="81.4883" y2="650.0332"/></g><g><title>project-srv</title><rect fill="#000000" fill-opacity="0.00000" height="568.5449" width="8" x="418.3877" y="81.4883"/><line style="stroke:#181818;stroke-width:0.5;stroke-dasharray:5,5;" x1="421.479" x2="421.479" y1="81.4883" y2="650.0332"/></g><g><title>ingest-srv</title><rect fill="#000000" fill-opacity="0.00000" height="568.5449" width="8" x="936.6362" y="81.4883"/><line style="stroke:#181818;stroke-width:0.5;stroke-dasharray:5,5;" x1="939.7114" x2="939.7114" y1="81.4883" y2="650.0332"/></g><g><title>PostgreSQL</title><rect fill="#000000" fill-opacity="0.00000" height="568.5449" width="8" x="1329.1313" y="81.4883"/><line style="stroke:#181818;stroke-width:0.5;stroke-dasharray:5,5;" x1="1332.7065" x2="1332.7065" y1="81.4883" y2="650.0332"/></g><g class="participant participant-head" data-participant="User"><text fill="#000000" font-family="sans-serif" font-size="14" lengthAdjust="spacing" textLength="30.3652" x="5" y="78.5352">User</text><ellipse cx="23.1826" cy="13.5" fill="#E2E2F0" rx="8" ry="8" style="stroke:#181818;stroke-width:0.5;"/><path d="M23.1826,21.5 L23.1826,48.5 M10.1826,29.5 L36.1826,29.5 M23.1826,48.5 L10.1826,63.5 M23.1826,48.5 L36.1826,63.5" fill="none" style="stroke:#181818;stroke-width:0.5;"/></g><g class="participant participant-tail" data-participant="User"><text fill="#000000" font-family="sans-serif" font-size="14" lengthAdjust="spacing" textLength="30.3652" x="5" y="662.5684">User</text><ellipse cx="23.1826" cy="674.0215" fill="#E2E2F0" rx="8" ry="8" style="stroke:#181818;stroke-width:0.5;"/><path d="M23.1826,682.0215 L23.1826,709.0215 M10.1826,690.0215 L36.1826,690.0215 M23.1826,709.0215 L10.1826,724.0215 M23.1826,709.0215 L36.1826,724.0215" fill="none" style="stroke:#181818;stroke-width:0.5;"/></g><g class="participant participant-head" data-participant="UI"><rect fill="#E2E2F0" height="30.4883" rx="2.5" ry="2.5" style="stroke:#181818;stroke-width:0.5;" width="78.2715" x="119.2017" y="50"/><text fill="#000000" font-family="sans-serif" font-size="14" lengthAdjust="spacing" textLength="64.2715" x="126.2017" y="70.5352">Giao di&#7879;n</text></g><g class="participant participant-tail" data-participant="UI"><rect fill="#E2E2F0" height="30.4883" rx="2.5" ry="2.5" style="stroke:#181818;stroke-width:0.5;" width="78.2715" x="119.2017" y="649.0332"/><text fill="#000000" font-family="sans-serif" font-size="14" lengthAdjust="spacing" textLength="64.2715" x="126.2017" y="669.5684">Giao di&#7879;n</text></g><g class="participant participant-head" data-participant="Project"><rect fill="#E2E2F0" height="30.4883" rx="2.5" ry="2.5" style="stroke:#181818;stroke-width:0.5;" width="89.8174" x="377.479" y="50"/><text fill="#000000" font-family="sans-serif" font-size="14" lengthAdjust="spacing" textLength="75.8174" x="384.479" y="70.5352">project-srv</text></g><g class="participant participant-tail" data-participant="Project"><rect fill="#E2E2F0" height="30.4883" rx="2.5" ry="2.5" style="stroke:#181818;stroke-width:0.5;" width="89.8174" x="377.479" y="649.0332"/><text fill="#000000" font-family="sans-serif" font-size="14" lengthAdjust="spacing" textLength="75.8174" x="384.479" y="669.5684">project-srv</text></g><g class="participant participant-head" data-participant="Ingest"><rect fill="#E2E2F0" height="30.4883" rx="2.5" ry="2.5" style="stroke:#181818;stroke-width:0.5;" width="83.8496" x="898.7114" y="50"/><text fill="#000000" font-family="sans-serif" font-size="14" lengthAdjust="spacing" textLength="69.8496" x="905.7114" y="70.5352">ingest-srv</text></g><g class="participant participant-tail" data-participant="Ingest"><rect fill="#E2E2F0" height="30.4883" rx="2.5" ry="2.5" style="stroke:#181818;stroke-width:0.5;" width="83.8496" x="898.7114" y="649.0332"/><text fill="#000000" font-family="sans-serif" font-size="14" lengthAdjust="spacing" textLength="69.8496" x="905.7114" y="669.5684">ingest-srv</text></g><g class="participant participant-head" data-participant="PG"><text fill="#000000" font-family="sans-serif" font-size="14" lengthAdjust="spacing" textLength="76.8496" x="1291.7065" y="78.5352">PostgreSQL</text><path d="M1315.1313,29 C1315.1313,19 1333.1313,19 1333.1313,19 C1333.1313,19 1351.1313,19 1351.1313,29 L1351.1313,55 C1351.1313,65 1333.1313,65 1333.1313,65 C1333.1313,65 1315.1313,65 1315.1313,55 L1315.1313,29" fill="#E2E2F0" style="stroke:#181818;stroke-width:0.5;"/><path d="M1315.1313,29 C1315.1313,39 1333.1313,39 1333.1313,39 C1333.1313,39 1351.1313,39 1351.1313,29" fill="none" style="stroke:#181818;stroke-width:0.5;"/></g><g class="participant participant-tail" data-participant="PG"><text fill="#000000" font-family="sans-serif" font-size="14" lengthAdjust="spacing" textLength="76.8496" x="1291.7065" y="662.5684">PostgreSQL</text><path d="M1315.1313,675.5215 C1315.1313,665.5215 1333.1313,665.5215 1333.1313,665.5215 C1333.1313,665.5215 1351.1313,665.5215 1351.1313,675.5215 L1351.1313,701.5215 C1351.1313,711.5215 1333.1313,711.5215 1333.1313,711.5215 C1333.1313,711.5215 1315.1313,711.5215 1315.1313,701.5215 L1315.1313,675.5215" fill="#E2E2F0" style="stroke:#181818;stroke-width:0.5;"/><path d="M1315.1313,675.5215 C1315.1313,685.5215 1333.1313,685.5215 1333.1313,685.5215 C1333.1313,685.5215 1351.1313,685.5215 1351.1313,675.5215" fill="none" style="stroke:#181818;stroke-width:0.5;"/></g><g class="message" data-participant-1="User" data-participant-2="UI"><polygon fill="#181818" points="146.3374,108.7988,156.3374,112.7988,146.3374,116.7988,150.3374,112.7988" style="stroke:#181818;stroke-width:1;"/><line style="stroke:#181818;stroke-width:1;" x1="23.1826" x2="152.3374" y1="112.7988" y2="112.7988"/><text fill="#000000" font-family="sans-serif" font-size="13" font-weight="bold" lengthAdjust="spacing" textLength="8.5757" x="30.1826" y="108.0566">1</text><text fill="#000000" font-family="sans-serif" font-size="13" lengthAdjust="spacing" textLength="98.5791" x="42.7583" y="108.0566">Activate project</text></g><g class="message" data-participant-1="UI" data-participant-2="Project"><polygon fill="#181818" points="410.3877,138.1094,420.3877,142.1094,410.3877,146.1094,414.3877,142.1094" style="stroke:#181818;stroke-width:1;"/><line style="stroke:#181818;stroke-width:1;" x1="158.3374" x2="416.3877" y1="142.1094" y2="142.1094"/><text fill="#000000" font-family="sans-serif" font-size="13" font-weight="bold" lengthAdjust="spacing" textLength="8.5757" x="165.3374" y="137.3672">2</text><text fill="#000000" font-family="sans-serif" font-size="13" lengthAdjust="spacing" textLength="227.4746" x="177.9131" y="137.3672">POST /projects/{project_id}/activate</text></g><g class="message" data-participant-1="Project" data-participant-2="PG"><polygon fill="#181818" points="1321.1313,167.4199,1331.1313,171.4199,1321.1313,175.4199,1325.1313,171.4199" style="stroke:#181818;stroke-width:1;"/><line style="stroke:#181818;stroke-width:1;" x1="422.3877" x2="1327.1313" y1="171.4199" y2="171.4199"/><text fill="#000000" font-family="sans-serif" font-size="13" font-weight="bold" lengthAdjust="spacing" textLength="8.5757" x="429.3877" y="166.6777">3</text><text fill="#000000" font-family="sans-serif" font-size="13" lengthAdjust="spacing" textLength="194.6445" x="441.9634" y="166.6777">Detail project + validate status</text></g><g class="message" data-participant-1="Project" data-participant-2="Ingest"><polygon fill="#181818" points="928.6362,196.7305,938.6362,200.7305,928.6362,204.7305,932.6362,200.7305" style="stroke:#181818;stroke-width:1;"/><line style="stroke:#181818;stroke-width:1;" x1="422.3877" x2="934.6362" y1="200.7305" y2="200.7305"/><text fill="#000000" font-family="sans-serif" font-size="13" font-weight="bold" lengthAdjust="spacing" textLength="8.5757" x="429.3877" y="195.9883">4</text><text fill="#000000" font-family="sans-serif" font-size="13" lengthAdjust="spacing" textLength="481.6729" x="441.9634" y="195.9883">GET /internal/projects/{project_id}/activation-readiness?command=activate</text></g><g class="message" data-participant-1="Ingest" data-participant-2="PG"><polygon fill="#181818" points="1321.1313,226.041,1331.1313,230.041,1321.1313,234.041,1325.1313,230.041" style="stroke:#181818;stroke-width:1;"/><line style="stroke:#181818;stroke-width:1;" x1="940.6362" x2="1327.1313" y1="230.041" y2="230.041"/><text fill="#000000" font-family="sans-serif" font-size="13" font-weight="bold" lengthAdjust="spacing" textLength="8.5757" x="947.6362" y="225.2988">5</text><text fill="#000000" font-family="sans-serif" font-size="13" lengthAdjust="spacing" textLength="179.8228" x="960.2119" y="225.2988">List data_sources(project_id)</text></g><path d="M860.7114,245.041 L935.1582,245.041 L935.1582,252.3516 L925.1582,262.3516 L860.7114,262.3516 L860.7114,245.041" fill="#EEEEEE" style="stroke:#000000;stroke-width:1.5;"/><rect fill="none" height="107.2422" style="stroke:#000000;stroke-width:1.5;" width="533.8447" x="860.7114" y="245.041"/><text fill="#000000" font-family="sans-serif" font-size="13" font-weight="bold" lengthAdjust="spacing" textLength="29.4468" x="875.7114" y="258.6094">loop</text><text fill="#000000" font-family="sans-serif" font-size="11" font-weight="bold" lengthAdjust="spacing" textLength="129.5132" x="950.1582" y="257.6758">[m&#7895;i crawl datasource]</text><g class="message" data-participant-1="Ingest" data-participant-2="PG"><polygon fill="#181818" points="1321.1313,279.6621,1331.1313,283.6621,1321.1313,287.6621,1325.1313,283.6621" style="stroke:#181818;stroke-width:1;"/><line style="stroke:#181818;stroke-width:1;" x1="940.6362" x2="1327.1313" y1="283.6621" y2="283.6621"/><text fill="#000000" font-family="sans-serif" font-size="13" font-weight="bold" lengthAdjust="spacing" textLength="8.5757" x="947.6362" y="278.9199">6</text><text fill="#000000" font-family="sans-serif" font-size="13" lengthAdjust="spacing" textLength="178.7183" x="960.2119" y="278.9199">List crawl_targets(source_id)</text></g><path d="M870.7114,298.6621 L937.8965,298.6621 L937.8965,305.9727 L927.8965,315.9727 L870.7114,315.9727 L870.7114,298.6621" fill="#EEEEEE" style="stroke:#000000;stroke-width:1.5;"/><rect fill="none" height="46.6211" style="stroke:#000000;stroke-width:1.5;" width="513.8447" x="870.7114" y="298.6621"/><text fill="#000000" font-family="sans-serif" font-size="13" font-weight="bold" lengthAdjust="spacing" textLength="22.1851" x="885.7114" y="312.2305">opt</text><text fill="#000000" font-family="sans-serif" font-size="11" font-weight="bold" lengthAdjust="spacing" textLength="158.2002" x="952.8965" y="311.2969">[source/target c&#7847;n dry-run]</text><g class="message" data-participant-1="Ingest" data-participant-2="PG"><polygon fill="#181818" points="1321.1313,333.2832,1331.1313,337.2832,1321.1313,341.2832,1325.1313,337.2832" style="stroke:#181818;stroke-width:1;"/><line style="stroke:#181818;stroke-width:1;" x1="940.6362" x2="1327.1313" y1="337.2832" y2="337.2832"/><text fill="#000000" font-family="sans-serif" font-size="13" font-weight="bold" lengthAdjust="spacing" textLength="8.5757" x="947.6362" y="332.541">7</text><text fill="#000000" font-family="sans-serif" font-size="13" lengthAdjust="spacing" textLength="222.1743" x="960.2119" y="332.541">GetLatestDryrunByTarget(target_id)</text></g><path d="M91.2017,366.2832 L153.3403,366.2832 L153.3403,373.5938 L143.3403,383.5938 L91.2017,383.5938 L91.2017,366.2832" fill="#EEEEEE" style="stroke:#000000;stroke-width:1.5;"/><rect fill="none" height="266.75" style="stroke:#000000;stroke-width:1.5;" width="1293.3545" x="91.2017" y="366.2832"/><text fill="#000000" font-family="sans-serif" font-size="13" font-weight="bold" lengthAdjust="spacing" textLength="17.1387" x="106.2017" y="379.8516">alt</text><text fill="#000000" font-family="sans-serif" font-size="11" font-weight="bold" lengthAdjust="spacing" textLength="113.6953" x="168.3403" y="378.918">[Readiness blocked]</text><g class="message" data-participant-1="Ingest" data-participant-2="Project"><polygon fill="#181818" points="433.3877,400.9043,423.3877,404.9043,433.3877,408.9043,429.3877,404.9043" style="stroke:#181818;stroke-width:1;"/><line style="stroke:#181818;stroke-width:1;stroke-dasharray:2,2;" x1="427.3877" x2="939.6362" y1="404.9043" y2="404.9043"/><text fill="#000000" font-family="sans-serif" font-size="13" font-weight="bold" lengthAdjust="spacing" textLength="8.5757" x="439.3877" y="400.1621">8</text><text fill="#000000" font-family="sans-serif" font-size="13" lengthAdjust="spacing" textLength="127.3657" x="451.9634" y="400.1621">can_proceed = false</text></g><g class="message" data-participant-1="Project" data-participant-2="UI"><polygon fill="#181818" points="169.3374,430.2148,159.3374,434.2148,169.3374,438.2148,165.3374,434.2148" style="stroke:#181818;stroke-width:1;"/><line style="stroke:#181818;stroke-width:1;stroke-dasharray:2,2;" x1="163.3374" x2="421.3877" y1="434.2148" y2="434.2148"/><text fill="#000000" font-family="sans-serif" font-size="13" font-weight="bold" lengthAdjust="spacing" textLength="8.5757" x="175.3374" y="429.4727">9</text><text fill="#000000" font-family="sans-serif" font-size="13" lengthAdjust="spacing" textLength="143.0381" x="187.9131" y="429.4727">4xx activation blocked</text></g><line style="stroke:#000000;stroke-width:1;stroke-dasharray:2,2;" x1="91.2017" x2="1384.5562" y1="443.2148" y2="443.2148"/><text fill="#000000" font-family="sans-serif" font-size="11" font-weight="bold" lengthAdjust="spacing" textLength="109.1836" x="96.2017" y="453.8496">[Readiness passed]</text><g class="message" data-participant-1="Ingest" data-participant-2="Project"><polygon fill="#181818" points="433.3877,474.4805,423.3877,478.4805,433.3877,482.4805,429.3877,478.4805" style="stroke:#181818;stroke-width:1;"/><line style="stroke:#181818;stroke-width:1;stroke-dasharray:2,2;" x1="427.3877" x2="939.6362" y1="478.4805" y2="478.4805"/><text fill="#000000" font-family="sans-serif" font-size="13" font-weight="bold" lengthAdjust="spacing" textLength="17.1514" x="439.3877" y="473.7383">10</text><text fill="#000000" font-family="sans-serif" font-size="13" lengthAdjust="spacing" textLength="123.2715" x="460.5391" y="473.7383">can_proceed = true</text></g><g class="message" data-participant-1="Project" data-participant-2="Ingest"><polygon fill="#181818" points="928.6362,503.791,938.6362,507.791,928.6362,511.791,932.6362,507.791" style="stroke:#181818;stroke-width:1;"/><line style="stroke:#181818;stroke-width:1;" x1="422.3877" x2="934.6362" y1="507.791" y2="507.791"/><text fill="#000000" font-family="sans-serif" font-size="13" font-weight="bold" lengthAdjust="spacing" textLength="17.1514" x="429.3877" y="503.0488">11</text><text fill="#000000" font-family="sans-serif" font-size="13" lengthAdjust="spacing" textLength="282.5469" x="450.5391" y="503.0488">POST /internal/projects/{project_id}/activate</text></g><g class="message" data-participant-1="Ingest" data-participant-2="PG"><polygon fill="#181818" points="1321.1313,533.1016,1331.1313,537.1016,1321.1313,541.1016,1325.1313,537.1016" style="stroke:#181818;stroke-width:1;"/><line style="stroke:#181818;stroke-width:1;" x1="940.6362" x2="1327.1313" y1="537.1016" y2="537.1016"/><text fill="#000000" font-family="sans-serif" font-size="13" font-weight="bold" lengthAdjust="spacing" textLength="17.1514" x="947.6362" y="532.3594">12</text><text fill="#000000" font-family="sans-serif" font-size="13" lengthAdjust="spacing" textLength="347.3438" x="968.7876" y="532.3594">UpdateProjectDataSourcesLifecycle(project_id, activate)</text></g><g class="message" data-participant-1="Ingest" data-participant-2="Project"><polygon fill="#181818" points="433.3877,562.4121,423.3877,566.4121,433.3877,570.4121,429.3877,566.4121" style="stroke:#181818;stroke-width:1;"/><line style="stroke:#181818;stroke-width:1;stroke-dasharray:2,2;" x1="427.3877" x2="939.6362" y1="566.4121" y2="566.4121"/><text fill="#000000" font-family="sans-serif" font-size="13" font-weight="bold" lengthAdjust="spacing" textLength="17.1514" x="439.3877" y="561.6699">13</text><text fill="#000000" font-family="sans-serif" font-size="13" lengthAdjust="spacing" textLength="204.147" x="460.5391" y="561.6699">200 affected_data_source_count</text></g><g class="message" data-participant-1="Project" data-participant-2="PG"><polygon fill="#181818" points="1321.1313,591.7227,1331.1313,595.7227,1321.1313,599.7227,1325.1313,595.7227" style="stroke:#181818;stroke-width:1;"/><line style="stroke:#181818;stroke-width:1;" x1="422.3877" x2="1327.1313" y1="595.7227" y2="595.7227"/><text fill="#000000" font-family="sans-serif" font-size="13" font-weight="bold" lengthAdjust="spacing" textLength="17.1514" x="429.3877" y="590.9805">14</text><text fill="#000000" font-family="sans-serif" font-size="13" lengthAdjust="spacing" textLength="199.3481" x="450.5391" y="590.9805">Update project status = ACTIVE</text></g><g class="message" data-participant-1="Project" data-participant-2="UI"><polygon fill="#181818" points="169.3374,621.0332,159.3374,625.0332,169.3374,629.0332,165.3374,625.0332" style="stroke:#181818;stroke-width:1;"/><line style="stroke:#181818;stroke-width:1;stroke-dasharray:2,2;" x1="163.3374" x2="421.3877" y1="625.0332" y2="625.0332"/><text fill="#000000" font-family="sans-serif" font-size="13" font-weight="bold" lengthAdjust="spacing" textLength="17.1514" x="175.3374" y="620.291">15</text><text fill="#000000" font-family="sans-serif" font-size="13" lengthAdjust="spacing" textLength="133.7451" x="196.4888" y="620.291">200 project activated</text></g><!--SRC=[ZLFDZX914BxtKrGuiL426W-6P3KW6qA24GMyJehkWhGxT4-wQ_Y9yUmZ-0Y-W_iql8azqpCmw6hsC4cbwwlwlggl1dEs9j-ko0b_hqs63hVWo6VMU7fFtkE6XfJQ_S0vkmTsEJM0CtIifSxGy0oLqcO3BrutyaDxEB_tX439ri7I1xBiKWdB2Q27rbYZ1QLF3zzDwoe_S_OBIIv1MOmxtkskGHEp8HynkWmZH27Z2Zt1R5pcPjRpnj7yuxGbHA44Ec-2W3uC9EiTCa7588AgaAgu-p3xC5z0jqhwxjSgIhJwriMgLjHAYy9n7qR4gDEw8po37QPQ5IIUaNFVn4VzVHZV1Hfjc9p1zFzysfgE8mph3JwzbNQxHQDkpsAgZLHQfZh4nJOIRtCdoRSl7M-4IAtDO7jw-A51Ejod9JGY1S0ZhKfKmkWsnBuTaMKh09inn8Tkp8Cy_VffGBbZn-Kc8FxiE2QU1icUH-uO4CFZegnhn_AgBHabYazWol2fdXjMgPNtf1egcxP9D4aOL18fk8KrfhwOvxptolnNXmDSbdfkIG7TOChG-oSIbVz9W-VYRxoZfndyz-gNMN4-LTjHi6WUpPpgDScZJAdXwlDw9BhvX-QNlHxWEbGogQHn6ucqkU5h_HVsypt78mxJ3juj9f_l7jbhGL2ZQp6bYRy1]--></g></svg>