<svg xmlns="http://www.w3.org/2000/svg" xmlns:xlink="http://www.w3.org/1999/xlink" contentStyleType="text/css" data-diagram-type="SEQUENCE" height="1764px" preserveAspectRatio="none" style="width:1596px;height:1764px;background:#FFFFFF;" version="1.1" viewBox="0 0 1596 1764" width="1596px" zoomAndPan="magnify"><defs/><g><rect fill="none" height="444.8789" style="stroke:#000000;stroke-width:1.5;" width="1570.4517" x="10" y="494.8359"/><rect fill="none" height="163.8633" style="stroke:#000000;stroke-width:1.5;" width="1570.4517" x="10" y="953.7148"/><rect fill="none" height="107.2422" style="stroke:#000000;stroke-width:1.5;" width="592.9033" x="997.5483" y="1278.1309"/><rect fill="none" height="46.6211" style="stroke:#000000;stroke-width:1.5;" width="572.9033" x="1007.5483" y="1331.752"/><rect fill="none" height="266.75" style="stroke:#000000;stroke-width:1.5;" width="1397.4751" x="182.9766" y="1399.373"/><g><title>User</title><rect fill="#000000" fill-opacity="0.00000" height="1601.6348" width="8" x="34.1826" y="81.4883"/><line style="stroke:#181818;stroke-width:0.5;stroke-dasharray:5,5;" x1="38" x2="38" y1="81.4883" y2="1683.123"/></g><g><title>Giao di.n</title><rect fill="#000000" fill-opacity="0.00000" height="1601.6348" width="8" x="246.1123" y="81.4883"/><line style="stroke:#181818;stroke-width:0.5;stroke-dasharray:5,5;" x1="249.9766" x2="249.9766" y1="81.4883" y2="1683.123"/></g><g><title>project-srv</title><rect fill="#000000" fill-opacity="0.00000" height="1601.6348" width="8" x="546.6489" y="81.4883"/><line style="stroke:#181818;stroke-width:0.5;stroke-dasharray:5,5;" x1="549.7402" x2="549.7402" y1="81.4883" y2="1683.123"/></g><g><title>ingest-srv</title><rect fill="#000000" fill-opacity="0.00000" height="1601.6348" width="8" x="1073.4731" y="81.4883"/><line style="stroke:#181818;stroke-width:0.5;stroke-dasharray:5,5;" x1="1076.5483" x2="1076.5483" y1="81.4883" y2="1683.123"/></g><g><title>PostgreSQL</title><rect fill="#000000" fill-opacity="0.00000" height="1601.6348" width="8" x="1525.0269" y="81.4883"/><line style="stroke:#181818;stroke-width:0.5;stroke-dasharray:5,5;" x1="1528.6021" x2="1528.6021" y1="81.4883" y2="1683.123"/></g><g class="participant participant-head" data-participant="User"><text fill="#000000" font-family="sans-serif" font-size="14" lengthAdjust="spacing" textLength="30.3652" x="20" y="78.5352">User</text><ellipse cx="38.1826" cy="13.5" fill="#E2E2F0" rx="8" ry="8" style="stroke:#181818;stroke-width:0.5;"/><path d="M38.1826,21.5 L38.1826,48.5 M25.1826,29.5 L51.1826,29.5 M38.1826,48.5 L25.1826,63.5 M38.1826,48.5 L51.1826,63.5" fill="none" style="stroke:#181818;stroke-width:0.5;"/></g><g class="participant participant-tail" data-participant="User"><text fill="#000000" font-family="sans-serif" font-size="14" lengthAdjust="spacing" textLength="30.3652" x="20" y="1695.6582">User</text><ellipse cx="38.1826" cy="1707.1113" fill="#E2E2F0" rx="8" ry="8" style="stroke:#181818;stroke-width:0.5;"/><path d="M38.1826,1715.1113 L38.1826,1742.1113 M25.1826,1723.1113 L51.1826,1723.1113 M38.1826,1742.1113 L25.1826,1757.1113 M38.1826,1742.1113 L51.1826,1757.1113" fill="none" style="stroke:#181818;stroke-width:0.5;"/></g><g class="participant participant-head" data-participant="UI"><rect fill="#E2E2F0" height="30.4883" rx="2.5" ry="2.5" style="stroke:#181818;stroke-width:0.5;" width="78.2715" x="210.9766" y="50"/><text fill="#000000" font-family="sans-serif" font-size="14" lengthAdjust="spacing" textLength="64.2715" x="217.9766" y="70.5352">Giao di&#7879;n</text></g><g class="participant participant-tail" data-participant="UI"><rect fill="#E2E2F0" height="30.4883" rx="2.5" ry="2.5" style="stroke:#181818;stroke-width:0.5;" width="78.2715" x="210.9766" y="1682.123"/><text fill="#000000" font-family="sans-serif" font-size="14" lengthAdjust="spacing" textLength="64.2715" x="217.9766" y="1702.6582">Giao di&#7879;n</text></g><g class="participant participant-head" data-participant="Project"><rect fill="#E2E2F0" height="30.4883" rx="2.5" ry="2.5" style="stroke:#181818;stroke-width:0.5;" width="89.8174" x="505.7402" y="50"/><text fill="#000000" font-family="sans-serif" font-size="14" lengthAdjust="spacing" textLength="75.8174" x="512.7402" y="70.5352">project-srv</text></g><g class="participant participant-tail" data-participant="Project"><rect fill="#E2E2F0" height="30.4883" rx="2.5" ry="2.5" style="stroke:#181818;stroke-width:0.5;" width="89.8174" x="505.7402" y="1682.123"/><text fill="#000000" font-family="sans-serif" font-size="14" lengthAdjust="spacing" textLength="75.8174" x="512.7402" y="1702.6582">project-srv</text></g><g class="participant participant-head" data-participant="Ingest"><rect fill="#E2E2F0" height="30.4883" rx="2.5" ry="2.5" style="stroke:#181818;stroke-width:0.5;" width="83.8496" x="1035.5483" y="50"/><text fill="#000000" font-family="sans-serif" font-size="14" lengthAdjust="spacing" textLength="69.8496" x="1042.5483" y="70.5352">ingest-srv</text></g><g class="participant participant-tail" data-participant="Ingest"><rect fill="#E2E2F0" height="30.4883" rx="2.5" ry="2.5" style="stroke:#181818;stroke-width:0.5;" width="83.8496" x="1035.5483" y="1682.123"/><text fill="#000000" font-family="sans-serif" font-size="14" lengthAdjust="spacing" textLength="69.8496" x="1042.5483" y="1702.6582">ingest-srv</text></g><g class="participant participant-head" data-participant="PG"><text fill="#000000" font-family="sans-serif" font-size="14" lengthAdjust="spacing" textLength="76.8496" x="1487.6021" y="78.5352">PostgreSQL</text><path d="M1511.0269,29 C1511.0269,19 1529.0269,19 1529.0269,19 C1529.0269,19 1547.0269,19 1547.0269,29 L1547.0269,55 C1547.0269,65 1529.0269,65 1529.0269,65 C1529.0269,65 1511.0269,65 1511.0269,55 L1511.0269,29" fill="#E2E2F0" style="stroke:#181818;stroke-width:0.5;"/><path d="M1511.0269,29 C1511.0269,39 1529.0269,39 1529.0269,39 C1529.0269,39 1547.0269,39 1547.0269,29" fill="none" style="stroke:#181818;stroke-width:0.5;"/></g><g class="participant participant-tail" data-participant="PG"><text fill="#000000" font-family="sans-serif" font-size="14" lengthAdjust="spacing" textLength="76.8496" x="1487.6021" y="1695.6582">PostgreSQL</text><path d="M1511.0269,1708.6113 C1511.0269,1698.6113 1529.0269,1698.6113 1529.0269,1698.6113 C1529.0269,1698.6113 1547.0269,1698.6113 1547.0269,1708.6113 L1547.0269,1734.6113 C1547.0269,1744.6113 1529.0269,1744.6113 1529.0269,1744.6113 C1529.0269,1744.6113 1511.0269,1744.6113 1511.0269,1734.6113 L1511.0269,1708.6113" fill="#E2E2F0" style="stroke:#181818;stroke-width:0.5;"/><path d="M1511.0269,1708.6113 C1511.0269,1718.6113 1529.0269,1718.6113 1529.0269,1718.6113 C1529.0269,1718.6113 1547.0269,1718.6113 1547.0269,1708.6113" fill="none" style="stroke:#181818;stroke-width:0.5;"/></g><g class="message" data-participant-1="User" data-participant-2="UI"><polygon fill="#181818" points="238.1123,108.7988,248.1123,112.7988,238.1123,116.7988,242.1123,112.7988" style="stroke:#181818;stroke-width:1;"/><line style="stroke:#181818;stroke-width:1;" x1="38.1826" x2="244.1123" y1="112.7988" y2="112.7988"/><text fill="#000000" font-family="sans-serif" font-size="13" font-weight="bold" lengthAdjust="spacing" textLength="8.5757" x="45.1826" y="108.0566">1</text><text fill="#000000" font-family="sans-serif" font-size="13" lengthAdjust="spacing" textLength="160.418" x="57.7583" y="108.0566">Nh&#7853;p th&#244;ng tin campaign</text></g><g class="message" data-participant-1="UI" data-participant-2="Project"><polygon fill="#181818" points="538.6489,138.1094,548.6489,142.1094,538.6489,146.1094,542.6489,142.1094" style="stroke:#181818;stroke-width:1;"/><line style="stroke:#181818;stroke-width:1;" x1="250.1123" x2="544.6489" y1="142.1094" y2="142.1094"/><text fill="#000000" font-family="sans-serif" font-size="13" font-weight="bold" lengthAdjust="spacing" textLength="8.5757" x="257.1123" y="137.3672">2</text><text fill="#000000" font-family="sans-serif" font-size="13" lengthAdjust="spacing" textLength="111.3315" x="269.688" y="137.3672">POST /campaigns</text></g><g class="message" data-participant-1="Project" data-participant-2="PG"><polygon fill="#181818" points="1517.0269,167.4199,1527.0269,171.4199,1517.0269,175.4199,1521.0269,171.4199" style="stroke:#181818;stroke-width:1;"/><line style="stroke:#181818;stroke-width:1;" x1="550.6489" x2="1523.0269" y1="171.4199" y2="171.4199"/><text fill="#000000" font-family="sans-serif" font-size="13" font-weight="bold" lengthAdjust="spacing" textLength="8.5757" x="557.6489" y="166.6777">3</text><text fill="#000000" font-family="sans-serif" font-size="13" lengthAdjust="spacing" textLength="101.2451" x="570.2246" y="166.6777">Insert campaign</text></g><g class="message" data-participant-1="Project" data-participant-2="UI"><polygon fill="#181818" points="261.1123,196.7305,251.1123,200.7305,261.1123,204.7305,257.1123,200.7305" style="stroke:#181818;stroke-width:1;"/><line style="stroke:#181818;stroke-width:1;stroke-dasharray:2,2;" x1="255.1123" x2="549.6489" y1="200.7305" y2="200.7305"/><text fill="#000000" font-family="sans-serif" font-size="13" font-weight="bold" lengthAdjust="spacing" textLength="8.5757" x="267.1123" y="195.9883">4</text><text fill="#000000" font-family="sans-serif" font-size="13" lengthAdjust="spacing" textLength="140.8418" x="279.688" y="195.9883">200 campaign created</text></g><g class="message" data-participant-1="User" data-participant-2="UI"><polygon fill="#181818" points="238.1123,226.041,248.1123,230.041,238.1123,234.041,242.1123,230.041" style="stroke:#181818;stroke-width:1;"/><line style="stroke:#181818;stroke-width:1;" x1="38.1826" x2="244.1123" y1="230.041" y2="230.041"/><text fill="#000000" font-family="sans-serif" font-size="13" font-weight="bold" lengthAdjust="spacing" textLength="8.5757" x="45.1826" y="225.2988">5</text><text fill="#000000" font-family="sans-serif" font-size="13" lengthAdjust="spacing" textLength="143.3555" x="57.7583" y="225.2988">Nh&#7853;p th&#244;ng tin project</text></g><g class="message" data-participant-1="UI" data-participant-2="Project"><polygon fill="#181818" points="538.6489,255.3516,548.6489,259.3516,538.6489,263.3516,542.6489,259.3516" style="stroke:#181818;stroke-width:1;"/><line style="stroke:#181818;stroke-width:1;" x1="250.1123" x2="544.6489" y1="259.3516" y2="259.3516"/><text fill="#000000" font-family="sans-serif" font-size="13" font-weight="bold" lengthAdjust="spacing" textLength="8.5757" x="257.1123" y="254.6094">6</text><text fill="#000000" font-family="sans-serif" font-size="13" lengthAdjust="spacing" textLength="263.9609" x="269.688" y="254.6094">POST /campaigns/{campaign_id}/projects</text></g><g class="message" data-participant-1="Project" data-participant-2="PG"><polygon fill="#181818" points="1517.0269,284.6621,1527.0269,288.6621,1517.0269,292.6621,1521.0269,288.6621" style="stroke:#181818;stroke-width:1;"/><line style="stroke:#181818;stroke-width:1;" x1="550.6489" x2="1523.0269" y1="288.6621" y2="288.6621"/><text fill="#000000" font-family="sans-serif" font-size="13" font-weight="bold" lengthAdjust="spacing" textLength="8.5757" x="557.6489" y="283.9199">7</text><text fill="#000000" font-family="sans-serif" font-size="13" lengthAdjust="spacing" textLength="181.9111" x="570.2246" y="283.9199">Validate campaign + domain</text></g><g class="message" data-participant-1="Project" data-participant-2="PG"><polygon fill="#181818" points="1517.0269,313.9727,1527.0269,317.9727,1517.0269,321.9727,1521.0269,317.9727" style="stroke:#181818;stroke-width:1;"/><line style="stroke:#181818;stroke-width:1;" x1="550.6489" x2="1523.0269" y1="317.9727" y2="317.9727"/><text fill="#000000" font-family="sans-serif" font-size="13" font-weight="bold" lengthAdjust="spacing" textLength="8.5757" x="557.6489" y="313.2305">8</text><text fill="#000000" font-family="sans-serif" font-size="13" lengthAdjust="spacing" textLength="84.1826" x="570.2246" y="313.2305">Insert project</text></g><g class="message" data-participant-1="Project" data-participant-2="UI"><polygon fill="#181818" points="261.1123,343.2832,251.1123,347.2832,261.1123,351.2832,257.1123,347.2832" style="stroke:#181818;stroke-width:1;"/><line style="stroke:#181818;stroke-width:1;stroke-dasharray:2,2;" x1="255.1123" x2="549.6489" y1="347.2832" y2="347.2832"/><text fill="#000000" font-family="sans-serif" font-size="13" font-weight="bold" lengthAdjust="spacing" textLength="8.5757" x="267.1123" y="342.541">9</text><text fill="#000000" font-family="sans-serif" font-size="13" lengthAdjust="spacing" textLength="123.7793" x="279.688" y="342.541">200 project created</text></g><g class="message" data-participant-1="User" data-participant-2="UI"><polygon fill="#181818" points="238.1123,372.5938,248.1123,376.5938,238.1123,380.5938,242.1123,376.5938" style="stroke:#181818;stroke-width:1;"/><line style="stroke:#181818;stroke-width:1;" x1="38.1826" x2="244.1123" y1="376.5938" y2="376.5938"/><text fill="#000000" font-family="sans-serif" font-size="13" font-weight="bold" lengthAdjust="spacing" textLength="17.1514" x="45.1826" y="371.8516">10</text><text fill="#000000" font-family="sans-serif" font-size="13" lengthAdjust="spacing" textLength="166.7783" x="66.334" y="371.8516">C&#7845;u h&#236;nh datasource crawl</text></g><g class="message" data-participant-1="UI" data-participant-2="Ingest"><polygon fill="#181818" points="1065.4731,401.9043,1075.4731,405.9043,1065.4731,409.9043,1069.4731,405.9043" style="stroke:#181818;stroke-width:1;"/><line style="stroke:#181818;stroke-width:1;" x1="250.1123" x2="1071.4731" y1="405.9043" y2="405.9043"/><text fill="#000000" font-family="sans-serif" font-size="13" font-weight="bold" lengthAdjust="spacing" textLength="17.1514" x="257.1123" y="401.1621">11</text><text fill="#000000" font-family="sans-serif" font-size="13" lengthAdjust="spacing" textLength="119.3677" x="278.2637" y="401.1621">POST /datasources</text></g><g class="message" data-participant-1="Ingest" data-participant-2="PG"><polygon fill="#181818" points="1517.0269,446.5254,1527.0269,450.5254,1517.0269,454.5254,1521.0269,450.5254" style="stroke:#181818;stroke-width:1;"/><line style="stroke:#181818;stroke-width:1;" x1="1077.4731" x2="1523.0269" y1="450.5254" y2="450.5254"/><text fill="#000000" font-family="sans-serif" font-size="13" font-weight="bold" lengthAdjust="spacing" textLength="17.1514" x="1084.4731" y="438.1279">12</text><text fill="#000000" font-family="sans-serif" font-size="13" lengthAdjust="spacing" textLength="122.4082" x="1105.6245" y="430.4727">Insert data_sources</text><text fill="#000000" font-family="sans-serif" font-size="13" lengthAdjust="spacing" textLength="235.2695" x="1105.6245" y="445.7832">(crawl_mode, crawl_interval_minutes)</text></g><g class="message" data-participant-1="Ingest" data-participant-2="UI"><polygon fill="#181818" points="261.1123,475.8359,251.1123,479.8359,261.1123,483.8359,257.1123,479.8359" style="stroke:#181818;stroke-width:1;"/><line style="stroke:#181818;stroke-width:1;stroke-dasharray:2,2;" x1="255.1123" x2="1076.4731" y1="479.8359" y2="479.8359"/><text fill="#000000" font-family="sans-serif" font-size="13" font-weight="bold" lengthAdjust="spacing" textLength="17.1514" x="267.1123" y="475.0938">13</text><text fill="#000000" font-family="sans-serif" font-size="13" lengthAdjust="spacing" textLength="148.8779" x="288.2637" y="475.0938">200 datasource created</text></g><path d="M10,494.8359 L72.1387,494.8359 L72.1387,502.1465 L62.1387,512.1465 L10,512.1465 L10,494.8359" fill="#EEEEEE" style="stroke:#000000;stroke-width:1.5;"/><rect fill="none" height="444.8789" style="stroke:#000000;stroke-width:1.5;" width="1570.4517" x="10" y="494.8359"/><text fill="#000000" font-family="sans-serif" font-size="13" font-weight="bold" lengthAdjust="spacing" textLength="17.1387" x="25" y="508.4043">alt</text><text fill="#000000" font-family="sans-serif" font-size="11" font-weight="bold" lengthAdjust="spacing" textLength="121.8916" x="87.1387" y="507.4707">[Target lo&#7841;i keyword]</text><g class="message" data-participant-1="User" data-participant-2="UI"><polygon fill="#181818" points="238.1123,529.457,248.1123,533.457,238.1123,537.457,242.1123,533.457" style="stroke:#181818;stroke-width:1;"/><line style="stroke:#181818;stroke-width:1;" x1="38.1826" x2="244.1123" y1="533.457" y2="533.457"/><text fill="#000000" font-family="sans-serif" font-size="13" font-weight="bold" lengthAdjust="spacing" textLength="17.1514" x="45.1826" y="528.7148">14</text><text fill="#000000" font-family="sans-serif" font-size="13" lengthAdjust="spacing" textLength="122.3193" x="66.334" y="528.7148">T&#7841;o keyword target</text></g><g class="message" data-participant-1="UI" data-participant-2="Ingest"><polygon fill="#181818" points="1065.4731,558.7676,1075.4731,562.7676,1065.4731,566.7676,1069.4731,562.7676" style="stroke:#181818;stroke-width:1;"/><line style="stroke:#181818;stroke-width:1;" x1="250.1123" x2="1071.4731" y1="562.7676" y2="562.7676"/><text fill="#000000" font-family="sans-serif" font-size="13" font-weight="bold" lengthAdjust="spacing" textLength="17.1514" x="257.1123" y="558.0254">15</text><text fill="#000000" font-family="sans-serif" font-size="13" lengthAdjust="spacing" textLength="312.5776" x="278.2637" y="558.0254">POST /datasources/{source_id}/targets/keywords</text></g><g class="message" data-participant-1="Ingest" data-participant-2="PG"><polygon fill="#181818" points="1517.0269,603.3887,1527.0269,607.3887,1517.0269,611.3887,1521.0269,607.3887" style="stroke:#181818;stroke-width:1;"/><line style="stroke:#181818;stroke-width:1;" x1="1077.4731" x2="1523.0269" y1="607.3887" y2="607.3887"/><text fill="#000000" font-family="sans-serif" font-size="13" font-weight="bold" lengthAdjust="spacing" textLength="17.1514" x="1084.4731" y="594.9912">16</text><text fill="#000000" font-family="sans-serif" font-size="13" lengthAdjust="spacing" textLength="123.6079" x="1105.6245" y="587.3359">Insert crawl_targets</text><text fill="#000000" font-family="sans-serif" font-size="13" lengthAdjust="spacing" textLength="406.0469" x="1105.6245" y="602.6465">(target_type=KEYWORD, crawl_interval_minutes, is_active=false)</text></g><g class="message" data-participant-1="Ingest" data-participant-2="UI"><polygon fill="#181818" points="261.1123,632.6992,251.1123,636.6992,261.1123,640.6992,257.1123,636.6992" style="stroke:#181818;stroke-width:1;"/><line style="stroke:#181818;stroke-width:1;stroke-dasharray:2,2;" x1="255.1123" x2="1076.4731" y1="636.6992" y2="636.6992"/><text fill="#000000" font-family="sans-serif" font-size="13" font-weight="bold" lengthAdjust="spacing" textLength="17.1514" x="267.1123" y="631.957">17</text><text fill="#000000" font-family="sans-serif" font-size="13" lengthAdjust="spacing" textLength="117.146" x="288.2637" y="631.957">200 target created</text></g><line style="stroke:#000000;stroke-width:1;stroke-dasharray:2,2;" x1="10" x2="1580.4517" y1="645.6992" y2="645.6992"/><text fill="#000000" font-family="sans-serif" font-size="11" font-weight="bold" lengthAdjust="spacing" textLength="110.7412" x="15" y="656.334">[Target lo&#7841;i profile]</text><g class="message" data-participant-1="User" data-participant-2="UI"><polygon fill="#181818" points="238.1123,676.9648,248.1123,680.9648,238.1123,684.9648,242.1123,680.9648" style="stroke:#181818;stroke-width:1;"/><line style="stroke:#181818;stroke-width:1;" x1="38.1826" x2="244.1123" y1="680.9648" y2="680.9648"/><text fill="#000000" font-family="sans-serif" font-size="13" font-weight="bold" lengthAdjust="spacing" textLength="17.1514" x="45.1826" y="676.2227">18</text><text fill="#000000" font-family="sans-serif" font-size="13" lengthAdjust="spacing" textLength="110.208" x="66.334" y="676.2227">T&#7841;o profile target</text></g><g class="message" data-participant-1="UI" data-participant-2="Ingest"><polygon fill="#181818" points="1065.4731,706.2754,1075.4731,710.2754,1065.4731,714.2754,1069.4731,710.2754" style="stroke:#181818;stroke-width:1;"/><line style="stroke:#181818;stroke-width:1;" x1="250.1123" x2="1071.4731" y1="710.2754" y2="710.2754"/><text fill="#000000" font-family="sans-serif" font-size="13" font-weight="bold" lengthAdjust="spacing" textLength="17.1514" x="257.1123" y="705.5332">19</text><text fill="#000000" font-family="sans-serif" font-size="13" lengthAdjust="spacing" textLength="300.4663" x="278.2637" y="705.5332">POST /datasources/{source_id}/targets/profiles</text></g><g class="message" data-participant-1="Ingest" data-participant-2="PG"><polygon fill="#181818" points="1517.0269,750.8965,1527.0269,754.8965,1517.0269,758.8965,1521.0269,754.8965" style="stroke:#181818;stroke-width:1;"/><line style="stroke:#181818;stroke-width:1;" x1="1077.4731" x2="1523.0269" y1="754.8965" y2="754.8965"/><text fill="#000000" font-family="sans-serif" font-size="13" font-weight="bold" lengthAdjust="spacing" textLength="17.1514" x="1084.4731" y="742.499">20</text><text fill="#000000" font-family="sans-serif" font-size="13" lengthAdjust="spacing" textLength="123.6079" x="1105.6245" y="734.8438">Insert crawl_targets</text><text fill="#000000" font-family="sans-serif" font-size="13" lengthAdjust="spacing" textLength="393.4341" x="1105.6245" y="750.1543">(target_type=PROFILE, crawl_interval_minutes, is_active=false)</text></g><g class="message" data-participant-1="Ingest" data-participant-2="UI"><polygon fill="#181818" points="261.1123,780.207,251.1123,784.207,261.1123,788.207,257.1123,784.207" style="stroke:#181818;stroke-width:1;"/><line style="stroke:#181818;stroke-width:1;stroke-dasharray:2,2;" x1="255.1123" x2="1076.4731" y1="784.207" y2="784.207"/><text fill="#000000" font-family="sans-serif" font-size="13" font-weight="bold" lengthAdjust="spacing" textLength="17.1514" x="267.1123" y="779.4648">21</text><text fill="#000000" font-family="sans-serif" font-size="13" lengthAdjust="spacing" textLength="117.146" x="288.2637" y="779.4648">200 target created</text></g><line style="stroke:#000000;stroke-width:1;stroke-dasharray:2,2;" x1="10" x2="1580.4517" y1="793.207" y2="793.207"/><text fill="#000000" font-family="sans-serif" font-size="11" font-weight="bold" lengthAdjust="spacing" textLength="98.2588" x="15" y="803.8418">[Target lo&#7841;i post]</text><g class="message" data-participant-1="User" data-participant-2="UI"><polygon fill="#181818" points="238.1123,824.4727,248.1123,828.4727,238.1123,832.4727,242.1123,828.4727" style="stroke:#181818;stroke-width:1;"/><line style="stroke:#181818;stroke-width:1;" x1="38.1826" x2="244.1123" y1="828.4727" y2="828.4727"/><text fill="#000000" font-family="sans-serif" font-size="13" font-weight="bold" lengthAdjust="spacing" textLength="17.1514" x="45.1826" y="823.7305">22</text><text fill="#000000" font-family="sans-serif" font-size="13" lengthAdjust="spacing" textLength="96.8398" x="66.334" y="823.7305">T&#7841;o post target</text></g><g class="message" data-participant-1="UI" data-participant-2="Ingest"><polygon fill="#181818" points="1065.4731,853.7832,1075.4731,857.7832,1065.4731,861.7832,1069.4731,857.7832" style="stroke:#181818;stroke-width:1;"/><line style="stroke:#181818;stroke-width:1;" x1="250.1123" x2="1071.4731" y1="857.7832" y2="857.7832"/><text fill="#000000" font-family="sans-serif" font-size="13" font-weight="bold" lengthAdjust="spacing" textLength="17.1514" x="257.1123" y="853.041">23</text><text fill="#000000" font-family="sans-serif" font-size="13" lengthAdjust="spacing" textLength="287.0981" x="278.2637" y="853.041">POST /datasources/{source_id}/targets/posts</text></g><g class="message" data-participant-1="Ingest" data-participant-2="PG"><polygon fill="#181818" points="1517.0269,898.4043,1527.0269,902.4043,1517.0269,906.4043,1521.0269,902.4043" style="stroke:#181818;stroke-width:1;"/><line style="stroke:#181818;stroke-width:1;" x1="1077.4731" x2="1523.0269" y1="902.4043" y2="902.4043"/><text fill="#000000" font-family="sans-serif" font-size="13" font-weight="bold" lengthAdjust="spacing" textLength="17.1514" x="1084.4731" y="890.0068">24</text><text fill="#000000" font-family="sans-serif" font-size="13" lengthAdjust="spacing" textLength="123.6079" x="1105.6245" y="882.3516">Insert crawl_targets</text><text fill="#000000" font-family="sans-serif" font-size="13" lengthAdjust="spacing" textLength="406.4023" x="1105.6245" y="897.6621">(target_type=POST_URL, crawl_interval_minutes, is_active=false)</text></g><g class="message" data-participant-1="Ingest" data-participant-2="UI"><polygon fill="#181818" points="261.1123,927.7148,251.1123,931.7148,261.1123,935.7148,257.1123,931.7148" style="stroke:#181818;stroke-width:1;"/><line style="stroke:#181818;stroke-width:1;stroke-dasharray:2,2;" x1="255.1123" x2="1076.4731" y1="931.7148" y2="931.7148"/><text fill="#000000" font-family="sans-serif" font-size="13" font-weight="bold" lengthAdjust="spacing" textLength="17.1514" x="267.1123" y="926.9727">25</text><text fill="#000000" font-family="sans-serif" font-size="13" lengthAdjust="spacing" textLength="117.146" x="288.2637" y="926.9727">200 target created</text></g><path d="M10,953.7148 L77.1851,953.7148 L77.1851,961.0254 L67.1851,971.0254 L10,971.0254 L10,953.7148" fill="#EEEEEE" style="stroke:#000000;stroke-width:1.5;"/><rect fill="none" height="163.8633" style="stroke:#000000;stroke-width:1.5;" width="1570.4517" x="10" y="953.7148"/><text fill="#000000" font-family="sans-serif" font-size="13" font-weight="bold" lengthAdjust="spacing" textLength="22.1851" x="25" y="967.2832">opt</text><text fill="#000000" font-family="sans-serif" font-size="11" font-weight="bold" lengthAdjust="spacing" textLength="312.9468" x="92.1851" y="966.3496">[Dry-run &#273;&#227; &#273;&#7911; &#273;i&#7873;u ki&#7879;n v&#224; target c&#7847;n k&#237;ch ho&#7841;t ri&#234;ng]</text><g class="message" data-participant-1="User" data-participant-2="UI"><polygon fill="#181818" points="238.1123,988.3359,248.1123,992.3359,238.1123,996.3359,242.1123,992.3359" style="stroke:#181818;stroke-width:1;"/><line style="stroke:#181818;stroke-width:1;" x1="38.1826" x2="244.1123" y1="992.3359" y2="992.3359"/><text fill="#000000" font-family="sans-serif" font-size="13" font-weight="bold" lengthAdjust="spacing" textLength="17.1514" x="45.1826" y="987.5938">26</text><text fill="#000000" font-family="sans-serif" font-size="13" lengthAdjust="spacing" textLength="100.8643" x="66.334" y="987.5938">K&#237;ch ho&#7841;t target</text></g><g class="message" data-participant-1="UI" data-participant-2="Ingest"><polygon fill="#181818" points="1065.4731,1017.6465,1075.4731,1021.6465,1065.4731,1025.6465,1069.4731,1021.6465" style="stroke:#181818;stroke-width:1;"/><line style="stroke:#181818;stroke-width:1;" x1="250.1123" x2="1071.4731" y1="1021.6465" y2="1021.6465"/><text fill="#000000" font-family="sans-serif" font-size="13" font-weight="bold" lengthAdjust="spacing" textLength="17.1514" x="257.1123" y="1016.9043">27</text><text fill="#000000" font-family="sans-serif" font-size="13" lengthAdjust="spacing" textLength="372.5693" x="278.2637" y="1016.9043">POST /datasources/{source_id}/targets/{target_id}/activate</text></g><g class="message" data-participant-1="Ingest" data-participant-2="PG"><polygon fill="#181818" points="1517.0269,1046.957,1527.0269,1050.957,1517.0269,1054.957,1521.0269,1050.957" style="stroke:#181818;stroke-width:1;"/><line style="stroke:#181818;stroke-width:1;" x1="1077.4731" x2="1523.0269" y1="1050.957" y2="1050.957"/><text fill="#000000" font-family="sans-serif" font-size="13" font-weight="bold" lengthAdjust="spacing" textLength="17.1514" x="1084.4731" y="1046.2148">28</text><text fill="#000000" font-family="sans-serif" font-size="13" lengthAdjust="spacing" textLength="222.5996" x="1105.6245" y="1046.2148">Get target + source + latest dryrun</text></g><g class="message" data-participant-1="Ingest" data-participant-2="PG"><polygon fill="#181818" points="1517.0269,1076.2676,1527.0269,1080.2676,1517.0269,1084.2676,1521.0269,1080.2676" style="stroke:#181818;stroke-width:1;"/><line style="stroke:#181818;stroke-width:1;" x1="1077.4731" x2="1523.0269" y1="1080.2676" y2="1080.2676"/><text fill="#000000" font-family="sans-serif" font-size="13" font-weight="bold" lengthAdjust="spacing" textLength="17.1514" x="1084.4731" y="1075.5254">29</text><text fill="#000000" font-family="sans-serif" font-size="13" lengthAdjust="spacing" textLength="225.6528" x="1105.6245" y="1075.5254">Update crawl_targets.is_active=true</text></g><g class="message" data-participant-1="Ingest" data-participant-2="UI"><polygon fill="#181818" points="261.1123,1105.5781,251.1123,1109.5781,261.1123,1113.5781,257.1123,1109.5781" style="stroke:#181818;stroke-width:1;"/><line style="stroke:#181818;stroke-width:1;stroke-dasharray:2,2;" x1="255.1123" x2="1076.4731" y1="1109.5781" y2="1109.5781"/><text fill="#000000" font-family="sans-serif" font-size="13" font-weight="bold" lengthAdjust="spacing" textLength="17.1514" x="267.1123" y="1104.8359">30</text><text fill="#000000" font-family="sans-serif" font-size="13" lengthAdjust="spacing" textLength="127.1118" x="288.2637" y="1104.8359">200 target activated</text></g><g class="message" data-participant-1="User" data-participant-2="UI"><polygon fill="#181818" points="238.1123,1141.8887,248.1123,1145.8887,238.1123,1149.8887,242.1123,1145.8887" style="stroke:#181818;stroke-width:1;"/><line style="stroke:#181818;stroke-width:1;" x1="38.1826" x2="244.1123" y1="1145.8887" y2="1145.8887"/><text fill="#000000" font-family="sans-serif" font-size="13" font-weight="bold" lengthAdjust="spacing" textLength="17.1514" x="45.1826" y="1141.1465">31</text><text fill="#000000" font-family="sans-serif" font-size="13" lengthAdjust="spacing" textLength="98.5791" x="66.334" y="1141.1465">Activate project</text></g><g class="message" data-participant-1="UI" data-participant-2="Project"><polygon fill="#181818" points="538.6489,1171.1992,548.6489,1175.1992,538.6489,1179.1992,542.6489,1175.1992" style="stroke:#181818;stroke-width:1;"/><line style="stroke:#181818;stroke-width:1;" x1="250.1123" x2="544.6489" y1="1175.1992" y2="1175.1992"/><text fill="#000000" font-family="sans-serif" font-size="13" font-weight="bold" lengthAdjust="spacing" textLength="17.1514" x="257.1123" y="1170.457">32</text><text fill="#000000" font-family="sans-serif" font-size="13" lengthAdjust="spacing" textLength="227.4746" x="278.2637" y="1170.457">POST /projects/{project_id}/activate</text></g><g class="message" data-participant-1="Project" data-participant-2="PG"><polygon fill="#181818" points="1517.0269,1200.5098,1527.0269,1204.5098,1517.0269,1208.5098,1521.0269,1204.5098" style="stroke:#181818;stroke-width:1;"/><line style="stroke:#181818;stroke-width:1;" x1="550.6489" x2="1523.0269" y1="1204.5098" y2="1204.5098"/><text fill="#000000" font-family="sans-serif" font-size="13" font-weight="bold" lengthAdjust="spacing" textLength="17.1514" x="557.6489" y="1199.7676">33</text><text fill="#000000" font-family="sans-serif" font-size="13" lengthAdjust="spacing" textLength="194.6445" x="578.8003" y="1199.7676">Detail project + validate status</text></g><g class="message" data-participant-1="Project" data-participant-2="Ingest"><polygon fill="#181818" points="1065.4731,1229.8203,1075.4731,1233.8203,1065.4731,1237.8203,1069.4731,1233.8203" style="stroke:#181818;stroke-width:1;"/><line style="stroke:#181818;stroke-width:1;" x1="550.6489" x2="1071.4731" y1="1233.8203" y2="1233.8203"/><text fill="#000000" font-family="sans-serif" font-size="13" font-weight="bold" lengthAdjust="spacing" textLength="17.1514" x="557.6489" y="1229.0781">34</text><text fill="#000000" font-family="sans-serif" font-size="13" lengthAdjust="spacing" textLength="481.6729" x="578.8003" y="1229.0781">GET /internal/projects/{project_id}/activation-readiness?command=activate</text></g><g class="message" data-participant-1="Ingest" data-participant-2="PG"><polygon fill="#181818" points="1517.0269,1259.1309,1527.0269,1263.1309,1517.0269,1267.1309,1521.0269,1263.1309" style="stroke:#181818;stroke-width:1;"/><line style="stroke:#181818;stroke-width:1;" x1="1077.4731" x2="1523.0269" y1="1263.1309" y2="1263.1309"/><text fill="#000000" font-family="sans-serif" font-size="13" font-weight="bold" lengthAdjust="spacing" textLength="17.1514" x="1084.4731" y="1258.3887">35</text><text fill="#000000" font-family="sans-serif" font-size="13" lengthAdjust="spacing" textLength="179.8228" x="1105.6245" y="1258.3887">List data_sources(project_id)</text></g><path d="M997.5483,1278.1309 L1071.9951,1278.1309 L1071.9951,1285.4414 L1061.9951,1295.4414 L997.5483,1295.4414 L997.5483,1278.1309" fill="#EEEEEE" style="stroke:#000000;stroke-width:1.5;"/><rect fill="none" height="107.2422" style="stroke:#000000;stroke-width:1.5;" width="592.9033" x="997.5483" y="1278.1309"/><text fill="#000000" font-family="sans-serif" font-size="13" font-weight="bold" lengthAdjust="spacing" textLength="29.4468" x="1012.5483" y="1291.6992">loop</text><text fill="#000000" font-family="sans-serif" font-size="11" font-weight="bold" lengthAdjust="spacing" textLength="129.5132" x="1086.9951" y="1290.7656">[m&#7895;i crawl datasource]</text><g class="message" data-participant-1="Ingest" data-participant-2="PG"><polygon fill="#181818" points="1517.0269,1312.752,1527.0269,1316.752,1517.0269,1320.752,1521.0269,1316.752" style="stroke:#181818;stroke-width:1;"/><line style="stroke:#181818;stroke-width:1;" x1="1077.4731" x2="1523.0269" y1="1316.752" y2="1316.752"/><text fill="#000000" font-family="sans-serif" font-size="13" font-weight="bold" lengthAdjust="spacing" textLength="17.1514" x="1084.4731" y="1312.0098">36</text><text fill="#000000" font-family="sans-serif" font-size="13" lengthAdjust="spacing" textLength="178.7183" x="1105.6245" y="1312.0098">List crawl_targets(source_id)</text></g><path d="M1007.5483,1331.752 L1074.7334,1331.752 L1074.7334,1339.0625 L1064.7334,1349.0625 L1007.5483,1349.0625 L1007.5483,1331.752" fill="#EEEEEE" style="stroke:#000000;stroke-width:1.5;"/><rect fill="none" height="46.6211" style="stroke:#000000;stroke-width:1.5;" width="572.9033" x="1007.5483" y="1331.752"/><text fill="#000000" font-family="sans-serif" font-size="13" font-weight="bold" lengthAdjust="spacing" textLength="22.1851" x="1022.5483" y="1345.3203">opt</text><text fill="#000000" font-family="sans-serif" font-size="11" font-weight="bold" lengthAdjust="spacing" textLength="158.2002" x="1089.7334" y="1344.3867">[source/target c&#7847;n dry-run]</text><g class="message" data-participant-1="Ingest" data-participant-2="PG"><polygon fill="#181818" points="1517.0269,1366.373,1527.0269,1370.373,1517.0269,1374.373,1521.0269,1370.373" style="stroke:#181818;stroke-width:1;"/><line style="stroke:#181818;stroke-width:1;" x1="1077.4731" x2="1523.0269" y1="1370.373" y2="1370.373"/><text fill="#000000" font-family="sans-serif" font-size="13" font-weight="bold" lengthAdjust="spacing" textLength="17.1514" x="1084.4731" y="1365.6309">37</text><text fill="#000000" font-family="sans-serif" font-size="13" lengthAdjust="spacing" textLength="222.1743" x="1105.6245" y="1365.6309">GetLatestDryrunByTarget(target_id)</text></g><path d="M182.9766,1399.373 L245.1152,1399.373 L245.1152,1406.6836 L235.1152,1416.6836 L182.9766,1416.6836 L182.9766,1399.373" fill="#EEEEEE" style="stroke:#000000;stroke-width:1.5;"/><rect fill="none" height="266.75" style="stroke:#000000;stroke-width:1.5;" width="1397.4751" x="182.9766" y="1399.373"/><text fill="#000000" font-family="sans-serif" font-size="13" font-weight="bold" lengthAdjust="spacing" textLength="17.1387" x="197.9766" y="1412.9414">alt</text><text fill="#000000" font-family="sans-serif" font-size="11" font-weight="bold" lengthAdjust="spacing" textLength="113.6953" x="260.1152" y="1412.0078">[Readiness blocked]</text><g class="message" data-participant-1="Ingest" data-participant-2="Project"><polygon fill="#181818" points="561.6489,1433.9941,551.6489,1437.9941,561.6489,1441.9941,557.6489,1437.9941" style="stroke:#181818;stroke-width:1;"/><line style="stroke:#181818;stroke-width:1;stroke-dasharray:2,2;" x1="555.6489" x2="1076.4731" y1="1437.9941" y2="1437.9941"/><text fill="#000000" font-family="sans-serif" font-size="13" font-weight="bold" lengthAdjust="spacing" textLength="17.1514" x="567.6489" y="1433.252">38</text><text fill="#000000" font-family="sans-serif" font-size="13" lengthAdjust="spacing" textLength="127.3657" x="588.8003" y="1433.252">can_proceed = false</text></g><g class="message" data-participant-1="Project" data-participant-2="UI"><polygon fill="#181818" points="261.1123,1463.3047,251.1123,1467.3047,261.1123,1471.3047,257.1123,1467.3047" style="stroke:#181818;stroke-width:1;"/><line style="stroke:#181818;stroke-width:1;stroke-dasharray:2,2;" x1="255.1123" x2="549.6489" y1="1467.3047" y2="1467.3047"/><text fill="#000000" font-family="sans-serif" font-size="13" font-weight="bold" lengthAdjust="spacing" textLength="17.1514" x="267.1123" y="1462.5625">39</text><text fill="#000000" font-family="sans-serif" font-size="13" lengthAdjust="spacing" textLength="143.0381" x="288.2637" y="1462.5625">4xx activation blocked</text></g><line style="stroke:#000000;stroke-width:1;stroke-dasharray:2,2;" x1="182.9766" x2="1580.4517" y1="1476.3047" y2="1476.3047"/><text fill="#000000" font-family="sans-serif" font-size="11" font-weight="bold" lengthAdjust="spacing" textLength="109.1836" x="187.9766" y="1486.9395">[Readiness passed]</text><g class="message" data-participant-1="Ingest" data-participant-2="Project"><polygon fill="#181818" points="561.6489,1507.5703,551.6489,1511.5703,561.6489,1515.5703,557.6489,1511.5703" style="stroke:#181818;stroke-width:1;"/><line style="stroke:#181818;stroke-width:1;stroke-dasharray:2,2;" x1="555.6489" x2="1076.4731" y1="1511.5703" y2="1511.5703"/><text fill="#000000" font-family="sans-serif" font-size="13" font-weight="bold" lengthAdjust="spacing" textLength="17.1514" x="567.6489" y="1506.8281">40</text><text fill="#000000" font-family="sans-serif" font-size="13" lengthAdjust="spacing" textLength="123.2715" x="588.8003" y="1506.8281">can_proceed = true</text></g><g class="message" data-participant-1="Project" data-participant-2="Ingest"><polygon fill="#181818" points="1065.4731,1536.8809,1075.4731,1540.8809,1065.4731,1544.8809,1069.4731,1540.8809" style="stroke:#181818;stroke-width:1;"/><line style="stroke:#181818;stroke-width:1;" x1="550.6489" x2="1071.4731" y1="1540.8809" y2="1540.8809"/><text fill="#000000" font-family="sans-serif" font-size="13" font-weight="bold" lengthAdjust="spacing" textLength="17.1514" x="557.6489" y="1536.1387">41</text><text fill="#000000" font-family="sans-serif" font-size="13" lengthAdjust="spacing" textLength="282.5469" x="578.8003" y="1536.1387">POST /internal/projects/{project_id}/activate</text></g><g class="message" data-participant-1="Ingest" data-participant-2="PG"><polygon fill="#181818" points="1517.0269,1566.1914,1527.0269,1570.1914,1517.0269,1574.1914,1521.0269,1570.1914" style="stroke:#181818;stroke-width:1;"/><line style="stroke:#181818;stroke-width:1;" x1="1077.4731" x2="1523.0269" y1="1570.1914" y2="1570.1914"/><text fill="#000000" font-family="sans-serif" font-size="13" font-weight="bold" lengthAdjust="spacing" textLength="17.1514" x="1084.4731" y="1565.4492">42</text><text fill="#000000" font-family="sans-serif" font-size="13" lengthAdjust="spacing" textLength="347.3438" x="1105.6245" y="1565.4492">UpdateProjectDataSourcesLifecycle(project_id, activate)</text></g><g class="message" data-participant-1="Ingest" data-participant-2="Project"><polygon fill="#181818" points="561.6489,1595.502,551.6489,1599.502,561.6489,1603.502,557.6489,1599.502" style="stroke:#181818;stroke-width:1;"/><line style="stroke:#181818;stroke-width:1;stroke-dasharray:2,2;" x1="555.6489" x2="1076.4731" y1="1599.502" y2="1599.502"/><text fill="#000000" font-family="sans-serif" font-size="13" font-weight="bold" lengthAdjust="spacing" textLength="17.1514" x="567.6489" y="1594.7598">43</text><text fill="#000000" font-family="sans-serif" font-size="13" lengthAdjust="spacing" textLength="204.147" x="588.8003" y="1594.7598">200 affected_data_source_count</text></g><g class="message" data-participant-1="Project" data-participant-2="PG"><polygon fill="#181818" points="1517.0269,1624.8125,1527.0269,1628.8125,1517.0269,1632.8125,1521.0269,1628.8125" style="stroke:#181818;stroke-width:1;"/><line style="stroke:#181818;stroke-width:1;" x1="550.6489" x2="1523.0269" y1="1628.8125" y2="1628.8125"/><text fill="#000000" font-family="sans-serif" font-size="13" font-weight="bold" lengthAdjust="spacing" textLength="17.1514" x="557.6489" y="1624.0703">44</text><text fill="#000000" font-family="sans-serif" font-size="13" lengthAdjust="spacing" textLength="199.3481" x="578.8003" y="1624.0703">Update project status = ACTIVE</text></g><g class="message" data-participant-1="Project" data-participant-2="UI"><polygon fill="#181818" points="261.1123,1654.123,251.1123,1658.123,261.1123,1662.123,257.1123,1658.123" style="stroke:#181818;stroke-width:1;"/><line style="stroke:#181818;stroke-width:1;stroke-dasharray:2,2;" x1="255.1123" x2="549.6489" y1="1658.123" y2="1658.123"/><text fill="#000000" font-family="sans-serif" font-size="13" font-weight="bold" lengthAdjust="spacing" textLength="17.1514" x="267.1123" y="1653.3809">45</text><text fill="#000000" font-family="sans-serif" font-size="13" lengthAdjust="spacing" textLength="133.7451" x="288.2637" y="1653.3809">200 project activated</text></g><!--SRC=[lLPDRzD04BtxLunwIjM65CG1LIgeRKfK4MX8ao8a96jhRvCbpgwrkquQLHmuSUR45OHG9KHldDfZ-2Fv9uozQyVEHrkrY8krydozzsPsR19fmQF-CPMEwZ4U4adw8AaA1LVq9LMATEWE3SHmMqen12qZcdDi4AcPnqB2TOFuFkCTUFWaPzyHfzdx3SSXdXOIsWgBXTD8QEy3KR1IOqI0poPNd_XAmTwGuZtrTE8KcdDPoK7HQPztg38-B3aQ5vzeSamKXKOjiJM4qXr93r_NLnmdHWBbfmXW4rvr9vSN8UZk-3UYrOo3H_eXOHtk83vqiYWseN5ms89AQbLE2Y_sgMqY4Cogfz6PsHPwjB6H6S6Jb6ZgtmJ5ihu1IUKiFRhC_r2nGNC0ZqZ0K1OwHR46lkWJnfTGIQilOc9jYudiJYv_HD0T_-9TY1kXH2Gzh2l9CB1SJDjIAbCdvTY65g743gxrUCTBIIQtBtowRhAwZ6ig1mHVCXvfgbQpF3dG1ImMDmaqj8ZiK0s1c5n-Oz2Zew6GlWEGvzH2cqXje9E8sELwDfKpSqWQOu9KnIPH6BwGh65alP6jERbw5DAj5tjltnmqgyjehmDJBbutDg1R9oHGT3LN9AU4IPcfGD5pHWLiy0aBw48LhEr-AjWaTrAXqJnulb_V-myguDfOB04QxiaVCzoDFAPtsytwlsRFyJQ8K4DLZieoul3dy_WxFYPNv_Z4zVmnWbwofM4m_ff5JoxFEVJ65ruNkh5c6YGR_-IT6TLUv3tkfTkPrI9-bx14z7CorcXQ1PUSlV9h4A0h-lXoXFpcOjgXsOvvwHzCfKm-WTS9cOAnKkRPRrlJzGizNToLCtigSfnPqbMg2GkoHRm6WtI_AqrqL5Z_gSArFIoJp0idmVNrcE1bd0pyXkFFm3DFzFk4-riPcA9qTQQAExeqpRZg14A4q9zSVM56tDmUdcj2agdGWb8s0_4SnmDgNbGA4-YReKMF1QDGJ_fUJTg-Cp8tl9IDKPmsxbZIjVXpq4nfmt4Wl1xrYstFkkOHxY9FZr8VjY2vQkWv-xLyV7eAKqspbCcocLOAYLAtB6G7SK5xpHZThhzqoVpRj5LiqQ7fPPsTK6_a1JJNrFLisbUNO8ul1Zd1IBmGRcuqN4z4N1VnvsvVEivcXf7jzcvh_sXlWQxvlv32rViB]--></g></svg>