<svg xmlns="http://www.w3.org/2000/svg" xmlns:xlink="http://www.w3.org/1999/xlink" contentStyleType="text/css" data-diagram-type="SEQUENCE" height="1010px" preserveAspectRatio="none" style="width:2220px;height:1010px;background:#FFFFFF;" version="1.1" viewBox="0 0 2220 1010" width="2220px" zoomAndPan="magnify"><defs/><g><rect fill="none" height="224.4844" style="stroke:#000000;stroke-width:1.5;" width="1389.8208" x="10" y="113.7988"/><rect fill="none" height="105.2422" style="stroke:#000000;stroke-width:1.5;" width="1047.5371" x="342.2837" y="226.041"/><rect fill="none" height="342.6816" style="stroke:#000000;stroke-width:1.5;" width="1686.5796" x="526.5815" y="572.7676"/><rect fill="none" height="46.6211" style="stroke:#000000;stroke-width:1.5;" width="1333.6841" x="869.4771" y="803.207"/><g><title>Scheduler</title><rect fill="#000000" fill-opacity="0.00000" height="864.9609" width="8" x="80.4775" y="67.4883"/><line style="stroke:#181818;stroke-width:0.5;stroke-dasharray:5,5;" x1="84" x2="84" y1="67.4883" y2="932.4492"/></g><g><title>Execution usecase</title><rect fill="#000000" fill-opacity="0.00000" height="864.9609" width="8" x="435.4326" y="67.4883"/><line style="stroke:#181818;stroke-width:0.5;stroke-dasharray:5,5;" x1="439.2837" x2="439.2837" y1="67.4883" y2="932.4492"/></g><g><title>Completion consumer</title><rect fill="#000000" fill-opacity="0.00000" height="864.9609" width="8" x="632.5308" y="67.4883"/><line style="stroke:#181818;stroke-width:0.5;stroke-dasharray:5,5;" x1="635.5815" x2="635.5815" y1="67.4883" y2="932.4492"/></g><g><title>UAP parser</title><rect fill="#000000" fill-opacity="0.00000" height="864.9609" width="8" x="939.9546" y="67.4883"/><line style="stroke:#181818;stroke-width:0.5;stroke-dasharray:5,5;" x1="943.4771" x2="943.4771" y1="67.4883" y2="932.4492"/></g><g><title>PostgreSQL</title><rect fill="#000000" fill-opacity="0.00000" height="864.9609" width="8" x="1237.9712" y="67.4883"/><line style="stroke:#181818;stroke-width:0.5;stroke-dasharray:5,5;" x1="1241.5464" x2="1241.5464" y1="67.4883" y2="932.4492"/></g><g><title>RabbitMQ</title><rect fill="#000000" fill-opacity="0.00000" height="864.9609" width="8" x="1332.6084" y="67.4883"/><line style="stroke:#181818;stroke-width:0.5;stroke-dasharray:5,5;" x1="1336.396" x2="1336.396" y1="67.4883" y2="932.4492"/></g><g><title>scapper-srv worker</title><rect fill="#000000" fill-opacity="0.00000" height="864.9609" width="8" x="1582.0908" y="67.4883"/><line style="stroke:#181818;stroke-width:0.5;stroke-dasharray:5,5;" x1="1585.7617" x2="1585.7617" y1="67.4883" y2="932.4492"/></g><g><title>TikTok . Facebook . YouTube</title><rect fill="#000000" fill-opacity="0.00000" height="864.9609" width="8" x="1827.3838" y="67.4883"/><line style="stroke:#181818;stroke-width:0.5;stroke-dasharray:5,5;" x1="1830.542" x2="1830.542" y1="67.4883" y2="932.4492"/></g><g><title>MinIO</title><rect fill="#000000" fill-opacity="0.00000" height="864.9609" width="8" x="1989.0771" y="67.4883"/><line style="stroke:#181818;stroke-width:0.5;stroke-dasharray:5,5;" x1="1992.2256" x2="1992.2256" y1="67.4883" y2="932.4492"/></g><g><title>Redpanda . Kafka API</title><rect fill="#000000" fill-opacity="0.00000" height="864.9609" width="8" x="2105.5449" y="67.4883"/><line style="stroke:#181818;stroke-width:0.5;stroke-dasharray:5,5;" x1="2108.9287" x2="2108.9287" y1="67.4883" y2="932.4492"/></g><g class="participant participant-head" data-participant="Scheduler"><rect fill="#E2E2F0" height="46.9766" rx="2.5" ry="2.5" style="stroke:#181818;stroke-width:0.5;" width="92.9551" x="38" y="19.5117"/><text fill="#000000" font-family="sans-serif" font-size="14" lengthAdjust="spacing" textLength="66.2744" x="51.3403" y="40.0469">Scheduler</text><text fill="#000000" font-family="sans-serif" font-size="14" lengthAdjust="spacing" textLength="78.9551" x="45" y="56.5352">(ingest-srv)</text></g><g class="participant participant-tail" data-participant="Scheduler"><rect fill="#E2E2F0" height="46.9766" rx="2.5" ry="2.5" style="stroke:#181818;stroke-width:0.5;" width="92.9551" x="38" y="931.4492"/><text fill="#000000" font-family="sans-serif" font-size="14" lengthAdjust="spacing" textLength="66.2744" x="51.3403" y="951.9844">Scheduler</text><text fill="#000000" font-family="sans-serif" font-size="14" lengthAdjust="spacing" textLength="78.9551" x="45" y="968.4727">(ingest-srv)</text></g><g class="participant participant-head" data-participant="Exec"><rect fill="#E2E2F0" height="46.9766" rx="2.5" ry="2.5" style="stroke:#181818;stroke-width:0.5;" width="138.2979" x="370.2837" y="19.5117"/><text fill="#000000" font-family="sans-serif" font-size="14" lengthAdjust="spacing" textLength="124.2979" x="377.2837" y="40.0469">Execution usecase</text><text fill="#000000" font-family="sans-serif" font-size="14" lengthAdjust="spacing" textLength="78.9551" x="399.9551" y="56.5352">(ingest-srv)</text></g><g class="participant participant-tail" data-participant="Exec"><rect fill="#E2E2F0" height="46.9766" rx="2.5" ry="2.5" style="stroke:#181818;stroke-width:0.5;" width="138.2979" x="370.2837" y="931.4492"/><text fill="#000000" font-family="sans-serif" font-size="14" lengthAdjust="spacing" textLength="124.2979" x="377.2837" y="951.9844">Execution usecase</text><text fill="#000000" font-family="sans-serif" font-size="14" lengthAdjust="spacing" textLength="78.9551" x="399.9551" y="968.4727">(ingest-srv)</text></g><g class="participant participant-head" data-participant="Completion"><rect fill="#E2E2F0" height="46.9766" rx="2.5" ry="2.5" style="stroke:#181818;stroke-width:0.5;" width="163.8984" x="554.5815" y="19.5117"/><text fill="#000000" font-family="sans-serif" font-size="14" lengthAdjust="spacing" textLength="149.8984" x="561.5815" y="40.0469">Completion consumer</text><text fill="#000000" font-family="sans-serif" font-size="14" lengthAdjust="spacing" textLength="78.9551" x="597.0532" y="56.5352">(ingest-srv)</text></g><g class="participant participant-tail" data-participant="Completion"><rect fill="#E2E2F0" height="46.9766" rx="2.5" ry="2.5" style="stroke:#181818;stroke-width:0.5;" width="163.8984" x="554.5815" y="931.4492"/><text fill="#000000" font-family="sans-serif" font-size="14" lengthAdjust="spacing" textLength="149.8984" x="561.5815" y="951.9844">Completion consumer</text><text fill="#000000" font-family="sans-serif" font-size="14" lengthAdjust="spacing" textLength="78.9551" x="597.0532" y="968.4727">(ingest-srv)</text></g><g class="participant participant-head" data-participant="UAP"><rect fill="#E2E2F0" height="46.9766" rx="2.5" ry="2.5" style="stroke:#181818;stroke-width:0.5;" width="92.9551" x="897.4771" y="19.5117"/><text fill="#000000" font-family="sans-serif" font-size="14" lengthAdjust="spacing" textLength="74.4639" x="906.7227" y="40.0469">UAP parser</text><text fill="#000000" font-family="sans-serif" font-size="14" lengthAdjust="spacing" textLength="78.9551" x="904.4771" y="56.5352">(ingest-srv)</text></g><g class="participant participant-tail" data-participant="UAP"><rect fill="#E2E2F0" height="46.9766" rx="2.5" ry="2.5" style="stroke:#181818;stroke-width:0.5;" width="92.9551" x="897.4771" y="931.4492"/><text fill="#000000" font-family="sans-serif" font-size="14" lengthAdjust="spacing" textLength="74.4639" x="906.7227" y="951.9844">UAP parser</text><text fill="#000000" font-family="sans-serif" font-size="14" lengthAdjust="spacing" textLength="78.9551" x="904.4771" y="968.4727">(ingest-srv)</text></g><g class="participant participant-head" data-participant="PG"><text fill="#000000" font-family="sans-serif" font-size="14" lengthAdjust="spacing" textLength="76.8496" x="1200.5464" y="64.5352">PostgreSQL</text><path d="M1223.9712,15 C1223.9712,5 1241.9712,5 1241.9712,5 C1241.9712,5 1259.9712,5 1259.9712,15 L1259.9712,41 C1259.9712,51 1241.9712,51 1241.9712,51 C1241.9712,51 1223.9712,51 1223.9712,41 L1223.9712,15" fill="#E2E2F0" style="stroke:#181818;stroke-width:0.5;"/><path d="M1223.9712,15 C1223.9712,25 1241.9712,25 1241.9712,25 C1241.9712,25 1259.9712,25 1259.9712,15" fill="none" style="stroke:#181818;stroke-width:0.5;"/></g><g class="participant participant-tail" data-participant="PG"><text fill="#000000" font-family="sans-serif" font-size="14" lengthAdjust="spacing" textLength="76.8496" x="1200.5464" y="944.9844">PostgreSQL</text><path d="M1223.9712,957.9375 C1223.9712,947.9375 1241.9712,947.9375 1241.9712,947.9375 C1241.9712,947.9375 1259.9712,947.9375 1259.9712,957.9375 L1259.9712,983.9375 C1259.9712,993.9375 1241.9712,993.9375 1241.9712,993.9375 C1241.9712,993.9375 1223.9712,993.9375 1223.9712,983.9375 L1223.9712,957.9375" fill="#E2E2F0" style="stroke:#181818;stroke-width:0.5;"/><path d="M1223.9712,957.9375 C1223.9712,967.9375 1241.9712,967.9375 1241.9712,967.9375 C1241.9712,967.9375 1259.9712,967.9375 1259.9712,957.9375" fill="none" style="stroke:#181818;stroke-width:0.5;"/></g><g class="participant participant-head" data-participant="Rabbit"><path d="M1298.396,41 L1374.8208,41 C1379.8208,41 1379.8208,54.2441 1379.8208,54.2441 C1379.8208,54.2441 1379.8208,67.4883 1374.8208,67.4883 L1298.396,67.4883 C1293.396,67.4883 1293.396,54.2441 1293.396,54.2441 C1293.396,54.2441 1293.396,41 1298.396,41" fill="#E2E2F0" style="stroke:#181818;stroke-width:0.5;"/><path d="M1374.8208,41 C1369.8208,41 1369.8208,54.2441 1369.8208,54.2441 C1369.8208,67.4883 1374.8208,67.4883 1374.8208,67.4883" fill="none" style="stroke:#181818;stroke-width:0.5;"/><text fill="#000000" font-family="sans-serif" font-size="14" lengthAdjust="spacing" textLength="66.4248" x="1298.396" y="59.5352">RabbitMQ</text></g><g class="participant participant-tail" data-participant="Rabbit"><path d="M1298.396,931.4492 L1374.8208,931.4492 C1379.8208,931.4492 1379.8208,944.6934 1379.8208,944.6934 C1379.8208,944.6934 1379.8208,957.9375 1374.8208,957.9375 L1298.396,957.9375 C1293.396,957.9375 1293.396,944.6934 1293.396,944.6934 C1293.396,944.6934 1293.396,931.4492 1298.396,931.4492" fill="#E2E2F0" style="stroke:#181818;stroke-width:0.5;"/><path d="M1374.8208,931.4492 C1369.8208,931.4492 1369.8208,944.6934 1369.8208,944.6934 C1369.8208,957.9375 1374.8208,957.9375 1374.8208,957.9375" fill="none" style="stroke:#181818;stroke-width:0.5;"/><text fill="#000000" font-family="sans-serif" font-size="14" lengthAdjust="spacing" textLength="66.4248" x="1298.396" y="949.9844">RabbitMQ</text></g><g class="participant participant-head" data-participant="Worker"><rect fill="#E2E2F0" height="30.4883" rx="2.5" ry="2.5" style="stroke:#181818;stroke-width:0.5;" width="146.6582" x="1512.7617" y="36"/><text fill="#000000" font-family="sans-serif" font-size="14" lengthAdjust="spacing" textLength="132.6582" x="1519.7617" y="56.5352">scapper-srv worker</text></g><g class="participant participant-tail" data-participant="Worker"><rect fill="#E2E2F0" height="30.4883" rx="2.5" ry="2.5" style="stroke:#181818;stroke-width:0.5;" width="146.6582" x="1512.7617" y="931.4492"/><text fill="#000000" font-family="sans-serif" font-size="14" lengthAdjust="spacing" textLength="132.6582" x="1519.7617" y="951.9844">scapper-srv worker</text></g><g class="participant participant-head" data-participant="Social"><rect fill="#E2E2F0" height="30.4883" style="stroke:#181818;stroke-width:0.5;" width="217.6836" x="1724.542" y="32"/><rect fill="#E2E2F0" height="30.4883" style="stroke:#181818;stroke-width:0.5;" width="217.6836" x="1720.542" y="36"/><text fill="#000000" font-family="sans-serif" font-size="14" lengthAdjust="spacing" textLength="203.6836" x="1727.542" y="56.5352">TikTok / Facebook / YouTube</text></g><g class="participant participant-tail" data-participant="Social"><rect fill="#E2E2F0" height="30.4883" style="stroke:#181818;stroke-width:0.5;" width="217.6836" x="1724.542" y="931.4492"/><rect fill="#E2E2F0" height="30.4883" style="stroke:#181818;stroke-width:0.5;" width="217.6836" x="1720.542" y="935.4492"/><text fill="#000000" font-family="sans-serif" font-size="14" lengthAdjust="spacing" textLength="203.6836" x="1727.542" y="955.9844">TikTok / Facebook / YouTube</text></g><g class="participant participant-head" data-participant="MinIO"><text fill="#000000" font-family="sans-serif" font-size="14" lengthAdjust="spacing" textLength="39.7031" x="1970.2256" y="64.5352">MinIO</text><path d="M1975.0771,15 C1975.0771,5 1993.0771,5 1993.0771,5 C1993.0771,5 2011.0771,5 2011.0771,15 L2011.0771,41 C2011.0771,51 1993.0771,51 1993.0771,51 C1993.0771,51 1975.0771,51 1975.0771,41 L1975.0771,15" fill="#E2E2F0" style="stroke:#181818;stroke-width:0.5;"/><path d="M1975.0771,15 C1975.0771,25 1993.0771,25 1993.0771,25 C1993.0771,25 2011.0771,25 2011.0771,15" fill="none" style="stroke:#181818;stroke-width:0.5;"/></g><g class="participant participant-tail" data-participant="MinIO"><text fill="#000000" font-family="sans-serif" font-size="14" lengthAdjust="spacing" textLength="39.7031" x="1970.2256" y="944.9844">MinIO</text><path d="M1975.0771,957.9375 C1975.0771,947.9375 1993.0771,947.9375 1993.0771,947.9375 C1993.0771,947.9375 2011.0771,947.9375 2011.0771,957.9375 L2011.0771,983.9375 C2011.0771,993.9375 1993.0771,993.9375 1993.0771,993.9375 C1993.0771,993.9375 1975.0771,993.9375 1975.0771,983.9375 L1975.0771,957.9375" fill="#E2E2F0" style="stroke:#181818;stroke-width:0.5;"/><path d="M1975.0771,957.9375 C1975.0771,967.9375 1993.0771,967.9375 1993.0771,967.9375 C1993.0771,967.9375 2011.0771,967.9375 2011.0771,957.9375" fill="none" style="stroke:#181818;stroke-width:0.5;"/></g><g class="participant participant-head" data-participant="Stream"><path d="M2030.9287,41 L2188.1611,41 C2193.1611,41 2193.1611,54.2441 2193.1611,54.2441 C2193.1611,54.2441 2193.1611,67.4883 2188.1611,67.4883 L2030.9287,67.4883 C2025.9287,67.4883 2025.9287,54.2441 2025.9287,54.2441 C2025.9287,54.2441 2025.9287,41 2030.9287,41" fill="#E2E2F0" style="stroke:#181818;stroke-width:0.5;"/><path d="M2188.1611,41 C2183.1611,41 2183.1611,54.2441 2183.1611,54.2441 C2183.1611,67.4883 2188.1611,67.4883 2188.1611,67.4883" fill="none" style="stroke:#181818;stroke-width:0.5;"/><text fill="#000000" font-family="sans-serif" font-size="14" lengthAdjust="spacing" textLength="147.2324" x="2030.9287" y="59.5352">Redpanda / Kafka API</text></g><g class="participant participant-tail" data-participant="Stream"><path d="M2030.9287,931.4492 L2188.1611,931.4492 C2193.1611,931.4492 2193.1611,944.6934 2193.1611,944.6934 C2193.1611,944.6934 2193.1611,957.9375 2188.1611,957.9375 L2030.9287,957.9375 C2025.9287,957.9375 2025.9287,944.6934 2025.9287,944.6934 C2025.9287,944.6934 2025.9287,931.4492 2030.9287,931.4492" fill="#E2E2F0" style="stroke:#181818;stroke-width:0.5;"/><path d="M2188.1611,931.4492 C2183.1611,931.4492 2183.1611,944.6934 2183.1611,944.6934 C2183.1611,957.9375 2188.1611,957.9375 2188.1611,957.9375" fill="none" style="stroke:#181818;stroke-width:0.5;"/><text fill="#000000" font-family="sans-serif" font-size="14" lengthAdjust="spacing" textLength="147.2324" x="2030.9287" y="949.9844">Redpanda / Kafka API</text></g><g class="message" data-participant-1="Scheduler" data-participant-2="PG"><polygon fill="#181818" points="1229.9712,94.7988,1239.9712,98.7988,1229.9712,102.7988,1233.9712,98.7988" style="stroke:#181818;stroke-width:1;"/><line style="stroke:#181818;stroke-width:1;" x1="84.4775" x2="1235.9712" y1="98.7988" y2="98.7988"/><text fill="#000000" font-family="sans-serif" font-size="13" font-weight="bold" lengthAdjust="spacing" textLength="8.5757" x="91.4775" y="94.0566">1</text><text fill="#000000" font-family="sans-serif" font-size="13" lengthAdjust="spacing" textLength="165.8071" x="104.0532" y="94.0566">ListDueTargets(now, limit)</text></g><path d="M10,113.7988 L84.4468,113.7988 L84.4468,121.1094 L74.4468,131.1094 L10,131.1094 L10,113.7988" fill="#EEEEEE" style="stroke:#000000;stroke-width:1.5;"/><rect fill="none" height="224.4844" style="stroke:#000000;stroke-width:1.5;" width="1389.8208" x="10" y="113.7988"/><text fill="#000000" font-family="sans-serif" font-size="13" font-weight="bold" lengthAdjust="spacing" textLength="29.4468" x="25" y="127.3672">loop</text><text fill="#000000" font-family="sans-serif" font-size="11" font-weight="bold" lengthAdjust="spacing" textLength="91.7168" x="99.4468" y="126.4336">[m&#7895;i due target]</text><g class="message" data-participant-1="Scheduler" data-participant-2="PG"><polygon fill="#181818" points="1229.9712,148.4199,1239.9712,152.4199,1229.9712,156.4199,1233.9712,152.4199" style="stroke:#181818;stroke-width:1;"/><line style="stroke:#181818;stroke-width:1;" x1="84.4775" x2="1235.9712" y1="152.4199" y2="152.4199"/><text fill="#000000" font-family="sans-serif" font-size="13" font-weight="bold" lengthAdjust="spacing" textLength="8.5757" x="91.4775" y="147.6777">2</text><text fill="#000000" font-family="sans-serif" font-size="13" lengthAdjust="spacing" textLength="304.1353" x="104.0532" y="147.6777">ClaimTarget(source_id, target_id, next_crawl_at)</text></g><g class="message" data-participant-1="Scheduler" data-participant-2="Exec"><polygon fill="#181818" points="427.4326,177.7305,437.4326,181.7305,427.4326,185.7305,431.4326,181.7305" style="stroke:#181818;stroke-width:1;"/><line style="stroke:#181818;stroke-width:1;" x1="84.4775" x2="433.4326" y1="181.7305" y2="181.7305"/><text fill="#000000" font-family="sans-serif" font-size="13" font-weight="bold" lengthAdjust="spacing" textLength="8.5757" x="91.4775" y="176.9883">3</text><text fill="#000000" font-family="sans-serif" font-size="13" lengthAdjust="spacing" textLength="318.3794" x="104.0532" y="176.9883">DispatchDueTargets(..., trigger_type=SCHEDULED)</text></g><g class="message" data-participant-1="Exec" data-participant-2="PG"><polygon fill="#181818" points="1229.9712,207.041,1239.9712,211.041,1229.9712,215.041,1233.9712,211.041" style="stroke:#181818;stroke-width:1;"/><line style="stroke:#181818;stroke-width:1;" x1="439.4326" x2="1235.9712" y1="211.041" y2="211.041"/><text fill="#000000" font-family="sans-serif" font-size="13" font-weight="bold" lengthAdjust="spacing" textLength="8.5757" x="446.4326" y="206.2988">4</text><text fill="#000000" font-family="sans-serif" font-size="13" lengthAdjust="spacing" textLength="146.25" x="459.0083" y="206.2988">CreateScheduledJob(...)</text></g><path d="M342.2837,226.041 L416.7305,226.041 L416.7305,233.3516 L406.7305,243.3516 L342.2837,243.3516 L342.2837,226.041" fill="#EEEEEE" style="stroke:#000000;stroke-width:1.5;"/><rect fill="none" height="105.2422" style="stroke:#000000;stroke-width:1.5;" width="1047.5371" x="342.2837" y="226.041"/><text fill="#000000" font-family="sans-serif" font-size="13" font-weight="bold" lengthAdjust="spacing" textLength="29.4468" x="357.2837" y="239.6094">loop</text><text fill="#000000" font-family="sans-serif" font-size="11" font-weight="bold" lengthAdjust="spacing" textLength="110.8594" x="431.7305" y="238.6758">[m&#7895;i dispatch spec]</text><g class="message" data-participant-1="Exec" data-participant-2="PG"><polygon fill="#181818" points="1229.9712,260.6621,1239.9712,264.6621,1229.9712,268.6621,1233.9712,264.6621" style="stroke:#181818;stroke-width:1;"/><line style="stroke:#181818;stroke-width:1;" x1="439.4326" x2="1235.9712" y1="264.6621" y2="264.6621"/><text fill="#000000" font-family="sans-serif" font-size="13" font-weight="bold" lengthAdjust="spacing" textLength="8.5757" x="446.4326" y="259.9199">5</text><text fill="#000000" font-family="sans-serif" font-size="13" lengthAdjust="spacing" textLength="142.708" x="459.0083" y="259.9199">CreateExternalTask(...)</text></g><g class="message" data-participant-1="Exec" data-participant-2="Rabbit"><polygon fill="#181818" points="1324.6084,289.9727,1334.6084,293.9727,1324.6084,297.9727,1328.6084,293.9727" style="stroke:#181818;stroke-width:1;"/><line style="stroke:#181818;stroke-width:1;" x1="439.4326" x2="1330.6084" y1="293.9727" y2="293.9727"/><text fill="#000000" font-family="sans-serif" font-size="13" font-weight="bold" lengthAdjust="spacing" textLength="8.5757" x="446.4326" y="289.2305">6</text><text fill="#000000" font-family="sans-serif" font-size="13" lengthAdjust="spacing" textLength="249.5645" x="459.0083" y="289.2305">PublishDispatch(queue, action, params)</text></g><g class="message" data-participant-1="Exec" data-participant-2="PG"><polygon fill="#181818" points="1229.9712,319.2832,1239.9712,323.2832,1229.9712,327.2832,1233.9712,323.2832" style="stroke:#181818;stroke-width:1;"/><line style="stroke:#181818;stroke-width:1;" x1="439.4326" x2="1235.9712" y1="323.2832" y2="323.2832"/><text fill="#000000" font-family="sans-serif" font-size="13" font-weight="bold" lengthAdjust="spacing" textLength="8.5757" x="446.4326" y="318.541">7</text><text fill="#000000" font-family="sans-serif" font-size="13" lengthAdjust="spacing" textLength="194.2319" x="459.0083" y="318.541">MarkExternalTaskPublished(...)</text></g><g class="message" data-participant-1="Rabbit" data-participant-2="Worker"><polygon fill="#181818" points="1574.0908,362.5938,1584.0908,366.5938,1574.0908,370.5938,1578.0908,366.5938" style="stroke:#181818;stroke-width:1;"/><line style="stroke:#181818;stroke-width:1;stroke-dasharray:2,2;" x1="1336.6084" x2="1580.0908" y1="366.5938" y2="366.5938"/><text fill="#000000" font-family="sans-serif" font-size="13" font-weight="bold" lengthAdjust="spacing" textLength="8.5757" x="1343.6084" y="361.8516">8</text><text fill="#000000" font-family="sans-serif" font-size="13" lengthAdjust="spacing" textLength="133.4404" x="1356.1841" y="361.8516">Deliver task message</text></g><g class="message" data-participant-1="Worker" data-participant-2="Social"><polygon fill="#181818" points="1819.3838,391.9043,1829.3838,395.9043,1819.3838,399.9043,1823.3838,395.9043" style="stroke:#181818;stroke-width:1;"/><line style="stroke:#181818;stroke-width:1;" x1="1586.0908" x2="1825.3838" y1="395.9043" y2="395.9043"/><text fill="#000000" font-family="sans-serif" font-size="13" font-weight="bold" lengthAdjust="spacing" textLength="8.5757" x="1593.0908" y="391.1621">9</text><text fill="#000000" font-family="sans-serif" font-size="13" lengthAdjust="spacing" textLength="160.9258" x="1605.6665" y="391.1621">Crawl requested resource</text></g><g class="message" data-participant-1="Social" data-participant-2="Worker"><polygon fill="#181818" points="1597.0908,421.2148,1587.0908,425.2148,1597.0908,429.2148,1593.0908,425.2148" style="stroke:#181818;stroke-width:1;"/><line style="stroke:#181818;stroke-width:1;stroke-dasharray:2,2;" x1="1591.0908" x2="1830.3838" y1="425.2148" y2="425.2148"/><text fill="#000000" font-family="sans-serif" font-size="13" font-weight="bold" lengthAdjust="spacing" textLength="17.1514" x="1603.0908" y="420.4727">10</text><text fill="#000000" font-family="sans-serif" font-size="13" lengthAdjust="spacing" textLength="200.1416" x="1624.2422" y="420.4727">Raw posts / comments / videos</text></g><g class="message" data-participant-1="Worker" data-participant-2="MinIO"><polygon fill="#181818" points="1981.0771,450.5254,1991.0771,454.5254,1981.0771,458.5254,1985.0771,454.5254" style="stroke:#181818;stroke-width:1;"/><line style="stroke:#181818;stroke-width:1;" x1="1586.0908" x2="1987.0771" y1="454.5254" y2="454.5254"/><text fill="#000000" font-family="sans-serif" font-size="13" font-weight="bold" lengthAdjust="spacing" textLength="17.1514" x="1593.0908" y="449.7832">11</text><text fill="#000000" font-family="sans-serif" font-size="13" lengthAdjust="spacing" textLength="103.4922" x="1614.2422" y="449.7832">Save raw artifact</text></g><g class="message" data-participant-1="Worker" data-participant-2="Rabbit"><polygon fill="#181818" points="1347.6084,495.1465,1337.6084,499.1465,1347.6084,503.1465,1343.6084,499.1465" style="stroke:#181818;stroke-width:1;"/><line style="stroke:#181818;stroke-width:1;" x1="1341.6084" x2="1585.0908" y1="499.1465" y2="499.1465"/><text fill="#000000" font-family="sans-serif" font-size="13" font-weight="bold" lengthAdjust="spacing" textLength="17.1514" x="1353.6084" y="486.749">12</text><text fill="#000000" font-family="sans-serif" font-size="13" lengthAdjust="spacing" textLength="120.396" x="1374.7598" y="479.0938">Publish completion</text><text fill="#000000" font-family="sans-serif" font-size="13" lengthAdjust="spacing" textLength="204.3311" x="1374.7598" y="494.4043">queue=ingest_task_completions</text></g><g class="message" data-participant-1="Rabbit" data-participant-2="Completion"><polygon fill="#181818" points="647.5308,524.457,637.5308,528.457,647.5308,532.457,643.5308,528.457" style="stroke:#181818;stroke-width:1;"/><line style="stroke:#181818;stroke-width:1;stroke-dasharray:2,2;" x1="641.5308" x2="1335.6084" y1="528.457" y2="528.457"/><text fill="#000000" font-family="sans-serif" font-size="13" font-weight="bold" lengthAdjust="spacing" textLength="17.1514" x="653.5308" y="523.7148">13</text><text fill="#000000" font-family="sans-serif" font-size="13" lengthAdjust="spacing" textLength="177.8105" x="674.6821" y="523.7148">Deliver completion message</text></g><g class="message" data-participant-1="Completion" data-participant-2="PG"><polygon fill="#181818" points="1229.9712,553.7676,1239.9712,557.7676,1229.9712,561.7676,1233.9712,557.7676" style="stroke:#181818;stroke-width:1;"/><line style="stroke:#181818;stroke-width:1;" x1="636.5308" x2="1235.9712" y1="557.7676" y2="557.7676"/><text fill="#000000" font-family="sans-serif" font-size="13" font-weight="bold" lengthAdjust="spacing" textLength="17.1514" x="643.5308" y="553.0254">14</text><text fill="#000000" font-family="sans-serif" font-size="13" lengthAdjust="spacing" textLength="197.6216" x="664.6821" y="553.0254">GetCompletionContext(task_id)</text></g><path d="M526.5815,572.7676 L588.7202,572.7676 L588.7202,580.0781 L578.7202,590.0781 L526.5815,590.0781 L526.5815,572.7676" fill="#EEEEEE" style="stroke:#000000;stroke-width:1.5;"/><rect fill="none" height="342.6816" style="stroke:#000000;stroke-width:1.5;" width="1686.5796" x="526.5815" y="572.7676"/><text fill="#000000" font-family="sans-serif" font-size="13" font-weight="bold" lengthAdjust="spacing" textLength="17.1387" x="541.5815" y="586.3359">alt</text><text fill="#000000" font-family="sans-serif" font-size="11" font-weight="bold" lengthAdjust="spacing" textLength="153.5327" x="603.7202" y="585.4023">[completion.status = error]</text><g class="message" data-participant-1="Completion" data-participant-2="PG"><polygon fill="#181818" points="1229.9712,607.3887,1239.9712,611.3887,1229.9712,615.3887,1233.9712,611.3887" style="stroke:#181818;stroke-width:1;"/><line style="stroke:#181818;stroke-width:1;" x1="636.5308" x2="1235.9712" y1="611.3887" y2="611.3887"/><text fill="#000000" font-family="sans-serif" font-size="13" font-weight="bold" lengthAdjust="spacing" textLength="17.1514" x="643.5308" y="606.6465">15</text><text fill="#000000" font-family="sans-serif" font-size="13" lengthAdjust="spacing" textLength="141.813" x="664.6821" y="606.6465">CompleteTaskError(...)</text></g><line style="stroke:#000000;stroke-width:1;stroke-dasharray:2,2;" x1="526.5815" x2="2213.1611" y1="620.3887" y2="620.3887"/><text fill="#000000" font-family="sans-serif" font-size="11" font-weight="bold" lengthAdjust="spacing" textLength="169.0981" x="531.5815" y="631.0234">[completion.status = success]</text><g class="message" data-participant-1="Completion" data-participant-2="MinIO"><polygon fill="#181818" points="1981.0771,651.6543,1991.0771,655.6543,1981.0771,659.6543,1985.0771,655.6543" style="stroke:#181818;stroke-width:1;"/><line style="stroke:#181818;stroke-width:1;" x1="636.5308" x2="1987.0771" y1="655.6543" y2="655.6543"/><text fill="#000000" font-family="sans-serif" font-size="13" font-weight="bold" lengthAdjust="spacing" textLength="17.1514" x="643.5308" y="650.9121">16</text><text fill="#000000" font-family="sans-serif" font-size="13" lengthAdjust="spacing" textLength="130.8252" x="664.6821" y="650.9121">Verify storage object</text></g><g class="message" data-participant-1="Completion" data-participant-2="PG"><polygon fill="#181818" points="1229.9712,696.2754,1239.9712,700.2754,1229.9712,704.2754,1233.9712,700.2754" style="stroke:#181818;stroke-width:1;"/><line style="stroke:#181818;stroke-width:1;" x1="636.5308" x2="1235.9712" y1="700.2754" y2="700.2754"/><text fill="#000000" font-family="sans-serif" font-size="13" font-weight="bold" lengthAdjust="spacing" textLength="17.1514" x="643.5308" y="687.8779">17</text><text fill="#000000" font-family="sans-serif" font-size="13" lengthAdjust="spacing" textLength="159.707" x="664.6821" y="680.2227">CompleteTaskSuccess(...)</text><text fill="#000000" font-family="sans-serif" font-size="13" lengthAdjust="spacing" textLength="327.5073" x="664.6821" y="695.5332">insert raw_batches + mark external_task completed</text></g><g class="message" data-participant-1="Completion" data-participant-2="UAP"><polygon fill="#181818" points="931.9546,725.5859,941.9546,729.5859,931.9546,733.5859,935.9546,729.5859" style="stroke:#181818;stroke-width:1;"/><line style="stroke:#181818;stroke-width:1;" x1="636.5308" x2="937.9546" y1="729.5859" y2="729.5859"/><text fill="#000000" font-family="sans-serif" font-size="13" font-weight="bold" lengthAdjust="spacing" textLength="17.1514" x="643.5308" y="724.8438">18</text><text fill="#000000" font-family="sans-serif" font-size="13" lengthAdjust="spacing" textLength="262.2725" x="664.6821" y="724.8438">ParseAndStoreRawBatch(raw_batch_id, ...)</text></g><g class="message" data-participant-1="UAP" data-participant-2="PG"><polygon fill="#181818" points="1229.9712,754.8965,1239.9712,758.8965,1229.9712,762.8965,1233.9712,758.8965" style="stroke:#181818;stroke-width:1;"/><line style="stroke:#181818;stroke-width:1;" x1="943.9546" x2="1235.9712" y1="758.8965" y2="758.8965"/><text fill="#000000" font-family="sans-serif" font-size="13" font-weight="bold" lengthAdjust="spacing" textLength="17.1514" x="950.9546" y="754.1543">19</text><text fill="#000000" font-family="sans-serif" font-size="13" lengthAdjust="spacing" textLength="252.8652" x="972.106" y="754.1543">ClaimRawBatchForParsing(raw_batch_id)</text></g><g class="message" data-participant-1="UAP" data-participant-2="MinIO"><polygon fill="#181818" points="1981.0771,784.207,1991.0771,788.207,1981.0771,792.207,1985.0771,788.207" style="stroke:#181818;stroke-width:1;"/><line style="stroke:#181818;stroke-width:1;" x1="943.9546" x2="1987.0771" y1="788.207" y2="788.207"/><text fill="#000000" font-family="sans-serif" font-size="13" font-weight="bold" lengthAdjust="spacing" textLength="17.1514" x="950.9546" y="783.4648">20</text><text fill="#000000" font-family="sans-serif" font-size="13" lengthAdjust="spacing" textLength="138.252" x="972.106" y="783.4648">Download raw artifact</text></g><path d="M869.4771,803.207 L943.9238,803.207 L943.9238,810.5176 L933.9238,820.5176 L869.4771,820.5176 L869.4771,803.207" fill="#EEEEEE" style="stroke:#000000;stroke-width:1.5;"/><rect fill="none" height="46.6211" style="stroke:#000000;stroke-width:1.5;" width="1333.6841" x="869.4771" y="803.207"/><text fill="#000000" font-family="sans-serif" font-size="13" font-weight="bold" lengthAdjust="spacing" textLength="29.4468" x="884.4771" y="816.7754">loop</text><text fill="#000000" font-family="sans-serif" font-size="11" font-weight="bold" lengthAdjust="spacing" textLength="164.0923" x="958.9238" y="815.8418">[m&#7895;i UAP record parse &#273;&#432;&#7907;c]</text><g class="message" data-participant-1="UAP" data-participant-2="Stream"><polygon fill="#181818" points="2097.5449,837.8281,2107.5449,841.8281,2097.5449,845.8281,2101.5449,841.8281" style="stroke:#181818;stroke-width:1;"/><line style="stroke:#181818;stroke-width:1;" x1="943.9546" x2="2103.5449" y1="841.8281" y2="841.8281"/><text fill="#000000" font-family="sans-serif" font-size="13" font-weight="bold" lengthAdjust="spacing" textLength="17.1514" x="950.9546" y="837.0859">21</text><text fill="#000000" font-family="sans-serif" font-size="13" lengthAdjust="spacing" textLength="188.3667" x="972.106" y="837.0859">Publish smap.collector.output</text></g><g class="message" data-participant-1="UAP" data-participant-2="MinIO"><polygon fill="#181818" points="1981.0771,874.1387,1991.0771,878.1387,1981.0771,882.1387,1985.0771,878.1387" style="stroke:#181818;stroke-width:1;"/><line style="stroke:#181818;stroke-width:1;" x1="943.9546" x2="1987.0771" y1="878.1387" y2="878.1387"/><text fill="#000000" font-family="sans-serif" font-size="13" font-weight="bold" lengthAdjust="spacing" textLength="17.1514" x="950.9546" y="873.3965">22</text><text fill="#000000" font-family="sans-serif" font-size="13" lengthAdjust="spacing" textLength="178.0708" x="972.106" y="873.3965">Upload parsed UAP chunk(s)</text></g><g class="message" data-participant-1="UAP" data-participant-2="PG"><polygon fill="#181818" points="1229.9712,903.4492,1239.9712,907.4492,1229.9712,911.4492,1233.9712,907.4492" style="stroke:#181818;stroke-width:1;"/><line style="stroke:#181818;stroke-width:1;" x1="943.9546" x2="1235.9712" y1="907.4492" y2="907.4492"/><text fill="#000000" font-family="sans-serif" font-size="13" font-weight="bold" lengthAdjust="spacing" textLength="17.1514" x="950.9546" y="902.707">23</text><text fill="#000000" font-family="sans-serif" font-size="13" lengthAdjust="spacing" textLength="153.4863" x="972.106" y="902.707">MarkRawBatchParsed(...)</text></g><!--SRC=[XLJDRXit4BxlKmnqab5RRMw501UmBILDOYDo9BSeO43WacEPqIwvuP2MynWvzG7w0htdMlGzyYOTShdUbHMa1q5SSkQRl-yR4RmreIxH5RJLfX5ErE2G6ci8hv18RF0SAxixSyxkmBk00yE5S5vBtGZZ5q8fRJRmukV1-xbzVBh_gIYQtXoMyXvLgD2181WzVTsQCLiZ-HDo3qUZFPVv8yfa7G_1QsiW44f1-3sl2rit5IRhw3lub5nZgByVy-PiaTpYFz_JeNMXX1Sb9m6BLybqOSbl72wlBqV5nu01uRqeI-tJOtkykjwFyhjrszm9ag9fq4LmsANhKI5jLQ6CEHCihTIYIgOhlLtPBVm8BuN4qgRZ7pQiGecZFgihRLw_I_RfrEMqz0vvGYadL9o54kp-Ljnj1PmjNdDT_OHEVk7Qfd2foSy2heJReAUniRjZg7Ij_L5HMTj0_VNBdneKW_jaKW0SO5nKGjSjmfXiS1BNMXrdXtGq-EZNqebTjHQC_0mZZduACqsDyF9-aCraCc4OfpSRT6l_gS7JvSMlyzdDvNmMGH9tkXouSeyTh7fZo-WThOPbv1103Kf- -XR4_D6ZCw9Q2Tfs4BrTE-efB49PQRhlSXwd_X-3I0CzXgGKEZe8SINSTXWWmw3g8g5HHVmLcLudxDWIYHk4bNxWZdbsXBgLSP5PncOjYM8Pt6QMEwT47bKKVff9aLasX7mlTj0mjObf8crTeqd71wtGqW0xiMmAI_60mF0GQNx7nGvCddKcmcLDtfhKdTDMOUkO_hf_fRrQUoNtzVQsJrKF19yx-mfzVtbXZMV6ZLCehOwAGbH-W3CXBtmWE0Na3UYuxuU0-GRZcERHgXqHLYo_Ro5Ha9ApEy3AhViDdRxx1EIjumB0bXzO_FyRUDc2fj2tHlFwTZuEO5r6rY713r0pfG0pfr9pk_HG7U3pnfl61KzuPjIISq5cm7bYy1Dg4cocOzoGGv5trY-jYoWyqJs_WKikUsPtfh92xRDcJvJHmQ6qJhNB6Fxv_E_VNx_yrGeqmxMRhMSNrQAPv1LgtSG6tmIVzVCyXvicPP30LNgJzy5in_IimYZEhi3KewnAnlmF]--></g></svg>