<svg xmlns="http://www.w3.org/2000/svg" xmlns:xlink="http://www.w3.org/1999/xlink" contentStyleType="text/css" data-diagram-type="SEQUENCE" height="1215px" preserveAspectRatio="none" style="width:1193px;height:1215px;background:#FFFFFF;" version="1.1" viewBox="0 0 1193 1215" width="1193px" zoomAndPan="magnify"><defs/><g><rect fill="none" height="444.8789" style="stroke:#000000;stroke-width:1.5;" width="1176.4609" x="10" y="494.8359"/><rect fill="none" height="163.8633" style="stroke:#000000;stroke-width:1.5;" width="1176.4609" x="10" y="953.7148"/><g><title>User</title><rect fill="#000000" fill-opacity="0.00000" height="1053.0898" width="8" x="34.1826" y="81.4883"/><line style="stroke:#181818;stroke-width:0.5;stroke-dasharray:5,5;" x1="38" x2="38" y1="81.4883" y2="1134.5781"/></g><g><title>Giao di.n</title><rect fill="#000000" fill-opacity="0.00000" height="1053.0898" width="8" x="246.1123" y="81.4883"/><line style="stroke:#181818;stroke-width:0.5;stroke-dasharray:5,5;" x1="249.9766" x2="249.9766" y1="81.4883" y2="1134.5781"/></g><g><title>project-srv</title><rect fill="#000000" fill-opacity="0.00000" height="1053.0898" width="8" x="546.6489" y="81.4883"/><line style="stroke:#181818;stroke-width:0.5;stroke-dasharray:5,5;" x1="549.7402" x2="549.7402" y1="81.4883" y2="1134.5781"/></g><g><title>ingest-srv</title><rect fill="#000000" fill-opacity="0.00000" height="1053.0898" width="8" x="679.4824" y="81.4883"/><line style="stroke:#181818;stroke-width:0.5;stroke-dasharray:5,5;" x1="682.5576" x2="682.5576" y1="81.4883" y2="1134.5781"/></g><g><title>PostgreSQL</title><rect fill="#000000" fill-opacity="0.00000" height="1053.0898" width="8" x="1131.0361" y="81.4883"/><line style="stroke:#181818;stroke-width:0.5;stroke-dasharray:5,5;" x1="1134.6113" x2="1134.6113" y1="81.4883" y2="1134.5781"/></g><g class="participant participant-head" data-participant="User"><text fill="#000000" font-family="sans-serif" font-size="14" lengthAdjust="spacing" textLength="30.3652" x="20" y="78.5352">User</text><ellipse cx="38.1826" cy="13.5" fill="#E2E2F0" rx="8" ry="8" style="stroke:#181818;stroke-width:0.5;"/><path d="M38.1826,21.5 L38.1826,48.5 M25.1826,29.5 L51.1826,29.5 M38.1826,48.5 L25.1826,63.5 M38.1826,48.5 L51.1826,63.5" fill="none" style="stroke:#181818;stroke-width:0.5;"/></g><g class="participant participant-tail" data-participant="User"><text fill="#000000" font-family="sans-serif" font-size="14" lengthAdjust="spacing" textLength="30.3652" x="20" y="1147.1133">User</text><ellipse cx="38.1826" cy="1158.5664" fill="#E2E2F0" rx="8" ry="8" style="stroke:#181818;stroke-width:0.5;"/><path d="M38.1826,1166.5664 L38.1826,1193.5664 M25.1826,1174.5664 L51.1826,1174.5664 M38.1826,1193.5664 L25.1826,1208.5664 M38.1826,1193.5664 L51.1826,1208.5664" fill="none" style="stroke:#181818;stroke-width:0.5;"/></g><g class="participant participant-head" data-participant="UI"><rect fill="#E2E2F0" height="30.4883" rx="2.5" ry="2.5" style="stroke:#181818;stroke-width:0.5;" width="78.2715" x="210.9766" y="50"/><text fill="#000000" font-family="sans-serif" font-size="14" lengthAdjust="spacing" textLength="64.2715" x="217.9766" y="70.5352">Giao di&#7879;n</text></g><g class="participant participant-tail" data-participant="UI"><rect fill="#E2E2F0" height="30.4883" rx="2.5" ry="2.5" style="stroke:#181818;stroke-width:0.5;" width="78.2715" x="210.9766" y="1133.5781"/><text fill="#000000" font-family="sans-serif" font-size="14" lengthAdjust="spacing" textLength="64.2715" x="217.9766" y="1154.1133">Giao di&#7879;n</text></g><g class="participant participant-head" data-participant="Project"><rect fill="#E2E2F0" height="30.4883" rx="2.5" ry="2.5" style="stroke:#181818;stroke-width:0.5;" width="89.8174" x="505.7402" y="50"/><text fill="#000000" font-family="sans-serif" font-size="14" lengthAdjust="spacing" textLength="75.8174" x="512.7402" y="70.5352">project-srv</text></g><g class="participant participant-tail" data-participant="Project"><rect fill="#E2E2F0" height="30.4883" rx="2.5" ry="2.5" style="stroke:#181818;stroke-width:0.5;" width="89.8174" x="505.7402" y="1133.5781"/><text fill="#000000" font-family="sans-serif" font-size="14" lengthAdjust="spacing" textLength="75.8174" x="512.7402" y="1154.1133">project-srv</text></g><g class="participant participant-head" data-participant="Ingest"><rect fill="#E2E2F0" height="30.4883" rx="2.5" ry="2.5" style="stroke:#181818;stroke-width:0.5;" width="83.8496" x="641.5576" y="50"/><text fill="#000000" font-family="sans-serif" font-size="14" lengthAdjust="spacing" textLength="69.8496" x="648.5576" y="70.5352">ingest-srv</text></g><g class="participant participant-tail" data-participant="Ingest"><rect fill="#E2E2F0" height="30.4883" rx="2.5" ry="2.5" style="stroke:#181818;stroke-width:0.5;" width="83.8496" x="641.5576" y="1133.5781"/><text fill="#000000" font-family="sans-serif" font-size="14" lengthAdjust="spacing" textLength="69.8496" x="648.5576" y="1154.1133">ingest-srv</text></g><g class="participant participant-head" data-participant="PG"><text fill="#000000" font-family="sans-serif" font-size="14" lengthAdjust="spacing" textLength="76.8496" x="1093.6113" y="78.5352">PostgreSQL</text><path d="M1117.0361,29 C1117.0361,19 1135.0361,19 1135.0361,19 C1135.0361,19 1153.0361,19 1153.0361,29 L1153.0361,55 C1153.0361,65 1135.0361,65 1135.0361,65 C1135.0361,65 1117.0361,65 1117.0361,55 L1117.0361,29" fill="#E2E2F0" style="stroke:#181818;stroke-width:0.5;"/><path d="M1117.0361,29 C1117.0361,39 1135.0361,39 1135.0361,39 C1135.0361,39 1153.0361,39 1153.0361,29" fill="none" style="stroke:#181818;stroke-width:0.5;"/></g><g class="participant participant-tail" data-participant="PG"><text fill="#000000" font-family="sans-serif" font-size="14" lengthAdjust="spacing" textLength="76.8496" x="1093.6113" y="1147.1133">PostgreSQL</text><path d="M1117.0361,1160.0664 C1117.0361,1150.0664 1135.0361,1150.0664 1135.0361,1150.0664 C1135.0361,1150.0664 1153.0361,1150.0664 1153.0361,1160.0664 L1153.0361,1186.0664 C1153.0361,1196.0664 1135.0361,1196.0664 1135.0361,1196.0664 C1135.0361,1196.0664 1117.0361,1196.0664 1117.0361,1186.0664 L1117.0361,1160.0664" fill="#E2E2F0" style="stroke:#181818;stroke-width:0.5;"/><path d="M1117.0361,1160.0664 C1117.0361,1170.0664 1135.0361,1170.0664 1135.0361,1170.0664 C1135.0361,1170.0664 1153.0361,1170.0664 1153.0361,1160.0664" fill="none" style="stroke:#181818;stroke-width:0.5;"/></g><g class="message" data-participant-1="User" data-participant-2="UI"><polygon fill="#181818" points="238.1123,108.7988,248.1123,112.7988,238.1123,116.7988,242.1123,112.7988" style="stroke:#181818;stroke-width:1;"/><line style="stroke:#181818;stroke-width:1;" x1="38.1826" x2="244.1123" y1="112.7988" y2="112.7988"/><text fill="#000000" font-family="sans-serif" font-size="13" font-weight="bold" lengthAdjust="spacing" textLength="8.5757" x="45.1826" y="108.0566">1</text><text fill="#000000" font-family="sans-serif" font-size="13" lengthAdjust="spacing" textLength="160.418" x="57.7583" y="108.0566">Nh&#7853;p th&#244;ng tin campaign</text></g><g class="message" data-participant-1="UI" data-participant-2="Project"><polygon fill="#181818" points="538.6489,138.1094,548.6489,142.1094,538.6489,146.1094,542.6489,142.1094" style="stroke:#181818;stroke-width:1;"/><line style="stroke:#181818;stroke-width:1;" x1="250.1123" x2="544.6489" y1="142.1094" y2="142.1094"/><text fill="#000000" font-family="sans-serif" font-size="13" font-weight="bold" lengthAdjust="spacing" textLength="8.5757" x="257.1123" y="137.3672">2</text><text fill="#000000" font-family="sans-serif" font-size="13" lengthAdjust="spacing" textLength="111.3315" x="269.688" y="137.3672">POST /campaigns</text></g><g class="message" data-participant-1="Project" data-participant-2="PG"><polygon fill="#181818" points="1123.0361,167.4199,1133.0361,171.4199,1123.0361,175.4199,1127.0361,171.4199" style="stroke:#181818;stroke-width:1;"/><line style="stroke:#181818;stroke-width:1;" x1="550.6489" x2="1129.0361" y1="171.4199" y2="171.4199"/><text fill="#000000" font-family="sans-serif" font-size="13" font-weight="bold" lengthAdjust="spacing" textLength="8.5757" x="557.6489" y="166.6777">3</text><text fill="#000000" font-family="sans-serif" font-size="13" lengthAdjust="spacing" textLength="101.2451" x="570.2246" y="166.6777">Insert campaign</text></g><g class="message" data-participant-1="Project" data-participant-2="UI"><polygon fill="#181818" points="261.1123,196.7305,251.1123,200.7305,261.1123,204.7305,257.1123,200.7305" style="stroke:#181818;stroke-width:1;"/><line style="stroke:#181818;stroke-width:1;stroke-dasharray:2,2;" x1="255.1123" x2="549.6489" y1="200.7305" y2="200.7305"/><text fill="#000000" font-family="sans-serif" font-size="13" font-weight="bold" lengthAdjust="spacing" textLength="8.5757" x="267.1123" y="195.9883">4</text><text fill="#000000" font-family="sans-serif" font-size="13" lengthAdjust="spacing" textLength="140.8418" x="279.688" y="195.9883">200 campaign created</text></g><g class="message" data-participant-1="User" data-participant-2="UI"><polygon fill="#181818" points="238.1123,226.041,248.1123,230.041,238.1123,234.041,242.1123,230.041" style="stroke:#181818;stroke-width:1;"/><line style="stroke:#181818;stroke-width:1;" x1="38.1826" x2="244.1123" y1="230.041" y2="230.041"/><text fill="#000000" font-family="sans-serif" font-size="13" font-weight="bold" lengthAdjust="spacing" textLength="8.5757" x="45.1826" y="225.2988">5</text><text fill="#000000" font-family="sans-serif" font-size="13" lengthAdjust="spacing" textLength="143.3555" x="57.7583" y="225.2988">Nh&#7853;p th&#244;ng tin project</text></g><g class="message" data-participant-1="UI" data-participant-2="Project"><polygon fill="#181818" points="538.6489,255.3516,548.6489,259.3516,538.6489,263.3516,542.6489,259.3516" style="stroke:#181818;stroke-width:1;"/><line style="stroke:#181818;stroke-width:1;" x1="250.1123" x2="544.6489" y1="259.3516" y2="259.3516"/><text fill="#000000" font-family="sans-serif" font-size="13" font-weight="bold" lengthAdjust="spacing" textLength="8.5757" x="257.1123" y="254.6094">6</text><text fill="#000000" font-family="sans-serif" font-size="13" lengthAdjust="spacing" textLength="263.9609" x="269.688" y="254.6094">POST /campaigns/{campaign_id}/projects</text></g><g class="message" data-participant-1="Project" data-participant-2="PG"><polygon fill="#181818" points="1123.0361,284.6621,1133.0361,288.6621,1123.0361,292.6621,1127.0361,288.6621" style="stroke:#181818;stroke-width:1;"/><line style="stroke:#181818;stroke-width:1;" x1="550.6489" x2="1129.0361" y1="288.6621" y2="288.6621"/><text fill="#000000" font-family="sans-serif" font-size="13" font-weight="bold" lengthAdjust="spacing" textLength="8.5757" x="557.6489" y="283.9199">7</text><text fill="#000000" font-family="sans-serif" font-size="13" lengthAdjust="spacing" textLength="181.9111" x="570.2246" y="283.9199">Validate campaign + domain</text></g><g class="message" data-participant-1="Project" data-participant-2="PG"><polygon fill="#181818" points="1123.0361,313.9727,1133.0361,317.9727,1123.0361,321.9727,1127.0361,317.9727" style="stroke:#181818;stroke-width:1;"/><line style="stroke:#181818;stroke-width:1;" x1="550.6489" x2="1129.0361" y1="317.9727" y2="317.9727"/><text fill="#000000" font-family="sans-serif" font-size="13" font-weight="bold" lengthAdjust="spacing" textLength="8.5757" x="557.6489" y="313.2305">8</text><text fill="#000000" font-family="sans-serif" font-size="13" lengthAdjust="spacing" textLength="84.1826" x="570.2246" y="313.2305">Insert project</text></g><g class="message" data-participant-1="Project" data-participant-2="UI"><polygon fill="#181818" points="261.1123,343.2832,251.1123,347.2832,261.1123,351.2832,257.1123,347.2832" style="stroke:#181818;stroke-width:1;"/><line style="stroke:#181818;stroke-width:1;stroke-dasharray:2,2;" x1="255.1123" x2="549.6489" y1="347.2832" y2="347.2832"/><text fill="#000000" font-family="sans-serif" font-size="13" font-weight="bold" lengthAdjust="spacing" textLength="8.5757" x="267.1123" y="342.541">9</text><text fill="#000000" font-family="sans-serif" font-size="13" lengthAdjust="spacing" textLength="123.7793" x="279.688" y="342.541">200 project created</text></g><g class="message" data-participant-1="User" data-participant-2="UI"><polygon fill="#181818" points="238.1123,372.5938,248.1123,376.5938,238.1123,380.5938,242.1123,376.5938" style="stroke:#181818;stroke-width:1;"/><line style="stroke:#181818;stroke-width:1;" x1="38.1826" x2="244.1123" y1="376.5938" y2="376.5938"/><text fill="#000000" font-family="sans-serif" font-size="13" font-weight="bold" lengthAdjust="spacing" textLength="17.1514" x="45.1826" y="371.8516">10</text><text fill="#000000" font-family="sans-serif" font-size="13" lengthAdjust="spacing" textLength="166.7783" x="66.334" y="371.8516">C&#7845;u h&#236;nh datasource crawl</text></g><g class="message" data-participant-1="UI" data-participant-2="Ingest"><polygon fill="#181818" points="671.4824,401.9043,681.4824,405.9043,671.4824,409.9043,675.4824,405.9043" style="stroke:#181818;stroke-width:1;"/><line style="stroke:#181818;stroke-width:1;" x1="250.1123" x2="677.4824" y1="405.9043" y2="405.9043"/><text fill="#000000" font-family="sans-serif" font-size="13" font-weight="bold" lengthAdjust="spacing" textLength="17.1514" x="257.1123" y="401.1621">11</text><text fill="#000000" font-family="sans-serif" font-size="13" lengthAdjust="spacing" textLength="119.3677" x="278.2637" y="401.1621">POST /datasources</text></g><g class="message" data-participant-1="Ingest" data-participant-2="PG"><polygon fill="#181818" points="1123.0361,446.5254,1133.0361,450.5254,1123.0361,454.5254,1127.0361,450.5254" style="stroke:#181818;stroke-width:1;"/><line style="stroke:#181818;stroke-width:1;" x1="683.4824" x2="1129.0361" y1="450.5254" y2="450.5254"/><text fill="#000000" font-family="sans-serif" font-size="13" font-weight="bold" lengthAdjust="spacing" textLength="17.1514" x="690.4824" y="438.1279">12</text><text fill="#000000" font-family="sans-serif" font-size="13" lengthAdjust="spacing" textLength="122.4082" x="711.6338" y="430.4727">Insert data_sources</text><text fill="#000000" font-family="sans-serif" font-size="13" lengthAdjust="spacing" textLength="235.2695" x="711.6338" y="445.7832">(crawl_mode, crawl_interval_minutes)</text></g><g class="message" data-participant-1="Ingest" data-participant-2="UI"><polygon fill="#181818" points="261.1123,475.8359,251.1123,479.8359,261.1123,483.8359,257.1123,479.8359" style="stroke:#181818;stroke-width:1;"/><line style="stroke:#181818;stroke-width:1;stroke-dasharray:2,2;" x1="255.1123" x2="682.4824" y1="479.8359" y2="479.8359"/><text fill="#000000" font-family="sans-serif" font-size="13" font-weight="bold" lengthAdjust="spacing" textLength="17.1514" x="267.1123" y="475.0938">13</text><text fill="#000000" font-family="sans-serif" font-size="13" lengthAdjust="spacing" textLength="148.8779" x="288.2637" y="475.0938">200 datasource created</text></g><path d="M10,494.8359 L72.1387,494.8359 L72.1387,502.1465 L62.1387,512.1465 L10,512.1465 L10,494.8359" fill="#EEEEEE" style="stroke:#000000;stroke-width:1.5;"/><rect fill="none" height="444.8789" style="stroke:#000000;stroke-width:1.5;" width="1176.4609" x="10" y="494.8359"/><text fill="#000000" font-family="sans-serif" font-size="13" font-weight="bold" lengthAdjust="spacing" textLength="17.1387" x="25" y="508.4043">alt</text><text fill="#000000" font-family="sans-serif" font-size="11" font-weight="bold" lengthAdjust="spacing" textLength="121.8916" x="87.1387" y="507.4707">[Target lo&#7841;i keyword]</text><g class="message" data-participant-1="User" data-participant-2="UI"><polygon fill="#181818" points="238.1123,529.457,248.1123,533.457,238.1123,537.457,242.1123,533.457" style="stroke:#181818;stroke-width:1;"/><line style="stroke:#181818;stroke-width:1;" x1="38.1826" x2="244.1123" y1="533.457" y2="533.457"/><text fill="#000000" font-family="sans-serif" font-size="13" font-weight="bold" lengthAdjust="spacing" textLength="17.1514" x="45.1826" y="528.7148">14</text><text fill="#000000" font-family="sans-serif" font-size="13" lengthAdjust="spacing" textLength="122.3193" x="66.334" y="528.7148">T&#7841;o keyword target</text></g><g class="message" data-participant-1="UI" data-participant-2="Ingest"><polygon fill="#181818" points="671.4824,558.7676,681.4824,562.7676,671.4824,566.7676,675.4824,562.7676" style="stroke:#181818;stroke-width:1;"/><line style="stroke:#181818;stroke-width:1;" x1="250.1123" x2="677.4824" y1="562.7676" y2="562.7676"/><text fill="#000000" font-family="sans-serif" font-size="13" font-weight="bold" lengthAdjust="spacing" textLength="17.1514" x="257.1123" y="558.0254">15</text><text fill="#000000" font-family="sans-serif" font-size="13" lengthAdjust="spacing" textLength="312.5776" x="278.2637" y="558.0254">POST /datasources/{source_id}/targets/keywords</text></g><g class="message" data-participant-1="Ingest" data-participant-2="PG"><polygon fill="#181818" points="1123.0361,603.3887,1133.0361,607.3887,1123.0361,611.3887,1127.0361,607.3887" style="stroke:#181818;stroke-width:1;"/><line style="stroke:#181818;stroke-width:1;" x1="683.4824" x2="1129.0361" y1="607.3887" y2="607.3887"/><text fill="#000000" font-family="sans-serif" font-size="13" font-weight="bold" lengthAdjust="spacing" textLength="17.1514" x="690.4824" y="594.9912">16</text><text fill="#000000" font-family="sans-serif" font-size="13" lengthAdjust="spacing" textLength="123.6079" x="711.6338" y="587.3359">Insert crawl_targets</text><text fill="#000000" font-family="sans-serif" font-size="13" lengthAdjust="spacing" textLength="406.0469" x="711.6338" y="602.6465">(target_type=KEYWORD, crawl_interval_minutes, is_active=false)</text></g><g class="message" data-participant-1="Ingest" data-participant-2="UI"><polygon fill="#181818" points="261.1123,632.6992,251.1123,636.6992,261.1123,640.6992,257.1123,636.6992" style="stroke:#181818;stroke-width:1;"/><line style="stroke:#181818;stroke-width:1;stroke-dasharray:2,2;" x1="255.1123" x2="682.4824" y1="636.6992" y2="636.6992"/><text fill="#000000" font-family="sans-serif" font-size="13" font-weight="bold" lengthAdjust="spacing" textLength="17.1514" x="267.1123" y="631.957">17</text><text fill="#000000" font-family="sans-serif" font-size="13" lengthAdjust="spacing" textLength="117.146" x="288.2637" y="631.957">200 target created</text></g><line style="stroke:#000000;stroke-width:1;stroke-dasharray:2,2;" x1="10" x2="1186.4609" y1="645.6992" y2="645.6992"/><text fill="#000000" font-family="sans-serif" font-size="11" font-weight="bold" lengthAdjust="spacing" textLength="110.7412" x="15" y="656.334">[Target lo&#7841;i profile]</text><g class="message" data-participant-1="User" data-participant-2="UI"><polygon fill="#181818" points="238.1123,676.9648,248.1123,680.9648,238.1123,684.9648,242.1123,680.9648" style="stroke:#181818;stroke-width:1;"/><line style="stroke:#181818;stroke-width:1;" x1="38.1826" x2="244.1123" y1="680.9648" y2="680.9648"/><text fill="#000000" font-family="sans-serif" font-size="13" font-weight="bold" lengthAdjust="spacing" textLength="17.1514" x="45.1826" y="676.2227">18</text><text fill="#000000" font-family="sans-serif" font-size="13" lengthAdjust="spacing" textLength="110.208" x="66.334" y="676.2227">T&#7841;o profile target</text></g><g class="message" data-participant-1="UI" data-participant-2="Ingest"><polygon fill="#181818" points="671.4824,706.2754,681.4824,710.2754,671.4824,714.2754,675.4824,710.2754" style="stroke:#181818;stroke-width:1;"/><line style="stroke:#181818;stroke-width:1;" x1="250.1123" x2="677.4824" y1="710.2754" y2="710.2754"/><text fill="#000000" font-family="sans-serif" font-size="13" font-weight="bold" lengthAdjust="spacing" textLength="17.1514" x="257.1123" y="705.5332">19</text><text fill="#000000" font-family="sans-serif" font-size="13" lengthAdjust="spacing" textLength="300.4663" x="278.2637" y="705.5332">POST /datasources/{source_id}/targets/profiles</text></g><g class="message" data-participant-1="Ingest" data-participant-2="PG"><polygon fill="#181818" points="1123.0361,750.8965,1133.0361,754.8965,1123.0361,758.8965,1127.0361,754.8965" style="stroke:#181818;stroke-width:1;"/><line style="stroke:#181818;stroke-width:1;" x1="683.4824" x2="1129.0361" y1="754.8965" y2="754.8965"/><text fill="#000000" font-family="sans-serif" font-size="13" font-weight="bold" lengthAdjust="spacing" textLength="17.1514" x="690.4824" y="742.499">20</text><text fill="#000000" font-family="sans-serif" font-size="13" lengthAdjust="spacing" textLength="123.6079" x="711.6338" y="734.8438">Insert crawl_targets</text><text fill="#000000" font-family="sans-serif" font-size="13" lengthAdjust="spacing" textLength="393.4341" x="711.6338" y="750.1543">(target_type=PROFILE, crawl_interval_minutes, is_active=false)</text></g><g class="message" data-participant-1="Ingest" data-participant-2="UI"><polygon fill="#181818" points="261.1123,780.207,251.1123,784.207,261.1123,788.207,257.1123,784.207" style="stroke:#181818;stroke-width:1;"/><line style="stroke:#181818;stroke-width:1;stroke-dasharray:2,2;" x1="255.1123" x2="682.4824" y1="784.207" y2="784.207"/><text fill="#000000" font-family="sans-serif" font-size="13" font-weight="bold" lengthAdjust="spacing" textLength="17.1514" x="267.1123" y="779.4648">21</text><text fill="#000000" font-family="sans-serif" font-size="13" lengthAdjust="spacing" textLength="117.146" x="288.2637" y="779.4648">200 target created</text></g><line style="stroke:#000000;stroke-width:1;stroke-dasharray:2,2;" x1="10" x2="1186.4609" y1="793.207" y2="793.207"/><text fill="#000000" font-family="sans-serif" font-size="11" font-weight="bold" lengthAdjust="spacing" textLength="98.2588" x="15" y="803.8418">[Target lo&#7841;i post]</text><g class="message" data-participant-1="User" data-participant-2="UI"><polygon fill="#181818" points="238.1123,824.4727,248.1123,828.4727,238.1123,832.4727,242.1123,828.4727" style="stroke:#181818;stroke-width:1;"/><line style="stroke:#181818;stroke-width:1;" x1="38.1826" x2="244.1123" y1="828.4727" y2="828.4727"/><text fill="#000000" font-family="sans-serif" font-size="13" font-weight="bold" lengthAdjust="spacing" textLength="17.1514" x="45.1826" y="823.7305">22</text><text fill="#000000" font-family="sans-serif" font-size="13" lengthAdjust="spacing" textLength="96.8398" x="66.334" y="823.7305">T&#7841;o post target</text></g><g class="message" data-participant-1="UI" data-participant-2="Ingest"><polygon fill="#181818" points="671.4824,853.7832,681.4824,857.7832,671.4824,861.7832,675.4824,857.7832" style="stroke:#181818;stroke-width:1;"/><line style="stroke:#181818;stroke-width:1;" x1="250.1123" x2="677.4824" y1="857.7832" y2="857.7832"/><text fill="#000000" font-family="sans-serif" font-size="13" font-weight="bold" lengthAdjust="spacing" textLength="17.1514" x="257.1123" y="853.041">23</text><text fill="#000000" font-family="sans-serif" font-size="13" lengthAdjust="spacing" textLength="287.0981" x="278.2637" y="853.041">POST /datasources/{source_id}/targets/posts</text></g><g class="message" data-participant-1="Ingest" data-participant-2="PG"><polygon fill="#181818" points="1123.0361,898.4043,1133.0361,902.4043,1123.0361,906.4043,1127.0361,902.4043" style="stroke:#181818;stroke-width:1;"/><line style="stroke:#181818;stroke-width:1;" x1="683.4824" x2="1129.0361" y1="902.4043" y2="902.4043"/><text fill="#000000" font-family="sans-serif" font-size="13" font-weight="bold" lengthAdjust="spacing" textLength="17.1514" x="690.4824" y="890.0068">24</text><text fill="#000000" font-family="sans-serif" font-size="13" lengthAdjust="spacing" textLength="123.6079" x="711.6338" y="882.3516">Insert crawl_targets</text><text fill="#000000" font-family="sans-serif" font-size="13" lengthAdjust="spacing" textLength="406.4023" x="711.6338" y="897.6621">(target_type=POST_URL, crawl_interval_minutes, is_active=false)</text></g><g class="message" data-participant-1="Ingest" data-participant-2="UI"><polygon fill="#181818" points="261.1123,927.7148,251.1123,931.7148,261.1123,935.7148,257.1123,931.7148" style="stroke:#181818;stroke-width:1;"/><line style="stroke:#181818;stroke-width:1;stroke-dasharray:2,2;" x1="255.1123" x2="682.4824" y1="931.7148" y2="931.7148"/><text fill="#000000" font-family="sans-serif" font-size="13" font-weight="bold" lengthAdjust="spacing" textLength="17.1514" x="267.1123" y="926.9727">25</text><text fill="#000000" font-family="sans-serif" font-size="13" lengthAdjust="spacing" textLength="117.146" x="288.2637" y="926.9727">200 target created</text></g><path d="M10,953.7148 L77.1851,953.7148 L77.1851,961.0254 L67.1851,971.0254 L10,971.0254 L10,953.7148" fill="#EEEEEE" style="stroke:#000000;stroke-width:1.5;"/><rect fill="none" height="163.8633" style="stroke:#000000;stroke-width:1.5;" width="1176.4609" x="10" y="953.7148"/><text fill="#000000" font-family="sans-serif" font-size="13" font-weight="bold" lengthAdjust="spacing" textLength="22.1851" x="25" y="967.2832">opt</text><text fill="#000000" font-family="sans-serif" font-size="11" font-weight="bold" lengthAdjust="spacing" textLength="312.9468" x="92.1851" y="966.3496">[Dry-run &#273;&#227; &#273;&#7911; &#273;i&#7873;u ki&#7879;n v&#224; target c&#7847;n k&#237;ch ho&#7841;t ri&#234;ng]</text><g class="message" data-participant-1="User" data-participant-2="UI"><polygon fill="#181818" points="238.1123,988.3359,248.1123,992.3359,238.1123,996.3359,242.1123,992.3359" style="stroke:#181818;stroke-width:1;"/><line style="stroke:#181818;stroke-width:1;" x1="38.1826" x2="244.1123" y1="992.3359" y2="992.3359"/><text fill="#000000" font-family="sans-serif" font-size="13" font-weight="bold" lengthAdjust="spacing" textLength="17.1514" x="45.1826" y="987.5938">26</text><text fill="#000000" font-family="sans-serif" font-size="13" lengthAdjust="spacing" textLength="100.8643" x="66.334" y="987.5938">K&#237;ch ho&#7841;t target</text></g><g class="message" data-participant-1="UI" data-participant-2="Ingest"><polygon fill="#181818" points="671.4824,1017.6465,681.4824,1021.6465,671.4824,1025.6465,675.4824,1021.6465" style="stroke:#181818;stroke-width:1;"/><line style="stroke:#181818;stroke-width:1;" x1="250.1123" x2="677.4824" y1="1021.6465" y2="1021.6465"/><text fill="#000000" font-family="sans-serif" font-size="13" font-weight="bold" lengthAdjust="spacing" textLength="17.1514" x="257.1123" y="1016.9043">27</text><text fill="#000000" font-family="sans-serif" font-size="13" lengthAdjust="spacing" textLength="372.5693" x="278.2637" y="1016.9043">POST /datasources/{source_id}/targets/{target_id}/activate</text></g><g class="message" data-participant-1="Ingest" data-participant-2="PG"><polygon fill="#181818" points="1123.0361,1046.957,1133.0361,1050.957,1123.0361,1054.957,1127.0361,1050.957" style="stroke:#181818;stroke-width:1;"/><line style="stroke:#181818;stroke-width:1;" x1="683.4824" x2="1129.0361" y1="1050.957" y2="1050.957"/><text fill="#000000" font-family="sans-serif" font-size="13" font-weight="bold" lengthAdjust="spacing" textLength="17.1514" x="690.4824" y="1046.2148">28</text><text fill="#000000" font-family="sans-serif" font-size="13" lengthAdjust="spacing" textLength="222.5996" x="711.6338" y="1046.2148">Get target + source + latest dryrun</text></g><g class="message" data-participant-1="Ingest" data-participant-2="PG"><polygon fill="#181818" points="1123.0361,1076.2676,1133.0361,1080.2676,1123.0361,1084.2676,1127.0361,1080.2676" style="stroke:#181818;stroke-width:1;"/><line style="stroke:#181818;stroke-width:1;" x1="683.4824" x2="1129.0361" y1="1080.2676" y2="1080.2676"/><text fill="#000000" font-family="sans-serif" font-size="13" font-weight="bold" lengthAdjust="spacing" textLength="17.1514" x="690.4824" y="1075.5254">29</text><text fill="#000000" font-family="sans-serif" font-size="13" lengthAdjust="spacing" textLength="225.6528" x="711.6338" y="1075.5254">Update crawl_targets.is_active=true</text></g><g class="message" data-participant-1="Ingest" data-participant-2="UI"><polygon fill="#181818" points="261.1123,1105.5781,251.1123,1109.5781,261.1123,1113.5781,257.1123,1109.5781" style="stroke:#181818;stroke-width:1;"/><line style="stroke:#181818;stroke-width:1;stroke-dasharray:2,2;" x1="255.1123" x2="682.4824" y1="1109.5781" y2="1109.5781"/><text fill="#000000" font-family="sans-serif" font-size="13" font-weight="bold" lengthAdjust="spacing" textLength="17.1514" x="267.1123" y="1104.8359">30</text><text fill="#000000" font-family="sans-serif" font-size="13" lengthAdjust="spacing" textLength="127.1118" x="288.2637" y="1104.8359">200 target activated</text></g><!--SRC=[lLN1RjD04BtxAqOzKRKbXHEAL2HAInGrKDCs82GaQsjFxINEhhMxJXfL73XnvWz025L2zCOfFPeVoPymjjU9qwQjr20krchVcvdttchNB3LIfFrZL8xkSP4mnVgWK2TIQ7o9MhCGjp6MmsTAoI4ObMADw39bkCyJ9epBWe2B41uzgU7RydIwl-aup3TIGLVJi6HM2TqsC0qhBSua17no-LcipE6kaX_GDmKfATSRMWtcIMqHeYuvl5YMb80PTimqWjigC5Tg4oeyVDrPSPnS2Mmy9G5DU1LDnXS9c2ZxJMeD5-2pVi9uA1pIHoIheWdk_k4HD2fKEvMydDDgaX3gQcRLKzWEUhovEGN1LyWC1dT9iQxlKD8ugvOU3pusRD4rWMzOp2aMdAbOWq3s6HStMAccBt9YiSL6da_6FrA8ibyYWlmWj4oLJtCL6yRMItbibPKPIJlsGEUbv0JFCjwB1qKdhoy3N2-xUbmOL0D6croa1lNgj4zDz9mMgvl51ewO2j50B2VZRnnwE1fA5JW0TKz7XCaA0rDKv9JRtJJEoaLnC6MHRjWccieNcYqTMJQvBLUU6IMujRVxxkt-mSvDjjU1Qu-k6n_WrWcBDQxMXjIIA5jEKq1YNac13lY4nxWm1Oijbu9jSgyKt8Fz5-tExdz8WPwDnH4GiAH_wd0_yzJUwnvq_hLxGRT19WPsr6X3fGB-VCc-qsToUKvVUfu_fT0hNcaOP5-drPFnkO1UTk574EMP6L0y-od2AwdjrHbBvNPciyZt2fUa_bgCBQocq2Ddh_mQn4GbJg16vEzQJJSfNyTwz0zdKHQ_mDk2hCGKKVu5]--></g></svg>