<svg xmlns="http://www.w3.org/2000/svg" xmlns:xlink="http://www.w3.org/1999/xlink" contentStyleType="text/css" data-diagram-type="ACTIVITY" height="647px" preserveAspectRatio="none" style="width:662px;height:647px;background:#FFFFFF;" version="1.1" viewBox="0 0 662 647" width="662px" zoomAndPan="magnify"><defs/><g><rect fill="none" height="20.6982" style="stroke:none;stroke-width:1;" width="629.3462" x="15" y="12.3145"/><ellipse cx="200.4832" cy="48.0127" fill="#222222" rx="10" ry="10" style="stroke:#222222;stroke-width:1;"/><rect fill="#F1F1F1" height="33.7988" rx="12.5" ry="12.5" style="stroke:#181818;stroke-width:0.5;" width="212.8027" x="94.0818" y="78.0127"/><text fill="#000000" font-family="Arial" font-size="12" lengthAdjust="spacing" textLength="192.8027" x="104.0818" y="99.2686">Y&#234;u c&#7847;u thi&#7871;t l&#7853;p chi&#7871;n d&#7883;ch theo d&#245;i</text><rect fill="#F1F1F1" height="47.5977" rx="12.5" ry="12.5" style="stroke:#181818;stroke-width:0.5;" width="184.1328" x="108.4167" y="249.0315"/><text fill="#000000" font-family="Arial" font-size="12" lengthAdjust="spacing" textLength="124.752" x="118.4167" y="270.2874">Thi&#7871;t l&#7853;p ho&#7863;c c&#7853;p nh&#7853;t</text><text fill="#000000" font-family="Arial" font-size="12" lengthAdjust="spacing" textLength="164.1328" x="118.4167" y="284.0862">quy t&#7855;c c&#7843;nh b&#225;o kh&#7911;ng ho&#7843;ng</text><polygon fill="#F1F1F1" points="141.4575,199.4092,259.5088,199.4092,271.5088,212.0581,259.5088,224.707,141.4575,224.707,129.4575,212.0581,141.4575,199.4092" style="stroke:#181818;stroke-width:0.5;"/><text fill="#000000" font-family="Arial" font-size="11" lengthAdjust="spacing" textLength="20.1738" x="204.4832" y="235.0249">[C&#243;]</text><text fill="#000000" font-family="Arial" font-size="11" lengthAdjust="spacing" textLength="80.1099" x="141.4575" y="209.7271">C&#243; c&#7847;n c&#7845;u h&#236;nh</text><text fill="#000000" font-family="Arial" font-size="11" lengthAdjust="spacing" textLength="118.0513" x="141.4575" y="222.376">c&#7843;nh b&#225;o kh&#7911;ng ho&#7843;ng?</text><text fill="#000000" font-family="Arial" font-size="11" lengthAdjust="spacing" textLength="37.9199" x="271.5088" y="209.7271">[Kh&#244;ng]</text><polygon fill="#F1F1F1" points="200.4832,316.6292,212.4832,328.6292,200.4832,340.6292,188.4832,328.6292,200.4832,316.6292" style="stroke:#181818;stroke-width:0.5;"/><rect fill="#F1F1F1" height="33.7988" rx="12.5" ry="12.5" style="stroke:#181818;stroke-width:0.5;" width="220.1504" x="90.408" y="360.6292"/><text fill="#000000" font-family="Arial" font-size="12" lengthAdjust="spacing" textLength="200.1504" x="100.408" y="381.885">Y&#234;u c&#7847;u v&#7853;n h&#224;nh chi&#7871;n d&#7883;ch theo d&#245;i</text><polygon fill="#F1F1F1" points="130.4683,482.0256,270.498,482.0256,282.498,494.0256,270.498,506.0256,130.4683,506.0256,118.4683,494.0256,130.4683,482.0256" style="stroke:#181818;stroke-width:0.5;"/><text fill="#000000" font-family="Arial" font-size="11" lengthAdjust="spacing" textLength="140.0298" x="130.4683" y="498.019">M&#7909;c ti&#234;u khai th&#225;c ti&#7871;p theo?</text><text fill="#000000" font-family="Arial" font-size="11" lengthAdjust="spacing" textLength="98.4683" x="20" y="491.6946">[Tra c&#7913;u v&#224; h&#7887;i &#273;&#225;p]</text><text fill="#000000" font-family="Arial" font-size="11" lengthAdjust="spacing" textLength="97.8398" x="282.498" y="491.6946">[Theo d&#245;i tr&#7841;ng th&#225;i]</text><rect fill="#F1F1F1" height="47.5977" rx="12.5" ry="12.5" style="stroke:#181818;stroke-width:0.5;" width="120.752" x="48.0923" y="516.0256"/><text fill="#000000" font-family="Arial" font-size="12" lengthAdjust="spacing" textLength="100.752" x="58.0923" y="537.2815">Tra c&#7913;u v&#224; h&#7887;i &#273;&#225;p</text><text fill="#000000" font-family="Arial" font-size="12" lengthAdjust="spacing" textLength="89.4258" x="58.0923" y="551.0803">d&#7919; li&#7879;u ph&#226;n t&#237;ch</text><rect fill="#F1F1F1" height="47.5977" rx="12.5" ry="12.5" style="stroke:#181818;stroke-width:0.5;" width="136.0742" x="224.4609" y="516.0256"/><text fill="#000000" font-family="Arial" font-size="12" lengthAdjust="spacing" textLength="116.0742" x="234.4609" y="537.2815">Theo d&#245;i tr&#7841;ng th&#225;i v&#224;</text><text fill="#000000" font-family="Arial" font-size="12" lengthAdjust="spacing" textLength="79.4063" x="234.4609" y="551.0803">nh&#7853;n c&#7843;nh b&#225;o</text><polygon fill="#F1F1F1" points="200.4832,569.6233,212.4832,581.6233,200.4832,593.6233,188.4832,581.6233,200.4832,569.6233" style="stroke:#181818;stroke-width:0.5;"/><ellipse cx="200.4832" cy="624.6233" fill="none" rx="11" ry="11" style="stroke:#222222;stroke-width:1;"/><ellipse cx="200.4832" cy="624.6233" fill="#222222" rx="6" ry="6" style="stroke:#222222;stroke-width:1;"/><line style="stroke:#000000;stroke-width:1.5;" x1="15" x2="15" y1="12.3145" y2="635.6233"/><rect fill="#F1F1F1" height="47.5977" rx="12.5" ry="12.5" style="stroke:#181818;stroke-width:0.5;" width="247.5078" x="391.3379" y="131.8115"/><text fill="#000000" font-family="Arial" font-size="12" lengthAdjust="spacing" textLength="198.1582" x="401.3379" y="153.0674">Ti&#7871;p nh&#7853;n v&#224; l&#432;u c&#7845;u h&#236;nh campaign,</text><text fill="#000000" font-family="Arial" font-size="12" lengthAdjust="spacing" textLength="227.5078" x="401.3379" y="166.8662">project, ngu&#7891;n d&#7919; li&#7879;u v&#224; m&#7909;c ti&#234;u thu th&#7853;p</text><rect fill="#F1F1F1" height="47.5977" rx="12.5" ry="12.5" style="stroke:#181818;stroke-width:0.5;" width="212.6797" x="408.752" y="414.428"/><text fill="#000000" font-family="Arial" font-size="12" lengthAdjust="spacing" textLength="160.125" x="418.752" y="435.6838">&#272;&#225;nh gi&#225; m&#7913;c &#273;&#7897; s&#7861;n s&#224;ng v&#224;</text><text fill="#000000" font-family="Arial" font-size="12" lengthAdjust="spacing" textLength="192.6797" x="418.752" y="449.4827">chuy&#7875;n tr&#7841;ng th&#225;i v&#7853;n h&#224;nh ph&#249; h&#7907;p</text><line style="stroke:#000000;stroke-width:1.5;" x1="385.3379" x2="385.3379" y1="12.3145" y2="635.6233"/><line style="stroke:#000000;stroke-width:1.5;" x1="642.8457" x2="642.8457" y1="12.3145" y2="635.6233"/><line style="stroke:#181818;stroke-width:1;" x1="200.4832" x2="200.4832" y1="58.0127" y2="78.0127"/><polygon fill="#181818" points="196.4832,68.0127,204.4832,68.0127,200.4832,78.0127" style="stroke:#181818;stroke-width:1;"/><line style="stroke:#181818;stroke-width:1;" x1="200.4832" x2="200.4832" y1="224.707" y2="249.0315"/><polygon fill="#181818" points="196.4832,239.0315,204.4832,239.0315,200.4832,249.0315" style="stroke:#181818;stroke-width:1;"/><line style="stroke:#181818;stroke-width:1;" x1="271.5088" x2="302.5496" y1="212.0581" y2="212.0581"/><polygon fill="#181818" points="298.5496,262.5059,306.5496,262.5059,302.5496,272.5059" style="stroke:#181818;stroke-width:1;"/><line style="stroke:#181818;stroke-width:1;" x1="302.5496" x2="302.5496" y1="212.0581" y2="328.6292"/><line style="stroke:#181818;stroke-width:1;" x1="302.5496" x2="212.4832" y1="328.6292" y2="328.6292"/><polygon fill="#181818" points="222.4832,324.6292,212.4832,328.6292,222.4832,332.6292" style="stroke:#181818;stroke-width:1;"/><line style="stroke:#181818;stroke-width:1;" x1="200.4832" x2="200.4832" y1="296.6292" y2="316.6292"/><polygon fill="#181818" points="196.4832,306.6292,204.4832,306.6292,200.4832,316.6292" style="stroke:#181818;stroke-width:1;"/><line style="stroke:#181818;stroke-width:1;" x1="200.4832" x2="200.4832" y1="340.6292" y2="360.6292"/><polygon fill="#181818" points="196.4832,350.6292,204.4832,350.6292,200.4832,360.6292" style="stroke:#181818;stroke-width:1;"/><line style="stroke:#181818;stroke-width:1;" x1="118.4683" x2="108.4683" y1="494.0256" y2="494.0256"/><line style="stroke:#181818;stroke-width:1;" x1="108.4683" x2="108.4683" y1="494.0256" y2="516.0256"/><polygon fill="#181818" points="104.4683,506.0256,112.4683,506.0256,108.4683,516.0256" style="stroke:#181818;stroke-width:1;"/><line style="stroke:#181818;stroke-width:1;" x1="282.498" x2="292.498" y1="494.0256" y2="494.0256"/><line style="stroke:#181818;stroke-width:1;" x1="292.498" x2="292.498" y1="494.0256" y2="516.0256"/><polygon fill="#181818" points="288.498,506.0256,296.498,506.0256,292.498,516.0256" style="stroke:#181818;stroke-width:1;"/><line style="stroke:#181818;stroke-width:1;" x1="108.4683" x2="108.4683" y1="563.6233" y2="581.6233"/><line style="stroke:#181818;stroke-width:1;" x1="108.4683" x2="188.4832" y1="581.6233" y2="581.6233"/><polygon fill="#181818" points="178.4832,577.6233,188.4832,581.6233,178.4832,585.6233" style="stroke:#181818;stroke-width:1;"/><line style="stroke:#181818;stroke-width:1;" x1="292.498" x2="292.498" y1="563.6233" y2="581.6233"/><line style="stroke:#181818;stroke-width:1;" x1="292.498" x2="212.4832" y1="581.6233" y2="581.6233"/><polygon fill="#181818" points="222.4832,577.6233,212.4832,581.6233,222.4832,585.6233" style="stroke:#181818;stroke-width:1;"/><line style="stroke:#181818;stroke-width:1;" x1="200.4832" x2="200.4832" y1="593.6233" y2="613.6233"/><polygon fill="#181818" points="196.4832,603.6233,204.4832,603.6233,200.4832,613.6233" style="stroke:#181818;stroke-width:1;"/><line style="stroke:#181818;stroke-width:1;" x1="200.4832" x2="200.4832" y1="111.8115" y2="116.8115"/><line style="stroke:#181818;stroke-width:1;" x1="200.4832" x2="515.0918" y1="116.8115" y2="116.8115"/><line style="stroke:#181818;stroke-width:1;" x1="515.0918" x2="515.0918" y1="116.8115" y2="131.8115"/><polygon fill="#181818" points="511.0918,121.8115,519.0918,121.8115,515.0918,131.8115" style="stroke:#181818;stroke-width:1;"/><line style="stroke:#181818;stroke-width:1;" x1="515.0918" x2="515.0918" y1="179.4092" y2="184.4092"/><line style="stroke:#181818;stroke-width:1;" x1="515.0918" x2="200.4832" y1="184.4092" y2="184.4092"/><line style="stroke:#181818;stroke-width:1;" x1="200.4832" x2="200.4832" y1="184.4092" y2="199.4092"/><polygon fill="#181818" points="196.4832,189.4092,204.4832,189.4092,200.4832,199.4092" style="stroke:#181818;stroke-width:1;"/><line style="stroke:#181818;stroke-width:1;" x1="200.4832" x2="200.4832" y1="394.428" y2="399.428"/><line style="stroke:#181818;stroke-width:1;" x1="200.4832" x2="515.0918" y1="399.428" y2="399.428"/><line style="stroke:#181818;stroke-width:1;" x1="515.0918" x2="515.0918" y1="399.428" y2="414.428"/><polygon fill="#181818" points="511.0918,404.428,519.0918,404.428,515.0918,414.428" style="stroke:#181818;stroke-width:1;"/><line style="stroke:#181818;stroke-width:1;" x1="515.0918" x2="515.0918" y1="462.0256" y2="467.0256"/><line style="stroke:#181818;stroke-width:1;" x1="515.0918" x2="200.4832" y1="467.0256" y2="467.0256"/><line style="stroke:#181818;stroke-width:1;" x1="200.4832" x2="200.4832" y1="467.0256" y2="482.0256"/><polygon fill="#181818" points="196.4832,472.0256,204.4832,472.0256,200.4832,482.0256" style="stroke:#181818;stroke-width:1;"/><text fill="#000000" font-family="Arial" font-size="18" lengthAdjust="spacing" textLength="253.0107" x="73.6636" y="29.1982">Ng&#432;&#7901;i d&#249;ng chuy&#234;n m&#244;n n&#7897;i b&#7897;</text><text fill="#000000" font-family="Arial" font-size="18" lengthAdjust="spacing" textLength="129.0674" x="449.5581" y="29.1982">H&#7879; th&#7889;ng SMAP</text><!--SRC=[bLAzQjn04ExtAQQqmKzmLnWJ285W4_0r8QHOhtJQpKaZHTfrEBWkHOeKYKcL8c3566FZmuR416kB56ly7liccTtSnJg8Yoiaf9cTRxwVRIOAArxp0XezpLDwrqfeK-IiUUX8dfJl56OmvdcJzZf9EkOcrqzBr7kyI66dLZndRBQNtLzx-qr1ucvfJ4WpTHS8XVk9WDv-LN10xnbhDAyr6xnq5mQ4xyuCQAbyzrj3xhjvHOFX3o7nzgEGr4nBWhnHGzhnpDiFLF7sY3Rix-wycB71A1ol02LD8nowOyZlhoFqgG7fBb62u4N5LOPRhAhBDwdGMu2PyVPBt785kI9S4sSBRqy5Q1NOQHcUG6guXZurXeqdxaVKXdqQZBvFYCs1QqkOa8WpWf5bA6RRcq4emiOh6dszoG06enLNmhbV8i3D5rer7Nfhfg1zTnKRZs4FMKe94lHpILmpGaynKMEsai5XT4-wus3NcWdSVNOjZMNAjS6_Sm5tHsG5DBwxGMW8CmlUic2Pj-yHTEsxbefQkbQjhAwakmL2FrdRyjrUS1F9LGGFXNWxWeO7ZqSr9zds_6_ajEwJ8igkhHREFzQcPl- -4Ddl9CRDXVpdyMXfrgh8PQJ_RKPpO7c3UqaE5qarkgp-0000]--></g></svg>