<svg xmlns="http://www.w3.org/2000/svg" xmlns:xlink="http://www.w3.org/1999/xlink" contentStyleType="text/css" data-diagram-type="ACTIVITY" height="837px" preserveAspectRatio="none" style="width:555px;height:837px;background:#FFFFFF;" version="1.1" viewBox="0 0 555 837" width="555px" zoomAndPan="magnify"><defs/><g><rect fill="none" height="20.6982" style="stroke:none;stroke-width:1;" width="522.019" x="15" y="12.3145"/><ellipse cx="142.8302" cy="48.0127" fill="#222222" rx="10" ry="10" style="stroke:#222222;stroke-width:1;"/><rect fill="#F1F1F1" height="33.7988" rx="12.5" ry="12.5" style="stroke:#181818;stroke-width:0.5;" width="212.8027" x="36.4288" y="78.0127"/><text fill="#000000" font-family="Arial" font-size="12" lengthAdjust="spacing" textLength="192.8027" x="46.4288" y="99.2686">Y&#234;u c&#7847;u thi&#7871;t l&#7853;p chi&#7871;n d&#7883;ch theo d&#245;i</text><rect fill="#F1F1F1" height="47.5977" rx="12.5" ry="12.5" style="stroke:#181818;stroke-width:0.5;" width="184.1328" x="50.7638" y="249.0315"/><text fill="#000000" font-family="Arial" font-size="12" lengthAdjust="spacing" textLength="124.752" x="60.7638" y="270.2874">Thi&#7871;t l&#7853;p ho&#7863;c c&#7853;p nh&#7853;t</text><text fill="#000000" font-family="Arial" font-size="12" lengthAdjust="spacing" textLength="164.1328" x="60.7638" y="284.0862">quy t&#7855;c c&#7843;nh b&#225;o kh&#7911;ng ho&#7843;ng</text><polygon fill="#F1F1F1" points="83.8046,199.4092,201.8558,199.4092,213.8558,212.0581,201.8558,224.707,83.8046,224.707,71.8046,212.0581,83.8046,199.4092" style="stroke:#181818;stroke-width:0.5;"/><text fill="#000000" font-family="Arial" font-size="11" lengthAdjust="spacing" textLength="20.1738" x="146.8302" y="235.0249">[C&#243;]</text><text fill="#000000" font-family="Arial" font-size="11" lengthAdjust="spacing" textLength="111.9014" x="83.8046" y="209.7271">C&#243; c&#7847;n qu&#7843;n l&#253; quy t&#7855;c</text><text fill="#000000" font-family="Arial" font-size="11" lengthAdjust="spacing" textLength="118.0513" x="83.8046" y="222.376">c&#7843;nh b&#225;o kh&#7911;ng ho&#7843;ng?</text><text fill="#000000" font-family="Arial" font-size="11" lengthAdjust="spacing" textLength="37.9199" x="213.8558" y="209.7271">[Kh&#244;ng]</text><polygon fill="#F1F1F1" points="142.8302,316.6292,154.8302,328.6292,142.8302,340.6292,130.8302,328.6292,142.8302,316.6292" style="stroke:#181818;stroke-width:0.5;"/><rect fill="#F1F1F1" height="33.7988" rx="12.5" ry="12.5" style="stroke:#181818;stroke-width:0.5;" width="220.1504" x="32.755" y="360.6292"/><text fill="#000000" font-family="Arial" font-size="12" lengthAdjust="spacing" textLength="200.1504" x="42.755" y="381.885">Y&#234;u c&#7847;u v&#7853;n h&#224;nh chi&#7871;n d&#7883;ch theo d&#245;i</text><rect fill="#F1F1F1" height="47.5977" rx="12.5" ry="12.5" style="stroke:#181818;stroke-width:0.5;" width="136.0742" x="74.7931" y="531.6479"/><text fill="#000000" font-family="Arial" font-size="12" lengthAdjust="spacing" textLength="116.0742" x="84.7931" y="552.9038">Theo d&#245;i tr&#7841;ng th&#225;i v&#224;</text><text fill="#000000" font-family="Arial" font-size="12" lengthAdjust="spacing" textLength="79.4063" x="84.7931" y="566.7026">nh&#7853;n c&#7843;nh b&#225;o</text><polygon fill="#F1F1F1" points="77.7057,482.0256,207.9547,482.0256,219.9547,494.6746,207.9547,507.3235,77.7057,507.3235,65.7057,494.6746,77.7057,482.0256" style="stroke:#181818;stroke-width:0.5;"/><text fill="#000000" font-family="Arial" font-size="11" lengthAdjust="spacing" textLength="20.1738" x="146.8302" y="517.6414">[C&#243;]</text><text fill="#000000" font-family="Arial" font-size="11" lengthAdjust="spacing" textLength="130.249" x="77.7057" y="492.3435">Ti&#7871;p t&#7909;c theo d&#245;i tr&#7841;ng th&#225;i</text><text fill="#000000" font-family="Arial" font-size="11" lengthAdjust="spacing" textLength="66.0537" x="77.7057" y="504.9924">v&#224; c&#7843;nh b&#225;o?</text><text fill="#000000" font-family="Arial" font-size="11" lengthAdjust="spacing" textLength="37.9199" x="219.9547" y="492.3435">[Kh&#244;ng]</text><polygon fill="#F1F1F1" points="142.8302,599.2456,154.8302,611.2456,142.8302,623.2456,130.8302,611.2456,142.8302,599.2456" style="stroke:#181818;stroke-width:0.5;"/><rect fill="#F1F1F1" height="47.5977" rx="12.5" ry="12.5" style="stroke:#181818;stroke-width:0.5;" width="120.752" x="82.4542" y="691.5701"/><text fill="#000000" font-family="Arial" font-size="12" lengthAdjust="spacing" textLength="100.752" x="92.4542" y="712.8259">Tra c&#7913;u v&#224; h&#7887;i &#273;&#225;p</text><text fill="#000000" font-family="Arial" font-size="12" lengthAdjust="spacing" textLength="89.4258" x="92.4542" y="726.6248">d&#7919; li&#7879;u ph&#226;n t&#237;ch</text><polygon fill="#F1F1F1" points="74.3246,643.2456,211.3358,643.2456,223.3358,655.2456,211.3358,667.2456,74.3246,667.2456,62.3246,655.2456,74.3246,643.2456" style="stroke:#181818;stroke-width:0.5;"/><text fill="#000000" font-family="Arial" font-size="11" lengthAdjust="spacing" textLength="20.1738" x="146.8302" y="677.5635">[C&#243;]</text><text fill="#000000" font-family="Arial" font-size="11" lengthAdjust="spacing" textLength="137.0112" x="74.3246" y="659.239">Khai th&#225;c d&#7919; li&#7879;u ph&#226;n t&#237;ch?</text><text fill="#000000" font-family="Arial" font-size="11" lengthAdjust="spacing" textLength="37.9199" x="223.3358" y="652.9146">[Kh&#244;ng]</text><polygon fill="#F1F1F1" points="142.8302,759.1677,154.8302,771.1677,142.8302,783.1677,130.8302,771.1677,142.8302,759.1677" style="stroke:#181818;stroke-width:0.5;"/><ellipse cx="142.8302" cy="814.1677" fill="none" rx="11" ry="11" style="stroke:#222222;stroke-width:1;"/><ellipse cx="142.8302" cy="814.1677" fill="#222222" rx="6" ry="6" style="stroke:#222222;stroke-width:1;"/><line style="stroke:#000000;stroke-width:1.5;" x1="15" x2="15" y1="12.3145" y2="825.1677"/><rect fill="#F1F1F1" height="47.5977" rx="12.5" ry="12.5" style="stroke:#181818;stroke-width:0.5;" width="247.5078" x="284.0107" y="131.8115"/><text fill="#000000" font-family="Arial" font-size="12" lengthAdjust="spacing" textLength="198.1582" x="294.0107" y="153.0674">Ti&#7871;p nh&#7853;n v&#224; l&#432;u c&#7845;u h&#236;nh campaign,</text><text fill="#000000" font-family="Arial" font-size="12" lengthAdjust="spacing" textLength="227.5078" x="294.0107" y="166.8662">project, ngu&#7891;n d&#7919; li&#7879;u v&#224; m&#7909;c ti&#234;u thu th&#7853;p</text><rect fill="#F1F1F1" height="47.5977" rx="12.5" ry="12.5" style="stroke:#181818;stroke-width:0.5;" width="212.6797" x="301.4248" y="414.428"/><text fill="#000000" font-family="Arial" font-size="12" lengthAdjust="spacing" textLength="160.125" x="311.4248" y="435.6838">&#272;&#225;nh gi&#225; m&#7913;c &#273;&#7897; s&#7861;n s&#224;ng v&#224;</text><text fill="#000000" font-family="Arial" font-size="12" lengthAdjust="spacing" textLength="192.6797" x="311.4248" y="449.4827">chuy&#7875;n tr&#7841;ng th&#225;i v&#7853;n h&#224;nh ph&#249; h&#7907;p</text><line style="stroke:#000000;stroke-width:1.5;" x1="278.0107" x2="278.0107" y1="12.3145" y2="825.1677"/><line style="stroke:#000000;stroke-width:1.5;" x1="535.5186" x2="535.5186" y1="12.3145" y2="825.1677"/><line style="stroke:#181818;stroke-width:1;" x1="142.8302" x2="142.8302" y1="58.0127" y2="78.0127"/><polygon fill="#181818" points="138.8302,68.0127,146.8302,68.0127,142.8302,78.0127" style="stroke:#181818;stroke-width:1;"/><line style="stroke:#181818;stroke-width:1;" x1="142.8302" x2="142.8302" y1="224.707" y2="249.0315"/><polygon fill="#181818" points="138.8302,239.0315,146.8302,239.0315,142.8302,249.0315" style="stroke:#181818;stroke-width:1;"/><line style="stroke:#181818;stroke-width:1;" x1="213.8558" x2="244.8966" y1="212.0581" y2="212.0581"/><polygon fill="#181818" points="240.8966,262.5059,248.8966,262.5059,244.8966,272.5059" style="stroke:#181818;stroke-width:1;"/><line style="stroke:#181818;stroke-width:1;" x1="244.8966" x2="244.8966" y1="212.0581" y2="328.6292"/><line style="stroke:#181818;stroke-width:1;" x1="244.8966" x2="154.8302" y1="328.6292" y2="328.6292"/><polygon fill="#181818" points="164.8302,324.6292,154.8302,328.6292,164.8302,332.6292" style="stroke:#181818;stroke-width:1;"/><line style="stroke:#181818;stroke-width:1;" x1="142.8302" x2="142.8302" y1="296.6292" y2="316.6292"/><polygon fill="#181818" points="138.8302,306.6292,146.8302,306.6292,142.8302,316.6292" style="stroke:#181818;stroke-width:1;"/><line style="stroke:#181818;stroke-width:1;" x1="142.8302" x2="142.8302" y1="340.6292" y2="360.6292"/><polygon fill="#181818" points="138.8302,350.6292,146.8302,350.6292,142.8302,360.6292" style="stroke:#181818;stroke-width:1;"/><line style="stroke:#181818;stroke-width:1;" x1="142.8302" x2="142.8302" y1="507.3235" y2="531.6479"/><polygon fill="#181818" points="138.8302,521.6479,146.8302,521.6479,142.8302,531.6479" style="stroke:#181818;stroke-width:1;"/><line style="stroke:#181818;stroke-width:1;" x1="219.9547" x2="231.9547" y1="494.6746" y2="494.6746"/><polygon fill="#181818" points="227.9547,545.1223,235.9547,545.1223,231.9547,555.1223" style="stroke:#181818;stroke-width:1;"/><line style="stroke:#181818;stroke-width:1;" x1="231.9547" x2="231.9547" y1="494.6746" y2="611.2456"/><line style="stroke:#181818;stroke-width:1;" x1="231.9547" x2="154.8302" y1="611.2456" y2="611.2456"/><polygon fill="#181818" points="164.8302,607.2456,154.8302,611.2456,164.8302,615.2456" style="stroke:#181818;stroke-width:1;"/><line style="stroke:#181818;stroke-width:1;" x1="142.8302" x2="142.8302" y1="579.2456" y2="599.2456"/><polygon fill="#181818" points="138.8302,589.2456,146.8302,589.2456,142.8302,599.2456" style="stroke:#181818;stroke-width:1;"/><line style="stroke:#181818;stroke-width:1;" x1="142.8302" x2="142.8302" y1="667.2456" y2="691.5701"/><polygon fill="#181818" points="138.8302,681.5701,146.8302,681.5701,142.8302,691.5701" style="stroke:#181818;stroke-width:1;"/><line style="stroke:#181818;stroke-width:1;" x1="223.3358" x2="235.3358" y1="655.2456" y2="655.2456"/><polygon fill="#181818" points="231.3358,705.3689,239.3358,705.3689,235.3358,715.3689" style="stroke:#181818;stroke-width:1;"/><line style="stroke:#181818;stroke-width:1;" x1="235.3358" x2="235.3358" y1="655.2456" y2="771.1677"/><line style="stroke:#181818;stroke-width:1;" x1="235.3358" x2="154.8302" y1="771.1677" y2="771.1677"/><polygon fill="#181818" points="164.8302,767.1677,154.8302,771.1677,164.8302,775.1677" style="stroke:#181818;stroke-width:1;"/><line style="stroke:#181818;stroke-width:1;" x1="142.8302" x2="142.8302" y1="739.1677" y2="759.1677"/><polygon fill="#181818" points="138.8302,749.1677,146.8302,749.1677,142.8302,759.1677" style="stroke:#181818;stroke-width:1;"/><line style="stroke:#181818;stroke-width:1;" x1="142.8302" x2="142.8302" y1="623.2456" y2="643.2456"/><polygon fill="#181818" points="138.8302,633.2456,146.8302,633.2456,142.8302,643.2456" style="stroke:#181818;stroke-width:1;"/><line style="stroke:#181818;stroke-width:1;" x1="142.8302" x2="142.8302" y1="783.1677" y2="803.1677"/><polygon fill="#181818" points="138.8302,793.1677,146.8302,793.1677,142.8302,803.1677" style="stroke:#181818;stroke-width:1;"/><line style="stroke:#181818;stroke-width:1;" x1="142.8302" x2="142.8302" y1="111.8115" y2="116.8115"/><line style="stroke:#181818;stroke-width:1;" x1="142.8302" x2="407.7646" y1="116.8115" y2="116.8115"/><line style="stroke:#181818;stroke-width:1;" x1="407.7646" x2="407.7646" y1="116.8115" y2="131.8115"/><polygon fill="#181818" points="403.7646,121.8115,411.7646,121.8115,407.7646,131.8115" style="stroke:#181818;stroke-width:1;"/><line style="stroke:#181818;stroke-width:1;" x1="407.7646" x2="407.7646" y1="179.4092" y2="184.4092"/><line style="stroke:#181818;stroke-width:1;" x1="407.7646" x2="142.8302" y1="184.4092" y2="184.4092"/><line style="stroke:#181818;stroke-width:1;" x1="142.8302" x2="142.8302" y1="184.4092" y2="199.4092"/><polygon fill="#181818" points="138.8302,189.4092,146.8302,189.4092,142.8302,199.4092" style="stroke:#181818;stroke-width:1;"/><line style="stroke:#181818;stroke-width:1;" x1="142.8302" x2="142.8302" y1="394.428" y2="399.428"/><line style="stroke:#181818;stroke-width:1;" x1="142.8302" x2="407.7646" y1="399.428" y2="399.428"/><line style="stroke:#181818;stroke-width:1;" x1="407.7646" x2="407.7646" y1="399.428" y2="414.428"/><polygon fill="#181818" points="403.7646,404.428,411.7646,404.428,407.7646,414.428" style="stroke:#181818;stroke-width:1;"/><line style="stroke:#181818;stroke-width:1;" x1="407.7646" x2="407.7646" y1="462.0256" y2="467.0256"/><line style="stroke:#181818;stroke-width:1;" x1="407.7646" x2="142.8302" y1="467.0256" y2="467.0256"/><line style="stroke:#181818;stroke-width:1;" x1="142.8302" x2="142.8302" y1="467.0256" y2="482.0256"/><polygon fill="#181818" points="138.8302,472.0256,146.8302,472.0256,142.8302,482.0256" style="stroke:#181818;stroke-width:1;"/><text fill="#000000" font-family="Arial" font-size="18" lengthAdjust="spacing" textLength="253.0107" x="20" y="29.1982">Ng&#432;&#7901;i d&#249;ng chuy&#234;n m&#244;n n&#7897;i b&#7897;</text><text fill="#000000" font-family="Arial" font-size="18" lengthAdjust="spacing" textLength="129.0674" x="342.231" y="29.1982">H&#7879; th&#7889;ng SMAP</text><!--SRC=[bLB1IXn14BttLzHHmI_OFGG9I40YWNW98OUsPtQwOq_DPAPRMTXR3XvoI2Id709EH4J9ef18S9gGGul_qN-Iwb7Z3km6zZ3DT5M_LwzULRshiEGLpw4sOvtIMIbXRAvP_PYHF2ds5MOmuhfEPp99Ek9Mcuq2pHRFKrYl5DUCJRQosylWlYf8_3N1XBHZVuwG-vy86DmN1JjqJbXjU6NOu9K_jo12Ush1I1NQFmPqQASb0UCD8GdkWv2KJ0kYl593gl4ik0EA17T85Lu-NtynOOFj-Bm4b8H6sFD7e6ylE-eJ2z9_Hmc2voLN6QwniYhUfiAi0MOskCzTbGlGYdXjXys3En5WL5HdPFoYgE4I_QaHh3prFxhU4DxPq1uZQF-RViTWGdiXc8Wn2Jk-AM2NkZabFbd4OFPaDNQCiFAQEDwiCe31Ti-U-EwNYEpJ-wODFVh73V_X7hAKHadKcv94PyIUOg96h3UClSv6wO-YRqkEukQJRmYMATz48yy4t1oI9r27zWgX9iuicioYTy6zHp1LQ1iA6kaRrIjTIdyDn7wyjFVt-s3k1laWkL-AnL7FE3NNzRd8JZyyRDiCnK9pewPDoLM75xs5eoQ_aGb-AkGy1HMd0kxiRZ79Yu-A_FHDISa5B8j4rAOe_m80]--></g></svg>