<svg xmlns="http://www.w3.org/2000/svg" xmlns:xlink="http://www.w3.org/1999/xlink" contentStyleType="text/css" data-diagram-type="ACTIVITY" height="746px" preserveAspectRatio="none" style="width:938px;height:746px;background:#FFFFFF;" version="1.1" viewBox="0 0 938 746" width="938px" zoomAndPan="magnify"><defs/><g><rect fill="none" height="20.6982" style="stroke:none;stroke-width:1;" width="905.5176" x="15" y="12.3145"/><ellipse cx="340.1956" cy="48.0127" fill="#222222" rx="10" ry="10" style="stroke:#222222;stroke-width:1;"/><rect fill="#F1F1F1" height="47.5977" rx="12.5" ry="12.5" style="stroke:#181818;stroke-width:0.5;" width="146.082" x="267.1545" y="78.0127"/><text fill="#000000" font-family="Arial" font-size="12" lengthAdjust="spacing" textLength="126.082" x="277.1545" y="99.2686">Ch&#7885;n campaign hi&#7879;n c&#243;</text><text fill="#000000" font-family="Arial" font-size="12" lengthAdjust="spacing" textLength="125.2676" x="277.1545" y="113.0674">ho&#7863;c t&#7841;o campaign m&#7899;i</text><rect fill="#F1F1F1" height="33.7988" rx="12.5" ry="12.5" style="stroke:#181818;stroke-width:0.5;" width="137.4102" x="271.4905" y="145.6104"/><text fill="#000000" font-family="Arial" font-size="12" lengthAdjust="spacing" textLength="117.4102" x="281.4905" y="166.8662">Nh&#7853;p th&#244;ng tin project</text><rect fill="#F1F1F1" height="33.7988" rx="12.5" ry="12.5" style="stroke:#181818;stroke-width:0.5;" width="144.1309" x="268.1301" y="199.4092"/><text fill="#000000" font-family="Arial" font-size="12" lengthAdjust="spacing" textLength="124.1309" x="278.1301" y="220.665">Khai b&#225;o ngu&#7891;n d&#7919; li&#7879;u</text><rect fill="#F1F1F1" height="33.7988" rx="12.5" ry="12.5" style="stroke:#181818;stroke-width:0.5;" width="146.0645" x="267.1633" y="253.208"/><text fill="#000000" font-family="Arial" font-size="12" lengthAdjust="spacing" textLength="126.0645" x="277.1633" y="274.4639">Th&#234;m m&#7909;c ti&#234;u thu th&#7853;p</text><rect fill="#F1F1F1" height="47.5977" rx="12.5" ry="12.5" style="stroke:#181818;stroke-width:0.5;" width="188.1289" x="21" y="612.8965"/><text fill="#000000" font-family="Arial" font-size="12" lengthAdjust="spacing" textLength="168.1289" x="31" y="634.1523">X&#225;c nh&#7853;n c&#7845;u h&#236;nh &#273;&#7911; &#273;i&#7873;u ki&#7879;n</text><text fill="#000000" font-family="Arial" font-size="12" lengthAdjust="spacing" textLength="120.7617" x="31" y="647.9512">chuy&#7875;n sang v&#7853;n h&#224;nh</text><ellipse cx="115.0645" cy="691.4941" fill="none" rx="11" ry="11" style="stroke:#222222;stroke-width:1;"/><ellipse cx="115.0645" cy="691.4941" fill="#222222" rx="6" ry="6" style="stroke:#222222;stroke-width:1;"/><rect fill="#F1F1F1" height="47.5977" rx="12.5" ry="12.5" style="stroke:#181818;stroke-width:0.5;" width="141.4121" x="219.1289" y="612.8965"/><text fill="#000000" font-family="Arial" font-size="12" lengthAdjust="spacing" textLength="106.0723" x="229.1289" y="634.1523">&#272;i&#7873;u ch&#7881;nh c&#7845;u h&#236;nh</text><text fill="#000000" font-family="Arial" font-size="12" lengthAdjust="spacing" textLength="121.4121" x="229.1289" y="647.9512">ho&#7863;c m&#7909;c ti&#234;u thu th&#7853;p</text><ellipse cx="289.835" cy="691.4941" fill="none" rx="11" ry="11" style="stroke:#222222;stroke-width:1;"/><ellipse cx="289.835" cy="691.4941" fill="#222222" rx="6" ry="6" style="stroke:#222222;stroke-width:1;"/><rect fill="#F1F1F1" height="33.7988" rx="12.5" ry="12.5" style="stroke:#181818;stroke-width:0.5;" width="184.8008" x="390.541" y="433.7012"/><text fill="#000000" font-family="Arial" font-size="12" lengthAdjust="spacing" textLength="164.8008" x="400.541" y="454.957">&#272;&#225;nh d&#7845;u c&#7845;u h&#236;nh &#273;&#227; ho&#224;n t&#7845;t</text><rect fill="#F1F1F1" height="33.7988" rx="12.5" ry="12.5" style="stroke:#181818;stroke-width:0.5;" width="168.0957" x="398.8936" y="487.5"/><text fill="#000000" font-family="Arial" font-size="12" lengthAdjust="spacing" textLength="148.0957" x="408.8936" y="508.7559">Ho&#224;n t&#7845;t thi&#7871;t l&#7853;p chi&#7871;n d&#7883;ch</text><ellipse cx="482.9414" cy="566.0977" fill="none" rx="11" ry="11" style="stroke:#222222;stroke-width:1;"/><ellipse cx="482.9414" cy="566.0977" fill="#222222" rx="6" ry="6" style="stroke:#222222;stroke-width:1;"/><line style="stroke:#000000;stroke-width:1.5;" x1="15" x2="15" y1="12.3145" y2="734.4941"/><rect fill="#F1F1F1" height="61.3965" rx="12.5" ry="12.5" style="stroke:#181818;stroke-width:0.5;" width="192.1484" x="715.1714" y="307.0068"/><text fill="#000000" font-family="Arial" font-size="12" lengthAdjust="spacing" textLength="146.7773" x="725.1714" y="328.2627">Ki&#7875;m tra d&#7919; li&#7879;u &#273;&#7847;u v&#224;o v&#224;</text><text fill="#000000" font-family="Arial" font-size="12" lengthAdjust="spacing" textLength="118.7578" x="725.1714" y="342.0615">l&#432;u campaign, project,</text><text fill="#000000" font-family="Arial" font-size="12" lengthAdjust="spacing" textLength="172.1484" x="725.1714" y="355.8604">ngu&#7891;n d&#7919; li&#7879;u, m&#7909;c ti&#234;u thu th&#7853;p</text><polygon fill="#F1F1F1" points="758.394,388.4033,864.0972,388.4033,876.0972,401.0522,864.0972,413.7012,758.394,413.7012,746.394,401.0522,758.394,388.4033" style="stroke:#181818;stroke-width:0.5;"/><text fill="#000000" font-family="Arial" font-size="11" lengthAdjust="spacing" textLength="105.7031" x="758.394" y="398.7212">T&#7893; h&#7907;p ngu&#7891;n d&#7919; li&#7879;u</text><text fill="#000000" font-family="Arial" font-size="11" lengthAdjust="spacing" textLength="100.2944" x="758.394" y="411.3701">c&#243; c&#7847;n ki&#7875;m tra th&#7917;?</text><text fill="#000000" font-family="Arial" font-size="11" lengthAdjust="spacing" textLength="20.1738" x="726.2202" y="398.7212">[C&#243;]</text><text fill="#000000" font-family="Arial" font-size="11" lengthAdjust="spacing" textLength="37.9199" x="876.0972" y="398.7212">[Kh&#244;ng]</text><rect fill="#F1F1F1" height="33.7988" rx="12.5" ry="12.5" style="stroke:#181818;stroke-width:0.5;" width="141.4414" x="597.7791" y="433.7012"/><text fill="#000000" font-family="Arial" font-size="12" lengthAdjust="spacing" textLength="121.4414" x="607.7791" y="454.957">Th&#7921;c hi&#7879;n ki&#7875;m tra th&#7917;</text><rect fill="#F1F1F1" height="47.5977" rx="12.5" ry="12.5" style="stroke:#181818;stroke-width:0.5;" width="127.4082" x="604.7957" y="487.5"/><text fill="#000000" font-family="Arial" font-size="12" lengthAdjust="spacing" textLength="107.4082" x="614.7957" y="508.7559">Ghi nh&#7853;n k&#7871;t qu&#7843; v&#224;</text><text fill="#000000" font-family="Arial" font-size="12" lengthAdjust="spacing" textLength="92.748" x="614.7957" y="522.5547">m&#7913;c &#273;&#7897; s&#7861;n s&#224;ng</text><polygon fill="#F1F1F1" points="616.5156,568.8965,720.4839,568.8965,732.4839,580.8965,720.4839,592.8965,616.5156,592.8965,604.5156,580.8965,616.5156,568.8965" style="stroke:#181818;stroke-width:0.5;"/><text fill="#000000" font-family="Arial" font-size="11" lengthAdjust="spacing" textLength="103.9683" x="616.5156" y="584.8899">K&#7871;t qu&#7843; &#273;&#7841;t y&#234;u c&#7847;u?</text><text fill="#000000" font-family="Arial" font-size="11" lengthAdjust="spacing" textLength="20.1738" x="584.3418" y="578.5654">[C&#243;]</text><text fill="#000000" font-family="Arial" font-size="11" lengthAdjust="spacing" textLength="37.9199" x="732.4839" y="578.5654">[Kh&#244;ng]</text><line style="stroke:#000000;stroke-width:1.5;" x1="579.3418" x2="579.3418" y1="12.3145" y2="734.4941"/><line style="stroke:#000000;stroke-width:1.5;" x1="919.0171" x2="919.0171" y1="12.3145" y2="734.4941"/><line style="stroke:#181818;stroke-width:1;" x1="340.1956" x2="340.1956" y1="58.0127" y2="78.0127"/><polygon fill="#181818" points="336.1956,68.0127,344.1956,68.0127,340.1956,78.0127" style="stroke:#181818;stroke-width:1;"/><line style="stroke:#181818;stroke-width:1;" x1="340.1956" x2="340.1956" y1="125.6104" y2="145.6104"/><polygon fill="#181818" points="336.1956,135.6104,344.1956,135.6104,340.1956,145.6104" style="stroke:#181818;stroke-width:1;"/><line style="stroke:#181818;stroke-width:1;" x1="340.1956" x2="340.1956" y1="179.4092" y2="199.4092"/><polygon fill="#181818" points="336.1956,189.4092,344.1956,189.4092,340.1956,199.4092" style="stroke:#181818;stroke-width:1;"/><line style="stroke:#181818;stroke-width:1;" x1="340.1956" x2="340.1956" y1="233.208" y2="253.208"/><polygon fill="#181818" points="336.1956,243.208,344.1956,243.208,340.1956,253.208" style="stroke:#181818;stroke-width:1;"/><line style="stroke:#181818;stroke-width:1;" x1="115.0645" x2="115.0645" y1="660.4941" y2="680.4941"/><polygon fill="#181818" points="111.0645,670.4941,119.0645,670.4941,115.0645,680.4941" style="stroke:#181818;stroke-width:1;"/><line style="stroke:#181818;stroke-width:1;" x1="289.835" x2="289.835" y1="660.4941" y2="680.4941"/><polygon fill="#181818" points="285.835,670.4941,293.835,670.4941,289.835,680.4941" style="stroke:#181818;stroke-width:1;"/><line style="stroke:#181818;stroke-width:1;" x1="482.9414" x2="482.9414" y1="467.5" y2="487.5"/><polygon fill="#181818" points="478.9414,477.5,486.9414,477.5,482.9414,487.5" style="stroke:#181818;stroke-width:1;"/><line style="stroke:#181818;stroke-width:1;" x1="482.9414" x2="482.9414" y1="521.2988" y2="555.0977"/><polygon fill="#181818" points="478.9414,545.0977,486.9414,545.0977,482.9414,555.0977" style="stroke:#181818;stroke-width:1;"/><line style="stroke:#181818;stroke-width:1;" x1="668.4998" x2="668.4998" y1="467.5" y2="487.5"/><polygon fill="#181818" points="664.4998,477.5,672.4998,477.5,668.4998,487.5" style="stroke:#181818;stroke-width:1;"/><line style="stroke:#181818;stroke-width:1;" x1="668.4998" x2="668.4998" y1="535.0977" y2="568.8965"/><polygon fill="#181818" points="664.4998,558.8965,672.4998,558.8965,668.4998,568.8965" style="stroke:#181818;stroke-width:1;"/><line style="stroke:#181818;stroke-width:1;" x1="746.394" x2="668.4998" y1="401.0522" y2="401.0522"/><line style="stroke:#181818;stroke-width:1;" x1="668.4998" x2="668.4998" y1="401.0522" y2="433.7012"/><polygon fill="#181818" points="664.4998,423.7012,672.4998,423.7012,668.4998,433.7012" style="stroke:#181818;stroke-width:1;"/><line style="stroke:#181818;stroke-width:1;" x1="811.2456" x2="811.2456" y1="368.4033" y2="388.4033"/><polygon fill="#181818" points="807.2456,378.4033,815.2456,378.4033,811.2456,388.4033" style="stroke:#181818;stroke-width:1;"/><line style="stroke:#181818;stroke-width:1;" x1="340.1956" x2="340.1956" y1="287.0068" y2="292.0068"/><line style="stroke:#181818;stroke-width:1;" x1="340.1956" x2="811.2456" y1="292.0068" y2="292.0068"/><line style="stroke:#181818;stroke-width:1;" x1="811.2456" x2="811.2456" y1="292.0068" y2="307.0068"/><polygon fill="#181818" points="807.2456,297.0068,815.2456,297.0068,811.2456,307.0068" style="stroke:#181818;stroke-width:1;"/><line style="stroke:#181818;stroke-width:1;" x1="604.5156" x2="115.0645" y1="580.8965" y2="580.8965"/><line style="stroke:#181818;stroke-width:1;" x1="115.0645" x2="115.0645" y1="580.8965" y2="612.8965"/><polygon fill="#181818" points="111.0645,602.8965,119.0645,602.8965,115.0645,612.8965" style="stroke:#181818;stroke-width:1;"/><line style="stroke:#181818;stroke-width:1;" x1="732.4839" x2="744.4839" y1="580.8965" y2="580.8965"/><line style="stroke:#181818;stroke-width:1;" x1="744.4839" x2="744.4839" y1="580.8965" y2="598.8965"/><line style="stroke:#181818;stroke-width:1;" x1="744.4839" x2="289.835" y1="598.8965" y2="598.8965"/><line style="stroke:#181818;stroke-width:1;" x1="289.835" x2="289.835" y1="598.8965" y2="612.8965"/><polygon fill="#181818" points="285.835,602.8965,293.835,602.8965,289.835,612.8965" style="stroke:#181818;stroke-width:1;"/><line style="stroke:#181818;stroke-width:1;" x1="876.0972" x2="888.0972" y1="401.0522" y2="401.0522"/><line style="stroke:#181818;stroke-width:1;" x1="888.0972" x2="888.0972" y1="401.0522" y2="420.0256"/><line style="stroke:#181818;stroke-width:1;" x1="888.0972" x2="482.9414" y1="420.0256" y2="420.0256"/><line style="stroke:#181818;stroke-width:1;" x1="482.9414" x2="482.9414" y1="420.0256" y2="433.7012"/><polygon fill="#181818" points="478.9414,423.7012,486.9414,423.7012,482.9414,433.7012" style="stroke:#181818;stroke-width:1;"/><text fill="#000000" font-family="Arial" font-size="18" lengthAdjust="spacing" textLength="253.0107" x="170.6655" y="29.1982">Ng&#432;&#7901;i d&#249;ng chuy&#234;n m&#244;n n&#7897;i b&#7897;</text><text fill="#000000" font-family="Arial" font-size="18" lengthAdjust="spacing" textLength="129.0674" x="684.6458" y="29.1982">H&#7879; th&#7889;ng SMAP</text><!--SRC=[dPD1QnD15CVlyodUiOLyWkGWfQ25O13iGH0Fu-ncPzhTj-lkJ2MGYtWe8e95F1GH6a8e1ekLAkBEmSEKVe_v9huPZOcs1VMGoGxllV_x_T- -RNOLLhpc1JHwbATqrafeK-IiMKOaJyh72ZCOyhn9Lo99EkGcrpTBr0DUfB1HAvupDXva5wVUlbMGkAzK9gGPkJb2uJuXeBU72XxIEMQDvhLctKtfxGi4mOkAgmn1Ac_twUxEc2nz-qM0zksaN2OKthvHFTOTID-ULA0b2MUW5K9Lbpkfq1JhIqvj79LXPhnzXP1u-m7oe6qelYtTl0XACv9NRcv89lo2OeyyR55UkDe3ahvxU-FEc3If-6a1kkQhOd1-uDjZ0tlkg0m7oozEpI_OpeAfmwu0wLnFe8QmjktjQo26QNML2qOJ0a6z4NQNP87vvCOw_QS8Q_SttTc3TGP0XhtzA1R3_REW5r9kIGKO-bFSjzyqF3A-dKPF443VYU3L7aBZsyy8ZJl2Z4W10cj_fI9CPA9X54m5G7EP1-2lroGaT- -vYLZ0aUJCW7JlKKQWOph9pnCJRUrZh0Xov94mEOdlnK99nB8NmuqkAtf8QQE9gXzNwB_0pb_-Q2reZCy8Q0Kk9lnSuUlUyoeB9ch8BXDH2pSXvIGg_sxUJQa1kGgVo4m7kN-WxsujImb8nJUOnszAn5jSj-SYZYn2HiJl]--></g></svg>