<svg xmlns="http://www.w3.org/2000/svg" xmlns:xlink="http://www.w3.org/1999/xlink" contentStyleType="text/css" data-diagram-type="ACTIVITY" height="690px" preserveAspectRatio="none" style="width:833px;height:690px;background:#FFFFFF;" version="1.1" viewBox="0 0 833 690" width="833px" zoomAndPan="magnify"><defs/><g><rect fill="none" height="20.6982" style="stroke:none;stroke-width:1;" width="800.8459" x="15" y="12.3145"/><ellipse cx="108.0596" cy="48.0127" fill="#222222" rx="10" ry="10" style="stroke:#222222;stroke-width:1;"/><rect fill="#F1F1F1" height="47.5977" rx="12.5" ry="12.5" style="stroke:#181818;stroke-width:0.5;" width="161.9375" x="27.0908" y="78.0127"/><text fill="#000000" font-family="Arial" font-size="12" lengthAdjust="spacing" textLength="141.9375" x="37.0908" y="99.2686">M&#7903; campaign ho&#7863;c project</text><text fill="#000000" font-family="Arial" font-size="12" lengthAdjust="spacing" textLength="72.0586" x="37.0908" y="113.0674">c&#7847;n v&#7853;n h&#224;nh</text><rect fill="#F1F1F1" height="47.5977" rx="12.5" ry="12.5" style="stroke:#181818;stroke-width:0.5;" width="174.1191" x="21" y="145.6104"/><text fill="#000000" font-family="Arial" font-size="12" lengthAdjust="spacing" textLength="145.4063" x="31" y="166.8662">Y&#234;u c&#7847;u ki&#7875;m tra readiness</text><text fill="#000000" font-family="Arial" font-size="12" lengthAdjust="spacing" textLength="154.1191" x="31" y="180.665">ho&#7863;c ch&#7885;n thao t&#225;c v&#7853;n h&#224;nh</text><rect fill="#F1F1F1" height="47.5977" rx="12.5" ry="12.5" style="stroke:#181818;stroke-width:0.5;" width="144.0957" x="87.3816" y="557.001"/><text fill="#000000" font-family="Arial" font-size="12" lengthAdjust="spacing" textLength="124.0957" x="97.3816" y="578.2568">Nh&#7853;n k&#7871;t qu&#7843; v&#7853;n h&#224;nh</text><text fill="#000000" font-family="Arial" font-size="12" lengthAdjust="spacing" textLength="59.3848" x="97.3816" y="592.0557">th&#224;nh c&#244;ng</text><ellipse cx="159.4294" cy="635.5986" fill="none" rx="11" ry="11" style="stroke:#222222;stroke-width:1;"/><ellipse cx="159.4294" cy="635.5986" fill="#222222" rx="6" ry="6" style="stroke:#222222;stroke-width:1;"/><rect fill="#F1F1F1" height="47.5977" rx="12.5" ry="12.5" style="stroke:#181818;stroke-width:0.5;" width="123.3184" x="241.4773" y="423.9023"/><text fill="#000000" font-family="Arial" font-size="12" lengthAdjust="spacing" textLength="102.75" x="251.4773" y="445.1582">T&#7915; ch&#7889;i thao t&#225;c v&#224;</text><text fill="#000000" font-family="Arial" font-size="12" lengthAdjust="spacing" textLength="103.3184" x="251.4773" y="458.957">tr&#7843; l&#253; do t&#432;&#417;ng &#7913;ng</text><ellipse cx="303.1365" cy="514.2021" fill="none" rx="11" ry="11" style="stroke:#222222;stroke-width:1;"/><ellipse cx="303.1365" cy="514.2021" fill="#222222" rx="6" ry="6" style="stroke:#222222;stroke-width:1;"/><line style="stroke:#000000;stroke-width:1.5;" x1="15" x2="15" y1="12.3145" y2="678.5986"/><rect fill="#F1F1F1" height="47.5977" rx="12.5" ry="12.5" style="stroke:#181818;stroke-width:0.5;" width="162.7461" x="499.1914" y="213.208"/><text fill="#000000" font-family="Arial" font-size="12" lengthAdjust="spacing" textLength="142.7461" x="509.1914" y="234.4639">Ki&#7875;m tra quy&#7873;n thao t&#225;c v&#224;</text><text fill="#000000" font-family="Arial" font-size="12" lengthAdjust="spacing" textLength="92.0625" x="509.1914" y="248.2627">tr&#7841;ng th&#225;i hi&#7879;n t&#7841;i</text><rect fill="#F1F1F1" height="33.7988" rx="12.5" ry="12.5" style="stroke:#181818;stroke-width:0.5;" width="164.1172" x="498.5059" y="280.8057"/><text fill="#000000" font-family="Arial" font-size="12" lengthAdjust="spacing" textLength="144.1172" x="508.5059" y="302.0615">&#272;&#225;nh gi&#225; m&#7913;c &#273;&#7897; s&#7861;n s&#224;ng</text><polygon fill="#F1F1F1" points="522.7903,334.6045,638.3386,334.6045,650.3386,346.6045,638.3386,358.6045,522.7903,358.6045,510.7903,346.6045,522.7903,334.6045" style="stroke:#181818;stroke-width:0.5;"/><text fill="#000000" font-family="Arial" font-size="11" lengthAdjust="spacing" textLength="115.5483" x="522.7903" y="350.5979">Ch&#7881; ki&#7875;m tra readiness?</text><text fill="#000000" font-family="Arial" font-size="11" lengthAdjust="spacing" textLength="20.1738" x="490.6165" y="344.2734">[C&#243;]</text><text fill="#000000" font-family="Arial" font-size="11" lengthAdjust="spacing" textLength="37.9199" x="650.3386" y="344.2734">[Kh&#244;ng]</text><rect fill="#F1F1F1" height="47.5977" rx="12.5" ry="12.5" style="stroke:#181818;stroke-width:0.5;" width="145.4141" x="374.7957" y="378.6045"/><text fill="#000000" font-family="Arial" font-size="12" lengthAdjust="spacing" textLength="110.0742" x="384.7957" y="399.8604">Tr&#7843; k&#7871;t qu&#7843; &#273;&#225;nh gi&#225;</text><text fill="#000000" font-family="Arial" font-size="12" lengthAdjust="spacing" textLength="125.4141" x="384.7957" y="413.6592">m&#224; kh&#244;ng &#273;&#7893;i tr&#7841;ng th&#225;i</text><ellipse cx="447.5027" cy="472.2021" fill="none" rx="11" ry="11" style="stroke:#222222;stroke-width:1;"/><ellipse cx="447.5027" cy="472.2021" fill="#222222" rx="6" ry="6" style="stroke:#222222;stroke-width:1;"/><polygon fill="#F1F1F1" points="667.8269,378.6045,759.4255,378.6045,771.4255,391.2534,759.4255,403.9023,667.8269,403.9023,655.8269,391.2534,667.8269,378.6045" style="stroke:#181818;stroke-width:0.5;"/><text fill="#000000" font-family="Arial" font-size="11" lengthAdjust="spacing" textLength="91.5986" x="667.8269" y="388.9224">Thao t&#225;c h&#7907;p l&#7879; v&#224;</text><text fill="#000000" font-family="Arial" font-size="11" lengthAdjust="spacing" textLength="65.4414" x="673.9392" y="401.5713">&#273;&#7911; &#273;i&#7873;u ki&#7879;n?</text><text fill="#000000" font-family="Arial" font-size="11" lengthAdjust="spacing" textLength="20.1738" x="635.6531" y="388.9224">[C&#243;]</text><text fill="#000000" font-family="Arial" font-size="11" lengthAdjust="spacing" textLength="37.9199" x="771.4255" y="388.9224">[Kh&#244;ng]</text><rect fill="#F1F1F1" height="47.5977" rx="12.5" ry="12.5" style="stroke:#181818;stroke-width:0.5;" width="163.4492" x="550.2097" y="423.9023"/><text fill="#000000" font-family="Arial" font-size="12" lengthAdjust="spacing" textLength="143.4492" x="560.2097" y="445.1582">&#193;p d&#7909;ng thao t&#225;c v&#7853;n h&#224;nh</text><text fill="#000000" font-family="Arial" font-size="12" lengthAdjust="spacing" textLength="42.7031" x="560.2097" y="458.957">&#273;&#227; ch&#7885;n</text><rect fill="#F1F1F1" height="33.7988" rx="12.5" ry="12.5" style="stroke:#181818;stroke-width:0.5;" width="145.9355" x="558.9666" y="503.2021"/><text fill="#000000" font-family="Arial" font-size="12" lengthAdjust="spacing" textLength="125.9355" x="568.9666" y="524.458">Ghi nh&#7853;n tr&#7841;ng th&#225;i m&#7899;i</text><line style="stroke:#000000;stroke-width:1.5;" x1="368.7957" x2="368.7957" y1="12.3145" y2="678.5986"/><line style="stroke:#000000;stroke-width:1.5;" x1="814.3455" x2="814.3455" y1="12.3145" y2="678.5986"/><line style="stroke:#181818;stroke-width:1;" x1="108.0596" x2="108.0596" y1="58.0127" y2="78.0127"/><polygon fill="#181818" points="104.0596,68.0127,112.0596,68.0127,108.0596,78.0127" style="stroke:#181818;stroke-width:1;"/><line style="stroke:#181818;stroke-width:1;" x1="108.0596" x2="108.0596" y1="125.6104" y2="145.6104"/><polygon fill="#181818" points="104.0596,135.6104,112.0596,135.6104,108.0596,145.6104" style="stroke:#181818;stroke-width:1;"/><line style="stroke:#181818;stroke-width:1;" x1="159.4294" x2="159.4294" y1="604.5986" y2="624.5986"/><polygon fill="#181818" points="155.4294,614.5986,163.4294,614.5986,159.4294,624.5986" style="stroke:#181818;stroke-width:1;"/><line style="stroke:#181818;stroke-width:1;" x1="303.1365" x2="303.1365" y1="471.5" y2="503.2021"/><polygon fill="#181818" points="299.1365,493.2021,307.1365,493.2021,303.1365,503.2021" style="stroke:#181818;stroke-width:1;"/><line style="stroke:#181818;stroke-width:1;" x1="580.5645" x2="580.5645" y1="260.8057" y2="280.8057"/><polygon fill="#181818" points="576.5645,270.8057,584.5645,270.8057,580.5645,280.8057" style="stroke:#181818;stroke-width:1;"/><line style="stroke:#181818;stroke-width:1;" x1="447.5027" x2="447.5027" y1="426.2021" y2="461.2021"/><polygon fill="#181818" points="443.5027,451.2021,451.5027,451.2021,447.5027,461.2021" style="stroke:#181818;stroke-width:1;"/><line style="stroke:#181818;stroke-width:1;" x1="631.9343" x2="631.9343" y1="471.5" y2="503.2021"/><polygon fill="#181818" points="627.9343,493.2021,635.9343,493.2021,631.9343,503.2021" style="stroke:#181818;stroke-width:1;"/><line style="stroke:#181818;stroke-width:1;" x1="655.8269" x2="631.9343" y1="391.2534" y2="391.2534"/><line style="stroke:#181818;stroke-width:1;" x1="631.9343" x2="631.9343" y1="391.2534" y2="423.9023"/><polygon fill="#181818" points="627.9343,413.9023,635.9343,413.9023,631.9343,423.9023" style="stroke:#181818;stroke-width:1;"/><line style="stroke:#181818;stroke-width:1;" x1="510.7903" x2="447.5027" y1="346.6045" y2="346.6045"/><line style="stroke:#181818;stroke-width:1;" x1="447.5027" x2="447.5027" y1="346.6045" y2="378.6045"/><polygon fill="#181818" points="443.5027,368.6045,451.5027,368.6045,447.5027,378.6045" style="stroke:#181818;stroke-width:1;"/><line style="stroke:#181818;stroke-width:1;" x1="650.3386" x2="713.6262" y1="346.6045" y2="346.6045"/><line style="stroke:#181818;stroke-width:1;" x1="713.6262" x2="713.6262" y1="346.6045" y2="378.6045"/><polygon fill="#181818" points="709.6262,368.6045,717.6262,368.6045,713.6262,378.6045" style="stroke:#181818;stroke-width:1;"/><line style="stroke:#181818;stroke-width:1;" x1="580.5645" x2="580.5645" y1="314.6045" y2="334.6045"/><polygon fill="#181818" points="576.5645,324.6045,584.5645,324.6045,580.5645,334.6045" style="stroke:#181818;stroke-width:1;"/><line style="stroke:#181818;stroke-width:1;" x1="108.0596" x2="108.0596" y1="193.208" y2="198.208"/><line style="stroke:#181818;stroke-width:1;" x1="108.0596" x2="580.5645" y1="198.208" y2="198.208"/><line style="stroke:#181818;stroke-width:1;" x1="580.5645" x2="580.5645" y1="198.208" y2="213.208"/><polygon fill="#181818" points="576.5645,203.208,584.5645,203.208,580.5645,213.208" style="stroke:#181818;stroke-width:1;"/><line style="stroke:#181818;stroke-width:1;" x1="631.9343" x2="631.9343" y1="537.001" y2="542.001"/><line style="stroke:#181818;stroke-width:1;" x1="631.9343" x2="159.4294" y1="542.001" y2="542.001"/><line style="stroke:#181818;stroke-width:1;" x1="159.4294" x2="159.4294" y1="542.001" y2="557.001"/><polygon fill="#181818" points="155.4294,547.001,163.4294,547.001,159.4294,557.001" style="stroke:#181818;stroke-width:1;"/><line style="stroke:#181818;stroke-width:1;" x1="771.4255" x2="783.4255" y1="391.2534" y2="391.2534"/><line style="stroke:#181818;stroke-width:1;" x1="783.4255" x2="783.4255" y1="391.2534" y2="410.2268"/><line style="stroke:#181818;stroke-width:1;" x1="783.4255" x2="303.1365" y1="410.2268" y2="410.2268"/><line style="stroke:#181818;stroke-width:1;" x1="303.1365" x2="303.1365" y1="410.2268" y2="423.9023"/><polygon fill="#181818" points="299.1365,413.9023,307.1365,413.9023,303.1365,423.9023" style="stroke:#181818;stroke-width:1;"/><text fill="#000000" font-family="Arial" font-size="18" lengthAdjust="spacing" textLength="253.0107" x="65.3925" y="29.1982">Ng&#432;&#7901;i d&#249;ng chuy&#234;n m&#244;n n&#7897;i b&#7897;</text><text fill="#000000" font-family="Arial" font-size="18" lengthAdjust="spacing" textLength="129.0674" x="527.0369" y="29.1982">H&#7879; th&#7889;ng SMAP</text><!--SRC=[ZL91QnD16BtFhtZ7zYya1oa55Kg3O2yY7iRTpSwOtTbrPrO9v18y10-2ENWG4HE252j2GKNSGJnCoF-OV-AtiwLjqXwyV0pplNdlVUyRFPAgv1NFeSquIwXMCZ9rdZ5zrH4yBbvAbMB8CvrSwyJ9aDUPkLieC-1vWeDAyeonoI3Td7lxKI9sl-bP9EgnErF8tGy5vUrxYQTK9qmRNXdME_Rs4oAUbroc2gBmpQy8PLKyIoB38j-SAhpmpJTgkOKIVTPxvCvgj8qQ8-djgnocugWI7akLQCqkA2BXxHi58tW1uvRHDWkRtFTsHbrlvsJouV71Wmdh7LtnFQ_7tawtthi5CvLlbeGtmYqb1C5d1A4xISRMRzrI2QJIBP5x-oN2UawJGllcfu8cuPI4vH1xXoJx-bRtT_Q9Er7OUtpelZ_PPq3lX3HN6Fdcho5NxNazlnGYGEuM60bADmrwxoIsNFO9earHieJMHxn70HgeMoidb_EHfrM9h8sb7HM1xPGgsPnsMS_KJN_aq4rBnDv-3fAtn1rGP7friPH-z-oUa50YmBPpfV0-o0xqtxyfC0uwjkjPxTemuOYe3Q6J2E40D-Dfi_VsQp0zbpi_8N25pMJk3sBgRCutxGYq-5rc5SiX2_KV]--></g></svg>