<svg xmlns="http://www.w3.org/2000/svg" xmlns:xlink="http://www.w3.org/1999/xlink" contentStyleType="text/css" data-diagram-type="ACTIVITY" height="773px" preserveAspectRatio="none" style="width:1269px;height:773px;background:#FFFFFF;" version="1.1" viewBox="0 0 1269 773" width="1269px" zoomAndPan="magnify"><defs/><g><rect fill="none" height="20.6982" style="stroke:none;stroke-width:1;" width="1236.6426" x="15" y="12.3145"/><ellipse cx="295.0664" cy="48.0127" fill="#222222" rx="10" ry="10" style="stroke:#222222;stroke-width:1;"/><rect fill="#F1F1F1" height="47.5977" rx="12.5" ry="12.5" style="stroke:#181818;stroke-width:0.5;" width="161.9375" x="214.0977" y="78.0127"/><text fill="#000000" font-family="Arial" font-size="12" lengthAdjust="spacing" textLength="141.9375" x="224.0977" y="99.2686">M&#7903; campaign ho&#7863;c project</text><text fill="#000000" font-family="Arial" font-size="12" lengthAdjust="spacing" textLength="72.0586" x="224.0977" y="113.0674">c&#7847;n v&#7853;n h&#224;nh</text><rect fill="#F1F1F1" height="47.5977" rx="12.5" ry="12.5" style="stroke:#181818;stroke-width:0.5;" width="174.1191" x="208.0068" y="145.6104"/><text fill="#000000" font-family="Arial" font-size="12" lengthAdjust="spacing" textLength="145.4063" x="218.0068" y="166.8662">Y&#234;u c&#7847;u ki&#7875;m tra readiness</text><text fill="#000000" font-family="Arial" font-size="12" lengthAdjust="spacing" textLength="154.1191" x="218.0068" y="180.665">ho&#7863;c ch&#7885;n thao t&#225;c v&#7853;n h&#224;nh</text><rect fill="#F1F1F1" height="33.7988" rx="12.5" ry="12.5" style="stroke:#181818;stroke-width:0.5;" width="146.75" x="21" y="476.2021"/><text fill="#000000" font-family="Arial" font-size="12" lengthAdjust="spacing" textLength="126.75" x="31" y="497.458">Nh&#7853;n k&#7871;t qu&#7843; readiness</text><ellipse cx="94.375" cy="556.001" fill="none" rx="11" ry="11" style="stroke:#222222;stroke-width:1;"/><ellipse cx="94.375" cy="556.001" fill="#222222" rx="6" ry="6" style="stroke:#222222;stroke-width:1;"/><polygon fill="#F1F1F1" points="483.3784,324.8057,585.5044,324.8057,597.5044,337.4546,585.5044,350.1035,483.3784,350.1035,471.3784,337.4546,483.3784,324.8057" style="stroke:#181818;stroke-width:0.5;"/><text fill="#000000" font-family="Arial" font-size="11" lengthAdjust="spacing" textLength="102.126" x="483.3784" y="335.1235">L&#224; thao t&#225;c k&#237;ch ho&#7841;t</text><text fill="#000000" font-family="Arial" font-size="11" lengthAdjust="spacing" textLength="68.4922" x="489.4907" y="347.7725">ho&#7863;c ti&#7871;p t&#7909;c?</text><text fill="#000000" font-family="Arial" font-size="11" lengthAdjust="spacing" textLength="20.1738" x="451.2046" y="335.1235">[C&#243;]</text><text fill="#000000" font-family="Arial" font-size="11" lengthAdjust="spacing" textLength="156.4653" x="597.5044" y="335.1235">[T&#7841;m d&#7915;ng, l&#432;u tr&#7919; ho&#7863;c m&#7903; l&#7841;i]</text><rect fill="#F1F1F1" height="33.7988" rx="12.5" ry="12.5" style="stroke:#181818;stroke-width:0.5;" width="164.1172" x="266.7925" y="360.1035"/><text fill="#000000" font-family="Arial" font-size="12" lengthAdjust="spacing" textLength="144.1172" x="276.7925" y="381.3594">&#272;&#225;nh gi&#225; m&#7913;c &#273;&#7897; s&#7861;n s&#224;ng</text><polygon fill="#F1F1F1" points="291.0581,428.9023,406.644,428.9023,418.644,440.9023,406.644,452.9023,291.0581,452.9023,279.0581,440.9023,291.0581,428.9023" style="stroke:#181818;stroke-width:0.5;"/><text fill="#000000" font-family="Arial" font-size="11" lengthAdjust="spacing" textLength="115.5859" x="291.0581" y="444.8958">&#272;&#7911; &#273;i&#7873;u ki&#7879;n v&#7853;n h&#224;nh?</text><text fill="#000000" font-family="Arial" font-size="11" lengthAdjust="spacing" textLength="20.1738" x="258.8843" y="438.5713">[C&#243;]</text><text fill="#000000" font-family="Arial" font-size="11" lengthAdjust="spacing" textLength="37.9199" x="418.644" y="438.5713">[Kh&#244;ng]</text><rect fill="#F1F1F1" height="47.5977" rx="12.5" ry="12.5" style="stroke:#181818;stroke-width:0.5;" width="162.7695" x="177.75" y="462.9023"/><text fill="#000000" font-family="Arial" font-size="12" lengthAdjust="spacing" textLength="142.7695" x="187.75" y="484.1582">&#193;p d&#7909;ng thao t&#225;c k&#237;ch ho&#7841;t</text><text fill="#000000" font-family="Arial" font-size="12" lengthAdjust="spacing" textLength="68.0449" x="187.75" y="497.957">ho&#7863;c ti&#7871;p t&#7909;c</text><rect fill="#F1F1F1" height="33.7988" rx="12.5" ry="12.5" style="stroke:#181818;stroke-width:0.5;" width="145.9355" x="186.167" y="545.5"/><text fill="#000000" font-family="Arial" font-size="12" lengthAdjust="spacing" textLength="125.9355" x="196.167" y="566.7559">Ghi nh&#7853;n tr&#7841;ng th&#225;i m&#7899;i</text><rect fill="#F1F1F1" height="47.5977" rx="12.5" ry="12.5" style="stroke:#181818;stroke-width:0.5;" width="144.0957" x="187.0869" y="614.2988"/><text fill="#000000" font-family="Arial" font-size="12" lengthAdjust="spacing" textLength="124.0957" x="197.0869" y="635.5547">Nh&#7853;n k&#7871;t qu&#7843; v&#7853;n h&#224;nh</text><text fill="#000000" font-family="Arial" font-size="12" lengthAdjust="spacing" textLength="59.3848" x="197.0869" y="649.3535">th&#224;nh c&#244;ng</text><ellipse cx="259.1348" cy="707.8965" fill="none" rx="11" ry="11" style="stroke:#222222;stroke-width:1;"/><ellipse cx="259.1348" cy="707.8965" fill="#222222" rx="6" ry="6" style="stroke:#222222;stroke-width:1;"/><rect fill="#F1F1F1" height="47.5977" rx="12.5" ry="12.5" style="stroke:#181818;stroke-width:0.5;" width="156.0957" x="360.5195" y="462.9023"/><text fill="#000000" font-family="Arial" font-size="12" lengthAdjust="spacing" textLength="136.0957" x="370.5195" y="484.1582">T&#7915; ch&#7889;i thao t&#225;c v&#224; tr&#7843; v&#7873;</text><text fill="#000000" font-family="Arial" font-size="12" lengthAdjust="spacing" textLength="120.7734" x="370.5195" y="497.957">c&#225;c &#273;i&#7873;u ki&#7879;n ch&#432;a &#273;&#7841;t</text><rect fill="#F1F1F1" height="33.7988" rx="12.5" ry="12.5" style="stroke:#181818;stroke-width:0.5;" width="117.418" x="379.8584" y="545.5"/><text fill="#000000" font-family="Arial" font-size="12" lengthAdjust="spacing" textLength="97.418" x="389.8584" y="566.7559">Nh&#7853;n l&#253; do t&#7915; ch&#7889;i</text><ellipse cx="438.5674" cy="625.2988" fill="none" rx="11" ry="11" style="stroke:#222222;stroke-width:1;"/><ellipse cx="438.5674" cy="625.2988" fill="#222222" rx="6" ry="6" style="stroke:#222222;stroke-width:1;"/><rect fill="#F1F1F1" height="47.5977" rx="12.5" ry="12.5" style="stroke:#181818;stroke-width:0.5;" width="160.7773" x="639.6431" y="360.1035"/><text fill="#000000" font-family="Arial" font-size="12" lengthAdjust="spacing" textLength="140.7773" x="649.6431" y="381.3594">Chu&#7849;n b&#7883; &#225;p d&#7909;ng thao t&#225;c</text><text fill="#000000" font-family="Arial" font-size="12" lengthAdjust="spacing" textLength="116.0742" x="649.6431" y="395.1582">tr&#234;n tr&#7841;ng th&#225;i hi&#7879;n t&#7841;i</text><polygon fill="#F1F1F1" points="668.6653,442.7012,771.3982,442.7012,783.3982,455.3501,771.3982,467.999,668.6653,467.999,656.6653,455.3501,668.6653,442.7012" style="stroke:#181818;stroke-width:0.5;"/><text fill="#000000" font-family="Arial" font-size="11" lengthAdjust="spacing" textLength="95.1382" x="668.6653" y="453.019">Thao t&#225;c h&#7907;p l&#7879; v&#7899;i</text><text fill="#000000" font-family="Arial" font-size="11" lengthAdjust="spacing" textLength="90.5083" x="680.8899" y="465.668">tr&#7841;ng th&#225;i hi&#7879;n t&#7841;i?</text><text fill="#000000" font-family="Arial" font-size="11" lengthAdjust="spacing" textLength="20.1738" x="636.4915" y="453.019">[C&#243;]</text><text fill="#000000" font-family="Arial" font-size="11" lengthAdjust="spacing" textLength="37.9199" x="783.3982" y="453.019">[Kh&#244;ng]</text><rect fill="#F1F1F1" height="47.5977" rx="12.5" ry="12.5" style="stroke:#181818;stroke-width:0.5;" width="163.4492" x="556.6152" y="477.999"/><text fill="#000000" font-family="Arial" font-size="12" lengthAdjust="spacing" textLength="143.4492" x="566.6152" y="499.2549">&#193;p d&#7909;ng thao t&#225;c v&#7853;n h&#224;nh</text><text fill="#000000" font-family="Arial" font-size="12" lengthAdjust="spacing" textLength="42.7031" x="566.6152" y="513.0537">&#273;&#227; ch&#7885;n</text><rect fill="#F1F1F1" height="33.7988" rx="12.5" ry="12.5" style="stroke:#181818;stroke-width:0.5;" width="145.9355" x="565.3721" y="560.5967"/><text fill="#000000" font-family="Arial" font-size="12" lengthAdjust="spacing" textLength="125.9355" x="575.3721" y="581.8525">Ghi nh&#7853;n tr&#7841;ng th&#225;i m&#7899;i</text><rect fill="#F1F1F1" height="47.5977" rx="12.5" ry="12.5" style="stroke:#181818;stroke-width:0.5;" width="144.0957" x="566.292" y="629.3955"/><text fill="#000000" font-family="Arial" font-size="12" lengthAdjust="spacing" textLength="124.0957" x="576.292" y="650.6514">Nh&#7853;n k&#7871;t qu&#7843; v&#7853;n h&#224;nh</text><text fill="#000000" font-family="Arial" font-size="12" lengthAdjust="spacing" textLength="59.3848" x="576.292" y="664.4502">th&#224;nh c&#244;ng</text><ellipse cx="638.3398" cy="722.9932" fill="none" rx="11" ry="11" style="stroke:#222222;stroke-width:1;"/><ellipse cx="638.3398" cy="722.9932" fill="#222222" rx="6" ry="6" style="stroke:#222222;stroke-width:1;"/><rect fill="#F1F1F1" height="47.5977" rx="12.5" ry="12.5" style="stroke:#181818;stroke-width:0.5;" width="123.3184" x="740.0645" y="477.999"/><text fill="#000000" font-family="Arial" font-size="12" lengthAdjust="spacing" textLength="102.75" x="750.0645" y="499.2549">T&#7915; ch&#7889;i thao t&#225;c v&#224;</text><text fill="#000000" font-family="Arial" font-size="12" lengthAdjust="spacing" textLength="103.3184" x="750.0645" y="513.0537">tr&#7843; l&#253; do t&#432;&#417;ng &#7913;ng</text><rect fill="#F1F1F1" height="33.7988" rx="12.5" ry="12.5" style="stroke:#181818;stroke-width:0.5;" width="117.418" x="743.0146" y="560.5967"/><text fill="#000000" font-family="Arial" font-size="12" lengthAdjust="spacing" textLength="97.418" x="753.0146" y="581.8525">Nh&#7853;n l&#253; do t&#7915; ch&#7889;i</text><ellipse cx="801.7236" cy="640.3955" fill="none" rx="11" ry="11" style="stroke:#222222;stroke-width:1;"/><ellipse cx="801.7236" cy="640.3955" fill="#222222" rx="6" ry="6" style="stroke:#222222;stroke-width:1;"/><line style="stroke:#000000;stroke-width:1.5;" x1="15" x2="15" y1="12.3145" y2="761.9932"/><rect fill="#F1F1F1" height="47.5977" rx="12.5" ry="12.5" style="stroke:#181818;stroke-width:0.5;" width="162.7461" x="1056.075" y="213.208"/><text fill="#000000" font-family="Arial" font-size="12" lengthAdjust="spacing" textLength="142.7461" x="1066.075" y="234.4639">Ki&#7875;m tra quy&#7873;n thao t&#225;c v&#224;</text><text fill="#000000" font-family="Arial" font-size="12" lengthAdjust="spacing" textLength="92.0625" x="1066.075" y="248.2627">tr&#7841;ng th&#225;i hi&#7879;n t&#7841;i</text><polygon fill="#F1F1F1" points="1079.6738,280.8057,1195.2222,280.8057,1207.2222,292.8057,1195.2222,304.8057,1079.6738,304.8057,1067.6738,292.8057,1079.6738,280.8057" style="stroke:#181818;stroke-width:0.5;"/><text fill="#000000" font-family="Arial" font-size="11" lengthAdjust="spacing" textLength="115.5483" x="1079.6738" y="296.7991">Ch&#7881; ki&#7875;m tra readiness?</text><text fill="#000000" font-family="Arial" font-size="11" lengthAdjust="spacing" textLength="20.1738" x="1047.5" y="290.4746">[C&#243;]</text><text fill="#000000" font-family="Arial" font-size="11" lengthAdjust="spacing" textLength="37.9199" x="1207.2222" y="290.4746">[Kh&#244;ng]</text><rect fill="#F1F1F1" height="33.7988" rx="12.5" ry="12.5" style="stroke:#181818;stroke-width:0.5;" width="164.1172" x="873.3828" y="324.8057"/><text fill="#000000" font-family="Arial" font-size="12" lengthAdjust="spacing" textLength="144.1172" x="883.3828" y="346.0615">&#272;&#225;nh gi&#225; m&#7913;c &#273;&#7897; s&#7861;n s&#224;ng</text><rect fill="#F1F1F1" height="47.5977" rx="12.5" ry="12.5" style="stroke:#181818;stroke-width:0.5;" width="145.4141" x="882.7344" y="393.6045"/><text fill="#000000" font-family="Arial" font-size="12" lengthAdjust="spacing" textLength="110.0742" x="892.7344" y="414.8604">Tr&#7843; k&#7871;t qu&#7843; &#273;&#225;nh gi&#225;</text><text fill="#000000" font-family="Arial" font-size="12" lengthAdjust="spacing" textLength="125.4141" x="892.7344" y="428.6592">m&#224; kh&#244;ng &#273;&#7893;i tr&#7841;ng th&#225;i</text><line style="stroke:#000000;stroke-width:1.5;" x1="867.3828" x2="867.3828" y1="12.3145" y2="761.9932"/><line style="stroke:#000000;stroke-width:1.5;" x1="1250.1421" x2="1250.1421" y1="12.3145" y2="761.9932"/><line style="stroke:#181818;stroke-width:1;" x1="295.0664" x2="295.0664" y1="58.0127" y2="78.0127"/><polygon fill="#181818" points="291.0664,68.0127,299.0664,68.0127,295.0664,78.0127" style="stroke:#181818;stroke-width:1;"/><line style="stroke:#181818;stroke-width:1;" x1="295.0664" x2="295.0664" y1="125.6104" y2="145.6104"/><polygon fill="#181818" points="291.0664,135.6104,299.0664,135.6104,295.0664,145.6104" style="stroke:#181818;stroke-width:1;"/><line style="stroke:#181818;stroke-width:1;" x1="94.375" x2="94.375" y1="510.001" y2="545.001"/><polygon fill="#181818" points="90.375,535.001,98.375,535.001,94.375,545.001" style="stroke:#181818;stroke-width:1;"/><line style="stroke:#181818;stroke-width:1;" x1="259.1348" x2="259.1348" y1="510.5" y2="545.5"/><polygon fill="#181818" points="255.1348,535.5,263.1348,535.5,259.1348,545.5" style="stroke:#181818;stroke-width:1;"/><line style="stroke:#181818;stroke-width:1;" x1="259.1348" x2="259.1348" y1="579.2988" y2="614.2988"/><polygon fill="#181818" points="255.1348,604.2988,263.1348,604.2988,259.1348,614.2988" style="stroke:#181818;stroke-width:1;"/><line style="stroke:#181818;stroke-width:1;" x1="259.1348" x2="259.1348" y1="661.8965" y2="696.8965"/><polygon fill="#181818" points="255.1348,686.8965,263.1348,686.8965,259.1348,696.8965" style="stroke:#181818;stroke-width:1;"/><line style="stroke:#181818;stroke-width:1;" x1="438.5674" x2="438.5674" y1="510.5" y2="545.5"/><polygon fill="#181818" points="434.5674,535.5,442.5674,535.5,438.5674,545.5" style="stroke:#181818;stroke-width:1;"/><line style="stroke:#181818;stroke-width:1;" x1="438.5674" x2="438.5674" y1="579.2988" y2="614.2988"/><polygon fill="#181818" points="434.5674,604.2988,442.5674,604.2988,438.5674,614.2988" style="stroke:#181818;stroke-width:1;"/><line style="stroke:#181818;stroke-width:1;" x1="279.0581" x2="259.1348" y1="440.9023" y2="440.9023"/><line style="stroke:#181818;stroke-width:1;" x1="259.1348" x2="259.1348" y1="440.9023" y2="462.9023"/><polygon fill="#181818" points="255.1348,452.9023,263.1348,452.9023,259.1348,462.9023" style="stroke:#181818;stroke-width:1;"/><line style="stroke:#181818;stroke-width:1;" x1="418.644" x2="438.5674" y1="440.9023" y2="440.9023"/><line style="stroke:#181818;stroke-width:1;" x1="438.5674" x2="438.5674" y1="440.9023" y2="462.9023"/><polygon fill="#181818" points="434.5674,452.9023,442.5674,452.9023,438.5674,462.9023" style="stroke:#181818;stroke-width:1;"/><line style="stroke:#181818;stroke-width:1;" x1="348.8511" x2="348.8511" y1="393.9023" y2="428.9023"/><polygon fill="#181818" points="344.8511,418.9023,352.8511,418.9023,348.8511,428.9023" style="stroke:#181818;stroke-width:1;"/><line style="stroke:#181818;stroke-width:1;" x1="638.3398" x2="638.3398" y1="525.5967" y2="560.5967"/><polygon fill="#181818" points="634.3398,550.5967,642.3398,550.5967,638.3398,560.5967" style="stroke:#181818;stroke-width:1;"/><line style="stroke:#181818;stroke-width:1;" x1="638.3398" x2="638.3398" y1="594.3955" y2="629.3955"/><polygon fill="#181818" points="634.3398,619.3955,642.3398,619.3955,638.3398,629.3955" style="stroke:#181818;stroke-width:1;"/><line style="stroke:#181818;stroke-width:1;" x1="638.3398" x2="638.3398" y1="676.9932" y2="711.9932"/><polygon fill="#181818" points="634.3398,701.9932,642.3398,701.9932,638.3398,711.9932" style="stroke:#181818;stroke-width:1;"/><line style="stroke:#181818;stroke-width:1;" x1="801.7236" x2="801.7236" y1="525.5967" y2="560.5967"/><polygon fill="#181818" points="797.7236,550.5967,805.7236,550.5967,801.7236,560.5967" style="stroke:#181818;stroke-width:1;"/><line style="stroke:#181818;stroke-width:1;" x1="801.7236" x2="801.7236" y1="594.3955" y2="629.3955"/><polygon fill="#181818" points="797.7236,619.3955,805.7236,619.3955,801.7236,629.3955" style="stroke:#181818;stroke-width:1;"/><line style="stroke:#181818;stroke-width:1;" x1="656.6653" x2="638.3398" y1="455.3501" y2="455.3501"/><line style="stroke:#181818;stroke-width:1;" x1="638.3398" x2="638.3398" y1="455.3501" y2="477.999"/><polygon fill="#181818" points="634.3398,467.999,642.3398,467.999,638.3398,477.999" style="stroke:#181818;stroke-width:1;"/><line style="stroke:#181818;stroke-width:1;" x1="783.3982" x2="801.7236" y1="455.3501" y2="455.3501"/><line style="stroke:#181818;stroke-width:1;" x1="801.7236" x2="801.7236" y1="455.3501" y2="477.999"/><polygon fill="#181818" points="797.7236,467.999,805.7236,467.999,801.7236,477.999" style="stroke:#181818;stroke-width:1;"/><line style="stroke:#181818;stroke-width:1;" x1="720.0317" x2="720.0317" y1="407.7012" y2="442.7012"/><polygon fill="#181818" points="716.0317,432.7012,724.0317,432.7012,720.0317,442.7012" style="stroke:#181818;stroke-width:1;"/><line style="stroke:#181818;stroke-width:1;" x1="471.3784" x2="348.8511" y1="337.4546" y2="337.4546"/><line style="stroke:#181818;stroke-width:1;" x1="348.8511" x2="348.8511" y1="337.4546" y2="360.1035"/><polygon fill="#181818" points="344.8511,350.1035,352.8511,350.1035,348.8511,360.1035" style="stroke:#181818;stroke-width:1;"/><line style="stroke:#181818;stroke-width:1;" x1="597.5044" x2="720.0317" y1="337.4546" y2="337.4546"/><line style="stroke:#181818;stroke-width:1;" x1="720.0317" x2="720.0317" y1="337.4546" y2="360.1035"/><polygon fill="#181818" points="716.0317,350.1035,724.0317,350.1035,720.0317,360.1035" style="stroke:#181818;stroke-width:1;"/><line style="stroke:#181818;stroke-width:1;" x1="955.4414" x2="955.4414" y1="358.6045" y2="393.6045"/><polygon fill="#181818" points="951.4414,383.6045,959.4414,383.6045,955.4414,393.6045" style="stroke:#181818;stroke-width:1;"/><line style="stroke:#181818;stroke-width:1;" x1="1067.6738" x2="955.4414" y1="292.8057" y2="292.8057"/><line style="stroke:#181818;stroke-width:1;" x1="955.4414" x2="955.4414" y1="292.8057" y2="324.8057"/><polygon fill="#181818" points="951.4414,314.8057,959.4414,314.8057,955.4414,324.8057" style="stroke:#181818;stroke-width:1;"/><line style="stroke:#181818;stroke-width:1;" x1="1137.448" x2="1137.448" y1="260.8057" y2="280.8057"/><polygon fill="#181818" points="1133.448,270.8057,1141.448,270.8057,1137.448,280.8057" style="stroke:#181818;stroke-width:1;"/><line style="stroke:#181818;stroke-width:1;" x1="295.0664" x2="295.0664" y1="193.208" y2="198.208"/><line style="stroke:#181818;stroke-width:1;" x1="295.0664" x2="1137.448" y1="198.208" y2="198.208"/><line style="stroke:#181818;stroke-width:1;" x1="1137.448" x2="1137.448" y1="198.208" y2="213.208"/><polygon fill="#181818" points="1133.448,203.208,1141.448,203.208,1137.448,213.208" style="stroke:#181818;stroke-width:1;"/><line style="stroke:#181818;stroke-width:1;" x1="955.4414" x2="955.4414" y1="441.2021" y2="458.7021"/><line style="stroke:#181818;stroke-width:1;" x1="955.4414" x2="94.375" y1="458.7021" y2="458.7021"/><line style="stroke:#181818;stroke-width:1;" x1="94.375" x2="94.375" y1="458.7021" y2="476.2021"/><polygon fill="#181818" points="90.375,466.2021,98.375,466.2021,94.375,476.2021" style="stroke:#181818;stroke-width:1;"/><line style="stroke:#181818;stroke-width:1;" x1="1207.2222" x2="1219.2222" y1="292.8057" y2="292.8057"/><line style="stroke:#181818;stroke-width:1;" x1="1219.2222" x2="1219.2222" y1="292.8057" y2="310.8057"/><line style="stroke:#181818;stroke-width:1;" x1="1219.2222" x2="534.4414" y1="310.8057" y2="310.8057"/><line style="stroke:#181818;stroke-width:1;" x1="534.4414" x2="534.4414" y1="310.8057" y2="324.8057"/><polygon fill="#181818" points="530.4414,314.8057,538.4414,314.8057,534.4414,324.8057" style="stroke:#181818;stroke-width:1;"/><text fill="#000000" font-family="Arial" font-size="18" lengthAdjust="spacing" textLength="253.0107" x="314.686" y="29.1982">Ng&#432;&#7901;i d&#249;ng chuy&#234;n m&#244;n n&#7897;i b&#7897;</text><text fill="#000000" font-family="Arial" font-size="18" lengthAdjust="spacing" textLength="129.0674" x="994.2288" y="29.1982">H&#7879; th&#7889;ng SMAP</text><!--SRC=[tLHDQnD16BxFhtYFBVWBqeEKW0grHJ0N4G_Zx6PdpExikZjRAUGIF1GHeJbu416xb5BQKWoeY1d4muJyZ_adlZFDviEaqY9uC8VD9lFEypplypupHKV8ZEOqWKBjnI4-Sy5KcSIacArm6gGlX8oWJUCYd5i9mZOjOtKdbMg79Y5iveB6X7Htel70wWy20lCTjp5Uxfap2Odv8a5Q_Kx0KtnsIQ5ehaXZs-gFm6YIKH59uAaTVcEGvUcpa2d2xF14mguTNk2IEPHyWpGUcRCIt4897M7romHKJY4FQI1aM1Ha0i6urMyaA4vJKAPYYoYaUy_gVLorkeyY7svlFkYInjOCxtcvPtLlORyv92gtmmhh5JUL08xb-rY2_mc456rOQoBWgvMwRg_Zhb32skEc-VnadG0qHWUcaXmYOIf8h3vbCEgZDL3OuLS91IgDDbnT2rcFe6E7FnNgSk-Z_dGd5YJc43eS_Oqym5i12peTnhMdWdGxt3irppVjmc4LAir8Y670NhOyhM_7jNyVbSmSwvWBnlr8AuK5ay4eWS0PkgQFsR8frxVbad5qOFK95g3ZlSj0x2y4PXK3SfXU1W4gy1vTeTTzLcZUg37kSW7oqgl5NA3ezw8kku7p7dM5-tFjJAgK_m7CcLyJ-R6ub-NHUE2MrUV-LFJ5OggzUiUYUvDQvbP-yvJnyO2wIQ0vVzbRR7v0a3etQq7BFSX0jCcqbnQo9cvWvpAw1V5uK3hH-bCzdyHT8h4xXtM8cXojEvME_pMOQddQlapbJkwVJdMTizRKCHHyb24PNX-xRj0JeAiWRXB0vK7ZGJ-QN6N_NUvgJ9- -EXFZmTWrXCT-nl0FOkQ__VCN]--></g></svg>