<svg xmlns="http://www.w3.org/2000/svg" xmlns:xlink="http://www.w3.org/1999/xlink" contentStyleType="text/css" data-diagram-type="ACTIVITY" height="565px" preserveAspectRatio="none" style="width:655px;height:565px;background:#FFFFFF;" version="1.1" viewBox="0 0 655 565" width="655px" zoomAndPan="magnify"><defs/><g><rect fill="none" height="20.6982" style="stroke:none;stroke-width:1;" width="622.4087" x="15" y="12.3145"/><ellipse cx="174.7397" cy="48.0127" fill="#222222" rx="10" ry="10" style="stroke:#222222;stroke-width:1;"/><rect fill="#F1F1F1" height="47.5977" rx="12.5" ry="12.5" style="stroke:#181818;stroke-width:0.5;" width="161.9375" x="93.771" y="78.0127"/><text fill="#000000" font-family="Arial" font-size="12" lengthAdjust="spacing" textLength="141.9375" x="103.771" y="99.2686">M&#7903; campaign ho&#7863;c project</text><text fill="#000000" font-family="Arial" font-size="12" lengthAdjust="spacing" textLength="72.0586" x="103.771" y="113.0674">c&#7847;n v&#7853;n h&#224;nh</text><rect fill="#F1F1F1" height="47.5977" rx="12.5" ry="12.5" style="stroke:#181818;stroke-width:0.5;" width="152.7793" x="98.3501" y="145.6104"/><text fill="#000000" font-family="Arial" font-size="12" lengthAdjust="spacing" textLength="132.7793" x="108.3501" y="166.8662">Ch&#7885;n thao t&#225;c t&#7841;m d&#7915;ng,</text><text fill="#000000" font-family="Arial" font-size="12" lengthAdjust="spacing" textLength="101.9648" x="108.3501" y="180.665">l&#432;u tr&#7919; ho&#7863;c m&#7903; l&#7841;i</text><rect fill="#F1F1F1" height="47.5977" rx="12.5" ry="12.5" style="stroke:#181818;stroke-width:0.5;" width="144.0957" x="21" y="447.5"/><text fill="#000000" font-family="Arial" font-size="12" lengthAdjust="spacing" textLength="124.0957" x="31" y="468.7559">Nh&#7853;n k&#7871;t qu&#7843; v&#7853;n h&#224;nh</text><text fill="#000000" font-family="Arial" font-size="12" lengthAdjust="spacing" textLength="59.3848" x="31" y="482.5547">th&#224;nh c&#244;ng</text><ellipse cx="93.0479" cy="526.0977" fill="none" rx="11" ry="11" style="stroke:#222222;stroke-width:1;"/><ellipse cx="93.0479" cy="526.0977" fill="#222222" rx="6" ry="6" style="stroke:#222222;stroke-width:1;"/><rect fill="#F1F1F1" height="33.7988" rx="12.5" ry="12.5" style="stroke:#181818;stroke-width:0.5;" width="117.418" x="197.7227" y="393.7012"/><text fill="#000000" font-family="Arial" font-size="12" lengthAdjust="spacing" textLength="97.418" x="207.7227" y="414.957">Nh&#7853;n l&#253; do t&#7915; ch&#7889;i</text><ellipse cx="256.4316" cy="458.5" fill="none" rx="11" ry="11" style="stroke:#222222;stroke-width:1;"/><ellipse cx="256.4316" cy="458.5" fill="#222222" rx="6" ry="6" style="stroke:#222222;stroke-width:1;"/><line style="stroke:#000000;stroke-width:1.5;" x1="15" x2="15" y1="12.3145" y2="553.0977"/><rect fill="#F1F1F1" height="47.5977" rx="12.5" ry="12.5" style="stroke:#181818;stroke-width:0.5;" width="146.7383" x="415.188" y="213.208"/><text fill="#000000" font-family="Arial" font-size="12" lengthAdjust="spacing" textLength="126.7383" x="425.188" y="234.4639">Ki&#7875;m tra quy&#7873;n thao t&#225;c</text><text fill="#000000" font-family="Arial" font-size="12" lengthAdjust="spacing" textLength="108.0703" x="425.188" y="248.2627">v&#224; tr&#7841;ng th&#225;i hi&#7879;n t&#7841;i</text><polygon fill="#F1F1F1" points="440.988,280.8057,536.1262,280.8057,548.1262,293.4546,536.1262,306.1035,440.988,306.1035,428.988,293.4546,440.988,280.8057" style="stroke:#181818;stroke-width:0.5;"/><text fill="#000000" font-family="Arial" font-size="11" lengthAdjust="spacing" textLength="95.1382" x="440.988" y="291.1235">Thao t&#225;c h&#7907;p l&#7879; v&#7899;i</text><text fill="#000000" font-family="Arial" font-size="11" lengthAdjust="spacing" textLength="90.5083" x="440.988" y="303.7725">tr&#7841;ng th&#225;i hi&#7879;n t&#7841;i?</text><text fill="#000000" font-family="Arial" font-size="11" lengthAdjust="spacing" textLength="20.1738" x="408.8142" y="291.1235">[C&#243;]</text><text fill="#000000" font-family="Arial" font-size="11" lengthAdjust="spacing" textLength="37.9199" x="548.1262" y="291.1235">[Kh&#244;ng]</text><rect fill="#F1F1F1" height="47.5977" rx="12.5" ry="12.5" style="stroke:#181818;stroke-width:0.5;" width="163.4492" x="325.1406" y="326.1035"/><text fill="#000000" font-family="Arial" font-size="12" lengthAdjust="spacing" textLength="143.4492" x="335.1406" y="347.3594">&#193;p d&#7909;ng thao t&#225;c v&#7853;n h&#224;nh</text><text fill="#000000" font-family="Arial" font-size="12" lengthAdjust="spacing" textLength="42.7031" x="335.1406" y="361.1582">&#273;&#227; ch&#7885;n</text><rect fill="#F1F1F1" height="33.7988" rx="12.5" ry="12.5" style="stroke:#181818;stroke-width:0.5;" width="145.9355" x="333.8975" y="393.7012"/><text fill="#000000" font-family="Arial" font-size="12" lengthAdjust="spacing" textLength="125.9355" x="343.8975" y="414.957">Ghi nh&#7853;n tr&#7841;ng th&#225;i m&#7899;i</text><rect fill="#F1F1F1" height="47.5977" rx="12.5" ry="12.5" style="stroke:#181818;stroke-width:0.5;" width="123.3184" x="508.5898" y="326.1035"/><text fill="#000000" font-family="Arial" font-size="12" lengthAdjust="spacing" textLength="102.75" x="518.5898" y="347.3594">T&#7915; ch&#7889;i thao t&#225;c v&#224;</text><text fill="#000000" font-family="Arial" font-size="12" lengthAdjust="spacing" textLength="103.3184" x="518.5898" y="361.1582">tr&#7843; l&#253; do t&#432;&#417;ng &#7913;ng</text><line style="stroke:#000000;stroke-width:1.5;" x1="319.1406" x2="319.1406" y1="12.3145" y2="553.0977"/><line style="stroke:#000000;stroke-width:1.5;" x1="635.9082" x2="635.9082" y1="12.3145" y2="553.0977"/><line style="stroke:#181818;stroke-width:1;" x1="174.7397" x2="174.7397" y1="58.0127" y2="78.0127"/><polygon fill="#181818" points="170.7397,68.0127,178.7397,68.0127,174.7397,78.0127" style="stroke:#181818;stroke-width:1;"/><line style="stroke:#181818;stroke-width:1;" x1="174.7397" x2="174.7397" y1="125.6104" y2="145.6104"/><polygon fill="#181818" points="170.7397,135.6104,178.7397,135.6104,174.7397,145.6104" style="stroke:#181818;stroke-width:1;"/><line style="stroke:#181818;stroke-width:1;" x1="93.0479" x2="93.0479" y1="495.0977" y2="515.0977"/><polygon fill="#181818" points="89.0479,505.0977,97.0479,505.0977,93.0479,515.0977" style="stroke:#181818;stroke-width:1;"/><line style="stroke:#181818;stroke-width:1;" x1="256.4316" x2="256.4316" y1="427.5" y2="447.5"/><polygon fill="#181818" points="252.4316,437.5,260.4316,437.5,256.4316,447.5" style="stroke:#181818;stroke-width:1;"/><line style="stroke:#181818;stroke-width:1;" x1="406.8652" x2="406.8652" y1="373.7012" y2="393.7012"/><polygon fill="#181818" points="402.8652,383.7012,410.8652,383.7012,406.8652,393.7012" style="stroke:#181818;stroke-width:1;"/><line style="stroke:#181818;stroke-width:1;" x1="428.988" x2="406.8652" y1="293.4546" y2="293.4546"/><line style="stroke:#181818;stroke-width:1;" x1="406.8652" x2="406.8652" y1="293.4546" y2="326.1035"/><polygon fill="#181818" points="402.8652,316.1035,410.8652,316.1035,406.8652,326.1035" style="stroke:#181818;stroke-width:1;"/><line style="stroke:#181818;stroke-width:1;" x1="548.1262" x2="570.249" y1="293.4546" y2="293.4546"/><line style="stroke:#181818;stroke-width:1;" x1="570.249" x2="570.249" y1="293.4546" y2="326.1035"/><polygon fill="#181818" points="566.249,316.1035,574.249,316.1035,570.249,326.1035" style="stroke:#181818;stroke-width:1;"/><line style="stroke:#181818;stroke-width:1;" x1="488.5571" x2="488.5571" y1="260.8057" y2="280.8057"/><polygon fill="#181818" points="484.5571,270.8057,492.5571,270.8057,488.5571,280.8057" style="stroke:#181818;stroke-width:1;"/><line style="stroke:#181818;stroke-width:1;" x1="174.7397" x2="174.7397" y1="193.208" y2="198.208"/><line style="stroke:#181818;stroke-width:1;" x1="174.7397" x2="488.5571" y1="198.208" y2="198.208"/><line style="stroke:#181818;stroke-width:1;" x1="488.5571" x2="488.5571" y1="198.208" y2="213.208"/><polygon fill="#181818" points="484.5571,203.208,492.5571,203.208,488.5571,213.208" style="stroke:#181818;stroke-width:1;"/><line style="stroke:#181818;stroke-width:1;" x1="406.8652" x2="406.8652" y1="427.5" y2="432.5"/><line style="stroke:#181818;stroke-width:1;" x1="406.8652" x2="93.0479" y1="432.5" y2="432.5"/><line style="stroke:#181818;stroke-width:1;" x1="93.0479" x2="93.0479" y1="432.5" y2="447.5"/><polygon fill="#181818" points="89.0479,437.5,97.0479,437.5,93.0479,447.5" style="stroke:#181818;stroke-width:1;"/><line style="stroke:#181818;stroke-width:1;" x1="570.249" x2="570.249" y1="373.7012" y2="378.7012"/><line style="stroke:#181818;stroke-width:1;" x1="570.249" x2="256.4316" y1="378.7012" y2="378.7012"/><line style="stroke:#181818;stroke-width:1;" x1="256.4316" x2="256.4316" y1="378.7012" y2="393.7012"/><polygon fill="#181818" points="252.4316,383.7012,260.4316,383.7012,256.4316,393.7012" style="stroke:#181818;stroke-width:1;"/><text fill="#000000" font-family="Arial" font-size="18" lengthAdjust="spacing" textLength="253.0107" x="40.5649" y="29.1982">Ng&#432;&#7901;i d&#249;ng chuy&#234;n m&#244;n n&#7897;i b&#7897;</text><text fill="#000000" font-family="Arial" font-size="18" lengthAdjust="spacing" textLength="129.0674" x="412.9907" y="29.1982">H&#7879; th&#7889;ng SMAP</text><!--SRC=[dL9FIyCm5B_dKxoZWfzWEuW8AeX3q9juY6tNHDkqjkbai8juyEHXHn5nOuYeY0C5iK4yHFOztZVnfJ8tHK6yX9Bt-_lIV4-gb6SyXboteu3EJ7gwY2EMJoQ2-yc1L24qUPG7KnC_QF8Yqak9qWqU1x2GIHunrcc4eo6QSmc-VIQQ9ugslL4GsqS52isfX1qwEopNFDEijeRc0ZmUfro62aI2vPC7QPRi1fvc7fPN2bfOtj78zfIeizgYG7EYG0kUWBPz3pIMVOg3vbQ5SomQ3GlG6PhxiLZi7282oJh5Mq5pJ6GqNGgtiRQmtc6rLOdcA2OMX_sYZUPmIfwrRC_fbNt2Qs7x4WJ1ZrNbwoHb4sOsFzEGyY0bEt9feJcJx7Vk_2nT1WfcjXRjm_Oi0wZPmzGrkQpmOycf_eHvwze1RTKjeUueoqA24XNagrNix1tapqz2QeqFfJqiNpKj0yl1DtjTVO17tD29vpf9MK2_1jLO5UwsQlBJdab-arwf2j-LqmLjpobdpYsoB-3J_MWuSbNGN7_u_AF4M6hYEGciVDby1m00]--></g></svg>