<svg xmlns="http://www.w3.org/2000/svg" xmlns:xlink="http://www.w3.org/1999/xlink" contentStyleType="text/css" data-diagram-type="ACTIVITY" height="617px" preserveAspectRatio="none" style="width:703px;height:617px;background:#FFFFFF;" version="1.1" viewBox="0 0 703 617" width="703px" zoomAndPan="magnify"><defs/><g><rect fill="none" height="20.6982" style="stroke:none;stroke-width:1;" width="670.5552" x="15" y="12.3145"/><ellipse cx="182.7642" cy="48.0127" fill="#222222" rx="10" ry="10" style="stroke:#222222;stroke-width:1;"/><rect fill="#F1F1F1" height="47.5977" rx="12.5" ry="12.5" style="stroke:#181818;stroke-width:0.5;" width="161.9375" x="101.7954" y="78.0127"/><text fill="#000000" font-family="Arial" font-size="12" lengthAdjust="spacing" textLength="141.9375" x="111.7954" y="99.2686">M&#7903; campaign ho&#7863;c project</text><text fill="#000000" font-family="Arial" font-size="12" lengthAdjust="spacing" textLength="72.0586" x="111.7954" y="113.0674">c&#7847;n v&#7853;n h&#224;nh</text><rect fill="#F1F1F1" height="47.5977" rx="12.5" ry="12.5" style="stroke:#181818;stroke-width:0.5;" width="146.75" x="109.3892" y="145.6104"/><text fill="#000000" font-family="Arial" font-size="12" lengthAdjust="spacing" textLength="126.75" x="119.3892" y="166.8662">Ch&#7885;n thao t&#225;c k&#237;ch ho&#7841;t</text><text fill="#000000" font-family="Arial" font-size="12" lengthAdjust="spacing" textLength="68.0449" x="119.3892" y="180.665">ho&#7863;c ti&#7871;p t&#7909;c</text><rect fill="#F1F1F1" height="47.5977" rx="12.5" ry="12.5" style="stroke:#181818;stroke-width:0.5;" width="144.0957" x="21" y="500.001"/><text fill="#000000" font-family="Arial" font-size="12" lengthAdjust="spacing" textLength="124.0957" x="31" y="521.2568">Nh&#7853;n k&#7871;t qu&#7843; v&#7853;n h&#224;nh</text><text fill="#000000" font-family="Arial" font-size="12" lengthAdjust="spacing" textLength="59.3848" x="31" y="535.0557">th&#224;nh c&#244;ng</text><ellipse cx="93.0479" cy="578.5986" fill="none" rx="11" ry="11" style="stroke:#222222;stroke-width:1;"/><ellipse cx="93.0479" cy="578.5986" fill="#222222" rx="6" ry="6" style="stroke:#222222;stroke-width:1;"/><rect fill="#F1F1F1" height="33.7988" rx="12.5" ry="12.5" style="stroke:#181818;stroke-width:0.5;" width="117.418" x="213.7715" y="446.2021"/><text fill="#000000" font-family="Arial" font-size="12" lengthAdjust="spacing" textLength="97.418" x="223.7715" y="467.458">Nh&#7853;n l&#253; do t&#7915; ch&#7889;i</text><ellipse cx="272.4805" cy="511.001" fill="none" rx="11" ry="11" style="stroke:#222222;stroke-width:1;"/><ellipse cx="272.4805" cy="511.001" fill="#222222" rx="6" ry="6" style="stroke:#222222;stroke-width:1;"/><line style="stroke:#000000;stroke-width:1.5;" x1="15" x2="15" y1="12.3145" y2="605.5986"/><rect fill="#F1F1F1" height="47.5977" rx="12.5" ry="12.5" style="stroke:#181818;stroke-width:0.5;" width="146.7383" x="438.9214" y="213.208"/><text fill="#000000" font-family="Arial" font-size="12" lengthAdjust="spacing" textLength="126.7383" x="448.9214" y="234.4639">Ki&#7875;m tra quy&#7873;n thao t&#225;c</text><text fill="#000000" font-family="Arial" font-size="12" lengthAdjust="spacing" textLength="108.0703" x="448.9214" y="248.2627">v&#224; tr&#7841;ng th&#225;i hi&#7879;n t&#7841;i</text><rect fill="#F1F1F1" height="33.7988" rx="12.5" ry="12.5" style="stroke:#181818;stroke-width:0.5;" width="164.1172" x="430.2319" y="280.8057"/><text fill="#000000" font-family="Arial" font-size="12" lengthAdjust="spacing" textLength="144.1172" x="440.2319" y="302.0615">&#272;&#225;nh gi&#225; m&#7913;c &#273;&#7897; s&#7861;n s&#224;ng</text><polygon fill="#F1F1F1" points="454.4976,334.6045,570.0835,334.6045,582.0835,346.6045,570.0835,358.6045,454.4976,358.6045,442.4976,346.6045,454.4976,334.6045" style="stroke:#181818;stroke-width:0.5;"/><text fill="#000000" font-family="Arial" font-size="11" lengthAdjust="spacing" textLength="115.5859" x="454.4976" y="350.5979">&#272;&#7911; &#273;i&#7873;u ki&#7879;n v&#7853;n h&#224;nh?</text><text fill="#000000" font-family="Arial" font-size="11" lengthAdjust="spacing" textLength="20.1738" x="422.3237" y="344.2734">[C&#243;]</text><text fill="#000000" font-family="Arial" font-size="11" lengthAdjust="spacing" textLength="37.9199" x="582.0835" y="344.2734">[Kh&#244;ng]</text><rect fill="#F1F1F1" height="47.5977" rx="12.5" ry="12.5" style="stroke:#181818;stroke-width:0.5;" width="162.7695" x="341.1895" y="378.6045"/><text fill="#000000" font-family="Arial" font-size="12" lengthAdjust="spacing" textLength="142.7695" x="351.1895" y="399.8604">&#193;p d&#7909;ng thao t&#225;c k&#237;ch ho&#7841;t</text><text fill="#000000" font-family="Arial" font-size="12" lengthAdjust="spacing" textLength="68.0449" x="351.1895" y="413.6592">ho&#7863;c ti&#7871;p t&#7909;c</text><rect fill="#F1F1F1" height="33.7988" rx="12.5" ry="12.5" style="stroke:#181818;stroke-width:0.5;" width="145.9355" x="349.6064" y="446.2021"/><text fill="#000000" font-family="Arial" font-size="12" lengthAdjust="spacing" textLength="125.9355" x="359.6064" y="467.458">Ghi nh&#7853;n tr&#7841;ng th&#225;i m&#7899;i</text><rect fill="#F1F1F1" height="47.5977" rx="12.5" ry="12.5" style="stroke:#181818;stroke-width:0.5;" width="156.0957" x="523.959" y="378.6045"/><text fill="#000000" font-family="Arial" font-size="12" lengthAdjust="spacing" textLength="136.0957" x="533.959" y="399.8604">T&#7915; ch&#7889;i thao t&#225;c v&#224; tr&#7843; v&#7873;</text><text fill="#000000" font-family="Arial" font-size="12" lengthAdjust="spacing" textLength="120.7734" x="533.959" y="413.6592">c&#225;c &#273;i&#7873;u ki&#7879;n ch&#432;a &#273;&#7841;t</text><line style="stroke:#000000;stroke-width:1.5;" x1="335.1895" x2="335.1895" y1="12.3145" y2="605.5986"/><line style="stroke:#000000;stroke-width:1.5;" x1="684.0547" x2="684.0547" y1="12.3145" y2="605.5986"/><line style="stroke:#181818;stroke-width:1;" x1="182.7642" x2="182.7642" y1="58.0127" y2="78.0127"/><polygon fill="#181818" points="178.7642,68.0127,186.7642,68.0127,182.7642,78.0127" style="stroke:#181818;stroke-width:1;"/><line style="stroke:#181818;stroke-width:1;" x1="182.7642" x2="182.7642" y1="125.6104" y2="145.6104"/><polygon fill="#181818" points="178.7642,135.6104,186.7642,135.6104,182.7642,145.6104" style="stroke:#181818;stroke-width:1;"/><line style="stroke:#181818;stroke-width:1;" x1="93.0479" x2="93.0479" y1="547.5986" y2="567.5986"/><polygon fill="#181818" points="89.0479,557.5986,97.0479,557.5986,93.0479,567.5986" style="stroke:#181818;stroke-width:1;"/><line style="stroke:#181818;stroke-width:1;" x1="272.4805" x2="272.4805" y1="480.001" y2="500.001"/><polygon fill="#181818" points="268.4805,490.001,276.4805,490.001,272.4805,500.001" style="stroke:#181818;stroke-width:1;"/><line style="stroke:#181818;stroke-width:1;" x1="512.2905" x2="512.2905" y1="260.8057" y2="280.8057"/><polygon fill="#181818" points="508.2905,270.8057,516.2905,270.8057,512.2905,280.8057" style="stroke:#181818;stroke-width:1;"/><line style="stroke:#181818;stroke-width:1;" x1="422.5742" x2="422.5742" y1="426.2021" y2="446.2021"/><polygon fill="#181818" points="418.5742,436.2021,426.5742,436.2021,422.5742,446.2021" style="stroke:#181818;stroke-width:1;"/><line style="stroke:#181818;stroke-width:1;" x1="442.4976" x2="422.5742" y1="346.6045" y2="346.6045"/><line style="stroke:#181818;stroke-width:1;" x1="422.5742" x2="422.5742" y1="346.6045" y2="378.6045"/><polygon fill="#181818" points="418.5742,368.6045,426.5742,368.6045,422.5742,378.6045" style="stroke:#181818;stroke-width:1;"/><line style="stroke:#181818;stroke-width:1;" x1="582.0835" x2="602.0068" y1="346.6045" y2="346.6045"/><line style="stroke:#181818;stroke-width:1;" x1="602.0068" x2="602.0068" y1="346.6045" y2="378.6045"/><polygon fill="#181818" points="598.0068,368.6045,606.0068,368.6045,602.0068,378.6045" style="stroke:#181818;stroke-width:1;"/><line style="stroke:#181818;stroke-width:1;" x1="512.2905" x2="512.2905" y1="314.6045" y2="334.6045"/><polygon fill="#181818" points="508.2905,324.6045,516.2905,324.6045,512.2905,334.6045" style="stroke:#181818;stroke-width:1;"/><line style="stroke:#181818;stroke-width:1;" x1="182.7642" x2="182.7642" y1="193.208" y2="198.208"/><line style="stroke:#181818;stroke-width:1;" x1="182.7642" x2="512.2905" y1="198.208" y2="198.208"/><line style="stroke:#181818;stroke-width:1;" x1="512.2905" x2="512.2905" y1="198.208" y2="213.208"/><polygon fill="#181818" points="508.2905,203.208,516.2905,203.208,512.2905,213.208" style="stroke:#181818;stroke-width:1;"/><line style="stroke:#181818;stroke-width:1;" x1="422.5742" x2="422.5742" y1="480.001" y2="485.001"/><line style="stroke:#181818;stroke-width:1;" x1="422.5742" x2="93.0479" y1="485.001" y2="485.001"/><line style="stroke:#181818;stroke-width:1;" x1="93.0479" x2="93.0479" y1="485.001" y2="500.001"/><polygon fill="#181818" points="89.0479,490.001,97.0479,490.001,93.0479,500.001" style="stroke:#181818;stroke-width:1;"/><line style="stroke:#181818;stroke-width:1;" x1="602.0068" x2="602.0068" y1="426.2021" y2="431.2021"/><line style="stroke:#181818;stroke-width:1;" x1="602.0068" x2="272.4805" y1="431.2021" y2="431.2021"/><line style="stroke:#181818;stroke-width:1;" x1="272.4805" x2="272.4805" y1="431.2021" y2="446.2021"/><polygon fill="#181818" points="268.4805,436.2021,276.4805,436.2021,272.4805,446.2021" style="stroke:#181818;stroke-width:1;"/><text fill="#000000" font-family="Arial" font-size="18" lengthAdjust="spacing" textLength="253.0107" x="48.5894" y="29.1982">Ng&#432;&#7901;i d&#249;ng chuy&#234;n m&#244;n n&#7897;i b&#7897;</text><text fill="#000000" font-family="Arial" font-size="18" lengthAdjust="spacing" textLength="129.0674" x="445.0884" y="29.1982">H&#7879; th&#7889;ng SMAP</text><!--SRC=[dLB1Qjmm5BphAzun-ONDeOH04mXP2ksjzA3ANajTMtPjEMLXBqiEEGMIOocXCIM4j0G2QIcrA3reoN-yF-dOQOXJzb1w4UAzUVDcHggcnXQob1bLRfR6E4kZN9sbedheQ1dbxunDQ2BJAXvqedWYwzGzpQqRooocpTB8L8ZvEBczPdzgA0e_CAPqFGkVBMNXgoNB_hsXrpZdedAoT6Aqn_uZAPaLqYIMTCxjTqL5cR-9bHEAsmjB-znUeHNEhDuGeotD_iYIqp8d5nf5qt2bT3_PEF67m1bkVnNas9-h3OZQON-84VOdaFHyR_FPN8ns3Vk3Z5mfwMqzOxyOa8hzS8OEA85tEZI6DE27WA1c86Dv71ghAJ6XeOpzfQBb2NnHnUqtInN49bXi9hIsF6P_WIxc5pLDxsW6dfwiOqDiQUtbLhXvjIw8Hc5HK0Jj_VALFebMEiNijZPaTK__s01KVZ0Tv9-V26pZEwOfbZZ4nEsdeNGWN7yXXTca8wzSNeWONmL-TdLNxIsjUW7Gls3_1VjHDGEdz-5tk_m2EDLL_qfGwTjhsOMEEFxJLHf-KfHtsTsBU71W8pFv3G00]--></g></svg>