<svg xmlns="http://www.w3.org/2000/svg" xmlns:xlink="http://www.w3.org/1999/xlink" contentStyleType="text/css" data-diagram-type="ACTIVITY" height="1208px" preserveAspectRatio="none" style="width:484px;height:1208px;background:#FFFFFF;" version="1.1" viewBox="0 0 484 1208" width="484px" zoomAndPan="magnify"><defs/><g><ellipse cx="229.0654" cy="20" fill="#222222" rx="10" ry="10" style="stroke:#222222;stroke-width:1;"/><rect fill="#F1F1F1" height="47.5977" rx="12.5" ry="12.5" style="stroke:#181818;stroke-width:0.5;" width="189.8574" x="134.1367" y="50"/><text fill="#000000" font-family="Arial" font-size="12" lengthAdjust="spacing" textLength="169.8574" x="144.1367" y="71.2559">Ng&#432;&#7901;i d&#249;ng m&#7903; campaign ho&#7863;c</text><text fill="#000000" font-family="Arial" font-size="12" lengthAdjust="spacing" textLength="111.4102" x="144.1367" y="85.0547">project c&#7847;n v&#7853;n h&#224;nh</text><rect fill="#F1F1F1" height="47.5977" rx="12.5" ry="12.5" style="stroke:#181818;stroke-width:0.5;" width="230.6738" x="113.7285" y="117.5977"/><text fill="#000000" font-family="Arial" font-size="12" lengthAdjust="spacing" textLength="210.6738" x="123.7285" y="138.8535">Ng&#432;&#7901;i d&#249;ng y&#234;u c&#7847;u ki&#7875;m tra readiness</text><text fill="#000000" font-family="Arial" font-size="12" lengthAdjust="spacing" textLength="154.1191" x="123.7285" y="152.6523">ho&#7863;c ch&#7885;n thao t&#225;c v&#7853;n h&#224;nh</text><rect fill="#F1F1F1" height="47.5977" rx="12.5" ry="12.5" style="stroke:#181818;stroke-width:0.5;" width="196.7715" x="130.6797" y="185.1953"/><text fill="#000000" font-family="Arial" font-size="12" lengthAdjust="spacing" textLength="176.7715" x="140.6797" y="206.4512">H&#7879; th&#7889;ng ki&#7875;m tra quy&#7873;n thao t&#225;c</text><text fill="#000000" font-family="Arial" font-size="12" lengthAdjust="spacing" textLength="108.0703" x="140.6797" y="220.25">v&#224; tr&#7841;ng th&#225;i hi&#7879;n t&#7841;i</text><rect fill="#F1F1F1" height="33.7988" rx="12.5" ry="12.5" style="stroke:#181818;stroke-width:0.5;" width="214.1621" x="121.9844" y="301.1174"/><text fill="#000000" font-family="Arial" font-size="12" lengthAdjust="spacing" textLength="194.1621" x="131.9844" y="322.3733">H&#7879; th&#7889;ng &#273;&#225;nh gi&#225; m&#7913;c &#273;&#7897; s&#7861;n s&#224;ng</text><rect fill="#F1F1F1" height="47.5977" rx="12.5" ry="12.5" style="stroke:#181818;stroke-width:0.5;" width="178.1152" x="140.0078" y="354.9163"/><text fill="#000000" font-family="Arial" font-size="12" lengthAdjust="spacing" textLength="158.1152" x="150.0078" y="376.1721">H&#7879; th&#7889;ng tr&#7843; k&#7871;t qu&#7843; &#273;&#225;nh gi&#225;</text><text fill="#000000" font-family="Arial" font-size="12" lengthAdjust="spacing" textLength="125.4141" x="150.0078" y="389.9709">m&#224; kh&#244;ng &#273;&#7893;i tr&#7841;ng th&#225;i</text><ellipse cx="229.0654" cy="433.5139" fill="none" rx="11" ry="11" style="stroke:#222222;stroke-width:1;"/><ellipse cx="229.0654" cy="433.5139" fill="#222222" rx="6" ry="6" style="stroke:#222222;stroke-width:1;"/><polygon fill="#F1F1F1" points="171.2913,252.793,286.8396,252.793,298.8396,264.793,286.8396,276.793,171.2913,276.793,159.2913,264.793,171.2913,252.793" style="stroke:#181818;stroke-width:0.5;"/><text fill="#000000" font-family="Arial" font-size="11" lengthAdjust="spacing" textLength="20.1738" x="233.0654" y="287.1108">[C&#243;]</text><text fill="#000000" font-family="Arial" font-size="11" lengthAdjust="spacing" textLength="115.5483" x="171.2913" y="268.7864">Ch&#7881; ki&#7875;m tra readiness?</text><rect fill="#F1F1F1" height="33.7988" rx="12.5" ry="12.5" style="stroke:#181818;stroke-width:0.5;" width="214.1621" x="121.9844" y="536.1362"/><text fill="#000000" font-family="Arial" font-size="12" lengthAdjust="spacing" textLength="194.1621" x="131.9844" y="557.3921">H&#7879; th&#7889;ng &#273;&#225;nh gi&#225; m&#7913;c &#273;&#7897; s&#7861;n s&#224;ng</text><polygon fill="#F1F1F1" points="171.2725,589.9351,286.8584,589.9351,298.8584,601.9351,286.8584,613.9351,171.2725,613.9351,159.2725,601.9351,171.2725,589.9351" style="stroke:#181818;stroke-width:0.5;"/><text fill="#000000" font-family="Arial" font-size="11" lengthAdjust="spacing" textLength="115.5859" x="171.2725" y="605.9285">&#272;&#7911; &#273;i&#7873;u ki&#7879;n v&#7853;n h&#224;nh?</text><text fill="#000000" font-family="Arial" font-size="11" lengthAdjust="spacing" textLength="20.1738" x="139.0986" y="599.604">[C&#243;]</text><text fill="#000000" font-family="Arial" font-size="11" lengthAdjust="spacing" textLength="37.9199" x="298.8584" y="599.604">[Kh&#244;ng]</text><rect fill="#F1F1F1" height="47.5977" rx="12.5" ry="12.5" style="stroke:#181818;stroke-width:0.5;" width="161.4453" x="34.9648" y="623.9351"/><text fill="#000000" font-family="Arial" font-size="12" lengthAdjust="spacing" textLength="141.4453" x="44.9648" y="645.1909">H&#7879; th&#7889;ng &#225;p d&#7909;ng thao t&#225;c</text><text fill="#000000" font-family="Arial" font-size="12" lengthAdjust="spacing" textLength="120.0762" x="44.9648" y="658.9897">k&#237;ch ho&#7841;t ho&#7863;c ti&#7871;p t&#7909;c</text><rect fill="#F1F1F1" height="33.7988" rx="12.5" ry="12.5" style="stroke:#181818;stroke-width:0.5;" width="195.3125" x="18.0313" y="697.8572"/><text fill="#000000" font-family="Arial" font-size="12" lengthAdjust="spacing" textLength="175.3125" x="28.0313" y="719.113">H&#7879; th&#7889;ng ghi nh&#7853;n tr&#7841;ng th&#225;i m&#7899;i</text><rect fill="#F1F1F1" height="47.5977" rx="12.5" ry="12.5" style="stroke:#181818;stroke-width:0.5;" width="209.375" x="11" y="751.656"/><text fill="#000000" font-family="Arial" font-size="12" lengthAdjust="spacing" textLength="189.375" x="21" y="772.9119">Ng&#432;&#7901;i d&#249;ng nh&#7853;n k&#7871;t qu&#7843; v&#7853;n h&#224;nh</text><text fill="#000000" font-family="Arial" font-size="12" lengthAdjust="spacing" textLength="59.3848" x="21" y="786.7107">th&#224;nh c&#244;ng</text><ellipse cx="115.6875" cy="830.2537" fill="none" rx="11" ry="11" style="stroke:#222222;stroke-width:1;"/><ellipse cx="115.6875" cy="830.2537" fill="#222222" rx="6" ry="6" style="stroke:#222222;stroke-width:1;"/><rect fill="#F1F1F1" height="47.5977" rx="12.5" ry="12.5" style="stroke:#181818;stroke-width:0.5;" width="204.1367" x="240.375" y="623.9351"/><text fill="#000000" font-family="Arial" font-size="12" lengthAdjust="spacing" textLength="184.1367" x="250.375" y="645.1909">H&#7879; th&#7889;ng t&#7915; ch&#7889;i thao t&#225;c v&#224; tr&#7843; v&#7873;</text><text fill="#000000" font-family="Arial" font-size="12" lengthAdjust="spacing" textLength="120.7734" x="250.375" y="658.9897">c&#225;c &#273;i&#7873;u ki&#7879;n ch&#432;a &#273;&#7841;t</text><ellipse cx="342.4434" cy="708.8572" fill="none" rx="11" ry="11" style="stroke:#222222;stroke-width:1;"/><ellipse cx="342.4434" cy="708.8572" fill="#222222" rx="6" ry="6" style="stroke:#222222;stroke-width:1;"/><polygon fill="#F1F1F1" points="178.0024,486.5139,280.1284,486.5139,292.1284,499.1628,280.1284,511.8118,178.0024,511.8118,166.0024,499.1628,178.0024,486.5139" style="stroke:#181818;stroke-width:0.5;"/><text fill="#000000" font-family="Arial" font-size="11" lengthAdjust="spacing" textLength="20.1738" x="233.0654" y="522.1296">[C&#243;]</text><text fill="#000000" font-family="Arial" font-size="11" lengthAdjust="spacing" textLength="102.126" x="178.0024" y="496.8318">L&#224; thao t&#225;c k&#237;ch ho&#7841;t</text><text fill="#000000" font-family="Arial" font-size="11" lengthAdjust="spacing" textLength="68.4922" x="178.0024" y="509.4807">ho&#7863;c ti&#7871;p t&#7909;c?</text><rect fill="#F1F1F1" height="47.5977" rx="12.5" ry="12.5" style="stroke:#181818;stroke-width:0.5;" width="180.0254" x="139.0527" y="883.2537"/><text fill="#000000" font-family="Arial" font-size="12" lengthAdjust="spacing" textLength="140.7422" x="149.0527" y="904.5095">H&#7879; th&#7889;ng ki&#7875;m tra thao t&#225;c</text><text fill="#000000" font-family="Arial" font-size="12" lengthAdjust="spacing" textLength="160.0254" x="149.0527" y="918.3083">t&#7841;m d&#7915;ng, l&#432;u tr&#7919; ho&#7863;c m&#7903; l&#7841;i</text><polygon fill="#F1F1F1" points="181.4963,950.8513,276.6345,950.8513,288.6345,963.5002,276.6345,976.1492,181.4963,976.1492,169.4963,963.5002,181.4963,950.8513" style="stroke:#181818;stroke-width:0.5;"/><text fill="#000000" font-family="Arial" font-size="11" lengthAdjust="spacing" textLength="95.1382" x="181.4963" y="961.1692">Thao t&#225;c h&#7907;p l&#7879; v&#7899;i</text><text fill="#000000" font-family="Arial" font-size="11" lengthAdjust="spacing" textLength="90.5083" x="181.4963" y="973.8181">tr&#7841;ng th&#225;i hi&#7879;n t&#7841;i?</text><text fill="#000000" font-family="Arial" font-size="11" lengthAdjust="spacing" textLength="20.1738" x="149.3225" y="961.1692">[C&#243;]</text><text fill="#000000" font-family="Arial" font-size="11" lengthAdjust="spacing" textLength="37.9199" x="288.6345" y="961.1692">[Kh&#244;ng]</text><rect fill="#F1F1F1" height="47.5977" rx="12.5" ry="12.5" style="stroke:#181818;stroke-width:0.5;" width="214.1563" x="15.7505" y="986.1492"/><text fill="#000000" font-family="Arial" font-size="12" lengthAdjust="spacing" textLength="194.1563" x="25.7505" y="1007.405">H&#7879; th&#7889;ng &#225;p d&#7909;ng thao t&#225;c v&#7853;n h&#224;nh</text><text fill="#000000" font-family="Arial" font-size="12" lengthAdjust="spacing" textLength="42.7031" x="25.7505" y="1021.2039">&#273;&#227; ch&#7885;n</text><rect fill="#F1F1F1" height="33.7988" rx="12.5" ry="12.5" style="stroke:#181818;stroke-width:0.5;" width="195.3125" x="25.1724" y="1053.7468"/><text fill="#000000" font-family="Arial" font-size="12" lengthAdjust="spacing" textLength="175.3125" x="35.1724" y="1075.0027">H&#7879; th&#7889;ng ghi nh&#7853;n tr&#7841;ng th&#225;i m&#7899;i</text><rect fill="#F1F1F1" height="47.5977" rx="12.5" ry="12.5" style="stroke:#181818;stroke-width:0.5;" width="209.375" x="18.1411" y="1107.5457"/><text fill="#000000" font-family="Arial" font-size="12" lengthAdjust="spacing" textLength="189.375" x="28.1411" y="1128.8015">Ng&#432;&#7901;i d&#249;ng nh&#7853;n k&#7871;t qu&#7843; v&#7853;n h&#224;nh</text><text fill="#000000" font-family="Arial" font-size="12" lengthAdjust="spacing" textLength="59.3848" x="28.1411" y="1142.6003">th&#224;nh c&#244;ng</text><ellipse cx="122.8286" cy="1186.1433" fill="none" rx="11" ry="11" style="stroke:#222222;stroke-width:1;"/><ellipse cx="122.8286" cy="1186.1433" fill="#222222" rx="6" ry="6" style="stroke:#222222;stroke-width:1;"/><rect fill="#F1F1F1" height="47.5977" rx="12.5" ry="12.5" style="stroke:#181818;stroke-width:0.5;" width="170.791" x="249.9067" y="986.1492"/><text fill="#000000" font-family="Arial" font-size="12" lengthAdjust="spacing" textLength="150.791" x="259.9067" y="1007.405">H&#7879; th&#7889;ng t&#7915; ch&#7889;i thao t&#225;c v&#224;</text><text fill="#000000" font-family="Arial" font-size="12" lengthAdjust="spacing" textLength="103.3184" x="259.9067" y="1021.2039">tr&#7843; l&#253; do t&#432;&#417;ng &#7913;ng</text><ellipse cx="335.3022" cy="1064.7468" fill="none" rx="11" ry="11" style="stroke:#222222;stroke-width:1;"/><ellipse cx="335.3022" cy="1064.7468" fill="#222222" rx="6" ry="6" style="stroke:#222222;stroke-width:1;"/><line style="stroke:#181818;stroke-width:1;" x1="229.0654" x2="229.0654" y1="30" y2="50"/><polygon fill="#181818" points="225.0654,40,233.0654,40,229.0654,50" style="stroke:#181818;stroke-width:1;"/><line style="stroke:#181818;stroke-width:1;" x1="229.0654" x2="229.0654" y1="97.5977" y2="117.5977"/><polygon fill="#181818" points="225.0654,107.5977,233.0654,107.5977,229.0654,117.5977" style="stroke:#181818;stroke-width:1;"/><line style="stroke:#181818;stroke-width:1;" x1="229.0654" x2="229.0654" y1="165.1953" y2="185.1953"/><polygon fill="#181818" points="225.0654,175.1953,233.0654,175.1953,229.0654,185.1953" style="stroke:#181818;stroke-width:1;"/><line style="stroke:#181818;stroke-width:1;" x1="229.0654" x2="229.0654" y1="334.9163" y2="354.9163"/><polygon fill="#181818" points="225.0654,344.9163,233.0654,344.9163,229.0654,354.9163" style="stroke:#181818;stroke-width:1;"/><line style="stroke:#181818;stroke-width:1;" x1="229.0654" x2="229.0654" y1="402.5139" y2="422.5139"/><polygon fill="#181818" points="225.0654,412.5139,233.0654,412.5139,229.0654,422.5139" style="stroke:#181818;stroke-width:1;"/><line style="stroke:#181818;stroke-width:1;" x1="229.0654" x2="229.0654" y1="276.793" y2="301.1174"/><polygon fill="#181818" points="225.0654,291.1174,233.0654,291.1174,229.0654,301.1174" style="stroke:#181818;stroke-width:1;"/><line style="stroke:#181818;stroke-width:1;" x1="298.8396" x2="346.1465" y1="264.793" y2="264.793"/><polygon fill="#181818" points="342.1465,359.8157,350.1465,359.8157,346.1465,369.8157" style="stroke:#181818;stroke-width:1;"/><line style="stroke:#181818;stroke-width:1;" x1="346.1465" x2="346.1465" y1="264.793" y2="466.5139"/><line style="stroke:#181818;stroke-width:1;" x1="346.1465" x2="229.0654" y1="466.5139" y2="466.5139"/><line style="stroke:#181818;stroke-width:1;" x1="229.0654" x2="229.0654" y1="466.5139" y2="486.5139"/><polygon fill="#181818" points="225.0654,476.5139,233.0654,476.5139,229.0654,486.5139" style="stroke:#181818;stroke-width:1;"/><line style="stroke:#181818;stroke-width:1;" x1="229.0654" x2="229.0654" y1="232.793" y2="252.793"/><polygon fill="#181818" points="225.0654,242.793,233.0654,242.793,229.0654,252.793" style="stroke:#181818;stroke-width:1;"/><line style="stroke:#181818;stroke-width:1;" x1="115.6875" x2="115.6875" y1="671.5327" y2="697.8572"/><polygon fill="#181818" points="111.6875,687.8572,119.6875,687.8572,115.6875,697.8572" style="stroke:#181818;stroke-width:1;"/><line style="stroke:#181818;stroke-width:1;" x1="115.6875" x2="115.6875" y1="731.656" y2="751.656"/><polygon fill="#181818" points="111.6875,741.656,119.6875,741.656,115.6875,751.656" style="stroke:#181818;stroke-width:1;"/><line style="stroke:#181818;stroke-width:1;" x1="115.6875" x2="115.6875" y1="799.2537" y2="819.2537"/><polygon fill="#181818" points="111.6875,809.2537,119.6875,809.2537,115.6875,819.2537" style="stroke:#181818;stroke-width:1;"/><line style="stroke:#181818;stroke-width:1;" x1="342.4434" x2="342.4434" y1="671.5327" y2="697.8572"/><polygon fill="#181818" points="338.4434,687.8572,346.4434,687.8572,342.4434,697.8572" style="stroke:#181818;stroke-width:1;"/><line style="stroke:#181818;stroke-width:1;" x1="159.2725" x2="115.6875" y1="601.9351" y2="601.9351"/><line style="stroke:#181818;stroke-width:1;" x1="115.6875" x2="115.6875" y1="601.9351" y2="623.9351"/><polygon fill="#181818" points="111.6875,613.9351,119.6875,613.9351,115.6875,623.9351" style="stroke:#181818;stroke-width:1;"/><line style="stroke:#181818;stroke-width:1;" x1="298.8584" x2="342.4434" y1="601.9351" y2="601.9351"/><line style="stroke:#181818;stroke-width:1;" x1="342.4434" x2="342.4434" y1="601.9351" y2="623.9351"/><polygon fill="#181818" points="338.4434,613.9351,346.4434,613.9351,342.4434,623.9351" style="stroke:#181818;stroke-width:1;"/><line style="stroke:#181818;stroke-width:1;" x1="229.0654" x2="229.0654" y1="569.9351" y2="589.9351"/><polygon fill="#181818" points="225.0654,579.9351,233.0654,579.9351,229.0654,589.9351" style="stroke:#181818;stroke-width:1;"/><line style="stroke:#181818;stroke-width:1;" x1="229.0654" x2="229.0654" y1="511.8118" y2="536.1362"/><polygon fill="#181818" points="225.0654,526.1362,233.0654,526.1362,229.0654,536.1362" style="stroke:#181818;stroke-width:1;"/><line style="stroke:#181818;stroke-width:1;" x1="292.1284" x2="458.5117" y1="499.1628" y2="499.1628"/><polygon fill="#181818" points="454.5117,681.5327,462.5117,681.5327,458.5117,691.5327" style="stroke:#181818;stroke-width:1;"/><line style="stroke:#181818;stroke-width:1;" x1="458.5117" x2="458.5117" y1="499.1628" y2="863.2537"/><line style="stroke:#181818;stroke-width:1;" x1="458.5117" x2="229.0654" y1="863.2537" y2="863.2537"/><line style="stroke:#181818;stroke-width:1;" x1="229.0654" x2="229.0654" y1="863.2537" y2="883.2537"/><polygon fill="#181818" points="225.0654,873.2537,233.0654,873.2537,229.0654,883.2537" style="stroke:#181818;stroke-width:1;"/><line style="stroke:#181818;stroke-width:1;" x1="122.8286" x2="122.8286" y1="1033.7468" y2="1053.7468"/><polygon fill="#181818" points="118.8286,1043.7468,126.8286,1043.7468,122.8286,1053.7468" style="stroke:#181818;stroke-width:1;"/><line style="stroke:#181818;stroke-width:1;" x1="122.8286" x2="122.8286" y1="1087.5457" y2="1107.5457"/><polygon fill="#181818" points="118.8286,1097.5457,126.8286,1097.5457,122.8286,1107.5457" style="stroke:#181818;stroke-width:1;"/><line style="stroke:#181818;stroke-width:1;" x1="122.8286" x2="122.8286" y1="1155.1433" y2="1175.1433"/><polygon fill="#181818" points="118.8286,1165.1433,126.8286,1165.1433,122.8286,1175.1433" style="stroke:#181818;stroke-width:1;"/><line style="stroke:#181818;stroke-width:1;" x1="335.3022" x2="335.3022" y1="1033.7468" y2="1053.7468"/><polygon fill="#181818" points="331.3022,1043.7468,339.3022,1043.7468,335.3022,1053.7468" style="stroke:#181818;stroke-width:1;"/><line style="stroke:#181818;stroke-width:1;" x1="169.4963" x2="122.8286" y1="963.5002" y2="963.5002"/><line style="stroke:#181818;stroke-width:1;" x1="122.8286" x2="122.8286" y1="963.5002" y2="986.1492"/><polygon fill="#181818" points="118.8286,976.1492,126.8286,976.1492,122.8286,986.1492" style="stroke:#181818;stroke-width:1;"/><line style="stroke:#181818;stroke-width:1;" x1="288.6345" x2="335.3022" y1="963.5002" y2="963.5002"/><line style="stroke:#181818;stroke-width:1;" x1="335.3022" x2="335.3022" y1="963.5002" y2="986.1492"/><polygon fill="#181818" points="331.3022,976.1492,339.3022,976.1492,335.3022,986.1492" style="stroke:#181818;stroke-width:1;"/><line style="stroke:#181818;stroke-width:1;" x1="229.0654" x2="229.0654" y1="930.8513" y2="950.8513"/><polygon fill="#181818" points="225.0654,940.8513,233.0654,940.8513,229.0654,950.8513" style="stroke:#181818;stroke-width:1;"/><!--SRC=[hLDDYzH04BtthwZZBlWBd8F8WWZAdho9XwQJIRUJT6BI6PdZu67m83W73oBYXa4MNHO7LCGqug6N-H_zJwpkpEpcOvPLy192LzMhUkzL5HCXCvhJ10erYqFyveAfCeb9SHNXD4YV2nd1cCP5s8e4uPYMiRgNIdLCan3kveB6X1IAvehSFeusQwlV2mZCJonEhFu0Z2OP5P44djhw1oDPdZuDcG9cwrC9KrkVOyYSI3uQrC_CvzBdbJ0HLhz8GEKKyf06GeP5GHf4ODpgLn8KfoaeKx4Uw7sh5nYqUecGBPndvSpgUQkEJCq9HcnTOQBYfXB0CNs1AVWcHeI8CHmS8TBBlVFSESIgKCB1uoFpzSaX0UZslbYQIdA8XAcSD9yOlbZz5WfRVvTGuBZHQ53avbd1nDQ_5Kxi_bimc9tWp1Dkldbygz-8BWC7MAWq8w4CnBXXyD3Hl1HhOiuPz-PKQgUe4jWlGzhw8_jFh5pZYzTMds8OjPitbYuw6p1irMzcgWm2dChJszdcqjeiO0-BqHwmY0kGtBVlkeuqtebjHMybj_bjFre4V8doly2S9ms8Dm0Wn5D2RW-yMtlfuQXdVfsNehtEsxLqhVJSbp7ttXEIySsQEl5HWcvVR_rs0QuzXoiztROdJkOp6Ts2UBCkNNlzPQUhF-kuEGbdwwFBIH5rbM48EqoTXkJwQxffhVOvtPCQDs-rFVxXtTnixZzRspUskQk1gNzfgGFqfiRc5mJulbblt9HuGcruvzeV]--></g></svg>