<svg xmlns="http://www.w3.org/2000/svg" xmlns:xlink="http://www.w3.org/1999/xlink" contentStyleType="text/css" data-diagram-type="ACTIVITY" height="796px" preserveAspectRatio="none" style="width:1331px;height:796px;background:#FFFFFF;" version="1.1" viewBox="0 0 1331 796" width="1331px" zoomAndPan="magnify"><defs/><g><rect fill="none" height="20.6982" style="stroke:none;stroke-width:1;" width="1298.3538" x="15" y="12.3145"/><ellipse cx="307.8412" cy="48.0127" fill="#222222" rx="10" ry="10" style="stroke:#222222;stroke-width:1;"/><rect fill="#F1F1F1" height="47.5977" rx="12.5" ry="12.5" style="stroke:#181818;stroke-width:0.5;" width="139.3145" x="238.184" y="78.0127"/><text fill="#000000" font-family="Arial" font-size="12" lengthAdjust="spacing" textLength="119.3145" x="248.184" y="99.2686">M&#7903; ch&#7913;c n&#259;ng tra c&#7913;u</text><text fill="#000000" font-family="Arial" font-size="12" lengthAdjust="spacing" textLength="96.6094" x="248.184" y="113.0674">ho&#7863;c tr&#7907; l&#253; d&#7919; li&#7879;u</text><rect fill="#F1F1F1" height="33.7988" rx="12.5" ry="12.5" style="stroke:#181818;stroke-width:0.5;" width="166.0918" x="224.7953" y="145.6104"/><text fill="#000000" font-family="Arial" font-size="12" lengthAdjust="spacing" textLength="146.0918" x="234.7953" y="166.8662">Nh&#7853;p truy v&#7845;n ho&#7863;c c&#226;u h&#7887;i</text><rect fill="#F1F1F1" height="33.7988" rx="12.5" ry="12.5" style="stroke:#181818;stroke-width:0.5;" width="140.7441" x="237.4691" y="199.4092"/><text fill="#000000" font-family="Arial" font-size="12" lengthAdjust="spacing" textLength="120.7441" x="247.4691" y="220.665">B&#7893; sung b&#7897; l&#7885;c khi c&#7847;n</text><rect fill="#F1F1F1" height="47.5977" rx="12.5" ry="12.5" style="stroke:#181818;stroke-width:0.5;" width="155.2813" x="21" y="663.001"/><text fill="#000000" font-family="Arial" font-size="12" lengthAdjust="spacing" textLength="112.7637" x="31" y="684.2568">Nh&#7853;n k&#7871;t qu&#7843; tra c&#7913;u</text><text fill="#000000" font-family="Arial" font-size="12" lengthAdjust="spacing" textLength="135.2813" x="31" y="698.0557">ho&#7863;c c&#226;u tr&#7843; l&#7901;i ph&#226;n t&#237;ch</text><ellipse cx="98.6406" cy="741.5986" fill="none" rx="11" ry="11" style="stroke:#222222;stroke-width:1;"/><ellipse cx="98.6406" cy="741.5986" fill="#222222" rx="6" ry="6" style="stroke:#222222;stroke-width:1;"/><rect fill="#F1F1F1" height="47.5977" rx="12.5" ry="12.5" style="stroke:#181818;stroke-width:0.5;" width="194.123" x="186.2813" y="476.4033"/><text fill="#000000" font-family="Arial" font-size="12" lengthAdjust="spacing" textLength="174.123" x="196.2813" y="497.6592">Tr&#7843; k&#7871;t qu&#7843; r&#7895;ng ho&#7863;c th&#244;ng b&#225;o</text><text fill="#000000" font-family="Arial" font-size="12" lengthAdjust="spacing" textLength="131.3496" x="196.2813" y="511.458">ch&#432;a c&#243; d&#7919; li&#7879;u ph&#249; h&#7907;p</text><ellipse cx="283.3428" cy="570.001" fill="none" rx="11" ry="11" style="stroke:#222222;stroke-width:1;"/><ellipse cx="283.3428" cy="570.001" fill="#222222" rx="6" ry="6" style="stroke:#222222;stroke-width:1;"/><rect fill="#F1F1F1" height="47.5977" rx="12.5" ry="12.5" style="stroke:#181818;stroke-width:0.5;" width="193.4258" x="400.8871" y="364.8057"/><text fill="#000000" font-family="Arial" font-size="12" lengthAdjust="spacing" textLength="102.082" x="410.8871" y="386.0615">T&#7915; ch&#7889;i y&#234;u c&#7847;u v&#224;</text><text fill="#000000" font-family="Arial" font-size="12" lengthAdjust="spacing" textLength="173.4258" x="410.8871" y="399.8604">tr&#7843; l&#7895;i validation ho&#7863;c l&#7895;i ph&#7841;m vi</text><ellipse cx="497.6" cy="457.2021" fill="none" rx="11" ry="11" style="stroke:#222222;stroke-width:1;"/><ellipse cx="497.6" cy="457.2021" fill="#222222" rx="6" ry="6" style="stroke:#222222;stroke-width:1;"/><line style="stroke:#000000;stroke-width:1.5;" x1="15" x2="15" y1="12.3145" y2="784.5986"/><rect fill="#F1F1F1" height="47.5977" rx="12.5" ry="12.5" style="stroke:#181818;stroke-width:0.5;" width="207.3008" x="1100.5525" y="253.208"/><text fill="#000000" font-family="Arial" font-size="12" lengthAdjust="spacing" textLength="130.0605" x="1110.5525" y="274.4639">Ki&#7875;m tra quy&#7873;n truy c&#7853;p,</text><text fill="#000000" font-family="Arial" font-size="12" lengthAdjust="spacing" textLength="187.3008" x="1110.5525" y="288.2627">ph&#7841;m vi v&#224; t&#237;nh h&#7907;p l&#7879; c&#7911;a truy v&#7845;n</text><polygon fill="#F1F1F1" points="1162.687,320.8057,1245.7188,320.8057,1257.7188,332.8057,1245.7188,344.8057,1162.687,344.8057,1150.687,332.8057,1162.687,320.8057" style="stroke:#181818;stroke-width:0.5;"/><text fill="#000000" font-family="Arial" font-size="11" lengthAdjust="spacing" textLength="83.0317" x="1162.687" y="336.7991">Truy v&#7845;n h&#7907;p l&#7879;?</text><text fill="#000000" font-family="Arial" font-size="11" lengthAdjust="spacing" textLength="20.1738" x="1130.5132" y="330.4746">[C&#243;]</text><text fill="#000000" font-family="Arial" font-size="11" lengthAdjust="spacing" textLength="37.9199" x="1257.7188" y="330.4746">[Kh&#244;ng]</text><rect fill="#F1F1F1" height="33.7988" rx="12.5" ry="12.5" style="stroke:#181818;stroke-width:0.5;" width="185.4629" x="912.1954" y="364.8057"/><text fill="#000000" font-family="Arial" font-size="12" lengthAdjust="spacing" textLength="165.4629" x="922.1954" y="386.0615">T&#236;m d&#7919; li&#7879;u ph&#226;n t&#237;ch li&#234;n quan</text><polygon fill="#F1F1F1" points="954.5219,432.4033,1055.3319,432.4033,1067.3319,444.4033,1055.3319,456.4033,954.5219,456.4033,942.5219,444.4033,954.5219,432.4033" style="stroke:#181818;stroke-width:0.5;"/><text fill="#000000" font-family="Arial" font-size="11" lengthAdjust="spacing" textLength="100.8101" x="954.5219" y="448.3967">C&#243; d&#7919; li&#7879;u ph&#249; h&#7907;p?</text><text fill="#000000" font-family="Arial" font-size="11" lengthAdjust="spacing" textLength="20.1738" x="922.348" y="442.0723">[C&#243;]</text><text fill="#000000" font-family="Arial" font-size="11" lengthAdjust="spacing" textLength="37.9199" x="1067.3319" y="442.0723">[Kh&#244;ng]</text><polygon fill="#F1F1F1" points="780.609,476.4033,879.6896,476.4033,891.6896,488.4033,879.6896,500.4033,780.609,500.4033,768.609,488.4033,780.609,476.4033" style="stroke:#181818;stroke-width:0.5;"/><text fill="#000000" font-family="Arial" font-size="11" lengthAdjust="spacing" textLength="99.0806" x="780.609" y="492.3967">L&#224; y&#234;u c&#7847;u h&#7887;i &#273;&#225;p?</text><text fill="#000000" font-family="Arial" font-size="11" lengthAdjust="spacing" textLength="20.1738" x="748.4352" y="486.0723">[C&#243;]</text><text fill="#000000" font-family="Arial" font-size="11" lengthAdjust="spacing" textLength="37.9199" x="891.6896" y="486.0723">[Kh&#244;ng]</text><rect fill="#F1F1F1" height="33.7988" rx="12.5" ry="12.5" style="stroke:#181818;stroke-width:0.5;" width="205.209" x="610.4623" y="510.4033"/><text fill="#000000" font-family="Arial" font-size="12" lengthAdjust="spacing" textLength="185.209" x="620.4623" y="531.6592">T&#7893;ng h&#7907;p c&#226;u tr&#7843; l&#7901;i c&#243; d&#7851;n ch&#7913;ng</text><rect fill="#F1F1F1" height="33.7988" rx="12.5" ry="12.5" style="stroke:#181818;stroke-width:0.5;" width="217.5078" x="604.3129" y="579.2021"/><text fill="#000000" font-family="Arial" font-size="12" lengthAdjust="spacing" textLength="197.5078" x="614.3129" y="600.458">L&#432;u h&#7897;i tho&#7841;i khi thao t&#225;c th&#224;nh c&#244;ng</text><rect fill="#F1F1F1" height="33.7988" rx="12.5" ry="12.5" style="stroke:#181818;stroke-width:0.5;" width="210.8223" x="841.8207" y="510.4033"/><text fill="#000000" font-family="Arial" font-size="12" lengthAdjust="spacing" textLength="190.8223" x="851.8207" y="531.6592">Chu&#7849;n b&#7883; danh s&#225;ch k&#7871;t qu&#7843; tra c&#7913;u</text><polygon fill="#F1F1F1" points="830.1493,619.001,842.1493,631.001,830.1493,643.001,818.1493,631.001,830.1493,619.001" style="stroke:#181818;stroke-width:0.5;"/><line style="stroke:#000000;stroke-width:1.5;" x1="598.3129" x2="598.3129" y1="12.3145" y2="784.5986"/><line style="stroke:#000000;stroke-width:1.5;" x1="1311.8533" x2="1311.8533" y1="12.3145" y2="784.5986"/><line style="stroke:#181818;stroke-width:1;" x1="307.8412" x2="307.8412" y1="58.0127" y2="78.0127"/><polygon fill="#181818" points="303.8412,68.0127,311.8412,68.0127,307.8412,78.0127" style="stroke:#181818;stroke-width:1;"/><line style="stroke:#181818;stroke-width:1;" x1="307.8412" x2="307.8412" y1="125.6104" y2="145.6104"/><polygon fill="#181818" points="303.8412,135.6104,311.8412,135.6104,307.8412,145.6104" style="stroke:#181818;stroke-width:1;"/><line style="stroke:#181818;stroke-width:1;" x1="307.8412" x2="307.8412" y1="179.4092" y2="199.4092"/><polygon fill="#181818" points="303.8412,189.4092,311.8412,189.4092,307.8412,199.4092" style="stroke:#181818;stroke-width:1;"/><line style="stroke:#181818;stroke-width:1;" x1="98.6406" x2="98.6406" y1="710.5986" y2="730.5986"/><polygon fill="#181818" points="94.6406,720.5986,102.6406,720.5986,98.6406,730.5986" style="stroke:#181818;stroke-width:1;"/><line style="stroke:#181818;stroke-width:1;" x1="283.3428" x2="283.3428" y1="524.001" y2="559.001"/><polygon fill="#181818" points="279.3428,549.001,287.3428,549.001,283.3428,559.001" style="stroke:#181818;stroke-width:1;"/><line style="stroke:#181818;stroke-width:1;" x1="497.6" x2="497.6" y1="412.4033" y2="446.2021"/><polygon fill="#181818" points="493.6,436.2021,501.6,436.2021,497.6,446.2021" style="stroke:#181818;stroke-width:1;"/><line style="stroke:#181818;stroke-width:1;" x1="713.0668" x2="713.0668" y1="544.2021" y2="579.2021"/><polygon fill="#181818" points="709.0668,569.2021,717.0668,569.2021,713.0668,579.2021" style="stroke:#181818;stroke-width:1;"/><line style="stroke:#181818;stroke-width:1;" x1="768.609" x2="713.0668" y1="488.4033" y2="488.4033"/><line style="stroke:#181818;stroke-width:1;" x1="713.0668" x2="713.0668" y1="488.4033" y2="510.4033"/><polygon fill="#181818" points="709.0668,500.4033,717.0668,500.4033,713.0668,510.4033" style="stroke:#181818;stroke-width:1;"/><line style="stroke:#181818;stroke-width:1;" x1="891.6896" x2="947.2318" y1="488.4033" y2="488.4033"/><line style="stroke:#181818;stroke-width:1;" x1="947.2318" x2="947.2318" y1="488.4033" y2="510.4033"/><polygon fill="#181818" points="943.2318,500.4033,951.2318,500.4033,947.2318,510.4033" style="stroke:#181818;stroke-width:1;"/><line style="stroke:#181818;stroke-width:1;" x1="713.0668" x2="713.0668" y1="613.001" y2="631.001"/><line style="stroke:#181818;stroke-width:1;" x1="713.0668" x2="818.1493" y1="631.001" y2="631.001"/><polygon fill="#181818" points="808.1493,627.001,818.1493,631.001,808.1493,635.001" style="stroke:#181818;stroke-width:1;"/><line style="stroke:#181818;stroke-width:1;" x1="947.2318" x2="947.2318" y1="544.2021" y2="631.001"/><line style="stroke:#181818;stroke-width:1;" x1="947.2318" x2="842.1493" y1="631.001" y2="631.001"/><polygon fill="#181818" points="852.1493,627.001,842.1493,631.001,852.1493,635.001" style="stroke:#181818;stroke-width:1;"/><line style="stroke:#181818;stroke-width:1;" x1="942.5219" x2="830.1493" y1="444.4033" y2="444.4033"/><line style="stroke:#181818;stroke-width:1;" x1="830.1493" x2="830.1493" y1="444.4033" y2="476.4033"/><polygon fill="#181818" points="826.1493,466.4033,834.1493,466.4033,830.1493,476.4033" style="stroke:#181818;stroke-width:1;"/><line style="stroke:#181818;stroke-width:1;" x1="1004.9269" x2="1004.9269" y1="398.6045" y2="432.4033"/><polygon fill="#181818" points="1000.9269,422.4033,1008.9269,422.4033,1004.9269,432.4033" style="stroke:#181818;stroke-width:1;"/><line style="stroke:#181818;stroke-width:1;" x1="1150.687" x2="1004.9269" y1="332.8057" y2="332.8057"/><line style="stroke:#181818;stroke-width:1;" x1="1004.9269" x2="1004.9269" y1="332.8057" y2="364.8057"/><polygon fill="#181818" points="1000.9269,354.8057,1008.9269,354.8057,1004.9269,364.8057" style="stroke:#181818;stroke-width:1;"/><line style="stroke:#181818;stroke-width:1;" x1="1204.2029" x2="1204.2029" y1="300.8057" y2="320.8057"/><polygon fill="#181818" points="1200.2029,310.8057,1208.2029,310.8057,1204.2029,320.8057" style="stroke:#181818;stroke-width:1;"/><line style="stroke:#181818;stroke-width:1;" x1="307.8412" x2="307.8412" y1="233.208" y2="238.208"/><line style="stroke:#181818;stroke-width:1;" x1="307.8412" x2="1204.2029" y1="238.208" y2="238.208"/><line style="stroke:#181818;stroke-width:1;" x1="1204.2029" x2="1204.2029" y1="238.208" y2="253.208"/><polygon fill="#181818" points="1200.2029,243.208,1208.2029,243.208,1204.2029,253.208" style="stroke:#181818;stroke-width:1;"/><line style="stroke:#181818;stroke-width:1;" x1="830.1493" x2="830.1493" y1="643.001" y2="648.001"/><line style="stroke:#181818;stroke-width:1;" x1="830.1493" x2="98.6406" y1="648.001" y2="648.001"/><line style="stroke:#181818;stroke-width:1;" x1="98.6406" x2="98.6406" y1="648.001" y2="663.001"/><polygon fill="#181818" points="94.6406,653.001,102.6406,653.001,98.6406,663.001" style="stroke:#181818;stroke-width:1;"/><line style="stroke:#181818;stroke-width:1;" x1="1067.3319" x2="1079.3319" y1="444.4033" y2="444.4033"/><line style="stroke:#181818;stroke-width:1;" x1="1079.3319" x2="1079.3319" y1="444.4033" y2="462.4033"/><line style="stroke:#181818;stroke-width:1;" x1="1079.3319" x2="283.3428" y1="462.4033" y2="462.4033"/><line style="stroke:#181818;stroke-width:1;" x1="283.3428" x2="283.3428" y1="462.4033" y2="476.4033"/><polygon fill="#181818" points="279.3428,466.4033,287.3428,466.4033,283.3428,476.4033" style="stroke:#181818;stroke-width:1;"/><line style="stroke:#181818;stroke-width:1;" x1="1257.7188" x2="1269.7188" y1="332.8057" y2="332.8057"/><line style="stroke:#181818;stroke-width:1;" x1="1269.7188" x2="1269.7188" y1="332.8057" y2="350.8057"/><line style="stroke:#181818;stroke-width:1;" x1="1269.7188" x2="497.6" y1="350.8057" y2="350.8057"/><line style="stroke:#181818;stroke-width:1;" x1="497.6" x2="497.6" y1="350.8057" y2="364.8057"/><polygon fill="#181818" points="493.6,354.8057,501.6,354.8057,497.6,364.8057" style="stroke:#181818;stroke-width:1;"/><text fill="#000000" font-family="Arial" font-size="18" lengthAdjust="spacing" textLength="253.0107" x="180.1511" y="29.1982">Ng&#432;&#7901;i d&#249;ng chuy&#234;n m&#244;n n&#7897;i b&#7897;</text><text fill="#000000" font-family="Arial" font-size="18" lengthAdjust="spacing" textLength="129.0674" x="890.5494" y="29.1982">H&#7879; th&#7889;ng SMAP</text><!--SRC=[ZLD1QnD16BtFh_YEBVWBDWUf1H7Q1i7SnCDqTfCPiZkxtPs917AH7deGaHoaU12R1Ycr5WCAqbt4mvJyZ_adVZExRbURWvUGp7plUs_UUod6GcOqfmaKQXf7-9aBfdGIa-BkXjCmVIda28OqBgBEJHWDgOxLurIgFaqYsCa5ZGcPzKVhbQq-20ZD3S8OrrFpMK9YlakGjdelu10_PwHGD5SaEB3LHnoorIK3UNkC29LJOFXR4vxQyWV30rij8JO_8RJLLuY5hKvqZmHzRilh3A_r52Qs_2IX0J1phW5NlXKuzSXMxw3GkDZnGcohDmp6N217UI5xgFW9xWE5ytCSUdQmytH6WZqaEKwybYCzjTKhMVCmH_c0P4YzI60YO6BEG9bhoHtXCdFxJvpy2zeHXYnY25k3Zj9s-E4sSaSIjfxlccyljWb0C31VakvR8UFcN3eQnl78sNcagTiAuFOYyD_ncvhX_l8QiO-gCHRjJMYyWjkvMMn4E4de8hfJo_R-OYhbqhq0esPUG7abwoJbgFS7jxzU-VKOktBfB8JtNd6QudiM62utPsWUmteqg0XxXlHxt1tTATZbsfQNqgNu6aAAc0Bn7CQs_ANG3wUchKwpIOPYwB_zToizbI-MtBpPJtHxrlMXarEje51fHZO_AHXuO9S4UtxgJ6vgxwVXq2nI3s1ylQADrPko_flHF_q-hmloogSq5zq6O8tnjdtBAHQRnYAaIgJjtwe-Rwll-3oRv_eD]--></g></svg>