<svg xmlns="http://www.w3.org/2000/svg" xmlns:xlink="http://www.w3.org/1999/xlink" contentStyleType="text/css" data-diagram-type="ACTIVITY" height="651px" preserveAspectRatio="none" style="width:1110px;height:651px;background:#FFFFFF;" version="1.1" viewBox="0 0 1110 651" width="1110px" zoomAndPan="magnify"><defs/><g><rect fill="none" height="20.6982" style="stroke:none;stroke-width:1;" width="1077.7458" x="15" y="12.3145"/><ellipse cx="328.4226" cy="48.0127" fill="#222222" rx="10" ry="10" style="stroke:#222222;stroke-width:1;"/><rect fill="#F1F1F1" height="47.5977" rx="12.5" ry="12.5" style="stroke:#181818;stroke-width:0.5;" width="173.3164" x="241.7644" y="78.0127"/><text fill="#000000" font-family="Arial" font-size="12" lengthAdjust="spacing" textLength="153.3164" x="251.7644" y="99.2686">M&#7903; dashboard ho&#7863;c khu v&#7921;c</text><text fill="#000000" font-family="Arial" font-size="12" lengthAdjust="spacing" textLength="96.0703" x="251.7644" y="113.0674">theo d&#245;i tr&#7841;ng th&#225;i</text><rect fill="#F1F1F1" height="47.5977" rx="12.5" ry="12.5" style="stroke:#181818;stroke-width:0.5;" width="159.9102" x="21" y="517.7998"/><text fill="#000000" font-family="Arial" font-size="12" lengthAdjust="spacing" textLength="139.9102" x="31" y="539.0557">Xem t&#243;m t&#7855;t v&#224; m&#7903; chi ti&#7871;t</text><text fill="#000000" font-family="Arial" font-size="12" lengthAdjust="spacing" textLength="38.0215" x="31" y="552.8545">khi c&#7847;n</text><ellipse cx="100.9551" cy="596.3975" fill="none" rx="11" ry="11" style="stroke:#222222;stroke-width:1;"/><ellipse cx="100.9551" cy="596.3975" fill="#222222" rx="6" ry="6" style="stroke:#222222;stroke-width:1;"/><rect fill="#F1F1F1" height="47.5977" rx="12.5" ry="12.5" style="stroke:#181818;stroke-width:0.5;" width="174.1074" x="190.9102" y="450.2021"/><text fill="#000000" font-family="Arial" font-size="12" lengthAdjust="spacing" textLength="154.1074" x="200.9102" y="471.458">Gi&#7919; th&#244;ng tin &#273;&#7875; user xem l&#7841;i</text><text fill="#000000" font-family="Arial" font-size="12" lengthAdjust="spacing" textLength="153.4453" x="200.9102" y="485.2568">khi truy c&#7853;p khu v&#7921;c theo d&#245;i</text><ellipse cx="277.9639" cy="542.5986" fill="none" rx="11" ry="11" style="stroke:#222222;stroke-width:1;"/><ellipse cx="277.9639" cy="542.5986" fill="#222222" rx="6" ry="6" style="stroke:#222222;stroke-width:1;"/><rect fill="#F1F1F1" height="47.5977" rx="12.5" ry="12.5" style="stroke:#181818;stroke-width:0.5;" width="185.3105" x="395.0176" y="338.6045"/><text fill="#000000" font-family="Arial" font-size="12" lengthAdjust="spacing" textLength="157.459" x="405.0176" y="359.8604">Gi&#7919; hi&#7875;n th&#7883; tr&#7841;ng th&#225;i hi&#7879;n t&#7841;i</text><text fill="#000000" font-family="Arial" font-size="12" lengthAdjust="spacing" textLength="165.3105" x="405.0176" y="373.6592">v&#224; th&#7901;i &#273;i&#7875;m c&#7853;p nh&#7853;t g&#7847;n nh&#7845;t</text><ellipse cx="487.6729" cy="417.2021" fill="none" rx="11" ry="11" style="stroke:#222222;stroke-width:1;"/><ellipse cx="487.6729" cy="417.2021" fill="#222222" rx="6" ry="6" style="stroke:#222222;stroke-width:1;"/><line style="stroke:#000000;stroke-width:1.5;" x1="15" x2="15" y1="12.3145" y2="639.3975"/><rect fill="#F1F1F1" height="47.5977" rx="12.5" ry="12.5" style="stroke:#181818;stroke-width:0.5;" width="162.7344" x="876.739" y="145.6104"/><text fill="#000000" font-family="Arial" font-size="12" lengthAdjust="spacing" textLength="142.7344" x="886.739" y="166.8662">Ki&#7875;m tra quy&#7873;n truy c&#7853;p v&#224;</text><text fill="#000000" font-family="Arial" font-size="12" lengthAdjust="spacing" textLength="136.084" x="886.739" y="180.665">x&#225;c &#273;&#7883;nh ph&#7841;m vi theo d&#245;i</text><rect fill="#F1F1F1" height="61.3965" rx="12.5" ry="12.5" style="stroke:#181818;stroke-width:0.5;" width="156.084" x="880.0642" y="213.208"/><text fill="#000000" font-family="Arial" font-size="12" lengthAdjust="spacing" textLength="136.084" x="890.0642" y="234.4639">Hi&#7875;n th&#7883; tr&#7841;ng th&#225;i hi&#7879;n t&#7841;i</text><text fill="#000000" font-family="Arial" font-size="12" lengthAdjust="spacing" textLength="117.3984" x="890.0642" y="248.2627">c&#7911;a campaign, project</text><text fill="#000000" font-family="Arial" font-size="12" lengthAdjust="spacing" textLength="102.7793" x="890.0642" y="262.0615">ho&#7863;c ngu&#7891;n d&#7919; li&#7879;u</text><polygon fill="#F1F1F1" points="879.887,294.6045,1036.3254,294.6045,1048.3254,306.6045,1036.3254,318.6045,879.887,318.6045,867.887,306.6045,879.887,294.6045" style="stroke:#181818;stroke-width:0.5;"/><text fill="#000000" font-family="Arial" font-size="11" lengthAdjust="spacing" textLength="156.4385" x="879.887" y="310.5979">C&#243; s&#7921; ki&#7879;n ho&#7863;c c&#7843;nh b&#225;o m&#7899;i?</text><text fill="#000000" font-family="Arial" font-size="11" lengthAdjust="spacing" textLength="20.1738" x="847.7131" y="304.2734">[C&#243;]</text><text fill="#000000" font-family="Arial" font-size="11" lengthAdjust="spacing" textLength="37.9199" x="1048.3254" y="304.2734">[Kh&#244;ng]</text><rect fill="#F1F1F1" height="47.5977" rx="12.5" ry="12.5" style="stroke:#181818;stroke-width:0.5;" width="218.1758" x="689.7681" y="338.6045"/><text fill="#000000" font-family="Arial" font-size="12" lengthAdjust="spacing" textLength="198.1758" x="699.7681" y="359.8604">Ph&#226;n lo&#7841;i th&#244;ng b&#225;o theo lo&#7841;i s&#7921; ki&#7879;n</text><text fill="#000000" font-family="Arial" font-size="12" lengthAdjust="spacing" textLength="130.0957" x="699.7681" y="373.6592">v&#224; m&#7913;c &#273;&#7897; nghi&#234;m tr&#7885;ng</text><polygon fill="#F1F1F1" points="712.0645,406.2021,885.6475,406.2021,897.6475,418.2021,885.6475,430.2021,712.0645,430.2021,700.0645,418.2021,712.0645,406.2021" style="stroke:#181818;stroke-width:0.5;"/><text fill="#000000" font-family="Arial" font-size="11" lengthAdjust="spacing" textLength="173.583" x="712.0645" y="422.1956">C&#243; phi&#234;n nh&#7853;n th&#244;ng b&#225;o ph&#249; h&#7907;p?</text><text fill="#000000" font-family="Arial" font-size="11" lengthAdjust="spacing" textLength="20.1738" x="679.8906" y="415.8711">[C&#243;]</text><text fill="#000000" font-family="Arial" font-size="11" lengthAdjust="spacing" textLength="37.9199" x="897.6475" y="415.8711">[Kh&#244;ng]</text><rect fill="#F1F1F1" height="33.7988" rx="12.5" ry="12.5" style="stroke:#181818;stroke-width:0.5;" width="199.4727" x="590.3281" y="450.2021"/><text fill="#000000" font-family="Arial" font-size="12" lengthAdjust="spacing" textLength="179.4727" x="600.3281" y="471.458">Hi&#7875;n th&#7883; th&#244;ng b&#225;o ho&#7863;c c&#7843;nh b&#225;o</text><line style="stroke:#000000;stroke-width:1.5;" x1="584.3281" x2="584.3281" y1="12.3145" y2="639.3975"/><line style="stroke:#000000;stroke-width:1.5;" x1="1091.2454" x2="1091.2454" y1="12.3145" y2="639.3975"/><line style="stroke:#181818;stroke-width:1;" x1="328.4226" x2="328.4226" y1="58.0127" y2="78.0127"/><polygon fill="#181818" points="324.4226,68.0127,332.4226,68.0127,328.4226,78.0127" style="stroke:#181818;stroke-width:1;"/><line style="stroke:#181818;stroke-width:1;" x1="100.9551" x2="100.9551" y1="565.3975" y2="585.3975"/><polygon fill="#181818" points="96.9551,575.3975,104.9551,575.3975,100.9551,585.3975" style="stroke:#181818;stroke-width:1;"/><line style="stroke:#181818;stroke-width:1;" x1="277.9639" x2="277.9639" y1="497.7998" y2="531.5986"/><polygon fill="#181818" points="273.9639,521.5986,281.9639,521.5986,277.9639,531.5986" style="stroke:#181818;stroke-width:1;"/><line style="stroke:#181818;stroke-width:1;" x1="487.6729" x2="487.6729" y1="386.2021" y2="406.2021"/><polygon fill="#181818" points="483.6729,396.2021,491.6729,396.2021,487.6729,406.2021" style="stroke:#181818;stroke-width:1;"/><line style="stroke:#181818;stroke-width:1;" x1="958.1062" x2="958.1062" y1="193.208" y2="213.208"/><polygon fill="#181818" points="954.1062,203.208,962.1062,203.208,958.1062,213.208" style="stroke:#181818;stroke-width:1;"/><line style="stroke:#181818;stroke-width:1;" x1="700.0645" x2="690.0645" y1="418.2021" y2="418.2021"/><line style="stroke:#181818;stroke-width:1;" x1="690.0645" x2="690.0645" y1="418.2021" y2="450.2021"/><polygon fill="#181818" points="686.0645,440.2021,694.0645,440.2021,690.0645,450.2021" style="stroke:#181818;stroke-width:1;"/><line style="stroke:#181818;stroke-width:1;" x1="798.856" x2="798.856" y1="386.2021" y2="406.2021"/><polygon fill="#181818" points="794.856,396.2021,802.856,396.2021,798.856,406.2021" style="stroke:#181818;stroke-width:1;"/><line style="stroke:#181818;stroke-width:1;" x1="867.887" x2="798.856" y1="306.6045" y2="306.6045"/><line style="stroke:#181818;stroke-width:1;" x1="798.856" x2="798.856" y1="306.6045" y2="338.6045"/><polygon fill="#181818" points="794.856,328.6045,802.856,328.6045,798.856,338.6045" style="stroke:#181818;stroke-width:1;"/><line style="stroke:#181818;stroke-width:1;" x1="958.1062" x2="958.1062" y1="274.6045" y2="294.6045"/><polygon fill="#181818" points="954.1062,284.6045,962.1062,284.6045,958.1062,294.6045" style="stroke:#181818;stroke-width:1;"/><line style="stroke:#181818;stroke-width:1;" x1="328.4226" x2="328.4226" y1="125.6104" y2="130.6104"/><line style="stroke:#181818;stroke-width:1;" x1="328.4226" x2="958.1062" y1="130.6104" y2="130.6104"/><line style="stroke:#181818;stroke-width:1;" x1="958.1062" x2="958.1062" y1="130.6104" y2="145.6104"/><polygon fill="#181818" points="954.1062,135.6104,962.1062,135.6104,958.1062,145.6104" style="stroke:#181818;stroke-width:1;"/><line style="stroke:#181818;stroke-width:1;" x1="690.0645" x2="690.0645" y1="484.001" y2="501.501"/><line style="stroke:#181818;stroke-width:1;" x1="690.0645" x2="100.9551" y1="501.501" y2="501.501"/><line style="stroke:#181818;stroke-width:1;" x1="100.9551" x2="100.9551" y1="501.501" y2="517.7998"/><polygon fill="#181818" points="96.9551,507.7998,104.9551,507.7998,100.9551,517.7998" style="stroke:#181818;stroke-width:1;"/><line style="stroke:#181818;stroke-width:1;" x1="897.6475" x2="909.6475" y1="418.2021" y2="418.2021"/><line style="stroke:#181818;stroke-width:1;" x1="909.6475" x2="909.6475" y1="418.2021" y2="436.2021"/><line style="stroke:#181818;stroke-width:1;" x1="909.6475" x2="277.9639" y1="436.2021" y2="436.2021"/><line style="stroke:#181818;stroke-width:1;" x1="277.9639" x2="277.9639" y1="436.2021" y2="450.2021"/><polygon fill="#181818" points="273.9639,440.2021,281.9639,440.2021,277.9639,450.2021" style="stroke:#181818;stroke-width:1;"/><line style="stroke:#181818;stroke-width:1;" x1="1048.3254" x2="1060.3254" y1="306.6045" y2="306.6045"/><line style="stroke:#181818;stroke-width:1;" x1="1060.3254" x2="1060.3254" y1="306.6045" y2="324.6045"/><line style="stroke:#181818;stroke-width:1;" x1="1060.3254" x2="487.6729" y1="324.6045" y2="324.6045"/><line style="stroke:#181818;stroke-width:1;" x1="487.6729" x2="487.6729" y1="324.6045" y2="338.6045"/><polygon fill="#181818" points="483.6729,328.6045,491.6729,328.6045,487.6729,338.6045" style="stroke:#181818;stroke-width:1;"/><text fill="#000000" font-family="Arial" font-size="18" lengthAdjust="spacing" textLength="253.0107" x="173.1587" y="29.1982">Ng&#432;&#7901;i d&#249;ng chuy&#234;n m&#244;n n&#7897;i b&#7897;</text><text fill="#000000" font-family="Arial" font-size="18" lengthAdjust="spacing" textLength="129.0674" x="773.2531" y="29.1982">H&#7879; th&#7889;ng SMAP</text><!--SRC=[ZP9FQzH06CRlyodUOmj-Wjs3544BfQNWHH0FiqasCsuoYSbaxS9Uf8SUYeV5Kn6fQv5YeLHfHRfpy335xp7Vn6Sckvgbbrv2Pjvvd-Vt_gb7KfMyuZdLUf8b-5OoqasUiVf_HF2uU2jLIaEUrKad4YT3tcJwQQ7q7iyJsgeapnYRxgL_lZlpIL9iRv4MYMPYBnJbzaQHSkP4qW3VAQirhpJhxJfpIZ6lnQ3WLKoYS8jV4Or4GsDdVaHCYwI0r4z9kdABEHIri7FPXzEsCqSuEJF3xVFThVqfw-r8PmvplENqffauyqxXlvbGv1QN9OtjPtPWvn7TpPmvLe9A0SsSnb1V-VHPRzkBg21zl6vB0g4ZX70dMUJCEQU8voMNgNf4PLMyJYBDbaMej77cWwBOcIlAV683R3caZIVsccgKHwDMRfa0o3D03UoyeDoPZ_BnfkTIjF4I6Qys6L5lNzWlYhB20tYc6w25X530yhwZZHnKxUM-jMMVW4j8U-6RvCnxbVRnP0LL-WZcXBPSgZNvKjXRGaFEoljGm5flMIVlVcdzaF7WFGdoBnBWsklSD_vAhoewHHQQ8DtYjmxlHZZ2wLor7hKkIlmaM5pGxWIg5V0pwQUo9DLIXTuSKbCd5Ht0BGiJNebsTkZVQdPNfkkcOZbazpsNZkA1kzMEpJz3Y-vcxLgt164wcb9VQ3XyrPuW-0Vtlm00]--></g></svg>