<svg xmlns="http://www.w3.org/2000/svg" xmlns:xlink="http://www.w3.org/1999/xlink" contentStyleType="text/css" data-diagram-type="ACTIVITY" height="550px" preserveAspectRatio="none" style="width:718px;height:550px;background:#FFFFFF;" version="1.1" viewBox="0 0 718 550" width="718px" zoomAndPan="magnify"><defs/><g><rect fill="none" height="20.6982" style="stroke:none;stroke-width:1;" width="685.3071" x="15" y="12.3145"/><ellipse cx="208.2656" cy="48.0127" fill="#222222" rx="10" ry="10" style="stroke:#222222;stroke-width:1;"/><rect fill="#F1F1F1" height="47.5977" rx="12.5" ry="12.5" style="stroke:#181818;stroke-width:0.5;" width="212.6797" x="101.9258" y="78.0127"/><text fill="#000000" font-family="Arial" font-size="12" lengthAdjust="spacing" textLength="192.6797" x="111.9258" y="99.2686">M&#7903; c&#7845;u h&#236;nh c&#7843;nh b&#225;o kh&#7911;ng ho&#7843;ng</text><text fill="#000000" font-family="Arial" font-size="12" lengthAdjust="spacing" textLength="82.0371" x="111.9258" y="113.0674">c&#7911;a m&#7897;t project</text><rect fill="#F1F1F1" height="33.7988" rx="12.5" ry="12.5" style="stroke:#181818;stroke-width:0.5;" width="166.7715" x="124.8799" y="145.6104"/><text fill="#000000" font-family="Arial" font-size="12" lengthAdjust="spacing" textLength="146.7715" x="134.8799" y="166.8662">Ch&#7885;n thao t&#225;c x&#243;a c&#7845;u h&#236;nh</text><rect fill="#F1F1F1" height="33.7988" rx="12.5" ry="12.5" style="stroke:#181818;stroke-width:0.5;" width="139.4199" x="138.5557" y="199.4092"/><text fill="#000000" font-family="Arial" font-size="12" lengthAdjust="spacing" textLength="119.4199" x="148.5557" y="220.665">X&#225;c nh&#7853;n thao t&#225;c x&#243;a</text><rect fill="#F1F1F1" height="33.7988" rx="12.5" ry="12.5" style="stroke:#181818;stroke-width:0.5;" width="176.7852" x="21" y="418.6045"/><text fill="#000000" font-family="Arial" font-size="12" lengthAdjust="spacing" textLength="156.7852" x="31" y="439.8604">Nh&#7853;n k&#7871;t qu&#7843; x&#243;a th&#224;nh c&#244;ng</text><ellipse cx="109.3926" cy="497.2021" fill="none" rx="11" ry="11" style="stroke:#222222;stroke-width:1;"/><ellipse cx="109.3926" cy="497.2021" fill="#222222" rx="6" ry="6" style="stroke:#222222;stroke-width:1;"/><rect fill="#F1F1F1" height="47.5977" rx="12.5" ry="12.5" style="stroke:#181818;stroke-width:0.5;" width="139.3262" x="237.4756" y="351.0068"/><text fill="#000000" font-family="Arial" font-size="12" lengthAdjust="spacing" textLength="109.4238" x="247.4756" y="372.2627">T&#7915; ch&#7889;i thao t&#225;c x&#243;a</text><text fill="#000000" font-family="Arial" font-size="12" lengthAdjust="spacing" textLength="119.3262" x="247.4756" y="386.0615">v&#224; tr&#7843; l&#253; do t&#432;&#417;ng &#7913;ng</text><rect fill="#F1F1F1" height="33.7988" rx="12.5" ry="12.5" style="stroke:#181818;stroke-width:0.5;" width="117.418" x="248.4297" y="432.4033"/><text fill="#000000" font-family="Arial" font-size="12" lengthAdjust="spacing" textLength="97.418" x="258.4297" y="453.6592">Nh&#7853;n l&#253; do t&#7915; ch&#7889;i</text><ellipse cx="307.1387" cy="511.001" fill="none" rx="11" ry="11" style="stroke:#222222;stroke-width:1;"/><ellipse cx="307.1387" cy="511.001" fill="#222222" rx="6" ry="6" style="stroke:#222222;stroke-width:1;"/><line style="stroke:#000000;stroke-width:1.5;" x1="15" x2="15" y1="12.3145" y2="538.001"/><rect fill="#F1F1F1" height="33.7988" rx="12.5" ry="12.5" style="stroke:#181818;stroke-width:0.5;" width="202.0977" x="492.709" y="253.208"/><text fill="#000000" font-family="Arial" font-size="12" lengthAdjust="spacing" textLength="182.0977" x="502.709" y="274.4639">Ki&#7875;m tra project v&#224; quy&#7873;n thao t&#225;c</text><polygon fill="#F1F1F1" points="553.4558,307.0068,634.0598,307.0068,646.0598,319.0068,634.0598,331.0068,553.4558,331.0068,541.4558,319.0068,553.4558,307.0068" style="stroke:#181818;stroke-width:0.5;"/><text fill="#000000" font-family="Arial" font-size="11" lengthAdjust="spacing" textLength="80.604" x="553.4558" y="323.0002">Y&#234;u c&#7847;u h&#7907;p l&#7879;?</text><text fill="#000000" font-family="Arial" font-size="11" lengthAdjust="spacing" textLength="20.1738" x="521.282" y="316.6758">[C&#243;]</text><text fill="#000000" font-family="Arial" font-size="11" lengthAdjust="spacing" textLength="37.9199" x="646.0598" y="316.6758">[Kh&#244;ng]</text><rect fill="#F1F1F1" height="33.7988" rx="12.5" ry="12.5" style="stroke:#181818;stroke-width:0.5;" width="216.166" x="386.8018" y="351.0068"/><text fill="#000000" font-family="Arial" font-size="12" lengthAdjust="spacing" textLength="196.166" x="396.8018" y="372.2627">X&#243;a c&#7845;u h&#236;nh c&#7843;nh b&#225;o kh&#7911;ng ho&#7843;ng</text><line style="stroke:#000000;stroke-width:1.5;" x1="380.8018" x2="380.8018" y1="12.3145" y2="538.001"/><line style="stroke:#000000;stroke-width:1.5;" x1="698.8066" x2="698.8066" y1="12.3145" y2="538.001"/><line style="stroke:#181818;stroke-width:1;" x1="208.2656" x2="208.2656" y1="58.0127" y2="78.0127"/><polygon fill="#181818" points="204.2656,68.0127,212.2656,68.0127,208.2656,78.0127" style="stroke:#181818;stroke-width:1;"/><line style="stroke:#181818;stroke-width:1;" x1="208.2656" x2="208.2656" y1="125.6104" y2="145.6104"/><polygon fill="#181818" points="204.2656,135.6104,212.2656,135.6104,208.2656,145.6104" style="stroke:#181818;stroke-width:1;"/><line style="stroke:#181818;stroke-width:1;" x1="208.2656" x2="208.2656" y1="179.4092" y2="199.4092"/><polygon fill="#181818" points="204.2656,189.4092,212.2656,189.4092,208.2656,199.4092" style="stroke:#181818;stroke-width:1;"/><line style="stroke:#181818;stroke-width:1;" x1="109.3926" x2="109.3926" y1="452.4033" y2="486.2021"/><polygon fill="#181818" points="105.3926,476.2021,113.3926,476.2021,109.3926,486.2021" style="stroke:#181818;stroke-width:1;"/><line style="stroke:#181818;stroke-width:1;" x1="307.1387" x2="307.1387" y1="398.6045" y2="432.4033"/><polygon fill="#181818" points="303.1387,422.4033,311.1387,422.4033,307.1387,432.4033" style="stroke:#181818;stroke-width:1;"/><line style="stroke:#181818;stroke-width:1;" x1="307.1387" x2="307.1387" y1="466.2021" y2="500.001"/><polygon fill="#181818" points="303.1387,490.001,311.1387,490.001,307.1387,500.001" style="stroke:#181818;stroke-width:1;"/><line style="stroke:#181818;stroke-width:1;" x1="541.4558" x2="494.8848" y1="319.0068" y2="319.0068"/><line style="stroke:#181818;stroke-width:1;" x1="494.8848" x2="494.8848" y1="319.0068" y2="351.0068"/><polygon fill="#181818" points="490.8848,341.0068,498.8848,341.0068,494.8848,351.0068" style="stroke:#181818;stroke-width:1;"/><line style="stroke:#181818;stroke-width:1;" x1="593.7578" x2="593.7578" y1="287.0068" y2="307.0068"/><polygon fill="#181818" points="589.7578,297.0068,597.7578,297.0068,593.7578,307.0068" style="stroke:#181818;stroke-width:1;"/><line style="stroke:#181818;stroke-width:1;" x1="208.2656" x2="208.2656" y1="233.208" y2="238.208"/><line style="stroke:#181818;stroke-width:1;" x1="208.2656" x2="593.7578" y1="238.208" y2="238.208"/><line style="stroke:#181818;stroke-width:1;" x1="593.7578" x2="593.7578" y1="238.208" y2="253.208"/><polygon fill="#181818" points="589.7578,243.208,597.7578,243.208,593.7578,253.208" style="stroke:#181818;stroke-width:1;"/><line style="stroke:#181818;stroke-width:1;" x1="494.8848" x2="494.8848" y1="384.8057" y2="402.3057"/><line style="stroke:#181818;stroke-width:1;" x1="494.8848" x2="109.3926" y1="402.3057" y2="402.3057"/><line style="stroke:#181818;stroke-width:1;" x1="109.3926" x2="109.3926" y1="402.3057" y2="418.6045"/><polygon fill="#181818" points="105.3926,408.6045,113.3926,408.6045,109.3926,418.6045" style="stroke:#181818;stroke-width:1;"/><line style="stroke:#181818;stroke-width:1;" x1="646.0598" x2="658.0598" y1="319.0068" y2="319.0068"/><line style="stroke:#181818;stroke-width:1;" x1="658.0598" x2="658.0598" y1="319.0068" y2="337.0068"/><line style="stroke:#181818;stroke-width:1;" x1="658.0598" x2="307.1387" y1="337.0068" y2="337.0068"/><line style="stroke:#181818;stroke-width:1;" x1="307.1387" x2="307.1387" y1="337.0068" y2="351.0068"/><polygon fill="#181818" points="303.1387,341.0068,311.1387,341.0068,307.1387,351.0068" style="stroke:#181818;stroke-width:1;"/><text fill="#000000" font-family="Arial" font-size="18" lengthAdjust="spacing" textLength="253.0107" x="71.3955" y="29.1982">Ng&#432;&#7901;i d&#249;ng chuy&#234;n m&#244;n n&#7897;i b&#7897;</text><text fill="#000000" font-family="Arial" font-size="18" lengthAdjust="spacing" textLength="129.0674" x="475.2705" y="29.1982">H&#7879; th&#7889;ng SMAP</text><!--SRC=[dL6zIWD14ExtAQPCNY4f90H420c25efOREuksJLtU-VTd1f88nPM5fOMOaAGO5G8nCOiOh6GzzWtSTOG4bE8sCpkpiptCxDPHwg4fpo23BjXG36L7kPHoB9LHN0_FfUg3IqUPi5QnGzQF0znErROu540bLJoaB5UepsVM7qlmJVl1FD4tZLZ1P5vKw2ilfFGfDXZ6V8KMQbkzGDuTlQOWp0lIhZxa8wc6SJG4LQFY4J4Bjbc7ZqvH8H7IDBu9F2mp4fLwhfHW8B7W6RWmOMPydLEwZbmUINix7MpiKoUTwo-fhJLjoIsLw_izbYf9gs-YW1JlfI2CzE7qxnhzUKQ2U5b2mg7PfmxpH5fMZrC82JEhIBr1GeAHrKpFIuo03BoqzjlyvO9yETz4dTZCL_7pZwHZ1B7OXKeJDyf4UIRCyCuOG5z9nch2PTTUDkt-fa4Q0roOqbKTSDZwZX3ym4-5UUJ-O0SMVtqRwjBgfNmof_oPUiB]--></g></svg>