<svg xmlns="http://www.w3.org/2000/svg" xmlns:xlink="http://www.w3.org/1999/xlink" contentStyleType="text/css" data-diagram-type="ACTIVITY" height="576px" preserveAspectRatio="none" style="width:752px;height:576px;background:#FFFFFF;" version="1.1" viewBox="0 0 752 576" width="752px" zoomAndPan="magnify"><defs/><g><rect fill="none" height="20.6982" style="stroke:none;stroke-width:1;" width="719.4849" x="15" y="12.3145"/><ellipse cx="226.6494" cy="48.0127" fill="#222222" rx="10" ry="10" style="stroke:#222222;stroke-width:1;"/><rect fill="#F1F1F1" height="47.5977" rx="12.5" ry="12.5" style="stroke:#181818;stroke-width:0.5;" width="212.6797" x="120.3096" y="78.0127"/><text fill="#000000" font-family="Arial" font-size="12" lengthAdjust="spacing" textLength="192.6797" x="130.3096" y="99.2686">M&#7903; c&#7845;u h&#236;nh c&#7843;nh b&#225;o kh&#7911;ng ho&#7843;ng</text><text fill="#000000" font-family="Arial" font-size="12" lengthAdjust="spacing" textLength="82.0371" x="130.3096" y="113.0674">c&#7911;a m&#7897;t project</text><rect fill="#F1F1F1" height="33.7988" rx="12.5" ry="12.5" style="stroke:#181818;stroke-width:0.5;" width="184.0918" x="134.6035" y="145.6104"/><text fill="#000000" font-family="Arial" font-size="12" lengthAdjust="spacing" textLength="164.0918" x="144.6035" y="166.8662">B&#7853;t c&#225;c nh&#243;m quy t&#7855;c c&#7847;n thi&#7871;t</text><rect fill="#F1F1F1" height="33.7988" rx="12.5" ry="12.5" style="stroke:#181818;stroke-width:0.5;" width="152.7676" x="150.2656" y="199.4092"/><text fill="#000000" font-family="Arial" font-size="12" lengthAdjust="spacing" textLength="132.7676" x="160.2656" y="220.665">Nh&#7853;p &#273;i&#7873;u ki&#7879;n c&#7843;nh b&#225;o</text><rect fill="#F1F1F1" height="33.7988" rx="12.5" ry="12.5" style="stroke:#181818;stroke-width:0.5;" width="184.8301" x="134.2344" y="253.208"/><text fill="#000000" font-family="Arial" font-size="12" lengthAdjust="spacing" textLength="164.8301" x="144.2344" y="274.4639">G&#7917;i y&#234;u c&#7847;u l&#432;u ho&#7863;c c&#7853;p nh&#7853;t</text><rect fill="#F1F1F1" height="33.7988" rx="12.5" ry="12.5" style="stroke:#181818;stroke-width:0.5;" width="198.166" x="21" y="472.4033"/><text fill="#000000" font-family="Arial" font-size="12" lengthAdjust="spacing" textLength="178.166" x="31" y="493.6592">Nh&#7853;n c&#7845;u h&#236;nh &#273;&#227; l&#432;u th&#224;nh c&#244;ng</text><ellipse cx="120.083" cy="537.2021" fill="none" rx="11" ry="11" style="stroke:#222222;stroke-width:1;"/><ellipse cx="120.083" cy="537.2021" fill="#222222" rx="6" ry="6" style="stroke:#222222;stroke-width:1;"/><rect fill="#F1F1F1" height="33.7988" rx="12.5" ry="12.5" style="stroke:#181818;stroke-width:0.5;" width="188.0996" x="239.166" y="418.6045"/><text fill="#000000" font-family="Arial" font-size="12" lengthAdjust="spacing" textLength="168.0996" x="249.166" y="439.8604">Tr&#7843; l&#7895;i validation ho&#7863;c l&#7895;i quy&#7873;n</text><rect fill="#F1F1F1" height="33.7988" rx="12.5" ry="12.5" style="stroke:#181818;stroke-width:0.5;" width="117.418" x="274.5068" y="472.4033"/><text fill="#000000" font-family="Arial" font-size="12" lengthAdjust="spacing" textLength="97.418" x="284.5068" y="493.6592">Nh&#7853;n l&#253; do t&#7915; ch&#7889;i</text><ellipse cx="333.2158" cy="537.2021" fill="none" rx="11" ry="11" style="stroke:#222222;stroke-width:1;"/><ellipse cx="333.2158" cy="537.2021" fill="#222222" rx="6" ry="6" style="stroke:#222222;stroke-width:1;"/><line style="stroke:#000000;stroke-width:1.5;" x1="15" x2="15" y1="12.3145" y2="564.2021"/><rect fill="#F1F1F1" height="47.5977" rx="12.5" ry="12.5" style="stroke:#181818;stroke-width:0.5;" width="200.8262" x="528.1582" y="307.0068"/><text fill="#000000" font-family="Arial" font-size="12" lengthAdjust="spacing" textLength="87.3633" x="538.1582" y="328.2627">Ki&#7875;m tra project,</text><text fill="#000000" font-family="Arial" font-size="12" lengthAdjust="spacing" textLength="180.8262" x="538.1582" y="342.0615">quy&#7873;n thao t&#225;c v&#224; d&#7919; li&#7879;u &#273;&#7847;u v&#224;o</text><polygon fill="#F1F1F1" points="590.7078,374.6045,666.4348,374.6045,678.4348,386.6045,666.4348,398.6045,590.7078,398.6045,578.7078,386.6045,590.7078,374.6045" style="stroke:#181818;stroke-width:0.5;"/><text fill="#000000" font-family="Arial" font-size="11" lengthAdjust="spacing" textLength="75.7271" x="590.7078" y="390.5979">D&#7919; li&#7879;u h&#7907;p l&#7879;?</text><text fill="#000000" font-family="Arial" font-size="11" lengthAdjust="spacing" textLength="20.1738" x="558.5339" y="384.2734">[C&#243;]</text><text fill="#000000" font-family="Arial" font-size="11" lengthAdjust="spacing" textLength="37.9199" x="678.4348" y="384.2734">[Kh&#244;ng]</text><rect fill="#F1F1F1" height="33.7988" rx="12.5" ry="12.5" style="stroke:#181818;stroke-width:0.5;" width="169.4785" x="437.2656" y="418.6045"/><text fill="#000000" font-family="Arial" font-size="12" lengthAdjust="spacing" textLength="149.4785" x="447.2656" y="439.8604">L&#432;u ho&#7863;c c&#7853;p nh&#7853;t c&#7845;u h&#236;nh</text><line style="stroke:#000000;stroke-width:1.5;" x1="431.2656" x2="431.2656" y1="12.3145" y2="564.2021"/><line style="stroke:#000000;stroke-width:1.5;" x1="732.9844" x2="732.9844" y1="12.3145" y2="564.2021"/><line style="stroke:#181818;stroke-width:1;" x1="226.6494" x2="226.6494" y1="58.0127" y2="78.0127"/><polygon fill="#181818" points="222.6494,68.0127,230.6494,68.0127,226.6494,78.0127" style="stroke:#181818;stroke-width:1;"/><line style="stroke:#181818;stroke-width:1;" x1="226.6494" x2="226.6494" y1="125.6104" y2="145.6104"/><polygon fill="#181818" points="222.6494,135.6104,230.6494,135.6104,226.6494,145.6104" style="stroke:#181818;stroke-width:1;"/><line style="stroke:#181818;stroke-width:1;" x1="226.6494" x2="226.6494" y1="179.4092" y2="199.4092"/><polygon fill="#181818" points="222.6494,189.4092,230.6494,189.4092,226.6494,199.4092" style="stroke:#181818;stroke-width:1;"/><line style="stroke:#181818;stroke-width:1;" x1="226.6494" x2="226.6494" y1="233.208" y2="253.208"/><polygon fill="#181818" points="222.6494,243.208,230.6494,243.208,226.6494,253.208" style="stroke:#181818;stroke-width:1;"/><line style="stroke:#181818;stroke-width:1;" x1="120.083" x2="120.083" y1="506.2021" y2="526.2021"/><polygon fill="#181818" points="116.083,516.2021,124.083,516.2021,120.083,526.2021" style="stroke:#181818;stroke-width:1;"/><line style="stroke:#181818;stroke-width:1;" x1="333.2158" x2="333.2158" y1="452.4033" y2="472.4033"/><polygon fill="#181818" points="329.2158,462.4033,337.2158,462.4033,333.2158,472.4033" style="stroke:#181818;stroke-width:1;"/><line style="stroke:#181818;stroke-width:1;" x1="333.2158" x2="333.2158" y1="506.2021" y2="526.2021"/><polygon fill="#181818" points="329.2158,516.2021,337.2158,516.2021,333.2158,526.2021" style="stroke:#181818;stroke-width:1;"/><line style="stroke:#181818;stroke-width:1;" x1="578.7078" x2="522.0049" y1="386.6045" y2="386.6045"/><line style="stroke:#181818;stroke-width:1;" x1="522.0049" x2="522.0049" y1="386.6045" y2="418.6045"/><polygon fill="#181818" points="518.0049,408.6045,526.0049,408.6045,522.0049,418.6045" style="stroke:#181818;stroke-width:1;"/><line style="stroke:#181818;stroke-width:1;" x1="628.5713" x2="628.5713" y1="354.6045" y2="374.6045"/><polygon fill="#181818" points="624.5713,364.6045,632.5713,364.6045,628.5713,374.6045" style="stroke:#181818;stroke-width:1;"/><line style="stroke:#181818;stroke-width:1;" x1="226.6494" x2="226.6494" y1="287.0068" y2="292.0068"/><line style="stroke:#181818;stroke-width:1;" x1="226.6494" x2="628.5713" y1="292.0068" y2="292.0068"/><line style="stroke:#181818;stroke-width:1;" x1="628.5713" x2="628.5713" y1="292.0068" y2="307.0068"/><polygon fill="#181818" points="624.5713,297.0068,632.5713,297.0068,628.5713,307.0068" style="stroke:#181818;stroke-width:1;"/><line style="stroke:#181818;stroke-width:1;" x1="522.0049" x2="522.0049" y1="452.4033" y2="457.4033"/><line style="stroke:#181818;stroke-width:1;" x1="522.0049" x2="120.083" y1="457.4033" y2="457.4033"/><line style="stroke:#181818;stroke-width:1;" x1="120.083" x2="120.083" y1="457.4033" y2="472.4033"/><polygon fill="#181818" points="116.083,462.4033,124.083,462.4033,120.083,472.4033" style="stroke:#181818;stroke-width:1;"/><line style="stroke:#181818;stroke-width:1;" x1="678.4348" x2="690.4348" y1="386.6045" y2="386.6045"/><line style="stroke:#181818;stroke-width:1;" x1="690.4348" x2="690.4348" y1="386.6045" y2="404.6045"/><line style="stroke:#181818;stroke-width:1;" x1="690.4348" x2="333.2158" y1="404.6045" y2="404.6045"/><line style="stroke:#181818;stroke-width:1;" x1="333.2158" x2="333.2158" y1="404.6045" y2="418.6045"/><polygon fill="#181818" points="329.2158,408.6045,337.2158,408.6045,333.2158,418.6045" style="stroke:#181818;stroke-width:1;"/><text fill="#000000" font-family="Arial" font-size="18" lengthAdjust="spacing" textLength="253.0107" x="96.6274" y="29.1982">Ng&#432;&#7901;i d&#249;ng chuy&#234;n m&#244;n n&#7897;i b&#7897;</text><text fill="#000000" font-family="Arial" font-size="18" lengthAdjust="spacing" textLength="129.0674" x="517.5913" y="29.1982">H&#7879; th&#7889;ng SMAP</text><!--SRC=[dPBDIYGn58NtUOgxLF09seNumoYeZQ0xSH6hgZkPJgNAgaHfw8suc7MlXbaCAeq8EgBWm607cKN4zyYRp4crOiz243T9wlwS-t5krJsfIrxnd6hJLndEIYR6vehLRnd1q-98wYvrkAgpgKoQTRXLvakXJPld6IrMaYl61ktkyrrmFoMb_W5jYR1zVwKfzxyrwU1-IDh7EM2ruPLXhStWJYa9umjBml_I8hv7kFRzUK4z4TmbH4GHWrsMu9DJZdv3PLLypH8pprfBONnZAF7d2MdXxtCwi7qoONoRHB5BJKR8CFuRIzi2jIKz3MLmnvPwkBxfwP6eMGtkHXAWRTDkIJtVsGRXJoE8VXrbeCS6Qn20Vd13O6vlBcuDM6iTgYSvcOg_Giun865YHE45cOXwwCye3UwML8ImO6g68Gm89ZiqipALnOHHIGhlXLc8P9fcTfVz_Tui8sfjl0CuxUiy2Z-y6sWsJkd_DlCqzAE96KRuixWgz7MZS6sAacNuFq2rBc9q0hPJmTb8_LtI8LSovKOM-XLr4dznvfDyoZzI2aU3kqOvrY3VU7GgE_y0]--></g></svg>