<svg xmlns="http://www.w3.org/2000/svg" xmlns:xlink="http://www.w3.org/1999/xlink" contentStyleType="text/css" data-diagram-type="ACTIVITY" height="626px" preserveAspectRatio="none" style="width:1551px;height:626px;background:#FFFFFF;" version="1.1" viewBox="0 0 1551 626" width="1551px" zoomAndPan="magnify"><defs/><g><rect fill="none" height="20.6982" style="stroke:none;stroke-width:1;" width="1518.1152" x="15" y="12.3145"/><ellipse cx="127.3398" cy="48.0127" fill="#222222" rx="10" ry="10" style="stroke:#222222;stroke-width:1;"/><rect fill="#F1F1F1" height="47.5977" rx="12.5" ry="12.5" style="stroke:#181818;stroke-width:0.5;" width="212.6797" x="21" y="78.0127"/><text fill="#000000" font-family="Arial" font-size="12" lengthAdjust="spacing" textLength="192.6797" x="31" y="99.2686">M&#7903; c&#7845;u h&#236;nh c&#7843;nh b&#225;o kh&#7911;ng ho&#7843;ng</text><text fill="#000000" font-family="Arial" font-size="12" lengthAdjust="spacing" textLength="82.0371" x="31" y="113.0674">c&#7911;a m&#7897;t project</text><polygon fill="#F1F1F1" points="68.0107,145.6104,186.6689,145.6104,198.6689,157.6104,186.6689,169.6104,68.0107,169.6104,56.0107,157.6104,68.0107,145.6104" style="stroke:#181818;stroke-width:0.5;"/><text fill="#000000" font-family="Arial" font-size="11" lengthAdjust="spacing" textLength="118.6582" x="68.0107" y="161.6038">Thao t&#225;c c&#7847;n th&#7921;c hi&#7879;n?</text><text fill="#000000" font-family="Arial" font-size="11" lengthAdjust="spacing" textLength="28.73" x="27.2808" y="155.2793">[Xem]</text><text fill="#000000" font-family="Arial" font-size="11" lengthAdjust="spacing" textLength="122.9497" x="198.6689" y="155.2793">[L&#432;u/C&#7853;p nh&#7853;t ho&#7863;c X&#243;a]</text><rect fill="#F1F1F1" height="33.7988" rx="12.5" ry="12.5" style="stroke:#181818;stroke-width:0.5;" width="139.4199" x="132.6489" y="233.6104"/><text fill="#000000" font-family="Arial" font-size="12" lengthAdjust="spacing" textLength="119.4199" x="142.6489" y="254.8662">X&#225;c nh&#7853;n thao t&#225;c x&#243;a</text><rect fill="#F1F1F1" height="47.5977" rx="12.5" ry="12.5" style="stroke:#181818;stroke-width:0.5;" width="184.0918" x="331.6187" y="233.6104"/><text fill="#000000" font-family="Arial" font-size="12" lengthAdjust="spacing" textLength="164.0918" x="341.6187" y="254.8662">B&#7853;t c&#225;c nh&#243;m quy t&#7855;c c&#7847;n thi&#7871;t</text><text fill="#000000" font-family="Arial" font-size="12" lengthAdjust="spacing" textLength="146.7832" x="341.6187" y="268.665">v&#224; nh&#7853;p &#273;i&#7873;u ki&#7879;n c&#7843;nh b&#225;o</text><rect fill="#F1F1F1" height="33.7988" rx="12.5" ry="12.5" style="stroke:#181818;stroke-width:0.5;" width="155.4746" x="345.9272" y="316.208"/><text fill="#000000" font-family="Arial" font-size="12" lengthAdjust="spacing" textLength="135.4746" x="355.9272" y="337.4639">G&#7917;i y&#234;u c&#7847;u l&#432;u c&#7845;u h&#236;nh</text><line style="stroke:#000000;stroke-width:1.5;" x1="15" x2="15" y1="12.3145" y2="614.2021"/><rect fill="#F1F1F1" height="47.5977" rx="12.5" ry="12.5" style="stroke:#181818;stroke-width:0.5;" width="198.834" x="525.7104" y="189.6104"/><text fill="#000000" font-family="Arial" font-size="12" lengthAdjust="spacing" textLength="113.4141" x="535.7104" y="210.8662">N&#7841;p c&#7845;u h&#236;nh hi&#7879;n c&#243;</text><text fill="#000000" font-family="Arial" font-size="12" lengthAdjust="spacing" textLength="178.834" x="535.7104" y="224.665">ho&#7863;c th&#244;ng b&#225;o ch&#432;a c&#243; c&#7845;u h&#236;nh</text><ellipse cx="625.1274" cy="283.208" fill="none" rx="11" ry="11" style="stroke:#222222;stroke-width:1;"/><ellipse cx="625.1274" cy="283.208" fill="#222222" rx="6" ry="6" style="stroke:#222222;stroke-width:1;"/><polygon fill="#F1F1F1" points="1097.4717,189.6104,1178.1992,189.6104,1190.1992,201.6104,1178.1992,213.6104,1097.4717,213.6104,1085.4717,201.6104,1097.4717,189.6104" style="stroke:#181818;stroke-width:0.5;"/><text fill="#000000" font-family="Arial" font-size="11" lengthAdjust="spacing" textLength="80.7275" x="1097.4717" y="205.6038">L&#224; y&#234;u c&#7847;u x&#243;a?</text><text fill="#000000" font-family="Arial" font-size="11" lengthAdjust="spacing" textLength="20.1738" x="1065.2979" y="199.2793">[C&#243;]</text><text fill="#000000" font-family="Arial" font-size="11" lengthAdjust="spacing" textLength="37.9199" x="1190.1992" y="199.2793">[Kh&#244;ng]</text><rect fill="#F1F1F1" height="33.7988" rx="12.5" ry="12.5" style="stroke:#181818;stroke-width:0.5;" width="202.0977" x="840.4517" y="302.4092"/><text fill="#000000" font-family="Arial" font-size="12" lengthAdjust="spacing" textLength="182.0977" x="850.4517" y="323.665">Ki&#7875;m tra project v&#224; quy&#7873;n thao t&#225;c</text><polygon fill="#F1F1F1" points="901.1985,370.0068,981.8025,370.0068,993.8025,382.0068,981.8025,394.0068,901.1985,394.0068,889.1985,382.0068,901.1985,370.0068" style="stroke:#181818;stroke-width:0.5;"/><text fill="#000000" font-family="Arial" font-size="11" lengthAdjust="spacing" textLength="80.604" x="901.1985" y="386.0002">Y&#234;u c&#7847;u h&#7907;p l&#7879;?</text><text fill="#000000" font-family="Arial" font-size="11" lengthAdjust="spacing" textLength="20.1738" x="869.0247" y="379.6758">[C&#243;]</text><text fill="#000000" font-family="Arial" font-size="11" lengthAdjust="spacing" textLength="37.9199" x="993.8025" y="379.6758">[Kh&#244;ng]</text><rect fill="#F1F1F1" height="33.7988" rx="12.5" ry="12.5" style="stroke:#181818;stroke-width:0.5;" width="216.166" x="734.5444" y="404.0068"/><text fill="#000000" font-family="Arial" font-size="12" lengthAdjust="spacing" textLength="196.166" x="744.5444" y="425.2627">X&#243;a c&#7845;u h&#236;nh c&#7843;nh b&#225;o kh&#7911;ng ho&#7843;ng</text><ellipse cx="842.6274" cy="483.8057" fill="none" rx="11" ry="11" style="stroke:#222222;stroke-width:1;"/><ellipse cx="842.6274" cy="483.8057" fill="#222222" rx="6" ry="6" style="stroke:#222222;stroke-width:1;"/><rect fill="#F1F1F1" height="47.5977" rx="12.5" ry="12.5" style="stroke:#181818;stroke-width:0.5;" width="139.3262" x="970.7104" y="404.0068"/><text fill="#000000" font-family="Arial" font-size="12" lengthAdjust="spacing" textLength="109.4238" x="980.7104" y="425.2627">T&#7915; ch&#7889;i thao t&#225;c x&#243;a</text><text fill="#000000" font-family="Arial" font-size="12" lengthAdjust="spacing" textLength="119.3262" x="980.7104" y="439.0615">v&#224; tr&#7843; l&#253; do t&#432;&#417;ng &#7913;ng</text><ellipse cx="1040.3735" cy="497.6045" fill="none" rx="11" ry="11" style="stroke:#222222;stroke-width:1;"/><ellipse cx="1040.3735" cy="497.6045" fill="#222222" rx="6" ry="6" style="stroke:#222222;stroke-width:1;"/><rect fill="#F1F1F1" height="47.5977" rx="12.5" ry="12.5" style="stroke:#181818;stroke-width:0.5;" width="189.4238" x="1239.4585" y="383.8057"/><text fill="#000000" font-family="Arial" font-size="12" lengthAdjust="spacing" textLength="169.4238" x="1249.4585" y="405.0615">Ki&#7875;m tra project, quy&#7873;n thao t&#225;c</text><text fill="#000000" font-family="Arial" font-size="12" lengthAdjust="spacing" textLength="137.9531" x="1249.4585" y="418.8604">v&#224; t&#237;nh h&#7907;p l&#7879; c&#7911;a quy t&#7855;c</text><polygon fill="#F1F1F1" points="1296.3069,466.4033,1372.0339,466.4033,1384.0339,478.4033,1372.0339,490.4033,1296.3069,490.4033,1284.3069,478.4033,1296.3069,466.4033" style="stroke:#181818;stroke-width:0.5;"/><text fill="#000000" font-family="Arial" font-size="11" lengthAdjust="spacing" textLength="75.7271" x="1296.3069" y="482.3967">D&#7919; li&#7879;u h&#7907;p l&#7879;?</text><text fill="#000000" font-family="Arial" font-size="11" lengthAdjust="spacing" textLength="20.1738" x="1264.1331" y="476.0723">[C&#243;]</text><text fill="#000000" font-family="Arial" font-size="11" lengthAdjust="spacing" textLength="37.9199" x="1384.0339" y="476.0723">[Kh&#244;ng]</text><rect fill="#F1F1F1" height="33.7988" rx="12.5" ry="12.5" style="stroke:#181818;stroke-width:0.5;" width="169.4785" x="1150.0366" y="500.4033"/><text fill="#000000" font-family="Arial" font-size="12" lengthAdjust="spacing" textLength="149.4785" x="1160.0366" y="521.6592">L&#432;u ho&#7863;c c&#7853;p nh&#7853;t c&#7845;u h&#236;nh</text><ellipse cx="1234.7759" cy="565.2021" fill="none" rx="11" ry="11" style="stroke:#222222;stroke-width:1;"/><ellipse cx="1234.7759" cy="565.2021" fill="#222222" rx="6" ry="6" style="stroke:#222222;stroke-width:1;"/><rect fill="#F1F1F1" height="33.7988" rx="12.5" ry="12.5" style="stroke:#181818;stroke-width:0.5;" width="188.0996" x="1339.5151" y="500.4033"/><text fill="#000000" font-family="Arial" font-size="12" lengthAdjust="spacing" textLength="168.0996" x="1349.5151" y="521.6592">Tr&#7843; l&#7895;i validation ho&#7863;c l&#7895;i quy&#7873;n</text><ellipse cx="1433.5649" cy="565.2021" fill="none" rx="11" ry="11" style="stroke:#222222;stroke-width:1;"/><ellipse cx="1433.5649" cy="565.2021" fill="#222222" rx="6" ry="6" style="stroke:#222222;stroke-width:1;"/><line style="stroke:#000000;stroke-width:1.5;" x1="519.7104" x2="519.7104" y1="12.3145" y2="614.2021"/><line style="stroke:#000000;stroke-width:1.5;" x1="1531.6147" x2="1531.6147" y1="12.3145" y2="614.2021"/><line style="stroke:#181818;stroke-width:1;" x1="127.3398" x2="127.3398" y1="58.0127" y2="78.0127"/><polygon fill="#181818" points="123.3398,68.0127,131.3398,68.0127,127.3398,78.0127" style="stroke:#181818;stroke-width:1;"/><line style="stroke:#181818;stroke-width:1;" x1="423.6646" x2="423.6646" y1="281.208" y2="316.208"/><polygon fill="#181818" points="419.6646,306.208,427.6646,306.208,423.6646,316.208" style="stroke:#181818;stroke-width:1;"/><line style="stroke:#181818;stroke-width:1;" x1="127.3398" x2="127.3398" y1="125.6104" y2="145.6104"/><polygon fill="#181818" points="123.3398,135.6104,131.3398,135.6104,127.3398,145.6104" style="stroke:#181818;stroke-width:1;"/><line style="stroke:#181818;stroke-width:1;" x1="625.1274" x2="625.1274" y1="237.208" y2="272.208"/><polygon fill="#181818" points="621.1274,262.208,629.1274,262.208,625.1274,272.208" style="stroke:#181818;stroke-width:1;"/><line style="stroke:#181818;stroke-width:1;" x1="842.6274" x2="842.6274" y1="437.8057" y2="472.8057"/><polygon fill="#181818" points="838.6274,462.8057,846.6274,462.8057,842.6274,472.8057" style="stroke:#181818;stroke-width:1;"/><line style="stroke:#181818;stroke-width:1;" x1="1040.3735" x2="1040.3735" y1="451.6045" y2="486.6045"/><polygon fill="#181818" points="1036.3735,476.6045,1044.3735,476.6045,1040.3735,486.6045" style="stroke:#181818;stroke-width:1;"/><line style="stroke:#181818;stroke-width:1;" x1="889.1985" x2="842.6274" y1="382.0068" y2="382.0068"/><line style="stroke:#181818;stroke-width:1;" x1="842.6274" x2="842.6274" y1="382.0068" y2="404.0068"/><polygon fill="#181818" points="838.6274,394.0068,846.6274,394.0068,842.6274,404.0068" style="stroke:#181818;stroke-width:1;"/><line style="stroke:#181818;stroke-width:1;" x1="993.8025" x2="1040.3735" y1="382.0068" y2="382.0068"/><line style="stroke:#181818;stroke-width:1;" x1="1040.3735" x2="1040.3735" y1="382.0068" y2="404.0068"/><polygon fill="#181818" points="1036.3735,394.0068,1044.3735,394.0068,1040.3735,404.0068" style="stroke:#181818;stroke-width:1;"/><line style="stroke:#181818;stroke-width:1;" x1="941.5005" x2="941.5005" y1="336.208" y2="370.0068"/><polygon fill="#181818" points="937.5005,360.0068,945.5005,360.0068,941.5005,370.0068" style="stroke:#181818;stroke-width:1;"/><line style="stroke:#181818;stroke-width:1;" x1="1234.7759" x2="1234.7759" y1="534.2021" y2="554.2021"/><polygon fill="#181818" points="1230.7759,544.2021,1238.7759,544.2021,1234.7759,554.2021" style="stroke:#181818;stroke-width:1;"/><line style="stroke:#181818;stroke-width:1;" x1="1433.5649" x2="1433.5649" y1="534.2021" y2="554.2021"/><polygon fill="#181818" points="1429.5649,544.2021,1437.5649,544.2021,1433.5649,554.2021" style="stroke:#181818;stroke-width:1;"/><line style="stroke:#181818;stroke-width:1;" x1="1284.3069" x2="1234.7759" y1="478.4033" y2="478.4033"/><line style="stroke:#181818;stroke-width:1;" x1="1234.7759" x2="1234.7759" y1="478.4033" y2="500.4033"/><polygon fill="#181818" points="1230.7759,490.4033,1238.7759,490.4033,1234.7759,500.4033" style="stroke:#181818;stroke-width:1;"/><line style="stroke:#181818;stroke-width:1;" x1="1384.0339" x2="1433.5649" y1="478.4033" y2="478.4033"/><line style="stroke:#181818;stroke-width:1;" x1="1433.5649" x2="1433.5649" y1="478.4033" y2="500.4033"/><polygon fill="#181818" points="1429.5649,490.4033,1437.5649,490.4033,1433.5649,500.4033" style="stroke:#181818;stroke-width:1;"/><line style="stroke:#181818;stroke-width:1;" x1="1334.1704" x2="1334.1704" y1="431.4033" y2="466.4033"/><polygon fill="#181818" points="1330.1704,456.4033,1338.1704,456.4033,1334.1704,466.4033" style="stroke:#181818;stroke-width:1;"/><line style="stroke:#181818;stroke-width:1;" x1="202.3589" x2="202.3589" y1="267.4092" y2="284.9092"/><line style="stroke:#181818;stroke-width:1;" x1="202.3589" x2="941.5005" y1="284.9092" y2="284.9092"/><line style="stroke:#181818;stroke-width:1;" x1="941.5005" x2="941.5005" y1="284.9092" y2="302.4092"/><polygon fill="#181818" points="937.5005,292.4092,945.5005,292.4092,941.5005,302.4092" style="stroke:#181818;stroke-width:1;"/><line style="stroke:#181818;stroke-width:1;" x1="423.6646" x2="423.6646" y1="350.0068" y2="366.3057"/><line style="stroke:#181818;stroke-width:1;" x1="423.6646" x2="1334.1704" y1="366.3057" y2="366.3057"/><line style="stroke:#181818;stroke-width:1;" x1="1334.1704" x2="1334.1704" y1="366.3057" y2="383.8057"/><polygon fill="#181818" points="1330.1704,373.8057,1338.1704,373.8057,1334.1704,383.8057" style="stroke:#181818;stroke-width:1;"/><line style="stroke:#181818;stroke-width:1;" x1="1085.4717" x2="202.3589" y1="201.6104" y2="201.6104"/><line style="stroke:#181818;stroke-width:1;" x1="202.3589" x2="202.3589" y1="201.6104" y2="233.6104"/><polygon fill="#181818" points="198.3589,223.6104,206.3589,223.6104,202.3589,233.6104" style="stroke:#181818;stroke-width:1;"/><line style="stroke:#181818;stroke-width:1;" x1="1190.1992" x2="1202.1992" y1="201.6104" y2="201.6104"/><line style="stroke:#181818;stroke-width:1;" x1="1202.1992" x2="1202.1992" y1="201.6104" y2="219.6104"/><line style="stroke:#181818;stroke-width:1;" x1="1202.1992" x2="423.6646" y1="219.6104" y2="219.6104"/><line style="stroke:#181818;stroke-width:1;" x1="423.6646" x2="423.6646" y1="219.6104" y2="233.6104"/><polygon fill="#181818" points="419.6646,223.6104,427.6646,223.6104,423.6646,233.6104" style="stroke:#181818;stroke-width:1;"/><line style="stroke:#181818;stroke-width:1;" x1="56.0107" x2="44.0107" y1="157.6104" y2="157.6104"/><line style="stroke:#181818;stroke-width:1;" x1="44.0107" x2="44.0107" y1="157.6104" y2="175.6104"/><line style="stroke:#181818;stroke-width:1;" x1="44.0107" x2="625.1274" y1="175.6104" y2="175.6104"/><line style="stroke:#181818;stroke-width:1;" x1="625.1274" x2="625.1274" y1="175.6104" y2="189.6104"/><polygon fill="#181818" points="621.1274,179.6104,629.1274,179.6104,625.1274,189.6104" style="stroke:#181818;stroke-width:1;"/><line style="stroke:#181818;stroke-width:1;" x1="198.6689" x2="1137.8354" y1="157.6104" y2="157.6104"/><line style="stroke:#181818;stroke-width:1;" x1="1137.8354" x2="1137.8354" y1="157.6104" y2="189.6104"/><polygon fill="#181818" points="1133.8354,179.6104,1141.8354,179.6104,1137.8354,189.6104" style="stroke:#181818;stroke-width:1;"/><text fill="#000000" font-family="Arial" font-size="18" lengthAdjust="spacing" textLength="253.0107" x="140.8499" y="29.1982">Ng&#432;&#7901;i d&#249;ng chuy&#234;n m&#244;n n&#7897;i b&#7897;</text><text fill="#000000" font-family="Arial" font-size="18" lengthAdjust="spacing" textLength="129.0674" x="961.1289" y="29.1982">H&#7879; th&#7889;ng SMAP</text><!--SRC=[bLFFRzCm5BxxhtZ7JKBYtXxG60AaRHKIEnGX3fwJDgQ94n9dKAcNYGFddH071DKqJVoeLXGaH2t4mIZ_X_yJdfsc2LkHkekTsEzz_jxtlPUDk4XeIYF8v3ZqSKqvataKagov2QWNl-HY20CQPdxhnlC7D0_b_LZ87erys4av3GcPz8RbtAZt73pz4zDOa8_rPm6H_Yv06FMEmn6k4v99cahIEJ3g0p2pECyXq5z5OB_FS3lIqnX6WL4N21B4zd186FvIY31VGfB6ptqckuJm0MmT1ZG6gQVCvby8a9ZvZK70ZNeZxcpZlozWwsdVZvvj4u39GpntGQS8__XWvz44JpizivWc_x2f083f0kyjZHyCqx2MOSMG1UMSskjsLXTZCnadn4V9yDNzSfxVtZMBMG8Ym4tMI7rTKCV7bh2lFm9AbRiASdY5TmtnNLsuGAI-gS0skDEtahX7hIQrHXQxMw6j5G8Jzx3mrn78bDPAmp4IV96FZJffOLKmbl-JXZl2dIKG8lIw2XojWcxgUdUPv1Ir7qjLzvmD3UQXKLzG3Qo4Nobr6M7vonGn8TI_mCE0SbvEyI6ZFgrxHdXyGDO_TpCJxZhFMMM5BYAh8aYpk6owbPl5Rqbgbiwm1FwSeWadEOoMJTXeL97jF31gnjjD4sAdNUt46vbywxh3ArPIp-n4hBo5QXnNnJIjSC-eImWjwmrwmKv7FH2iFIJNwjYW1ofxZNhBuPY6tAEInw96hywN1VxVRxUxzIy0]--></g></svg>