<svg xmlns="http://www.w3.org/2000/svg" xmlns:xlink="http://www.w3.org/1999/xlink" contentStyleType="text/css" data-diagram-type="DESCRIPTION" height="1295px" preserveAspectRatio="none" style="width:948px;height:1295px;background:#FFFFFF;" version="1.1" viewBox="0 0 948 1295" width="948px" zoomAndPan="magnify"><defs/><g><!--cluster Analytics Service--><g class="cluster" data-entity="Analytics Service" data-source-line="11" data-uid="ent0002" id="cluster_Analytics Service"><rect fill="none" height="834" rx="5" ry="5" style="stroke:#181818;stroke-width:1;" width="789" x="153.37" y="61.95"/><text fill="#000000" font-family="Arial" font-size="14" font-weight="bold" lengthAdjust="spacing" textLength="115.958" x="489.891" y="77.0818">Analytics Service</text></g><!--cluster Presentation Layer (Delivery)--><g class="cluster" data-entity="Presentation Layer .Delivery." data-source-line="12" data-uid="ent0003" id="cluster_Presentation Layer .Delivery."><rect fill="none" height="226" rx="5" ry="5" style="stroke:#181818;stroke-width:1;" width="209" x="177.37" y="250.95"/><text fill="#000000" font-family="Arial" font-size="14" font-weight="bold" lengthAdjust="spacing" textLength="193.7441" x="184.9979" y="266.0818">Presentation Layer (Delivery)</text></g><!--cluster Application Layer (UseCase)--><g class="cluster" data-entity="Application Layer .UseCase." data-source-line="17" data-uid="ent0006" id="cluster_Application Layer .UseCase."><rect fill="none" height="517" rx="5" ry="5" style="stroke:#181818;stroke-width:1;" width="205" x="462.37" y="104.95"/><text fill="#000000" font-family="Arial" font-size="14" font-weight="bold" lengthAdjust="spacing" textLength="189.834" x="469.953" y="120.0818">Application Layer (UseCase)</text></g><!--cluster Domain Layer (Pipeline)--><g class="cluster" data-entity="Domain Layer .Pipeline." data-source-line="25" data-uid="ent0012" id="cluster_Domain Layer .Pipeline."><rect fill="none" height="129" rx="5" ry="5" style="stroke:#181818;stroke-width:1;" width="175" x="743.37" y="306.95"/><text fill="#000000" font-family="Arial" font-size="14" font-weight="bold" lengthAdjust="spacing" textLength="159.4824" x="751.1288" y="322.0818">Domain Layer (Pipeline)</text></g><!--cluster Infrastructure Layer--><g class="cluster" data-entity="Infrastructure Layer" data-source-line="29" data-uid="ent0014" id="cluster_Infrastructure Layer"><rect fill="none" height="226" rx="5" ry="5" style="stroke:#181818;stroke-width:1;" width="175.47" x="476.63" y="645.95"/><text fill="#000000" font-family="Arial" font-size="14" font-weight="bold" lengthAdjust="spacing" textLength="132.2686" x="498.2307" y="661.0818">Infrastructure Layer</text></g><!--entity an_api--><g class="entity" data-entity="an_api" data-source-line="13" data-uid="ent0004" id="entity_an_api"><rect fill="#F1F1F1" height="78.2959" rx="5" ry="5" style="stroke:#181818;stroke-width:0.5;" width="124.8408" x="218.94" y="285.8"/><rect fill="#F1F1F1" height="10" style="stroke:#181818;stroke-width:0.5;" width="15" x="323.7808" y="290.8"/><rect fill="#F1F1F1" height="2" style="stroke:#181818;stroke-width:0.5;" width="4" x="321.7808" y="292.8"/><rect fill="#F1F1F1" height="2" style="stroke:#181818;stroke-width:0.5;" width="4" x="321.7808" y="296.8"/><text fill="#000000" font-family="Arial" font-size="14" lengthAdjust="spacing" textLength="84.8408" x="233.94" y="318.9318">&#171;component&#187;</text><text fill="#000000" font-family="Arial" font-size="14" lengthAdjust="spacing" textLength="78.5859" x="233.94" y="335.0305">Analysis API</text><text fill="#000000" font-family="Arial" font-size="14" lengthAdjust="spacing" textLength="59.1172" x="233.94" y="351.1291">(FastAPI)</text></g><!--entity an_consumer--><g class="entity" data-entity="an_consumer" data-source-line="14" data-uid="ent0005" id="entity_an_consumer"><rect fill="#F1F1F1" height="62.1973" rx="5" ry="5" style="stroke:#181818;stroke-width:0.5;" width="145.8135" x="208.46" y="398.85"/><rect fill="#F1F1F1" height="10" style="stroke:#181818;stroke-width:0.5;" width="15" x="334.2735" y="403.85"/><rect fill="#F1F1F1" height="2" style="stroke:#181818;stroke-width:0.5;" width="4" x="332.2735" y="405.85"/><rect fill="#F1F1F1" height="2" style="stroke:#181818;stroke-width:0.5;" width="4" x="332.2735" y="409.85"/><text fill="#000000" font-family="Arial" font-size="14" lengthAdjust="spacing" textLength="84.8408" x="223.46" y="431.9818">&#171;component&#187;</text><text fill="#000000" font-family="Arial" font-size="14" lengthAdjust="spacing" textLength="105.8135" x="223.46" y="448.0805">ConsumerServer</text></g><!--entity an_query--><g class="entity" data-entity="an_query" data-source-line="18" data-uid="ent0007" id="entity_an_query"><rect fill="#F1F1F1" height="78.2959" rx="5" ry="5" style="stroke:#181818;stroke-width:0.5;" width="138.0342" x="495.35" y="139.8"/><rect fill="#F1F1F1" height="10" style="stroke:#181818;stroke-width:0.5;" width="15" x="613.3842" y="144.8"/><rect fill="#F1F1F1" height="2" style="stroke:#181818;stroke-width:0.5;" width="4" x="611.3842" y="146.8"/><rect fill="#F1F1F1" height="2" style="stroke:#181818;stroke-width:0.5;" width="4" x="611.3842" y="150.8"/><text fill="#000000" font-family="Arial" font-size="14" lengthAdjust="spacing" textLength="84.8408" x="510.35" y="172.9318">&#171;component&#187;</text><text fill="#000000" font-family="Arial" font-size="14" lengthAdjust="spacing" textLength="98.0342" x="510.35" y="189.0305">Analytics Query</text><text fill="#000000" font-family="Arial" font-size="14" lengthAdjust="spacing" textLength="46.6826" x="510.35" y="205.1291">Service</text></g><!--entity an_adapter--><g class="entity" data-entity="an_adapter" data-source-line="19" data-uid="ent0008" id="entity_an_adapter"><rect fill="#F1F1F1" height="62.1973" rx="5" ry="5" style="stroke:#181818;stroke-width:0.5;" width="149.7441" x="489.49" y="252.85"/><rect fill="#F1F1F1" height="10" style="stroke:#181818;stroke-width:0.5;" width="15" x="619.2341" y="257.85"/><rect fill="#F1F1F1" height="2" style="stroke:#181818;stroke-width:0.5;" width="4" x="617.2341" y="259.85"/><rect fill="#F1F1F1" height="2" style="stroke:#181818;stroke-width:0.5;" width="4" x="617.2341" y="263.85"/><text fill="#000000" font-family="Arial" font-size="14" lengthAdjust="spacing" textLength="84.8408" x="504.49" y="285.9818">&#171;component&#187;</text><text fill="#000000" font-family="Arial" font-size="14" lengthAdjust="spacing" textLength="109.7441" x="504.49" y="302.0805">Ingestion Adapter</text></g><!--entity an_pipeline--><g class="entity" data-entity="an_pipeline" data-source-line="20" data-uid="ent0009" id="entity_an_pipeline"><rect fill="#F1F1F1" height="62.1973" rx="5" ry="5" style="stroke:#181818;stroke-width:0.5;" width="147.3926" x="490.67" y="349.85"/><rect fill="#F1F1F1" height="10" style="stroke:#181818;stroke-width:0.5;" width="15" x="618.0626" y="354.85"/><rect fill="#F1F1F1" height="2" style="stroke:#181818;stroke-width:0.5;" width="4" x="616.0626" y="356.85"/><rect fill="#F1F1F1" height="2" style="stroke:#181818;stroke-width:0.5;" width="4" x="616.0626" y="360.85"/><text fill="#000000" font-family="Arial" font-size="14" lengthAdjust="spacing" textLength="73.1514" x="505.67" y="382.9818">&#171;UseCase&#187;</text><text fill="#000000" font-family="Arial" font-size="14" lengthAdjust="spacing" textLength="107.3926" x="505.67" y="399.0805">PipelineUseCase</text></g><!--entity an_post--><g class="entity" data-entity="an_post" data-source-line="21" data-uid="ent0010" id="entity_an_post"><rect fill="#F1F1F1" height="62.1973" rx="5" ry="5" style="stroke:#181818;stroke-width:0.5;" width="170.7305" x="479" y="446.85"/><rect fill="#F1F1F1" height="10" style="stroke:#181818;stroke-width:0.5;" width="15" x="629.7305" y="451.85"/><rect fill="#F1F1F1" height="2" style="stroke:#181818;stroke-width:0.5;" width="4" x="627.7305" y="453.85"/><rect fill="#F1F1F1" height="2" style="stroke:#181818;stroke-width:0.5;" width="4" x="627.7305" y="457.85"/><text fill="#000000" font-family="Arial" font-size="14" lengthAdjust="spacing" textLength="73.1514" x="494" y="479.9818">&#171;UseCase&#187;</text><text fill="#000000" font-family="Arial" font-size="14" lengthAdjust="spacing" textLength="130.7305" x="494" y="496.0805">PostInsight UseCase</text></g><!--entity an_pub--><g class="entity" data-entity="an_pub" data-source-line="22" data-uid="ent0011" id="entity_an_pub"><rect fill="#F1F1F1" height="62.1973" rx="5" ry="5" style="stroke:#181818;stroke-width:0.5;" width="155.165" x="486.78" y="543.85"/><rect fill="#F1F1F1" height="10" style="stroke:#181818;stroke-width:0.5;" width="15" x="621.945" y="548.85"/><rect fill="#F1F1F1" height="2" style="stroke:#181818;stroke-width:0.5;" width="4" x="619.945" y="550.85"/><rect fill="#F1F1F1" height="2" style="stroke:#181818;stroke-width:0.5;" width="4" x="619.945" y="554.85"/><text fill="#000000" font-family="Arial" font-size="14" lengthAdjust="spacing" textLength="84.8408" x="501.78" y="576.9818">&#171;component&#187;</text><text fill="#000000" font-family="Arial" font-size="14" lengthAdjust="spacing" textLength="115.165" x="501.78" y="593.0805">Contract Publisher</text></g><!--entity an_stages--><g class="entity" data-entity="an_stages" data-source-line="26" data-uid="ent0013" id="entity_an_stages"><rect fill="#F1F1F1" height="78.2959" rx="5" ry="5" style="stroke:#181818;stroke-width:0.5;" width="141.9443" x="759.39" y="341.8"/><rect fill="#F1F1F1" height="10" style="stroke:#181818;stroke-width:0.5;" width="15" x="881.3343" y="346.8"/><rect fill="#F1F1F1" height="2" style="stroke:#181818;stroke-width:0.5;" width="4" x="879.3343" y="348.8"/><rect fill="#F1F1F1" height="2" style="stroke:#181818;stroke-width:0.5;" width="4" x="879.3343" y="352.8"/><text fill="#000000" font-family="Arial" font-size="14" lengthAdjust="spacing" textLength="101.9443" x="774.39" y="374.9318">&#171;DomainModel&#187;</text><text fill="#000000" font-family="Arial" font-size="14" lengthAdjust="spacing" textLength="80.9375" x="774.39" y="391.0305">NLP Pipeline</text><text fill="#000000" font-family="Arial" font-size="14" lengthAdjust="spacing" textLength="43.5859" x="774.39" y="407.1291">Stages</text></g><!--entity an_domain--><g class="entity" data-entity="an_domain" data-source-line="30" data-uid="ent0015" id="entity_an_domain"><rect fill="#F1F1F1" height="62.1973" rx="5" ry="5" style="stroke:#181818;stroke-width:0.5;" width="143.4756" x="492.63" y="793.85"/><rect fill="#F1F1F1" height="10" style="stroke:#181818;stroke-width:0.5;" width="15" x="616.1056" y="798.85"/><rect fill="#F1F1F1" height="2" style="stroke:#181818;stroke-width:0.5;" width="4" x="614.1056" y="800.85"/><rect fill="#F1F1F1" height="2" style="stroke:#181818;stroke-width:0.5;" width="4" x="614.1056" y="804.85"/><text fill="#000000" font-family="Arial" font-size="14" lengthAdjust="spacing" textLength="84.8408" x="507.63" y="826.9818">&#171;component&#187;</text><text fill="#000000" font-family="Arial" font-size="14" lengthAdjust="spacing" textLength="103.4756" x="507.63" y="843.0805">Domain Registry</text></g><!--entity an_project_client--><g class="entity" data-entity="an_project_client" data-source-line="31" data-uid="ent0016" id="entity_an_project_client"><rect fill="#F1F1F1" height="78.2959" rx="5" ry="5" style="stroke:#181818;stroke-width:0.5;" width="134.1445" x="497.29" y="680.8"/><rect fill="#F1F1F1" height="10" style="stroke:#181818;stroke-width:0.5;" width="15" x="611.4345" y="685.8"/><rect fill="#F1F1F1" height="2" style="stroke:#181818;stroke-width:0.5;" width="4" x="609.4345" y="687.8"/><rect fill="#F1F1F1" height="2" style="stroke:#181818;stroke-width:0.5;" width="4" x="609.4345" y="691.8"/><text fill="#000000" font-family="Arial" font-size="14" lengthAdjust="spacing" textLength="84.8408" x="512.29" y="713.9318">&#171;component&#187;</text><text fill="#000000" font-family="Arial" font-size="14" lengthAdjust="spacing" textLength="94.1445" x="512.29" y="730.0305">Project Service</text><text fill="#000000" font-family="Arial" font-size="14" lengthAdjust="spacing" textLength="35.793" x="512.29" y="746.1291">Client</text></g><!--entity an_fe--><g class="entity" data-entity="an_fe" data-source-line="35" data-uid="ent0017" id="entity_an_fe"><rect fill="#F1F1F1" height="62.1973" rx="5" ry="5" style="stroke:#181818;stroke-width:0.5;" width="126.3652" x="7" y="293.85"/><rect fill="#F1F1F1" height="10" style="stroke:#181818;stroke-width:0.5;" width="15" x="113.3652" y="298.85"/><rect fill="#F1F1F1" height="2" style="stroke:#181818;stroke-width:0.5;" width="4" x="111.3652" y="300.85"/><rect fill="#F1F1F1" height="2" style="stroke:#181818;stroke-width:0.5;" width="4" x="111.3652" y="304.85"/><text fill="#000000" font-family="Arial" font-size="14" lengthAdjust="spacing" textLength="62.248" x="22" y="326.9818">&#171;System&#187;</text><text fill="#000000" font-family="Arial" font-size="14" lengthAdjust="spacing" textLength="86.3652" x="22" y="343.0805">Frontend BFF</text></g><!--entity an_in--><g class="entity" data-entity="an_in" data-source-line="36" data-uid="ent0018" id="entity_an_in"><path d="M18.1,400.8 L122.2582,400.8 C127.2582,400.8 127.2582,429.9479 127.2582,429.9479 C127.2582,429.9479 127.2582,459.0959 122.2582,459.0959 L18.1,459.0959 C13.1,459.0959 13.1,429.9479 13.1,429.9479 C13.1,429.9479 13.1,400.8 18.1,400.8" fill="#F1F1F1" style="stroke:#181818;stroke-width:0.5;"/><path d="M122.2582,400.8 C117.2582,400.8 117.2582,429.9479 117.2582,429.9479 C117.2582,459.0959 122.2582,459.0959 122.2582,459.0959" fill="none" style="stroke:#181818;stroke-width:0.5;"/><text fill="#000000" font-family="Arial" font-size="14" lengthAdjust="spacing" textLength="62.248" x="18.1" y="418.9318">&#171;System&#187;</text><text fill="#000000" font-family="Arial" font-size="14" lengthAdjust="spacing" textLength="94.1582" x="18.1" y="435.0305">Kafka analytics</text><text fill="#000000" font-family="Arial" font-size="14" lengthAdjust="spacing" textLength="30.3584" x="18.1" y="451.1291">input</text></g><!--entity an_pg--><g class="entity" data-entity="an_pg" data-source-line="37" data-uid="ent0019" id="entity_an_pg"><path d="M782.23,922.35 C782.23,912.35 830.3609,912.35 830.3609,912.35 C830.3609,912.35 878.4917,912.35 878.4917,922.35 L878.4917,963.5473 C878.4917,973.5473 830.3609,973.5473 830.3609,973.5473 C830.3609,973.5473 782.23,973.5473 782.23,963.5473 L782.23,922.35" fill="#F1F1F1" style="stroke:#181818;stroke-width:0.5;"/><path d="M782.23,922.35 C782.23,932.35 830.3609,932.35 830.3609,932.35 C830.3609,932.35 878.4917,932.35 878.4917,922.35" fill="none" style="stroke:#181818;stroke-width:0.5;"/><text fill="#000000" font-family="Arial" font-size="14" lengthAdjust="spacing" textLength="62.248" x="792.23" y="949.4818">&#171;System&#187;</text><text fill="#000000" font-family="Arial" font-size="14" lengthAdjust="spacing" textLength="76.2617" x="792.23" y="965.5805">PostgreSQL</text></g><!--entity an_out--><g class="entity" data-entity="an_out" data-source-line="38" data-uid="ent0020" id="entity_an_out"><path d="M773.62,1008.8 L887.1161,1008.8 C892.1161,1008.8 892.1161,1037.9479 892.1161,1037.9479 C892.1161,1037.9479 892.1161,1067.0959 887.1161,1067.0959 L773.62,1067.0959 C768.62,1067.0959 768.62,1037.9479 768.62,1037.9479 C768.62,1037.9479 768.62,1008.8 773.62,1008.8" fill="#F1F1F1" style="stroke:#181818;stroke-width:0.5;"/><path d="M887.1161,1008.8 C882.1161,1008.8 882.1161,1037.9479 882.1161,1037.9479 C882.1161,1067.0959 887.1161,1067.0959 887.1161,1067.0959" fill="none" style="stroke:#181818;stroke-width:0.5;"/><text fill="#000000" font-family="Arial" font-size="14" lengthAdjust="spacing" textLength="62.248" x="773.62" y="1026.9318">&#171;System&#187;</text><text fill="#000000" font-family="Arial" font-size="14" lengthAdjust="spacing" textLength="103.4961" x="773.62" y="1043.0305">Kafka analytics.*</text><text fill="#000000" font-family="Arial" font-size="14" lengthAdjust="spacing" textLength="36.5723" x="773.62" y="1059.1291">topics</text></g><!--entity an_project--><g class="entity" data-entity="an_project" data-source-line="39" data-uid="ent0021" id="entity_an_project"><rect fill="#F1F1F1" height="62.1973" rx="5" ry="5" style="stroke:#181818;stroke-width:0.5;" width="105.3447" x="777.69" y="1101.85"/><rect fill="#F1F1F1" height="10" style="stroke:#181818;stroke-width:0.5;" width="15" x="863.0347" y="1106.85"/><rect fill="#F1F1F1" height="2" style="stroke:#181818;stroke-width:0.5;" width="4" x="861.0347" y="1108.85"/><rect fill="#F1F1F1" height="2" style="stroke:#181818;stroke-width:0.5;" width="4" x="861.0347" y="1112.85"/><text fill="#000000" font-family="Arial" font-size="14" lengthAdjust="spacing" textLength="62.248" x="792.69" y="1134.9818">&#171;System&#187;</text><text fill="#000000" font-family="Arial" font-size="14" lengthAdjust="spacing" textLength="65.3447" x="792.69" y="1151.0805">project-srv</text></g><g class="entity" data-entity="GMN36" data-source-line="57" data-uid="ent0037" id="entity_GMN36"><path d="M222.44,11 L222.44,40.8975 A5,5 0 0 0 227.44,45.8975 L335.2862,45.8975 A5,5 0 0 0 340.2862,40.8975 L340.2862,16 L330.2862,6 L227.44,6 A5,5 0 0 0 222.44,11" fill="#FFF2CC" style="stroke:#E06666;stroke-width:0.5;"/><path d="M330.2862,6 L330.2862,13.5 A2.5,2.5 0 0 0 332.7862,16 L340.2862,16 L330.2862,6" fill="#FFF2CC" style="stroke:#E06666;stroke-width:1;"/><text fill="#000000" font-family="Arial" font-size="13" lengthAdjust="spacing" textLength="96.8462" x="228.44" y="23.1938">Kafka intake and</text><text fill="#000000" font-family="Arial" font-size="13" lengthAdjust="spacing" textLength="91.7998" x="228.44" y="38.1426">pipeline handoff</text></g><!--link an_fe to an_api--><g class="link" data-entity-1="an_fe" data-entity-2="an_api" data-source-line="41" data-uid="lnk22" id="link_an_fe_an_api"><path d="M133.83,324.95 C160.67,324.95 185.83,324.95 212.57,324.95" fill="none" id="an_fe-to-an_api" style="stroke:#B45F06;stroke-width:1;"/><polygon fill="#B45F06" points="218.57,324.95,209.57,320.95,213.57,324.95,209.57,328.95,218.57,324.95" style="stroke:#B45F06;stroke-width:1;"/><text fill="#000000" font-family="Arial" font-size="13" lengthAdjust="spacing" textLength="131.498" x="44.2" y="338.1438">GET /api/v1/analytics/*</text></g><!--link an_api to an_query--><g class="link" data-entity-1="an_api" data-entity-2="an_query" data-source-line="42" data-uid="lnk23" id="link_an_api_an_query"><path d="M281.37,285.44 C281.37,242.2 281.37,178.95 281.37,178.95 C281.37,178.95 405.35,178.95 489.14,178.95" fill="none" id="an_api-to-an_query" style="stroke:#000000;stroke-width:1;"/><polygon fill="#000000" points="495.14,178.95,486.14,174.95,490.14,178.95,486.14,182.95,495.14,178.95" style="stroke:#000000;stroke-width:1;"/><text fill="#000000" font-family="Arial" font-size="13" lengthAdjust="spacing" textLength="101.1689" x="233.01" y="192.1438">read model query</text></g><!--link an_query to an_pg--><g class="link" data-entity-1="an_query" data-entity-2="an_pg" data-source-line="43" data-uid="lnk24" id="link_an_query_an_pg"><path d="M633.67,178.95 C676.12,178.95 722.37,178.95 722.37,178.95 C722.37,178.95 722.37,932.75 722.37,932.75 C722.37,932.75 747.07,932.75 775.74,932.75" fill="none" id="an_query-to-an_pg" style="stroke:#008000;stroke-width:1;"/><polygon fill="#008000" points="781.74,932.75,772.74,928.75,776.74,932.75,772.74,936.75,781.74,932.75" style="stroke:#008000;stroke-width:1;"/><text fill="#000000" font-family="Arial" font-size="13" lengthAdjust="spacing" textLength="86.709" x="723.37" y="554.3838">analytics reads</text></g><!--link an_in to an_consumer--><g class="link" data-entity-1="an_in" data-entity-2="an_consumer" data-source-line="44" data-uid="lnk25" id="link_an_in_an_consumer"><path d="M127.61,429.95 C152.4,429.95 175.71,429.95 202.05,429.95" fill="none" id="an_in-to-an_consumer" style="stroke:#0000FF;stroke-width:1;"/><polygon fill="#0000FF" points="208.05,429.95,199.05,425.95,203.05,429.95,199.05,433.95,208.05,429.95" style="stroke:#0000FF;stroke-width:1;"/><text fill="#000000" font-family="Arial" font-size="13" lengthAdjust="spacing" textLength="52.749" x="168.83" y="443.1438">consume</text></g><!--link an_consumer to an_domain--><g class="link" data-entity-1="an_consumer" data-entity-2="an_domain" data-source-line="45" data-uid="lnk26" id="link_an_consumer_an_domain"><path d="M245.37,461.28 C245.37,554.7 245.37,824.95 245.37,824.95 C245.37,824.95 392.29,824.95 486.38,824.95" fill="none" id="an_consumer-to-an_domain" style="stroke:#000000;stroke-width:1;"/><polygon fill="#000000" points="492.38,824.95,483.38,820.95,487.38,824.95,483.38,828.95,492.38,824.95" style="stroke:#000000;stroke-width:1;"/><text fill="#000000" font-family="Arial" font-size="13" lengthAdjust="spacing" textLength="38.3081" x="206.37" y="779.8138">lookup</text></g><!--link an_consumer to an_adapter--><g class="link" data-entity-1="an_consumer" data-entity-2="an_adapter" data-source-line="46" data-uid="lnk27" id="link_an_consumer_an_adapter"><path d="M350.37,398.6 C350.37,360.26 350.37,300.43 350.37,300.43 C350.37,300.43 421.56,300.43 483.22,300.43" fill="none" id="an_consumer-to-an_adapter" style="stroke:#000000;stroke-width:1;"/><polygon fill="#000000" points="489.22,300.43,480.22,296.43,484.22,300.43,480.22,304.43,489.22,300.43" style="stroke:#000000;stroke-width:1;"/></g><!--link an_consumer to an_pipeline--><g class="link" data-entity-1="an_consumer" data-entity-2="an_pipeline" data-source-line="47" data-uid="lnk28" id="link_an_consumer_an_pipeline"><path d="M354.61,405.45 C396.37,405.45 442.57,405.45 484.44,405.45" fill="none" id="an_consumer-to-an_pipeline" style="stroke:#000000;stroke-width:1;"/><polygon fill="#000000" points="490.44,405.45,481.44,401.45,485.44,405.45,481.44,409.45,490.44,405.45" style="stroke:#000000;stroke-width:1;"/></g><!--link an_pipeline to an_stages--><g class="link" data-entity-1="an_pipeline" data-entity-2="an_stages" data-source-line="48" data-uid="lnk29" id="link_an_pipeline_an_stages"><path d="M638.46,380.95 C676.12,380.95 715.68,380.95 752.96,380.95" fill="none" id="an_pipeline-to-an_stages" style="stroke:#000000;stroke-width:1;"/><polygon fill="#000000" points="758.96,380.95,749.96,376.95,753.96,380.95,749.96,384.95,758.96,380.95" style="stroke:#000000;stroke-width:1;"/><text fill="#000000" font-family="Arial" font-size="13" lengthAdjust="spacing" textLength="70.8335" x="699.71" y="394.1438">run_pipeline</text></g><!--link an_consumer to an_post--><g class="link" data-entity-1="an_consumer" data-entity-2="an_post" data-source-line="49" data-uid="lnk30" id="link_an_consumer_an_post"><path d="M354.61,453.95 C392.53,453.95 433.04,453.95 472.62,453.95" fill="none" id="an_consumer-to-an_post" style="stroke:#000000;stroke-width:1;"/><polygon fill="#000000" points="478.62,453.95,469.62,449.95,473.62,453.95,469.62,457.95,478.62,453.95" style="stroke:#000000;stroke-width:1;"/><text fill="#000000" font-family="Arial" font-size="13" lengthAdjust="spacing" textLength="69.3545" x="417.62" y="451.1438">persist facts</text></g><!--link an_post to an_pg--><g class="link" data-entity-1="an_post" data-entity-2="an_pg" data-source-line="50" data-uid="lnk31" id="link_an_post_an_pg"><path d="M645.37,509.5 C645.37,615.63 645.37,953.15 645.37,953.15 C645.37,953.15 720.95,953.15 775.76,953.15" fill="none" id="an_post-to-an_pg" style="stroke:#008000;stroke-width:1;"/><polygon fill="#008000" points="781.76,953.15,772.76,949.15,776.76,953.15,772.76,957.15,781.76,953.15" style="stroke:#008000;stroke-width:1;"/><text fill="#000000" font-family="Arial" font-size="13" lengthAdjust="spacing" textLength="69.3799" x="646.37" y="812.7138">post_insight</text></g><!--link an_consumer to an_pub--><g class="link" data-entity-1="an_consumer" data-entity-2="an_pub" data-source-line="51" data-uid="lnk32" id="link_an_consumer_an_pub"><path d="M317.37,461.41 C317.37,504.06 317.37,574.95 317.37,574.95 C317.37,574.95 408.15,574.95 480.55,574.95" fill="none" id="an_consumer-to-an_pub" style="stroke:#000000;stroke-width:1;"/><polygon fill="#000000" points="486.55,574.95,477.55,570.95,481.55,574.95,477.55,578.95,486.55,574.95" style="stroke:#000000;stroke-width:1;"/><text fill="#000000" font-family="Arial" font-size="13" lengthAdjust="spacing" textLength="87.4517" x="257.19" y="588.1438">publish outputs</text></g><!--link an_pub to an_out--><g class="link" data-entity-1="an_pub" data-entity-2="an_out" data-source-line="52" data-uid="lnk33" id="link_an_pub_an_out"><path d="M642.33,574.95 C702.44,574.95 775.37,574.95 775.37,574.95 C775.37,574.95 775.37,900.86 775.37,1002.64" fill="none" id="an_pub-to-an_out" style="stroke:#0000FF;stroke-width:1;"/><polygon fill="#0000FF" points="775.37,1008.64,779.37,999.64,775.37,1003.64,771.37,999.64,775.37,1008.64" style="stroke:#0000FF;stroke-width:1;"/><text fill="#000000" font-family="Arial" font-size="13" lengthAdjust="spacing" textLength="59.249" x="715.37" y="738.4738">analytics.*</text></g><!--link an_consumer to an_project_client--><g class="link" data-entity-1="an_consumer" data-entity-2="an_project_client" data-source-line="53" data-uid="lnk34" id="link_an_consumer_an_project_client"><path d="M281.37,461.54 C281.37,536.7 281.37,719.95 281.37,719.95 C281.37,719.95 407.23,719.95 490.94,719.95" fill="none" id="an_consumer-to-an_project_client" style="stroke:#000000;stroke-width:1;"/><polygon fill="#000000" points="496.94,719.95,487.94,715.95,491.94,719.95,487.94,723.95,496.94,719.95" style="stroke:#000000;stroke-width:1;"/><text fill="#000000" font-family="Arial" font-size="13" lengthAdjust="spacing" textLength="78.0381" x="202.37" y="711.7238">runtime apply</text></g><!--link an_project_client to an_project--><g class="link" data-entity-1="an_project_client" data-entity-2="an_project" data-source-line="54" data-uid="lnk35" id="link_an_project_client_an_project"><path d="M631.79,719.95 C660,719.95 686.37,719.95 686.37,719.95 C686.37,719.95 686.37,1132.95 686.37,1132.95 C686.37,1132.95 730.47,1132.95 771.56,1132.95" fill="none" id="an_project_client-to-an_project" style="stroke:#B45F06;stroke-width:1;"/><polygon fill="#B45F06" points="777.56,1132.95,768.56,1128.95,772.56,1132.95,768.56,1136.95,777.56,1132.95" style="stroke:#B45F06;stroke-width:1;"/><text fill="#000000" font-family="Arial" font-size="13" lengthAdjust="spacing" textLength="80.1899" x="605.37" y="957.9538">internal HTTP</text></g><!--link an_consumer to GMN36--><g class="link" data-entity-1="an_consumer" data-entity-2="GMN36" data-source-line="57" data-uid="lnk38" id="link_an_consumer_GMN36"><path d="M347.37,398.59 C347.37,303.66 347.37,25.95 347.37,25.95 C347.37,25.95 344.64,25.95 340.3,25.95" fill="none" id="an_consumer-GMN36" style="stroke:#181818;stroke-width:1;stroke-dasharray:7,7;"/></g><g class="legend" data-source-line="61"><rect fill="#DDDDDD" height="94.4932" rx="5" ry="5" style="stroke:#000000;stroke-width:1;" width="147.6689" x="774.7011" y="1181.0473"/><text fill="#000000" font-family="Arial" font-size="14" font-weight="bold" lengthAdjust="spacing" textLength="36.5518" x="783.5907" y="1201.1791">Color</text><text fill="#000000" font-family="Arial" font-size="14" font-weight="bold" lengthAdjust="spacing" textLength="56.7793" x="827.9218" y="1201.1791">Protocol</text><rect fill="#0000FF" height="16.0986" style="stroke:none;stroke-width:1;" width="44.3311" x="779.7011" y="1204.1459"/><text fill="#000000" font-family="Arial" font-size="14" lengthAdjust="spacing" textLength="7.7793" x="779.7011" y="1217.2777">&#160;&#160;</text><text fill="#000000" font-family="Arial" font-size="14" lengthAdjust="spacing" textLength="35.7998" x="827.9218" y="1217.2777">Kafka</text><rect fill="#008000" height="16.0986" style="stroke:none;stroke-width:1;" width="44.3311" x="779.7011" y="1220.2445"/><text fill="#000000" font-family="Arial" font-size="14" lengthAdjust="spacing" textLength="7.7793" x="779.7011" y="1233.3764">&#160;&#160;</text><text fill="#000000" font-family="Arial" font-size="14" lengthAdjust="spacing" textLength="76.2617" x="827.9218" y="1233.3764">PostgreSQL</text><rect fill="#B45F06" height="16.0986" style="stroke:none;stroke-width:1;" width="44.3311" x="779.7011" y="1236.3432"/><text fill="#000000" font-family="Arial" font-size="14" lengthAdjust="spacing" textLength="7.7793" x="779.7011" y="1249.475">&#160;&#160;</text><text fill="#000000" font-family="Arial" font-size="14" lengthAdjust="spacing" textLength="85.5586" x="827.9218" y="1249.475">HTTP / JSON</text><rect fill="#000000" height="16.0986" style="stroke:none;stroke-width:1;" width="44.3311" x="779.7011" y="1252.4418"/><text fill="#000000" font-family="Arial" font-size="14" lengthAdjust="spacing" textLength="7.7793" x="779.7011" y="1265.5736">&#160;&#160;</text><text fill="#000000" font-family="Arial" font-size="14" lengthAdjust="spacing" textLength="74.7031" x="827.9218" y="1265.5736">Internal Call</text><line style="stroke:#000000;stroke-width:1;" x1="779.7011" x2="917.37" y1="1188.0473" y2="1188.0473"/><line style="stroke:#000000;stroke-width:1;" x1="779.7011" x2="917.37" y1="1204.1459" y2="1204.1459"/><line style="stroke:#000000;stroke-width:1;" x1="779.7011" x2="917.37" y1="1220.2445" y2="1220.2445"/><line style="stroke:#000000;stroke-width:1;" x1="779.7011" x2="917.37" y1="1236.3432" y2="1236.3432"/><line style="stroke:#000000;stroke-width:1;" x1="779.7011" x2="917.37" y1="1252.4418" y2="1252.4418"/><line style="stroke:#000000;stroke-width:1;" x1="779.7011" x2="917.37" y1="1268.5404" y2="1268.5404"/><line style="stroke:#000000;stroke-width:1;" x1="779.7011" x2="779.7011" y1="1188.0473" y2="1268.5404"/><line style="stroke:#000000;stroke-width:1;" x1="824.0321" x2="824.0321" y1="1188.0473" y2="1268.5404"/><line style="stroke:#000000;stroke-width:1;" x1="917.37" x2="917.37" y1="1188.0473" y2="1268.5404"/></g><!--SRC=[ZLNDajCu4BxhARg62pjLGmPgbwAeXQfCm91bc0sRuRJPeXIxxMWZIrv97Yh5x1Fn2DnuCbe_TfmC9FWaT_VN_VKdjMJNGZNSy1eAB7ahNQQLk-8rmjW8Bfdj_NR52_rHg0fABYqEFBck6wrGkRdRI8Isbey6teRdQrvXz1dC7LUL7CADRbMHQwFGmCFpWKCAXMxJ86ZZLdhWKDhX1QMj0dIYfJPmBykoHvF9VfGs1PeKyVByCNrCOkd0QJ2YMZaeXESaj6Ai9mSdOyNbnedSmXpDZSZn13unw7g1avb1Imrp3uHBlY7gzr-W53TeDh_4MDZg0YTVF_S_NxyiL4XlXONnRBfGzpDk7Qq8o2rmzO4tuaY2YLQshT5uTcWwN9wi1FwV3UcEcqQAV8VjUuiJRl5doGOjthNKtaBraiIg_tdhaHnJLQ4DvSS5RzoMCe-_T-69dmVFH8F-B2HJ1ssI-J1MMpTLDcprFfvSnsLsXkSEPkrI2hlQycxQvHsLN-YQYrxWZlNt5OwnRtM1qXUwkfn11o217UMpNIaR_kvKcwhIqBanRUvQWx7gySrC7F_2IX1sqzKeWla8TcRqlpGYtKYGF5AGgvSakZ_amHhu4kETTFEDTLZxN9aXQL4LS95bNO8I6Psb5dSZt_1opScT3k52qNotVL4YNN37bxIlkp2_yPN1-RlBdb_r4-aVd2wKqmsjEfXktO-QI1sVMNEp9m9ZeHyu-_lUnQ-_PUUF_pbxdYORdiAhbzSmekNevk6ehpmwPIc0GEVXIw0mO0Gpo0ke_P61E7EzBo2UR15DHU5zvW2qBAZL9S-o5DhT6GH8IpQqxdE91uM2fTRhjZaOsytsePX-Y0VhEq5n0hm2xIxYnsbfzoc-GKEthACNAtT1W63_hbhUG_g4c-9mwdRfm-E507Gww3J6tEJOLvVSmvruS7euzSu4nNwTeBUOq_qTjdilOlzu9JSX1KsNeRBm-lfwnfX_2s6fdTCrw7BdhOW3GF5yJOLKmVfjMD6VBalcnzGdOFHqLludl9pizXd4XvKMT3KudMi9j-pszoJ1Su1RYDcJrMiUhDlXZAxOH71vlZ22F-P_NcsJ9TYqQsh2fIz5N2AZRm00]--></g></svg>