<svg xmlns="http://www.w3.org/2000/svg" xmlns:xlink="http://www.w3.org/1999/xlink" contentStyleType="text/css" data-diagram-type="DESCRIPTION" height="957px" preserveAspectRatio="none" style="width:935px;height:957px;background:#FFFFFF;" version="1.1" viewBox="0 0 935 957" width="935px" zoomAndPan="magnify"><defs/><g><!--cluster Analytics Service--><g class="cluster" data-entity="Analytics Service" data-source-line="11" data-uid="ent0002" id="cluster_Analytics Service"><rect fill="none" height="608" rx="5" ry="5" style="stroke:#181818;stroke-width:1;" width="789" x="140.16" y="61.95"/><text fill="#000000" font-family="Arial" font-size="14" font-weight="bold" lengthAdjust="spacing" textLength="115.958" x="476.681" y="77.0818">Analytics Service</text></g><!--cluster Presentation Layer (Delivery)--><g class="cluster" data-entity="Presentation Layer .Delivery." data-source-line="12" data-uid="ent0003" id="cluster_Presentation Layer .Delivery."><rect fill="none" height="113" rx="5" ry="5" style="stroke:#181818;stroke-width:1;" width="209" x="164.16" y="290.95"/><text fill="#000000" font-family="Arial" font-size="14" font-weight="bold" lengthAdjust="spacing" textLength="193.7441" x="171.7879" y="306.0818">Presentation Layer (Delivery)</text></g><!--cluster Application Layer (UseCase)--><g class="cluster" data-entity="Application Layer .UseCase." data-source-line="16" data-uid="ent0005" id="cluster_Application Layer .UseCase."><rect fill="none" height="404" rx="5" ry="5" style="stroke:#181818;stroke-width:1;" width="205" x="449.16" y="241.95"/><text fill="#000000" font-family="Arial" font-size="14" font-weight="bold" lengthAdjust="spacing" textLength="189.834" x="456.743" y="257.0818">Application Layer (UseCase)</text></g><!--cluster Domain Layer (Pipeline)--><g class="cluster" data-entity="Domain Layer .Pipeline." data-source-line="23" data-uid="ent0010" id="cluster_Domain Layer .Pipeline."><rect fill="none" height="129" rx="5" ry="5" style="stroke:#181818;stroke-width:1;" width="175" x="730.16" y="233.95"/><text fill="#000000" font-family="Arial" font-size="14" font-weight="bold" lengthAdjust="spacing" textLength="159.4824" x="737.9188" y="249.0818">Domain Layer (Pipeline)</text></g><!--cluster Infrastructure Layer--><g class="cluster" data-entity="Infrastructure Layer" data-source-line="27" data-uid="ent0012" id="cluster_Infrastructure Layer"><rect fill="none" height="113" rx="5" ry="5" style="stroke:#181818;stroke-width:1;" width="175.48" x="463.42" y="104.95"/><text fill="#000000" font-family="Arial" font-size="14" font-weight="bold" lengthAdjust="spacing" textLength="132.2686" x="485.0257" y="120.0818">Infrastructure Layer</text></g><!--entity an_consumer--><g class="entity" data-entity="an_consumer" data-source-line="13" data-uid="ent0004" id="entity_an_consumer"><rect fill="#F1F1F1" height="62.1973" rx="5" ry="5" style="stroke:#181818;stroke-width:0.5;" width="145.8135" x="195.25" y="325.85"/><rect fill="#F1F1F1" height="10" style="stroke:#181818;stroke-width:0.5;" width="15" x="321.0635" y="330.85"/><rect fill="#F1F1F1" height="2" style="stroke:#181818;stroke-width:0.5;" width="4" x="319.0635" y="332.85"/><rect fill="#F1F1F1" height="2" style="stroke:#181818;stroke-width:0.5;" width="4" x="319.0635" y="336.85"/><text fill="#000000" font-family="Arial" font-size="14" lengthAdjust="spacing" textLength="84.8408" x="210.25" y="358.9818">&#171;component&#187;</text><text fill="#000000" font-family="Arial" font-size="14" lengthAdjust="spacing" textLength="105.8135" x="210.25" y="375.0805">ConsumerServer</text></g><!--entity an_adapter--><g class="entity" data-entity="an_adapter" data-source-line="17" data-uid="ent0006" id="entity_an_adapter"><rect fill="#F1F1F1" height="62.1973" rx="5" ry="5" style="stroke:#181818;stroke-width:0.5;" width="149.7441" x="476.29" y="567.85"/><rect fill="#F1F1F1" height="10" style="stroke:#181818;stroke-width:0.5;" width="15" x="606.0341" y="572.85"/><rect fill="#F1F1F1" height="2" style="stroke:#181818;stroke-width:0.5;" width="4" x="604.0341" y="574.85"/><rect fill="#F1F1F1" height="2" style="stroke:#181818;stroke-width:0.5;" width="4" x="604.0341" y="578.85"/><text fill="#000000" font-family="Arial" font-size="14" lengthAdjust="spacing" textLength="84.8408" x="491.29" y="600.9818">&#171;component&#187;</text><text fill="#000000" font-family="Arial" font-size="14" lengthAdjust="spacing" textLength="109.7441" x="491.29" y="617.0805">Ingestion Adapter</text></g><!--entity an_pipeline--><g class="entity" data-entity="an_pipeline" data-source-line="18" data-uid="ent0007" id="entity_an_pipeline"><rect fill="#F1F1F1" height="62.1973" rx="5" ry="5" style="stroke:#181818;stroke-width:0.5;" width="147.3926" x="477.46" y="276.85"/><rect fill="#F1F1F1" height="10" style="stroke:#181818;stroke-width:0.5;" width="15" x="604.8526" y="281.85"/><rect fill="#F1F1F1" height="2" style="stroke:#181818;stroke-width:0.5;" width="4" x="602.8526" y="283.85"/><rect fill="#F1F1F1" height="2" style="stroke:#181818;stroke-width:0.5;" width="4" x="602.8526" y="287.85"/><text fill="#000000" font-family="Arial" font-size="14" lengthAdjust="spacing" textLength="73.1514" x="492.46" y="309.9818">&#171;UseCase&#187;</text><text fill="#000000" font-family="Arial" font-size="14" lengthAdjust="spacing" textLength="107.3926" x="492.46" y="326.0805">PipelineUseCase</text></g><!--entity an_post--><g class="entity" data-entity="an_post" data-source-line="19" data-uid="ent0008" id="entity_an_post"><rect fill="#F1F1F1" height="62.1973" rx="5" ry="5" style="stroke:#181818;stroke-width:0.5;" width="170.7305" x="465.79" y="373.85"/><rect fill="#F1F1F1" height="10" style="stroke:#181818;stroke-width:0.5;" width="15" x="616.5205" y="378.85"/><rect fill="#F1F1F1" height="2" style="stroke:#181818;stroke-width:0.5;" width="4" x="614.5205" y="380.85"/><rect fill="#F1F1F1" height="2" style="stroke:#181818;stroke-width:0.5;" width="4" x="614.5205" y="384.85"/><text fill="#000000" font-family="Arial" font-size="14" lengthAdjust="spacing" textLength="73.1514" x="480.79" y="406.9818">&#171;UseCase&#187;</text><text fill="#000000" font-family="Arial" font-size="14" lengthAdjust="spacing" textLength="130.7305" x="480.79" y="423.0805">PostInsight UseCase</text></g><!--entity an_pub--><g class="entity" data-entity="an_pub" data-source-line="20" data-uid="ent0009" id="entity_an_pub"><rect fill="#F1F1F1" height="62.1973" rx="5" ry="5" style="stroke:#181818;stroke-width:0.5;" width="155.165" x="473.58" y="470.85"/><rect fill="#F1F1F1" height="10" style="stroke:#181818;stroke-width:0.5;" width="15" x="608.745" y="475.85"/><rect fill="#F1F1F1" height="2" style="stroke:#181818;stroke-width:0.5;" width="4" x="606.745" y="477.85"/><rect fill="#F1F1F1" height="2" style="stroke:#181818;stroke-width:0.5;" width="4" x="606.745" y="481.85"/><text fill="#000000" font-family="Arial" font-size="14" lengthAdjust="spacing" textLength="84.8408" x="488.58" y="503.9818">&#171;component&#187;</text><text fill="#000000" font-family="Arial" font-size="14" lengthAdjust="spacing" textLength="115.165" x="488.58" y="520.0805">Contract Publisher</text></g><!--entity an_stages--><g class="entity" data-entity="an_stages" data-source-line="24" data-uid="ent0011" id="entity_an_stages"><rect fill="#F1F1F1" height="78.2959" rx="5" ry="5" style="stroke:#181818;stroke-width:0.5;" width="141.9443" x="746.19" y="268.8"/><rect fill="#F1F1F1" height="10" style="stroke:#181818;stroke-width:0.5;" width="15" x="868.1343" y="273.8"/><rect fill="#F1F1F1" height="2" style="stroke:#181818;stroke-width:0.5;" width="4" x="866.1343" y="275.8"/><rect fill="#F1F1F1" height="2" style="stroke:#181818;stroke-width:0.5;" width="4" x="866.1343" y="279.8"/><text fill="#000000" font-family="Arial" font-size="14" lengthAdjust="spacing" textLength="101.9443" x="761.19" y="301.9318">&#171;DomainModel&#187;</text><text fill="#000000" font-family="Arial" font-size="14" lengthAdjust="spacing" textLength="80.9375" x="761.19" y="318.0305">NLP Pipeline</text><text fill="#000000" font-family="Arial" font-size="14" lengthAdjust="spacing" textLength="43.5859" x="761.19" y="334.1291">Stages</text></g><!--entity an_domain--><g class="entity" data-entity="an_domain" data-source-line="28" data-uid="ent0013" id="entity_an_domain"><rect fill="#F1F1F1" height="62.1973" rx="5" ry="5" style="stroke:#181818;stroke-width:0.5;" width="143.4756" x="479.42" y="139.85"/><rect fill="#F1F1F1" height="10" style="stroke:#181818;stroke-width:0.5;" width="15" x="602.8956" y="144.85"/><rect fill="#F1F1F1" height="2" style="stroke:#181818;stroke-width:0.5;" width="4" x="600.8956" y="146.85"/><rect fill="#F1F1F1" height="2" style="stroke:#181818;stroke-width:0.5;" width="4" x="600.8956" y="150.85"/><text fill="#000000" font-family="Arial" font-size="14" lengthAdjust="spacing" textLength="84.8408" x="494.42" y="172.9818">&#171;component&#187;</text><text fill="#000000" font-family="Arial" font-size="14" lengthAdjust="spacing" textLength="103.4756" x="494.42" y="189.0805">Domain Registry</text></g><!--entity an_in--><g class="entity" data-entity="an_in" data-source-line="32" data-uid="ent0014" id="entity_an_in"><path d="M11,327.8 L115.1582,327.8 C120.1582,327.8 120.1582,356.9479 120.1582,356.9479 C120.1582,356.9479 120.1582,386.0959 115.1582,386.0959 L11,386.0959 C6,386.0959 6,356.9479 6,356.9479 C6,356.9479 6,327.8 11,327.8" fill="#F1F1F1" style="stroke:#181818;stroke-width:0.5;"/><path d="M115.1582,327.8 C110.1582,327.8 110.1582,356.9479 110.1582,356.9479 C110.1582,386.0959 115.1582,386.0959 115.1582,386.0959" fill="none" style="stroke:#181818;stroke-width:0.5;"/><text fill="#000000" font-family="Arial" font-size="14" lengthAdjust="spacing" textLength="62.248" x="11" y="345.9318">&#171;System&#187;</text><text fill="#000000" font-family="Arial" font-size="14" lengthAdjust="spacing" textLength="94.1582" x="11" y="362.0305">Kafka analytics</text><text fill="#000000" font-family="Arial" font-size="14" lengthAdjust="spacing" textLength="30.3584" x="11" y="378.1291">input</text></g><!--entity an_pg--><g class="entity" data-entity="an_pg" data-source-line="33" data-uid="ent0015" id="entity_an_pg"><path d="M769.03,696.35 C769.03,686.35 817.1609,686.35 817.1609,686.35 C817.1609,686.35 865.2917,686.35 865.2917,696.35 L865.2917,737.5473 C865.2917,747.5473 817.1609,747.5473 817.1609,747.5473 C817.1609,747.5473 769.03,747.5473 769.03,737.5473 L769.03,696.35" fill="#F1F1F1" style="stroke:#181818;stroke-width:0.5;"/><path d="M769.03,696.35 C769.03,706.35 817.1609,706.35 817.1609,706.35 C817.1609,706.35 865.2917,706.35 865.2917,696.35" fill="none" style="stroke:#181818;stroke-width:0.5;"/><text fill="#000000" font-family="Arial" font-size="14" lengthAdjust="spacing" textLength="62.248" x="779.03" y="723.4818">&#171;System&#187;</text><text fill="#000000" font-family="Arial" font-size="14" lengthAdjust="spacing" textLength="76.2617" x="779.03" y="739.5805">PostgreSQL</text></g><!--entity an_out--><g class="entity" data-entity="an_out" data-source-line="34" data-uid="ent0016" id="entity_an_out"><path d="M760.41,782.8 L873.9061,782.8 C878.9061,782.8 878.9061,811.9479 878.9061,811.9479 C878.9061,811.9479 878.9061,841.0959 873.9061,841.0959 L760.41,841.0959 C755.41,841.0959 755.41,811.9479 755.41,811.9479 C755.41,811.9479 755.41,782.8 760.41,782.8" fill="#F1F1F1" style="stroke:#181818;stroke-width:0.5;"/><path d="M873.9061,782.8 C868.9061,782.8 868.9061,811.9479 868.9061,811.9479 C868.9061,841.0959 873.9061,841.0959 873.9061,841.0959" fill="none" style="stroke:#181818;stroke-width:0.5;"/><text fill="#000000" font-family="Arial" font-size="14" lengthAdjust="spacing" textLength="62.248" x="760.41" y="800.9318">&#171;System&#187;</text><text fill="#000000" font-family="Arial" font-size="14" lengthAdjust="spacing" textLength="103.4961" x="760.41" y="817.0305">Kafka analytics.*</text><text fill="#000000" font-family="Arial" font-size="14" lengthAdjust="spacing" textLength="36.5723" x="760.41" y="833.1291">topics</text></g><g class="entity" data-entity="GMN26" data-source-line="47" data-uid="ent0027" id="entity_GMN26"><path d="M209.24,11 L209.24,40.8975 A5,5 0 0 0 214.24,45.8975 L264.16,45.8975 L268.16,325.51 L272.16,45.8975 L322.0862,45.8975 A5,5 0 0 0 327.0862,40.8975 L327.0862,16 L317.0862,6 L214.24,6 A5,5 0 0 0 209.24,11" fill="#FFF2CC" style="stroke:#E06666;stroke-width:0.5;"/><path d="M317.0862,6 L317.0862,13.5 A2.5,2.5 0 0 0 319.5862,16 L327.0862,16 L317.0862,6" fill="#FFF2CC" style="stroke:#E06666;stroke-width:0.5;"/><text fill="#000000" font-family="Arial" font-size="13" lengthAdjust="spacing" textLength="96.8462" x="215.24" y="23.1938">Kafka intake and</text><text fill="#000000" font-family="Arial" font-size="13" lengthAdjust="spacing" textLength="91.7998" x="215.24" y="38.1426">pipeline handoff</text></g><!--link an_in to an_consumer--><g class="link" data-entity-1="an_in" data-entity-2="an_consumer" data-source-line="36" data-uid="lnk17" id="link_an_in_an_consumer"><path d="M120.48,356.95 C143.58,356.95 164.51,356.95 189,356.95" fill="none" id="an_in-to-an_consumer" style="stroke:#0000FF;stroke-width:1;"/><polygon fill="#0000FF" points="195,356.95,186,352.95,190,356.95,186,360.95,195,356.95" style="stroke:#0000FF;stroke-width:1;"/><text fill="#000000" font-family="Arial" font-size="13" lengthAdjust="spacing" textLength="52.749" x="104.74" y="370.1438">consume</text></g><!--link an_consumer to an_domain--><g class="link" data-entity-1="an_consumer" data-entity-2="an_domain" data-source-line="37" data-uid="lnk18" id="link_an_consumer_an_domain"><path d="M334.16,325.4 C334.16,272.33 334.16,170.95 334.16,170.95 C334.16,170.95 410.04,170.95 473.2,170.95" fill="none" id="an_consumer-to-an_domain" style="stroke:#000000;stroke-width:1;"/><polygon fill="#000000" points="479.2,170.95,470.2,166.95,474.2,170.95,470.2,174.95,479.2,170.95" style="stroke:#000000;stroke-width:1;"/><text fill="#000000" font-family="Arial" font-size="13" lengthAdjust="spacing" textLength="38.3081" x="295.16" y="188.8438">lookup</text></g><!--link an_consumer to an_adapter--><g class="link" data-entity-1="an_consumer" data-entity-2="an_adapter" data-source-line="38" data-uid="lnk19" id="link_an_consumer_an_adapter"><path d="M244.16,388.09 C244.16,453.45 244.16,598.95 244.16,598.95 C244.16,598.95 379.17,598.95 470.06,598.95" fill="none" id="an_consumer-to-an_adapter" style="stroke:#000000;stroke-width:1;"/><polygon fill="#000000" points="476.06,598.95,467.06,594.95,471.06,598.95,467.06,602.95,476.06,598.95" style="stroke:#000000;stroke-width:1;"/></g><!--link an_consumer to an_pipeline--><g class="link" data-entity-1="an_consumer" data-entity-2="an_pipeline" data-source-line="39" data-uid="lnk20" id="link_an_consumer_an_pipeline"><path d="M341.41,332.45 C383.17,332.45 429.36,332.45 471.23,332.45" fill="none" id="an_consumer-to-an_pipeline" style="stroke:#000000;stroke-width:1;"/><polygon fill="#000000" points="477.23,332.45,468.23,328.45,472.23,332.45,468.23,336.45,477.23,332.45" style="stroke:#000000;stroke-width:1;"/></g><!--link an_pipeline to an_stages--><g class="link" data-entity-1="an_pipeline" data-entity-2="an_stages" data-source-line="40" data-uid="lnk21" id="link_an_pipeline_an_stages"><path d="M625.25,307.95 C662.92,307.95 702.48,307.95 739.75,307.95" fill="none" id="an_pipeline-to-an_stages" style="stroke:#000000;stroke-width:1;"/><polygon fill="#000000" points="745.75,307.95,736.75,303.95,740.75,307.95,736.75,311.95,745.75,307.95" style="stroke:#000000;stroke-width:1;"/><text fill="#000000" font-family="Arial" font-size="13" lengthAdjust="spacing" textLength="70.8335" x="686.5" y="321.1438">run_pipeline</text></g><!--link an_consumer to an_post--><g class="link" data-entity-1="an_consumer" data-entity-2="an_post" data-source-line="41" data-uid="lnk22" id="link_an_consumer_an_post"><path d="M341.41,380.95 C379.32,380.95 419.83,380.95 459.41,380.95" fill="none" id="an_consumer-to-an_post" style="stroke:#000000;stroke-width:1;"/><polygon fill="#000000" points="465.41,380.95,456.41,376.95,460.41,380.95,456.41,384.95,465.41,380.95" style="stroke:#000000;stroke-width:1;"/><text fill="#000000" font-family="Arial" font-size="13" lengthAdjust="spacing" textLength="69.3545" x="404.41" y="378.1438">persist facts</text></g><!--link an_post to an_pg--><g class="link" data-entity-1="an_post" data-entity-2="an_pg" data-source-line="42" data-uid="lnk23" id="link_an_post_an_pg"><path d="M632.16,436.3 C632.16,515.42 632.16,716.95 632.16,716.95 C632.16,716.95 707.74,716.95 762.55,716.95" fill="none" id="an_post-to-an_pg" style="stroke:#008000;stroke-width:1;"/><polygon fill="#008000" points="768.55,716.95,759.55,712.95,763.55,716.95,759.55,720.95,768.55,716.95" style="stroke:#008000;stroke-width:1;"/><text fill="#000000" font-family="Arial" font-size="13" lengthAdjust="spacing" textLength="69.3799" x="562.16" y="658.0138">post_insight</text></g><!--link an_consumer to an_pub--><g class="link" data-entity-1="an_consumer" data-entity-2="an_pub" data-source-line="43" data-uid="lnk24" id="link_an_consumer_an_pub"><path d="M292.16,388.41 C292.16,431.06 292.16,501.95 292.16,501.95 C292.16,501.95 390.84,501.95 467.1,501.95" fill="none" id="an_consumer-to-an_pub" style="stroke:#000000;stroke-width:1;"/><polygon fill="#000000" points="473.1,501.95,464.1,497.95,468.1,501.95,464.1,505.95,473.1,501.95" style="stroke:#000000;stroke-width:1;"/><text fill="#000000" font-family="Arial" font-size="13" lengthAdjust="spacing" textLength="87.4517" x="237.86" y="515.1438">publish outputs</text></g><!--link an_pub to an_out--><g class="link" data-entity-1="an_pub" data-entity-2="an_out" data-source-line="44" data-uid="lnk25" id="link_an_pub_an_out"><path d="M629.13,501.95 C689.23,501.95 762.16,501.95 762.16,501.95 C762.16,501.95 762.16,699.13 762.16,776.51" fill="none" id="an_pub-to-an_out" style="stroke:#0000FF;stroke-width:1;"/><polygon fill="#0000FF" points="762.16,782.51,766.16,773.51,762.16,777.51,758.16,773.51,762.16,782.51" style="stroke:#0000FF;stroke-width:1;"/><text fill="#000000" font-family="Arial" font-size="13" lengthAdjust="spacing" textLength="59.249" x="702.16" y="588.9038">analytics.*</text></g><g class="legend" data-source-line="51"><rect fill="#DDDDDD" height="78.3945" rx="5" ry="5" style="stroke:#000000;stroke-width:1;" width="138.3721" x="770.7879" y="859.0959"/><text fill="#000000" font-family="Arial" font-size="14" font-weight="bold" lengthAdjust="spacing" textLength="36.5518" x="779.6776" y="879.2277">Color</text><text fill="#000000" font-family="Arial" font-size="14" font-weight="bold" lengthAdjust="spacing" textLength="56.7793" x="824.0086" y="879.2277">Protocol</text><rect fill="#0000FF" height="16.0986" style="stroke:none;stroke-width:1;" width="44.3311" x="775.7879" y="882.1945"/><text fill="#000000" font-family="Arial" font-size="14" lengthAdjust="spacing" textLength="7.7793" x="775.7879" y="895.3264">&#160;&#160;</text><text fill="#000000" font-family="Arial" font-size="14" lengthAdjust="spacing" textLength="35.7998" x="824.0086" y="895.3264">Kafka</text><rect fill="#008000" height="16.0986" style="stroke:none;stroke-width:1;" width="44.3311" x="775.7879" y="898.2932"/><text fill="#000000" font-family="Arial" font-size="14" lengthAdjust="spacing" textLength="7.7793" x="775.7879" y="911.425">&#160;&#160;</text><text fill="#000000" font-family="Arial" font-size="14" lengthAdjust="spacing" textLength="76.2617" x="824.0086" y="911.425">PostgreSQL</text><rect fill="#000000" height="16.0986" style="stroke:none;stroke-width:1;" width="44.3311" x="775.7879" y="914.3918"/><text fill="#000000" font-family="Arial" font-size="14" lengthAdjust="spacing" textLength="7.7793" x="775.7879" y="927.5236">&#160;&#160;</text><text fill="#000000" font-family="Arial" font-size="14" lengthAdjust="spacing" textLength="74.7031" x="824.0086" y="927.5236">Internal Call</text><line style="stroke:#000000;stroke-width:1;" x1="775.7879" x2="904.16" y1="866.0959" y2="866.0959"/><line style="stroke:#000000;stroke-width:1;" x1="775.7879" x2="904.16" y1="882.1945" y2="882.1945"/><line style="stroke:#000000;stroke-width:1;" x1="775.7879" x2="904.16" y1="898.2932" y2="898.2932"/><line style="stroke:#000000;stroke-width:1;" x1="775.7879" x2="904.16" y1="914.3918" y2="914.3918"/><line style="stroke:#000000;stroke-width:1;" x1="775.7879" x2="904.16" y1="930.4904" y2="930.4904"/><line style="stroke:#000000;stroke-width:1;" x1="775.7879" x2="775.7879" y1="866.0959" y2="930.4904"/><line style="stroke:#000000;stroke-width:1;" x1="820.119" x2="820.119" y1="866.0959" y2="930.4904"/><line style="stroke:#000000;stroke-width:1;" x1="904.16" x2="904.16" y1="866.0959" y2="930.4904"/></g><!--SRC=[ZLJDZXCn3BxdAQpk1P0MbJqWX62bqgLInO8A5IUAK3hZcKRDn4D-5eqeJyGZSDidmvc_JhVGtPmI-_lyERPbjrMcb5OMa68cW_OpClw3B10cLaajNEzt6vdI3sLooAHsEF0aL9HaqFYbhpH2AFJ5m5lAP2jpR7mM4ozDheTqIy6a2Lc35fwD1mwj3FggH23hDpHm6FBuXiFcDNLAcYoSpMQpY-dqBefiYhP5l1q_voCqPXuyWLNvnaEgOawAZ11zSZ2Q6Aahhn87IxGtAi4H_1JG_GL62ukEFomZ4QvbnQa_kaAjRj1MZniixEi2ezlV_UFspyfCoRXGe8t1qOv0Ef3cMz9QcVnB3DKcPQbLSY3ssU5KEdo0rjpaw6hg99Mbtyl9vdbCRsD7yaAL6DlGcZfgsPfFSydvkN5rbU_osNL_YRoLYOT5M6lbDlkyox0-gj0L5LBrnUco_dTr6knxIb57eG_N2-W8AxFq7CzrKgv-7QdDJMQbypOaFbXiLEzlH9lZ9ymLSwjE8wtDjGQhV0yOC5ANbVDOHDuxcMqb8zk9N1aUyE0xEbDJwUMQgtj8Y-NFBIu_NlU5onyG_kcJbV5KygsZKV12r4fm_kLip6Ss-tf-EPnOU0djLGojBNmyRk7DLnciYRQXF8djflCKfX_3mVq8rFIGHMquPFm_B5UEyILQnvtYTPTu9pfx3Nun0ESHoXwkJpthfqE7TOGt8mrSMUva4viTTwlBRWOFEYD4t6cm9k-f0CeEbaRJHyLBQOliI4LVaGs_ACi4chHUYe9NO1uVzGOKkzVGB4Y-B2nvIaZ3JknUjTbS0koWYTvQu_Thwtx6zeJMDJVSFKuTfbB7SApNgFu5]--></g></svg>