<svg xmlns="http://www.w3.org/2000/svg" xmlns:xlink="http://www.w3.org/1999/xlink" contentStyleType="text/css" data-diagram-type="DESCRIPTION" height="1008px" preserveAspectRatio="none" style="width:1069px;height:1008px;background:#FFFFFF;" version="1.1" viewBox="0 0 1069 1008" width="1069px" zoomAndPan="magnify"><defs/><g><!--cluster Frontend Application--><g class="cluster" data-entity="Frontend Application" data-source-line="11" data-uid="ent0002" id="cluster_Frontend Application"><rect fill="none" height="709" rx="5" ry="5" style="stroke:#181818;stroke-width:1;" width="910.47" x="7" y="76.42"/><text fill="#000000" font-family="Arial" font-size="14" font-weight="bold" lengthAdjust="spacing" textLength="140.7656" x="391.8522" y="91.5518">Frontend Application</text></g><!--cluster Presentation Layer--><g class="cluster" data-entity="Presentation Layer" data-source-line="12" data-uid="ent0003" id="cluster_Presentation Layer"><rect fill="none" height="309" rx="5" ry="5" style="stroke:#181818;stroke-width:1;" width="450.37" x="233.61" y="452.42"/><text fill="#000000" font-family="Arial" font-size="14" font-weight="bold" lengthAdjust="spacing" textLength="126.0479" x="395.7711" y="467.5518">Presentation Layer</text></g><!--cluster UI Surfaces--><g class="cluster" data-entity="UI Surfaces" data-source-line="13" data-uid="ent0004" id="cluster_UI Surfaces"><rect fill="none" height="242" rx="5" ry="5" style="stroke:#181818;stroke-width:1;" width="402.37" x="257.61" y="495.42"/><text fill="#000000" font-family="Arial" font-size="14" font-weight="bold" lengthAdjust="spacing" textLength="77.0342" x="420.2779" y="510.5518">UI Surfaces</text></g><!--cluster Application Layer--><g class="cluster" data-entity="Application Layer" data-source-line="20" data-uid="ent0008" id="cluster_Application Layer"><rect fill="none" height="309" rx="5" ry="5" style="stroke:#181818;stroke-width:1;" width="449.35" x="444.12" y="119.42"/><text fill="#000000" font-family="Arial" font-size="14" font-weight="bold" lengthAdjust="spacing" textLength="117.4688" x="610.0606" y="134.5518">Application Layer</text></g><!--cluster State--><g class="cluster" data-entity="State" data-source-line="21" data-uid="ent0009" id="cluster_State"><rect fill="none" height="242" rx="5" ry="5" style="stroke:#181818;stroke-width:1;" width="181.75" x="468.12" y="162.42"/><text fill="#000000" font-family="Arial" font-size="14" font-weight="bold" lengthAdjust="spacing" textLength="34.2344" x="541.8778" y="177.5518">State</text></g><!--cluster API and Gateway--><g class="cluster" data-entity="API and Gateway" data-source-line="25" data-uid="ent0012" id="cluster_API and Gateway"><rect fill="none" height="242" rx="5" ry="5" style="stroke:#181818;stroke-width:1;" width="161.49" x="707.98" y="162.42"/><text fill="#000000" font-family="Arial" font-size="14" font-weight="bold" lengthAdjust="spacing" textLength="113.5928" x="731.9286" y="177.5518">API and Gateway</text></g><!--cluster Infrastructure Layer--><g class="cluster" data-entity="Infrastructure Layer" data-source-line="31" data-uid="ent0015" id="cluster_Infrastructure Layer"><rect fill="none" height="129" rx="5" ry="5" style="stroke:#181818;stroke-width:1;" width="178.61" x="31" y="495.42"/><text fill="#000000" font-family="Arial" font-size="14" font-weight="bold" lengthAdjust="spacing" textLength="132.2686" x="54.1707" y="510.5518">Infrastructure Layer</text></g><!--entity fe_routes--><g class="entity" data-entity="fe_routes" data-source-line="14" data-uid="ent0005" id="entity_fe_routes"><rect fill="#F1F1F1" height="78.2959" rx="5" ry="5" style="stroke:#181818;stroke-width:0.5;" width="140.4063" x="273.61" y="530.27"/><rect fill="#F1F1F1" height="10" style="stroke:#181818;stroke-width:0.5;" width="15" x="394.0163" y="535.27"/><rect fill="#F1F1F1" height="2" style="stroke:#181818;stroke-width:0.5;" width="4" x="392.0163" y="537.27"/><rect fill="#F1F1F1" height="2" style="stroke:#181818;stroke-width:0.5;" width="4" x="392.0163" y="541.27"/><text fill="#000000" font-family="Arial" font-size="14" lengthAdjust="spacing" textLength="84.8408" x="288.61" y="563.4018">&#171;component&#187;</text><text fill="#000000" font-family="Arial" font-size="14" lengthAdjust="spacing" textLength="100.4063" x="288.61" y="579.5005">App Routes and</text><text fill="#000000" font-family="Arial" font-size="14" lengthAdjust="spacing" textLength="77.0547" x="288.61" y="595.5991">Layout Shell</text></g><!--entity fe_assistant--><g class="entity" data-entity="fe_assistant" data-source-line="15" data-uid="ent0006" id="entity_fe_assistant"><rect fill="#F1F1F1" height="78.2959" rx="5" ry="5" style="stroke:#181818;stroke-width:0.5;" width="169.9648" x="474.01" y="643.27"/><rect fill="#F1F1F1" height="10" style="stroke:#181818;stroke-width:0.5;" width="15" x="623.9748" y="648.27"/><rect fill="#F1F1F1" height="2" style="stroke:#181818;stroke-width:0.5;" width="4" x="621.9748" y="650.27"/><rect fill="#F1F1F1" height="2" style="stroke:#181818;stroke-width:0.5;" width="4" x="621.9748" y="654.27"/><text fill="#000000" font-family="Arial" font-size="14" lengthAdjust="spacing" textLength="84.8408" x="489.01" y="676.4018">&#171;component&#187;</text><text fill="#000000" font-family="Arial" font-size="14" lengthAdjust="spacing" textLength="129.9648" x="489.01" y="692.5005">Knowledge Assistant</text><text fill="#000000" font-family="Arial" font-size="14" lengthAdjust="spacing" textLength="48.248" x="489.01" y="708.5991">Surface</text></g><!--entity fe_reports--><g class="entity" data-entity="fe_reports" data-source-line="16" data-uid="ent0007" id="entity_fe_reports"><rect fill="#F1F1F1" height="78.2959" rx="5" ry="5" style="stroke:#181818;stroke-width:0.5;" width="143.4688" x="487.26" y="530.27"/><rect fill="#F1F1F1" height="10" style="stroke:#181818;stroke-width:0.5;" width="15" x="610.7288" y="535.27"/><rect fill="#F1F1F1" height="2" style="stroke:#181818;stroke-width:0.5;" width="4" x="608.7288" y="537.27"/><rect fill="#F1F1F1" height="2" style="stroke:#181818;stroke-width:0.5;" width="4" x="608.7288" y="541.27"/><text fill="#000000" font-family="Arial" font-size="14" lengthAdjust="spacing" textLength="84.8408" x="502.26" y="563.4018">&#171;component&#187;</text><text fill="#000000" font-family="Arial" font-size="14" lengthAdjust="spacing" textLength="103.4688" x="502.26" y="579.5005">Report Workflow</text><text fill="#000000" font-family="Arial" font-size="14" lengthAdjust="spacing" textLength="48.248" x="502.26" y="595.5991">Surface</text></g><!--entity fe_auth--><g class="entity" data-entity="fe_auth" data-source-line="22" data-uid="ent0010" id="entity_fe_auth"><rect fill="#F1F1F1" height="78.2959" rx="5" ry="5" style="stroke:#181818;stroke-width:0.5;" width="149.7441" x="484.12" y="310.27"/><rect fill="#F1F1F1" height="10" style="stroke:#181818;stroke-width:0.5;" width="15" x="613.8641" y="315.27"/><rect fill="#F1F1F1" height="2" style="stroke:#181818;stroke-width:0.5;" width="4" x="611.8641" y="317.27"/><rect fill="#F1F1F1" height="2" style="stroke:#181818;stroke-width:0.5;" width="4" x="611.8641" y="321.27"/><text fill="#000000" font-family="Arial" font-size="14" lengthAdjust="spacing" textLength="84.8408" x="499.12" y="343.4018">&#171;component&#187;</text><text fill="#000000" font-family="Arial" font-size="14" lengthAdjust="spacing" textLength="109.7441" x="499.12" y="359.5005">Auth and Session</text><text fill="#000000" font-family="Arial" font-size="14" lengthAdjust="spacing" textLength="32.6895" x="499.12" y="375.5991">State</text></g><!--entity fe_state--><g class="entity" data-entity="fe_state" data-source-line="23" data-uid="ent0011" id="entity_fe_state"><rect fill="#F1F1F1" height="78.2959" rx="5" ry="5" style="stroke:#181818;stroke-width:0.5;" width="145.0615" x="486.46" y="197.27"/><rect fill="#F1F1F1" height="10" style="stroke:#181818;stroke-width:0.5;" width="15" x="611.5215" y="202.27"/><rect fill="#F1F1F1" height="2" style="stroke:#181818;stroke-width:0.5;" width="4" x="609.5215" y="204.27"/><rect fill="#F1F1F1" height="2" style="stroke:#181818;stroke-width:0.5;" width="4" x="609.5215" y="208.27"/><text fill="#000000" font-family="Arial" font-size="14" lengthAdjust="spacing" textLength="84.8408" x="501.46" y="230.4018">&#171;component&#187;</text><text fill="#000000" font-family="Arial" font-size="14" lengthAdjust="spacing" textLength="105.0615" x="501.46" y="246.5005">Server State and</text><text fill="#000000" font-family="Arial" font-size="14" lengthAdjust="spacing" textLength="77.8203" x="501.46" y="262.5991">Local Stores</text></g><!--entity fe_api--><g class="entity" data-entity="fe_api" data-source-line="26" data-uid="ent0013" id="entity_fe_api"><rect fill="#F1F1F1" height="78.2959" rx="5" ry="5" style="stroke:#181818;stroke-width:0.5;" width="129.4961" x="723.98" y="310.27"/><rect fill="#F1F1F1" height="10" style="stroke:#181818;stroke-width:0.5;" width="15" x="833.4761" y="315.27"/><rect fill="#F1F1F1" height="2" style="stroke:#181818;stroke-width:0.5;" width="4" x="831.4761" y="317.27"/><rect fill="#F1F1F1" height="2" style="stroke:#181818;stroke-width:0.5;" width="4" x="831.4761" y="321.27"/><text fill="#000000" font-family="Arial" font-size="14" lengthAdjust="spacing" textLength="84.8408" x="738.98" y="343.4018">&#171;component&#187;</text><text fill="#000000" font-family="Arial" font-size="14" lengthAdjust="spacing" textLength="89.4961" x="738.98" y="359.5005">API Client and</text><text fill="#000000" font-family="Arial" font-size="14" lengthAdjust="spacing" textLength="84.0342" x="738.98" y="375.5991">Proxy Routes</text></g><!--entity fe_analytics--><g class="entity" data-entity="fe_analytics" data-source-line="27" data-uid="ent0014" id="entity_fe_analytics"><rect fill="#F1F1F1" height="78.2959" rx="5" ry="5" style="stroke:#181818;stroke-width:0.5;" width="124.8408" x="726.31" y="197.27"/><rect fill="#F1F1F1" height="10" style="stroke:#181818;stroke-width:0.5;" width="15" x="831.1508" y="202.27"/><rect fill="#F1F1F1" height="2" style="stroke:#181818;stroke-width:0.5;" width="4" x="829.1508" y="204.27"/><rect fill="#F1F1F1" height="2" style="stroke:#181818;stroke-width:0.5;" width="4" x="829.1508" y="208.27"/><text fill="#000000" font-family="Arial" font-size="14" lengthAdjust="spacing" textLength="84.8408" x="741.31" y="230.4018">&#171;component&#187;</text><text fill="#000000" font-family="Arial" font-size="14" lengthAdjust="spacing" textLength="82.4756" x="741.31" y="246.5005">Analytics API</text><text fill="#000000" font-family="Arial" font-size="14" lengthAdjust="spacing" textLength="55.248" x="741.31" y="262.5991">Gateway</text></g><!--entity fe_electron--><g class="entity" data-entity="fe_electron" data-source-line="32" data-uid="ent0016" id="entity_fe_electron"><rect fill="#F1F1F1" height="78.2959" rx="5" ry="5" style="stroke:#181818;stroke-width:0.5;" width="146.6064" x="47" y="530.27"/><rect fill="#F1F1F1" height="10" style="stroke:#181818;stroke-width:0.5;" width="15" x="173.6064" y="535.27"/><rect fill="#F1F1F1" height="2" style="stroke:#181818;stroke-width:0.5;" width="4" x="171.6064" y="537.27"/><rect fill="#F1F1F1" height="2" style="stroke:#181818;stroke-width:0.5;" width="4" x="171.6064" y="541.27"/><text fill="#000000" font-family="Arial" font-size="14" lengthAdjust="spacing" textLength="84.8408" x="62" y="563.4018">&#171;component&#187;</text><text fill="#000000" font-family="Arial" font-size="14" lengthAdjust="spacing" textLength="106.6064" x="62" y="579.5005">Electron Desktop</text><text fill="#000000" font-family="Arial" font-size="14" lengthAdjust="spacing" textLength="31.1309" x="62" y="595.5991">Shell</text></g><!--entity fe_user--><g class="entity" data-entity="fe_user" data-source-line="36" data-uid="ent0017" id="entity_fe_user"><ellipse cx="120.3065" cy="809.82" fill="#F1F1F1" rx="8" ry="8" style="stroke:#181818;stroke-width:0.5;"/><path d="M120.3065,817.82 L120.3065,844.82 M107.3065,825.82 L133.3065,825.82 M120.3065,844.82 L107.3065,859.82 M120.3065,844.82 L133.3065,859.82" fill="none" style="stroke:#181818;stroke-width:0.5;"/><text fill="#000000" font-family="Arial" font-size="14" lengthAdjust="spacing" textLength="45.1309" x="77.91" y="874.4518">&#171;User&#187;</text><text fill="#000000" font-family="Arial" font-size="14" lengthAdjust="spacing" textLength="84.793" x="77.91" y="890.5505">Browser User</text></g><!--entity fe_analysis--><g class="entity" data-entity="fe_analysis" data-source-line="37" data-uid="ent0018" id="entity_fe_analysis"><rect fill="#F1F1F1" height="62.1973" rx="5" ry="5" style="stroke:#181818;stroke-width:0.5;" width="113.9238" x="941.64" y="124.32"/><rect fill="#F1F1F1" height="10" style="stroke:#181818;stroke-width:0.5;" width="15" x="1035.5638" y="129.32"/><rect fill="#F1F1F1" height="2" style="stroke:#181818;stroke-width:0.5;" width="4" x="1033.5638" y="131.32"/><rect fill="#F1F1F1" height="2" style="stroke:#181818;stroke-width:0.5;" width="4" x="1033.5638" y="135.32"/><text fill="#000000" font-family="Arial" font-size="14" lengthAdjust="spacing" textLength="62.248" x="956.64" y="157.4518">&#171;System&#187;</text><text fill="#000000" font-family="Arial" font-size="14" lengthAdjust="spacing" textLength="73.9238" x="956.64" y="173.5505">analysis-api</text></g><!--entity fe_identity--><g class="entity" data-entity="fe_identity" data-source-line="38" data-uid="ent0019" id="entity_fe_identity"><rect fill="#F1F1F1" height="62.1973" rx="5" ry="5" style="stroke:#181818;stroke-width:0.5;" width="107.6826" x="944.76" y="221.32"/><rect fill="#F1F1F1" height="10" style="stroke:#181818;stroke-width:0.5;" width="15" x="1032.4426" y="226.32"/><rect fill="#F1F1F1" height="2" style="stroke:#181818;stroke-width:0.5;" width="4" x="1030.4426" y="228.32"/><rect fill="#F1F1F1" height="2" style="stroke:#181818;stroke-width:0.5;" width="4" x="1030.4426" y="232.32"/><text fill="#000000" font-family="Arial" font-size="14" lengthAdjust="spacing" textLength="62.248" x="959.76" y="254.4518">&#171;System&#187;</text><text fill="#000000" font-family="Arial" font-size="14" lengthAdjust="spacing" textLength="67.6826" x="959.76" y="270.5505">identity-srv</text></g><!--entity fe_project--><g class="entity" data-entity="fe_project" data-source-line="39" data-uid="ent0020" id="entity_fe_project"><rect fill="#F1F1F1" height="62.1973" rx="5" ry="5" style="stroke:#181818;stroke-width:0.5;" width="105.3447" x="945.93" y="318.32"/><rect fill="#F1F1F1" height="10" style="stroke:#181818;stroke-width:0.5;" width="15" x="1031.2747" y="323.32"/><rect fill="#F1F1F1" height="2" style="stroke:#181818;stroke-width:0.5;" width="4" x="1029.2747" y="325.32"/><rect fill="#F1F1F1" height="2" style="stroke:#181818;stroke-width:0.5;" width="4" x="1029.2747" y="329.32"/><text fill="#000000" font-family="Arial" font-size="14" lengthAdjust="spacing" textLength="62.248" x="960.93" y="351.4518">&#171;System&#187;</text><text fill="#000000" font-family="Arial" font-size="14" lengthAdjust="spacing" textLength="65.3447" x="960.93" y="367.5505">project-srv</text></g><!--entity fe_ingest--><g class="entity" data-entity="fe_ingest" data-source-line="40" data-uid="ent0021" id="entity_fe_ingest"><rect fill="#F1F1F1" height="62.1973" rx="5" ry="5" style="stroke:#181818;stroke-width:0.5;" width="102.248" x="947.48" y="415.32"/><rect fill="#F1F1F1" height="10" style="stroke:#181818;stroke-width:0.5;" width="15" x="1029.728" y="420.32"/><rect fill="#F1F1F1" height="2" style="stroke:#181818;stroke-width:0.5;" width="4" x="1027.728" y="422.32"/><rect fill="#F1F1F1" height="2" style="stroke:#181818;stroke-width:0.5;" width="4" x="1027.728" y="426.32"/><text fill="#000000" font-family="Arial" font-size="14" lengthAdjust="spacing" textLength="62.248" x="962.48" y="448.4518">&#171;System&#187;</text><text fill="#000000" font-family="Arial" font-size="14" lengthAdjust="spacing" textLength="60.6826" x="962.48" y="464.5505">ingest-srv</text></g><!--entity fe_knowledge--><g class="entity" data-entity="fe_knowledge" data-source-line="41" data-uid="ent0022" id="entity_fe_knowledge"><rect fill="#F1F1F1" height="62.1973" rx="5" ry="5" style="stroke:#181818;stroke-width:0.5;" width="130.2617" x="933.47" y="512.32"/><rect fill="#F1F1F1" height="10" style="stroke:#181818;stroke-width:0.5;" width="15" x="1043.7317" y="517.32"/><rect fill="#F1F1F1" height="2" style="stroke:#181818;stroke-width:0.5;" width="4" x="1041.7317" y="519.32"/><rect fill="#F1F1F1" height="2" style="stroke:#181818;stroke-width:0.5;" width="4" x="1041.7317" y="523.32"/><text fill="#000000" font-family="Arial" font-size="14" lengthAdjust="spacing" textLength="62.248" x="948.47" y="545.4518">&#171;System&#187;</text><text fill="#000000" font-family="Arial" font-size="14" lengthAdjust="spacing" textLength="90.2617" x="948.47" y="561.5505">knowledge-srv</text></g><!--entity fe_notification--><g class="entity" data-entity="fe_notification" data-source-line="42" data-uid="ent0023" id="entity_fe_notification"><rect fill="#F1F1F1" height="62.1973" rx="5" ry="5" style="stroke:#181818;stroke-width:0.5;" width="130.2549" x="493.87" y="801.32"/><rect fill="#F1F1F1" height="10" style="stroke:#181818;stroke-width:0.5;" width="15" x="604.1249" y="806.32"/><rect fill="#F1F1F1" height="2" style="stroke:#181818;stroke-width:0.5;" width="4" x="602.1249" y="808.32"/><rect fill="#F1F1F1" height="2" style="stroke:#181818;stroke-width:0.5;" width="4" x="602.1249" y="812.32"/><text fill="#000000" font-family="Arial" font-size="14" lengthAdjust="spacing" textLength="62.248" x="508.87" y="834.4518">&#171;System&#187;</text><text fill="#000000" font-family="Arial" font-size="14" lengthAdjust="spacing" textLength="90.2549" x="508.87" y="850.5505">notification-srv</text></g><g class="entity" data-entity="GMN41" data-source-line="63" data-uid="ent0042" id="entity_GMN41"><path d="M300.07,11 L300.07,55.8462 A5,5 0 0 0 305.07,60.8462 L339.74,60.8462 L343.74,530.01 L347.74,60.8462 L382.549,60.8462 A5,5 0 0 0 387.549,55.8462 L387.549,16 L377.549,6 L305.07,6 A5,5 0 0 0 300.07,11" fill="#FFF2CC" style="stroke:#E06666;stroke-width:0.5;"/><path d="M377.549,6 L377.549,13.5 A2.5,2.5 0 0 0 380.049,16 L387.549,16 L377.549,6" fill="#FFF2CC" style="stroke:#E06666;stroke-width:0.5;"/><text fill="#000000" font-family="Arial" font-size="13" lengthAdjust="spacing" textLength="66.479" x="306.07" y="23.1938">campaigns,</text><text fill="#000000" font-family="Arial" font-size="13" lengthAdjust="spacing" textLength="65.0508" x="306.07" y="38.1426">dashboard,</text><text fill="#000000" font-family="Arial" font-size="13" lengthAdjust="spacing" textLength="44.8018" x="306.07" y="53.0913">settings</text></g><!--link fe_user to fe_routes--><g class="link" data-entity-1="fe_user" data-entity-2="fe_routes" data-source-line="44" data-uid="lnk24" id="link_fe_user_fe_routes"><path d="M162.81,842.79 C221.64,842.79 320.74,842.79 320.74,842.79 C320.74,842.79 320.74,690.58 320.74,614.88" fill="none" id="fe_user-to-fe_routes" style="stroke:#000000;stroke-width:1;"/><polygon fill="#000000" points="320.74,608.88,316.74,617.88,320.74,613.88,324.74,617.88,320.74,608.88" style="stroke:#000000;stroke-width:1;"/></g><!--link fe_routes to fe_auth--><g class="link" data-entity-1="fe_routes" data-entity-2="fe_auth" data-source-line="45" data-uid="lnk25" id="link_fe_routes_fe_auth"><path d="M407.74,529.84 C407.74,466.5 407.74,349.42 407.74,349.42 C407.74,349.42 439.85,349.42 477.81,349.42" fill="none" id="fe_routes-to-fe_auth" style="stroke:#000000;stroke-width:1;"/><polygon fill="#000000" points="483.81,349.42,474.81,345.42,478.81,349.42,474.81,353.42,483.81,349.42" style="stroke:#000000;stroke-width:1;"/></g><!--link fe_routes to fe_state--><g class="link" data-entity-1="fe_routes" data-entity-2="fe_state" data-source-line="46" data-uid="lnk26" id="link_fe_routes_fe_state"><path d="M393.74,529.91 C393.74,441.71 393.74,236.42 393.74,236.42 C393.74,236.42 435.76,236.42 480.03,236.42" fill="none" id="fe_routes-to-fe_state" style="stroke:#000000;stroke-width:1;"/><polygon fill="#000000" points="486.03,236.42,477.03,232.42,481.03,236.42,477.03,240.42,486.03,236.42" style="stroke:#000000;stroke-width:1;"/></g><!--link fe_routes to fe_assistant--><g class="link" data-entity-1="fe_routes" data-entity-2="fe_assistant" data-source-line="47" data-uid="lnk27" id="link_fe_routes_fe_assistant"><path d="M414.43,582.47 C447.08,582.47 478.74,582.47 478.74,582.47 C478.74,582.47 478.74,608.98 478.74,636.92" fill="none" id="fe_routes-to-fe_assistant" style="stroke:#000000;stroke-width:1;"/><polygon fill="#000000" points="478.74,642.92,482.74,633.92,478.74,637.92,474.74,633.92,478.74,642.92" style="stroke:#000000;stroke-width:1;"/></g><!--link fe_routes to fe_reports--><g class="link" data-entity-1="fe_routes" data-entity-2="fe_reports" data-source-line="48" data-uid="lnk28" id="link_fe_routes_fe_reports"><path d="M414.27,556.37 C437.56,556.37 457.49,556.37 480.9,556.37" fill="none" id="fe_routes-to-fe_reports" style="stroke:#000000;stroke-width:1;"/><polygon fill="#000000" points="486.9,556.37,477.9,552.37,481.9,556.37,477.9,560.37,486.9,556.37" style="stroke:#000000;stroke-width:1;"/></g><!--link fe_assistant to fe_api--><g class="link" data-entity-1="fe_assistant" data-entity-2="fe_api" data-source-line="49" data-uid="lnk29" id="link_fe_assistant_fe_api"><path d="M637.74,643.04 C637.74,558.86 637.74,369 637.74,369 C637.74,369 676.89,369 717.82,369" fill="none" id="fe_assistant-to-fe_api" style="stroke:#000000;stroke-width:1;"/><polygon fill="#000000" points="723.82,369,714.82,365,718.82,369,714.82,373,723.82,369" style="stroke:#000000;stroke-width:1;"/><text fill="#000000" font-family="Arial" font-size="13" lengthAdjust="spacing" textLength="91.7744" x="545.74" y="476.1738">knowledge calls</text></g><!--link fe_reports to fe_api--><g class="link" data-entity-1="fe_reports" data-entity-2="fe_api" data-source-line="50" data-uid="lnk30" id="link_fe_reports_fe_api"><path d="M631.06,552.4 C698.43,552.4 788.74,552.4 788.74,552.4 C788.74,552.4 788.74,454.11 788.74,395.04" fill="none" id="fe_reports-to-fe_api" style="stroke:#000000;stroke-width:1;"/><polygon fill="#000000" points="788.74,389.04,784.74,398.04,788.74,394.04,792.74,398.04,788.74,389.04" style="stroke:#000000;stroke-width:1;"/><text fill="#000000" font-family="Arial" font-size="13" lengthAdjust="spacing" textLength="63.5781" x="724.74" y="562.7538">report calls</text></g><!--link fe_auth to fe_api--><g class="link" data-entity-1="fe_auth" data-entity-2="fe_api" data-source-line="51" data-uid="lnk31" id="link_fe_auth_fe_api"><path d="M634.22,349.42 C663.14,349.42 689.88,349.42 717.75,349.42" fill="none" id="fe_auth-to-fe_api" style="stroke:#000000;stroke-width:1;"/><polygon fill="#000000" points="723.75,349.42,714.75,345.42,718.75,349.42,714.75,353.42,723.75,349.42" style="stroke:#000000;stroke-width:1;"/><text fill="#000000" font-family="Arial" font-size="13" lengthAdjust="spacing" textLength="56.3608" x="621.99" y="362.6138">login, /me</text></g><!--link fe_state to fe_api--><g class="link" data-entity-1="fe_state" data-entity-2="fe_api" data-source-line="52" data-uid="lnk32" id="link_fe_state_fe_api"><path d="M631.99,236.42 C637.36,236.42 640.74,236.42 640.74,236.42 C640.74,236.42 640.74,329.85 640.74,329.85 C640.74,329.85 678.05,329.85 717.81,329.85" fill="none" id="fe_state-to-fe_api" style="stroke:#000000;stroke-width:1;"/><polygon fill="#000000" points="723.81,329.85,714.81,325.85,718.81,329.85,714.81,333.85,723.81,329.85" style="stroke:#000000;stroke-width:1;"/><text fill="#000000" font-family="Arial" font-size="13" lengthAdjust="spacing" textLength="64.3145" x="641.74" y="333.4938">query state</text></g><!--link fe_routes to fe_analytics--><g class="link" data-entity-1="fe_routes" data-entity-2="fe_analytics" data-source-line="53" data-uid="lnk33" id="link_fe_routes_fe_analytics"><path d="M400.74,529.79 C400.74,454.21 400.74,296.9 400.74,296.9 C400.74,296.9 788.74,296.9 788.74,296.9 C788.74,296.9 788.74,293.3 788.74,281.75" fill="none" id="fe_routes-to-fe_analytics" style="stroke:#000000;stroke-width:1;"/><polygon fill="#000000" points="788.74,275.75,784.74,284.75,788.74,280.75,792.74,284.75,788.74,275.75" style="stroke:#000000;stroke-width:1;"/><text fill="#000000" font-family="Arial" font-size="13" lengthAdjust="spacing" textLength="97.5571" x="390.86" y="294.0938">dashboard views</text></g><!--link fe_analytics to fe_analysis--><g class="link" data-entity-1="fe_analytics" data-entity-2="fe_analysis" data-source-line="54" data-uid="lnk34" id="link_fe_analytics_fe_analysis"><path d="M851.45,209.3 C913.33,209.3 998.74,209.3 998.74,209.3 C998.74,209.3 998.74,204.61 998.74,192.76" fill="none" id="fe_analytics-to-fe_analysis" style="stroke:#008000;stroke-width:1;"/><polygon fill="#008000" points="998.74,186.76,994.74,195.76,998.74,191.76,1002.74,195.76,998.74,186.76" style="stroke:#008000;stroke-width:1;"/><text fill="#000000" font-family="Arial" font-size="13" lengthAdjust="spacing" textLength="88.8608" x="937.36" y="206.4938">analytics JSON</text></g><!--link fe_api to fe_identity--><g class="link" data-entity-1="fe_api" data-entity-2="fe_identity" data-source-line="55" data-uid="lnk35" id="link_fe_api_fe_identity"><path d="M853.74,314.3 C915.41,314.3 998.74,314.3 998.74,314.3 C998.74,314.3 998.74,305.07 998.74,289.72" fill="none" id="fe_api-to-fe_identity" style="stroke:#008000;stroke-width:1;"/><polygon fill="#008000" points="998.74,283.72,994.74,292.72,998.74,288.72,1002.74,292.72,998.74,283.72" style="stroke:#008000;stroke-width:1;"/><text fill="#000000" font-family="Arial" font-size="13" lengthAdjust="spacing" textLength="34.6709" x="906.52" y="327.4938">REST</text></g><!--link fe_api to fe_project--><g class="link" data-entity-1="fe_api" data-entity-2="fe_project" data-source-line="56" data-uid="lnk36" id="link_fe_api_fe_project"><path d="M853.7,349.42 C883.19,349.42 911.64,349.42 939.55,349.42" fill="none" id="fe_api-to-fe_project" style="stroke:#008000;stroke-width:1;"/><polygon fill="#008000" points="945.55,349.42,936.55,345.42,940.55,349.42,936.55,353.42,945.55,349.42" style="stroke:#008000;stroke-width:1;"/><text fill="#000000" font-family="Arial" font-size="13" lengthAdjust="spacing" textLength="34.6709" x="864.62" y="362.6138">REST</text></g><!--link fe_api to fe_ingest--><g class="link" data-entity-1="fe_api" data-entity-2="fe_ingest" data-source-line="57" data-uid="lnk37" id="link_fe_api_fe_ingest"><path d="M853.74,383.2 C915.41,383.2 998.74,383.2 998.74,383.2 C998.74,383.2 998.74,393.26 998.74,409.18" fill="none" id="fe_api-to-fe_ingest" style="stroke:#008000;stroke-width:1;"/><polygon fill="#008000" points="998.74,415.18,1002.74,406.18,998.74,410.18,994.74,406.18,998.74,415.18" style="stroke:#008000;stroke-width:1;"/><text fill="#000000" font-family="Arial" font-size="13" lengthAdjust="spacing" textLength="34.6709" x="907.23" y="396.3938">REST</text></g><!--link fe_api to fe_knowledge--><g class="link" data-entity-1="fe_api" data-entity-2="fe_knowledge" data-source-line="58" data-uid="lnk38" id="link_fe_api_fe_knowledge"><path d="M853.65,385.89 C893.81,385.89 937.74,385.89 937.74,385.89 C937.74,385.89 937.74,459.95 937.74,505.92" fill="none" id="fe_api-to-fe_knowledge" style="stroke:#008000;stroke-width:1;"/><polygon fill="#008000" points="937.74,511.92,941.74,502.92,937.74,506.92,933.74,502.92,937.74,511.92" style="stroke:#008000;stroke-width:1;"/><text fill="#000000" font-family="Arial" font-size="13" lengthAdjust="spacing" textLength="34.6709" x="902.74" y="420.0538">REST</text></g><!--link fe_routes to fe_notification--><g class="link" data-entity-1="fe_routes" data-entity-2="fe_notification" data-source-line="59" data-uid="lnk39" id="link_fe_routes_fe_notification"><path d="M366.74,608.9 C366.74,679.95 366.74,822.06 366.74,822.06 C366.74,822.06 431.67,822.06 487.37,822.06" fill="none" id="fe_routes-to-fe_notification" style="stroke:#F39C12;stroke-width:1;"/><polygon fill="#F39C12" points="493.37,822.06,484.37,818.06,488.37,822.06,484.37,826.06,493.37,822.06" style="stroke:#F39C12;stroke-width:1;"/><text fill="#000000" font-family="Arial" font-size="13" lengthAdjust="spacing" textLength="127.8989" x="238.74" y="791.9838">websocket-capable UI</text></g><!--link fe_electron to fe_routes--><g class="link" data-entity-1="fe_electron" data-entity-2="fe_routes" data-source-line="60" data-uid="lnk40" id="link_fe_electron_fe_routes"><path d="M193.8,569.42 C219.37,569.42 241.99,569.42 267.31,569.42" fill="none" id="fe_electron-to-fe_routes" style="stroke:#000000;stroke-width:1;"/><polygon fill="#000000" points="273.31,569.42,264.31,565.42,268.31,569.42,264.31,573.42,273.31,569.42" style="stroke:#000000;stroke-width:1;"/><text fill="#000000" font-family="Arial" font-size="13" lengthAdjust="spacing" textLength="73.7153" x="159.55" y="582.6138">desktop host</text></g><g class="legend" data-source-line="68"><rect fill="#DDDDDD" height="78.3945" rx="5" ry="5" style="stroke:#000000;stroke-width:1;" width="157.0068" x="886.7249" y="910.0505"/><text fill="#000000" font-family="Arial" font-size="14" font-weight="bold" lengthAdjust="spacing" textLength="36.5518" x="895.6145" y="930.1823">Color</text><text fill="#000000" font-family="Arial" font-size="14" font-weight="bold" lengthAdjust="spacing" textLength="56.7793" x="939.9456" y="930.1823">Protocol</text><rect fill="#008000" height="16.0986" style="stroke:none;stroke-width:1;" width="44.3311" x="891.7249" y="933.1491"/><text fill="#000000" font-family="Arial" font-size="14" lengthAdjust="spacing" textLength="7.7793" x="891.7249" y="946.2809">&#160;&#160;</text><text fill="#000000" font-family="Arial" font-size="14" lengthAdjust="spacing" textLength="94.8965" x="939.9456" y="946.2809">HTTPS / JSON</text><rect fill="#F39C12" height="16.0986" style="stroke:none;stroke-width:1;" width="44.3311" x="891.7249" y="949.2477"/><text fill="#000000" font-family="Arial" font-size="14" lengthAdjust="spacing" textLength="7.7793" x="891.7249" y="962.3796">&#160;&#160;</text><text fill="#000000" font-family="Arial" font-size="14" lengthAdjust="spacing" textLength="71.5859" x="939.9456" y="962.3796">WebSocket</text><rect fill="#000000" height="16.0986" style="stroke:none;stroke-width:1;" width="44.3311" x="891.7249" y="965.3464"/><text fill="#000000" font-family="Arial" font-size="14" lengthAdjust="spacing" textLength="7.7793" x="891.7249" y="978.4782">&#160;&#160;</text><text fill="#000000" font-family="Arial" font-size="14" lengthAdjust="spacing" textLength="74.7031" x="939.9456" y="978.4782">Internal Call</text><line style="stroke:#000000;stroke-width:1;" x1="891.7249" x2="1038.7317" y1="917.0505" y2="917.0505"/><line style="stroke:#000000;stroke-width:1;" x1="891.7249" x2="1038.7317" y1="933.1491" y2="933.1491"/><line style="stroke:#000000;stroke-width:1;" x1="891.7249" x2="1038.7317" y1="949.2477" y2="949.2477"/><line style="stroke:#000000;stroke-width:1;" x1="891.7249" x2="1038.7317" y1="965.3464" y2="965.3464"/><line style="stroke:#000000;stroke-width:1;" x1="891.7249" x2="1038.7317" y1="981.445" y2="981.445"/><line style="stroke:#000000;stroke-width:1;" x1="891.7249" x2="891.7249" y1="917.0505" y2="981.445"/><line style="stroke:#000000;stroke-width:1;" x1="936.0559" x2="936.0559" y1="917.0505" y2="981.445"/><line style="stroke:#000000;stroke-width:1;" x1="1038.7317" x2="1038.7317" y1="917.0505" y2="981.445"/></g><!--SRC=[ZLRHRjis57tdLrouhp6Qfi2m5Ms1r8qtRqCRH0dwi0m3BLt9d6bUZQJY2ik-g9-mjtxPhaX9PX9ehW034iyvb_SUNf9sMsLgQUKE2Ynbe_sIZFyWTmZdLaajt8YxZInehqm5fTGE4oIdNKq6ZSzygn6QdJvBq5hcMrbXn2pcNffAft9BZIboiWOjl3XD0AqC-hP68Eitb026FBxZi5MGBaYJXMVBvV9iiNZC8bkWxHaNfz_n8pIM7Zo1LTN6Gw6wd1GP8SRaOBQqR0EQ0ixhMgjSTeGP_2rWA0TcbnOTrnmW-5MsQ2CXeToi86jiANDq0mO7js3szSluyVNVMyDpmHKr7Xr8KzmQ3ifVa6rGwnb81oN-OGD-DDGlXlOQ2qxYt3dbk2n_Q_fSXb1oG8v6kyAQbm0-aTsMclPF8jc0nwp-4TqlDIgnSCAdZ5t4RtAeyPlE6yYGaoV3cKHfNn73HsDaQE-uquAmzvbogNc0RBTECPJhuB6Wj9hBLSZWHyRtilsch5coqAg3mdoNbZwt_KgFgTVgU1mZTUjLxe0ZtfenWpx2W4uimygKLZflczmt5X-knFIS5vet1My6U8zkwwbc_z9sn1uEi_5yCcSNko0t3csdVsTfpw_GVG-YXj_5WocprddSTVnG1VVbd0rvK1cFJMbKmKFAjtDdxmRDC3QbgItzoQcdadveSXPJeNiWY2DJ_Esm1LF9E3YbuaDBbVrkIONfk12zYJ3_xTbfU7wVlqrEX_7j2I7ia6auTlt_oCSZOvep70Of_McWMi4h6Dq0te0wvXtL4uA87jXTEHDKJPKo9_1y5-e9XKqm_shGjd2qz77plO92kisQf2tWJk4-PZB2GVZz8o7xmBe3wUViumVHP_1OCBGk2wukikifMj-kHrYnHu-G3kjmu1riMBxyOV7YhAUcVSZiFQuTvLlqyrpMSirNvyrA9EV2H8Ts7iRp13R4MqXqTpMioNlQ0PL9A-ToLqjL6NSYHjTFX4FlkJ8dkYkwqmg-rQlk8rpguluDn3kVN_YqzPIJXdjn_xgl-ot0FVnqVNsPmVEm5X6CbGRm4wwpKDWWEnraA_vZO7aXOS5To2ZF6kV-3m00]--></g></svg>