<svg xmlns="http://www.w3.org/2000/svg" xmlns:xlink="http://www.w3.org/1999/xlink" contentStyleType="text/css" data-diagram-type="DESCRIPTION" height="1008px" preserveAspectRatio="none" style="width:1100px;height:1008px;background:#FFFFFF;" version="1.1" viewBox="0 0 1100 1008" width="1100px" zoomAndPan="magnify"><defs/><g><!--cluster Frontend Application--><g class="cluster" data-entity="Frontend Application" data-source-line="11" data-uid="ent0002" id="cluster_Frontend Application"><rect fill="none" height="709" rx="5" ry="5" style="stroke:#181818;stroke-width:1;" width="941.6" x="7" y="76.42"/><text fill="#000000" font-family="Arial" font-size="14" font-weight="bold" lengthAdjust="spacing" textLength="140.7656" x="407.4172" y="91.5518">Frontend Application</text></g><!--cluster Presentation Layer--><g class="cluster" data-entity="Presentation Layer" data-source-line="12" data-uid="ent0003" id="cluster_Presentation Layer"><rect fill="none" height="309" rx="5" ry="5" style="stroke:#181818;stroke-width:1;" width="450.37" x="233.61" y="452.42"/><text fill="#000000" font-family="Arial" font-size="14" font-weight="bold" lengthAdjust="spacing" textLength="126.0479" x="395.7711" y="467.5518">Presentation Layer</text></g><!--cluster UI Surfaces--><g class="cluster" data-entity="UI Surfaces" data-source-line="13" data-uid="ent0004" id="cluster_UI Surfaces"><rect fill="none" height="242" rx="5" ry="5" style="stroke:#181818;stroke-width:1;" width="402.37" x="257.61" y="495.42"/><text fill="#000000" font-family="Arial" font-size="14" font-weight="bold" lengthAdjust="spacing" textLength="77.0342" x="420.2779" y="510.5518">UI Surfaces</text></g><!--cluster Application Layer--><g class="cluster" data-entity="Application Layer" data-source-line="20" data-uid="ent0008" id="cluster_Application Layer"><rect fill="none" height="309" rx="5" ry="5" style="stroke:#181818;stroke-width:1;" width="480.48" x="444.12" y="119.42"/><text fill="#000000" font-family="Arial" font-size="14" font-weight="bold" lengthAdjust="spacing" textLength="117.4688" x="625.6256" y="134.5518">Application Layer</text></g><!--cluster State--><g class="cluster" data-entity="State" data-source-line="21" data-uid="ent0009" id="cluster_State"><rect fill="none" height="242" rx="5" ry="5" style="stroke:#181818;stroke-width:1;" width="181.75" x="468.12" y="162.42"/><text fill="#000000" font-family="Arial" font-size="14" font-weight="bold" lengthAdjust="spacing" textLength="34.2344" x="541.8778" y="177.5518">State</text></g><!--cluster API and Gateway--><g class="cluster" data-entity="API and Gateway" data-source-line="25" data-uid="ent0012" id="cluster_API and Gateway"><rect fill="none" height="242" rx="5" ry="5" style="stroke:#181818;stroke-width:1;" width="192.62" x="707.98" y="162.42"/><text fill="#000000" font-family="Arial" font-size="14" font-weight="bold" lengthAdjust="spacing" textLength="113.5928" x="747.4936" y="177.5518">API and Gateway</text></g><!--cluster Infrastructure Layer--><g class="cluster" data-entity="Infrastructure Layer" data-source-line="31" data-uid="ent0015" id="cluster_Infrastructure Layer"><rect fill="none" height="129" rx="5" ry="5" style="stroke:#181818;stroke-width:1;" width="178.61" x="31" y="495.42"/><text fill="#000000" font-family="Arial" font-size="14" font-weight="bold" lengthAdjust="spacing" textLength="132.2686" x="54.1707" y="510.5518">Infrastructure Layer</text></g><!--entity fe_routes--><g class="entity" data-entity="fe_routes" data-source-line="14" data-uid="ent0005" id="entity_fe_routes"><rect fill="#F1F1F1" height="78.2959" rx="5" ry="5" style="stroke:#181818;stroke-width:0.5;" width="140.4063" x="273.61" y="530.27"/><rect fill="#F1F1F1" height="10" style="stroke:#181818;stroke-width:0.5;" width="15" x="394.0163" y="535.27"/><rect fill="#F1F1F1" height="2" style="stroke:#181818;stroke-width:0.5;" width="4" x="392.0163" y="537.27"/><rect fill="#F1F1F1" height="2" style="stroke:#181818;stroke-width:0.5;" width="4" x="392.0163" y="541.27"/><text fill="#000000" font-family="Arial" font-size="14" lengthAdjust="spacing" textLength="84.8408" x="288.61" y="563.4018">&#171;component&#187;</text><text fill="#000000" font-family="Arial" font-size="14" lengthAdjust="spacing" textLength="100.4063" x="288.61" y="579.5005">App Routes and</text><text fill="#000000" font-family="Arial" font-size="14" lengthAdjust="spacing" textLength="77.0547" x="288.61" y="595.5991">Layout Shell</text></g><!--entity fe_assistant--><g class="entity" data-entity="fe_assistant" data-source-line="15" data-uid="ent0006" id="entity_fe_assistant"><rect fill="#F1F1F1" height="78.2959" rx="5" ry="5" style="stroke:#181818;stroke-width:0.5;" width="169.9648" x="474.01" y="643.27"/><rect fill="#F1F1F1" height="10" style="stroke:#181818;stroke-width:0.5;" width="15" x="623.9748" y="648.27"/><rect fill="#F1F1F1" height="2" style="stroke:#181818;stroke-width:0.5;" width="4" x="621.9748" y="650.27"/><rect fill="#F1F1F1" height="2" style="stroke:#181818;stroke-width:0.5;" width="4" x="621.9748" y="654.27"/><text fill="#000000" font-family="Arial" font-size="14" lengthAdjust="spacing" textLength="84.8408" x="489.01" y="676.4018">&#171;component&#187;</text><text fill="#000000" font-family="Arial" font-size="14" lengthAdjust="spacing" textLength="129.9648" x="489.01" y="692.5005">Knowledge Assistant</text><text fill="#000000" font-family="Arial" font-size="14" lengthAdjust="spacing" textLength="48.248" x="489.01" y="708.5991">Surface</text></g><!--entity fe_reports--><g class="entity" data-entity="fe_reports" data-source-line="16" data-uid="ent0007" id="entity_fe_reports"><rect fill="#F1F1F1" height="78.2959" rx="5" ry="5" style="stroke:#181818;stroke-width:0.5;" width="143.4688" x="487.26" y="530.27"/><rect fill="#F1F1F1" height="10" style="stroke:#181818;stroke-width:0.5;" width="15" x="610.7288" y="535.27"/><rect fill="#F1F1F1" height="2" style="stroke:#181818;stroke-width:0.5;" width="4" x="608.7288" y="537.27"/><rect fill="#F1F1F1" height="2" style="stroke:#181818;stroke-width:0.5;" width="4" x="608.7288" y="541.27"/><text fill="#000000" font-family="Arial" font-size="14" lengthAdjust="spacing" textLength="84.8408" x="502.26" y="563.4018">&#171;component&#187;</text><text fill="#000000" font-family="Arial" font-size="14" lengthAdjust="spacing" textLength="103.4688" x="502.26" y="579.5005">Report Workflow</text><text fill="#000000" font-family="Arial" font-size="14" lengthAdjust="spacing" textLength="48.248" x="502.26" y="595.5991">Surface</text></g><!--entity fe_auth--><g class="entity" data-entity="fe_auth" data-source-line="22" data-uid="ent0010" id="entity_fe_auth"><rect fill="#F1F1F1" height="78.2959" rx="5" ry="5" style="stroke:#181818;stroke-width:0.5;" width="149.7441" x="484.12" y="310.27"/><rect fill="#F1F1F1" height="10" style="stroke:#181818;stroke-width:0.5;" width="15" x="613.8641" y="315.27"/><rect fill="#F1F1F1" height="2" style="stroke:#181818;stroke-width:0.5;" width="4" x="611.8641" y="317.27"/><rect fill="#F1F1F1" height="2" style="stroke:#181818;stroke-width:0.5;" width="4" x="611.8641" y="321.27"/><text fill="#000000" font-family="Arial" font-size="14" lengthAdjust="spacing" textLength="84.8408" x="499.12" y="343.4018">&#171;component&#187;</text><text fill="#000000" font-family="Arial" font-size="14" lengthAdjust="spacing" textLength="109.7441" x="499.12" y="359.5005">Auth and Session</text><text fill="#000000" font-family="Arial" font-size="14" lengthAdjust="spacing" textLength="32.6895" x="499.12" y="375.5991">State</text></g><!--entity fe_state--><g class="entity" data-entity="fe_state" data-source-line="23" data-uid="ent0011" id="entity_fe_state"><rect fill="#F1F1F1" height="78.2959" rx="5" ry="5" style="stroke:#181818;stroke-width:0.5;" width="145.0615" x="486.46" y="197.27"/><rect fill="#F1F1F1" height="10" style="stroke:#181818;stroke-width:0.5;" width="15" x="611.5215" y="202.27"/><rect fill="#F1F1F1" height="2" style="stroke:#181818;stroke-width:0.5;" width="4" x="609.5215" y="204.27"/><rect fill="#F1F1F1" height="2" style="stroke:#181818;stroke-width:0.5;" width="4" x="609.5215" y="208.27"/><text fill="#000000" font-family="Arial" font-size="14" lengthAdjust="spacing" textLength="84.8408" x="501.46" y="230.4018">&#171;component&#187;</text><text fill="#000000" font-family="Arial" font-size="14" lengthAdjust="spacing" textLength="105.0615" x="501.46" y="246.5005">Server State and</text><text fill="#000000" font-family="Arial" font-size="14" lengthAdjust="spacing" textLength="77.8203" x="501.46" y="262.5991">Local Stores</text></g><!--entity fe_api--><g class="entity" data-entity="fe_api" data-source-line="26" data-uid="ent0013" id="entity_fe_api"><rect fill="#F1F1F1" height="78.2959" rx="5" ry="5" style="stroke:#181818;stroke-width:0.5;" width="129.4961" x="739.54" y="310.27"/><rect fill="#F1F1F1" height="10" style="stroke:#181818;stroke-width:0.5;" width="15" x="849.0361" y="315.27"/><rect fill="#F1F1F1" height="2" style="stroke:#181818;stroke-width:0.5;" width="4" x="847.0361" y="317.27"/><rect fill="#F1F1F1" height="2" style="stroke:#181818;stroke-width:0.5;" width="4" x="847.0361" y="321.27"/><text fill="#000000" font-family="Arial" font-size="14" lengthAdjust="spacing" textLength="84.8408" x="754.54" y="343.4018">&#171;component&#187;</text><text fill="#000000" font-family="Arial" font-size="14" lengthAdjust="spacing" textLength="89.4961" x="754.54" y="359.5005">API Client and</text><text fill="#000000" font-family="Arial" font-size="14" lengthAdjust="spacing" textLength="84.0342" x="754.54" y="375.5991">Proxy Routes</text></g><!--entity fe_analytics--><g class="entity" data-entity="fe_analytics" data-source-line="27" data-uid="ent0014" id="entity_fe_analytics"><rect fill="#F1F1F1" height="78.2959" rx="5" ry="5" style="stroke:#181818;stroke-width:0.5;" width="160.6201" x="723.98" y="197.27"/><rect fill="#F1F1F1" height="10" style="stroke:#181818;stroke-width:0.5;" width="15" x="864.6001" y="202.27"/><rect fill="#F1F1F1" height="2" style="stroke:#181818;stroke-width:0.5;" width="4" x="862.6001" y="204.27"/><rect fill="#F1F1F1" height="2" style="stroke:#181818;stroke-width:0.5;" width="4" x="862.6001" y="208.27"/><text fill="#000000" font-family="Arial" font-size="14" lengthAdjust="spacing" textLength="84.8408" x="738.98" y="230.4018">&#171;component&#187;</text><text fill="#000000" font-family="Arial" font-size="14" lengthAdjust="spacing" textLength="83.2686" x="738.98" y="246.5005">Analytics and</text><text fill="#000000" font-family="Arial" font-size="14" lengthAdjust="spacing" textLength="120.6201" x="738.98" y="262.5991">Metabase Gateway</text></g><!--entity fe_electron--><g class="entity" data-entity="fe_electron" data-source-line="32" data-uid="ent0016" id="entity_fe_electron"><rect fill="#F1F1F1" height="78.2959" rx="5" ry="5" style="stroke:#181818;stroke-width:0.5;" width="146.6064" x="47" y="530.27"/><rect fill="#F1F1F1" height="10" style="stroke:#181818;stroke-width:0.5;" width="15" x="173.6064" y="535.27"/><rect fill="#F1F1F1" height="2" style="stroke:#181818;stroke-width:0.5;" width="4" x="171.6064" y="537.27"/><rect fill="#F1F1F1" height="2" style="stroke:#181818;stroke-width:0.5;" width="4" x="171.6064" y="541.27"/><text fill="#000000" font-family="Arial" font-size="14" lengthAdjust="spacing" textLength="84.8408" x="62" y="563.4018">&#171;component&#187;</text><text fill="#000000" font-family="Arial" font-size="14" lengthAdjust="spacing" textLength="106.6064" x="62" y="579.5005">Electron Desktop</text><text fill="#000000" font-family="Arial" font-size="14" lengthAdjust="spacing" textLength="31.1309" x="62" y="595.5991">Shell</text></g><!--entity fe_user--><g class="entity" data-entity="fe_user" data-source-line="36" data-uid="ent0017" id="entity_fe_user"><ellipse cx="120.3065" cy="809.82" fill="#F1F1F1" rx="8" ry="8" style="stroke:#181818;stroke-width:0.5;"/><path d="M120.3065,817.82 L120.3065,844.82 M107.3065,825.82 L133.3065,825.82 M120.3065,844.82 L107.3065,859.82 M120.3065,844.82 L133.3065,859.82" fill="none" style="stroke:#181818;stroke-width:0.5;"/><text fill="#000000" font-family="Arial" font-size="14" lengthAdjust="spacing" textLength="45.1309" x="77.91" y="874.4518">&#171;User&#187;</text><text fill="#000000" font-family="Arial" font-size="14" lengthAdjust="spacing" textLength="84.793" x="77.91" y="890.5505">Browser User</text></g><!--entity fe_metabase--><g class="entity" data-entity="fe_metabase" data-source-line="37" data-uid="ent0018" id="entity_fe_metabase"><path d="M988.6,134.82 C988.6,124.82 1029.724,124.82 1029.724,124.82 C1029.724,124.82 1070.848,124.82 1070.848,134.82 L1070.848,176.0173 C1070.848,186.0173 1029.724,186.0173 1029.724,186.0173 C1029.724,186.0173 988.6,186.0173 988.6,176.0173 L988.6,134.82" fill="#F1F1F1" style="stroke:#181818;stroke-width:0.5;"/><path d="M988.6,134.82 C988.6,144.82 1029.724,144.82 1029.724,144.82 C1029.724,144.82 1070.848,144.82 1070.848,134.82" fill="none" style="stroke:#181818;stroke-width:0.5;"/><text fill="#000000" font-family="Arial" font-size="14" lengthAdjust="spacing" textLength="62.248" x="998.6" y="161.9518">&#171;System&#187;</text><text fill="#000000" font-family="Arial" font-size="14" lengthAdjust="spacing" textLength="61.4824" x="998.6" y="178.0505">Metabase</text></g><!--entity fe_identity--><g class="entity" data-entity="fe_identity" data-source-line="38" data-uid="ent0019" id="entity_fe_identity"><rect fill="#F1F1F1" height="62.1973" rx="5" ry="5" style="stroke:#181818;stroke-width:0.5;" width="107.6826" x="975.89" y="221.32"/><rect fill="#F1F1F1" height="10" style="stroke:#181818;stroke-width:0.5;" width="15" x="1063.5726" y="226.32"/><rect fill="#F1F1F1" height="2" style="stroke:#181818;stroke-width:0.5;" width="4" x="1061.5726" y="228.32"/><rect fill="#F1F1F1" height="2" style="stroke:#181818;stroke-width:0.5;" width="4" x="1061.5726" y="232.32"/><text fill="#000000" font-family="Arial" font-size="14" lengthAdjust="spacing" textLength="62.248" x="990.89" y="254.4518">&#171;System&#187;</text><text fill="#000000" font-family="Arial" font-size="14" lengthAdjust="spacing" textLength="67.6826" x="990.89" y="270.5505">identity-srv</text></g><!--entity fe_project--><g class="entity" data-entity="fe_project" data-source-line="39" data-uid="ent0020" id="entity_fe_project"><rect fill="#F1F1F1" height="62.1973" rx="5" ry="5" style="stroke:#181818;stroke-width:0.5;" width="105.3447" x="977.06" y="318.32"/><rect fill="#F1F1F1" height="10" style="stroke:#181818;stroke-width:0.5;" width="15" x="1062.4047" y="323.32"/><rect fill="#F1F1F1" height="2" style="stroke:#181818;stroke-width:0.5;" width="4" x="1060.4047" y="325.32"/><rect fill="#F1F1F1" height="2" style="stroke:#181818;stroke-width:0.5;" width="4" x="1060.4047" y="329.32"/><text fill="#000000" font-family="Arial" font-size="14" lengthAdjust="spacing" textLength="62.248" x="992.06" y="351.4518">&#171;System&#187;</text><text fill="#000000" font-family="Arial" font-size="14" lengthAdjust="spacing" textLength="65.3447" x="992.06" y="367.5505">project-srv</text></g><!--entity fe_ingest--><g class="entity" data-entity="fe_ingest" data-source-line="40" data-uid="ent0021" id="entity_fe_ingest"><rect fill="#F1F1F1" height="62.1973" rx="5" ry="5" style="stroke:#181818;stroke-width:0.5;" width="102.248" x="978.6" y="415.32"/><rect fill="#F1F1F1" height="10" style="stroke:#181818;stroke-width:0.5;" width="15" x="1060.848" y="420.32"/><rect fill="#F1F1F1" height="2" style="stroke:#181818;stroke-width:0.5;" width="4" x="1058.848" y="422.32"/><rect fill="#F1F1F1" height="2" style="stroke:#181818;stroke-width:0.5;" width="4" x="1058.848" y="426.32"/><text fill="#000000" font-family="Arial" font-size="14" lengthAdjust="spacing" textLength="62.248" x="993.6" y="448.4518">&#171;System&#187;</text><text fill="#000000" font-family="Arial" font-size="14" lengthAdjust="spacing" textLength="60.6826" x="993.6" y="464.5505">ingest-srv</text></g><!--entity fe_knowledge--><g class="entity" data-entity="fe_knowledge" data-source-line="41" data-uid="ent0022" id="entity_fe_knowledge"><rect fill="#F1F1F1" height="62.1973" rx="5" ry="5" style="stroke:#181818;stroke-width:0.5;" width="130.2617" x="964.6" y="512.32"/><rect fill="#F1F1F1" height="10" style="stroke:#181818;stroke-width:0.5;" width="15" x="1074.8617" y="517.32"/><rect fill="#F1F1F1" height="2" style="stroke:#181818;stroke-width:0.5;" width="4" x="1072.8617" y="519.32"/><rect fill="#F1F1F1" height="2" style="stroke:#181818;stroke-width:0.5;" width="4" x="1072.8617" y="523.32"/><text fill="#000000" font-family="Arial" font-size="14" lengthAdjust="spacing" textLength="62.248" x="979.6" y="545.4518">&#171;System&#187;</text><text fill="#000000" font-family="Arial" font-size="14" lengthAdjust="spacing" textLength="90.2617" x="979.6" y="561.5505">knowledge-srv</text></g><!--entity fe_notification--><g class="entity" data-entity="fe_notification" data-source-line="42" data-uid="ent0023" id="entity_fe_notification"><rect fill="#F1F1F1" height="62.1973" rx="5" ry="5" style="stroke:#181818;stroke-width:0.5;" width="130.2549" x="493.87" y="801.32"/><rect fill="#F1F1F1" height="10" style="stroke:#181818;stroke-width:0.5;" width="15" x="604.1249" y="806.32"/><rect fill="#F1F1F1" height="2" style="stroke:#181818;stroke-width:0.5;" width="4" x="602.1249" y="808.32"/><rect fill="#F1F1F1" height="2" style="stroke:#181818;stroke-width:0.5;" width="4" x="602.1249" y="812.32"/><text fill="#000000" font-family="Arial" font-size="14" lengthAdjust="spacing" textLength="62.248" x="508.87" y="834.4518">&#171;System&#187;</text><text fill="#000000" font-family="Arial" font-size="14" lengthAdjust="spacing" textLength="90.2549" x="508.87" y="850.5505">notification-srv</text></g><g class="entity" data-entity="GMN41" data-source-line="63" data-uid="ent0042" id="entity_GMN41"><path d="M300.07,11 L300.07,55.8462 A5,5 0 0 0 305.07,60.8462 L339.86,60.8462 L343.86,530.01 L347.86,60.8462 L382.549,60.8462 A5,5 0 0 0 387.549,55.8462 L387.549,16 L377.549,6 L305.07,6 A5,5 0 0 0 300.07,11" fill="#FFF2CC" style="stroke:#E06666;stroke-width:0.5;"/><path d="M377.549,6 L377.549,13.5 A2.5,2.5 0 0 0 380.049,16 L387.549,16 L377.549,6" fill="#FFF2CC" style="stroke:#E06666;stroke-width:0.5;"/><text fill="#000000" font-family="Arial" font-size="13" lengthAdjust="spacing" textLength="66.479" x="306.07" y="23.1938">campaigns,</text><text fill="#000000" font-family="Arial" font-size="13" lengthAdjust="spacing" textLength="65.0508" x="306.07" y="38.1426">dashboard,</text><text fill="#000000" font-family="Arial" font-size="13" lengthAdjust="spacing" textLength="44.8018" x="306.07" y="53.0913">settings</text></g><!--link fe_user to fe_routes--><g class="link" data-entity-1="fe_user" data-entity-2="fe_routes" data-source-line="44" data-uid="lnk24" id="link_fe_user_fe_routes"><path d="M162.84,842.79 C221.71,842.79 320.86,842.79 320.86,842.79 C320.86,842.79 320.86,690.58 320.86,614.88" fill="none" id="fe_user-to-fe_routes" style="stroke:#000000;stroke-width:1;"/><polygon fill="#000000" points="320.86,608.88,316.86,617.88,320.86,613.88,324.86,617.88,320.86,608.88" style="stroke:#000000;stroke-width:1;"/></g><!--link fe_routes to fe_auth--><g class="link" data-entity-1="fe_routes" data-entity-2="fe_auth" data-source-line="45" data-uid="lnk25" id="link_fe_routes_fe_auth"><path d="M400.86,529.84 C400.86,466.5 400.86,349.42 400.86,349.42 C400.86,349.42 436.9,349.42 477.63,349.42" fill="none" id="fe_routes-to-fe_auth" style="stroke:#000000;stroke-width:1;"/><polygon fill="#000000" points="483.63,349.42,474.63,345.42,478.63,349.42,474.63,353.42,483.63,349.42" style="stroke:#000000;stroke-width:1;"/></g><!--link fe_routes to fe_state--><g class="link" data-entity-1="fe_routes" data-entity-2="fe_state" data-source-line="46" data-uid="lnk26" id="link_fe_routes_fe_state"><path d="M393.86,529.91 C393.86,441.71 393.86,236.42 393.86,236.42 C393.86,236.42 435.85,236.42 480.08,236.42" fill="none" id="fe_routes-to-fe_state" style="stroke:#000000;stroke-width:1;"/><polygon fill="#000000" points="486.08,236.42,477.08,232.42,481.08,236.42,477.08,240.42,486.08,236.42" style="stroke:#000000;stroke-width:1;"/></g><!--link fe_routes to fe_assistant--><g class="link" data-entity-1="fe_routes" data-entity-2="fe_assistant" data-source-line="47" data-uid="lnk27" id="link_fe_routes_fe_assistant"><path d="M414.5,582.47 C447.17,582.47 478.86,582.47 478.86,582.47 C478.86,582.47 478.86,608.98 478.86,636.92" fill="none" id="fe_routes-to-fe_assistant" style="stroke:#000000;stroke-width:1;"/><polygon fill="#000000" points="478.86,642.92,482.86,633.92,478.86,637.92,474.86,633.92,478.86,642.92" style="stroke:#000000;stroke-width:1;"/></g><!--link fe_routes to fe_reports--><g class="link" data-entity-1="fe_routes" data-entity-2="fe_reports" data-source-line="48" data-uid="lnk28" id="link_fe_routes_fe_reports"><path d="M414.27,556.37 C437.56,556.37 457.49,556.37 480.9,556.37" fill="none" id="fe_routes-to-fe_reports" style="stroke:#000000;stroke-width:1;"/><polygon fill="#000000" points="486.9,556.37,477.9,552.37,481.9,556.37,477.9,560.37,486.9,556.37" style="stroke:#000000;stroke-width:1;"/></g><!--link fe_assistant to fe_api--><g class="link" data-entity-1="fe_assistant" data-entity-2="fe_api" data-source-line="49" data-uid="lnk29" id="link_fe_assistant_fe_api"><path d="M636.86,643.04 C636.86,558.86 636.86,369 636.86,369 C636.86,369 686.07,369 733.08,369" fill="none" id="fe_assistant-to-fe_api" style="stroke:#000000;stroke-width:1;"/><polygon fill="#000000" points="739.08,369,730.08,365,734.08,369,730.08,373,739.08,369" style="stroke:#000000;stroke-width:1;"/><text fill="#000000" font-family="Arial" font-size="13" lengthAdjust="spacing" textLength="91.7744" x="544.86" y="468.1038">knowledge calls</text></g><!--link fe_reports to fe_api--><g class="link" data-entity-1="fe_reports" data-entity-2="fe_api" data-source-line="50" data-uid="lnk30" id="link_fe_reports_fe_api"><path d="M631.14,552.4 C703.37,552.4 803.86,552.4 803.86,552.4 C803.86,552.4 803.86,454.11 803.86,395.04" fill="none" id="fe_reports-to-fe_api" style="stroke:#000000;stroke-width:1;"/><polygon fill="#000000" points="803.86,389.04,799.86,398.04,803.86,394.04,807.86,398.04,803.86,389.04" style="stroke:#000000;stroke-width:1;"/><text fill="#000000" font-family="Arial" font-size="13" lengthAdjust="spacing" textLength="63.5781" x="735.18" y="565.5938">report calls</text></g><!--link fe_auth to fe_api--><g class="link" data-entity-1="fe_auth" data-entity-2="fe_api" data-source-line="51" data-uid="lnk31" id="link_fe_auth_fe_api"><path d="M634.26,349.42 C667.78,349.42 700.87,349.42 733.12,349.42" fill="none" id="fe_auth-to-fe_api" style="stroke:#000000;stroke-width:1;"/><polygon fill="#000000" points="739.12,349.42,730.12,345.42,734.12,349.42,730.12,353.42,739.12,349.42" style="stroke:#000000;stroke-width:1;"/><text fill="#000000" font-family="Arial" font-size="13" lengthAdjust="spacing" textLength="56.3608" x="629.69" y="362.6138">login, /me</text></g><!--link fe_state to fe_api--><g class="link" data-entity-1="fe_state" data-entity-2="fe_api" data-source-line="52" data-uid="lnk32" id="link_fe_state_fe_api"><path d="M631.79,236.42 C637.35,236.42 640.86,236.42 640.86,236.42 C640.86,236.42 640.86,329.85 640.86,329.85 C640.86,329.85 687.65,329.85 733.23,329.85" fill="none" id="fe_state-to-fe_api" style="stroke:#000000;stroke-width:1;"/><polygon fill="#000000" points="739.23,329.85,730.23,325.85,734.23,329.85,730.23,333.85,739.23,329.85" style="stroke:#000000;stroke-width:1;"/><text fill="#000000" font-family="Arial" font-size="13" lengthAdjust="spacing" textLength="64.3145" x="641.86" y="340.9738">query state</text></g><!--link fe_routes to fe_analytics--><g class="link" data-entity-1="fe_routes" data-entity-2="fe_analytics" data-source-line="53" data-uid="lnk33" id="link_fe_routes_fe_analytics"><path d="M407.86,529.83 C407.86,493.87 407.86,446.42 407.86,446.42 C407.86,446.42 731.86,446.42 731.86,446.42 C731.86,446.42 731.86,342.75 731.86,281.92" fill="none" id="fe_routes-to-fe_analytics" style="stroke:#000000;stroke-width:1;"/><polygon fill="#000000" points="731.86,275.92,727.86,284.92,731.86,280.92,735.86,284.92,731.86,275.92" style="stroke:#000000;stroke-width:1;"/><text fill="#000000" font-family="Arial" font-size="13" lengthAdjust="spacing" textLength="97.5571" x="515.41" y="443.6138">dashboard views</text></g><!--link fe_analytics to fe_metabase--><g class="link" data-entity-1="fe_analytics" data-entity-2="fe_metabase" data-source-line="54" data-uid="lnk34" id="link_fe_analytics_fe_metabase"><path d="M885.09,209.3 C949.81,209.3 1029.86,209.3 1029.86,209.3 C1029.86,209.3 1029.86,204.43 1029.86,192.45" fill="none" id="fe_analytics-to-fe_metabase" style="stroke:#008000;stroke-width:1;"/><polygon fill="#008000" points="1029.86,186.45,1025.86,195.45,1029.86,191.45,1033.86,195.45,1029.86,186.45" style="stroke:#008000;stroke-width:1;"/><text fill="#000000" font-family="Arial" font-size="13" lengthAdjust="spacing" textLength="82.3862" x="885.9" y="222.4938">dataset, query</text></g><!--link fe_api to fe_identity--><g class="link" data-entity-1="fe_api" data-entity-2="fe_identity" data-source-line="55" data-uid="lnk35" id="link_fe_api_fe_identity"><path d="M869.53,314.3 C936.15,314.3 1029.86,314.3 1029.86,314.3 C1029.86,314.3 1029.86,305.07 1029.86,289.72" fill="none" id="fe_api-to-fe_identity" style="stroke:#008000;stroke-width:1;"/><polygon fill="#008000" points="1029.86,283.72,1025.86,292.72,1029.86,288.72,1033.86,292.72,1029.86,283.72" style="stroke:#008000;stroke-width:1;"/><text fill="#000000" font-family="Arial" font-size="13" lengthAdjust="spacing" textLength="34.6709" x="929.98" y="327.4938">REST</text></g><!--link fe_api to fe_project--><g class="link" data-entity-1="fe_api" data-entity-2="fe_project" data-source-line="56" data-uid="lnk36" id="link_fe_api_fe_project"><path d="M869.49,349.42 C903.57,349.42 938.73,349.42 970.8,349.42" fill="none" id="fe_api-to-fe_project" style="stroke:#008000;stroke-width:1;"/><polygon fill="#008000" points="976.8,349.42,967.8,345.42,971.8,349.42,967.8,353.42,976.8,349.42" style="stroke:#008000;stroke-width:1;"/><text fill="#000000" font-family="Arial" font-size="13" lengthAdjust="spacing" textLength="34.6709" x="888.15" y="362.6138">REST</text></g><!--link fe_api to fe_ingest--><g class="link" data-entity-1="fe_api" data-entity-2="fe_ingest" data-source-line="57" data-uid="lnk37" id="link_fe_api_fe_ingest"><path d="M869.53,383.2 C936.15,383.2 1029.86,383.2 1029.86,383.2 C1029.86,383.2 1029.86,393.26 1029.86,409.18" fill="none" id="fe_api-to-fe_ingest" style="stroke:#008000;stroke-width:1;"/><polygon fill="#008000" points="1029.86,415.18,1033.86,406.18,1029.86,410.18,1025.86,406.18,1029.86,415.18" style="stroke:#008000;stroke-width:1;"/><text fill="#000000" font-family="Arial" font-size="13" lengthAdjust="spacing" textLength="34.6709" x="930.69" y="396.3938">REST</text></g><!--link fe_api to fe_knowledge--><g class="link" data-entity-1="fe_api" data-entity-2="fe_knowledge" data-source-line="58" data-uid="lnk38" id="link_fe_api_fe_knowledge"><path d="M869.25,385.89 C915.64,385.89 969.86,385.89 969.86,385.89 C969.86,385.89 969.86,459.95 969.86,505.92" fill="none" id="fe_api-to-fe_knowledge" style="stroke:#008000;stroke-width:1;"/><polygon fill="#008000" points="969.86,511.92,973.86,502.92,969.86,506.92,965.86,502.92,969.86,511.92" style="stroke:#008000;stroke-width:1;"/><text fill="#000000" font-family="Arial" font-size="13" lengthAdjust="spacing" textLength="34.6709" x="970.86" y="411.7938">REST</text></g><!--link fe_routes to fe_notification--><g class="link" data-entity-1="fe_routes" data-entity-2="fe_notification" data-source-line="59" data-uid="lnk39" id="link_fe_routes_fe_notification"><path d="M366.86,608.9 C366.86,679.95 366.86,822.06 366.86,822.06 C366.86,822.06 431.75,822.06 487.41,822.06" fill="none" id="fe_routes-to-fe_notification" style="stroke:#F39C12;stroke-width:1;"/><polygon fill="#F39C12" points="493.41,822.06,484.41,818.06,488.41,822.06,484.41,826.06,493.41,822.06" style="stroke:#F39C12;stroke-width:1;"/><text fill="#000000" font-family="Arial" font-size="13" lengthAdjust="spacing" textLength="127.8989" x="238.86" y="791.9438">websocket-capable UI</text></g><!--link fe_electron to fe_routes--><g class="link" data-entity-1="fe_electron" data-entity-2="fe_routes" data-source-line="60" data-uid="lnk40" id="link_fe_electron_fe_routes"><path d="M193.8,569.42 C219.37,569.42 241.99,569.42 267.31,569.42" fill="none" id="fe_electron-to-fe_routes" style="stroke:#000000;stroke-width:1;"/><polygon fill="#000000" points="273.31,569.42,264.31,565.42,268.31,569.42,264.31,573.42,273.31,569.42" style="stroke:#000000;stroke-width:1;"/><text fill="#000000" font-family="Arial" font-size="13" lengthAdjust="spacing" textLength="73.7153" x="159.55" y="582.6138">desktop host</text></g><g class="legend" data-source-line="68"><rect fill="#DDDDDD" height="78.3945" rx="5" ry="5" style="stroke:#000000;stroke-width:1;" width="157.0068" x="917.8549" y="910.0505"/><text fill="#000000" font-family="Arial" font-size="14" font-weight="bold" lengthAdjust="spacing" textLength="36.5518" x="926.7445" y="930.1823">Color</text><text fill="#000000" font-family="Arial" font-size="14" font-weight="bold" lengthAdjust="spacing" textLength="56.7793" x="971.0756" y="930.1823">Protocol</text><rect fill="#008000" height="16.0986" style="stroke:none;stroke-width:1;" width="44.3311" x="922.8549" y="933.1491"/><text fill="#000000" font-family="Arial" font-size="14" lengthAdjust="spacing" textLength="7.7793" x="922.8549" y="946.2809">&#160;&#160;</text><text fill="#000000" font-family="Arial" font-size="14" lengthAdjust="spacing" textLength="94.8965" x="971.0756" y="946.2809">HTTPS / JSON</text><rect fill="#F39C12" height="16.0986" style="stroke:none;stroke-width:1;" width="44.3311" x="922.8549" y="949.2477"/><text fill="#000000" font-family="Arial" font-size="14" lengthAdjust="spacing" textLength="7.7793" x="922.8549" y="962.3796">&#160;&#160;</text><text fill="#000000" font-family="Arial" font-size="14" lengthAdjust="spacing" textLength="71.5859" x="971.0756" y="962.3796">WebSocket</text><rect fill="#000000" height="16.0986" style="stroke:none;stroke-width:1;" width="44.3311" x="922.8549" y="965.3464"/><text fill="#000000" font-family="Arial" font-size="14" lengthAdjust="spacing" textLength="7.7793" x="922.8549" y="978.4782">&#160;&#160;</text><text fill="#000000" font-family="Arial" font-size="14" lengthAdjust="spacing" textLength="74.7031" x="971.0756" y="978.4782">Internal Call</text><line style="stroke:#000000;stroke-width:1;" x1="922.8549" x2="1069.8617" y1="917.0505" y2="917.0505"/><line style="stroke:#000000;stroke-width:1;" x1="922.8549" x2="1069.8617" y1="933.1491" y2="933.1491"/><line style="stroke:#000000;stroke-width:1;" x1="922.8549" x2="1069.8617" y1="949.2477" y2="949.2477"/><line style="stroke:#000000;stroke-width:1;" x1="922.8549" x2="1069.8617" y1="965.3464" y2="965.3464"/><line style="stroke:#000000;stroke-width:1;" x1="922.8549" x2="1069.8617" y1="981.445" y2="981.445"/><line style="stroke:#000000;stroke-width:1;" x1="922.8549" x2="922.8549" y1="917.0505" y2="981.445"/><line style="stroke:#000000;stroke-width:1;" x1="967.1859" x2="967.1859" y1="917.0505" y2="981.445"/><line style="stroke:#000000;stroke-width:1;" x1="1069.8617" x2="1069.8617" y1="917.0505" y2="981.445"/></g><!--SRC=[ZLRTRjis5BxdKnoujmcQfi2m5Ls1r8ixxwSBeWIzM8Q1bevapXIfaLGyeTaJxH5sroVRuOzafe7c2Z10ylk-yyT3qdOdLCSDRw72clVIhRHoxtcBS644bynEkDtoIk-5Qg3cqcA6bBhjj4Bb2ZT8XBwLvndQyNB76uoOmT9nrSXSRdIlgb8RXGPUd6M050hTq25euxOw0vHs-9RCDa6wr58RUBPQhSwNoyzPsbHe4kFox2lwcCJQWTDWHBDrK0aVaz2AiIauMAmCbG5L1HTT9qN9FM417ncCwS3Yog2bd0C4F_41JIHabDir5BsfUObsnE1GBLXy-cUQVFhtJf4lkDQzGmjSLNUAZD8CYYrAkG1keSRVJS2FclfHwRt4YeAui5POIilTgHJBQ8gFo55hrzZH5i07RNQrrFidbap0OrH_C__B2vMLSAPE1LKHlwX2lTlwsa215BnM54cKfem8FcgZG7DFdHQ4gSwwv98MjF7x54rP3qy9vTbShKC4xmZVy-6BeYR9KWeF1NzNHlyrf9sUGk_4SJkAoy69ChN7p-ZuXbiyX99CZRIP_LYhsd3hJ5-wtk3ZBPbtVYdfTD2fWE_Gxfpkg91vNsA2WpVonqigfpToQz5u_LkZzpG4Fnz5FOrPnLCQH2u6wx3rz36vaTgcENiKuO4lAbeIRZYrvdxKZ6jpcixeFoZgN9AMPhse1kqZGLoPu-_6OvXBfiKv5LrSeaud9XVcwuob-i7fhy_EmlVRwPliXfX6JmZXbCp3iVF_HpvT6_ESyKB8wKyDTG9UmLGDe4CeOznHFIE8w87jqvcXIjq8TGBFsv1FI6o6-MUFPe2ZgKy7y1LKt6utcfiAxWNkOoGJ78HV7uHZzmQTeu4xYIvPYk1pmTYw9BY-B6xcQAbTZx1YZnuX7VRXm3kKOVNoc-MByqJD-v3OUznONUxGdPQyunjwFc_NBBiIPZhKro9U9R3LT8IOVwzXevtJBUWwQ-MIjnqNZR8dRAhw2QCYEihCClzCUosZbxtna_2miuTl8RxxDA0Rr-bIItXW3wzJtcy07k3xcvkh0fx33yKlxoCOCmtW1zmK8R5HTZRArlJdmD1kmvAwa53o6dt_1m00]--></g></svg>