<svg xmlns="http://www.w3.org/2000/svg" xmlns:xlink="http://www.w3.org/1999/xlink" contentStyleType="text/css" data-diagram-type="DESCRIPTION" height="742px" preserveAspectRatio="none" style="width:1096px;height:742px;background:#FFFFFF;" version="1.1" viewBox="0 0 1096 742" width="1096px" zoomAndPan="magnify"><defs/><g><!--cluster Ingest Service--><g class="cluster" data-entity="Ingest Service" data-source-line="11" data-uid="ent0002" id="cluster_Ingest Service"><rect fill="none" height="406" rx="5" ry="5" style="stroke:#181818;stroke-width:1;" width="947.5" x="7" y="76.42"/><text fill="#000000" font-family="Arial" font-size="14" font-weight="bold" lengthAdjust="spacing" textLength="94.9375" x="433.2813" y="91.5518">Ingest Service</text></g><!--cluster Presentation Layer (Delivery)--><g class="cluster" data-entity="Presentation Layer .Delivery." data-source-line="12" data-uid="ent0003" id="cluster_Presentation Layer .Delivery."><rect fill="none" height="129" rx="5" ry="5" style="stroke:#181818;stroke-width:1;" width="209" x="31" y="143.42"/><text fill="#000000" font-family="Arial" font-size="14" font-weight="bold" lengthAdjust="spacing" textLength="193.7441" x="38.6279" y="158.5518">Presentation Layer (Delivery)</text></g><!--cluster Application Layer (UseCase)--><g class="cluster" data-entity="Application Layer .UseCase." data-source-line="16" data-uid="ent0005" id="cluster_Application Layer .UseCase."><rect fill="none" height="307" rx="5" ry="5" style="stroke:#181818;stroke-width:1;" width="395.31" x="292" y="151.42"/><text fill="#000000" font-family="Arial" font-size="14" font-weight="bold" lengthAdjust="spacing" textLength="189.834" x="394.738" y="166.5518">Application Layer (UseCase)</text></g><!--cluster Infrastructure Layer--><g class="cluster" data-entity="Infrastructure Layer" data-source-line="23" data-uid="ent0010" id="cluster_Infrastructure Layer"><rect fill="none" height="339" rx="5" ry="5" style="stroke:#181818;stroke-width:1;" width="215.19" x="715.31" y="119.42"/><text fill="#000000" font-family="Arial" font-size="14" font-weight="bold" lengthAdjust="spacing" textLength="132.2686" x="756.7707" y="134.5518">Infrastructure Layer</text></g><!--entity ig_handler--><g class="entity" data-entity="ig_handler" data-source-line="13" data-uid="ent0004" id="entity_ig_handler"><rect fill="#F1F1F1" height="78.2959" rx="5" ry="5" style="stroke:#181818;stroke-width:0.5;" width="170.7168" x="49.64" y="178.27"/><rect fill="#F1F1F1" height="10" style="stroke:#181818;stroke-width:0.5;" width="15" x="200.3568" y="183.27"/><rect fill="#F1F1F1" height="2" style="stroke:#181818;stroke-width:0.5;" width="4" x="198.3568" y="185.27"/><rect fill="#F1F1F1" height="2" style="stroke:#181818;stroke-width:0.5;" width="4" x="198.3568" y="189.27"/><text fill="#000000" font-family="Arial" font-size="14" lengthAdjust="spacing" textLength="84.8408" x="64.64" y="211.4018">&#171;component&#187;</text><text fill="#000000" font-family="Arial" font-size="14" lengthAdjust="spacing" textLength="130.7168" x="64.64" y="227.5005">Datasource / DryRun</text><text fill="#000000" font-family="Arial" font-size="14" lengthAdjust="spacing" textLength="56.0273" x="64.64" y="243.5991">Handlers</text></g><!--entity ig_datasource--><g class="entity" data-entity="ig_datasource" data-source-line="17" data-uid="ent0006" id="entity_ig_datasource"><rect fill="#F1F1F1" height="62.1973" rx="5" ry="5" style="stroke:#181818;stroke-width:0.5;" width="173.0615" x="308" y="186.32"/><rect fill="#F1F1F1" height="10" style="stroke:#181818;stroke-width:0.5;" width="15" x="461.0615" y="191.32"/><rect fill="#F1F1F1" height="2" style="stroke:#181818;stroke-width:0.5;" width="4" x="459.0615" y="193.32"/><rect fill="#F1F1F1" height="2" style="stroke:#181818;stroke-width:0.5;" width="4" x="459.0615" y="197.32"/><text fill="#000000" font-family="Arial" font-size="14" lengthAdjust="spacing" textLength="73.1514" x="323" y="219.4518">&#171;UseCase&#187;</text><text fill="#000000" font-family="Arial" font-size="14" lengthAdjust="spacing" textLength="133.0615" x="323" y="235.5505">Datasource UseCase</text></g><!--entity ig_dryrun--><g class="entity" data-entity="ig_dryrun" data-source-line="18" data-uid="ent0007" id="entity_ig_dryrun"><rect fill="#F1F1F1" height="62.1973" rx="5" ry="5" style="stroke:#181818;stroke-width:0.5;" width="148.9238" x="320.07" y="283.32"/><rect fill="#F1F1F1" height="10" style="stroke:#181818;stroke-width:0.5;" width="15" x="448.9938" y="288.32"/><rect fill="#F1F1F1" height="2" style="stroke:#181818;stroke-width:0.5;" width="4" x="446.9938" y="290.32"/><rect fill="#F1F1F1" height="2" style="stroke:#181818;stroke-width:0.5;" width="4" x="446.9938" y="294.32"/><text fill="#000000" font-family="Arial" font-size="14" lengthAdjust="spacing" textLength="73.1514" x="335.07" y="316.4518">&#171;UseCase&#187;</text><text fill="#000000" font-family="Arial" font-size="14" lengthAdjust="spacing" textLength="108.9238" x="335.07" y="332.5505">DryRun UseCase</text></g><!--entity ig_exec--><g class="entity" data-entity="ig_exec" data-source-line="19" data-uid="ent0008" id="entity_ig_exec"><rect fill="#F1F1F1" height="62.1973" rx="5" ry="5" style="stroke:#181818;stroke-width:0.5;" width="162.9512" x="313.05" y="380.32"/><rect fill="#F1F1F1" height="10" style="stroke:#181818;stroke-width:0.5;" width="15" x="456.0012" y="385.32"/><rect fill="#F1F1F1" height="2" style="stroke:#181818;stroke-width:0.5;" width="4" x="454.0012" y="387.32"/><rect fill="#F1F1F1" height="2" style="stroke:#181818;stroke-width:0.5;" width="4" x="454.0012" y="391.32"/><text fill="#000000" font-family="Arial" font-size="14" lengthAdjust="spacing" textLength="73.1514" x="328.05" y="413.4518">&#171;UseCase&#187;</text><text fill="#000000" font-family="Arial" font-size="14" lengthAdjust="spacing" textLength="122.9512" x="328.05" y="429.5505">Execution UseCase</text></g><!--entity ig_uap--><g class="entity" data-entity="ig_uap" data-source-line="20" data-uid="ent0009" id="entity_ig_uap"><rect fill="#F1F1F1" height="62.1973" rx="5" ry="5" style="stroke:#181818;stroke-width:0.5;" width="130.2549" x="541.06" y="380.32"/><rect fill="#F1F1F1" height="10" style="stroke:#181818;stroke-width:0.5;" width="15" x="651.3149" y="385.32"/><rect fill="#F1F1F1" height="2" style="stroke:#181818;stroke-width:0.5;" width="4" x="649.3149" y="387.32"/><rect fill="#F1F1F1" height="2" style="stroke:#181818;stroke-width:0.5;" width="4" x="649.3149" y="391.32"/><text fill="#000000" font-family="Arial" font-size="14" lengthAdjust="spacing" textLength="73.1514" x="556.06" y="413.4518">&#171;UseCase&#187;</text><text fill="#000000" font-family="Arial" font-size="14" lengthAdjust="spacing" textLength="90.2549" x="556.06" y="429.5505">UAP UseCase</text></g><!--entity ig_repo--><g class="entity" data-entity="ig_repo" data-source-line="24" data-uid="ent0011" id="entity_ig_repo"><rect fill="#F1F1F1" height="78.2959" rx="5" ry="5" style="stroke:#181818;stroke-width:0.5;" width="183.1855" x="731.31" y="267.27"/><rect fill="#F1F1F1" height="10" style="stroke:#181818;stroke-width:0.5;" width="15" x="894.4955" y="272.27"/><rect fill="#F1F1F1" height="2" style="stroke:#181818;stroke-width:0.5;" width="4" x="892.4955" y="274.27"/><rect fill="#F1F1F1" height="2" style="stroke:#181818;stroke-width:0.5;" width="4" x="892.4955" y="278.27"/><text fill="#000000" font-family="Arial" font-size="14" lengthAdjust="spacing" textLength="82.4893" x="746.31" y="300.4018">&#171;Repository&#187;</text><text fill="#000000" font-family="Arial" font-size="14" lengthAdjust="spacing" textLength="138.4961" x="746.31" y="316.5005">Datasource / DryRun /</text><text fill="#000000" font-family="Arial" font-size="14" lengthAdjust="spacing" textLength="143.1855" x="746.31" y="332.5991">Execution Repositories</text></g><!--entity ig_project--><g class="entity" data-entity="ig_project" data-source-line="25" data-uid="ent0012" id="entity_ig_project"><rect fill="#F1F1F1" height="78.2959" rx="5" ry="5" style="stroke:#181818;stroke-width:0.5;" width="134.1445" x="755.84" y="154.27"/><rect fill="#F1F1F1" height="10" style="stroke:#181818;stroke-width:0.5;" width="15" x="869.9845" y="159.27"/><rect fill="#F1F1F1" height="2" style="stroke:#181818;stroke-width:0.5;" width="4" x="867.9845" y="161.27"/><rect fill="#F1F1F1" height="2" style="stroke:#181818;stroke-width:0.5;" width="4" x="867.9845" y="165.27"/><text fill="#000000" font-family="Arial" font-size="14" lengthAdjust="spacing" textLength="84.8408" x="770.84" y="187.4018">&#171;component&#187;</text><text fill="#000000" font-family="Arial" font-size="14" lengthAdjust="spacing" textLength="94.1445" x="770.84" y="203.5005">Project Service</text><text fill="#000000" font-family="Arial" font-size="14" lengthAdjust="spacing" textLength="35.793" x="770.84" y="219.5991">Client</text></g><!--entity ig_pub--><g class="entity" data-entity="ig_pub" data-source-line="26" data-uid="ent0013" id="entity_ig_pub"><rect fill="#F1F1F1" height="62.1973" rx="5" ry="5" style="stroke:#181818;stroke-width:0.5;" width="131.041" x="757.39" y="380.32"/><rect fill="#F1F1F1" height="10" style="stroke:#181818;stroke-width:0.5;" width="15" x="868.431" y="385.32"/><rect fill="#F1F1F1" height="2" style="stroke:#181818;stroke-width:0.5;" width="4" x="866.431" y="387.32"/><rect fill="#F1F1F1" height="2" style="stroke:#181818;stroke-width:0.5;" width="4" x="866.431" y="391.32"/><text fill="#000000" font-family="Arial" font-size="14" lengthAdjust="spacing" textLength="84.8408" x="772.39" y="413.4518">&#171;component&#187;</text><text fill="#000000" font-family="Arial" font-size="14" lengthAdjust="spacing" textLength="91.041" x="772.39" y="429.5505">UAP Publisher</text></g><!--entity ig_pg--><g class="entity" data-entity="ig_pg" data-source-line="30" data-uid="ent0014" id="entity_ig_pg"><path d="M983.45,285.82 C983.45,275.82 1031.5809,275.82 1031.5809,275.82 C1031.5809,275.82 1079.7117,275.82 1079.7117,285.82 L1079.7117,327.0173 C1079.7117,337.0173 1031.5809,337.0173 1031.5809,337.0173 C1031.5809,337.0173 983.45,337.0173 983.45,327.0173 L983.45,285.82" fill="#F1F1F1" style="stroke:#181818;stroke-width:0.5;"/><path d="M983.45,285.82 C983.45,295.82 1031.5809,295.82 1031.5809,295.82 C1031.5809,295.82 1079.7117,295.82 1079.7117,285.82" fill="none" style="stroke:#181818;stroke-width:0.5;"/><text fill="#000000" font-family="Arial" font-size="14" lengthAdjust="spacing" textLength="62.248" x="993.45" y="312.9518">&#171;System&#187;</text><text fill="#000000" font-family="Arial" font-size="14" lengthAdjust="spacing" textLength="76.2617" x="993.45" y="329.0505">PostgreSQL</text></g><!--entity ig_taskq--><g class="entity" data-entity="ig_taskq" data-source-line="31" data-uid="ent0015" id="entity_ig_taskq"><path d="M554.89,498.27 L657.4759,498.27 C662.4759,498.27 662.4759,527.4179 662.4759,527.4179 C662.4759,527.4179 662.4759,556.5659 657.4759,556.5659 L554.89,556.5659 C549.89,556.5659 549.89,527.4179 549.89,527.4179 C549.89,527.4179 549.89,498.27 554.89,498.27" fill="#F1F1F1" style="stroke:#181818;stroke-width:0.5;"/><path d="M657.4759,498.27 C652.4759,498.27 652.4759,527.4179 652.4759,527.4179 C652.4759,556.5659 657.4759,556.5659 657.4759,556.5659" fill="none" style="stroke:#181818;stroke-width:0.5;"/><text fill="#000000" font-family="Arial" font-size="14" lengthAdjust="spacing" textLength="62.248" x="554.89" y="516.4018">&#171;System&#187;</text><text fill="#000000" font-family="Arial" font-size="14" lengthAdjust="spacing" textLength="92.5859" x="554.89" y="532.5005">RabbitMQ task</text><text fill="#000000" font-family="Arial" font-size="14" lengthAdjust="spacing" textLength="45.9307" x="554.89" y="548.5991">queues</text></g><!--entity ig_completionq--><g class="entity" data-entity="ig_completionq" data-source-line="32" data-uid="ent0016" id="entity_ig_completionq"><path d="M62.69,498.27 L207.3033,498.27 C212.3033,498.27 212.3033,527.4179 212.3033,527.4179 C212.3033,527.4179 212.3033,556.5659 207.3033,556.5659 L62.69,556.5659 C57.69,556.5659 57.69,527.4179 57.69,527.4179 C57.69,527.4179 57.69,498.27 62.69,498.27" fill="#F1F1F1" style="stroke:#181818;stroke-width:0.5;"/><path d="M207.3033,498.27 C202.3033,498.27 202.3033,527.4179 202.3033,527.4179 C202.3033,556.5659 207.3033,556.5659 207.3033,556.5659" fill="none" style="stroke:#181818;stroke-width:0.5;"/><text fill="#000000" font-family="Arial" font-size="14" lengthAdjust="spacing" textLength="62.248" x="62.69" y="516.4018">&#171;System&#187;</text><text fill="#000000" font-family="Arial" font-size="14" lengthAdjust="spacing" textLength="134.6133" x="62.69" y="532.5005">RabbitMQ completion</text><text fill="#000000" font-family="Arial" font-size="14" lengthAdjust="spacing" textLength="45.9307" x="62.69" y="548.5991">queues</text></g><!--entity ig_minio--><g class="entity" data-entity="ig_minio" data-source-line="33" data-uid="ent0017" id="entity_ig_minio"><path d="M781.78,548.82 C781.78,538.82 822.904,538.82 822.904,538.82 C822.904,538.82 864.028,538.82 864.028,548.82 L864.028,590.0173 C864.028,600.0173 822.904,600.0173 822.904,600.0173 C822.904,600.0173 781.78,600.0173 781.78,590.0173 L781.78,548.82" fill="#F1F1F1" style="stroke:#181818;stroke-width:0.5;"/><path d="M781.78,548.82 C781.78,558.82 822.904,558.82 822.904,558.82 C822.904,558.82 864.028,558.82 864.028,548.82" fill="none" style="stroke:#181818;stroke-width:0.5;"/><text fill="#000000" font-family="Arial" font-size="14" lengthAdjust="spacing" textLength="62.248" x="791.78" y="575.9518">&#171;System&#187;</text><text fill="#000000" font-family="Arial" font-size="14" lengthAdjust="spacing" textLength="37.3379" x="791.78" y="592.0505">MinIO</text></g><!--entity ig_kafka--><g class="entity" data-entity="ig_kafka" data-source-line="34" data-uid="ent0018" id="entity_ig_kafka"><path d="M979.5,382.27 L1083.6582,382.27 C1088.6582,382.27 1088.6582,411.4179 1088.6582,411.4179 C1088.6582,411.4179 1088.6582,440.5659 1083.6582,440.5659 L979.5,440.5659 C974.5,440.5659 974.5,411.4179 974.5,411.4179 C974.5,411.4179 974.5,382.27 979.5,382.27" fill="#F1F1F1" style="stroke:#181818;stroke-width:0.5;"/><path d="M1083.6582,382.27 C1078.6582,382.27 1078.6582,411.4179 1078.6582,411.4179 C1078.6582,440.5659 1083.6582,440.5659 1083.6582,440.5659" fill="none" style="stroke:#181818;stroke-width:0.5;"/><text fill="#000000" font-family="Arial" font-size="14" lengthAdjust="spacing" textLength="62.248" x="979.5" y="400.4018">&#171;System&#187;</text><text fill="#000000" font-family="Arial" font-size="14" lengthAdjust="spacing" textLength="94.1582" x="979.5" y="416.5005">Kafka analytics</text><text fill="#000000" font-family="Arial" font-size="14" lengthAdjust="spacing" textLength="30.3584" x="979.5" y="432.5991">input</text></g><!--entity ig_project_srv--><g class="entity" data-entity="ig_project_srv" data-source-line="35" data-uid="ent0019" id="entity_ig_project_srv"><rect fill="#F1F1F1" height="62.1973" rx="5" ry="5" style="stroke:#181818;stroke-width:0.5;" width="105.3447" x="978.91" y="162.32"/><rect fill="#F1F1F1" height="10" style="stroke:#181818;stroke-width:0.5;" width="15" x="1064.2547" y="167.32"/><rect fill="#F1F1F1" height="2" style="stroke:#181818;stroke-width:0.5;" width="4" x="1062.2547" y="169.32"/><rect fill="#F1F1F1" height="2" style="stroke:#181818;stroke-width:0.5;" width="4" x="1062.2547" y="173.32"/><text fill="#000000" font-family="Arial" font-size="14" lengthAdjust="spacing" textLength="62.248" x="993.91" y="195.4518">&#171;System&#187;</text><text fill="#000000" font-family="Arial" font-size="14" lengthAdjust="spacing" textLength="65.3447" x="993.91" y="211.5505">project-srv</text></g><g class="entity" data-entity="GMN36" data-source-line="55" data-uid="ent0037" id="entity_GMN36"><path d="M69.95,11 L69.95,55.8462 A5,5 0 0 0 74.95,60.8462 L130.66,60.8462 L134.66,177.95 L138.66,60.8462 L195.0472,60.8462 A5,5 0 0 0 200.0472,55.8462 L200.0472,16 L190.0472,6 L74.95,6 A5,5 0 0 0 69.95,11" fill="#FFF2CC" style="stroke:#E06666;stroke-width:0.5;"/><path d="M190.0472,6 L190.0472,13.5 A2.5,2.5 0 0 0 192.5472,16 L200.0472,16 L190.0472,6" fill="#FFF2CC" style="stroke:#E06666;stroke-width:0.5;"/><text fill="#000000" font-family="Arial" font-size="13" lengthAdjust="spacing" textLength="109.0972" x="75.95" y="23.1938">datasource CRUD,</text><text fill="#000000" font-family="Arial" font-size="13" lengthAdjust="spacing" textLength="76.5972" x="75.95" y="38.1426">target routes,</text><text fill="#000000" font-family="Arial" font-size="13" lengthAdjust="spacing" textLength="76.5908" x="75.95" y="53.0913">dryrun routes</text></g><!--link ig_handler to ig_datasource--><g class="link" data-entity-1="ig_handler" data-entity-2="ig_datasource" data-source-line="37" data-uid="lnk20" id="link_ig_handler_ig_datasource"><path d="M220.7,217.42 C248.6,217.42 273.59,217.42 301.59,217.42" fill="none" id="ig_handler-to-ig_datasource" style="stroke:#000000;stroke-width:1;"/><polygon fill="#000000" points="307.59,217.42,298.59,213.42,302.59,217.42,298.59,221.42,307.59,217.42" style="stroke:#000000;stroke-width:1;"/></g><!--link ig_handler to ig_dryrun--><g class="link" data-entity-1="ig_handler" data-entity-2="ig_dryrun" data-source-line="38" data-uid="lnk21" id="link_ig_handler_ig_dryrun"><path d="M216.66,256.87 C216.66,283.73 216.66,314.42 216.66,314.42 C216.66,314.42 265,314.42 313.61,314.42" fill="none" id="ig_handler-to-ig_dryrun" style="stroke:#000000;stroke-width:1;"/><polygon fill="#000000" points="319.61,314.42,310.61,310.42,314.61,314.42,310.61,318.42,319.61,314.42" style="stroke:#000000;stroke-width:1;"/></g><!--link ig_datasource to ig_repo--><g class="link" data-entity-1="ig_datasource" data-entity-2="ig_repo" data-source-line="39" data-uid="lnk22" id="link_ig_datasource_ig_repo"><path d="M473.66,248.73 C473.66,262.37 473.66,275.3 473.66,275.3 C473.66,275.3 621.67,275.3 725.15,275.3" fill="none" id="ig_datasource-to-ig_repo" style="stroke:#000000;stroke-width:1;"/><polygon fill="#000000" points="731.15,275.3,722.15,271.3,726.15,275.3,722.15,279.3,731.15,275.3" style="stroke:#000000;stroke-width:1;"/></g><!--link ig_datasource to ig_project--><g class="link" data-entity-1="ig_datasource" data-entity-2="ig_project" data-source-line="40" data-uid="lnk23" id="link_ig_datasource_ig_project"><path d="M481.48,209.45 C562.42,209.45 675.41,209.45 749.42,209.45" fill="none" id="ig_datasource-to-ig_project" style="stroke:#000000;stroke-width:1;"/><polygon fill="#000000" points="755.42,209.45,746.42,205.45,750.42,209.45,746.42,213.45,755.42,209.45" style="stroke:#000000;stroke-width:1;"/><text fill="#000000" font-family="Arial" font-size="13" lengthAdjust="spacing" textLength="87.439" x="530.45" y="222.6438">validate project</text></g><!--link ig_dryrun to ig_repo--><g class="link" data-entity-1="ig_dryrun" data-entity-2="ig_repo" data-source-line="41" data-uid="lnk24" id="link_ig_dryrun_ig_repo"><path d="M469.15,298.87 C541.9,298.87 646.71,298.87 724.89,298.87" fill="none" id="ig_dryrun-to-ig_repo" style="stroke:#000000;stroke-width:1;"/><polygon fill="#000000" points="730.89,298.87,721.89,294.87,725.89,298.87,721.89,302.87,730.89,298.87" style="stroke:#000000;stroke-width:1;"/></g><!--link ig_dryrun to ig_taskq--><g class="link" data-entity-1="ig_dryrun" data-entity-2="ig_taskq" data-source-line="42" data-uid="lnk25" id="link_ig_dryrun_ig_taskq"><path d="M469.39,314.42 C491.86,314.42 510.66,314.42 510.66,314.42 C510.66,314.42 510.66,527.42 510.66,527.42 C510.66,527.42 522.94,527.42 543.51,527.42" fill="none" id="ig_dryrun-to-ig_taskq" style="stroke:#0000FF;stroke-width:1;"/><polygon fill="#0000FF" points="549.51,527.42,540.51,523.42,544.51,527.42,540.51,531.42,549.51,527.42" style="stroke:#0000FF;stroke-width:1;"/><text fill="#000000" font-family="Arial" font-size="13" lengthAdjust="spacing" textLength="75.8735" x="434.66" y="432.9038">dispatch task</text></g><!--link ig_exec to ig_repo--><g class="link" data-entity-1="ig_exec" data-entity-2="ig_repo" data-source-line="43" data-uid="lnk26" id="link_ig_exec_ig_repo"><path d="M471.66,380.16 C471.66,357.19 471.66,329.97 471.66,329.97 C471.66,329.97 621.01,329.97 725.08,329.97" fill="none" id="ig_exec-to-ig_repo" style="stroke:#000000;stroke-width:1;"/><polygon fill="#000000" points="731.08,329.97,722.08,325.97,726.08,329.97,722.08,333.97,731.08,329.97" style="stroke:#000000;stroke-width:1;"/><text fill="#000000" font-family="Arial" font-size="13" lengthAdjust="spacing" textLength="108.3926" x="577.27" y="343.1638">completion context</text></g><!--link ig_completionq to ig_exec--><g class="link" data-entity-1="ig_completionq" data-entity-2="ig_exec" data-source-line="44" data-uid="lnk27" id="link_ig_completionq_ig_exec"><path d="M134.66,497.85 C134.66,463.48 134.66,411.42 134.66,411.42 C134.66,411.42 230.49,411.42 306.66,411.42" fill="none" id="ig_completionq-to-ig_exec" style="stroke:#0000FF;stroke-width:1;"/><polygon fill="#0000FF" points="312.66,411.42,303.66,407.42,307.66,411.42,303.66,415.42,312.66,411.42" style="stroke:#0000FF;stroke-width:1;"/><text fill="#000000" font-family="Arial" font-size="13" lengthAdjust="spacing" textLength="104.7808" x="75.45" y="424.6138">completion events</text></g><!--link ig_exec to ig_minio--><g class="link" data-entity-1="ig_exec" data-entity-2="ig_minio" data-source-line="45" data-uid="lnk28" id="link_ig_exec_ig_minio"><path d="M394.66,442.81 C394.66,491.15 394.66,578.29 394.66,578.29 C394.66,578.29 667.98,578.29 775.46,578.29" fill="none" id="ig_exec-to-ig_minio" style="stroke:#FFA500;stroke-width:1;"/><polygon fill="#FFA500" points="781.46,578.29,772.46,574.29,776.46,578.29,772.46,582.29,781.46,578.29" style="stroke:#FFA500;stroke-width:1;"/><text fill="#000000" font-family="Arial" font-size="13" lengthAdjust="spacing" textLength="73.6836" x="446.31" y="591.4838">verify artifact</text></g><!--link ig_exec to ig_uap--><g class="link" data-entity-1="ig_exec" data-entity-2="ig_uap" data-source-line="46" data-uid="lnk29" id="link_ig_exec_ig_uap"><path d="M476.36,411.42 C497.65,411.42 514.31,411.42 534.63,411.42" fill="none" id="ig_exec-to-ig_uap" style="stroke:#000000;stroke-width:1;"/><polygon fill="#000000" points="540.63,411.42,531.63,407.42,535.63,411.42,531.63,415.42,540.63,411.42" style="stroke:#000000;stroke-width:1;"/><text fill="#000000" font-family="Arial" font-size="13" lengthAdjust="spacing" textLength="92.4917" x="415.5" y="408.6138">parse raw batch</text></g><!--link ig_uap to ig_repo--><g class="link" data-entity-1="ig_uap" data-entity-2="ig_repo" data-source-line="47" data-uid="lnk30" id="link_ig_uap_ig_repo"><path d="M671.77,401.06 C707.56,401.06 744.66,401.06 744.66,401.06 C744.66,401.06 744.66,377.94 744.66,352.01" fill="none" id="ig_uap-to-ig_repo" style="stroke:#000000;stroke-width:1;"/><polygon fill="#000000" points="744.66,346.01,740.66,355.01,744.66,351.01,748.66,355.01,744.66,346.01" style="stroke:#000000;stroke-width:1;"/><text fill="#000000" font-family="Arial" font-size="13" lengthAdjust="spacing" textLength="88.1563" x="646.74" y="414.2538">raw batch state</text></g><!--link ig_uap to ig_minio--><g class="link" data-entity-1="ig_uap" data-entity-2="ig_minio" data-source-line="48" data-uid="lnk31" id="link_ig_uap_ig_minio"><path d="M666.66,442.69 C666.66,482.92 666.66,547.7 666.66,547.7 C666.66,547.7 729.16,547.7 775.45,547.7" fill="none" id="ig_uap-to-ig_minio" style="stroke:#FFA500;stroke-width:1;"/><polygon fill="#FFA500" points="781.45,547.7,772.45,543.7,776.45,547.7,772.45,551.7,781.45,547.7" style="stroke:#FFA500;stroke-width:1;"/><text fill="#000000" font-family="Arial" font-size="13" lengthAdjust="spacing" textLength="93.958" x="672.55" y="560.8938">download object</text></g><!--link ig_uap to ig_pub--><g class="link" data-entity-1="ig_uap" data-entity-2="ig_pub" data-source-line="49" data-uid="lnk32" id="link_ig_uap_ig_pub"><path d="M671.8,421.79 C698.83,421.79 724.1,421.79 751.15,421.79" fill="none" id="ig_uap-to-ig_pub" style="stroke:#000000;stroke-width:1;"/><polygon fill="#000000" points="757.15,421.79,748.15,417.79,752.15,421.79,748.15,425.79,757.15,421.79" style="stroke:#000000;stroke-width:1;"/><text fill="#000000" font-family="Arial" font-size="13" lengthAdjust="spacing" textLength="81.6563" x="632.47" y="434.9838">publish record</text></g><!--link ig_pub to ig_kafka--><g class="link" data-entity-1="ig_pub" data-entity-2="ig_kafka" data-source-line="50" data-uid="lnk33" id="link_ig_pub_ig_kafka"><path d="M888.65,411.42 C916.12,411.42 941.76,411.42 968.27,411.42" fill="none" id="ig_pub-to-ig_kafka" style="stroke:#0000FF;stroke-width:1;"/><polygon fill="#0000FF" points="974.27,411.42,965.27,407.42,969.27,411.42,965.27,415.42,974.27,411.42" style="stroke:#0000FF;stroke-width:1;"/><text fill="#000000" font-family="Arial" font-size="13" lengthAdjust="spacing" textLength="73.6899" x="857.46" y="424.6138">UAP records</text></g><!--link ig_repo to ig_pg--><g class="link" data-entity-1="ig_repo" data-entity-2="ig_pg" data-source-line="51" data-uid="lnk34" id="link_ig_repo_ig_pg"><path d="M914.74,306.42 C938.25,306.42 956.62,306.42 976.98,306.42" fill="none" id="ig_repo-to-ig_pg" style="stroke:#008000;stroke-width:1;"/><polygon fill="#008000" points="982.98,306.42,973.98,302.42,977.98,306.42,973.98,310.42,982.98,306.42" style="stroke:#008000;stroke-width:1;"/><text fill="#000000" font-family="Arial" font-size="13" lengthAdjust="spacing" textLength="90.3208" x="949.86" y="319.6138">ingest schemas</text></g><!--link ig_project to ig_project_srv--><g class="link" data-entity-1="ig_project" data-entity-2="ig_project_srv" data-source-line="52" data-uid="lnk35" id="link_ig_project_ig_project_srv"><path d="M890.37,193.42 C918.95,193.42 945.76,193.42 972.56,193.42" fill="none" id="ig_project-to-ig_project_srv" style="stroke:#000000;stroke-width:1;"/><polygon fill="#000000" points="978.56,193.42,969.56,189.42,973.56,193.42,969.56,197.42,978.56,193.42" style="stroke:#000000;stroke-width:1;"/><text fill="#000000" font-family="Arial" font-size="13" lengthAdjust="spacing" textLength="80.1899" x="853.46" y="206.6138">internal HTTP</text></g><g class="legend" data-source-line="60"><rect fill="#DDDDDD" height="94.4932" rx="5" ry="5" style="stroke:#000000;stroke-width:1;" width="172.5996" x="898.1121" y="628.0173"/><text fill="#000000" font-family="Arial" font-size="14" font-weight="bold" lengthAdjust="spacing" textLength="36.5518" x="907.0018" y="648.1491">Color</text><text fill="#000000" font-family="Arial" font-size="14" font-weight="bold" lengthAdjust="spacing" textLength="56.7793" x="951.3328" y="648.1491">Protocol</text><rect fill="#0000FF" height="16.0986" style="stroke:none;stroke-width:1;" width="44.3311" x="903.1121" y="651.1159"/><text fill="#000000" font-family="Arial" font-size="14" lengthAdjust="spacing" textLength="7.7793" x="903.1121" y="664.2477">&#160;&#160;</text><text fill="#000000" font-family="Arial" font-size="14" lengthAdjust="spacing" textLength="110.4893" x="951.3328" y="664.2477">Kafka / RabbitMQ</text><rect fill="#008000" height="16.0986" style="stroke:none;stroke-width:1;" width="44.3311" x="903.1121" y="667.2145"/><text fill="#000000" font-family="Arial" font-size="14" lengthAdjust="spacing" textLength="7.7793" x="903.1121" y="680.3464">&#160;&#160;</text><text fill="#000000" font-family="Arial" font-size="14" lengthAdjust="spacing" textLength="76.2617" x="951.3328" y="680.3464">PostgreSQL</text><rect fill="#FFA500" height="16.0986" style="stroke:none;stroke-width:1;" width="44.3311" x="903.1121" y="683.3132"/><text fill="#000000" font-family="Arial" font-size="14" lengthAdjust="spacing" textLength="7.7793" x="903.1121" y="696.445">&#160;&#160;</text><text fill="#000000" font-family="Arial" font-size="14" lengthAdjust="spacing" textLength="93.3857" x="951.3328" y="696.445">Object Storage</text><rect fill="#000000" height="16.0986" style="stroke:none;stroke-width:1;" width="44.3311" x="903.1121" y="699.4118"/><text fill="#000000" font-family="Arial" font-size="14" lengthAdjust="spacing" textLength="7.7793" x="903.1121" y="712.5436">&#160;&#160;</text><text fill="#000000" font-family="Arial" font-size="14" lengthAdjust="spacing" textLength="74.7031" x="951.3328" y="712.5436">Internal Call</text><line style="stroke:#000000;stroke-width:1;" x1="903.1121" x2="1065.7117" y1="635.0173" y2="635.0173"/><line style="stroke:#000000;stroke-width:1;" x1="903.1121" x2="1065.7117" y1="651.1159" y2="651.1159"/><line style="stroke:#000000;stroke-width:1;" x1="903.1121" x2="1065.7117" y1="667.2145" y2="667.2145"/><line style="stroke:#000000;stroke-width:1;" x1="903.1121" x2="1065.7117" y1="683.3132" y2="683.3132"/><line style="stroke:#000000;stroke-width:1;" x1="903.1121" x2="1065.7117" y1="699.4118" y2="699.4118"/><line style="stroke:#000000;stroke-width:1;" x1="903.1121" x2="1065.7117" y1="715.5104" y2="715.5104"/><line style="stroke:#000000;stroke-width:1;" x1="903.1121" x2="903.1121" y1="635.0173" y2="715.5104"/><line style="stroke:#000000;stroke-width:1;" x1="947.4432" x2="947.4432" y1="635.0173" y2="715.5104"/><line style="stroke:#000000;stroke-width:1;" x1="1065.7117" x2="1065.7117" y1="635.0173" y2="715.5104"/></g><!--SRC=[XLNRZjCm47ttLupA2qYiTa428GH8IvUA5RUoopvHX2R9D3LrxQpj52AMB-8JUEFB63kNfjcsv2dsENEVyRYbr0LQN456SooLdnZjt-EAuDHALC9rk5jWPhvBdSCSbQCUaffLOJHfV-ahHL2krCCUMc2wn9ngp5BgKUUgBsvDgRFKM4qM7fpq02Kr-QeWCDOlJ0_GnjDBLfj7qR5HniAToMJoS3mUiepDo3QCLoUF-HEAvXwy0IlpXOTC1f-aqK9qpi7eNEVaF5oINSkKHl1JG1i8ZAQM74UBGGhUOiL-tpqZ9TTagtir5pP9WT7VtztXxv-PFaEFpfGs9JY6CrjTb7gcNwFE55at0dGWyw-B-iogVec-xTEYK3BTCdtbQ8oETbjkm87TvhOrbdN8OGNHrrl2jhAbFYZuwWUbPNHv84iC79IyEfqEPKeiRcNbNCyjEc_Br9UMwiJiJCS55SP9Rsorfn9mt7UteqlgAcFvxZyLdbhpZNkfRP-P7Yl9KAkXgE7_A0cXJyj4IRS8mJIYPHA3v_13qHBEIn2yh9odLJHjdCyjNNvysudauhgaSi2xm2IH_jr7u0miPpeokX33tVL1gU2fef2ZeUm6kTxZuZkfpp-qz9NKqkmozGRdImJKg2elKpVJFDPbby9bGCLMyZQYJNwFd5qFKlwLhuJOZ1SSVRvp4hylHoy6at28LRVy5lyMAVR9OKhZ5Jo5DIh9H8AsDpeh-_LkmPD90yVQiSPCkW9zkeW55isixLJ6v4tH-5Tx-X4Tw9NobfceRKkGrbm8rxSqcPm-wYp5GeT8oSfv1MYzd6CTw4xFUCoPpIyvju_5xv24O4G3x0cZuu7Zrvbwx9sky3hJoc069cbplaivprpmf1x5iC5ufuZcVfYMs9VC3iDRCsD6ed-H-wIdDsUYh1UDInUqmiXjcs9FiuGMZdAUB0y7lFxqQIf4s7MG6E_D2ioylq1wxJU-k3gxBppQd7pOkfxSVT6qKNqKfBEuDmLloJmSuf8KDy-Xtg7ymu-RDwbHS2DkdZNHlm2uWNfYZw5x91f223aIDczJ3TL5YT27f7um-QaD3tgdke7FssZ7g89X2h45__u1]--></g></svg>