<svg xmlns="http://www.w3.org/2000/svg" xmlns:xlink="http://www.w3.org/1999/xlink" contentStyleType="text/css" data-diagram-type="DESCRIPTION" height="667px" preserveAspectRatio="none" style="width:1053px;height:667px;background:#FFFFFF;" version="1.1" viewBox="0 0 1053 667" width="1053px" zoomAndPan="magnify"><defs/><g><!--cluster Identity Service--><g class="cluster" data-entity="Identity Service" data-source-line="11" data-uid="ent0002" id="cluster_Identity Service"><rect fill="none" height="390" rx="5" ry="5" style="stroke:#181818;stroke-width:1;" width="770.95" x="149.51" y="61.95"/><text fill="#000000" font-family="Arial" font-size="14" font-weight="bold" lengthAdjust="spacing" textLength="103.4893" x="483.2404" y="77.0818">Identity Service</text></g><!--cluster Presentation Layer (Delivery)--><g class="cluster" data-entity="Presentation Layer .Delivery." data-source-line="12" data-uid="ent0003" id="cluster_Presentation Layer .Delivery."><rect fill="none" height="226" rx="5" ry="5" style="stroke:#181818;stroke-width:1;" width="209" x="173.51" y="111.95"/><text fill="#000000" font-family="Arial" font-size="14" font-weight="bold" lengthAdjust="spacing" textLength="193.7441" x="181.1379" y="127.0818">Presentation Layer (Delivery)</text></g><!--cluster Application Layer (UseCase)--><g class="cluster" data-entity="Application Layer .UseCase." data-source-line="17" data-uid="ent0006" id="cluster_Application Layer .UseCase."><rect fill="none" height="129" rx="5" ry="5" style="stroke:#181818;stroke-width:1;" width="205" x="458.51" y="298.95"/><text fill="#000000" font-family="Arial" font-size="14" font-weight="bold" lengthAdjust="spacing" textLength="189.834" x="466.093" y="314.0818">Application Layer (UseCase)</text></g><!--cluster Infrastructure Layer--><g class="cluster" data-entity="Infrastructure Layer" data-source-line="21" data-uid="ent0008" id="cluster_Infrastructure Layer"><rect fill="none" height="323" rx="5" ry="5" style="stroke:#181818;stroke-width:1;" width="180.95" x="715.51" y="104.95"/><text fill="#000000" font-family="Arial" font-size="14" font-weight="bold" lengthAdjust="spacing" textLength="132.2686" x="739.8507" y="120.0818">Infrastructure Layer</text></g><!--entity id_handlers--><g class="entity" data-entity="id_handlers" data-source-line="13" data-uid="ent0004" id="entity_id_handlers"><rect fill="#F1F1F1" height="78.2959" rx="5" ry="5" style="stroke:#181818;stroke-width:0.5;" width="127.165" x="213.93" y="243.8"/><rect fill="#F1F1F1" height="10" style="stroke:#181818;stroke-width:0.5;" width="15" x="321.095" y="248.8"/><rect fill="#F1F1F1" height="2" style="stroke:#181818;stroke-width:0.5;" width="4" x="319.095" y="250.8"/><rect fill="#F1F1F1" height="2" style="stroke:#181818;stroke-width:0.5;" width="4" x="319.095" y="254.8"/><text fill="#000000" font-family="Arial" font-size="14" lengthAdjust="spacing" textLength="84.8408" x="228.93" y="276.9318">&#171;component&#187;</text><text fill="#000000" font-family="Arial" font-size="14" lengthAdjust="spacing" textLength="87.165" x="228.93" y="293.0305">Auth / Internal</text><text fill="#000000" font-family="Arial" font-size="14" lengthAdjust="spacing" textLength="56.0273" x="228.93" y="309.1291">Handlers</text></g><!--entity id_audit--><g class="entity" data-entity="id_audit" data-source-line="14" data-uid="ent0005" id="entity_id_audit"><rect fill="#F1F1F1" height="62.1973" rx="5" ry="5" style="stroke:#181818;stroke-width:0.5;" width="140.3789" x="207.32" y="146.85"/><rect fill="#F1F1F1" height="10" style="stroke:#181818;stroke-width:0.5;" width="15" x="327.6989" y="151.85"/><rect fill="#F1F1F1" height="2" style="stroke:#181818;stroke-width:0.5;" width="4" x="325.6989" y="153.85"/><rect fill="#F1F1F1" height="2" style="stroke:#181818;stroke-width:0.5;" width="4" x="325.6989" y="157.85"/><text fill="#000000" font-family="Arial" font-size="14" lengthAdjust="spacing" textLength="84.8408" x="222.32" y="179.9818">&#171;component&#187;</text><text fill="#000000" font-family="Arial" font-size="14" lengthAdjust="spacing" textLength="100.3789" x="222.32" y="196.0805">Audit Consumer</text></g><!--entity id_auth--><g class="entity" data-entity="id_auth" data-source-line="18" data-uid="ent0007" id="entity_id_auth"><rect fill="#F1F1F1" height="78.2959" rx="5" ry="5" style="stroke:#181818;stroke-width:0.5;" width="128.7305" x="496.14" y="333.8"/><rect fill="#F1F1F1" height="10" style="stroke:#181818;stroke-width:0.5;" width="15" x="604.8705" y="338.8"/><rect fill="#F1F1F1" height="2" style="stroke:#181818;stroke-width:0.5;" width="4" x="602.8705" y="340.8"/><rect fill="#F1F1F1" height="2" style="stroke:#181818;stroke-width:0.5;" width="4" x="602.8705" y="344.8"/><text fill="#000000" font-family="Arial" font-size="14" lengthAdjust="spacing" textLength="73.1514" x="511.14" y="366.9318">&#171;UseCase&#187;</text><text fill="#000000" font-family="Arial" font-size="14" lengthAdjust="spacing" textLength="88.7305" x="511.14" y="383.0305">Authentication</text><text fill="#000000" font-family="Arial" font-size="14" lengthAdjust="spacing" textLength="57.5791" x="511.14" y="399.1291">UseCase</text></g><!--entity id_jwt--><g class="entity" data-entity="id_jwt" data-source-line="22" data-uid="ent0009" id="entity_id_jwt"><rect fill="#F1F1F1" height="62.1973" rx="5" ry="5" style="stroke:#181818;stroke-width:0.5;" width="127.9102" x="742.03" y="252.85"/><rect fill="#F1F1F1" height="10" style="stroke:#181818;stroke-width:0.5;" width="15" x="849.9402" y="257.85"/><rect fill="#F1F1F1" height="2" style="stroke:#181818;stroke-width:0.5;" width="4" x="847.9402" y="259.85"/><rect fill="#F1F1F1" height="2" style="stroke:#181818;stroke-width:0.5;" width="4" x="847.9402" y="263.85"/><text fill="#000000" font-family="Arial" font-size="14" lengthAdjust="spacing" textLength="84.8408" x="757.03" y="285.9818">&#171;component&#187;</text><text fill="#000000" font-family="Arial" font-size="14" lengthAdjust="spacing" textLength="87.9102" x="757.03" y="302.0805">JWT Manager</text></g><!--entity id_session--><g class="entity" data-entity="id_session" data-source-line="23" data-uid="ent0010" id="entity_id_session"><rect fill="#F1F1F1" height="62.1973" rx="5" ry="5" style="stroke:#181818;stroke-width:0.5;" width="148.9512" x="731.51" y="349.85"/><rect fill="#F1F1F1" height="10" style="stroke:#181818;stroke-width:0.5;" width="15" x="860.4612" y="354.85"/><rect fill="#F1F1F1" height="2" style="stroke:#181818;stroke-width:0.5;" width="4" x="858.4612" y="356.85"/><rect fill="#F1F1F1" height="2" style="stroke:#181818;stroke-width:0.5;" width="4" x="858.4612" y="360.85"/><text fill="#000000" font-family="Arial" font-size="14" lengthAdjust="spacing" textLength="84.8408" x="746.51" y="382.9818">&#171;component&#187;</text><text fill="#000000" font-family="Arial" font-size="14" lengthAdjust="spacing" textLength="108.9512" x="746.51" y="399.0805">Session Manager</text></g><!--entity id_repo--><g class="entity" data-entity="id_repo" data-source-line="24" data-uid="ent0011" id="entity_id_repo"><rect fill="#F1F1F1" height="78.2959" rx="5" ry="5" style="stroke:#181818;stroke-width:0.5;" width="122.4893" x="744.74" y="139.8"/><rect fill="#F1F1F1" height="10" style="stroke:#181818;stroke-width:0.5;" width="15" x="847.2293" y="144.8"/><rect fill="#F1F1F1" height="2" style="stroke:#181818;stroke-width:0.5;" width="4" x="845.2293" y="146.8"/><rect fill="#F1F1F1" height="2" style="stroke:#181818;stroke-width:0.5;" width="4" x="845.2293" y="150.8"/><text fill="#000000" font-family="Arial" font-size="14" lengthAdjust="spacing" textLength="82.4893" x="759.74" y="172.9318">&#171;Repository&#187;</text><text fill="#000000" font-family="Arial" font-size="14" lengthAdjust="spacing" textLength="73.1377" x="759.74" y="189.0305">User / Audit</text><text fill="#000000" font-family="Arial" font-size="14" lengthAdjust="spacing" textLength="66.917" x="759.74" y="205.1291">Repository</text></g><!--entity idp--><g class="entity" data-entity="idp" data-source-line="28" data-uid="ent0012" id="entity_idp"><path d="M753.259,478.0405 C757.6295,471.9538 761.6672,470.9208 766.554,477.4986 C770.4056,471.0313 775.5808,471.4588 779.816,477.0777 C783.0957,470.0748 788.7237,469.1548 793.7915,475.156 C797.7079,469.3882 803.797,469.5184 806.8584,476.0632 C811.8757,468.3134 817.3849,468.9664 821.8726,476.5808 C825.0115,469.7891 831.6651,469.8174 835.5187,475.8185 C840.8064,470.3981 845.4291,471.1697 849.1887,477.5837 C853.2601,472.2297 857.772,470.4702 862.0638,477.3519 C868.9717,477.6861 870.7809,482.158 866.9089,487.5925 C873.3013,489.2502 874.6679,494.1607 870.4244,499.0747 C876.4732,504.2783 874.2135,509.567 867.7001,512.154 C871.5245,517.7373 868.405,521.6122 862.691,522.6384 C859.2882,529.7788 854.4197,530.2338 849.9423,523.6355 C848.579,528.1884 844.4696,530.4514 840.6008,526.3355 C836.5972,532.5506 832.7024,533.0228 828.206,526.8277 C826.2831,532.6836 821.1893,532.9068 817.3909,528.8802 C814.7302,533.799 811.8498,534.2051 807.9689,530.1632 C803.8,534.7229 798.2552,534.8837 795.9501,528.1752 C792.704,533.0933 787.8863,532.0472 785.2746,527.4625 C781.9272,531.6954 777.6946,532.3293 774.8174,526.9509 C769.9357,530.0959 766.0378,530.441 764.2758,523.6432 C759.6187,528.5123 755.7219,528.5545 752.3005,522.3115 C746.571,520.7112 744.9648,517.2712 747.6236,511.9021 C740.4544,511.2379 739.1,505.2741 742.4953,500.042 C739.1734,494.5129 740.7426,489.5236 747.8316,489.0475 C743.9438,482.888 746.6102,479.0046 753.259,478.0405" fill="#F1F1F1" style="stroke:#181818;stroke-width:0.5;"/><text fill="#000000" font-family="Arial" font-size="14" lengthAdjust="spacing" textLength="62.248" x="758.13" y="495.9818">&#171;System&#187;</text><text fill="#000000" font-family="Arial" font-size="14" lengthAdjust="spacing" textLength="95.71" x="758.13" y="512.0805">OAuth Provider</text></g><!--entity id_kafka--><g class="entity" data-entity="id_kafka" data-source-line="29" data-uid="ent0013" id="entity_id_kafka"><path d="M11,156.85 L124.5098,156.85 C129.5098,156.85 129.5098,177.9486 129.5098,177.9486 C129.5098,177.9486 129.5098,199.0473 124.5098,199.0473 L11,199.0473 C6,199.0473 6,177.9486 6,177.9486 C6,177.9486 6,156.85 11,156.85" fill="#F1F1F1" style="stroke:#181818;stroke-width:0.5;"/><path d="M124.5098,156.85 C119.5098,156.85 119.5098,177.9486 119.5098,177.9486 C119.5098,199.0473 124.5098,199.0473 124.5098,199.0473" fill="none" style="stroke:#181818;stroke-width:0.5;"/><text fill="#000000" font-family="Arial" font-size="14" lengthAdjust="spacing" textLength="62.248" x="11" y="174.9818">&#171;System&#187;</text><text fill="#000000" font-family="Arial" font-size="14" lengthAdjust="spacing" textLength="103.5098" x="11" y="191.0805">Kafka audit topic</text></g><!--entity id_redis--><g class="entity" data-entity="id_redis" data-source-line="30" data-uid="ent0014" id="entity_id_redis"><path d="M947.47,360.35 C947.47,350.35 988.594,350.35 988.594,350.35 C988.594,350.35 1029.718,350.35 1029.718,360.35 L1029.718,401.5473 C1029.718,411.5473 988.594,411.5473 988.594,411.5473 C988.594,411.5473 947.47,411.5473 947.47,401.5473 L947.47,360.35" fill="#F1F1F1" style="stroke:#181818;stroke-width:0.5;"/><path d="M947.47,360.35 C947.47,370.35 988.594,370.35 988.594,370.35 C988.594,370.35 1029.718,370.35 1029.718,360.35" fill="none" style="stroke:#181818;stroke-width:0.5;"/><text fill="#000000" font-family="Arial" font-size="14" lengthAdjust="spacing" textLength="62.248" x="957.47" y="387.4818">&#171;System&#187;</text><text fill="#000000" font-family="Arial" font-size="14" lengthAdjust="spacing" textLength="35.793" x="957.47" y="403.5805">Redis</text></g><!--entity id_pg--><g class="entity" data-entity="id_pg" data-source-line="31" data-uid="ent0015" id="entity_id_pg"><path d="M940.46,158.35 C940.46,148.35 988.5909,148.35 988.5909,148.35 C988.5909,148.35 1036.7217,148.35 1036.7217,158.35 L1036.7217,199.5473 C1036.7217,209.5473 988.5909,209.5473 988.5909,209.5473 C988.5909,209.5473 940.46,209.5473 940.46,199.5473 L940.46,158.35" fill="#F1F1F1" style="stroke:#181818;stroke-width:0.5;"/><path d="M940.46,158.35 C940.46,168.35 988.5909,168.35 988.5909,168.35 C988.5909,168.35 1036.7217,168.35 1036.7217,158.35" fill="none" style="stroke:#181818;stroke-width:0.5;"/><text fill="#000000" font-family="Arial" font-size="14" lengthAdjust="spacing" textLength="62.248" x="950.46" y="185.4818">&#171;System&#187;</text><text fill="#000000" font-family="Arial" font-size="14" lengthAdjust="spacing" textLength="76.2617" x="950.46" y="201.5805">PostgreSQL</text></g><g class="entity" data-entity="GMN26" data-source-line="45" data-uid="ent0027" id="entity_GMN26"><path d="M224.38,11 L224.38,40.8975 A5,5 0 0 0 229.38,45.8975 L325.6481,45.8975 A5,5 0 0 0 330.6481,40.8975 L330.6481,16 L320.6481,6 L229.38,6 A5,5 0 0 0 224.38,11" fill="#FFF2CC" style="stroke:#E06666;stroke-width:0.5;"/><path d="M320.6481,6 L320.6481,13.5 A2.5,2.5 0 0 0 323.1481,16 L330.6481,16 L320.6481,6" fill="#FFF2CC" style="stroke:#E06666;stroke-width:1;"/><text fill="#000000" font-family="Arial" font-size="13" lengthAdjust="spacing" textLength="85.2681" x="230.38" y="23.1938">login, callback,</text><text fill="#000000" font-family="Arial" font-size="13" lengthAdjust="spacing" textLength="64.3145" x="230.38" y="38.1426">/me, logout</text></g><!--link id_handlers to id_auth--><g class="link" data-entity-1="id_handlers" data-entity-2="id_auth" data-source-line="33" data-uid="lnk16" id="link_id_handlers_id_auth"><path d="M341.41,318.57 C418.74,318.57 538.72,318.57 538.72,318.57 C538.72,318.57 538.72,319 538.72,327.43" fill="none" id="id_handlers-to-id_auth" style="stroke:#000000;stroke-width:1;"/><polygon fill="#000000" points="538.72,333.43,542.72,324.43,538.72,328.43,534.72,324.43,538.72,333.43" style="stroke:#000000;stroke-width:1;"/></g><!--link id_handlers to id_jwt--><g class="link" data-entity-1="id_handlers" data-entity-2="id_jwt" data-source-line="34" data-uid="lnk17" id="link_id_handlers_id_jwt"><path d="M341.52,283.95 C443.06,283.95 633.94,283.95 735.67,283.95" fill="none" id="id_handlers-to-id_jwt" style="stroke:#000000;stroke-width:1;"/><polygon fill="#000000" points="741.67,283.95,732.67,279.95,736.67,283.95,732.67,287.95,741.67,283.95" style="stroke:#000000;stroke-width:1;"/><text fill="#000000" font-family="Arial" font-size="13" lengthAdjust="spacing" textLength="31.0591" x="509.6" y="297.1438">verify</text></g><!--link id_auth to idp--><g class="link" data-entity-1="id_auth" data-entity-2="idp" data-source-line="35" data-uid="lnk18" id="link_id_auth_idp"><path d="M560.72,412.47 C560.72,449.42 560.72,498.95 560.72,498.95 C560.72,498.95 664.15,498.95 736.82,498.95" fill="none" id="id_auth-to-idp" style="stroke:#000000;stroke-width:1;"/><polygon fill="#000000" points="742.82,498.95,733.82,494.95,737.82,498.95,733.82,502.95,742.82,498.95" style="stroke:#000000;stroke-width:1;"/><text fill="#000000" font-family="Arial" font-size="13" lengthAdjust="spacing" textLength="44.0845" x="563.53" y="512.1438">OAuth2</text></g><!--link id_auth to id_repo--><g class="link" data-entity-1="id_auth" data-entity-2="id_repo" data-source-line="36" data-uid="lnk19" id="link_id_auth_id_repo"><path d="M581.72,333.55 C581.72,286.36 581.72,213.57 581.72,213.57 C581.72,213.57 672.02,213.57 738.41,213.57" fill="none" id="id_auth-to-id_repo" style="stroke:#000000;stroke-width:1;"/><polygon fill="#000000" points="744.41,213.57,735.41,209.57,739.41,213.57,735.41,217.57,744.41,213.57" style="stroke:#000000;stroke-width:1;"/></g><!--link id_auth to id_jwt--><g class="link" data-entity-1="id_auth" data-entity-2="id_jwt" data-source-line="37" data-uid="lnk20" id="link_id_auth_id_jwt"><path d="M625.26,341.83 C697.91,341.83 805.72,341.83 805.72,341.83 C805.72,341.83 805.72,334.9 805.72,321.26" fill="none" id="id_auth-to-id_jwt" style="stroke:#000000;stroke-width:1;"/><polygon fill="#000000" points="805.72,315.26,801.72,324.26,805.72,320.26,809.72,324.26,805.72,315.26" style="stroke:#000000;stroke-width:1;"/></g><!--link id_auth to id_session--><g class="link" data-entity-1="id_auth" data-entity-2="id_session" data-source-line="38" data-uid="lnk21" id="link_id_auth_id_session"><path d="M625.33,380.95 C657.86,380.95 691.43,380.95 725.23,380.95" fill="none" id="id_auth-to-id_session" style="stroke:#FF0000;stroke-width:1;"/><polygon fill="#FF0000" points="731.23,380.95,722.23,376.95,726.23,380.95,722.23,384.95,731.23,380.95" style="stroke:#FF0000;stroke-width:1;"/><text fill="#000000" font-family="Arial" font-size="13" lengthAdjust="spacing" textLength="44.0781" x="633.28" y="394.1438">session</text></g><!--link id_session to id_redis--><g class="link" data-entity-1="id_session" data-entity-2="id_redis" data-source-line="39" data-uid="lnk22" id="link_id_session_id_redis"><path d="M880.79,380.95 C903.44,380.95 921.49,380.95 941.12,380.95" fill="none" id="id_session-to-id_redis" style="stroke:#FF0000;stroke-width:1;"/><polygon fill="#FF0000" points="947.12,380.95,938.12,376.95,942.12,380.95,938.12,384.95,947.12,380.95" style="stroke:#FF0000;stroke-width:1;"/><text fill="#000000" font-family="Arial" font-size="13" lengthAdjust="spacing" textLength="28.1836" x="884.95" y="394.1438">state</text></g><!--link id_kafka to id_audit--><g class="link" data-entity-1="id_kafka" data-entity-2="id_audit" data-source-line="40" data-uid="lnk23" id="link_id_kafka_id_audit"><path d="M129.84,177.95 C154.12,177.95 176.09,177.95 201.12,177.95" fill="none" id="id_kafka-to-id_audit" style="stroke:#0000FF;stroke-width:1;"/><polygon fill="#0000FF" points="207.12,177.95,198.12,173.95,202.12,177.95,198.12,181.95,207.12,177.95" style="stroke:#0000FF;stroke-width:1;"/><text fill="#000000" font-family="Arial" font-size="13" lengthAdjust="spacing" textLength="52.749" x="115.48" y="191.1438">consume</text></g><!--link id_audit to id_repo--><g class="link" data-entity-1="id_audit" data-entity-2="id_repo" data-source-line="41" data-uid="lnk24" id="link_id_audit_id_repo"><path d="M347.96,177.95 C452.22,177.95 639.87,177.95 738.63,177.95" fill="none" id="id_audit-to-id_repo" style="stroke:#000000;stroke-width:1;"/><polygon fill="#000000" points="744.63,177.95,735.63,173.95,739.63,177.95,735.63,181.95,744.63,177.95" style="stroke:#000000;stroke-width:1;"/><text fill="#000000" font-family="Arial" font-size="13" lengthAdjust="spacing" textLength="67.2026" x="478.29" y="191.1438">batch insert</text></g><!--link id_repo to id_pg--><g class="link" data-entity-1="id_repo" data-entity-2="id_pg" data-source-line="42" data-uid="lnk25" id="link_id_repo_id_pg"><path d="M867.55,178.95 C891.16,178.95 911.74,178.95 933.97,178.95" fill="none" id="id_repo-to-id_pg" style="stroke:#008000;stroke-width:1;"/><polygon fill="#008000" points="939.97,178.95,930.97,174.95,934.97,178.95,930.97,182.95,939.97,178.95" style="stroke:#008000;stroke-width:1;"/><text fill="#000000" font-family="Arial" font-size="13" lengthAdjust="spacing" textLength="94.6626" x="904.76" y="192.1438">users, audit logs</text></g><!--link id_handlers to GMN26--><g class="link" data-entity-1="id_handlers" data-entity-2="GMN26" data-source-line="45" data-uid="lnk28" id="link_id_handlers_GMN26"><path d="M213.6,282.95 C189.92,282.95 168.72,282.95 168.72,282.95 C168.72,282.95 168.72,25.95 168.72,25.95 C168.72,25.95 196.56,25.95 224.07,25.95" fill="none" id="id_handlers-GMN26" style="stroke:#181818;stroke-width:1;stroke-dasharray:7,7;"/></g><g class="legend" data-source-line="49"><rect fill="#DDDDDD" height="94.4932" rx="5" ry="5" style="stroke:#000000;stroke-width:1;" width="138.3721" x="889.3496" y="552.8837"/><text fill="#000000" font-family="Arial" font-size="14" font-weight="bold" lengthAdjust="spacing" textLength="36.5518" x="898.2393" y="573.0155">Color</text><text fill="#000000" font-family="Arial" font-size="14" font-weight="bold" lengthAdjust="spacing" textLength="56.7793" x="942.5704" y="573.0155">Protocol</text><rect fill="#0000FF" height="16.0986" style="stroke:none;stroke-width:1;" width="44.3311" x="894.3496" y="575.9823"/><text fill="#000000" font-family="Arial" font-size="14" lengthAdjust="spacing" textLength="7.7793" x="894.3496" y="589.1141">&#160;&#160;</text><text fill="#000000" font-family="Arial" font-size="14" lengthAdjust="spacing" textLength="35.7998" x="942.5704" y="589.1141">Kafka</text><rect fill="#008000" height="16.0986" style="stroke:none;stroke-width:1;" width="44.3311" x="894.3496" y="592.0809"/><text fill="#000000" font-family="Arial" font-size="14" lengthAdjust="spacing" textLength="7.7793" x="894.3496" y="605.2128">&#160;&#160;</text><text fill="#000000" font-family="Arial" font-size="14" lengthAdjust="spacing" textLength="76.2617" x="942.5704" y="605.2128">PostgreSQL</text><rect fill="#FF0000" height="16.0986" style="stroke:none;stroke-width:1;" width="44.3311" x="894.3496" y="608.1796"/><text fill="#000000" font-family="Arial" font-size="14" lengthAdjust="spacing" textLength="7.7793" x="894.3496" y="621.3114">&#160;&#160;</text><text fill="#000000" font-family="Arial" font-size="14" lengthAdjust="spacing" textLength="35.793" x="942.5704" y="621.3114">Redis</text><rect fill="#000000" height="16.0986" style="stroke:none;stroke-width:1;" width="44.3311" x="894.3496" y="624.2782"/><text fill="#000000" font-family="Arial" font-size="14" lengthAdjust="spacing" textLength="7.7793" x="894.3496" y="637.41">&#160;&#160;</text><text fill="#000000" font-family="Arial" font-size="14" lengthAdjust="spacing" textLength="74.7031" x="942.5704" y="637.41">Internal Call</text><line style="stroke:#000000;stroke-width:1;" x1="894.3496" x2="1022.7217" y1="559.8837" y2="559.8837"/><line style="stroke:#000000;stroke-width:1;" x1="894.3496" x2="1022.7217" y1="575.9823" y2="575.9823"/><line style="stroke:#000000;stroke-width:1;" x1="894.3496" x2="1022.7217" y1="592.0809" y2="592.0809"/><line style="stroke:#000000;stroke-width:1;" x1="894.3496" x2="1022.7217" y1="608.1796" y2="608.1796"/><line style="stroke:#000000;stroke-width:1;" x1="894.3496" x2="1022.7217" y1="624.2782" y2="624.2782"/><line style="stroke:#000000;stroke-width:1;" x1="894.3496" x2="1022.7217" y1="640.3768" y2="640.3768"/><line style="stroke:#000000;stroke-width:1;" x1="894.3496" x2="894.3496" y1="559.8837" y2="640.3768"/><line style="stroke:#000000;stroke-width:1;" x1="938.6807" x2="938.6807" y1="559.8837" y2="640.3768"/><line style="stroke:#000000;stroke-width:1;" x1="1022.7217" x2="1022.7217" y1="559.8837" y2="640.3768"/></g><!--SRC=[XLJBRjGm5DtxAwwc6v2cQka2eGegbO68Ge7I0R5W4FB4DnapZXrifrN4y4Ly0hj-6TVESuQMPXNVSuvzxiDsQwbBRda10ZDUAPyOxT_n0k7KIgwOwt6tui9SIvr3nfN34PAQeZGQjP_xMY5KXJeQeILFrpp71hEOUgvpDPPRKscH6glHmgF34Q2aHb-N2CRwbHa1sdXyJjlcKJepobZOIvBaQ3RRPHahqBQCbuUFwMCACm_UW9NvoeEGmPCqch7U74pE1AKZVGrpj5SonGdyPD2b0fCBYuu8FEZWdDVa_C4BLF8ARVsmuS9G5fZS_EuNDtyM-hJoApY0C-tHQguM-XNNGg5r4-0EfFYsQjVtxYEaXvdHhYhGTc8UegJynSQMJyjIoNJByIU7C-xmTiCjsDaDvMZK2zr2mtb-zSznPpgpt7bRfRwos9nuVs5UV_u8Rxcc7Vfilb_xUqHpT2vajIDqJVXVyIMMnablR1tKb8obNiHIBlI0TTjOYiJiABzKcKg4BUQryrW4-VlOomjhhgJepoxPZmeht6Q-uTcQGsmEJLyfq-w4TG2Ou9ulgQhReaiKqWrMQ747yS8udrkSVpZls6NEs6YKOF_Btc7ylkwVz6tx7u4g3yT08ospchM2NL99Z5Y2exiOJG7l0aDtHrYIZB2sWNH2ryfHS9SSQnEeT2cHTLNjpakIFkbG_cCQY7XdM1-wpJNnbjodAv2QXYGQZU78VJ9movoO5L7SjEslChbZB3n0i3JUcm9CjdMlYI3r55Akr9Akp9GT53WDCbDvXbh4nulHKvM7HNofsEOPD0yP_T30UPCQ1HksUTgcU0AmWMRAscZm6AF3T3HGKxe8nGaRjccZtTC4Ct98A0RVmSjV]--></g></svg>