<svg xmlns="http://www.w3.org/2000/svg" xmlns:xlink="http://www.w3.org/1999/xlink" contentStyleType="text/css" data-diagram-type="DESCRIPTION" height="838px" preserveAspectRatio="none" style="width:1023px;height:838px;background:#FFFFFF;" version="1.1" viewBox="0 0 1023 838" width="1023px" zoomAndPan="magnify"><defs/><g><!--cluster Knowledge Service--><g class="cluster" data-entity="Knowledge Service" data-source-line="11" data-uid="ent0002" id="cluster_Knowledge Service"><rect fill="none" height="540" rx="5" ry="5" style="stroke:#181818;stroke-width:1;" width="701.22" x="149.5" y="61.95"/><text fill="#000000" font-family="Arial" font-size="14" font-weight="bold" lengthAdjust="spacing" textLength="128.3789" x="435.9205" y="77.0818">Knowledge Service</text></g><!--cluster Presentation Layer (Delivery)--><g class="cluster" data-entity="Presentation Layer .Delivery." data-source-line="12" data-uid="ent0003" id="cluster_Presentation Layer .Delivery."><rect fill="none" height="226" rx="5" ry="5" style="stroke:#181818;stroke-width:1;" width="209" x="173.5" y="257.95"/><text fill="#000000" font-family="Arial" font-size="14" font-weight="bold" lengthAdjust="spacing" textLength="193.7441" x="181.1279" y="273.0818">Presentation Layer (Delivery)</text></g><!--cluster Application Layer (UseCase)--><g class="cluster" data-entity="Application Layer .UseCase." data-source-line="17" data-uid="ent0006" id="cluster_Application Layer .UseCase."><rect fill="none" height="307" rx="5" ry="5" style="stroke:#181818;stroke-width:1;" width="392.22" x="434.5" y="257.95"/><text fill="#000000" font-family="Arial" font-size="14" font-weight="bold" lengthAdjust="spacing" textLength="189.834" x="535.693" y="273.0818">Application Layer (UseCase)</text></g><!--cluster Infrastructure Layer--><g class="cluster" data-entity="Infrastructure Layer" data-source-line="24" data-uid="ent0011" id="cluster_Infrastructure Layer"><rect fill="none" height="129" rx="5" ry="5" style="stroke:#181818;stroke-width:1;" width="154.49" x="660.56" y="104.95"/><text fill="#000000" font-family="Arial" font-size="14" font-weight="bold" lengthAdjust="spacing" textLength="132.2686" x="671.6707" y="120.0818">Infrastructure Layer</text></g><!--entity kn_http--><g class="entity" data-entity="kn_http" data-source-line="13" data-uid="ent0004" id="entity_kn_http"><rect fill="#F1F1F1" height="78.2959" rx="5" ry="5" style="stroke:#181818;stroke-width:0.5;" width="134.1514" x="210.42" y="389.8"/><rect fill="#F1F1F1" height="10" style="stroke:#181818;stroke-width:0.5;" width="15" x="324.5714" y="394.8"/><rect fill="#F1F1F1" height="2" style="stroke:#181818;stroke-width:0.5;" width="4" x="322.5714" y="396.8"/><rect fill="#F1F1F1" height="2" style="stroke:#181818;stroke-width:0.5;" width="4" x="322.5714" y="400.8"/><text fill="#000000" font-family="Arial" font-size="14" lengthAdjust="spacing" textLength="84.8408" x="225.42" y="422.9318">&#171;component&#187;</text><text fill="#000000" font-family="Arial" font-size="14" lengthAdjust="spacing" textLength="89.4551" x="225.42" y="439.0305">HTTP Server /</text><text fill="#000000" font-family="Arial" font-size="14" lengthAdjust="spacing" textLength="94.1514" x="225.42" y="455.1291">Domain Router</text></g><!--entity kn_consumer--><g class="entity" data-entity="kn_consumer" data-source-line="14" data-uid="ent0005" id="entity_kn_consumer"><rect fill="#F1F1F1" height="62.1973" rx="5" ry="5" style="stroke:#181818;stroke-width:0.5;" width="145.8135" x="204.59" y="292.85"/><rect fill="#F1F1F1" height="10" style="stroke:#181818;stroke-width:0.5;" width="15" x="330.4035" y="297.85"/><rect fill="#F1F1F1" height="2" style="stroke:#181818;stroke-width:0.5;" width="4" x="328.4035" y="299.85"/><rect fill="#F1F1F1" height="2" style="stroke:#181818;stroke-width:0.5;" width="4" x="328.4035" y="303.85"/><text fill="#000000" font-family="Arial" font-size="14" lengthAdjust="spacing" textLength="84.8408" x="219.59" y="325.9818">&#171;component&#187;</text><text fill="#000000" font-family="Arial" font-size="14" lengthAdjust="spacing" textLength="105.8135" x="219.59" y="342.0805">ConsumerServer</text></g><!--entity kn_index--><g class="entity" data-entity="kn_index" data-source-line="18" data-uid="ent0007" id="entity_kn_index"><rect fill="#F1F1F1" height="62.1973" rx="5" ry="5" style="stroke:#181818;stroke-width:0.5;" width="154.3994" x="450.5" y="292.85"/><rect fill="#F1F1F1" height="10" style="stroke:#181818;stroke-width:0.5;" width="15" x="584.8994" y="297.85"/><rect fill="#F1F1F1" height="2" style="stroke:#181818;stroke-width:0.5;" width="4" x="582.8994" y="299.85"/><rect fill="#F1F1F1" height="2" style="stroke:#181818;stroke-width:0.5;" width="4" x="582.8994" y="303.85"/><text fill="#000000" font-family="Arial" font-size="14" lengthAdjust="spacing" textLength="73.1514" x="465.5" y="325.9818">&#171;UseCase&#187;</text><text fill="#000000" font-family="Arial" font-size="14" lengthAdjust="spacing" textLength="114.3994" x="465.5" y="342.0805">Indexing UseCase</text></g><!--entity kn_search--><g class="entity" data-entity="kn_search" data-source-line="19" data-uid="ent0008" id="entity_kn_search"><rect fill="#F1F1F1" height="62.1973" rx="5" ry="5" style="stroke:#181818;stroke-width:0.5;" width="145.8271" x="664.9" y="336.85"/><rect fill="#F1F1F1" height="10" style="stroke:#181818;stroke-width:0.5;" width="15" x="790.7271" y="341.85"/><rect fill="#F1F1F1" height="2" style="stroke:#181818;stroke-width:0.5;" width="4" x="788.7271" y="343.85"/><rect fill="#F1F1F1" height="2" style="stroke:#181818;stroke-width:0.5;" width="4" x="788.7271" y="347.85"/><text fill="#000000" font-family="Arial" font-size="14" lengthAdjust="spacing" textLength="73.1514" x="679.9" y="369.9818">&#171;UseCase&#187;</text><text fill="#000000" font-family="Arial" font-size="14" lengthAdjust="spacing" textLength="105.8271" x="679.9" y="386.0805">Search UseCase</text></g><!--entity kn_chat--><g class="entity" data-entity="kn_chat" data-source-line="20" data-uid="ent0009" id="entity_kn_chat"><rect fill="#F1F1F1" height="62.1973" rx="5" ry="5" style="stroke:#181818;stroke-width:0.5;" width="131.041" x="462.18" y="389.85"/><rect fill="#F1F1F1" height="10" style="stroke:#181818;stroke-width:0.5;" width="15" x="573.221" y="394.85"/><rect fill="#F1F1F1" height="2" style="stroke:#181818;stroke-width:0.5;" width="4" x="571.221" y="396.85"/><rect fill="#F1F1F1" height="2" style="stroke:#181818;stroke-width:0.5;" width="4" x="571.221" y="400.85"/><text fill="#000000" font-family="Arial" font-size="14" lengthAdjust="spacing" textLength="73.1514" x="477.18" y="422.9818">&#171;UseCase&#187;</text><text fill="#000000" font-family="Arial" font-size="14" lengthAdjust="spacing" textLength="91.041" x="477.18" y="439.0805">Chat UseCase</text></g><!--entity kn_report--><g class="entity" data-entity="kn_report" data-source-line="21" data-uid="ent0010" id="entity_kn_report"><rect fill="#F1F1F1" height="62.1973" rx="5" ry="5" style="stroke:#181818;stroke-width:0.5;" width="143.4893" x="455.95" y="486.85"/><rect fill="#F1F1F1" height="10" style="stroke:#181818;stroke-width:0.5;" width="15" x="579.4393" y="491.85"/><rect fill="#F1F1F1" height="2" style="stroke:#181818;stroke-width:0.5;" width="4" x="577.4393" y="493.85"/><rect fill="#F1F1F1" height="2" style="stroke:#181818;stroke-width:0.5;" width="4" x="577.4393" y="497.85"/><text fill="#000000" font-family="Arial" font-size="14" lengthAdjust="spacing" textLength="73.1514" x="470.95" y="519.9818">&#171;UseCase&#187;</text><text fill="#000000" font-family="Arial" font-size="14" lengthAdjust="spacing" textLength="103.4893" x="470.95" y="536.0805">Report UseCase</text></g><!--entity kn_repo--><g class="entity" data-entity="kn_repo" data-source-line="25" data-uid="ent0012" id="entity_kn_repo"><rect fill="#F1F1F1" height="78.2959" rx="5" ry="5" style="stroke:#181818;stroke-width:0.5;" width="122.4893" x="676.56" y="139.8"/><rect fill="#F1F1F1" height="10" style="stroke:#181818;stroke-width:0.5;" width="15" x="779.0493" y="144.8"/><rect fill="#F1F1F1" height="2" style="stroke:#181818;stroke-width:0.5;" width="4" x="777.0493" y="146.8"/><rect fill="#F1F1F1" height="2" style="stroke:#181818;stroke-width:0.5;" width="4" x="777.0493" y="150.8"/><text fill="#000000" font-family="Arial" font-size="14" lengthAdjust="spacing" textLength="82.4893" x="691.56" y="172.9318">&#171;Repository&#187;</text><text fill="#000000" font-family="Arial" font-size="14" lengthAdjust="spacing" textLength="69.2754" x="691.56" y="189.0305">Knowledge</text><text fill="#000000" font-family="Arial" font-size="14" lengthAdjust="spacing" textLength="77.8135" x="691.56" y="205.1291">Repositories</text></g><!--entity kn_kafka--><g class="entity" data-entity="kn_kafka" data-source-line="29" data-uid="ent0013" id="entity_kn_kafka"><path d="M11,302.85 L124.4961,302.85 C129.4961,302.85 129.4961,323.9486 129.4961,323.9486 C129.4961,323.9486 129.4961,345.0473 124.4961,345.0473 L11,345.0473 C6,345.0473 6,323.9486 6,323.9486 C6,323.9486 6,302.85 11,302.85" fill="#F1F1F1" style="stroke:#181818;stroke-width:0.5;"/><path d="M124.4961,302.85 C119.4961,302.85 119.4961,323.9486 119.4961,323.9486 C119.4961,345.0473 124.4961,345.0473 124.4961,345.0473" fill="none" style="stroke:#181818;stroke-width:0.5;"/><text fill="#000000" font-family="Arial" font-size="14" lengthAdjust="spacing" textLength="62.248" x="11" y="320.9818">&#171;System&#187;</text><text fill="#000000" font-family="Arial" font-size="14" lengthAdjust="spacing" textLength="103.4961" x="11" y="337.0805">Kafka analytics.*</text></g><!--entity kn_qdrant--><g class="entity" data-entity="kn_qdrant" data-source-line="30" data-uid="ent0014" id="entity_kn_qdrant"><path d="M899.46,17.35 C899.46,7.35 940.584,7.35 940.584,7.35 C940.584,7.35 981.708,7.35 981.708,17.35 L981.708,58.5473 C981.708,68.5473 940.584,68.5473 940.584,68.5473 C940.584,68.5473 899.46,68.5473 899.46,58.5473 L899.46,17.35" fill="#F1F1F1" style="stroke:#181818;stroke-width:0.5;"/><path d="M899.46,17.35 C899.46,27.35 940.584,27.35 940.584,27.35 C940.584,27.35 981.708,27.35 981.708,17.35" fill="none" style="stroke:#181818;stroke-width:0.5;"/><text fill="#000000" font-family="Arial" font-size="14" lengthAdjust="spacing" textLength="62.248" x="909.46" y="44.4818">&#171;System&#187;</text><text fill="#000000" font-family="Arial" font-size="14" lengthAdjust="spacing" textLength="42.7998" x="909.46" y="60.5805">Qdrant</text></g><!--entity kn_redis--><g class="entity" data-entity="kn_redis" data-source-line="31" data-uid="ent0015" id="entity_kn_redis"><path d="M899.46,250.35 C899.46,240.35 940.584,240.35 940.584,240.35 C940.584,240.35 981.708,240.35 981.708,250.35 L981.708,291.5473 C981.708,301.5473 940.584,301.5473 940.584,301.5473 C940.584,301.5473 899.46,301.5473 899.46,291.5473 L899.46,250.35" fill="#F1F1F1" style="stroke:#181818;stroke-width:0.5;"/><path d="M899.46,250.35 C899.46,260.35 940.584,260.35 940.584,260.35 C940.584,260.35 981.708,260.35 981.708,250.35" fill="none" style="stroke:#181818;stroke-width:0.5;"/><text fill="#000000" font-family="Arial" font-size="14" lengthAdjust="spacing" textLength="62.248" x="909.46" y="277.4818">&#171;System&#187;</text><text fill="#000000" font-family="Arial" font-size="14" lengthAdjust="spacing" textLength="35.793" x="909.46" y="293.5805">Redis</text></g><!--entity kn_pg--><g class="entity" data-entity="kn_pg" data-source-line="32" data-uid="ent0016" id="entity_kn_pg"><path d="M892.46,154.35 C892.46,144.35 940.5909,144.35 940.5909,144.35 C940.5909,144.35 988.7217,144.35 988.7217,154.35 L988.7217,195.5473 C988.7217,205.5473 940.5909,205.5473 940.5909,205.5473 C940.5909,205.5473 892.46,205.5473 892.46,195.5473 L892.46,154.35" fill="#F1F1F1" style="stroke:#181818;stroke-width:0.5;"/><path d="M892.46,154.35 C892.46,164.35 940.5909,164.35 940.5909,164.35 C940.5909,164.35 988.7217,164.35 988.7217,154.35" fill="none" style="stroke:#181818;stroke-width:0.5;"/><text fill="#000000" font-family="Arial" font-size="14" lengthAdjust="spacing" textLength="62.248" x="902.46" y="181.4818">&#171;System&#187;</text><text fill="#000000" font-family="Arial" font-size="14" lengthAdjust="spacing" textLength="76.2617" x="902.46" y="197.5805">PostgreSQL</text></g><!--entity kn_minio--><g class="entity" data-entity="kn_minio" data-source-line="33" data-uid="ent0017" id="entity_kn_minio"><path d="M696.69,628.35 C696.69,618.35 737.814,618.35 737.814,618.35 C737.814,618.35 778.938,618.35 778.938,628.35 L778.938,669.5473 C778.938,679.5473 737.814,679.5473 737.814,679.5473 C737.814,679.5473 696.69,679.5473 696.69,669.5473 L696.69,628.35" fill="#F1F1F1" style="stroke:#181818;stroke-width:0.5;"/><path d="M696.69,628.35 C696.69,638.35 737.814,638.35 737.814,638.35 C737.814,638.35 778.938,638.35 778.938,628.35" fill="none" style="stroke:#181818;stroke-width:0.5;"/><text fill="#000000" font-family="Arial" font-size="14" lengthAdjust="spacing" textLength="62.248" x="706.69" y="655.4818">&#171;System&#187;</text><text fill="#000000" font-family="Arial" font-size="14" lengthAdjust="spacing" textLength="37.3379" x="706.69" y="671.5805">MinIO</text></g><!--entity kn_project--><g class="entity" data-entity="kn_project" data-source-line="34" data-uid="ent0018" id="entity_kn_project"><rect fill="#F1F1F1" height="62.1973" rx="5" ry="5" style="stroke:#181818;stroke-width:0.5;" width="105.3447" x="887.92" y="336.85"/><rect fill="#F1F1F1" height="10" style="stroke:#181818;stroke-width:0.5;" width="15" x="973.2647" y="341.85"/><rect fill="#F1F1F1" height="2" style="stroke:#181818;stroke-width:0.5;" width="4" x="971.2647" y="343.85"/><rect fill="#F1F1F1" height="2" style="stroke:#181818;stroke-width:0.5;" width="4" x="971.2647" y="347.85"/><text fill="#000000" font-family="Arial" font-size="14" lengthAdjust="spacing" textLength="62.248" x="902.92" y="369.9818">&#171;System&#187;</text><text fill="#000000" font-family="Arial" font-size="14" lengthAdjust="spacing" textLength="65.3447" x="902.92" y="386.0805">project-srv</text></g><!--entity kn_llm--><g class="entity" data-entity="kn_llm" data-source-line="35" data-uid="ent0019" id="entity_kn_llm"><path d="M878.9837,442.1454 C883.0141,434.5058 888.3293,434.7748 892.8476,441.6803 C896.3209,434.8329 901.9127,436.1777 905.4329,441.6323 C906.9811,435.0272 912.8446,433.782 917.1176,438.9213 C920.6239,433.3978 926.8888,432.8785 930.3572,438.9645 C933.2545,433.3886 936.9742,433.6799 941.0859,437.5911 C945.193,431.9615 948.8602,431.0134 953.0126,437.5466 C957.1451,431.7483 963.8962,431.8219 966.3331,439.2538 C970.4008,433.9215 974.9145,434.7167 977.7419,440.524 C981.5655,433.4068 988.0693,435.4542 991.1422,441.2999 C995.5896,435.4557 1001.663,436.1707 1004.0649,443.3324 C1013.0396,447.4067 1011.8377,452.6228 1006.3976,458.8622 C1014.0854,461.1108 1016.0102,467.1133 1010.8744,473.33 C1016.7316,479.2707 1016.7569,486.771 1007.7329,489.8883 C1014.2938,497.097 1013.6274,502.2796 1004.2337,506.0297 C1000.4338,512.0707 995.5358,512.0032 991.7043,506.0627 C988.5979,512.0859 984.0055,512.8683 979.35,507.7862 C976.0898,514.9156 971.0205,515.4199 965.7214,510.0007 C963.4996,517.2199 957.9407,516.6092 953.5641,512.2664 C950.927,518.027 945.6507,518.9918 941.6627,513.7241 C937.1007,520.229 932.0212,518.662 928.6462,512.504 C924.236,516.5677 920.8626,515.579 918.0272,510.6453 C913.7631,516.7 907.9255,515.4748 905.4317,508.8822 C900.5928,515.2797 895.7475,512.861 892.6441,507.0625 C888.0489,512.0774 882.863,510.6106 880.4227,504.6607 C872.5201,502.6581 868.7435,495.8545 875.3895,489.1353 C866.2625,486.9099 864.598,482.2429 870.4962,474.8653 C863.4688,467.7422 865.7609,459.7764 875.6176,457.6869 C868.1815,450.8639 870.693,445.5622 878.9837,442.1454" fill="#F1F1F1" style="stroke:#181818;stroke-width:0.5;"/><text fill="#000000" font-family="Arial" font-size="14" lengthAdjust="spacing" textLength="62.248" x="885.72" y="461.9318">&#171;System&#187;</text><text fill="#000000" font-family="Arial" font-size="14" lengthAdjust="spacing" textLength="109.7305" x="885.72" y="478.0305">Embedding / LLM</text><text fill="#000000" font-family="Arial" font-size="14" lengthAdjust="spacing" textLength="59.1309" x="885.72" y="494.1291">Providers</text></g><g class="entity" data-entity="GMN39" data-source-line="58" data-uid="ent0040" id="entity_GMN39"><path d="M225.09,11 L225.09,40.8975 A5,5 0 0 0 230.09,45.8975 L324.9108,45.8975 A5,5 0 0 0 329.9108,40.8975 L329.9108,16 L319.9108,6 L230.09,6 A5,5 0 0 0 225.09,11" fill="#FFF2CC" style="stroke:#E06666;stroke-width:0.5;"/><path d="M319.9108,6 L319.9108,13.5 A2.5,2.5 0 0 0 322.4108,16 L329.9108,16 L319.9108,6" fill="#FFF2CC" style="stroke:#E06666;stroke-width:1;"/><text fill="#000000" font-family="Arial" font-size="13" lengthAdjust="spacing" textLength="74.4263" x="231.09" y="23.1938">search, chat,</text><text fill="#000000" font-family="Arial" font-size="13" lengthAdjust="spacing" textLength="83.8208" x="231.09" y="38.1426">report, internal</text></g><!--link kn_http to kn_search--><g class="link" data-entity-1="kn_http" data-entity-2="kn_search" data-source-line="37" data-uid="lnk20" id="link_kn_http_kn_search"><path d="M345,457.4 C458.54,457.4 675.45,457.4 675.45,457.4 C675.45,457.4 675.45,431.24 675.45,405.49" fill="none" id="kn_http-to-kn_search" style="stroke:#000000;stroke-width:1;"/><polygon fill="#000000" points="675.45,399.49,671.45,408.49,675.45,404.49,679.45,408.49,675.45,399.49" style="stroke:#000000;stroke-width:1;"/><text fill="#000000" font-family="Arial" font-size="13" lengthAdjust="spacing" textLength="42.6309" x="496.18" y="470.5938">/search</text></g><!--link kn_http to kn_chat--><g class="link" data-entity-1="kn_http" data-entity-2="kn_chat" data-source-line="38" data-uid="lnk21" id="link_kn_http_kn_chat"><path d="M344.87,420.95 C381.2,420.95 419.85,420.95 455.93,420.95" fill="none" id="kn_http-to-kn_chat" style="stroke:#000000;stroke-width:1;"/><polygon fill="#000000" points="461.93,420.95,452.93,416.95,456.93,420.95,452.93,424.95,461.93,420.95" style="stroke:#000000;stroke-width:1;"/><text fill="#000000" font-family="Arial" font-size="13" lengthAdjust="spacing" textLength="28.1836" x="374.4" y="434.1438">/chat</text></g><!--link kn_http to kn_report--><g class="link" data-entity-1="kn_http" data-entity-2="kn_report" data-source-line="39" data-uid="lnk22" id="link_kn_http_kn_report"><path d="M344.81,462.75 C418.84,462.75 527.45,462.75 527.45,462.75 C527.45,462.75 527.45,468.08 527.45,480.48" fill="none" id="kn_http-to-kn_report" style="stroke:#000000;stroke-width:1;"/><polygon fill="#000000" points="527.45,486.48,531.45,477.48,527.45,481.48,523.45,477.48,527.45,486.48" style="stroke:#000000;stroke-width:1;"/><text fill="#000000" font-family="Arial" font-size="13" lengthAdjust="spacing" textLength="44.0718" x="403" y="475.9438">/reports</text></g><!--link kn_kafka to kn_consumer--><g class="link" data-entity-1="kn_kafka" data-entity-2="kn_consumer" data-source-line="40" data-uid="lnk23" id="link_kn_kafka_kn_consumer"><path d="M129.83,323.95 C153.14,323.95 173.86,323.95 198.11,323.95" fill="none" id="kn_kafka-to-kn_consumer" style="stroke:#0000FF;stroke-width:1;"/><polygon fill="#0000FF" points="204.11,323.95,195.11,319.95,199.11,323.95,195.11,327.95,204.11,323.95" style="stroke:#0000FF;stroke-width:1;"/><text fill="#000000" font-family="Arial" font-size="13" lengthAdjust="spacing" textLength="112.7217" x="53.97" y="337.1438">downstream events</text></g><!--link kn_consumer to kn_index--><g class="link" data-entity-1="kn_consumer" data-entity-2="kn_index" data-source-line="41" data-uid="lnk24" id="link_kn_consumer_kn_index"><path d="M350.87,323.95 C382.16,323.95 412.69,323.95 444.4,323.95" fill="none" id="kn_consumer-to-kn_index" style="stroke:#000000;stroke-width:1;"/><polygon fill="#000000" points="450.4,323.95,441.4,319.95,445.4,323.95,441.4,327.95,450.4,323.95" style="stroke:#000000;stroke-width:1;"/></g><!--link kn_index to kn_qdrant--><g class="link" data-entity-1="kn_index" data-entity-2="kn_qdrant" data-source-line="42" data-uid="lnk25" id="link_kn_index_kn_qdrant"><path d="M527.45,292.39 C527.45,221.04 527.45,53.45 527.45,53.45 C527.45,53.45 788.32,53.45 893.08,53.45" fill="none" id="kn_index-to-kn_qdrant" style="stroke:#008000;stroke-width:1;"/><polygon fill="#008000" points="899.08,53.45,890.08,49.45,894.08,53.45,890.08,57.45,899.08,53.45" style="stroke:#008000;stroke-width:1;"/><text fill="#000000" font-family="Arial" font-size="13" lengthAdjust="spacing" textLength="74.4326" x="594.8" y="66.6438">upsert points</text></g><!--link kn_index to kn_redis--><g class="link" data-entity-1="kn_index" data-entity-2="kn_redis" data-source-line="43" data-uid="lnk26" id="link_kn_index_kn_redis"><path d="M605.36,295.75 C692.49,295.75 824.59,295.75 893.15,295.75" fill="none" id="kn_index-to-kn_redis" style="stroke:#FF0000;stroke-width:1;"/><polygon fill="#FF0000" points="899.15,295.75,890.15,291.75,894.15,295.75,890.15,299.75,899.15,295.75" style="stroke:#FF0000;stroke-width:1;"/><text fill="#000000" font-family="Arial" font-size="13" lengthAdjust="spacing" textLength="93.228" x="658.25" y="308.9438">invalidate cache</text></g><!--link kn_search to kn_redis--><g class="link" data-entity-1="kn_search" data-entity-2="kn_redis" data-source-line="44" data-uid="lnk27" id="link_kn_search_kn_redis"><path d="M806.45,336.55 C806.45,318.21 806.45,298.65 806.45,298.65 C806.45,298.65 853.84,298.65 893.25,298.65" fill="none" id="kn_search-to-kn_redis" style="stroke:#FF0000;stroke-width:1;"/><polygon fill="#FF0000" points="899.25,298.65,890.25,294.65,894.25,298.65,890.25,302.65,899.25,298.65" style="stroke:#FF0000;stroke-width:1;"/><text fill="#000000" font-family="Arial" font-size="13" lengthAdjust="spacing" textLength="64.3208" x="768.9" y="311.8438">read cache</text></g><!--link kn_search to kn_project--><g class="link" data-entity-1="kn_search" data-entity-2="kn_project" data-source-line="45" data-uid="lnk28" id="link_kn_search_kn_project"><path d="M811.02,367.95 C836.32,367.95 858.16,367.95 881.53,367.95" fill="none" id="kn_search-to-kn_project" style="stroke:#000000;stroke-width:1;"/><polygon fill="#000000" points="887.53,367.95,878.53,363.95,882.53,367.95,878.53,371.95,887.53,367.95" style="stroke:#000000;stroke-width:1;"/><text fill="#000000" font-family="Arial" font-size="13" lengthAdjust="spacing" textLength="101.8862" x="747.27" y="381.1438">resolve campaign</text></g><!--link kn_search to kn_qdrant--><g class="link" data-entity-1="kn_search" data-entity-2="kn_qdrant" data-source-line="46" data-uid="lnk29" id="link_kn_search_kn_qdrant"><path d="M802.45,336.54 C802.45,258.31 802.45,61 802.45,61 C802.45,61 852.45,61 893.14,61" fill="none" id="kn_search-to-kn_qdrant" style="stroke:#008000;stroke-width:1;"/><polygon fill="#008000" points="899.14,61,890.14,57,894.14,61,890.14,65,899.14,61" style="stroke:#008000;stroke-width:1;"/><text fill="#000000" font-family="Arial" font-size="13" lengthAdjust="spacing" textLength="94.6499" x="803.45" y="147.6238">semantic search</text></g><!--link kn_search to kn_llm--><g class="link" data-entity-1="kn_search" data-entity-2="kn_llm" data-source-line="47" data-uid="lnk30" id="link_kn_search_kn_llm"><path d="M794.45,399.29 C794.45,418.68 794.45,439.89 794.45,439.89 C794.45,439.89 827.01,439.89 864.52,439.89" fill="none" id="kn_search-to-kn_llm" style="stroke:#000000;stroke-width:1;"/><polygon fill="#000000" points="870.52,439.89,861.52,435.89,865.52,439.89,861.52,443.89,870.52,439.89" style="stroke:#000000;stroke-width:1;"/><text fill="#000000" font-family="Arial" font-size="13" lengthAdjust="spacing" textLength="64.3271" x="747.19" y="453.0838">embedding</text></g><!--link kn_chat to kn_search--><g class="link" data-entity-1="kn_chat" data-entity-2="kn_search" data-source-line="48" data-uid="lnk31" id="link_kn_chat_kn_search"><path d="M593.6,395.98 C616.11,395.98 635.41,395.98 658.46,395.98" fill="none" id="kn_chat-to-kn_search" style="stroke:#000000;stroke-width:1;"/><polygon fill="#000000" points="664.46,395.98,655.46,391.98,659.46,395.98,655.46,399.98,664.46,395.98" style="stroke:#000000;stroke-width:1;"/><text fill="#000000" font-family="Arial" font-size="13" lengthAdjust="spacing" textLength="88.8735" x="630.03" y="409.1738">retrieve context</text></g><!--link kn_chat to kn_llm--><g class="link" data-entity-1="kn_chat" data-entity-2="kn_llm" data-source-line="49" data-uid="lnk32" id="link_kn_chat_kn_llm"><path d="M593.58,445.97 C669.28,445.97 787.01,445.97 864.45,445.97" fill="none" id="kn_chat-to-kn_llm" style="stroke:#000000;stroke-width:1;"/><polygon fill="#000000" points="870.45,445.97,861.45,441.97,865.45,445.97,861.45,449.97,870.45,445.97" style="stroke:#000000;stroke-width:1;"/><text fill="#000000" font-family="Arial" font-size="13" lengthAdjust="spacing" textLength="106.958" x="625.02" y="459.1638">answer generation</text></g><!--link kn_chat to kn_repo--><g class="link" data-entity-1="kn_chat" data-entity-2="kn_repo" data-source-line="50" data-uid="lnk33" id="link_kn_chat_kn_repo"><path d="M593.57,392.92 C610.7,392.92 624.45,392.92 624.45,392.92 C624.45,392.92 624.45,165.9 624.45,165.9 C624.45,165.9 643.57,165.9 670.16,165.9" fill="none" id="kn_chat-to-kn_repo" style="stroke:#008000;stroke-width:1;"/><polygon fill="#008000" points="676.16,165.9,667.16,161.9,671.16,165.9,667.16,169.9,676.16,165.9" style="stroke:#008000;stroke-width:1;"/><text fill="#000000" font-family="Arial" font-size="13" lengthAdjust="spacing" textLength="115.6099" x="508.45" y="282.1938">persist conversation</text></g><!--link kn_report to kn_search--><g class="link" data-entity-1="kn_report" data-entity-2="kn_search" data-source-line="51" data-uid="lnk34" id="link_kn_report_kn_search"><path d="M599.64,499.48 C641.65,499.48 686.45,499.48 686.45,499.48 C686.45,499.48 686.45,444.37 686.45,405.45" fill="none" id="kn_report-to-kn_search" style="stroke:#000000;stroke-width:1;"/><polygon fill="#000000" points="686.45,399.45,682.45,408.45,686.45,404.45,690.45,408.45,686.45,399.45" style="stroke:#000000;stroke-width:1;"/><text fill="#000000" font-family="Arial" font-size="13" lengthAdjust="spacing" textLength="75.1372" x="610.45" y="490.0638">retrieval core</text></g><!--link kn_report to kn_llm--><g class="link" data-entity-1="kn_report" data-entity-2="kn_llm" data-source-line="52" data-uid="lnk35" id="link_kn_report_kn_llm"><path d="M599.62,505.79 C675.75,505.79 789.11,505.79 864.52,505.79" fill="none" id="kn_report-to-kn_llm" style="stroke:#000000;stroke-width:1;"/><polygon fill="#000000" points="870.52,505.79,861.52,501.79,865.52,505.79,861.52,509.79,870.52,505.79" style="stroke:#000000;stroke-width:1;"/><text fill="#000000" font-family="Arial" font-size="13" lengthAdjust="spacing" textLength="106.2407" x="628.07" y="518.9838">section generation</text></g><!--link kn_report to kn_minio--><g class="link" data-entity-1="kn_report" data-entity-2="kn_minio" data-source-line="53" data-uid="lnk36" id="link_kn_report_kn_minio"><path d="M599.88,530.57 C660.56,530.57 737.45,530.57 737.45,530.57 C737.45,530.57 737.45,577.08 737.45,612.16" fill="none" id="kn_report-to-kn_minio" style="stroke:#FFA500;stroke-width:1;"/><polygon fill="#FFA500" points="737.45,618.16,741.45,609.16,737.45,613.16,733.45,609.16,737.45,618.16" style="stroke:#FFA500;stroke-width:1;"/><text fill="#000000" font-family="Arial" font-size="13" lengthAdjust="spacing" textLength="81.6626" x="630.46" y="543.7638">upload artifact</text></g><!--link kn_report to kn_repo--><g class="link" data-entity-1="kn_report" data-entity-2="kn_repo" data-source-line="54" data-uid="lnk37" id="link_kn_report_kn_repo"><path d="M599.65,493.16 C623.67,493.16 644.45,493.16 644.45,493.16 C644.45,493.16 644.45,192 644.45,192 C644.45,192 652.84,192 670.32,192" fill="none" id="kn_report-to-kn_repo" style="stroke:#008000;stroke-width:1;"/><polygon fill="#008000" points="676.32,192,667.32,188,671.32,192,667.32,196,676.32,192" style="stroke:#008000;stroke-width:1;"/><text fill="#000000" font-family="Arial" font-size="13" lengthAdjust="spacing" textLength="65.0317" x="578.45" y="362.2438">save report</text></g><!--link kn_repo to kn_pg--><g class="link" data-entity-1="kn_repo" data-entity-2="kn_pg" data-source-line="55" data-uid="lnk38" id="link_kn_repo_kn_pg"><path d="M799.48,174.95 C829.19,174.95 858.31,174.95 886.08,174.95" fill="none" id="kn_repo-to-kn_pg" style="stroke:#008000;stroke-width:1;"/><polygon fill="#008000" points="892.08,174.95,883.08,170.95,887.08,174.95,883.08,178.95,892.08,174.95" style="stroke:#008000;stroke-width:1;"/><text fill="#000000" font-family="Arial" font-size="13" lengthAdjust="spacing" textLength="85.998" x="846.78" y="188.1438">metadata state</text></g><!--link kn_http to GMN39--><g class="link" data-entity-1="kn_http" data-entity-2="GMN39" data-source-line="58" data-uid="lnk41" id="link_kn_http_GMN39"><path d="M210,428.95 C187.22,428.95 167.45,428.95 167.45,428.95 C167.45,428.95 167.45,25.95 167.45,25.95 C167.45,25.95 196.49,25.95 224.73,25.95" fill="none" id="kn_http-GMN39" style="stroke:#181818;stroke-width:1;stroke-dasharray:7,7;"/></g><g class="legend" data-source-line="62"><rect fill="#DDDDDD" height="110.5918" rx="5" ry="5" style="stroke:#000000;stroke-width:1;" width="155.4961" x="842.2608" y="707.5473"/><text fill="#000000" font-family="Arial" font-size="14" font-weight="bold" lengthAdjust="spacing" textLength="36.5518" x="851.1504" y="727.6791">Color</text><text fill="#000000" font-family="Arial" font-size="14" font-weight="bold" lengthAdjust="spacing" textLength="56.7793" x="895.4815" y="727.6791">Protocol</text><rect fill="#0000FF" height="16.0986" style="stroke:none;stroke-width:1;" width="44.3311" x="847.2608" y="730.6459"/><text fill="#000000" font-family="Arial" font-size="14" lengthAdjust="spacing" textLength="7.7793" x="847.2608" y="743.7777">&#160;&#160;</text><text fill="#000000" font-family="Arial" font-size="14" lengthAdjust="spacing" textLength="35.7998" x="895.4815" y="743.7777">Kafka</text><rect fill="#008000" height="16.0986" style="stroke:none;stroke-width:1;" width="44.3311" x="847.2608" y="746.7445"/><text fill="#000000" font-family="Arial" font-size="14" lengthAdjust="spacing" textLength="7.7793" x="847.2608" y="759.8764">&#160;&#160;</text><text fill="#000000" font-family="Arial" font-size="14" lengthAdjust="spacing" textLength="66.9238" x="895.4815" y="759.8764">Data Store</text><rect fill="#FF0000" height="16.0986" style="stroke:none;stroke-width:1;" width="44.3311" x="847.2608" y="762.8432"/><text fill="#000000" font-family="Arial" font-size="14" lengthAdjust="spacing" textLength="7.7793" x="847.2608" y="775.975">&#160;&#160;</text><text fill="#000000" font-family="Arial" font-size="14" lengthAdjust="spacing" textLength="40.4688" x="895.4815" y="775.975">Cache</text><rect fill="#FFA500" height="16.0986" style="stroke:none;stroke-width:1;" width="44.3311" x="847.2608" y="778.9418"/><text fill="#000000" font-family="Arial" font-size="14" lengthAdjust="spacing" textLength="7.7793" x="847.2608" y="792.0736">&#160;&#160;</text><text fill="#000000" font-family="Arial" font-size="14" lengthAdjust="spacing" textLength="93.3857" x="895.4815" y="792.0736">Object Storage</text><rect fill="#000000" height="16.0986" style="stroke:none;stroke-width:1;" width="44.3311" x="847.2608" y="795.0404"/><text fill="#000000" font-family="Arial" font-size="14" lengthAdjust="spacing" textLength="7.7793" x="847.2608" y="808.1723">&#160;&#160;</text><text fill="#000000" font-family="Arial" font-size="14" lengthAdjust="spacing" textLength="74.7031" x="895.4815" y="808.1723">Internal Call</text><line style="stroke:#000000;stroke-width:1;" x1="847.2608" x2="992.7569" y1="714.5473" y2="714.5473"/><line style="stroke:#000000;stroke-width:1;" x1="847.2608" x2="992.7569" y1="730.6459" y2="730.6459"/><line style="stroke:#000000;stroke-width:1;" x1="847.2608" x2="992.7569" y1="746.7445" y2="746.7445"/><line style="stroke:#000000;stroke-width:1;" x1="847.2608" x2="992.7569" y1="762.8432" y2="762.8432"/><line style="stroke:#000000;stroke-width:1;" x1="847.2608" x2="992.7569" y1="778.9418" y2="778.9418"/><line style="stroke:#000000;stroke-width:1;" x1="847.2608" x2="992.7569" y1="795.0404" y2="795.0404"/><line style="stroke:#000000;stroke-width:1;" x1="847.2608" x2="992.7569" y1="811.1391" y2="811.1391"/><line style="stroke:#000000;stroke-width:1;" x1="847.2608" x2="847.2608" y1="714.5473" y2="811.1391"/><line style="stroke:#000000;stroke-width:1;" x1="891.5918" x2="891.5918" y1="714.5473" y2="811.1391"/><line style="stroke:#000000;stroke-width:1;" x1="992.7569" x2="992.7569" y1="714.5473" y2="811.1391"/></g><!--SRC=[XLN1Rjms4BtpAmQRIrlOjHkWHH2q0TnrX1fr6iURdfgY65EpMdOfKY6fTHPnlYYVa5k-B4DIqkugbgCJDVFUp2DdoF5hPHfqM4D9IsnrAAm9Vs5DSEOKQk47lrzXQM-LgM29sjEUHzgwiOPCM8Ij9cXh_NZFsw1SOqNPvqW6D9NUfplRcb9QPyZ1JwTx3gqCXMr3O5rOsJs7iO5-vx1LeiwjjWuU5KNnU3uVewmhoNM8vwU_y2SqBGC42qvLgm2bYfgKDK8Cuc3sfx6tcigAO45keoJDuBs0VYymktBaUSCOYN29MvR-tJbfjI6t_JvZONSkCFlySVZv_EcD-UFrwwiKcNadRyovhL4PkBPj83S3zB0s_wr2QBuHPcwDRsjoEL9Fb9sLoH_4lkYpfj5A7cZ-szCSFTqlkNF6J1Ucf7UnzfsjpwMY_K7cWj39rPZda_L1udo5OKoJR7kGT4qDDykOvfBrg_EuC4k7FhXMXjPHFf9x3o96zIfOjuqvXjx8wP93aTzFbb9nihSjjHGZBBO-K9tOk5mZe46z3Khw7t_eUUle42K6l67fXwHNfKCJUkJRz3S1lQPIxMdXdmdWbVMXShHuTTcZcse2-aAPYvSzgbP6MN5mFZjau-p_V8kElTiCKRD9I6tRyX3zlBwXienjTGANbozOaxCRnHTss83MjH3TPO3ZVnwTfk_VusUx9eAdSDArqnGmjas4fVQP0kKcYR2yyg8lIWyjYZvUTyCOp4-YuHOYVczemyUHM8D_d2DVbtwHtKzsxbnOZjesdbXBOrKNSS0NnO5aBY_3bTcWLbmx0eboHM9tE5CKLbpU1pwGsvKkmRtLcnY-Rb1LPaowRnEUQbue2RlgJEJXAZEU-cuGVSac2-uey9MBUdXQqRimoSYHqVXRhaP5F6BIytU8VtBO14nek0ML3p4yFwn-u7GzyYrTg9dfw056rkNpv1a9sr6AukpdWPBkNUeDRRbsw89QeWpZ95zlnkCc3jxq1FRMCRIf65XJmFW0WEV1HaB40GetDWHRWrqECodlzWZY0Hw97FY8Uv1d5xzgWaoPHg_WGLl5dpHdnTrlaCSmB_YQ1okjXZjnzsjtjPu1t45-73jhb9Uivr7JWbzPogxSqCarZntSM-DX9UlBczIsaH8V-Y5Bvxxef39RHmqiCalz0W00]--></g></svg>