<svg xmlns="http://www.w3.org/2000/svg" xmlns:xlink="http://www.w3.org/1999/xlink" contentStyleType="text/css" data-diagram-type="DESCRIPTION" height="529px" preserveAspectRatio="none" style="width:1238px;height:529px;background:#FFFFFF;" version="1.1" viewBox="0 0 1238 529" width="1238px" zoomAndPan="magnify"><defs/><g><!--cluster Notification Service--><g class="cluster" data-entity="Notification Service" data-source-line="13" data-uid="ent0003" id="cluster_Notification Service"><rect fill="none" height="293" rx="5" ry="5" style="stroke:#181818;stroke-width:1;" width="1102.85" x="7" y="61.95"/><text fill="#000000" font-family="Arial" font-size="14" font-weight="bold" lengthAdjust="spacing" textLength="130.7031" x="493.0734" y="77.0818">Notification Service</text></g><!--cluster Presentation Layer (Delivery)--><g class="cluster" data-entity="Presentation Layer .Delivery." data-source-line="14" data-uid="ent0004" id="cluster_Presentation Layer .Delivery."><rect fill="none" height="113" rx="5" ry="5" style="stroke:#181818;stroke-width:1;" width="415.56" x="31" y="112.95"/><text fill="#000000" font-family="Arial" font-size="14" font-weight="bold" lengthAdjust="spacing" textLength="193.7441" x="141.9079" y="128.0818">Presentation Layer (Delivery)</text></g><!--cluster Application Layer (UseCase)--><g class="cluster" data-entity="Application Layer .UseCase." data-source-line="19" data-uid="ent0007" id="cluster_Application Layer .UseCase."><rect fill="none" height="226" rx="5" ry="5" style="stroke:#181818;stroke-width:1;" width="404.69" x="681.16" y="104.95"/><text fill="#000000" font-family="Arial" font-size="14" font-weight="bold" lengthAdjust="spacing" textLength="189.834" x="788.588" y="120.0818">Application Layer (UseCase)</text></g><!--cluster Infrastructure Layer--><g class="cluster" data-entity="Infrastructure Layer" data-source-line="25" data-uid="ent0011" id="cluster_Infrastructure Layer"><rect fill="none" height="210" rx="5" ry="5" style="stroke:#181818;stroke-width:1;" width="178.6" x="474.56" y="120.95"/><text fill="#000000" font-family="Arial" font-size="14" font-weight="bold" lengthAdjust="spacing" textLength="132.2686" x="497.7257" y="136.0818">Infrastructure Layer</text></g><!--entity nt_handler--><g class="entity" data-entity="nt_handler" data-source-line="15" data-uid="ent0005" id="entity_nt_handler"><rect fill="#F1F1F1" height="62.1973" rx="5" ry="5" style="stroke:#181818;stroke-width:0.5;" width="164.5029" x="47" y="147.85"/><rect fill="#F1F1F1" height="10" style="stroke:#181818;stroke-width:0.5;" width="15" x="191.5029" y="152.85"/><rect fill="#F1F1F1" height="2" style="stroke:#181818;stroke-width:0.5;" width="4" x="189.5029" y="154.85"/><rect fill="#F1F1F1" height="2" style="stroke:#181818;stroke-width:0.5;" width="4" x="189.5029" y="158.85"/><text fill="#000000" font-family="Arial" font-size="14" lengthAdjust="spacing" textLength="84.8408" x="62" y="180.9818">&#171;component&#187;</text><text fill="#000000" font-family="Arial" font-size="14" lengthAdjust="spacing" textLength="124.5029" x="62" y="197.0805">WebSocket Handler</text></g><!--entity nt_req--><g class="entity" data-entity="nt_req" data-source-line="16" data-uid="ent0006" id="entity_nt_req"><rect fill="#F1F1F1" height="62.1973" rx="5" ry="5" style="stroke:#181818;stroke-width:0.5;" width="159.0547" x="271.5" y="147.85"/><rect fill="#F1F1F1" height="10" style="stroke:#181818;stroke-width:0.5;" width="15" x="410.5547" y="152.85"/><rect fill="#F1F1F1" height="2" style="stroke:#181818;stroke-width:0.5;" width="4" x="408.5547" y="154.85"/><rect fill="#F1F1F1" height="2" style="stroke:#181818;stroke-width:0.5;" width="4" x="408.5547" y="158.85"/><text fill="#000000" font-family="Arial" font-size="14" lengthAdjust="spacing" textLength="84.8408" x="286.5" y="180.9818">&#171;component&#187;</text><text fill="#000000" font-family="Arial" font-size="14" lengthAdjust="spacing" textLength="119.0547" x="286.5" y="197.0805">Request Processor</text></g><!--entity nt_router--><g class="entity" data-entity="nt_router" data-source-line="20" data-uid="ent0008" id="entity_nt_router"><rect fill="#F1F1F1" height="62.1973" rx="5" ry="5" style="stroke:#181818;stroke-width:0.5;" width="142.7168" x="697.16" y="252.85"/><rect fill="#F1F1F1" height="10" style="stroke:#181818;stroke-width:0.5;" width="15" x="819.8768" y="257.85"/><rect fill="#F1F1F1" height="2" style="stroke:#181818;stroke-width:0.5;" width="4" x="817.8768" y="259.85"/><rect fill="#F1F1F1" height="2" style="stroke:#181818;stroke-width:0.5;" width="4" x="817.8768" y="263.85"/><text fill="#000000" font-family="Arial" font-size="14" lengthAdjust="spacing" textLength="73.1514" x="712.16" y="285.9818">&#171;UseCase&#187;</text><text fill="#000000" font-family="Arial" font-size="14" lengthAdjust="spacing" textLength="102.7168" x="712.16" y="302.0805">Message Router</text></g><!--entity nt_hub--><g class="entity" data-entity="nt_hub" data-source-line="21" data-uid="ent0009" id="entity_nt_hub"><rect fill="#F1F1F1" height="78.2959" rx="5" ry="5" style="stroke:#181818;stroke-width:0.5;" width="169.9717" x="899.87" y="139.8"/><rect fill="#F1F1F1" height="10" style="stroke:#181818;stroke-width:0.5;" width="15" x="1049.8417" y="144.8"/><rect fill="#F1F1F1" height="2" style="stroke:#181818;stroke-width:0.5;" width="4" x="1047.8417" y="146.8"/><rect fill="#F1F1F1" height="2" style="stroke:#181818;stroke-width:0.5;" width="4" x="1047.8417" y="150.8"/><text fill="#000000" font-family="Arial" font-size="14" lengthAdjust="spacing" textLength="73.1514" x="914.87" y="172.9318">&#171;UseCase&#187;</text><text fill="#000000" font-family="Arial" font-size="14" lengthAdjust="spacing" textLength="129.9717" x="914.87" y="189.0305">Connection Manager</text><text fill="#000000" font-family="Arial" font-size="14" lengthAdjust="spacing" textLength="33.4619" x="914.87" y="205.1291">/ Hub</text></g><!--entity nt_alert--><g class="entity" data-entity="nt_alert" data-source-line="22" data-uid="ent0010" id="entity_nt_alert"><rect fill="#F1F1F1" height="62.1973" rx="5" ry="5" style="stroke:#181818;stroke-width:0.5;" width="127.1445" x="921.29" y="252.85"/><rect fill="#F1F1F1" height="10" style="stroke:#181818;stroke-width:0.5;" width="15" x="1028.4345" y="257.85"/><rect fill="#F1F1F1" height="2" style="stroke:#181818;stroke-width:0.5;" width="4" x="1026.4345" y="259.85"/><rect fill="#F1F1F1" height="2" style="stroke:#181818;stroke-width:0.5;" width="4" x="1026.4345" y="263.85"/><text fill="#000000" font-family="Arial" font-size="14" lengthAdjust="spacing" textLength="73.1514" x="936.29" y="285.9818">&#171;UseCase&#187;</text><text fill="#000000" font-family="Arial" font-size="14" lengthAdjust="spacing" textLength="87.1445" x="936.29" y="302.0805">Alert Dispatch</text></g><!--entity nt_sub--><g class="entity" data-entity="nt_sub" data-source-line="26" data-uid="ent0012" id="entity_nt_sub"><rect fill="#F1F1F1" height="62.1973" rx="5" ry="5" style="stroke:#181818;stroke-width:0.5;" width="146.5996" x="490.56" y="252.85"/><rect fill="#F1F1F1" height="10" style="stroke:#181818;stroke-width:0.5;" width="15" x="617.1596" y="257.85"/><rect fill="#F1F1F1" height="2" style="stroke:#181818;stroke-width:0.5;" width="4" x="615.1596" y="259.85"/><rect fill="#F1F1F1" height="2" style="stroke:#181818;stroke-width:0.5;" width="4" x="615.1596" y="263.85"/><text fill="#000000" font-family="Arial" font-size="14" lengthAdjust="spacing" textLength="84.8408" x="505.56" y="285.9818">&#171;component&#187;</text><text fill="#000000" font-family="Arial" font-size="14" lengthAdjust="spacing" textLength="106.5996" x="505.56" y="302.0805">Redis Subscriber</text></g><!--entity nt_jwt--><g class="entity" data-entity="nt_jwt" data-source-line="27" data-uid="ent0013" id="entity_nt_jwt"><rect fill="#F1F1F1" height="62.1973" rx="5" ry="5" style="stroke:#181818;stroke-width:0.5;" width="127.9102" x="499.9" y="155.85"/><rect fill="#F1F1F1" height="10" style="stroke:#181818;stroke-width:0.5;" width="15" x="607.8102" y="160.85"/><rect fill="#F1F1F1" height="2" style="stroke:#181818;stroke-width:0.5;" width="4" x="605.8102" y="162.85"/><rect fill="#F1F1F1" height="2" style="stroke:#181818;stroke-width:0.5;" width="4" x="605.8102" y="166.85"/><text fill="#000000" font-family="Arial" font-size="14" lengthAdjust="spacing" textLength="84.8408" x="514.9" y="188.9818">&#171;component&#187;</text><text fill="#000000" font-family="Arial" font-size="14" lengthAdjust="spacing" textLength="87.9102" x="514.9" y="205.0805">JWT Manager</text></g><!--entity nt_client--><g class="entity" data-entity="nt_client" data-source-line="11" data-uid="ent0002" id="entity_nt_client"><ellipse cx="1180.9719" cy="141.35" fill="#F1F1F1" rx="8" ry="8" style="stroke:#181818;stroke-width:0.5;"/><path d="M1180.9719,149.35 L1180.9719,176.35 M1167.9719,157.35 L1193.9719,157.35 M1180.9719,176.35 L1167.9719,191.35 M1180.9719,176.35 L1193.9719,191.35" fill="none" style="stroke:#181818;stroke-width:0.5;"/><text fill="#000000" font-family="Arial" font-size="14" lengthAdjust="spacing" textLength="45.1309" x="1133.51" y="205.9818">&#171;User&#187;</text><text fill="#000000" font-family="Arial" font-size="14" lengthAdjust="spacing" textLength="94.9238" x="1133.51" y="222.0805">Realtime Client</text></g><!--entity nt_redis--><g class="entity" data-entity="nt_redis" data-source-line="31" data-uid="ent0014" id="entity_nt_redis"><path d="M299.33,370.85 L402.7226,370.85 C407.7226,370.85 407.7226,391.9486 407.7226,391.9486 C407.7226,391.9486 407.7226,413.0473 402.7226,413.0473 L299.33,413.0473 C294.33,413.0473 294.33,391.9486 294.33,391.9486 C294.33,391.9486 294.33,370.85 299.33,370.85" fill="#F1F1F1" style="stroke:#181818;stroke-width:0.5;"/><path d="M402.7226,370.85 C397.7226,370.85 397.7226,391.9486 397.7226,391.9486 C397.7226,413.0473 402.7226,413.0473 402.7226,413.0473" fill="none" style="stroke:#181818;stroke-width:0.5;"/><text fill="#000000" font-family="Arial" font-size="14" lengthAdjust="spacing" textLength="62.248" x="299.33" y="388.9818">&#171;System&#187;</text><text fill="#000000" font-family="Arial" font-size="14" lengthAdjust="spacing" textLength="93.3926" x="299.33" y="405.0805">Redis Pub/Sub</text></g><!--entity nt_discord--><g class="entity" data-entity="nt_discord" data-source-line="32" data-uid="ent0015" id="entity_nt_discord"><rect fill="#F1F1F1" height="62.1973" rx="5" ry="5" style="stroke:#181818;stroke-width:0.5;" width="102.248" x="1129.85" y="259.85"/><rect fill="#F1F1F1" height="10" style="stroke:#181818;stroke-width:0.5;" width="15" x="1212.098" y="264.85"/><rect fill="#F1F1F1" height="2" style="stroke:#181818;stroke-width:0.5;" width="4" x="1210.098" y="266.85"/><rect fill="#F1F1F1" height="2" style="stroke:#181818;stroke-width:0.5;" width="4" x="1210.098" y="270.85"/><text fill="#000000" font-family="Arial" font-size="14" lengthAdjust="spacing" textLength="62.248" x="1144.85" y="292.9818">&#171;System&#187;</text><text fill="#000000" font-family="Arial" font-size="14" lengthAdjust="spacing" textLength="47.4551" x="1144.85" y="309.0805">Discord</text></g><g class="entity" data-entity="GMN26" data-source-line="46" data-uid="ent0027" id="entity_GMN26"><path d="M93.83,11 L93.83,40.8975 A5,5 0 0 0 98.83,45.8975 L125.09,45.8975 L129.09,147.62 L133.09,45.8975 L159.6654,45.8975 A5,5 0 0 0 164.6654,40.8975 L164.6654,16 L154.6654,6 L98.83,6 A5,5 0 0 0 93.83,11" fill="#FFF2CC" style="stroke:#E06666;stroke-width:0.5;"/><path d="M154.6654,6 L154.6654,13.5 A2.5,2.5 0 0 0 157.1654,16 L164.6654,16 L154.6654,6" fill="#FFF2CC" style="stroke:#E06666;stroke-width:0.5;"/><text fill="#000000" font-family="Arial" font-size="13" lengthAdjust="spacing" textLength="49.8354" x="99.83" y="23.1938">GET /ws</text><text fill="#000000" font-family="Arial" font-size="13" lengthAdjust="spacing" textLength="47.709" x="99.83" y="38.1426">upgrade</text></g><!--link nt_client to nt_handler--><g class="link" data-entity-1="nt_client" data-entity-2="nt_handler" data-source-line="34" data-uid="lnk16" id="link_nt_client_nt_handler"><path d="M1181.09,225.34 C1181.09,233.24 1181.09,238.95 1181.09,238.95 C1181.09,238.95 129.09,238.95 129.09,238.95 C129.09,238.95 129.09,230.87 129.09,216.36" fill="none" id="nt_client-to-nt_handler" style="stroke:#F39C12;stroke-width:1;"/><polygon fill="#F39C12" points="129.09,210.36,125.09,219.36,129.09,215.36,133.09,219.36,129.09,210.36" style="stroke:#F39C12;stroke-width:1;"/><text fill="#000000" font-family="Arial" font-size="13" lengthAdjust="spacing" textLength="61.4199" x="585.6" y="236.1438">websocket</text></g><!--link nt_handler to nt_req--><g class="link" data-entity-1="nt_handler" data-entity-2="nt_req" data-source-line="35" data-uid="lnk17" id="link_nt_handler_nt_req"><path d="M211.83,178.95 C231.29,178.95 246,178.95 265.33,178.95" fill="none" id="nt_handler-to-nt_req" style="stroke:#000000;stroke-width:1;"/><polygon fill="#000000" points="271.33,178.95,262.33,174.95,266.33,178.95,262.33,182.95,271.33,178.95" style="stroke:#000000;stroke-width:1;"/><text fill="#000000" font-family="Arial" font-size="13" lengthAdjust="spacing" textLength="94.6816" x="146.58" y="192.1438">upgrade request</text></g><!--link nt_req to nt_jwt--><g class="link" data-entity-1="nt_req" data-entity-2="nt_jwt" data-source-line="36" data-uid="lnk18" id="link_nt_req_nt_jwt"><path d="M430.88,182.95 C453.53,182.95 471.89,182.95 493.5,182.95" fill="none" id="nt_req-to-nt_jwt" style="stroke:#000000;stroke-width:1;"/><polygon fill="#000000" points="499.5,182.95,490.5,178.95,494.5,182.95,490.5,186.95,499.5,182.95" style="stroke:#000000;stroke-width:1;"/><text fill="#000000" font-family="Arial" font-size="13" lengthAdjust="spacing" textLength="66.4727" x="398.19" y="196.1438">verify token</text></g><!--link nt_handler to nt_hub--><g class="link" data-entity-1="nt_handler" data-entity-2="nt_hub" data-source-line="37" data-uid="lnk19" id="link_nt_handler_nt_hub"><path d="M188.09,147.59 C188.09,145.28 188.09,143.83 188.09,143.83 C188.09,143.83 688.05,143.83 893.59,143.83" fill="none" id="nt_handler-to-nt_hub" style="stroke:#000000;stroke-width:1;"/><polygon fill="#000000" points="899.59,143.83,890.59,139.83,894.59,143.83,890.59,147.83,899.59,143.83" style="stroke:#000000;stroke-width:1;"/><text fill="#000000" font-family="Arial" font-size="13" lengthAdjust="spacing" textLength="43.3481" x="542.96" y="149.0238">register</text></g><!--link nt_redis to nt_sub--><g class="link" data-entity-1="nt_redis" data-entity-2="nt_sub" data-source-line="38" data-uid="lnk20" id="link_nt_redis_nt_sub"><path d="M351.09,370.36 C351.09,338.84 351.09,283.95 351.09,283.95 C351.09,283.95 422.84,283.95 484.34,283.95" fill="none" id="nt_redis-to-nt_sub" style="stroke:#FF0000;stroke-width:1;"/><polygon fill="#FF0000" points="490.34,283.95,481.34,279.95,485.34,283.95,481.34,287.95,490.34,283.95" style="stroke:#FF0000;stroke-width:1;"/><text fill="#000000" font-family="Arial" font-size="13" lengthAdjust="spacing" textLength="55.6372" x="321.51" y="297.1438">subscribe</text></g><!--link nt_sub to nt_router--><g class="link" data-entity-1="nt_sub" data-entity-2="nt_router" data-source-line="39" data-uid="lnk21" id="link_nt_sub_nt_router"><path d="M637.45,283.95 C656.82,283.95 671.68,283.95 690.94,283.95" fill="none" id="nt_sub-to-nt_router" style="stroke:#000000;stroke-width:1;"/><polygon fill="#000000" points="696.94,283.95,687.94,279.95,691.94,283.95,687.94,287.95,696.94,283.95" style="stroke:#000000;stroke-width:1;"/><text fill="#000000" font-family="Arial" font-size="13" lengthAdjust="spacing" textLength="101.8799" x="565.2" y="297.1438">process message</text></g><!--link nt_router to nt_hub--><g class="link" data-entity-1="nt_router" data-entity-2="nt_hub" data-source-line="40" data-uid="lnk22" id="link_nt_router_nt_hub"><path d="M840.13,273.59 C875.25,273.59 910.09,273.59 910.09,273.59 C910.09,273.59 910.09,250.47 910.09,224.54" fill="none" id="nt_router-to-nt_hub" style="stroke:#000000;stroke-width:1;"/><polygon fill="#000000" points="910.09,218.54,906.09,227.54,910.09,223.54,914.09,227.54,910.09,218.54" style="stroke:#000000;stroke-width:1;"/><text fill="#000000" font-family="Arial" font-size="13" lengthAdjust="spacing" textLength="79.479" x="822.64" y="286.7838">realtime route</text></g><!--link nt_router to nt_alert--><g class="link" data-entity-1="nt_router" data-entity-2="nt_alert" data-source-line="41" data-uid="lnk23" id="link_nt_router_nt_alert"><path d="M840.25,294.32 C866.33,294.32 889.6,294.32 914.96,294.32" fill="none" id="nt_router-to-nt_alert" style="stroke:#000000;stroke-width:1;"/><polygon fill="#000000" points="920.96,294.32,911.96,290.32,915.96,294.32,911.96,298.32,920.96,294.32" style="stroke:#000000;stroke-width:1;"/><text fill="#000000" font-family="Arial" font-size="13" lengthAdjust="spacing" textLength="58.5317" x="821.61" y="307.5138">alert route</text></g><!--link nt_hub to nt_client--><g class="link" data-entity-1="nt_hub" data-entity-2="nt_client" data-source-line="42" data-uid="lnk24" id="link_nt_hub_nt_client"><path d="M1070.31,178.95 C1091.88,178.95 1108.28,178.95 1127.24,178.95" fill="none" id="nt_hub-to-nt_client" style="stroke:#F39C12;stroke-width:1;"/><polygon fill="#F39C12" points="1133.24,178.95,1124.24,174.95,1128.24,178.95,1124.24,182.95,1133.24,178.95" style="stroke:#F39C12;stroke-width:1;"/><text fill="#000000" font-family="Arial" font-size="13" lengthAdjust="spacing" textLength="28.1899" x="1072.77" y="192.1438">push</text></g><!--link nt_alert to nt_discord--><g class="link" data-entity-1="nt_alert" data-entity-2="nt_discord" data-source-line="43" data-uid="lnk25" id="link_nt_alert_nt_discord"><path d="M1048.8,287.45 C1074.96,287.45 1098.81,287.45 1123.52,287.45" fill="none" id="nt_alert-to-nt_discord" style="stroke:#000000;stroke-width:1;"/><polygon fill="#000000" points="1129.52,287.45,1120.52,283.45,1124.52,287.45,1120.52,291.45,1129.52,287.45" style="stroke:#000000;stroke-width:1;"/><text fill="#000000" font-family="Arial" font-size="13" lengthAdjust="spacing" textLength="52.0381" x="1036.16" y="300.6438">webhook</text></g><g class="legend" data-source-line="50"><rect fill="#DDDDDD" height="78.3945" rx="5" ry="5" style="stroke:#000000;stroke-width:1;" width="155.5029" x="1056.5951" y="431.0473"/><text fill="#000000" font-family="Arial" font-size="14" font-weight="bold" lengthAdjust="spacing" textLength="36.5518" x="1065.4848" y="451.1791">Color</text><text fill="#000000" font-family="Arial" font-size="14" font-weight="bold" lengthAdjust="spacing" textLength="56.7793" x="1109.8158" y="451.1791">Protocol</text><rect fill="#F39C12" height="16.0986" style="stroke:none;stroke-width:1;" width="44.3311" x="1061.5951" y="454.1459"/><text fill="#000000" font-family="Arial" font-size="14" lengthAdjust="spacing" textLength="7.7793" x="1061.5951" y="467.2777">&#160;&#160;</text><text fill="#000000" font-family="Arial" font-size="14" lengthAdjust="spacing" textLength="71.5859" x="1109.8158" y="467.2777">WebSocket</text><rect fill="#FF0000" height="16.0986" style="stroke:none;stroke-width:1;" width="44.3311" x="1061.5951" y="470.2445"/><text fill="#000000" font-family="Arial" font-size="14" lengthAdjust="spacing" textLength="7.7793" x="1061.5951" y="483.3764">&#160;&#160;</text><text fill="#000000" font-family="Arial" font-size="14" lengthAdjust="spacing" textLength="93.3926" x="1109.8158" y="483.3764">Redis Pub/Sub</text><rect fill="#000000" height="16.0986" style="stroke:none;stroke-width:1;" width="44.3311" x="1061.5951" y="486.3432"/><text fill="#000000" font-family="Arial" font-size="14" lengthAdjust="spacing" textLength="7.7793" x="1061.5951" y="499.475">&#160;&#160;</text><text fill="#000000" font-family="Arial" font-size="14" lengthAdjust="spacing" textLength="74.7031" x="1109.8158" y="499.475">Internal Call</text><line style="stroke:#000000;stroke-width:1;" x1="1061.5951" x2="1207.098" y1="438.0473" y2="438.0473"/><line style="stroke:#000000;stroke-width:1;" x1="1061.5951" x2="1207.098" y1="454.1459" y2="454.1459"/><line style="stroke:#000000;stroke-width:1;" x1="1061.5951" x2="1207.098" y1="470.2445" y2="470.2445"/><line style="stroke:#000000;stroke-width:1;" x1="1061.5951" x2="1207.098" y1="486.3432" y2="486.3432"/><line style="stroke:#000000;stroke-width:1;" x1="1061.5951" x2="1207.098" y1="502.4418" y2="502.4418"/><line style="stroke:#000000;stroke-width:1;" x1="1061.5951" x2="1061.5951" y1="438.0473" y2="502.4418"/><line style="stroke:#000000;stroke-width:1;" x1="1105.9262" x2="1105.9262" y1="438.0473" y2="502.4418"/><line style="stroke:#000000;stroke-width:1;" x1="1207.098" x2="1207.098" y1="438.0473" y2="502.4418"/></g><!--SRC=[XLJBRXCn5DtxAwxI3InG7qX88AXKfWqjebML57L14VBCtCoOEFRKzZIA25_49x3hbt5jpojjIMUJsEUSwtCVjfqBLN735v3ZZDVIZRLo5to1S6G4bynsk2rvhfT25J3Zqk80oVIYqWgLcxgLHAWNyc20LZoRym8ZPZ1pN1LoA3UwLdccZK83-ti3G0g5RbKXQEDAFG2KTlYHmXP1ccYf3UoCn-E397d8qYP7qp1EzjxGnoJE73WDHXIbWrnuJq8hndZcY3Qw__FLehd_UwCcoAKJL8j42afl1Do2SZ-oi6AiImP65zg9cSYu3mHJD7SYmn7yOj2c3wDBWvPaaVA5hoZR5ySenHsQrSl8XRwKtaQty5wkCPtgR8uEJhdA9PhMJHcNpyWdU5kZTN1fT8RMwavky9QalzdGwb5LoJQPnYcL9E4MdpRQWFwSSmhkOqnqxNgF9gos2XEjL6m4d7D58SoDseNJEktohDEj0Owe20wEXQsuoyfMnVtkemJFrCnmwqoTkTfWpF7v5amm5nQcTMep8z8-E_kKimtbv-khDgjMz7CPRP4nwaoDNZDTMOUB_gZBEjsTzXKmVfDjdD8hA76wGtdBpUEIiMvUuTMtdV7hjyd-mVTNXuF1WNUmnDI6sMA3RQBlXQ-Xqw0GjQuAmtD_aSCyiGPuIARiY4oZBMOhkcjpLDj2Ksk9RR0Grez9csfmF1xmRE3PjW6isNhaD4mRCQiuxB28Gybwx7yEcliUM5leOQf847yxTXdDR5IvAJwPgMt9Ekt3Y4s_OZDAhUVKENg_8DNEwGNesV2gVpgvWjsbPKqp6Aeyl7QCthR2ByBJnjOV8Bvyz8VklTEPbh1cw_UDmqE0DVJlIaH2lGEoCOCHZPO3UgQeC8fBIBZqKT5RyuV_0m00]--></g></svg>