<svg xmlns="http://www.w3.org/2000/svg" xmlns:xlink="http://www.w3.org/1999/xlink" contentStyleType="text/css" data-diagram-type="DESCRIPTION" height="696px" preserveAspectRatio="none" style="width:965px;height:696px;background:#FFFFFF;" version="1.1" viewBox="0 0 965 696" width="965px" zoomAndPan="magnify"><defs/><g><!--cluster Project Service--><g class="cluster" data-entity="Project Service" data-source-line="11" data-uid="ent0002" id="cluster_Project Service"><rect fill="none" height="503" rx="5" ry="5" style="stroke:#181818;stroke-width:1;" width="776.38" x="7" y="61.95"/><text fill="#000000" font-family="Arial" font-size="14" font-weight="bold" lengthAdjust="spacing" textLength="101.1719" x="344.6041" y="77.0818">Project Service</text></g><!--cluster Presentation Layer (Delivery)--><g class="cluster" data-entity="Presentation Layer .Delivery." data-source-line="12" data-uid="ent0003" id="cluster_Presentation Layer .Delivery."><rect fill="none" height="113" rx="5" ry="5" style="stroke:#181818;stroke-width:1;" width="209" x="31" y="262.95"/><text fill="#000000" font-family="Arial" font-size="14" font-weight="bold" lengthAdjust="spacing" textLength="193.7441" x="38.6279" y="278.0818">Presentation Layer (Delivery)</text></g><!--cluster Application Layer (UseCase)--><g class="cluster" data-entity="Application Layer .UseCase." data-source-line="16" data-uid="ent0005" id="cluster_Application Layer .UseCase."><rect fill="none" height="323" rx="5" ry="5" style="stroke:#181818;stroke-width:1;" width="205" x="316" y="209.95"/><text fill="#000000" font-family="Arial" font-size="14" font-weight="bold" lengthAdjust="spacing" textLength="189.834" x="323.583" y="225.0818">Application Layer (UseCase)</text></g><!--cluster Infrastructure Layer--><g class="cluster" data-entity="Infrastructure Layer" data-source-line="22" data-uid="ent0009" id="cluster_Infrastructure Layer"><rect fill="none" height="436" rx="5" ry="5" style="stroke:#181818;stroke-width:1;" width="186.38" x="573" y="104.95"/><text fill="#000000" font-family="Arial" font-size="14" font-weight="bold" lengthAdjust="spacing" textLength="132.2686" x="600.0557" y="120.0818">Infrastructure Layer</text></g><!--entity pr_handler--><g class="entity" data-entity="pr_handler" data-source-line="13" data-uid="ent0004" id="entity_pr_handler"><rect fill="#F1F1F1" height="62.1973" rx="5" ry="5" style="stroke:#181818;stroke-width:0.5;" width="136.4893" x="66.76" y="297.85"/><rect fill="#F1F1F1" height="10" style="stroke:#181818;stroke-width:0.5;" width="15" x="183.2493" y="302.85"/><rect fill="#F1F1F1" height="2" style="stroke:#181818;stroke-width:0.5;" width="4" x="181.2493" y="304.85"/><rect fill="#F1F1F1" height="2" style="stroke:#181818;stroke-width:0.5;" width="4" x="181.2493" y="308.85"/><text fill="#000000" font-family="Arial" font-size="14" lengthAdjust="spacing" textLength="84.8408" x="81.76" y="330.9818">&#171;component&#187;</text><text fill="#000000" font-family="Arial" font-size="14" lengthAdjust="spacing" textLength="96.4893" x="81.76" y="347.0805">Project Handler</text></g><!--entity pr_project--><g class="entity" data-entity="pr_project" data-source-line="17" data-uid="ent0006" id="entity_pr_project"><rect fill="#F1F1F1" height="62.1973" rx="5" ry="5" style="stroke:#181818;stroke-width:0.5;" width="145.041" x="345.48" y="454.85"/><rect fill="#F1F1F1" height="10" style="stroke:#181818;stroke-width:0.5;" width="15" x="470.521" y="459.85"/><rect fill="#F1F1F1" height="2" style="stroke:#181818;stroke-width:0.5;" width="4" x="468.521" y="461.85"/><rect fill="#F1F1F1" height="2" style="stroke:#181818;stroke-width:0.5;" width="4" x="468.521" y="465.85"/><text fill="#000000" font-family="Arial" font-size="14" lengthAdjust="spacing" textLength="73.1514" x="360.48" y="487.9818">&#171;UseCase&#187;</text><text fill="#000000" font-family="Arial" font-size="14" lengthAdjust="spacing" textLength="105.041" x="360.48" y="504.0805">Project UseCase</text></g><!--entity pr_lifecycle--><g class="entity" data-entity="pr_lifecycle" data-source-line="18" data-uid="ent0007" id="entity_pr_lifecycle"><rect fill="#F1F1F1" height="62.1973" rx="5" ry="5" style="stroke:#181818;stroke-width:0.5;" width="155.9375" x="340.03" y="244.85"/><rect fill="#F1F1F1" height="10" style="stroke:#181818;stroke-width:0.5;" width="15" x="475.9675" y="249.85"/><rect fill="#F1F1F1" height="2" style="stroke:#181818;stroke-width:0.5;" width="4" x="473.9675" y="251.85"/><rect fill="#F1F1F1" height="2" style="stroke:#181818;stroke-width:0.5;" width="4" x="473.9675" y="255.85"/><text fill="#000000" font-family="Arial" font-size="14" lengthAdjust="spacing" textLength="73.1514" x="355.03" y="277.9818">&#171;UseCase&#187;</text><text fill="#000000" font-family="Arial" font-size="14" lengthAdjust="spacing" textLength="115.9375" x="355.03" y="294.0805">Lifecycle UseCase</text></g><!--entity pr_crisis--><g class="entity" data-entity="pr_crisis" data-source-line="19" data-uid="ent0008" id="entity_pr_crisis"><rect fill="#F1F1F1" height="78.2959" rx="5" ry="5" style="stroke:#181818;stroke-width:0.5;" width="119.3516" x="358.32" y="341.8"/><rect fill="#F1F1F1" height="10" style="stroke:#181818;stroke-width:0.5;" width="15" x="457.6716" y="346.8"/><rect fill="#F1F1F1" height="2" style="stroke:#181818;stroke-width:0.5;" width="4" x="455.6716" y="348.8"/><rect fill="#F1F1F1" height="2" style="stroke:#181818;stroke-width:0.5;" width="4" x="455.6716" y="352.8"/><text fill="#000000" font-family="Arial" font-size="14" lengthAdjust="spacing" textLength="73.1514" x="373.32" y="374.9318">&#171;UseCase&#187;</text><text fill="#000000" font-family="Arial" font-size="14" lengthAdjust="spacing" textLength="79.3516" x="373.32" y="391.0305">Crisis Config</text><text fill="#000000" font-family="Arial" font-size="14" lengthAdjust="spacing" textLength="57.5791" x="373.32" y="407.1291">UseCase</text></g><!--entity pr_repo--><g class="entity" data-entity="pr_repo" data-source-line="23" data-uid="ent0010" id="entity_pr_repo"><rect fill="#F1F1F1" height="62.1973" rx="5" ry="5" style="stroke:#181818;stroke-width:0.5;" width="154.3789" x="589" y="349.85"/><rect fill="#F1F1F1" height="10" style="stroke:#181818;stroke-width:0.5;" width="15" x="723.3789" y="354.85"/><rect fill="#F1F1F1" height="2" style="stroke:#181818;stroke-width:0.5;" width="4" x="721.3789" y="356.85"/><rect fill="#F1F1F1" height="2" style="stroke:#181818;stroke-width:0.5;" width="4" x="721.3789" y="360.85"/><text fill="#000000" font-family="Arial" font-size="14" lengthAdjust="spacing" textLength="82.4893" x="604" y="382.9818">&#171;Repository&#187;</text><text fill="#000000" font-family="Arial" font-size="14" lengthAdjust="spacing" textLength="114.3789" x="604" y="399.0805">Project Repository</text></g><!--entity pr_ingest--><g class="entity" data-entity="pr_ingest" data-source-line="24" data-uid="ent0011" id="entity_pr_ingest"><rect fill="#F1F1F1" height="62.1973" rx="5" ry="5" style="stroke:#181818;stroke-width:0.5;" width="124.8408" x="603.77" y="252.85"/><rect fill="#F1F1F1" height="10" style="stroke:#181818;stroke-width:0.5;" width="15" x="708.6108" y="257.85"/><rect fill="#F1F1F1" height="2" style="stroke:#181818;stroke-width:0.5;" width="4" x="706.6108" y="259.85"/><rect fill="#F1F1F1" height="2" style="stroke:#181818;stroke-width:0.5;" width="4" x="706.6108" y="263.85"/><text fill="#000000" font-family="Arial" font-size="14" lengthAdjust="spacing" textLength="84.8408" x="618.77" y="285.9818">&#171;component&#187;</text><text fill="#000000" font-family="Arial" font-size="14" lengthAdjust="spacing" textLength="77.8203" x="618.77" y="302.0805">Ingest Client</text></g><!--entity pr_pub--><g class="entity" data-entity="pr_pub" data-source-line="25" data-uid="ent0012" id="entity_pr_pub"><rect fill="#F1F1F1" height="78.2959" rx="5" ry="5" style="stroke:#181818;stroke-width:0.5;" width="134.1582" x="599.11" y="139.8"/><rect fill="#F1F1F1" height="10" style="stroke:#181818;stroke-width:0.5;" width="15" x="713.2682" y="144.8"/><rect fill="#F1F1F1" height="2" style="stroke:#181818;stroke-width:0.5;" width="4" x="711.2682" y="146.8"/><rect fill="#F1F1F1" height="2" style="stroke:#181818;stroke-width:0.5;" width="4" x="711.2682" y="150.8"/><text fill="#000000" font-family="Arial" font-size="14" lengthAdjust="spacing" textLength="84.8408" x="614.11" y="172.9318">&#171;component&#187;</text><text fill="#000000" font-family="Arial" font-size="14" lengthAdjust="spacing" textLength="94.1582" x="614.11" y="189.0305">Lifecycle Event</text><text fill="#000000" font-family="Arial" font-size="14" lengthAdjust="spacing" textLength="58.3652" x="614.11" y="205.1291">Publisher</text></g><!--entity pr_domain--><g class="entity" data-entity="pr_domain" data-source-line="26" data-uid="ent0013" id="entity_pr_domain"><rect fill="#F1F1F1" height="78.2959" rx="5" ry="5" style="stroke:#181818;stroke-width:0.5;" width="143.4756" x="594.45" y="446.8"/><rect fill="#F1F1F1" height="10" style="stroke:#181818;stroke-width:0.5;" width="15" x="717.9256" y="451.8"/><rect fill="#F1F1F1" height="2" style="stroke:#181818;stroke-width:0.5;" width="4" x="715.9256" y="453.8"/><rect fill="#F1F1F1" height="2" style="stroke:#181818;stroke-width:0.5;" width="4" x="715.9256" y="457.8"/><text fill="#000000" font-family="Arial" font-size="14" lengthAdjust="spacing" textLength="84.8408" x="609.45" y="479.9318">&#171;component&#187;</text><text fill="#000000" font-family="Arial" font-size="14" lengthAdjust="spacing" textLength="103.4756" x="609.45" y="496.0305">Domain Registry</text><text fill="#000000" font-family="Arial" font-size="14" lengthAdjust="spacing" textLength="35.793" x="609.45" y="512.1291">Client</text></g><!--entity pr_pg--><g class="entity" data-entity="pr_pg" data-source-line="30" data-uid="ent0014" id="entity_pr_pg"><path d="M832.94,360.35 C832.94,350.35 881.0709,350.35 881.0709,350.35 C881.0709,350.35 929.2017,350.35 929.2017,360.35 L929.2017,401.5473 C929.2017,411.5473 881.0709,411.5473 881.0709,411.5473 C881.0709,411.5473 832.94,411.5473 832.94,401.5473 L832.94,360.35" fill="#F1F1F1" style="stroke:#181818;stroke-width:0.5;"/><path d="M832.94,360.35 C832.94,370.35 881.0709,370.35 881.0709,370.35 C881.0709,370.35 929.2017,370.35 929.2017,360.35" fill="none" style="stroke:#181818;stroke-width:0.5;"/><text fill="#000000" font-family="Arial" font-size="14" lengthAdjust="spacing" textLength="62.248" x="842.94" y="387.4818">&#171;System&#187;</text><text fill="#000000" font-family="Arial" font-size="14" lengthAdjust="spacing" textLength="76.2617" x="842.94" y="403.5805">PostgreSQL</text></g><!--entity pr_redis--><g class="entity" data-entity="pr_redis" data-source-line="31" data-uid="ent0015" id="entity_pr_redis"><path d="M828.28,457.3 C828.28,447.3 881.0798,447.3 881.0798,447.3 C881.0798,447.3 933.8796,447.3 933.8796,457.3 L933.8796,514.5959 C933.8796,524.5959 881.0798,524.5959 881.0798,524.5959 C881.0798,524.5959 828.28,524.5959 828.28,514.5959 L828.28,457.3" fill="#F1F1F1" style="stroke:#181818;stroke-width:0.5;"/><path d="M828.28,457.3 C828.28,467.3 881.0798,467.3 881.0798,467.3 C881.0798,467.3 933.8796,467.3 933.8796,457.3" fill="none" style="stroke:#181818;stroke-width:0.5;"/><text fill="#000000" font-family="Arial" font-size="14" lengthAdjust="spacing" textLength="62.248" x="838.28" y="484.4318">&#171;System&#187;</text><text fill="#000000" font-family="Arial" font-size="14" lengthAdjust="spacing" textLength="85.5996" x="838.28" y="500.5305">Redis domain</text><text fill="#000000" font-family="Arial" font-size="14" lengthAdjust="spacing" textLength="45.8965" x="838.28" y="516.6291">registry</text></g><!--entity pr_ingest_srv--><g class="entity" data-entity="pr_ingest_srv" data-source-line="32" data-uid="ent0016" id="entity_pr_ingest_srv"><rect fill="#F1F1F1" height="62.1973" rx="5" ry="5" style="stroke:#181818;stroke-width:0.5;" width="102.248" x="829.95" y="252.85"/><rect fill="#F1F1F1" height="10" style="stroke:#181818;stroke-width:0.5;" width="15" x="912.198" y="257.85"/><rect fill="#F1F1F1" height="2" style="stroke:#181818;stroke-width:0.5;" width="4" x="910.198" y="259.85"/><rect fill="#F1F1F1" height="2" style="stroke:#181818;stroke-width:0.5;" width="4" x="910.198" y="263.85"/><text fill="#000000" font-family="Arial" font-size="14" lengthAdjust="spacing" textLength="62.248" x="844.95" y="285.9818">&#171;System&#187;</text><text fill="#000000" font-family="Arial" font-size="14" lengthAdjust="spacing" textLength="60.6826" x="844.95" y="302.0805">ingest-srv</text></g><!--entity pr_kafka--><g class="entity" data-entity="pr_kafka" data-source-line="33" data-uid="ent0017" id="entity_pr_kafka"><path d="M808.38,157.85 L953.7726,157.85 C958.7726,157.85 958.7726,178.9486 958.7726,178.9486 C958.7726,178.9486 958.7726,200.0473 953.7726,200.0473 L808.38,200.0473 C803.38,200.0473 803.38,178.9486 803.38,178.9486 C803.38,178.9486 803.38,157.85 808.38,157.85" fill="#F1F1F1" style="stroke:#181818;stroke-width:0.5;"/><path d="M953.7726,157.85 C948.7726,157.85 948.7726,178.9486 948.7726,178.9486 C948.7726,200.0473 953.7726,200.0473 953.7726,200.0473" fill="none" style="stroke:#181818;stroke-width:0.5;"/><text fill="#000000" font-family="Arial" font-size="14" lengthAdjust="spacing" textLength="62.248" x="808.38" y="175.9818">&#171;System&#187;</text><text fill="#000000" font-family="Arial" font-size="14" lengthAdjust="spacing" textLength="135.3926" x="808.38" y="192.0805">Kafka project.lifecycle</text></g><g class="entity" data-entity="GMN31" data-source-line="50" data-uid="ent0032" id="entity_GMN31"><path d="M71.39,11 L71.39,40.8975 A5,5 0 0 0 76.39,45.8975 L130.77,45.8975 L134.77,297.38 L138.77,45.8975 L193.6117,45.8975 A5,5 0 0 0 198.6117,40.8975 L198.6117,16 L188.6117,6 L76.39,6 A5,5 0 0 0 71.39,11" fill="#FFF2CC" style="stroke:#E06666;stroke-width:0.5;"/><path d="M188.6117,6 L188.6117,13.5 A2.5,2.5 0 0 0 191.1117,16 L198.6117,16 L188.6117,6" fill="#FFF2CC" style="stroke:#E06666;stroke-width:0.5;"/><text fill="#000000" font-family="Arial" font-size="13" lengthAdjust="spacing" textLength="106.2217" x="77.39" y="23.1938">campaign, project,</text><text fill="#000000" font-family="Arial" font-size="13" lengthAdjust="spacing" textLength="83.0654" x="77.39" y="38.1426">lifecycle, crisis</text></g><!--link pr_handler to pr_project--><g class="link" data-entity-1="pr_handler" data-entity-2="pr_project" data-source-line="35" data-uid="lnk18" id="link_pr_handler_pr_project"><path d="M203.59,353.97 C267.1,353.97 351.77,353.97 351.77,353.97 C351.77,353.97 351.77,409.64 351.77,448.67" fill="none" id="pr_handler-to-pr_project" style="stroke:#000000;stroke-width:1;"/><polygon fill="#000000" points="351.77,454.67,355.77,445.67,351.77,449.67,347.77,445.67,351.77,454.67" style="stroke:#000000;stroke-width:1;"/></g><!--link pr_handler to pr_lifecycle--><g class="link" data-entity-1="pr_handler" data-entity-2="pr_lifecycle" data-source-line="36" data-uid="lnk19" id="link_pr_handler_pr_lifecycle"><path d="M203.51,302.45 C244.57,302.45 290.92,302.45 333.62,302.45" fill="none" id="pr_handler-to-pr_lifecycle" style="stroke:#000000;stroke-width:1;"/><polygon fill="#000000" points="339.62,302.45,330.62,298.45,334.62,302.45,330.62,306.45,339.62,302.45" style="stroke:#000000;stroke-width:1;"/></g><!--link pr_handler to pr_crisis--><g class="link" data-entity-1="pr_handler" data-entity-2="pr_crisis" data-source-line="37" data-uid="lnk20" id="link_pr_handler_pr_crisis"><path d="M203.51,347.88 C250.78,347.88 307.03,347.88 352.28,347.88" fill="none" id="pr_handler-to-pr_crisis" style="stroke:#000000;stroke-width:1;"/><polygon fill="#000000" points="358.28,347.88,349.28,343.88,353.28,347.88,349.28,351.88,358.28,347.88" style="stroke:#000000;stroke-width:1;"/></g><!--link pr_project to pr_repo--><g class="link" data-entity-1="pr_project" data-entity-2="pr_repo" data-source-line="38" data-uid="lnk21" id="link_pr_project_pr_repo"><path d="M483.77,454.44 C483.77,426.91 483.77,391.32 483.77,391.32 C483.77,391.32 532.91,391.32 582.56,391.32" fill="none" id="pr_project-to-pr_repo" style="stroke:#000000;stroke-width:1;"/><polygon fill="#000000" points="588.56,391.32,579.56,387.32,583.56,391.32,579.56,395.32,588.56,391.32" style="stroke:#000000;stroke-width:1;"/></g><!--link pr_project to pr_domain--><g class="link" data-entity-1="pr_project" data-entity-2="pr_domain" data-source-line="39" data-uid="lnk22" id="link_pr_project_pr_domain"><path d="M490.79,485.95 C523.4,485.95 555.75,485.95 588.26,485.95" fill="none" id="pr_project-to-pr_domain" style="stroke:#FF0000;stroke-width:1;"/><polygon fill="#FF0000" points="594.26,485.95,585.26,481.95,589.26,485.95,585.26,489.95,594.26,485.95" style="stroke:#FF0000;stroke-width:1;"/><text fill="#000000" font-family="Arial" font-size="13" lengthAdjust="spacing" textLength="91.0571" x="450.52" y="499.1438">validate domain</text></g><!--link pr_lifecycle to pr_repo--><g class="link" data-entity-1="pr_lifecycle" data-entity-2="pr_repo" data-source-line="40" data-uid="lnk23" id="link_pr_lifecycle_pr_repo"><path d="M496.38,288.98 C543.25,288.98 593.77,288.98 593.77,288.98 C593.77,288.98 593.77,316.92 593.77,343.56" fill="none" id="pr_lifecycle-to-pr_repo" style="stroke:#000000;stroke-width:1;"/><polygon fill="#000000" points="593.77,349.56,597.77,340.56,593.77,344.56,589.77,340.56,593.77,349.56" style="stroke:#000000;stroke-width:1;"/><text fill="#000000" font-family="Arial" font-size="13" lengthAdjust="spacing" textLength="127.1753" x="447.36" y="302.1738">state reads and writes</text></g><!--link pr_lifecycle to pr_ingest--><g class="link" data-entity-1="pr_lifecycle" data-entity-2="pr_ingest" data-source-line="41" data-uid="lnk24" id="link_pr_lifecycle_pr_ingest"><path d="M496.19,270.92 C530.72,270.92 564.76,270.92 597.31,270.92" fill="none" id="pr_lifecycle-to-pr_ingest" style="stroke:#000000;stroke-width:1;"/><polygon fill="#000000" points="603.31,270.92,594.31,266.92,598.31,270.92,594.31,274.92,603.31,270.92" style="stroke:#000000;stroke-width:1;"/><text fill="#000000" font-family="Arial" font-size="13" lengthAdjust="spacing" textLength="102.6099" x="446.75" y="284.1138">readiness, control</text></g><!--link pr_lifecycle to pr_pub--><g class="link" data-entity-1="pr_lifecycle" data-entity-2="pr_pub" data-source-line="42" data-uid="lnk25" id="link_pr_lifecycle_pr_pub"><path d="M496.4,248.85 C568.99,248.85 665.77,248.85 665.77,248.85 C665.77,248.85 665.77,240.25 665.77,224.39" fill="none" id="pr_lifecycle-to-pr_pub" style="stroke:#000000;stroke-width:1;"/><polygon fill="#000000" points="665.77,218.39,661.77,227.39,665.77,223.39,669.77,227.39,665.77,218.39" style="stroke:#000000;stroke-width:1;"/><text fill="#000000" font-family="Arial" font-size="13" lengthAdjust="spacing" textLength="76.6099" x="519.31" y="262.0438">publish event</text></g><!--link pr_crisis to pr_repo--><g class="link" data-entity-1="pr_crisis" data-entity-2="pr_repo" data-source-line="43" data-uid="lnk26" id="link_pr_crisis_pr_repo"><path d="M478.08,370.58 C511.36,370.58 547.11,370.58 582.81,370.58" fill="none" id="pr_crisis-to-pr_repo" style="stroke:#000000;stroke-width:1;"/><polygon fill="#000000" points="588.81,370.58,579.81,366.58,583.81,370.58,579.81,374.58,588.81,370.58" style="stroke:#000000;stroke-width:1;"/><text fill="#000000" font-family="Arial" font-size="13" lengthAdjust="spacing" textLength="99.7026" x="433.44" y="383.7738">crisis config state</text></g><!--link pr_repo to pr_pg--><g class="link" data-entity-1="pr_repo" data-entity-2="pr_pg" data-source-line="44" data-uid="lnk27" id="link_pr_repo_pr_pg"><path d="M743.77,380.95 C773.46,380.95 800.46,380.95 826.67,380.95" fill="none" id="pr_repo-to-pr_pg" style="stroke:#008000;stroke-width:1;"/><polygon fill="#008000" points="832.67,380.95,823.67,376.95,827.67,380.95,823.67,384.95,832.67,380.95" style="stroke:#008000;stroke-width:1;"/><text fill="#000000" font-family="Arial" font-size="13" lengthAdjust="spacing" textLength="119.2217" x="789.22" y="394.1438">campaigns, projects,</text><text fill="#000000" font-family="Arial" font-size="13" lengthAdjust="spacing" textLength="67.9072" x="814.8772" y="409.0926">crisis config</text></g><!--link pr_domain to pr_redis--><g class="link" data-entity-1="pr_domain" data-entity-2="pr_redis" data-source-line="45" data-uid="lnk28" id="link_pr_domain_pr_redis"><path d="M738.34,485.95 C767.6,485.95 794.79,485.95 821.8,485.95" fill="none" id="pr_domain-to-pr_redis" style="stroke:#FF0000;stroke-width:1;"/><polygon fill="#FF0000" points="827.8,485.95,818.8,481.95,822.8,485.95,818.8,489.95,827.8,485.95" style="stroke:#FF0000;stroke-width:1;"/><text fill="#000000" font-family="Arial" font-size="13" lengthAdjust="spacing" textLength="80.939" x="784.07" y="499.1438">domain cache</text></g><!--link pr_ingest to pr_ingest_srv--><g class="link" data-entity-1="pr_ingest" data-entity-2="pr_ingest_srv" data-source-line="46" data-uid="lnk29" id="link_pr_ingest_pr_ingest_srv"><path d="M728.92,283.95 C760.88,283.95 793.27,283.95 823.49,283.95" fill="none" id="pr_ingest-to-pr_ingest_srv" style="stroke:#000000;stroke-width:1;"/><polygon fill="#000000" points="829.49,283.95,820.49,279.95,824.49,283.95,820.49,287.95,829.49,283.95" style="stroke:#000000;stroke-width:1;"/><text fill="#000000" font-family="Arial" font-size="13" lengthAdjust="spacing" textLength="80.1899" x="780.2" y="297.1438">internal HTTP</text></g><!--link pr_pub to pr_kafka--><g class="link" data-entity-1="pr_pub" data-entity-2="pr_kafka" data-source-line="47" data-uid="lnk30" id="link_pr_pub_pr_kafka"><path d="M733.59,178.95 C755.62,178.95 774.28,178.95 797.03,178.95" fill="none" id="pr_pub-to-pr_kafka" style="stroke:#0000FF;stroke-width:1;"/><polygon fill="#0000FF" points="803.03,178.95,794.03,174.95,798.03,178.95,794.03,182.95,803.03,178.95" style="stroke:#0000FF;stroke-width:1;"/><text fill="#000000" font-family="Arial" font-size="13" lengthAdjust="spacing" textLength="81.6499" x="686.31" y="192.1438">lifecycle event</text></g><g class="legend" data-source-line="54"><rect fill="#DDDDDD" height="94.4932" rx="5" ry="5" style="stroke:#000000;stroke-width:1;" width="138.3721" x="801.4005" y="581.95"/><text fill="#000000" font-family="Arial" font-size="14" font-weight="bold" lengthAdjust="spacing" textLength="36.5518" x="810.2902" y="602.0818">Color</text><text fill="#000000" font-family="Arial" font-size="14" font-weight="bold" lengthAdjust="spacing" textLength="56.7793" x="854.6212" y="602.0818">Protocol</text><rect fill="#0000FF" height="16.0986" style="stroke:none;stroke-width:1;" width="44.3311" x="806.4005" y="605.0486"/><text fill="#000000" font-family="Arial" font-size="14" lengthAdjust="spacing" textLength="7.7793" x="806.4005" y="618.1805">&#160;&#160;</text><text fill="#000000" font-family="Arial" font-size="14" lengthAdjust="spacing" textLength="35.7998" x="854.6212" y="618.1805">Kafka</text><rect fill="#008000" height="16.0986" style="stroke:none;stroke-width:1;" width="44.3311" x="806.4005" y="621.1473"/><text fill="#000000" font-family="Arial" font-size="14" lengthAdjust="spacing" textLength="7.7793" x="806.4005" y="634.2791">&#160;&#160;</text><text fill="#000000" font-family="Arial" font-size="14" lengthAdjust="spacing" textLength="76.2617" x="854.6212" y="634.2791">PostgreSQL</text><rect fill="#FF0000" height="16.0986" style="stroke:none;stroke-width:1;" width="44.3311" x="806.4005" y="637.2459"/><text fill="#000000" font-family="Arial" font-size="14" lengthAdjust="spacing" textLength="7.7793" x="806.4005" y="650.3777">&#160;&#160;</text><text fill="#000000" font-family="Arial" font-size="14" lengthAdjust="spacing" textLength="35.793" x="854.6212" y="650.3777">Redis</text><rect fill="#000000" height="16.0986" style="stroke:none;stroke-width:1;" width="44.3311" x="806.4005" y="653.3445"/><text fill="#000000" font-family="Arial" font-size="14" lengthAdjust="spacing" textLength="7.7793" x="806.4005" y="666.4764">&#160;&#160;</text><text fill="#000000" font-family="Arial" font-size="14" lengthAdjust="spacing" textLength="74.7031" x="854.6212" y="666.4764">Internal Call</text><line style="stroke:#000000;stroke-width:1;" x1="806.4005" x2="934.7726" y1="588.95" y2="588.95"/><line style="stroke:#000000;stroke-width:1;" x1="806.4005" x2="934.7726" y1="605.0486" y2="605.0486"/><line style="stroke:#000000;stroke-width:1;" x1="806.4005" x2="934.7726" y1="621.1473" y2="621.1473"/><line style="stroke:#000000;stroke-width:1;" x1="806.4005" x2="934.7726" y1="637.2459" y2="637.2459"/><line style="stroke:#000000;stroke-width:1;" x1="806.4005" x2="934.7726" y1="653.3445" y2="653.3445"/><line style="stroke:#000000;stroke-width:1;" x1="806.4005" x2="934.7726" y1="669.4432" y2="669.4432"/><line style="stroke:#000000;stroke-width:1;" x1="806.4005" x2="806.4005" y1="588.95" y2="669.4432"/><line style="stroke:#000000;stroke-width:1;" x1="850.7316" x2="850.7316" y1="588.95" y2="669.4432"/><line style="stroke:#000000;stroke-width:1;" x1="934.7726" x2="934.7726" y1="588.95" y2="669.4432"/></g><!--SRC=[XLLDRnCn4BtxLupQ2qWfAZqWXA1IsNRLYWgLffm8gfpTsOs9Oo-sDoWY_29-0hV-CiPhxqVIDCqfdkSty-PvlBPpeIfk-09oB7WjNQgL-ymN26T6SCbiXziPp_KleKeekBGuG3AzgBH2vSPk9H7gXJmPe1NFvhp4W1dC75Ub7DADhbMUQQFGmElZ0I25GhUg4BHnCpq0b7RuaTAM3JNHKXiuJDFq94csTscJeuaxBexVq8z9B1mu3KQKCmUvy9g4Lenruk3WnkWVj88ncgN8y01-CsWxyIXQQfTx6bpp5Gb_SOvIBD6iNeQzqBi21mz_kyN3lubgarzobKiq1y0jLEP-5fP4_iE6rSwgIefiezXNYmctkBjM18ULOgYjL8NmNkgrA31RPMJ65bcsm5vwOeGL5XAj2b5Er5QEh44VTNgb2iEjCtNcQeEXsPqjtcAbhN3Qh8PTzj6sZg78CuTnfKgq3X8fAD3oH1DyXjaxTB6a4EcefrBOMN-YLJrz9iUvNd2XI7afgEyL-RQX8s_WnYToAkUEJyb5dsMyiWuNJVVQkjBW-CjrLxPyOkijvdGc8Ub4cLYqDujGjg6rfmP7ZgnPRdfqJn7siyPwgzGdNimvn45xrSrCIvvxcB5-wk7es-5ny_j-T3gSqJrR-adSiocEMf_nqOvcI3RnD1tWmIzu1qik1HcBqK4sbB0pAt6iymI3FBT02k6N4GxjVcfmbiYUHjz0QqSqGiePBVSJQTw8LOKn1FHJoJeBdb8OqQovgK4lQz66ydPGeFG4lgYuA1MfYfRPqKHjf66zRTjkDbD6MIASyMpMr8jDx_R2JnbnX79e59TmUNTtmsB3aP6caT6C5ctkRGf6CFyUm5GxfnUWY-4Nj-seQsZ4ElOe6iIGJi-dOFI0b7xHl1zi_G72yq9_w4FaTAObhDdwVLHr2h26S1jYrFlPHFkR6w3WKmE5czgbYT6hjl-4Iry4lNolvJy0]--></g></svg>