<svg xmlns="http://www.w3.org/2000/svg" xmlns:xlink="http://www.w3.org/1999/xlink" contentStyleType="text/css" data-diagram-type="SEQUENCE" height="931px" preserveAspectRatio="none" style="width:1334px;height:931px;background:#FFFFFF;" version="1.1" viewBox="0 0 1334 931" width="1334px" zoomAndPan="magnify"><defs/><g><g><title>User</title><rect fill="#000000" fill-opacity="0.00000" height="769.7183" width="8" x="18.7793" y="81.0986"/><line style="stroke:#181818;stroke-width:0.5;stroke-dasharray:5,5;" x1="22" x2="22" y1="81.0986" y2="850.8169"/></g><g><title>Frontend . Browser</title><rect fill="#000000" fill-opacity="0.00000" height="769.7183" width="8" x="138.9209" y="81.0986"/><line style="stroke:#181818;stroke-width:0.5;stroke-dasharray:5,5;" x1="142.397" x2="142.397" y1="81.0986" y2="850.8169"/></g><g><title>OAuthLogin Handler</title><rect fill="#000000" fill-opacity="0.00000" height="769.7183" width="8" x="377.9033" y="81.0986"/><line style="stroke:#181818;stroke-width:0.5;stroke-dasharray:5,5;" x1="381.4727" x2="381.4727" y1="81.0986" y2="850.8169"/></g><g><title>Authentication UseCase</title><rect fill="#000000" fill-opacity="0.00000" height="769.7183" width="8" x="545.7095" y="81.0986"/><line style="stroke:#181818;stroke-width:0.5;stroke-dasharray:5,5;" x1="549.6099" x2="549.6099" y1="81.0986" y2="850.8169"/></g><g><title>OAuth Provider</title><rect fill="#000000" fill-opacity="0.00000" height="769.7183" width="8" x="711.332" y="81.0986"/><line style="stroke:#181818;stroke-width:0.5;stroke-dasharray:5,5;" x1="714.4771" x2="714.4771" y1="81.0986" y2="850.8169"/></g><g><title>OAuthCallback Handler</title><rect fill="#000000" fill-opacity="0.00000" height="769.7183" width="8" x="856.335" y="81.0986"/><line style="stroke:#181818;stroke-width:0.5;stroke-dasharray:5,5;" x1="860.187" x2="860.187" y1="81.0986" y2="850.8169"/></g><g><title>User Repository</title><rect fill="#000000" fill-opacity="0.00000" height="769.7183" width="8" x="1022.7866" y="81.0986"/><line style="stroke:#181818;stroke-width:0.5;stroke-dasharray:5,5;" x1="1026.604" x2="1026.604" y1="81.0986" y2="850.8169"/></g><g><title>JWT Manager</title><rect fill="#000000" fill-opacity="0.00000" height="769.7183" width="8" x="1140.9243" y="81.0986"/><line style="stroke:#181818;stroke-width:0.5;stroke-dasharray:5,5;" x1="1143.9692" x2="1143.9692" y1="81.0986" y2="850.8169"/></g><g><title>Session Manager</title><rect fill="#000000" fill-opacity="0.00000" height="769.7183" width="8" x="1263.355" y="81.0986"/><line style="stroke:#181818;stroke-width:0.5;stroke-dasharray:5,5;" x1="1266.8794" x2="1266.8794" y1="81.0986" y2="850.8169"/></g><g class="participant participant-head" data-participant="User"><text fill="#000000" font-family="Arial" font-size="14" lengthAdjust="spacing" textLength="29.5586" x="5" y="78.1318">User</text><ellipse cx="22.7793" cy="13.5" fill="#E2E2F0" rx="8" ry="8" style="stroke:#181818;stroke-width:0.5;"/><path d="M22.7793,21.5 L22.7793,48.5 M9.7793,29.5 L35.7793,29.5 M22.7793,48.5 L9.7793,63.5 M22.7793,48.5 L35.7793,63.5" fill="none" style="stroke:#181818;stroke-width:0.5;"/></g><g class="participant participant-tail" data-participant="User"><text fill="#000000" font-family="Arial" font-size="14" lengthAdjust="spacing" textLength="29.5586" x="5" y="862.9487">User</text><ellipse cx="22.7793" cy="874.4155" fill="#E2E2F0" rx="8" ry="8" style="stroke:#181818;stroke-width:0.5;"/><path d="M22.7793,882.4155 L22.7793,909.4155 M9.7793,890.4155 L35.7793,890.4155 M22.7793,909.4155 L9.7793,924.4155 M22.7793,909.4155 L35.7793,924.4155" fill="none" style="stroke:#181818;stroke-width:0.5;"/></g><g class="participant participant-head" data-participant="Browser"><rect fill="#E2E2F0" height="30.0986" rx="6" ry="6" style="stroke:#181818;stroke-width:0.5;" width="133.0479" x="76.397" y="50"/><text fill="#000000" font-family="Arial" font-size="14" lengthAdjust="spacing" textLength="119.0479" x="83.397" y="70.1318">Frontend / Browser</text></g><g class="participant participant-tail" data-participant="Browser"><rect fill="#E2E2F0" height="30.0986" rx="6" ry="6" style="stroke:#181818;stroke-width:0.5;" width="133.0479" x="76.397" y="849.8169"/><text fill="#000000" font-family="Arial" font-size="14" lengthAdjust="spacing" textLength="119.0479" x="83.397" y="869.9487">Frontend / Browser</text></g><g class="participant participant-head" data-participant="LoginHandler"><rect fill="#E2E2F0" height="30.0986" rx="6" ry="6" style="stroke:#181818;stroke-width:0.5;" width="140.8613" x="311.4727" y="50"/><text fill="#000000" font-family="Arial" font-size="14" lengthAdjust="spacing" textLength="126.8613" x="318.4727" y="70.1318">OAuthLogin Handler</text></g><g class="participant participant-tail" data-participant="LoginHandler"><rect fill="#E2E2F0" height="30.0986" rx="6" ry="6" style="stroke:#181818;stroke-width:0.5;" width="140.8613" x="311.4727" y="849.8169"/><text fill="#000000" font-family="Arial" font-size="14" lengthAdjust="spacing" textLength="126.8613" x="318.4727" y="869.9487">OAuthLogin Handler</text></g><g class="participant participant-head" data-participant="AuthUC"><rect fill="#E2E2F0" height="30.0986" rx="6" ry="6" style="stroke:#181818;stroke-width:0.5;" width="164.1992" x="467.6099" y="50"/><text fill="#000000" font-family="Arial" font-size="14" lengthAdjust="spacing" textLength="150.1992" x="474.6099" y="70.1318">Authentication UseCase</text></g><g class="participant participant-tail" data-participant="AuthUC"><rect fill="#E2E2F0" height="30.0986" rx="6" ry="6" style="stroke:#181818;stroke-width:0.5;" width="164.1992" x="467.6099" y="849.8169"/><text fill="#000000" font-family="Arial" font-size="14" lengthAdjust="spacing" textLength="150.1992" x="474.6099" y="869.9487">Authentication UseCase</text></g><g class="participant participant-head" data-participant="Provider"><rect fill="#E2E2F0" height="30.0986" rx="6" ry="6" style="stroke:#181818;stroke-width:0.5;" width="109.71" x="660.4771" y="50"/><text fill="#000000" font-family="Arial" font-size="14" lengthAdjust="spacing" textLength="95.71" x="667.4771" y="70.1318">OAuth Provider</text></g><g class="participant participant-tail" data-participant="Provider"><rect fill="#E2E2F0" height="30.0986" rx="6" ry="6" style="stroke:#181818;stroke-width:0.5;" width="109.71" x="660.4771" y="849.8169"/><text fill="#000000" font-family="Arial" font-size="14" lengthAdjust="spacing" textLength="95.71" x="667.4771" y="869.9487">OAuth Provider</text></g><g class="participant participant-head" data-participant="CallbackHandler"><rect fill="#E2E2F0" height="30.0986" rx="6" ry="6" style="stroke:#181818;stroke-width:0.5;" width="160.2959" x="780.187" y="50"/><text fill="#000000" font-family="Arial" font-size="14" lengthAdjust="spacing" textLength="146.2959" x="787.187" y="70.1318">OAuthCallback Handler</text></g><g class="participant participant-tail" data-participant="CallbackHandler"><rect fill="#E2E2F0" height="30.0986" rx="6" ry="6" style="stroke:#181818;stroke-width:0.5;" width="160.2959" x="780.187" y="849.8169"/><text fill="#000000" font-family="Arial" font-size="14" lengthAdjust="spacing" textLength="146.2959" x="787.187" y="869.9487">OAuthCallback Handler</text></g><g class="participant participant-head" data-participant="UserRepo"><rect fill="#E2E2F0" height="30.0986" rx="6" ry="6" style="stroke:#181818;stroke-width:0.5;" width="114.3652" x="969.604" y="50"/><text fill="#000000" font-family="Arial" font-size="14" lengthAdjust="spacing" textLength="100.3652" x="976.604" y="70.1318">User Repository</text></g><g class="participant participant-tail" data-participant="UserRepo"><rect fill="#E2E2F0" height="30.0986" rx="6" ry="6" style="stroke:#181818;stroke-width:0.5;" width="114.3652" x="969.604" y="849.8169"/><text fill="#000000" font-family="Arial" font-size="14" lengthAdjust="spacing" textLength="100.3652" x="976.604" y="869.9487">User Repository</text></g><g class="participant participant-head" data-participant="JWTMgr"><rect fill="#E2E2F0" height="30.0986" rx="6" ry="6" style="stroke:#181818;stroke-width:0.5;" width="101.9102" x="1093.9692" y="50"/><text fill="#000000" font-family="Arial" font-size="14" lengthAdjust="spacing" textLength="87.9102" x="1100.9692" y="70.1318">JWT Manager</text></g><g class="participant participant-tail" data-participant="JWTMgr"><rect fill="#E2E2F0" height="30.0986" rx="6" ry="6" style="stroke:#181818;stroke-width:0.5;" width="101.9102" x="1093.9692" y="849.8169"/><text fill="#000000" font-family="Arial" font-size="14" lengthAdjust="spacing" textLength="87.9102" x="1100.9692" y="869.9487">JWT Manager</text></g><g class="participant participant-head" data-participant="SessionMgr"><rect fill="#E2E2F0" height="30.0986" rx="6" ry="6" style="stroke:#181818;stroke-width:0.5;" width="122.9512" x="1205.8794" y="50"/><text fill="#000000" font-family="Arial" font-size="14" lengthAdjust="spacing" textLength="108.9512" x="1212.8794" y="70.1318">Session Manager</text></g><g class="participant participant-tail" data-participant="SessionMgr"><rect fill="#E2E2F0" height="30.0986" rx="6" ry="6" style="stroke:#181818;stroke-width:0.5;" width="122.9512" x="1205.8794" y="849.8169"/><text fill="#000000" font-family="Arial" font-size="14" lengthAdjust="spacing" textLength="108.9512" x="1212.8794" y="869.9487">Session Manager</text></g><g class="message" data-participant-1="User" data-participant-2="Browser"><polygon fill="#181818" points="130.9209,108.0474,140.9209,112.0474,130.9209,116.0474,134.9209,112.0474" style="stroke:#181818;stroke-width:1;"/><line style="stroke:#181818;stroke-width:1;" x1="22.7793" x2="136.9209" y1="112.0474" y2="112.0474"/><text fill="#000000" font-family="Arial" font-size="13" lengthAdjust="spacing" textLength="96.1416" x="34.7793" y="107.2925">Ch&#7885;n &#273;&#259;ng nh&#7853;p</text></g><g class="message" data-participant-1="Browser" data-participant-2="LoginHandler"><polygon fill="#181818" points="369.9033,136.9961,379.9033,140.9961,369.9033,144.9961,373.9033,140.9961" style="stroke:#181818;stroke-width:1;"/><line style="stroke:#181818;stroke-width:1;" x1="142.9209" x2="375.9033" y1="140.9961" y2="140.9961"/><text fill="#000000" font-family="Arial" font-size="13" lengthAdjust="spacing" textLength="214.9824" x="154.9209" y="136.2412">GET /authentication/login?redirect=...</text></g><g class="message" data-participant-1="LoginHandler" data-participant-2="LoginHandler"><line style="stroke:#181818;stroke-width:1;" x1="381.9033" x2="423.9033" y1="169.9448" y2="169.9448"/><line style="stroke:#181818;stroke-width:1;" x1="423.9033" x2="423.9033" y1="169.9448" y2="182.9448"/><line style="stroke:#181818;stroke-width:1;" x1="382.9033" x2="423.9033" y1="182.9448" y2="182.9448"/><polygon fill="#181818" points="392.9033,178.9448,382.9033,182.9448,392.9033,186.9448,388.9033,182.9448" style="stroke:#181818;stroke-width:1;"/><text fill="#000000" font-family="Arial" font-size="13" lengthAdjust="spacing" textLength="134.4053" x="388.9033" y="165.1899">processLoginRequest()</text></g><g class="message" data-participant-1="LoginHandler" data-participant-2="AuthUC"><polygon fill="#181818" points="537.7095,207.8936,547.7095,211.8936,537.7095,215.8936,541.7095,211.8936" style="stroke:#181818;stroke-width:1;"/><line style="stroke:#181818;stroke-width:1;" x1="381.9033" x2="543.7095" y1="211.8936" y2="211.8936"/><text fill="#000000" font-family="Arial" font-size="13" lengthAdjust="spacing" textLength="143.8062" x="393.9033" y="207.1387">InitiateOAuthLogin(state)</text></g><g class="message" data-participant-1="AuthUC" data-participant-2="Provider"><polygon fill="#181818" points="703.332,236.8423,713.332,240.8423,703.332,244.8423,707.332,240.8423" style="stroke:#181818;stroke-width:1;"/><line style="stroke:#181818;stroke-width:1;" x1="549.7095" x2="709.332" y1="240.8423" y2="240.8423"/><text fill="#000000" font-family="Arial" font-size="13" lengthAdjust="spacing" textLength="141.6226" x="561.7095" y="236.0874">GetAuthCodeURL(state)</text></g><g class="message" data-participant-1="Provider" data-participant-2="AuthUC"><polygon fill="#181818" points="560.7095,265.791,550.7095,269.791,560.7095,273.791,556.7095,269.791" style="stroke:#181818;stroke-width:1;"/><line style="stroke:#181818;stroke-width:1;stroke-dasharray:2,2;" x1="554.7095" x2="714.332" y1="269.791" y2="269.791"/><text fill="#000000" font-family="Arial" font-size="13" lengthAdjust="spacing" textLength="51.3081" x="606.8667" y="265.0361">authURL</text></g><g class="message" data-participant-1="AuthUC" data-participant-2="LoginHandler"><polygon fill="#181818" points="392.9033,294.7397,382.9033,298.7397,392.9033,302.7397,388.9033,298.7397" style="stroke:#181818;stroke-width:1;"/><line style="stroke:#181818;stroke-width:1;stroke-dasharray:2,2;" x1="386.9033" x2="548.7095" y1="298.7397" y2="298.7397"/><text fill="#000000" font-family="Arial" font-size="13" lengthAdjust="spacing" textLength="51.3081" x="440.1523" y="293.9849">authURL</text></g><g class="message" data-participant-1="LoginHandler" data-participant-2="Browser"><polygon fill="#181818" points="153.9209,323.6885,143.9209,327.6885,153.9209,331.6885,149.9209,327.6885" style="stroke:#181818;stroke-width:1;"/><line style="stroke:#181818;stroke-width:1;stroke-dasharray:2,2;" x1="147.9209" x2="380.9033" y1="327.6885" y2="327.6885"/><text fill="#000000" font-family="Arial" font-size="13" lengthAdjust="spacing" textLength="190.0552" x="167.3845" y="322.9336">307 Redirect &#273;&#7871;n OAuth provider</text></g><g class="message" data-participant-1="User" data-participant-2="Provider"><polygon fill="#181818" points="703.332,352.6372,713.332,356.6372,703.332,360.6372,707.332,356.6372" style="stroke:#181818;stroke-width:1;"/><line style="stroke:#181818;stroke-width:1;" x1="22.7793" x2="709.332" y1="356.6372" y2="356.6372"/><text fill="#000000" font-family="Arial" font-size="13" lengthAdjust="spacing" textLength="148.897" x="294.6072" y="351.8823">&#272;&#259;ng nh&#7853;p v&#224; ch&#7845;p thu&#7853;n</text></g><g class="message" data-participant-1="Provider" data-participant-2="Browser"><polygon fill="#181818" points="153.9209,381.5859,143.9209,385.5859,153.9209,389.5859,149.9209,385.5859" style="stroke:#181818;stroke-width:1;"/><line style="stroke:#181818;stroke-width:1;stroke-dasharray:2,2;" x1="147.9209" x2="714.332" y1="385.5859" y2="385.5859"/><text fill="#000000" font-family="Arial" font-size="13" lengthAdjust="spacing" textLength="195.311" x="331.4709" y="380.8311">Redirect callback v&#7899;i code + state</text></g><g class="message" data-participant-1="Browser" data-participant-2="CallbackHandler"><polygon fill="#181818" points="848.335,410.5347,858.335,414.5347,848.335,418.5347,852.335,414.5347" style="stroke:#181818;stroke-width:1;"/><line style="stroke:#181818;stroke-width:1;" x1="142.9209" x2="854.335" y1="414.5347" y2="414.5347"/><text fill="#000000" font-family="Arial" font-size="13" lengthAdjust="spacing" textLength="165.4771" x="418.8894" y="409.7798">GET /authentication/callback</text></g><g class="message" data-participant-1="CallbackHandler" data-participant-2="CallbackHandler"><line style="stroke:#181818;stroke-width:1;" x1="860.335" x2="902.335" y1="443.4834" y2="443.4834"/><line style="stroke:#181818;stroke-width:1;" x1="902.335" x2="902.335" y1="443.4834" y2="456.4834"/><line style="stroke:#181818;stroke-width:1;" x1="861.335" x2="902.335" y1="456.4834" y2="456.4834"/><polygon fill="#181818" points="871.335,452.4834,861.335,456.4834,871.335,460.4834,867.335,456.4834" style="stroke:#181818;stroke-width:1;"/><text fill="#000000" font-family="Arial" font-size="13" lengthAdjust="spacing" textLength="152.4517" x="867.335" y="438.7285">processCallbackRequest()</text></g><g class="message" data-participant-1="CallbackHandler" data-participant-2="AuthUC"><polygon fill="#181818" points="560.7095,481.4321,550.7095,485.4321,560.7095,489.4321,556.7095,485.4321" style="stroke:#181818;stroke-width:1;"/><line style="stroke:#181818;stroke-width:1;" x1="554.7095" x2="859.335" y1="485.4321" y2="485.4321"/><text fill="#000000" font-family="Arial" font-size="13" lengthAdjust="spacing" textLength="170.5171" x="619.7637" y="480.6772">ProcessOAuthCallback(code)</text></g><g class="message" data-participant-1="AuthUC" data-participant-2="Provider"><polygon fill="#181818" points="703.332,510.3809,713.332,514.3809,703.332,518.3809,707.332,514.3809" style="stroke:#181818;stroke-width:1;"/><line style="stroke:#181818;stroke-width:1;" x1="549.7095" x2="709.332" y1="514.3809" y2="514.3809"/><text fill="#000000" font-family="Arial" font-size="13" lengthAdjust="spacing" textLength="125.7471" x="569.6472" y="509.626">ExchangeCode(code)</text></g><g class="message" data-participant-1="Provider" data-participant-2="AuthUC"><polygon fill="#181818" points="560.7095,539.3296,550.7095,543.3296,560.7095,547.3296,556.7095,543.3296" style="stroke:#181818;stroke-width:1;"/><line style="stroke:#181818;stroke-width:1;stroke-dasharray:2,2;" x1="554.7095" x2="714.332" y1="543.3296" y2="543.3296"/><text fill="#000000" font-family="Arial" font-size="13" lengthAdjust="spacing" textLength="75.8735" x="594.584" y="538.5747">access token</text></g><g class="message" data-participant-1="AuthUC" data-participant-2="Provider"><polygon fill="#181818" points="703.332,568.2783,713.332,572.2783,703.332,576.2783,707.332,572.2783" style="stroke:#181818;stroke-width:1;"/><line style="stroke:#181818;stroke-width:1;" x1="549.7095" x2="709.332" y1="572.2783" y2="572.2783"/><text fill="#000000" font-family="Arial" font-size="13" lengthAdjust="spacing" textLength="110.5444" x="577.2485" y="567.5234">GetUserInfo(token)</text></g><g class="message" data-participant-1="Provider" data-participant-2="AuthUC"><polygon fill="#181818" points="560.7095,597.2271,550.7095,601.2271,560.7095,605.2271,556.7095,601.2271" style="stroke:#181818;stroke-width:1;"/><line style="stroke:#181818;stroke-width:1;stroke-dasharray:2,2;" x1="554.7095" x2="714.332" y1="601.2271" y2="601.2271"/><text fill="#000000" font-family="Arial" font-size="13" lengthAdjust="spacing" textLength="49.8608" x="607.5903" y="596.4722">user info</text></g><g class="message" data-participant-1="AuthUC" data-participant-2="UserRepo"><polygon fill="#181818" points="1014.7866,626.1758,1024.7866,630.1758,1014.7866,634.1758,1018.7866,630.1758" style="stroke:#181818;stroke-width:1;"/><line style="stroke:#181818;stroke-width:1;" x1="549.7095" x2="1020.7866" y1="630.1758" y2="630.1758"/><text fill="#000000" font-family="Arial" font-size="13" lengthAdjust="spacing" textLength="139.4326" x="718.5317" y="625.4209">createOrUpdateUser(...)</text></g><g class="message" data-participant-1="UserRepo" data-participant-2="AuthUC"><polygon fill="#181818" points="560.7095,655.1245,550.7095,659.1245,560.7095,663.1245,556.7095,659.1245" style="stroke:#181818;stroke-width:1;"/><line style="stroke:#181818;stroke-width:1;stroke-dasharray:2,2;" x1="554.7095" x2="1025.7866" y1="659.1245" y2="659.1245"/><text fill="#000000" font-family="Arial" font-size="13" lengthAdjust="spacing" textLength="25.2891" x="775.6035" y="654.3696">user</text></g><g class="message" data-participant-1="AuthUC" data-participant-2="JWTMgr"><polygon fill="#181818" points="1132.9243,684.0732,1142.9243,688.0732,1132.9243,692.0732,1136.9243,688.0732" style="stroke:#181818;stroke-width:1;"/><line style="stroke:#181818;stroke-width:1;" x1="549.7095" x2="1138.9243" y1="688.0732" y2="688.0732"/><text fill="#000000" font-family="Arial" font-size="13" lengthAdjust="spacing" textLength="150.2998" x="772.167" y="683.3184">generateToken(user, role)</text></g><g class="message" data-participant-1="JWTMgr" data-participant-2="AuthUC"><polygon fill="#181818" points="560.7095,713.022,550.7095,717.022,560.7095,721.022,556.7095,717.022" style="stroke:#181818;stroke-width:1;"/><line style="stroke:#181818;stroke-width:1;stroke-dasharray:2,2;" x1="554.7095" x2="1143.9243" y1="717.022" y2="717.022"/><text fill="#000000" font-family="Arial" font-size="13" lengthAdjust="spacing" textLength="40.0918" x="827.271" y="712.2671">jwt + jti</text></g><g class="message" data-participant-1="AuthUC" data-participant-2="SessionMgr"><polygon fill="#181818" points="1255.355,741.9707,1265.355,745.9707,1255.355,749.9707,1259.355,745.9707" style="stroke:#181818;stroke-width:1;"/><line style="stroke:#181818;stroke-width:1;" x1="549.7095" x2="1261.355" y1="745.9707" y2="745.9707"/><text fill="#000000" font-family="Arial" font-size="13" lengthAdjust="spacing" textLength="143.7808" x="836.6418" y="741.2158">createSession(userId, jti)</text></g><g class="message" data-participant-1="SessionMgr" data-participant-2="AuthUC"><polygon fill="#181818" points="560.7095,770.9194,550.7095,774.9194,560.7095,778.9194,556.7095,774.9194" style="stroke:#181818;stroke-width:1;"/><line style="stroke:#181818;stroke-width:1;stroke-dasharray:2,2;" x1="554.7095" x2="1266.355" y1="774.9194" y2="774.9194"/><text fill="#000000" font-family="Arial" font-size="13" lengthAdjust="spacing" textLength="13.73" x="901.6672" y="770.1646">ok</text></g><g class="message" data-participant-1="AuthUC" data-participant-2="CallbackHandler"><polygon fill="#181818" points="848.335,799.8682,858.335,803.8682,848.335,807.8682,852.335,803.8682" style="stroke:#181818;stroke-width:1;"/><line style="stroke:#181818;stroke-width:1;stroke-dasharray:2,2;" x1="549.7095" x2="854.335" y1="803.8682" y2="803.8682"/><text fill="#000000" font-family="Arial" font-size="13" lengthAdjust="spacing" textLength="31.8018" x="689.1213" y="799.1133">token</text></g><g class="message" data-participant-1="CallbackHandler" data-participant-2="Browser"><polygon fill="#181818" points="153.9209,828.8169,143.9209,832.8169,153.9209,836.8169,149.9209,832.8169" style="stroke:#181818;stroke-width:1;"/><line style="stroke:#181818;stroke-width:1;stroke-dasharray:2,2;" x1="147.9209" x2="859.335" y1="832.8169" y2="832.8169"/><text fill="#000000" font-family="Arial" font-size="13" lengthAdjust="spacing" textLength="147.7798" x="427.738" y="828.062">Set auth cookie + redirect</text></g><!--SRC=[TLHDSzCm4BtxL-pqb0njmiU1cSm0asPQ2DD29qs6iv0tZXfNCfASm9apCt3cmeKZVw0zS21_9F-4bMqbSkoURE- -VTfzRsMp539Zcjr2Z7EMf_PSIVkEtI8CjM1fP7Pvis2nMWkPm9ob1iCCVifHShn4OrY2mrGa4ZXAYpf0QJIPaiQZJZ5Lww7MQWrMvo6TLhcCkT8IDJnv6aMCMwLXPeYD05PmaJ5fuUXSKwieO-Z3AT5G_WYOyUzrxFjXRXSNAX4ItZ0PfnMsY5I1Ue73qmI2CokKTAUFcC6YoALcenP-kD9g9UAAst-q04SiJJyolgprueEjxRZfOOAPCeB4-58Kk9WBrP5lFqpXaabIkAIbxylaWEsQB71JXRWgvh1HSTh9Io_b04QBxVqt2PiVcw_alrnix_vaKPLrm5370Rm-cqAVrGJifmxnIcCiD7BxejVhHM5HaoJJYbDBHN3Y5ipOJhTHKtenWB4KLZ2BUvyxnj9tDoeH3kiDeGRH5ZQe66UJ2u_qUJW9YDqOXDdHDFhqW7fdeNZF7Zydwyh1ISBjtLy9vRvaVaLsYkzxt7mFj8RLlr_0wVLt1dQHKqZMszqTjZk8-nrRRUz_2k0qApo2OjJGkOEjQpVFSqK7w5Q2oZWVttlNKknLlYfhQfUZurfkz-_iCrymcQ0pi8ArcySTArYrHFdG8ZZbntAkEWNg0QBSgIK85R3uwpS0hj6jdfvbCJrTl4FxtOqyea4Li9JNSm09qk-EggUkYuu37TEFCAN9IaIDusPjoSiRAmAY_Vtr3LMHWcmS7pjyDzh3Qeng6MvumzDImOQ1uU9Teotk0csQMWgtQ_wo_mS0]--></g></svg>