<svg xmlns="http://www.w3.org/2000/svg" xmlns:xlink="http://www.w3.org/1999/xlink" contentStyleType="text/css" data-diagram-type="SEQUENCE" height="671px" preserveAspectRatio="none" style="width:385px;height:671px;background:#FFFFFF;" version="1.1" viewBox="0 0 385 671" width="385px" zoomAndPan="magnify"><defs/><g><g><title>Kafka Consumer</title><rect fill="#FFFFFF" height="504.9214" style="stroke:#181818;stroke-width:1;" width="10" x="165.396" y="108.0435"/></g><g><title>IndexingUseCase</title><rect fill="#FFFFFF" height="58.8462" style="stroke:#181818;stroke-width:1;" width="10" x="301.3477" y="262.6846"/></g><g><title>IndexingUseCase</title><rect fill="#FFFFFF" height="58.8462" style="stroke:#181818;stroke-width:1;" width="10" x="301.3477" y="365.1284"/></g><g><title>IndexingUseCase</title><rect fill="#FFFFFF" height="58.8462" style="stroke:#181818;stroke-width:1;" width="10" x="301.3477" y="467.5723"/></g><rect fill="none" height="381.1777" rx="6" ry="6" style="stroke:#000000;stroke-width:1.5;" width="277.3408" x="101.2617" y="224.7871"/><g><title>Kafka topics</title><rect fill="#000000" fill-opacity="0.00000" height="575.7676" width="8" x="49.1309" y="47.1973"/><line style="stroke:#181818;stroke-width:0.5;stroke-dasharray:5,5;" x1="53" x2="53" y1="47.1973" y2="622.9648"/></g><g><title>Kafka Consumer</title><rect fill="#000000" fill-opacity="0.00000" height="575.7676" width="8" x="166.396" y="47.1973"/><line style="stroke:#181818;stroke-width:0.5;stroke-dasharray:5,5;" x1="170.2617" x2="170.2617" y1="47.1973" y2="622.9648"/></g><g><title>IndexingUseCase</title><rect fill="#000000" fill-opacity="0.00000" height="575.7676" width="8" x="302.3477" y="47.1973"/><line style="stroke:#181818;stroke-width:0.5;stroke-dasharray:5,5;" x1="306.0928" x2="306.0928" y1="47.1973" y2="622.9648"/></g><g class="participant participant-head" data-participant="AnalyticsTopics"><path d="M10,5 L96.2617,5 C101.2617,5 101.2617,26.0986 101.2617,26.0986 C101.2617,26.0986 101.2617,47.1973 96.2617,47.1973 L10,47.1973 C5,47.1973 5,26.0986 5,26.0986 C5,26.0986 5,5 10,5" fill="#E2E2F0" style="stroke:#181818;stroke-width:0.5;"/><path d="M96.2617,5 C91.2617,5 91.2617,26.0986 91.2617,26.0986 C91.2617,47.1973 96.2617,47.1973 96.2617,47.1973" fill="none" style="stroke:#181818;stroke-width:0.5;"/><text fill="#000000" font-family="Arial" font-size="14" lengthAdjust="spacing" textLength="76.2617" x="10" y="23.1318">Kafka topics</text><text fill="#000000" font-family="Arial" font-size="14" lengthAdjust="spacing" textLength="63.8066" x="16.2275" y="39.2305">analytics.*</text></g><g class="participant participant-tail" data-participant="AnalyticsTopics"><path d="M10,621.9648 L96.2617,621.9648 C101.2617,621.9648 101.2617,643.0635 101.2617,643.0635 C101.2617,643.0635 101.2617,664.1621 96.2617,664.1621 L10,664.1621 C5,664.1621 5,643.0635 5,643.0635 C5,643.0635 5,621.9648 10,621.9648" fill="#E2E2F0" style="stroke:#181818;stroke-width:0.5;"/><path d="M96.2617,621.9648 C91.2617,621.9648 91.2617,643.0635 91.2617,643.0635 C91.2617,664.1621 96.2617,664.1621 96.2617,664.1621" fill="none" style="stroke:#181818;stroke-width:0.5;"/><text fill="#000000" font-family="Arial" font-size="14" lengthAdjust="spacing" textLength="76.2617" x="10" y="640.0967">Kafka topics</text><text fill="#000000" font-family="Arial" font-size="14" lengthAdjust="spacing" textLength="63.8066" x="16.2275" y="656.1953">analytics.*</text></g><g class="participant participant-head" data-participant="Consumer"><rect fill="#E2E2F0" height="30.0986" rx="6" ry="6" style="stroke:#181818;stroke-width:0.5;" width="118.2686" x="111.2617" y="16.0986"/><text fill="#000000" font-family="Arial" font-size="14" lengthAdjust="spacing" textLength="104.2686" x="118.2617" y="36.2305">Kafka Consumer</text></g><g class="participant participant-tail" data-participant="Consumer"><rect fill="#E2E2F0" height="30.0986" rx="6" ry="6" style="stroke:#181818;stroke-width:0.5;" width="118.2686" x="111.2617" y="621.9648"/><text fill="#000000" font-family="Arial" font-size="14" lengthAdjust="spacing" textLength="104.2686" x="118.2617" y="642.0967">Kafka Consumer</text></g><g class="participant participant-head" data-participant="Indexing"><rect fill="#E2E2F0" height="30.0986" rx="6" ry="6" style="stroke:#181818;stroke-width:0.5;" width="124.5098" x="244.0928" y="16.0986"/><text fill="#000000" font-family="Arial" font-size="14" lengthAdjust="spacing" textLength="110.5098" x="251.0928" y="36.2305">IndexingUseCase</text></g><g class="participant participant-tail" data-participant="Indexing"><rect fill="#E2E2F0" height="30.0986" rx="6" ry="6" style="stroke:#181818;stroke-width:0.5;" width="124.5098" x="244.0928" y="621.9648"/><text fill="#000000" font-family="Arial" font-size="14" lengthAdjust="spacing" textLength="110.5098" x="251.0928" y="642.0967">IndexingUseCase</text></g><g><title>Kafka Consumer</title><rect fill="#FFFFFF" height="504.9214" style="stroke:#181818;stroke-width:1;" width="10" x="165.396" y="108.0435"/></g><g><title>IndexingUseCase</title><rect fill="#FFFFFF" height="58.8462" style="stroke:#181818;stroke-width:1;" width="10" x="301.3477" y="262.6846"/></g><g><title>IndexingUseCase</title><rect fill="#FFFFFF" height="58.8462" style="stroke:#181818;stroke-width:1;" width="10" x="301.3477" y="365.1284"/></g><g><title>IndexingUseCase</title><rect fill="#FFFFFF" height="58.8462" style="stroke:#181818;stroke-width:1;" width="10" x="301.3477" y="467.5723"/></g><g class="message" data-participant-1="AnalyticsTopics" data-participant-2="Consumer"><line style="stroke:#181818;stroke-width:1;" x1="163.396" x2="153.396" y1="108.0435" y2="104.0435"/><line style="stroke:#181818;stroke-width:1;" x1="163.396" x2="153.396" y1="108.0435" y2="112.0435"/><line style="stroke:#181818;stroke-width:1;" x1="53.1309" x2="164.396" y1="108.0435" y2="108.0435"/><text fill="#000000" font-family="Arial" font-size="13" lengthAdjust="spacing" textLength="38.2954" x="90.1157" y="73.3911">deliver</text><text fill="#000000" font-family="Arial" font-size="13" lengthAdjust="spacing" textLength="50.5781" x="83.9744" y="88.3398">analytics</text><text fill="#000000" font-family="Arial" font-size="13" lengthAdjust="spacing" textLength="31.8018" x="93.3625" y="103.2886">event</text></g><g class="message" data-participant-1="Consumer" data-participant-2="Consumer"><line style="stroke:#181818;stroke-width:1;" x1="175.396" x2="217.396" y1="196.7871" y2="196.7871"/><line style="stroke:#181818;stroke-width:1;" x1="217.396" x2="217.396" y1="196.7871" y2="209.7871"/><line style="stroke:#181818;stroke-width:1;" x1="176.396" x2="217.396" y1="209.7871" y2="209.7871"/><polygon fill="#181818" points="186.396,205.7871,176.396,209.7871,186.396,213.7871,182.396,209.7871" style="stroke:#181818;stroke-width:1;"/><text fill="#000000" font-family="Arial" font-size="13" lengthAdjust="spacing" textLength="60.6963" x="182.396" y="132.2373">unmarshal</text><text fill="#000000" font-family="Arial" font-size="13" lengthAdjust="spacing" textLength="13.73" x="190.3433" y="147.186">by</text><text fill="#000000" font-family="Arial" font-size="13" lengthAdjust="spacing" textLength="3.6118" x="204.0732" y="147.186">&#160;</text><text fill="#000000" font-family="Arial" font-size="13" lengthAdjust="spacing" textLength="27.46" x="207.6851" y="147.186">topic</text><text fill="#000000" font-family="Arial" font-size="13" lengthAdjust="spacing" textLength="21.6899" x="201.8992" y="162.1348">and</text><text fill="#000000" font-family="Arial" font-size="13" lengthAdjust="spacing" textLength="45.5381" x="189.9751" y="177.0835">payload</text><text fill="#000000" font-family="Arial" font-size="13" lengthAdjust="spacing" textLength="35.4199" x="195.0342" y="192.0322">shape</text></g><path d="M107.2617,224.7871 L161.4326,224.7871 L161.4326,231.7358 L151.4326,241.7358 L101.2617,241.7358 L101.2617,230.7871 A6,6 0 0 1 107.2617,224.7871" fill="#EEEEEE" style="stroke:#000000;stroke-width:1.5;"/><rect fill="none" height="381.1777" rx="6" ry="6" style="stroke:#000000;stroke-width:1.5;" width="277.3408" x="101.2617" y="224.7871"/><text fill="#000000" font-family="Arial" font-size="13" font-weight="bold" lengthAdjust="spacing" textLength="15.1709" x="116.2617" y="237.981">alt</text><text fill="#000000" font-family="Arial" font-size="11" font-weight="bold" lengthAdjust="spacing" textLength="188.8369" x="176.4326" y="237.105">[batch.completed with documents[]]</text><g class="message" data-participant-1="Consumer" data-participant-2="Indexing"><polygon fill="#181818" points="289.3477,258.6846,299.3477,262.6846,289.3477,266.6846,293.3477,262.6846" style="stroke:#181818;stroke-width:1;"/><line style="stroke:#181818;stroke-width:1;" x1="175.396" x2="295.3477" y1="262.6846" y2="262.6846"/><text fill="#000000" font-family="Arial" font-size="13" lengthAdjust="spacing" textLength="101.8926" x="187.4255" y="257.9297">IndexBatch(input)</text></g><g class="message" data-participant-1="Indexing" data-participant-2="Consumer"><polygon fill="#181818" points="186.396,317.5308,176.396,321.5308,186.396,325.5308,182.396,321.5308" style="stroke:#181818;stroke-width:1;"/><line style="stroke:#181818;stroke-width:1;stroke-dasharray:2,2;" x1="180.396" x2="305.3477" y1="321.5308" y2="321.5308"/><text fill="#000000" font-family="Arial" font-size="13" lengthAdjust="spacing" textLength="31.8018" x="224.9709" y="286.8784">batch</text><text fill="#000000" font-family="Arial" font-size="13" lengthAdjust="spacing" textLength="48.4263" x="216.6587" y="301.8271">indexing</text><text fill="#000000" font-family="Arial" font-size="13" lengthAdjust="spacing" textLength="31.7891" x="224.9773" y="316.7759">result</text></g><line style="stroke:#000000;stroke-width:1;stroke-dasharray:2,2;" x1="101.2617" x2="378.6025" y1="330.5308" y2="330.5308"/><text fill="#000000" font-family="Arial" font-size="11" font-weight="bold" lengthAdjust="spacing" textLength="230.7046" x="106.2617" y="340.8486">[insights.published with should_index=true]</text><g class="message" data-participant-1="Consumer" data-participant-2="Indexing"><polygon fill="#181818" points="289.3477,361.1284,299.3477,365.1284,289.3477,369.1284,293.3477,365.1284" style="stroke:#181818;stroke-width:1;"/><line style="stroke:#181818;stroke-width:1;" x1="175.396" x2="295.3477" y1="365.1284" y2="365.1284"/><text fill="#000000" font-family="Arial" font-size="13" lengthAdjust="spacing" textLength="106.9517" x="184.896" y="360.3735">IndexInsight(input)</text></g><g class="message" data-participant-1="Indexing" data-participant-2="Consumer"><polygon fill="#181818" points="186.396,419.9746,176.396,423.9746,186.396,427.9746,182.396,423.9746" style="stroke:#181818;stroke-width:1;"/><line style="stroke:#181818;stroke-width:1;stroke-dasharray:2,2;" x1="180.396" x2="305.3477" y1="423.9746" y2="423.9746"/><text fill="#000000" font-family="Arial" font-size="13" lengthAdjust="spacing" textLength="37.5781" x="222.0828" y="389.3223">insight</text><text fill="#000000" font-family="Arial" font-size="13" lengthAdjust="spacing" textLength="48.4263" x="216.6587" y="404.271">indexing</text><text fill="#000000" font-family="Arial" font-size="13" lengthAdjust="spacing" textLength="31.7891" x="224.9773" y="419.2197">result</text></g><line style="stroke:#000000;stroke-width:1;stroke-dasharray:2,2;" x1="101.2617" x2="378.6025" y1="432.9746" y2="432.9746"/><text fill="#000000" font-family="Arial" font-size="11" font-weight="bold" lengthAdjust="spacing" textLength="200.7661" x="106.2617" y="443.2925">[report.digest with should_index=true]</text><g class="message" data-participant-1="Consumer" data-participant-2="Indexing"><polygon fill="#181818" points="289.3477,463.5723,299.3477,467.5723,289.3477,471.5723,293.3477,467.5723" style="stroke:#181818;stroke-width:1;"/><line style="stroke:#181818;stroke-width:1;" x1="175.396" x2="295.3477" y1="467.5723" y2="467.5723"/><text fill="#000000" font-family="Arial" font-size="13" lengthAdjust="spacing" textLength="105.498" x="185.6228" y="462.8174">IndexDigest(input)</text></g><g class="message" data-participant-1="Indexing" data-participant-2="Consumer"><polygon fill="#181818" points="186.396,522.4185,176.396,526.4185,186.396,530.4185,182.396,526.4185" style="stroke:#181818;stroke-width:1;"/><line style="stroke:#181818;stroke-width:1;stroke-dasharray:2,2;" x1="180.396" x2="305.3477" y1="526.4185" y2="526.4185"/><text fill="#000000" font-family="Arial" font-size="13" lengthAdjust="spacing" textLength="34.6899" x="223.5269" y="491.7661">digest</text><text fill="#000000" font-family="Arial" font-size="13" lengthAdjust="spacing" textLength="48.4263" x="216.6587" y="506.7148">indexing</text><text fill="#000000" font-family="Arial" font-size="13" lengthAdjust="spacing" textLength="31.7891" x="224.9773" y="521.6636">result</text></g><line style="stroke:#000000;stroke-width:1;stroke-dasharray:2,2;" x1="101.2617" x2="378.6025" y1="535.4185" y2="535.4185"/><text fill="#000000" font-family="Arial" font-size="11" font-weight="bold" lengthAdjust="spacing" textLength="177.8423" x="106.2617" y="545.7363">[unsupported or skipped payload]</text><g class="message" data-participant-1="Consumer" data-participant-2="Consumer"><line style="stroke:#181818;stroke-width:1;" x1="175.396" x2="217.396" y1="584.9648" y2="584.9648"/><line style="stroke:#181818;stroke-width:1;" x1="217.396" x2="217.396" y1="584.9648" y2="597.9648"/><line style="stroke:#181818;stroke-width:1;" x1="176.396" x2="217.396" y1="597.9648" y2="597.9648"/><polygon fill="#181818" points="186.396,593.9648,176.396,597.9648,186.396,601.9648,182.396,597.9648" style="stroke:#181818;stroke-width:1;"/><text fill="#000000" font-family="Arial" font-size="13" lengthAdjust="spacing" textLength="36.1372" x="190.7019" y="565.2612">ignore</text><text fill="#000000" font-family="Arial" font-size="13" lengthAdjust="spacing" textLength="52.749" x="182.396" y="580.21">message</text></g><!--SRC=[dPD1Qnin48Nl-XL3Jcd1fksbK6Z0IGc4abpIdjfInglnheXMKZGZE-wlxtXjRTOf5EARj7hptZSZBJ-ua31Z3vPMMBnSno1ts1CiiaDlU3pd3ctSkD322ZtJz8GU2uM6ReaPMrfurmPeA0ZbYIeJfnYugYx9nyqYvxW1oMLgr-FJGNFl_X1yV3SrYINO9kP06Tv_C4Q32y7PLrmz84XChk6V0GFwhUXo_lOCa65Hzzy6WL4htRc4GMhfbPALdlAWhvjZuKsmzAJjVsUwGgP1MRyPyo83PXSNemzyqk5wjzRLY0QqrW4PRCIjKUWvSooQ7HcKq6FMA_2mtEuRLIyB2RS-ejrTJY9Zq0iiKPfktiG-UHAoi77IWOsD6WNX7xyCm3IZjg0Pm_9oLtwkyoxoHgKZuDWgF9VCZXc7P73rL2zStvFgBVthGlg4LCgkxOJdgIozuwxISXUBjxy7fy_3w_W_yytUvpJg0yHhk3Ebc6LkNKiifo5_6MfF8pxalWAuQ6tQCUk4OmRzdrAYyVMyG9tEfWqn4_Jxtz5GiCPCGghoBm00]--></g></svg>