<svg xmlns="http://www.w3.org/2000/svg" xmlns:xlink="http://www.w3.org/1999/xlink" contentStyleType="text/css" data-diagram-type="SEQUENCE" height="608px" preserveAspectRatio="none" style="width:481px;height:608px;background:#FFFFFF;" version="1.1" viewBox="0 0 481 608" width="481px" zoomAndPan="magnify"><defs/><g><g><title>Knowledge Service</title><rect fill="#FFFFFF" height="280.3335" style="stroke:#181818;stroke-width:1;" width="10" x="222.1855" y="185.8423"/></g><g><title>Project Service</title><rect fill="#FFFFFF" height="43.8975" style="stroke:#181818;stroke-width:1;" width="10" x="353.1816" y="268.6372"/></g><g><title>Qdrant</title><rect fill="#FFFFFF" height="43.8975" style="stroke:#181818;stroke-width:1;" width="10" x="441.6538" y="378.3809"/></g><rect fill="none" height="119.6924" rx="6" ry="6" style="stroke:#000000;stroke-width:1.5;" width="271.9922" x="150.2617" y="200.8423"/><g><title>User</title><rect fill="#000000" fill-opacity="0.00000" height="446.9746" width="8" x="18.7793" y="81.0986"/><line style="stroke:#181818;stroke-width:0.5;stroke-dasharray:5,5;" x1="22" x2="22" y1="81.0986" y2="528.0732"/></g><g><title>Giao di.n</title><rect fill="#000000" fill-opacity="0.00000" height="446.9746" width="8" x="109.2964" y="81.0986"/><line style="stroke:#181818;stroke-width:0.5;stroke-dasharray:5,5;" x1="112.3311" x2="112.3311" y1="81.0986" y2="528.0732"/></g><g><title>Knowledge Service</title><rect fill="#000000" fill-opacity="0.00000" height="446.9746" width="8" x="223.1855" y="81.0986"/><line style="stroke:#181818;stroke-width:0.5;stroke-dasharray:5,5;" x1="226.2617" x2="226.2617" y1="81.0986" y2="528.0732"/></g><g><title>Project Service</title><rect fill="#000000" fill-opacity="0.00000" height="446.9746" width="8" x="354.1816" y="81.0986"/><line style="stroke:#181818;stroke-width:0.5;stroke-dasharray:5,5;" x1="358.1094" x2="358.1094" y1="81.0986" y2="528.0732"/></g><g><title>Qdrant</title><rect fill="#000000" fill-opacity="0.00000" height="446.9746" width="8" x="442.6538" y="81.0986"/><line style="stroke:#181818;stroke-width:0.5;stroke-dasharray:5,5;" x1="446.2539" x2="446.2539" y1="81.0986" y2="528.0732"/></g><g class="participant participant-head" data-participant="User"><text fill="#000000" font-family="Arial" font-size="14" lengthAdjust="spacing" textLength="29.5586" x="5" y="78.1318">User</text><ellipse cx="22.7793" cy="13.5" fill="#E2E2F0" rx="8" ry="8" style="stroke:#181818;stroke-width:0.5;"/><path d="M22.7793,21.5 L22.7793,48.5 M9.7793,29.5 L35.7793,29.5 M22.7793,48.5 L9.7793,63.5 M22.7793,48.5 L35.7793,63.5" fill="none" style="stroke:#181818;stroke-width:0.5;"/></g><g class="participant participant-tail" data-participant="User"><text fill="#000000" font-family="Arial" font-size="14" lengthAdjust="spacing" textLength="29.5586" x="5" y="540.2051">User</text><ellipse cx="22.7793" cy="551.6719" fill="#E2E2F0" rx="8" ry="8" style="stroke:#181818;stroke-width:0.5;"/><path d="M22.7793,559.6719 L22.7793,586.6719 M9.7793,567.6719 L35.7793,567.6719 M22.7793,586.6719 L9.7793,601.6719 M22.7793,586.6719 L35.7793,601.6719" fill="none" style="stroke:#181818;stroke-width:0.5;"/></g><g class="participant participant-head" data-participant="UI"><rect fill="#E2E2F0" height="30.0986" rx="6" ry="6" style="stroke:#181818;stroke-width:0.5;" width="73.9307" x="76.3311" y="50"/><text fill="#000000" font-family="Arial" font-size="14" lengthAdjust="spacing" textLength="59.9307" x="83.3311" y="70.1318">Giao di&#7879;n</text></g><g class="participant participant-tail" data-participant="UI"><rect fill="#E2E2F0" height="30.0986" rx="6" ry="6" style="stroke:#181818;stroke-width:0.5;" width="73.9307" x="76.3311" y="527.0732"/><text fill="#000000" font-family="Arial" font-size="14" lengthAdjust="spacing" textLength="59.9307" x="83.3311" y="547.2051">Giao di&#7879;n</text></g><g class="participant participant-head" data-participant="KnowledgeService"><rect fill="#E2E2F0" height="30.0986" rx="6" ry="6" style="stroke:#181818;stroke-width:0.5;" width="133.8477" x="160.2617" y="50"/><text fill="#000000" font-family="Arial" font-size="14" lengthAdjust="spacing" textLength="119.8477" x="167.2617" y="70.1318">Knowledge Service</text></g><g class="participant participant-tail" data-participant="KnowledgeService"><rect fill="#E2E2F0" height="30.0986" rx="6" ry="6" style="stroke:#181818;stroke-width:0.5;" width="133.8477" x="160.2617" y="527.0732"/><text fill="#000000" font-family="Arial" font-size="14" lengthAdjust="spacing" textLength="119.8477" x="167.2617" y="547.2051">Knowledge Service</text></g><g class="participant participant-head" data-participant="ProjectService"><rect fill="#E2E2F0" height="30.0986" rx="6" ry="6" style="stroke:#181818;stroke-width:0.5;" width="108.1445" x="304.1094" y="50"/><text fill="#000000" font-family="Arial" font-size="14" lengthAdjust="spacing" textLength="94.1445" x="311.1094" y="70.1318">Project Service</text></g><g class="participant participant-tail" data-participant="ProjectService"><rect fill="#E2E2F0" height="30.0986" rx="6" ry="6" style="stroke:#181818;stroke-width:0.5;" width="108.1445" x="304.1094" y="527.0732"/><text fill="#000000" font-family="Arial" font-size="14" lengthAdjust="spacing" textLength="94.1445" x="311.1094" y="547.2051">Project Service</text></g><g class="participant participant-head" data-participant="Qdrant"><text fill="#000000" font-family="Arial" font-size="14" lengthAdjust="spacing" textLength="42.7998" x="422.2539" y="78.1318">Qdrant</text><path d="M428.6538,29 C428.6538,19 446.6538,19 446.6538,19 C446.6538,19 464.6538,19 464.6538,29 L464.6538,55 C464.6538,65 446.6538,65 446.6538,65 C446.6538,65 428.6538,65 428.6538,55 L428.6538,29" fill="#E2E2F0" style="stroke:#181818;stroke-width:0.5;"/><path d="M428.6538,29 C428.6538,39 446.6538,39 446.6538,39 C446.6538,39 464.6538,39 464.6538,29" fill="none" style="stroke:#181818;stroke-width:0.5;"/></g><g class="participant participant-tail" data-participant="Qdrant"><text fill="#000000" font-family="Arial" font-size="14" lengthAdjust="spacing" textLength="42.7998" x="422.2539" y="540.2051">Qdrant</text><path d="M428.6538,553.1719 C428.6538,543.1719 446.6538,543.1719 446.6538,543.1719 C446.6538,543.1719 464.6538,543.1719 464.6538,553.1719 L464.6538,579.1719 C464.6538,589.1719 446.6538,589.1719 446.6538,589.1719 C446.6538,589.1719 428.6538,589.1719 428.6538,579.1719 L428.6538,553.1719" fill="#E2E2F0" style="stroke:#181818;stroke-width:0.5;"/><path d="M428.6538,553.1719 C428.6538,563.1719 446.6538,563.1719 446.6538,563.1719 C446.6538,563.1719 464.6538,563.1719 464.6538,553.1719" fill="none" style="stroke:#181818;stroke-width:0.5;"/></g><g><title>Knowledge Service</title><rect fill="#FFFFFF" height="280.3335" style="stroke:#181818;stroke-width:1;" width="10" x="222.1855" y="185.8423"/></g><g><title>Project Service</title><rect fill="#FFFFFF" height="43.8975" style="stroke:#181818;stroke-width:1;" width="10" x="353.1816" y="268.6372"/></g><g><title>Qdrant</title><rect fill="#FFFFFF" height="43.8975" style="stroke:#181818;stroke-width:1;" width="10" x="441.6538" y="378.3809"/></g><g class="message" data-participant-1="User" data-participant-2="UI"><polygon fill="#181818" points="101.2964,137.9448,111.2964,141.9448,101.2964,145.9448,105.2964,141.9448" style="stroke:#181818;stroke-width:1;"/><line style="stroke:#181818;stroke-width:1;" x1="22.7793" x2="107.2964" y1="141.9448" y2="141.9448"/><text fill="#000000" font-family="Arial" font-size="13" lengthAdjust="spacing" textLength="31.0781" x="39.8574" y="107.2925">Nh&#7853;p</text><text fill="#000000" font-family="Arial" font-size="13" lengthAdjust="spacing" textLength="3.6118" x="70.9355" y="107.2925">&#160;</text><text fill="#000000" font-family="Arial" font-size="13" lengthAdjust="spacing" textLength="21.6709" x="74.5474" y="107.2925">truy</text><text fill="#000000" font-family="Arial" font-size="13" lengthAdjust="spacing" textLength="20.96" x="39.8511" y="122.2412">v&#7845;n</text><text fill="#000000" font-family="Arial" font-size="13" lengthAdjust="spacing" textLength="3.6118" x="60.811" y="122.2412">&#160;</text><text fill="#000000" font-family="Arial" font-size="13" lengthAdjust="spacing" textLength="13.73" x="64.4229" y="122.2412">v&#224;</text><text fill="#000000" font-family="Arial" font-size="13" lengthAdjust="spacing" textLength="3.6118" x="78.1528" y="122.2412">&#160;</text><text fill="#000000" font-family="Arial" font-size="13" lengthAdjust="spacing" textLength="14.46" x="81.7646" y="122.2412">b&#7897;</text><text fill="#000000" font-family="Arial" font-size="13" lengthAdjust="spacing" textLength="16.6182" x="59.7288" y="137.1899">l&#7885;c</text></g><g class="message" data-participant-1="UI" data-participant-2="KnowledgeService"><polygon fill="#181818" points="210.1855,181.8423,220.1855,185.8423,210.1855,189.8423,214.1855,185.8423" style="stroke:#181818;stroke-width:1;"/><line style="stroke:#181818;stroke-width:1;" x1="113.2964" x2="216.1855" y1="185.8423" y2="185.8423"/><text fill="#000000" font-family="Arial" font-size="13" lengthAdjust="spacing" textLength="35.3945" x="150.0437" y="166.1387">POST</text><text fill="#000000" font-family="Arial" font-size="13" lengthAdjust="spacing" textLength="42.6309" x="146.4255" y="181.0874">/search</text></g><path d="M156.2617,200.8423 L215.4727,200.8423 L215.4727,207.791 L205.4727,217.791 L150.2617,217.791 L150.2617,206.8423 A6,6 0 0 1 156.2617,200.8423" fill="#EEEEEE" style="stroke:#000000;stroke-width:1.5;"/><rect fill="none" height="119.6924" rx="6" ry="6" style="stroke:#000000;stroke-width:1.5;" width="271.9922" x="150.2617" y="200.8423"/><text fill="#000000" font-family="Arial" font-size="13" font-weight="bold" lengthAdjust="spacing" textLength="20.2109" x="165.2617" y="214.0361">opt</text><text fill="#000000" font-family="Arial" font-size="11" font-weight="bold" lengthAdjust="spacing" textLength="158.9414" x="230.4727" y="213.1602">[C&#7847;n resolve campaign scope]</text><g class="message" data-participant-1="KnowledgeService" data-participant-2="ProjectService"><polygon fill="#181818" points="341.1816,264.6372,351.1816,268.6372,341.1816,272.6372,345.1816,268.6372" style="stroke:#181818;stroke-width:1;"/><line style="stroke:#181818;stroke-width:1;" x1="232.1855" x2="347.1816" y1="268.6372" y2="268.6372"/><text fill="#000000" font-family="Arial" font-size="13" lengthAdjust="spacing" textLength="26.7236" x="279.3218" y="233.9849">GET</text><text fill="#000000" font-family="Arial" font-size="13" lengthAdjust="spacing" textLength="56.3672" x="264.5" y="248.9336">campaign</text><text fill="#000000" font-family="Arial" font-size="13" lengthAdjust="spacing" textLength="41.9136" x="271.7268" y="263.8823">context</text></g><g class="message" data-participant-1="ProjectService" data-participant-2="KnowledgeService"><polygon fill="#181818" points="243.1855,308.5347,233.1855,312.5347,243.1855,316.5347,239.1855,312.5347" style="stroke:#181818;stroke-width:1;"/><line style="stroke:#181818;stroke-width:1;stroke-dasharray:2,2;" x1="237.1855" x2="357.1816" y1="312.5347" y2="312.5347"/><text fill="#000000" font-family="Arial" font-size="13" lengthAdjust="spacing" textLength="62.8672" x="263.75" y="292.8311">project_ids</text><text fill="#000000" font-family="Arial" font-size="13" lengthAdjust="spacing" textLength="10.1182" x="270.9736" y="307.7798">in</text><text fill="#000000" font-family="Arial" font-size="13" lengthAdjust="spacing" textLength="3.6118" x="281.0918" y="307.7798">&#160;</text><text fill="#000000" font-family="Arial" font-size="13" lengthAdjust="spacing" textLength="34.6899" x="284.7036" y="307.7798">scope</text></g><g class="message" data-participant-1="KnowledgeService" data-participant-2="Qdrant"><polygon fill="#181818" points="429.6538,374.3809,439.6538,378.3809,429.6538,382.3809,433.6538,378.3809" style="stroke:#181818;stroke-width:1;"/><line style="stroke:#181818;stroke-width:1;" x1="232.1855" x2="435.6538" y1="378.3809" y2="378.3809"/><text fill="#000000" font-family="Arial" font-size="13" lengthAdjust="spacing" textLength="39.019" x="317.4102" y="343.7285">search</text><text fill="#000000" font-family="Arial" font-size="13" lengthAdjust="spacing" textLength="46.249" x="313.7952" y="358.6772">relevant</text><text fill="#000000" font-family="Arial" font-size="13" lengthAdjust="spacing" textLength="60.6963" x="306.5715" y="373.626">collections</text></g><g class="message" data-participant-1="Qdrant" data-participant-2="KnowledgeService"><polygon fill="#181818" points="243.1855,418.2783,233.1855,422.2783,243.1855,426.2783,239.1855,422.2783" style="stroke:#181818;stroke-width:1;"/><line style="stroke:#181818;stroke-width:1;stroke-dasharray:2,2;" x1="237.1855" x2="445.6538" y1="422.2783" y2="422.2783"/><text fill="#000000" font-family="Arial" font-size="13" lengthAdjust="spacing" textLength="39.749" x="319.5452" y="402.5747">ranked</text><text fill="#000000" font-family="Arial" font-size="13" lengthAdjust="spacing" textLength="38.2891" x="320.2751" y="417.5234">results</text></g><g class="message" data-participant-1="KnowledgeService" data-participant-2="UI"><polygon fill="#181818" points="124.2964,462.1758,114.2964,466.1758,124.2964,470.1758,120.2964,466.1758" style="stroke:#181818;stroke-width:1;"/><line style="stroke:#181818;stroke-width:1;stroke-dasharray:2,2;" x1="118.2964" x2="226.1855" y1="466.1758" y2="466.1758"/><text fill="#000000" font-family="Arial" font-size="13" lengthAdjust="spacing" textLength="38.2891" x="145.4946" y="446.4722">results</text><text fill="#000000" font-family="Arial" font-size="13" lengthAdjust="spacing" textLength="3.6118" x="183.7837" y="446.4722">&#160;</text><text fill="#000000" font-family="Arial" font-size="13" lengthAdjust="spacing" textLength="7.5918" x="187.3955" y="446.4722">+</text><text fill="#000000" font-family="Arial" font-size="13" lengthAdjust="spacing" textLength="75.1689" x="132.6565" y="461.4209">aggregations</text></g><g class="message" data-participant-1="UI" data-participant-2="User"><polygon fill="#181818" points="33.7793,506.0732,23.7793,510.0732,33.7793,514.0732,29.7793,510.0732" style="stroke:#181818;stroke-width:1;"/><line style="stroke:#181818;stroke-width:1;stroke-dasharray:2,2;" x1="27.7793" x2="112.2964" y1="510.0732" y2="510.0732"/><text fill="#000000" font-family="Arial" font-size="13" lengthAdjust="spacing" textLength="26.7363" x="35.522" y="490.3696">Hi&#7875;n</text><text fill="#000000" font-family="Arial" font-size="13" lengthAdjust="spacing" textLength="3.6118" x="62.2583" y="490.3696">&#160;</text><text fill="#000000" font-family="Arial" font-size="13" lengthAdjust="spacing" textLength="13.73" x="65.8701" y="490.3696">th&#7883;</text><text fill="#000000" font-family="Arial" font-size="13" lengthAdjust="spacing" textLength="3.6118" x="79.6001" y="490.3696">&#160;</text><text fill="#000000" font-family="Arial" font-size="13" lengthAdjust="spacing" textLength="17.3418" x="83.2119" y="490.3696">k&#7871;t</text><text fill="#000000" font-family="Arial" font-size="13" lengthAdjust="spacing" textLength="21.6899" x="34.7793" y="505.3184">qu&#7843;</text><text fill="#000000" font-family="Arial" font-size="13" lengthAdjust="spacing" textLength="3.6118" x="56.4692" y="505.3184">&#160;</text><text fill="#000000" font-family="Arial" font-size="13" lengthAdjust="spacing" textLength="15.1709" x="60.0811" y="505.3184">tra</text><text fill="#000000" font-family="Arial" font-size="13" lengthAdjust="spacing" textLength="3.6118" x="75.252" y="505.3184">&#160;</text><text fill="#000000" font-family="Arial" font-size="13" lengthAdjust="spacing" textLength="22.4326" x="78.8638" y="505.3184">c&#7913;u</text></g><!--SRC=[TLEzRXGn4Exz5ADhKSHF4oa5qe4We2W_w98QJUp9dZcVlR6zUu6MWWBn07H8A48KlC1kGS6J-4qOP_VkzkwIpfhvlc- - -N6OQLkYnpaekiBAnDVEnXES4uozHYF2AX-cgDn2smAkq0GQPkYw8Ylfc4B0WiP65nOasKX-WF8KIcV34lM2Z5kClNSBYBuQoitnfiTCz2U2_IT34LTP9PstvE7fCo5GHkVX8d0b1aGjTOasmkXGemEbK_l5ZW03NBpTp1zPjp2a2e89-LfBkaEjedrmatFctGUISOFHnvPuXH4lCH2CtYdFf3jCznGYkuIzv-m53k1acfe_PMxz8zIfkRLG__i1bwdz3YQrtwHW56Et7J7px7Ho3ey3ePVJtB-kCTAkTU7A22zJyylcoJjJ4qYSbvXt4wGhIS2kEbVSx8Zh7RuwNpCbNmVTHEQkAc-D0BOLzkvle-nGxxKAeDUM53qaJ5O9SP_ZRhuisSs4spLKvuXqnh20vgjR3whVHazwm1pdPgJouFX7134mrTDtVImNstFW4M1HU2gmgp-Gs5bLNdMcv_iuW3TyjPyjn6bgly8iDNyZN5Uf-SctWY1J-xlw3m00]--></g></svg>