<svg xmlns="http://www.w3.org/2000/svg" xmlns:xlink="http://www.w3.org/1999/xlink" contentStyleType="text/css" data-diagram-type="SEQUENCE" height="1714px" preserveAspectRatio="none" style="width:1362px;height:1714px;background:#FFFFFF;" version="1.1" viewBox="0 0 1362 1714" width="1362px" zoomAndPan="magnify"><title>Ingest Completion Handling and UAP Publishing Flow</title><defs/><g><text fill="#000000" font-family="Arial" font-size="14" font-weight="bold" lengthAdjust="spacing" textLength="359.3242" x="502.3538" y="28.1318">Ingest Completion Handling and UAP Publishing Flow</text><g><title>Completion Consumer</title><rect fill="#FFFFFF" height="1453.3677" style="stroke:#181818;stroke-width:1;" width="10" x="290.2954" y="165.0435"/></g><g><title>ExecutionUseCase</title><rect fill="#FFFFFF" height="1424.4189" style="stroke:#181818;stroke-width:1;" width="10" x="463.0952" y="193.9922"/></g><g><title>Execution Repo</title><rect fill="#FFFFFF" height="146.6411" style="stroke:#181818;stroke-width:1;" width="10" x="673.4541" y="222.9409"/></g><g><title>Execution Repo</title><rect fill="#FFFFFF" height="116.7437" style="stroke:#181818;stroke-width:1;" width="10" x="673.4541" y="422.4795"/></g><g><title>Execution Repo</title><rect fill="#FFFFFF" height="116.7437" style="stroke:#181818;stroke-width:1;" width="10" x="673.4541" y="597.7695"/></g><g><title>Execution Repo</title><rect fill="#FFFFFF" height="161.5898" style="stroke:#181818;stroke-width:1;" width="10" x="673.4541" y="816.3081"/></g><g><title>MinIO Client</title><rect fill="#FFFFFF" height="28.9487" style="stroke:#181818;stroke-width:1;" width="10" x="785.3848" y="758.4106"/></g><g><title>MinIO Client</title><rect fill="#FFFFFF" height="43.8975" style="stroke:#181818;stroke-width:1;" width="10" x="785.3848" y="1207.334"/></g><g><title>UAP UseCase</title><rect fill="#FFFFFF" height="514.7695" style="stroke:#181818;stroke-width:1;" width="10" x="939.3892" y="1045.7441"/></g><g><title>UAP Publisher</title><rect fill="#FFFFFF" height="72.8462" style="stroke:#181818;stroke-width:1;" width="10" x="1056.5327" y="1304.1289"/></g><g><title>PostgreSQL</title><rect fill="#FFFFFF" height="43.8975" style="stroke:#181818;stroke-width:1;" width="10" x="1160.1841" y="281.7871"/></g><g><title>PostgreSQL</title><rect fill="#FFFFFF" height="28.9487" style="stroke:#181818;stroke-width:1;" width="10" x="1160.1841" y="481.3257"/></g><g><title>PostgreSQL</title><rect fill="#FFFFFF" height="28.9487" style="stroke:#181818;stroke-width:1;" width="10" x="1160.1841" y="656.6157"/></g><g><title>PostgreSQL</title><rect fill="#FFFFFF" height="43.8975" style="stroke:#181818;stroke-width:1;" width="10" x="1160.1841" y="905.0518"/></g><g><title>PostgreSQL</title><rect fill="#FFFFFF" height="28.9487" style="stroke:#181818;stroke-width:1;" width="10" x="1160.1841" y="1134.4878"/></g><g><title>PostgreSQL</title><rect fill="#FFFFFF" height="43.8975" style="stroke:#181818;stroke-width:1;" width="10" x="1160.1841" y="1472.7188"/></g><rect fill="none" height="1190.9316" rx="6" ry="6" style="stroke:#000000;stroke-width:1.5;" width="973.4673" x="381.5645" y="384.582"/><rect fill="none" height="575.6157" rx="6" ry="6" style="stroke:#000000;stroke-width:1.5;" width="953.4673" x="391.5645" y="992.8979"/><rect fill="none" height="118.7437" rx="6" ry="6" style="stroke:#000000;stroke-width:1.5;" width="452.77" x="882.2617" y="1266.2314"/><g><title>RabbitMQ queue</title><rect fill="#000000" fill-opacity="0.00000" height="1532.2139" width="8" x="102.8271" y="104.1973"/><line style="stroke:#181818;stroke-width:0.5;stroke-dasharray:5,5;" x1="106" x2="106" y1="104.1973" y2="1636.4111"/></g><g><title>Completion Consumer</title><rect fill="#000000" fill-opacity="0.00000" height="1532.2139" width="8" x="291.2954" y="104.1973"/><line style="stroke:#181818;stroke-width:0.5;stroke-dasharray:5,5;" x1="294.6543" x2="294.6543" y1="104.1973" y2="1636.4111"/></g><g><title>ExecutionUseCase</title><rect fill="#000000" fill-opacity="0.00000" height="1532.2139" width="8" x="464.0952" y="104.1973"/><line style="stroke:#181818;stroke-width:0.5;stroke-dasharray:5,5;" x1="467.5645" x2="467.5645" y1="104.1973" y2="1636.4111"/></g><g><title>Execution Repo</title><rect fill="#000000" fill-opacity="0.00000" height="1532.2139" width="8" x="674.4541" y="104.1973"/><line style="stroke:#181818;stroke-width:0.5;stroke-dasharray:5,5;" x1="678.0337" x2="678.0337" y1="104.1973" y2="1636.4111"/></g><g><title>MinIO Client</title><rect fill="#000000" fill-opacity="0.00000" height="1532.2139" width="8" x="786.3848" y="104.1973"/><line style="stroke:#181818;stroke-width:0.5;stroke-dasharray:5,5;" x1="789.8745" x2="789.8745" y1="104.1973" y2="1636.4111"/></g><g><title>UAP UseCase</title><rect fill="#000000" fill-opacity="0.00000" height="1532.2139" width="8" x="940.3892" y="104.1973"/><line style="stroke:#181818;stroke-width:0.5;stroke-dasharray:5,5;" x1="944.2617" x2="944.2617" y1="104.1973" y2="1636.4111"/></g><g><title>UAP Publisher</title><rect fill="#000000" fill-opacity="0.00000" height="1532.2139" width="8" x="1057.5327" y="104.1973"/><line style="stroke:#181818;stroke-width:0.5;stroke-dasharray:5,5;" x1="1061.0122" x2="1061.0122" y1="104.1973" y2="1636.4111"/></g><g><title>PostgreSQL</title><rect fill="#000000" fill-opacity="0.00000" height="1532.2139" width="8" x="1161.1841" y="104.1973"/><line style="stroke:#181818;stroke-width:0.5;stroke-dasharray:5,5;" x1="1165.0532" x2="1165.0532" y1="104.1973" y2="1636.4111"/></g><g><title>Kafka topic</title><rect fill="#000000" fill-opacity="0.00000" height="1532.2139" width="8" x="1266.6733" y="104.1973"/><line style="stroke:#181818;stroke-width:0.5;stroke-dasharray:5,5;" x1="1270.3149" x2="1270.3149" y1="104.1973" y2="1636.4111"/></g><g class="participant participant-head" data-participant="CompletionQueue"><path d="M10,45.9014 L203.6543,45.9014 C208.6543,45.9014 208.6543,75.0493 208.6543,75.0493 C208.6543,75.0493 208.6543,104.1973 203.6543,104.1973 L10,104.1973 C5,104.1973 5,75.0493 5,75.0493 C5,75.0493 5,45.9014 10,45.9014" fill="#E2E2F0" style="stroke:#181818;stroke-width:0.5;"/><path d="M203.6543,45.9014 C198.6543,45.9014 198.6543,75.0493 198.6543,75.0493 C198.6543,104.1973 203.6543,104.1973 203.6543,104.1973" fill="none" style="stroke:#181818;stroke-width:0.5;"/><text fill="#000000" font-family="Arial" font-size="14" lengthAdjust="spacing" textLength="105.8408" x="48.9067" y="64.0332">RabbitMQ queue</text><text fill="#000000" font-family="Arial" font-size="14" lengthAdjust="spacing" textLength="153.3096" x="25.1724" y="80.1318">ingest_task_completions</text><text fill="#000000" font-family="Arial" font-size="14" lengthAdjust="spacing" textLength="183.6543" x="10" y="96.2305">or ingest_dryrun_completions</text></g><g class="participant participant-tail" data-participant="CompletionQueue"><path d="M10,1635.4111 L203.6543,1635.4111 C208.6543,1635.4111 208.6543,1664.5591 208.6543,1664.5591 C208.6543,1664.5591 208.6543,1693.707 203.6543,1693.707 L10,1693.707 C5,1693.707 5,1664.5591 5,1664.5591 C5,1664.5591 5,1635.4111 10,1635.4111" fill="#E2E2F0" style="stroke:#181818;stroke-width:0.5;"/><path d="M203.6543,1635.4111 C198.6543,1635.4111 198.6543,1664.5591 198.6543,1664.5591 C198.6543,1693.707 203.6543,1693.707 203.6543,1693.707" fill="none" style="stroke:#181818;stroke-width:0.5;"/><text fill="#000000" font-family="Arial" font-size="14" lengthAdjust="spacing" textLength="105.8408" x="48.9067" y="1653.543">RabbitMQ queue</text><text fill="#000000" font-family="Arial" font-size="14" lengthAdjust="spacing" textLength="153.3096" x="25.1724" y="1669.6416">ingest_task_completions</text><text fill="#000000" font-family="Arial" font-size="14" lengthAdjust="spacing" textLength="183.6543" x="10" y="1685.7402">or ingest_dryrun_completions</text></g><g class="participant participant-head" data-participant="Consumer"><rect fill="#E2E2F0" height="30.0986" rx="6" ry="6" style="stroke:#181818;stroke-width:0.5;" width="153.2822" x="218.6543" y="73.0986"/><text fill="#000000" font-family="Arial" font-size="14" lengthAdjust="spacing" textLength="139.2822" x="225.6543" y="93.2305">Completion Consumer</text></g><g class="participant participant-tail" data-participant="Consumer"><rect fill="#E2E2F0" height="30.0986" rx="6" ry="6" style="stroke:#181818;stroke-width:0.5;" width="153.2822" x="218.6543" y="1635.4111"/><text fill="#000000" font-family="Arial" font-size="14" lengthAdjust="spacing" textLength="139.2822" x="225.6543" y="1655.543">Completion Consumer</text></g><g class="participant participant-head" data-participant="Execution"><rect fill="#E2E2F0" height="30.0986" rx="6" ry="6" style="stroke:#181818;stroke-width:0.5;" width="133.0615" x="401.5645" y="73.0986"/><text fill="#000000" font-family="Arial" font-size="14" lengthAdjust="spacing" textLength="119.0615" x="408.5645" y="93.2305">ExecutionUseCase</text></g><g class="participant participant-tail" data-participant="Execution"><rect fill="#E2E2F0" height="30.0986" rx="6" ry="6" style="stroke:#181818;stroke-width:0.5;" width="133.0615" x="401.5645" y="1635.4111"/><text fill="#000000" font-family="Arial" font-size="14" lengthAdjust="spacing" textLength="119.0615" x="408.5645" y="1655.543">ExecutionUseCase</text></g><g class="participant participant-head" data-participant="ExecutionRepo"><rect fill="#E2E2F0" height="30.0986" rx="6" ry="6" style="stroke:#181818;stroke-width:0.5;" width="112.8408" x="622.0337" y="73.0986"/><text fill="#000000" font-family="Arial" font-size="14" lengthAdjust="spacing" textLength="98.8408" x="629.0337" y="93.2305">Execution Repo</text></g><g class="participant participant-tail" data-participant="ExecutionRepo"><rect fill="#E2E2F0" height="30.0986" rx="6" ry="6" style="stroke:#181818;stroke-width:0.5;" width="112.8408" x="622.0337" y="1635.4111"/><text fill="#000000" font-family="Arial" font-size="14" lengthAdjust="spacing" textLength="98.8408" x="629.0337" y="1655.543">Execution Repo</text></g><g class="participant participant-head" data-participant="MinIO"><rect fill="#E2E2F0" height="30.0986" rx="6" ry="6" style="stroke:#181818;stroke-width:0.5;" width="91.0205" x="744.8745" y="73.0986"/><text fill="#000000" font-family="Arial" font-size="14" lengthAdjust="spacing" textLength="77.0205" x="751.8745" y="93.2305">MinIO Client</text></g><g class="participant participant-tail" data-participant="MinIO"><rect fill="#E2E2F0" height="30.0986" rx="6" ry="6" style="stroke:#181818;stroke-width:0.5;" width="91.0205" x="744.8745" y="1635.4111"/><text fill="#000000" font-family="Arial" font-size="14" lengthAdjust="spacing" textLength="77.0205" x="751.8745" y="1655.543">MinIO Client</text></g><g class="participant participant-head" data-participant="UAPUC"><rect fill="#E2E2F0" height="30.0986" rx="6" ry="6" style="stroke:#181818;stroke-width:0.5;" width="104.2549" x="892.2617" y="73.0986"/><text fill="#000000" font-family="Arial" font-size="14" lengthAdjust="spacing" textLength="90.2549" x="899.2617" y="93.2305">UAP UseCase</text></g><g class="participant participant-tail" data-participant="UAPUC"><rect fill="#E2E2F0" height="30.0986" rx="6" ry="6" style="stroke:#181818;stroke-width:0.5;" width="104.2549" x="892.2617" y="1635.4111"/><text fill="#000000" font-family="Arial" font-size="14" lengthAdjust="spacing" textLength="90.2549" x="899.2617" y="1655.543">UAP UseCase</text></g><g class="participant participant-head" data-participant="UAPPublisher"><rect fill="#E2E2F0" height="30.0986" rx="6" ry="6" style="stroke:#181818;stroke-width:0.5;" width="105.041" x="1009.0122" y="73.0986"/><text fill="#000000" font-family="Arial" font-size="14" lengthAdjust="spacing" textLength="91.041" x="1016.0122" y="93.2305">UAP Publisher</text></g><g class="participant participant-tail" data-participant="UAPPublisher"><rect fill="#E2E2F0" height="30.0986" rx="6" ry="6" style="stroke:#181818;stroke-width:0.5;" width="105.041" x="1009.0122" y="1635.4111"/><text fill="#000000" font-family="Arial" font-size="14" lengthAdjust="spacing" textLength="91.041" x="1016.0122" y="1655.543">UAP Publisher</text></g><g class="participant participant-head" data-participant="PostgreSQL"><text fill="#000000" font-family="Arial" font-size="14" lengthAdjust="spacing" textLength="76.2617" x="1124.0532" y="101.2305">PostgreSQL</text><path d="M1147.1841,52.0986 C1147.1841,42.0986 1165.1841,42.0986 1165.1841,42.0986 C1165.1841,42.0986 1183.1841,42.0986 1183.1841,52.0986 L1183.1841,78.0986 C1183.1841,88.0986 1165.1841,88.0986 1165.1841,88.0986 C1165.1841,88.0986 1147.1841,88.0986 1147.1841,78.0986 L1147.1841,52.0986" fill="#E2E2F0" style="stroke:#181818;stroke-width:0.5;"/><path d="M1147.1841,52.0986 C1147.1841,62.0986 1165.1841,62.0986 1165.1841,62.0986 C1165.1841,62.0986 1183.1841,62.0986 1183.1841,52.0986" fill="none" style="stroke:#181818;stroke-width:0.5;"/></g><g class="participant participant-tail" data-participant="PostgreSQL"><text fill="#000000" font-family="Arial" font-size="14" lengthAdjust="spacing" textLength="76.2617" x="1124.0532" y="1648.543">PostgreSQL</text><path d="M1147.1841,1661.5098 C1147.1841,1651.5098 1165.1841,1651.5098 1165.1841,1651.5098 C1165.1841,1651.5098 1183.1841,1651.5098 1183.1841,1661.5098 L1183.1841,1687.5098 C1183.1841,1697.5098 1165.1841,1697.5098 1165.1841,1697.5098 C1165.1841,1697.5098 1147.1841,1697.5098 1147.1841,1687.5098 L1147.1841,1661.5098" fill="#E2E2F0" style="stroke:#181818;stroke-width:0.5;"/><path d="M1147.1841,1661.5098 C1147.1841,1671.5098 1165.1841,1671.5098 1165.1841,1671.5098 C1165.1841,1671.5098 1183.1841,1671.5098 1183.1841,1661.5098" fill="none" style="stroke:#181818;stroke-width:0.5;"/></g><g class="participant participant-head" data-participant="AnalyticsInput"><path d="M1221.3149,62 L1320.0317,62 C1325.0317,62 1325.0317,83.0986 1325.0317,83.0986 C1325.0317,83.0986 1325.0317,104.1973 1320.0317,104.1973 L1221.3149,104.1973 C1216.3149,104.1973 1216.3149,83.0986 1216.3149,83.0986 C1216.3149,83.0986 1216.3149,62 1221.3149,62" fill="#E2E2F0" style="stroke:#181818;stroke-width:0.5;"/><path d="M1320.0317,62 C1315.0317,62 1315.0317,83.0986 1315.0317,83.0986 C1315.0317,104.1973 1320.0317,104.1973 1320.0317,104.1973" fill="none" style="stroke:#181818;stroke-width:0.5;"/><text fill="#000000" font-family="Arial" font-size="14" lengthAdjust="spacing" textLength="69.2617" x="1231.0425" y="80.1318">Kafka topic</text><text fill="#000000" font-family="Arial" font-size="14" lengthAdjust="spacing" textLength="88.7168" x="1221.3149" y="96.2305">analytics input</text></g><g class="participant participant-tail" data-participant="AnalyticsInput"><path d="M1221.3149,1635.4111 L1320.0317,1635.4111 C1325.0317,1635.4111 1325.0317,1656.5098 1325.0317,1656.5098 C1325.0317,1656.5098 1325.0317,1677.6084 1320.0317,1677.6084 L1221.3149,1677.6084 C1216.3149,1677.6084 1216.3149,1656.5098 1216.3149,1656.5098 C1216.3149,1656.5098 1216.3149,1635.4111 1221.3149,1635.4111" fill="#E2E2F0" style="stroke:#181818;stroke-width:0.5;"/><path d="M1320.0317,1635.4111 C1315.0317,1635.4111 1315.0317,1656.5098 1315.0317,1656.5098 C1315.0317,1677.6084 1320.0317,1677.6084 1320.0317,1677.6084" fill="none" style="stroke:#181818;stroke-width:0.5;"/><text fill="#000000" font-family="Arial" font-size="14" lengthAdjust="spacing" textLength="69.2617" x="1231.0425" y="1653.543">Kafka topic</text><text fill="#000000" font-family="Arial" font-size="14" lengthAdjust="spacing" textLength="88.7168" x="1221.3149" y="1669.6416">analytics input</text></g><g><title>Completion Consumer</title><rect fill="#FFFFFF" height="1453.3677" style="stroke:#181818;stroke-width:1;" width="10" x="290.2954" y="165.0435"/></g><g><title>ExecutionUseCase</title><rect fill="#FFFFFF" height="1424.4189" style="stroke:#181818;stroke-width:1;" width="10" x="463.0952" y="193.9922"/></g><g><title>Execution Repo</title><rect fill="#FFFFFF" height="146.6411" style="stroke:#181818;stroke-width:1;" width="10" x="673.4541" y="222.9409"/></g><g><title>Execution Repo</title><rect fill="#FFFFFF" height="116.7437" style="stroke:#181818;stroke-width:1;" width="10" x="673.4541" y="422.4795"/></g><g><title>Execution Repo</title><rect fill="#FFFFFF" height="116.7437" style="stroke:#181818;stroke-width:1;" width="10" x="673.4541" y="597.7695"/></g><g><title>Execution Repo</title><rect fill="#FFFFFF" height="161.5898" style="stroke:#181818;stroke-width:1;" width="10" x="673.4541" y="816.3081"/></g><g><title>MinIO Client</title><rect fill="#FFFFFF" height="28.9487" style="stroke:#181818;stroke-width:1;" width="10" x="785.3848" y="758.4106"/></g><g><title>MinIO Client</title><rect fill="#FFFFFF" height="43.8975" style="stroke:#181818;stroke-width:1;" width="10" x="785.3848" y="1207.334"/></g><g><title>UAP UseCase</title><rect fill="#FFFFFF" height="514.7695" style="stroke:#181818;stroke-width:1;" width="10" x="939.3892" y="1045.7441"/></g><g><title>UAP Publisher</title><rect fill="#FFFFFF" height="72.8462" style="stroke:#181818;stroke-width:1;" width="10" x="1056.5327" y="1304.1289"/></g><g><title>PostgreSQL</title><rect fill="#FFFFFF" height="43.8975" style="stroke:#181818;stroke-width:1;" width="10" x="1160.1841" y="281.7871"/></g><g><title>PostgreSQL</title><rect fill="#FFFFFF" height="28.9487" style="stroke:#181818;stroke-width:1;" width="10" x="1160.1841" y="481.3257"/></g><g><title>PostgreSQL</title><rect fill="#FFFFFF" height="28.9487" style="stroke:#181818;stroke-width:1;" width="10" x="1160.1841" y="656.6157"/></g><g><title>PostgreSQL</title><rect fill="#FFFFFF" height="43.8975" style="stroke:#181818;stroke-width:1;" width="10" x="1160.1841" y="905.0518"/></g><g><title>PostgreSQL</title><rect fill="#FFFFFF" height="28.9487" style="stroke:#181818;stroke-width:1;" width="10" x="1160.1841" y="1134.4878"/></g><g><title>PostgreSQL</title><rect fill="#FFFFFF" height="43.8975" style="stroke:#181818;stroke-width:1;" width="10" x="1160.1841" y="1472.7188"/></g><g class="message" data-participant-1="CompletionQueue" data-participant-2="Consumer"><line style="stroke:#181818;stroke-width:1;" x1="288.2954" x2="278.2954" y1="165.0435" y2="161.0435"/><line style="stroke:#181818;stroke-width:1;" x1="288.2954" x2="278.2954" y1="165.0435" y2="169.0435"/><line style="stroke:#181818;stroke-width:1;" x1="106.8271" x2="289.2954" y1="165.0435" y2="165.0435"/><text fill="#000000" font-family="Arial" font-size="13" lengthAdjust="spacing" textLength="38.2954" x="179.4136" y="130.3911">deliver</text><text fill="#000000" font-family="Arial" font-size="13" lengthAdjust="spacing" textLength="62.8672" x="167.1277" y="145.3398">completion</text><text fill="#000000" font-family="Arial" font-size="13" lengthAdjust="spacing" textLength="52.7681" x="172.1772" y="160.2886">envelope</text></g><g class="message" data-participant-1="Consumer" data-participant-2="Execution"><polygon fill="#181818" points="451.0952,189.9922,461.0952,193.9922,451.0952,197.9922,455.0952,193.9922" style="stroke:#181818;stroke-width:1;"/><line style="stroke:#181818;stroke-width:1;" x1="300.2954" x2="457.0952" y1="193.9922" y2="193.9922"/><text fill="#000000" font-family="Arial" font-size="13" lengthAdjust="spacing" textLength="143.7998" x="309.7954" y="189.2373">HandleCompletion(input)</text></g><g class="message" data-participant-1="Execution" data-participant-2="ExecutionRepo"><polygon fill="#181818" points="661.4541,218.9409,671.4541,222.9409,661.4541,226.9409,665.4541,222.9409" style="stroke:#181818;stroke-width:1;"/><line style="stroke:#181818;stroke-width:1;" x1="473.0952" x2="667.4541" y1="222.9409" y2="222.9409"/><text fill="#000000" font-family="Arial" font-size="13" lengthAdjust="spacing" textLength="181.3589" x="482.5952" y="218.186">GetCompletionContext(task_id)</text></g><g class="message" data-participant-1="ExecutionRepo" data-participant-2="PostgreSQL"><polygon fill="#181818" points="1148.1841,277.7871,1158.1841,281.7871,1148.1841,285.7871,1152.1841,281.7871" style="stroke:#181818;stroke-width:1;"/><line style="stroke:#181818;stroke-width:1;" x1="683.4541" x2="1154.1841" y1="281.7871" y2="281.7871"/><text fill="#000000" font-family="Arial" font-size="13" lengthAdjust="spacing" textLength="50.5718" x="896.5332" y="247.1348">SELECT</text><text fill="#000000" font-family="Arial" font-size="13" lengthAdjust="spacing" textLength="46.249" x="898.6946" y="262.0835">external</text><text fill="#000000" font-family="Arial" font-size="13" lengthAdjust="spacing" textLength="23.8418" x="887.1355" y="277.0322">task</text><text fill="#000000" font-family="Arial" font-size="13" lengthAdjust="spacing" textLength="3.6118" x="910.9773" y="277.0322">&#160;</text><text fill="#000000" font-family="Arial" font-size="13" lengthAdjust="spacing" textLength="41.9136" x="914.5891" y="277.0322">context</text></g><g class="message" data-participant-1="PostgreSQL" data-participant-2="ExecutionRepo"><polygon fill="#181818" points="694.4541,321.6846,684.4541,325.6846,694.4541,329.6846,690.4541,325.6846" style="stroke:#181818;stroke-width:1;"/><line style="stroke:#181818;stroke-width:1;stroke-dasharray:2,2;" x1="688.4541" x2="1164.1841" y1="325.6846" y2="325.6846"/><text fill="#000000" font-family="Arial" font-size="13" lengthAdjust="spacing" textLength="62.8672" x="892.8855" y="305.981">completion</text><text fill="#000000" font-family="Arial" font-size="13" lengthAdjust="spacing" textLength="41.9136" x="903.3623" y="320.9297">context</text></g><g class="message" data-participant-1="ExecutionRepo" data-participant-2="Execution"><polygon fill="#181818" points="484.0952,365.582,474.0952,369.582,484.0952,373.582,480.0952,369.582" style="stroke:#181818;stroke-width:1;"/><line style="stroke:#181818;stroke-width:1;stroke-dasharray:2,2;" x1="478.0952" x2="677.4541" y1="369.582" y2="369.582"/><text fill="#000000" font-family="Arial" font-size="13" lengthAdjust="spacing" textLength="62.8672" x="544.3411" y="349.8784">completion</text><text fill="#000000" font-family="Arial" font-size="13" lengthAdjust="spacing" textLength="41.9136" x="554.8179" y="364.8271">context</text></g><path d="M387.5645,384.582 L441.7354,384.582 L441.7354,391.5308 L431.7354,401.5308 L381.5645,401.5308 L381.5645,390.582 A6,6 0 0 1 387.5645,384.582" fill="#EEEEEE" style="stroke:#000000;stroke-width:1.5;"/><rect fill="none" height="1190.9316" rx="6" ry="6" style="stroke:#000000;stroke-width:1.5;" width="973.4673" x="381.5645" y="384.582"/><text fill="#000000" font-family="Arial" font-size="13" font-weight="bold" lengthAdjust="spacing" textLength="15.1709" x="396.5645" y="397.7759">alt</text><text fill="#000000" font-family="Arial" font-size="11" font-weight="bold" lengthAdjust="spacing" textLength="139.6646" x="456.7354" y="396.8999">[completion status = error]</text><g class="message" data-participant-1="Execution" data-participant-2="ExecutionRepo"><polygon fill="#181818" points="661.4541,418.4795,671.4541,422.4795,661.4541,426.4795,665.4541,422.4795" style="stroke:#181818;stroke-width:1;"/><line style="stroke:#181818;stroke-width:1;" x1="473.0952" x2="667.4541" y1="422.4795" y2="422.4795"/><text fill="#000000" font-family="Arial" font-size="13" lengthAdjust="spacing" textLength="132.1899" x="507.1797" y="417.7246">CompleteTaskError(...)</text></g><g class="message" data-participant-1="ExecutionRepo" data-participant-2="PostgreSQL"><polygon fill="#181818" points="1148.1841,477.3257,1158.1841,481.3257,1148.1841,485.3257,1152.1841,481.3257" style="stroke:#181818;stroke-width:1;"/><line style="stroke:#181818;stroke-width:1;" x1="683.4541" x2="1154.1841" y1="481.3257" y2="481.3257"/><text fill="#000000" font-family="Arial" font-size="13" lengthAdjust="spacing" textLength="52.73" x="895.4541" y="446.6733">UPDATE</text><text fill="#000000" font-family="Arial" font-size="13" lengthAdjust="spacing" textLength="77.3208" x="883.1587" y="461.6221">external_task</text><text fill="#000000" font-family="Arial" font-size="13" lengthAdjust="spacing" textLength="13.73" x="897.6091" y="476.5708">as</text><text fill="#000000" font-family="Arial" font-size="13" lengthAdjust="spacing" textLength="3.6118" x="911.3391" y="476.5708">&#160;</text><text fill="#000000" font-family="Arial" font-size="13" lengthAdjust="spacing" textLength="31.0781" x="914.9509" y="476.5708">failed</text></g><g class="message" data-participant-1="PostgreSQL" data-participant-2="ExecutionRepo"><polygon fill="#181818" points="694.4541,506.2744,684.4541,510.2744,694.4541,514.2744,690.4541,510.2744" style="stroke:#181818;stroke-width:1;"/><line style="stroke:#181818;stroke-width:1;stroke-dasharray:2,2;" x1="688.4541" x2="1164.1841" y1="510.2744" y2="510.2744"/><text fill="#000000" font-family="Arial" font-size="13" lengthAdjust="spacing" textLength="52.749" x="897.9446" y="505.5195">persisted</text></g><g class="message" data-participant-1="ExecutionRepo" data-participant-2="Execution"><polygon fill="#181818" points="484.0952,535.2231,474.0952,539.2231,484.0952,543.2231,480.0952,539.2231" style="stroke:#181818;stroke-width:1;"/><line style="stroke:#181818;stroke-width:1;stroke-dasharray:2,2;" x1="478.0952" x2="677.4541" y1="539.2231" y2="539.2231"/><text fill="#000000" font-family="Arial" font-size="13" lengthAdjust="spacing" textLength="13.73" x="568.9097" y="534.4683">ok</text></g><line style="stroke:#000000;stroke-width:1;stroke-dasharray:2,2;" x1="381.5645" x2="1355.0317" y1="548.2231" y2="548.2231"/><text fill="#000000" font-family="Arial" font-size="11" font-weight="bold" lengthAdjust="spacing" textLength="157.4106" x="386.5645" y="558.541">[completion status = success]</text><g class="message" data-participant-1="Execution" data-participant-2="ExecutionRepo"><polygon fill="#181818" points="661.4541,593.7695,671.4541,597.7695,661.4541,601.7695,665.4541,597.7695" style="stroke:#181818;stroke-width:1;"/><line style="stroke:#181818;stroke-width:1;" x1="473.0952" x2="667.4541" y1="597.7695" y2="597.7695"/><text fill="#000000" font-family="Arial" font-size="13" lengthAdjust="spacing" textLength="146.6753" x="499.937" y="578.0659">HasRawBatch(source_id,</text><text fill="#000000" font-family="Arial" font-size="13" lengthAdjust="spacing" textLength="53.479" x="546.5352" y="593.0146">batch_id)</text></g><g class="message" data-participant-1="ExecutionRepo" data-participant-2="PostgreSQL"><polygon fill="#181818" points="1148.1841,652.6157,1158.1841,656.6157,1148.1841,660.6157,1152.1841,656.6157" style="stroke:#181818;stroke-width:1;"/><line style="stroke:#181818;stroke-width:1;" x1="683.4541" x2="1154.1841" y1="656.6157" y2="656.6157"/><text fill="#000000" font-family="Arial" font-size="13" lengthAdjust="spacing" textLength="50.5718" x="896.5332" y="621.9634">SELECT</text><text fill="#000000" font-family="Arial" font-size="13" lengthAdjust="spacing" textLength="59.979" x="891.8296" y="636.9121">raw_batch</text><text fill="#000000" font-family="Arial" font-size="13" lengthAdjust="spacing" textLength="54.9199" x="894.3591" y="651.8608">existence</text></g><g class="message" data-participant-1="PostgreSQL" data-participant-2="ExecutionRepo"><polygon fill="#181818" points="694.4541,681.5645,684.4541,685.5645,694.4541,689.5645,690.4541,685.5645" style="stroke:#181818;stroke-width:1;"/><line style="stroke:#181818;stroke-width:1;stroke-dasharray:2,2;" x1="688.4541" x2="1164.1841" y1="685.5645" y2="685.5645"/><text fill="#000000" font-family="Arial" font-size="13" lengthAdjust="spacing" textLength="40.46" x="904.0891" y="680.8096">exists?</text></g><g class="message" data-participant-1="ExecutionRepo" data-participant-2="Execution"><polygon fill="#181818" points="484.0952,710.5132,474.0952,714.5132,484.0952,718.5132,480.0952,714.5132" style="stroke:#181818;stroke-width:1;"/><line style="stroke:#181818;stroke-width:1;stroke-dasharray:2,2;" x1="478.0952" x2="677.4541" y1="714.5132" y2="714.5132"/><text fill="#000000" font-family="Arial" font-size="13" lengthAdjust="spacing" textLength="40.46" x="555.5447" y="709.7583">exists?</text></g><g class="message" data-participant-1="Execution" data-participant-2="MinIO"><polygon fill="#181818" points="773.3848,754.4106,783.3848,758.4106,773.3848,762.4106,777.3848,758.4106" style="stroke:#181818;stroke-width:1;"/><line style="stroke:#181818;stroke-width:1;" x1="473.0952" x2="779.3848" y1="758.4106" y2="758.4106"/><text fill="#000000" font-family="Arial" font-size="13" lengthAdjust="spacing" textLength="149.5444" x="554.4678" y="738.707">verifyMinIOObject(bucket,</text><text fill="#000000" font-family="Arial" font-size="13" lengthAdjust="spacing" textLength="29.6309" x="614.4246" y="753.6558">path)</text></g><g class="message" data-participant-1="MinIO" data-participant-2="Execution"><polygon fill="#181818" points="484.0952,783.3594,474.0952,787.3594,484.0952,791.3594,480.0952,787.3594" style="stroke:#181818;stroke-width:1;"/><line style="stroke:#181818;stroke-width:1;stroke-dasharray:2,2;" x1="478.0952" x2="789.3848" y1="787.3594" y2="787.3594"/><text fill="#000000" font-family="Arial" font-size="13" lengthAdjust="spacing" textLength="16.6182" x="611.145" y="782.6045">file</text><text fill="#000000" font-family="Arial" font-size="13" lengthAdjust="spacing" textLength="3.6118" x="627.7632" y="782.6045">&#160;</text><text fill="#000000" font-family="Arial" font-size="13" lengthAdjust="spacing" textLength="20.96" x="631.375" y="782.6045">info</text></g><g class="message" data-participant-1="Execution" data-participant-2="ExecutionRepo"><polygon fill="#181818" points="661.4541,812.3081,671.4541,816.3081,661.4541,820.3081,665.4541,816.3081" style="stroke:#181818;stroke-width:1;"/><line style="stroke:#181818;stroke-width:1;" x1="473.0952" x2="667.4541" y1="816.3081" y2="816.3081"/><text fill="#000000" font-family="Arial" font-size="13" lengthAdjust="spacing" textLength="152.4326" x="497.0583" y="811.5532">CompleteTaskSuccess(...)</text></g><g class="message" data-participant-1="ExecutionRepo" data-participant-2="PostgreSQL"><polygon fill="#181818" points="1148.1841,901.0518,1158.1841,905.0518,1148.1841,909.0518,1152.1841,905.0518" style="stroke:#181818;stroke-width:1;"/><line style="stroke:#181818;stroke-width:1;" x1="683.4541" x2="1154.1841" y1="905.0518" y2="905.0518"/><text fill="#000000" font-family="Arial" font-size="13" lengthAdjust="spacing" textLength="52.73" x="895.4541" y="840.502">UPDATE</text><text fill="#000000" font-family="Arial" font-size="13" lengthAdjust="spacing" textLength="77.3208" x="883.1587" y="855.4507">external_task</text><text fill="#000000" font-family="Arial" font-size="13" lengthAdjust="spacing" textLength="47.6709" x="897.9836" y="870.3994">INSERT</text><text fill="#000000" font-family="Arial" font-size="13" lengthAdjust="spacing" textLength="59.979" x="891.8296" y="885.3481">raw_batch</text><text fill="#000000" font-family="Arial" font-size="13" lengthAdjust="spacing" textLength="41.9263" x="900.856" y="900.2969">lineage</text></g><g class="message" data-participant-1="PostgreSQL" data-participant-2="ExecutionRepo"><polygon fill="#181818" points="694.4541,944.9492,684.4541,948.9492,694.4541,952.9492,690.4541,948.9492" style="stroke:#181818;stroke-width:1;"/><line style="stroke:#181818;stroke-width:1;stroke-dasharray:2,2;" x1="688.4541" x2="1164.1841" y1="948.9492" y2="948.9492"/><text fill="#000000" font-family="Arial" font-size="13" lengthAdjust="spacing" textLength="59.979" x="894.3296" y="929.2456">raw_batch</text><text fill="#000000" font-family="Arial" font-size="13" lengthAdjust="spacing" textLength="52.749" x="897.9446" y="944.1943">persisted</text></g><g class="message" data-participant-1="ExecutionRepo" data-participant-2="Execution"><polygon fill="#181818" points="484.0952,973.8979,474.0952,977.8979,484.0952,981.8979,480.0952,977.8979" style="stroke:#181818;stroke-width:1;"/><line style="stroke:#181818;stroke-width:1;stroke-dasharray:2,2;" x1="478.0952" x2="677.4541" y1="977.8979" y2="977.8979"/><text fill="#000000" font-family="Arial" font-size="13" lengthAdjust="spacing" textLength="59.979" x="545.7852" y="973.1431">raw_batch</text></g><path d="M397.5645,992.8979 L456.7754,992.8979 L456.7754,999.8467 L446.7754,1009.8467 L391.5645,1009.8467 L391.5645,998.8979 A6,6 0 0 1 397.5645,992.8979" fill="#EEEEEE" style="stroke:#000000;stroke-width:1.5;"/><rect fill="none" height="575.6157" rx="6" ry="6" style="stroke:#000000;stroke-width:1.5;" width="953.4673" x="391.5645" y="992.8979"/><text fill="#000000" font-family="Arial" font-size="13" font-weight="bold" lengthAdjust="spacing" textLength="20.2109" x="406.5645" y="1006.0918">opt</text><text fill="#000000" font-family="Arial" font-size="11" font-weight="bold" lengthAdjust="spacing" textLength="196.1899" x="471.7754" y="1005.2158">[parser supports platform and action]</text><g class="message" data-participant-1="Execution" data-participant-2="UAPUC"><polygon fill="#181818" points="927.3892,1041.7441,937.3892,1045.7441,927.3892,1049.7441,931.3892,1045.7441" style="stroke:#181818;stroke-width:1;"/><line style="stroke:#181818;stroke-width:1;" x1="473.0952" x2="933.3892" y1="1045.7441" y2="1045.7441"/><text fill="#000000" font-family="Arial" font-size="13" lengthAdjust="spacing" textLength="211.7197" x="600.3823" y="1026.0405">ParseAndStoreRawBatch(raw_batch</text><text fill="#000000" font-family="Arial" font-size="13" lengthAdjust="spacing" textLength="32.519" x="689.9827" y="1040.9893">input)</text></g><g class="message" data-participant-1="UAPUC" data-participant-2="PostgreSQL"><polygon fill="#181818" points="1148.1841,1130.4878,1158.1841,1134.4878,1148.1841,1138.4878,1152.1841,1134.4878" style="stroke:#181818;stroke-width:1;"/><line style="stroke:#181818;stroke-width:1;" x1="949.3892" x2="1154.1841" y1="1134.4878" y2="1134.4878"/><text fill="#000000" font-family="Arial" font-size="13" lengthAdjust="spacing" textLength="30.3354" x="1026.968" y="1069.938">claim</text><text fill="#000000" font-family="Arial" font-size="13" lengthAdjust="spacing" textLength="3.6118" x="1057.3035" y="1069.938">&#160;</text><text fill="#000000" font-family="Arial" font-size="13" lengthAdjust="spacing" textLength="21.6899" x="1060.9153" y="1069.938">and</text><text fill="#000000" font-family="Arial" font-size="13" lengthAdjust="spacing" textLength="28.8882" x="1040.3425" y="1084.8867">mark</text><text fill="#000000" font-family="Arial" font-size="13" lengthAdjust="spacing" textLength="59.979" x="1024.7971" y="1099.8354">raw_batch</text><text fill="#000000" font-family="Arial" font-size="13" lengthAdjust="spacing" textLength="42.6372" x="1033.468" y="1114.7842">parsing</text><text fill="#000000" font-family="Arial" font-size="13" lengthAdjust="spacing" textLength="28.1836" x="1040.6948" y="1129.7329">state</text></g><g class="message" data-participant-1="PostgreSQL" data-participant-2="UAPUC"><polygon fill="#181818" points="960.3892,1159.4365,950.3892,1163.4365,960.3892,1167.4365,956.3892,1163.4365" style="stroke:#181818;stroke-width:1;"/><line style="stroke:#181818;stroke-width:1;stroke-dasharray:2,2;" x1="954.3892" x2="1164.1841" y1="1163.4365" y2="1163.4365"/><text fill="#000000" font-family="Arial" font-size="13" lengthAdjust="spacing" textLength="44.7954" x="1034.8889" y="1158.6816">claimed</text></g><g class="message" data-participant-1="UAPUC" data-participant-2="MinIO"><polygon fill="#181818" points="806.3848,1203.334,796.3848,1207.334,806.3848,1211.334,802.3848,1207.334" style="stroke:#181818;stroke-width:1;"/><line style="stroke:#181818;stroke-width:1;" x1="800.3848" x2="938.3892" y1="1207.334" y2="1207.334"/><text fill="#000000" font-family="Arial" font-size="13" lengthAdjust="spacing" textLength="125.0044" x="804.8848" y="1187.6304">DownloadFile(bucket,</text><text fill="#000000" font-family="Arial" font-size="13" lengthAdjust="spacing" textLength="39.019" x="847.8774" y="1202.5791">object)</text></g><g class="message" data-participant-1="MinIO" data-participant-2="UAPUC"><polygon fill="#181818" points="927.3892,1247.2314,937.3892,1251.2314,927.3892,1255.2314,931.3892,1251.2314" style="stroke:#181818;stroke-width:1;"/><line style="stroke:#181818;stroke-width:1;stroke-dasharray:2,2;" x1="790.3848" x2="933.3892" y1="1251.2314" y2="1251.2314"/><text fill="#000000" font-family="Arial" font-size="13" lengthAdjust="spacing" textLength="20.9473" x="833.1011" y="1231.5278">raw</text><text fill="#000000" font-family="Arial" font-size="13" lengthAdjust="spacing" textLength="3.6118" x="854.0483" y="1231.5278">&#160;</text><text fill="#000000" font-family="Arial" font-size="13" lengthAdjust="spacing" textLength="39.0127" x="857.6602" y="1231.5278">artifact</text><text fill="#000000" font-family="Arial" font-size="13" lengthAdjust="spacing" textLength="31.0718" x="849.3511" y="1246.4766">bytes</text></g><path d="M888.2617,1266.2314 L954.6963,1266.2314 L954.6963,1273.1802 L944.6963,1283.1802 L882.2617,1283.1802 L882.2617,1272.2314 A6,6 0 0 1 888.2617,1266.2314" fill="#EEEEEE" style="stroke:#000000;stroke-width:1.5;"/><rect fill="none" height="118.7437" rx="6" ry="6" style="stroke:#000000;stroke-width:1.5;" width="452.77" x="882.2617" y="1266.2314"/><text fill="#000000" font-family="Arial" font-size="13" font-weight="bold" lengthAdjust="spacing" textLength="27.4346" x="897.2617" y="1279.4253">loop</text><text fill="#000000" font-family="Arial" font-size="11" font-weight="bold" lengthAdjust="spacing" textLength="135.7061" x="969.6963" y="1278.5493">[each parsed UAPRecord]</text><g class="message" data-participant-1="UAPUC" data-participant-2="UAPPublisher"><polygon fill="#181818" points="1044.5327,1300.1289,1054.5327,1304.1289,1044.5327,1308.1289,1048.5327,1304.1289" style="stroke:#181818;stroke-width:1;"/><line style="stroke:#181818;stroke-width:1;" x1="949.3892" x2="1050.5327" y1="1304.1289" y2="1304.1289"/><text fill="#000000" font-family="Arial" font-size="13" lengthAdjust="spacing" textLength="88.1436" x="958.8892" y="1299.374">Publish(record)</text></g><g class="message" data-participant-1="UAPPublisher" data-participant-2="AnalyticsInput"><line style="stroke:#181818;stroke-width:1;" x1="1268.6733" x2="1258.6733" y1="1333.0776" y2="1329.0776"/><line style="stroke:#181818;stroke-width:1;" x1="1268.6733" x2="1258.6733" y1="1333.0776" y2="1337.0776"/><line style="stroke:#181818;stroke-width:1;" x1="1066.5327" x2="1269.6733" y1="1333.0776" y2="1333.0776"/><text fill="#000000" font-family="Arial" font-size="13" lengthAdjust="spacing" textLength="68.6372" x="1134.2844" y="1328.3228">UAPRecord</text></g><g class="message" data-participant-1="UAPPublisher" data-participant-2="UAPUC"><polygon fill="#181818" points="960.3892,1372.9751,950.3892,1376.9751,960.3892,1380.9751,956.3892,1376.9751" style="stroke:#181818;stroke-width:1;"/><line style="stroke:#181818;stroke-width:1;stroke-dasharray:2,2;" x1="954.3892" x2="1060.5327" y1="1376.9751" y2="1376.9751"/><text fill="#000000" font-family="Arial" font-size="13" lengthAdjust="spacing" textLength="41.1963" x="984.8628" y="1357.2715">publish</text><text fill="#000000" font-family="Arial" font-size="13" lengthAdjust="spacing" textLength="31.7891" x="989.5664" y="1372.2202">result</text></g><g class="message" data-participant-1="UAPUC" data-participant-2="PostgreSQL"><polygon fill="#181818" points="1148.1841,1468.7188,1158.1841,1472.7188,1148.1841,1476.7188,1152.1841,1472.7188" style="stroke:#181818;stroke-width:1;"/><line style="stroke:#181818;stroke-width:1;" x1="949.3892" x2="1154.1841" y1="1472.7188" y2="1472.7188"/><text fill="#000000" font-family="Arial" font-size="13" lengthAdjust="spacing" textLength="28.8882" x="1040.3425" y="1408.1689">mark</text><text fill="#000000" font-family="Arial" font-size="13" lengthAdjust="spacing" textLength="59.979" x="1024.7971" y="1423.1177">raw_batch</text><text fill="#000000" font-family="Arial" font-size="13" lengthAdjust="spacing" textLength="39.749" x="1034.9121" y="1438.0664">parsed</text><text fill="#000000" font-family="Arial" font-size="13" lengthAdjust="spacing" textLength="23.1182" x="1020.8235" y="1453.0151">with</text><text fill="#000000" font-family="Arial" font-size="13" lengthAdjust="spacing" textLength="3.6118" x="1043.9417" y="1453.0151">&#160;</text><text fill="#000000" font-family="Arial" font-size="13" lengthAdjust="spacing" textLength="41.1963" x="1047.5535" y="1453.0151">publish</text><text fill="#000000" font-family="Arial" font-size="13" lengthAdjust="spacing" textLength="49.8418" x="1029.8657" y="1467.9639">statistics</text></g><g class="message" data-participant-1="PostgreSQL" data-participant-2="UAPUC"><polygon fill="#181818" points="960.3892,1512.6162,950.3892,1516.6162,960.3892,1520.6162,956.3892,1516.6162" style="stroke:#181818;stroke-width:1;"/><line style="stroke:#181818;stroke-width:1;stroke-dasharray:2,2;" x1="954.3892" x2="1164.1841" y1="1516.6162" y2="1516.6162"/><text fill="#000000" font-family="Arial" font-size="13" lengthAdjust="spacing" textLength="39.749" x="1037.4121" y="1496.9126">parsed</text><text fill="#000000" font-family="Arial" font-size="13" lengthAdjust="spacing" textLength="28.1836" x="1024.0439" y="1511.8613">state</text><text fill="#000000" font-family="Arial" font-size="13" lengthAdjust="spacing" textLength="3.6118" x="1052.2275" y="1511.8613">&#160;</text><text fill="#000000" font-family="Arial" font-size="13" lengthAdjust="spacing" textLength="34.6899" x="1055.8394" y="1511.8613">saved</text></g><g class="message" data-participant-1="UAPUC" data-participant-2="Execution"><polygon fill="#181818" points="484.0952,1556.5137,474.0952,1560.5137,484.0952,1564.5137,480.0952,1560.5137" style="stroke:#181818;stroke-width:1;"/><line style="stroke:#181818;stroke-width:1;stroke-dasharray:2,2;" x1="478.0952" x2="943.3892" y1="1560.5137" y2="1560.5137"/><text fill="#000000" font-family="Arial" font-size="13" lengthAdjust="spacing" textLength="32.519" x="679.1177" y="1540.8101">parse</text><text fill="#000000" font-family="Arial" font-size="13" lengthAdjust="spacing" textLength="3.6118" x="711.6367" y="1540.8101">&#160;</text><text fill="#000000" font-family="Arial" font-size="13" lengthAdjust="spacing" textLength="23.1182" x="715.2485" y="1540.8101">flow</text><text fill="#000000" font-family="Arial" font-size="13" lengthAdjust="spacing" textLength="44.8081" x="686.3381" y="1555.7588">finished</text></g><g class="message" data-participant-1="Execution" data-participant-2="Consumer"><polygon fill="#181818" points="306.2954,1614.4111,296.2954,1618.4111,306.2954,1622.4111,302.2954,1618.4111" style="stroke:#181818;stroke-width:1;"/><line style="stroke:#181818;stroke-width:1;stroke-dasharray:2,2;" x1="300.2954" x2="467.0952" y1="1618.4111" y2="1618.4111"/><text fill="#000000" font-family="Arial" font-size="13" lengthAdjust="spacing" textLength="62.8672" x="350.2617" y="1598.7075">completion</text><text fill="#000000" font-family="Arial" font-size="13" lengthAdjust="spacing" textLength="46.2681" x="358.5613" y="1613.6563">handled</text></g><!--SRC=[jLRVR-Cs37xtNq7qAGMknRQN0GUiGowNxefTxzAaVGjGC3QTQ54aJvARTd_zAFcNxAJjbc4FHMEQ_4X-_2JJ2IS9RjIQh8E9tXMIdD0Alg3Af51huF_mC9x1h5n9OJVUT2trFh5ReGeqk8ECSYobkzRAVSCTmTW8bD5xky5CxtrWZj9I_8R-B4cbT4lMufh6KgmLfAGScSZBa2sqietN9-BqOsFq7fmfOxWTFjS-2_4NmSy_n22wL5cgZI83F_wK99ou93YRusebtEqTXEUb4e68HuTs-vYsRDYbqWRgTvbvCQMAtvu1seYxEm-LS5edKb6WSd0M4JlXW797fWwg7lhUqsTAI-_yO6c2be9hQtp55-PKwBwdj_IzRuMw-GuJAPZZu1iCVHy_x3WnFpzC3brgFTIDiAKr91awN74udCsqTMj3YxklmQjxRFZ_7VCjWjE5I9SA5SeNpcAPwgAi2XmtjXjlIf81pN1nTTMo21zPYr8yyQzkEa3gYHLJK8Af4q_eg6Ez3RouwbXZb21-wbADGZtd7K8tZAIBYq4yzGpq6xaEXRCvUdQZ82wH7OCB4-k3C6f76qCkfb-datjW83BC3NWqRZT0TuWHqr7qnP4I8wOQb8oEuGpA6b3sDao_mGIbYmEiGrTQ-0M8JxL90Dxaj2QKxhdngGyONLvUddFKAza0tYRqOVPvV3zj2GrdtoilHo4fYt4ZCW3UeRKWOuLr0U0udmTr3HZLstvelolYc_GeXxPCKxu4tsFn2zevxZ-XIpSZgqkJ4alo0woy8OZpP3vhWHhSFmOqPjOJmTVygLm60FlhoKmUZHz8Sa1NTL5-1BvBHFuIdhwl_g3KZLPbkYNt0GfqcnvBrLKATUYmXfp5nDTQhljLL47_HlABQhx_W-YNwkRROZgFHySR0F7dzDJ1TK3__JYqME-CKHUEPsCit-gsB0fjd8L2eikrsOLbneVonGqm83ryvpZHp0UFLRPmsb1xHhfMwc-1Zs-hgBwHtbIX3EbE9Oeg-mxDDkQ5a_dDo1zVwcFsk3cWkgas80TQNoSsgghHzMUzLr9ZTisoR2MjWy87hJMoZeNT9ES-mEy5ENl3wiMH7TRHHKkj2-0NLSyKbievyKPMrHxL6EyIVXxLxv49pkUrTqnzjtcqI1s0Nn3wIuIN_s7kA2BgiAYiVWVb5RVsZlexo4ugUqC7HwPFsLBjXTkqgRmK-AXmjQVeeIOtw0aiFlrJQGnEMu21d3TjlhcKR-y0fz6yxzZ_nPlGHMyfYpvJcx1PPKTtWzZOHFyD]--></g></svg>