<svg xmlns="http://www.w3.org/2000/svg" xmlns:xlink="http://www.w3.org/1999/xlink" contentStyleType="text/css" data-diagram-type="SEQUENCE" height="952px" preserveAspectRatio="none" style="width:1490px;height:952px;background:#FFFFFF;" version="1.1" viewBox="0 0 1490 952" width="1490px" zoomAndPan="magnify"><defs/><g><g><title>WorkerRuntime</title><rect fill="#FFFFFF" height="760.957" style="stroke:#181818;stroke-width:1;" width="10" x="269.2817" y="109.1934"/></g><g><title>Queue Handler Registry</title><rect fill="#FFFFFF" height="28.9487" style="stroke:#181818;stroke-width:1;" width="10" x="455.0288" y="195.0396"/></g><g><title>Platform Handler</title><rect fill="#FFFFFF" height="116.7437" style="stroke:#181818;stroke-width:1;" width="10" x="606.6421" y="267.8857"/></g><g><title>TinLikeSub SDK</title><rect fill="#FFFFFF" height="43.8975" style="stroke:#181818;stroke-width:1;" width="10" x="734.521" y="311.7832"/></g><g><title>StorageAdapter</title><rect fill="#FFFFFF" height="294.9824" style="stroke:#181818;stroke-width:1;" width="10" x="858.9136" y="458.4243"/></g><g><title>MinIO</title><rect fill="#FFFFFF" height="58.8462" style="stroke:#181818;stroke-width:1;" width="10" x="985.418" y="526.2705"/></g><g><title>Local output</title><rect fill="#FFFFFF" height="43.8975" style="stroke:#181818;stroke-width:1;" width="10" x="1066.228" y="643.6631"/></g><g><title>CompletionPublisher</title><rect fill="#FFFFFF" height="72.8462" style="stroke:#181818;stroke-width:1;" width="10" x="1192.9585" y="797.3042"/></g><rect fill="none" height="222.1362" rx="6" ry="6" style="stroke:#000000;stroke-width:1.5;" width="328.4897" x="797.8794" y="473.4243"/><g><title>RabbitMQ queue</title><rect fill="#000000" fill-opacity="0.00000" height="824.8545" width="8" x="102.8306" y="63.2959"/><line style="stroke:#181818;stroke-width:0.5;stroke-dasharray:5,5;" x1="106" x2="106" y1="63.2959" y2="888.1504"/></g><g><title>WorkerRuntime</title><rect fill="#000000" fill-opacity="0.00000" height="824.8545" width="8" x="270.2817" y="63.2959"/><line style="stroke:#181818;stroke-width:0.5;stroke-dasharray:5,5;" x1="273.6611" x2="273.6611" y1="63.2959" y2="888.1504"/></g><g><title>Queue Handler Registry</title><rect fill="#000000" fill-opacity="0.00000" height="824.8545" width="8" x="456.0288" y="63.2959"/><line style="stroke:#181818;stroke-width:0.5;stroke-dasharray:5,5;" x1="459.936" x2="459.936" y1="63.2959" y2="888.1504"/></g><g><title>Platform Handler</title><rect fill="#000000" fill-opacity="0.00000" height="824.8545" width="8" x="607.6421" y="63.2959"/><line style="stroke:#181818;stroke-width:0.5;stroke-dasharray:5,5;" x1="611.1216" x2="611.1216" y1="63.2959" y2="888.1504"/></g><g><title>TinLikeSub SDK</title><rect fill="#000000" fill-opacity="0.00000" height="824.8545" width="8" x="735.521" y="63.2959"/><line style="stroke:#181818;stroke-width:0.5;stroke-dasharray:5,5;" x1="739.1626" x2="739.1626" y1="63.2959" y2="888.1504"/></g><g><title>StorageAdapter</title><rect fill="#000000" fill-opacity="0.00000" height="824.8545" width="8" x="859.9136" y="63.2959"/><line style="stroke:#181818;stroke-width:0.5;stroke-dasharray:5,5;" x1="863.8794" x2="863.8794" y1="63.2959" y2="888.1504"/></g><g><title>MinIO</title><rect fill="#000000" fill-opacity="0.00000" height="824.8545" width="8" x="986.418" y="63.2959"/><line style="stroke:#181818;stroke-width:0.5;stroke-dasharray:5,5;" x1="989.749" x2="989.749" y1="63.2959" y2="888.1504"/></g><g><title>Local output</title><rect fill="#000000" fill-opacity="0.00000" height="824.8545" width="8" x="1067.228" y="63.2959"/><line style="stroke:#181818;stroke-width:0.5;stroke-dasharray:5,5;" x1="1071.0869" x2="1071.0869" y1="63.2959" y2="888.1504"/></g><g><title>CompletionPublisher</title><rect fill="#000000" fill-opacity="0.00000" height="824.8545" width="8" x="1193.9585" y="63.2959"/><line style="stroke:#181818;stroke-width:0.5;stroke-dasharray:5,5;" x1="1197.3691" x2="1197.3691" y1="63.2959" y2="888.1504"/></g><g><title>RabbitMQ queue</title><rect fill="#000000" fill-opacity="0.00000" height="824.8545" width="8" x="1377.375" y="63.2959"/><line style="stroke:#181818;stroke-width:0.5;stroke-dasharray:5,5;" x1="1380.5479" x2="1380.5479" y1="63.2959" y2="888.1504"/></g><g class="participant participant-head" data-participant="PlatformQueue"><path d="M10,21.0986 L203.6611,21.0986 C208.6611,21.0986 208.6611,42.1973 208.6611,42.1973 C208.6611,42.1973 208.6611,63.2959 203.6611,63.2959 L10,63.2959 C5,63.2959 5,42.1973 5,42.1973 C5,42.1973 5,21.0986 10,21.0986" fill="#E2E2F0" style="stroke:#181818;stroke-width:0.5;"/><path d="M203.6611,21.0986 C198.6611,21.0986 198.6611,42.1973 198.6611,42.1973 C198.6611,63.2959 203.6611,63.2959 203.6611,63.2959" fill="none" style="stroke:#181818;stroke-width:0.5;"/><text fill="#000000" font-family="Arial" font-size="14" lengthAdjust="spacing" textLength="105.8408" x="48.9102" y="39.2305">RabbitMQ queue</text><text fill="#000000" font-family="Arial" font-size="14" lengthAdjust="spacing" textLength="183.6611" x="10" y="55.3291">tiktok/facebook/youtube tasks</text></g><g class="participant participant-tail" data-participant="PlatformQueue"><path d="M10,887.1504 L203.6611,887.1504 C208.6611,887.1504 208.6611,908.249 208.6611,908.249 C208.6611,908.249 208.6611,929.3477 203.6611,929.3477 L10,929.3477 C5,929.3477 5,908.249 5,908.249 C5,908.249 5,887.1504 10,887.1504" fill="#E2E2F0" style="stroke:#181818;stroke-width:0.5;"/><path d="M203.6611,887.1504 C198.6611,887.1504 198.6611,908.249 198.6611,908.249 C198.6611,929.3477 203.6611,929.3477 203.6611,929.3477" fill="none" style="stroke:#181818;stroke-width:0.5;"/><text fill="#000000" font-family="Arial" font-size="14" lengthAdjust="spacing" textLength="105.8408" x="48.9102" y="905.2822">RabbitMQ queue</text><text fill="#000000" font-family="Arial" font-size="14" lengthAdjust="spacing" textLength="183.6611" x="10" y="921.3809">tiktok/facebook/youtube tasks</text></g><g class="participant participant-head" data-participant="Worker"><rect fill="#E2E2F0" height="30.0986" rx="6" ry="6" style="stroke:#181818;stroke-width:0.5;" width="111.2412" x="218.6611" y="32.1973"/><text fill="#000000" font-family="Arial" font-size="14" lengthAdjust="spacing" textLength="97.2412" x="225.6611" y="52.3291">WorkerRuntime</text></g><g class="participant participant-tail" data-participant="Worker"><rect fill="#E2E2F0" height="30.0986" rx="6" ry="6" style="stroke:#181818;stroke-width:0.5;" width="111.2412" x="218.6611" y="887.1504"/><text fill="#000000" font-family="Arial" font-size="14" lengthAdjust="spacing" textLength="97.2412" x="225.6611" y="907.2822">WorkerRuntime</text></g><g class="participant participant-head" data-participant="Registry"><rect fill="#E2E2F0" height="30.0986" rx="6" ry="6" style="stroke:#181818;stroke-width:0.5;" width="164.1855" x="377.936" y="32.1973"/><text fill="#000000" font-family="Arial" font-size="14" lengthAdjust="spacing" textLength="150.1855" x="384.936" y="52.3291">Queue Handler Registry</text></g><g class="participant participant-tail" data-participant="Registry"><rect fill="#E2E2F0" height="30.0986" rx="6" ry="6" style="stroke:#181818;stroke-width:0.5;" width="164.1855" x="377.936" y="887.1504"/><text fill="#000000" font-family="Arial" font-size="14" lengthAdjust="spacing" textLength="150.1855" x="384.936" y="907.2822">Queue Handler Registry</text></g><g class="participant participant-head" data-participant="Handler"><rect fill="#E2E2F0" height="30.0986" rx="6" ry="6" style="stroke:#181818;stroke-width:0.5;" width="119.041" x="552.1216" y="32.1973"/><text fill="#000000" font-family="Arial" font-size="14" lengthAdjust="spacing" textLength="105.041" x="559.1216" y="52.3291">Platform Handler</text></g><g class="participant participant-tail" data-participant="Handler"><rect fill="#E2E2F0" height="30.0986" rx="6" ry="6" style="stroke:#181818;stroke-width:0.5;" width="119.041" x="552.1216" y="887.1504"/><text fill="#000000" font-family="Arial" font-size="14" lengthAdjust="spacing" textLength="105.041" x="559.1216" y="907.2822">Platform Handler</text></g><g class="participant participant-head" data-participant="SDK"><rect fill="#E2E2F0" height="30.0986" rx="6" ry="6" style="stroke:#181818;stroke-width:0.5;" width="116.7168" x="681.1626" y="32.1973"/><text fill="#000000" font-family="Arial" font-size="14" lengthAdjust="spacing" textLength="102.7168" x="688.1626" y="52.3291">TinLikeSub SDK</text></g><g class="participant participant-tail" data-participant="SDK"><rect fill="#E2E2F0" height="30.0986" rx="6" ry="6" style="stroke:#181818;stroke-width:0.5;" width="116.7168" x="681.1626" y="887.1504"/><text fill="#000000" font-family="Arial" font-size="14" lengthAdjust="spacing" textLength="102.7168" x="688.1626" y="907.2822">TinLikeSub SDK</text></g><g class="participant participant-head" data-participant="Storage"><rect fill="#E2E2F0" height="30.0986" rx="6" ry="6" style="stroke:#181818;stroke-width:0.5;" width="112.0684" x="807.8794" y="32.1973"/><text fill="#000000" font-family="Arial" font-size="14" lengthAdjust="spacing" textLength="98.0684" x="814.8794" y="52.3291">StorageAdapter</text></g><g class="participant participant-tail" data-participant="Storage"><rect fill="#E2E2F0" height="30.0986" rx="6" ry="6" style="stroke:#181818;stroke-width:0.5;" width="112.0684" x="807.8794" y="887.1504"/><text fill="#000000" font-family="Arial" font-size="14" lengthAdjust="spacing" textLength="98.0684" x="814.8794" y="907.2822">StorageAdapter</text></g><g class="participant participant-head" data-participant="MinIO"><rect fill="#E2E2F0" height="30.0986" rx="6" ry="6" style="stroke:#181818;stroke-width:0.5;" width="51.3379" x="964.749" y="32.1973"/><text fill="#000000" font-family="Arial" font-size="14" lengthAdjust="spacing" textLength="37.3379" x="971.749" y="52.3291">MinIO</text></g><g class="participant participant-tail" data-participant="MinIO"><rect fill="#E2E2F0" height="30.0986" rx="6" ry="6" style="stroke:#181818;stroke-width:0.5;" width="51.3379" x="964.749" y="887.1504"/><text fill="#000000" font-family="Arial" font-size="14" lengthAdjust="spacing" textLength="37.3379" x="971.749" y="907.2822">MinIO</text></g><g class="participant participant-head" data-participant="LocalOutput"><rect fill="#E2E2F0" height="30.0986" rx="6" ry="6" style="stroke:#181818;stroke-width:0.5;" width="90.2822" x="1026.0869" y="32.1973"/><text fill="#000000" font-family="Arial" font-size="14" lengthAdjust="spacing" textLength="76.2822" x="1033.0869" y="52.3291">Local output</text></g><g class="participant participant-tail" data-participant="LocalOutput"><rect fill="#E2E2F0" height="30.0986" rx="6" ry="6" style="stroke:#181818;stroke-width:0.5;" width="90.2822" x="1026.0869" y="887.1504"/><text fill="#000000" font-family="Arial" font-size="14" lengthAdjust="spacing" textLength="76.2822" x="1033.0869" y="907.2822">Local output</text></g><g class="participant participant-head" data-participant="Publisher"><rect fill="#E2E2F0" height="30.0986" rx="6" ry="6" style="stroke:#181818;stroke-width:0.5;" width="143.1787" x="1126.3691" y="32.1973"/><text fill="#000000" font-family="Arial" font-size="14" lengthAdjust="spacing" textLength="129.1787" x="1133.3691" y="52.3291">CompletionPublisher</text></g><g class="participant participant-tail" data-participant="Publisher"><rect fill="#E2E2F0" height="30.0986" rx="6" ry="6" style="stroke:#181818;stroke-width:0.5;" width="143.1787" x="1126.3691" y="887.1504"/><text fill="#000000" font-family="Arial" font-size="14" lengthAdjust="spacing" textLength="129.1787" x="1133.3691" y="907.2822">CompletionPublisher</text></g><g class="participant participant-head" data-participant="CompletionQueue"><path d="M1284.5479,5 L1478.2021,5 C1483.2021,5 1483.2021,34.1479 1483.2021,34.1479 C1483.2021,34.1479 1483.2021,63.2959 1478.2021,63.2959 L1284.5479,63.2959 C1279.5479,63.2959 1279.5479,34.1479 1279.5479,34.1479 C1279.5479,34.1479 1279.5479,5 1284.5479,5" fill="#E2E2F0" style="stroke:#181818;stroke-width:0.5;"/><path d="M1478.2021,5 C1473.2021,5 1473.2021,34.1479 1473.2021,34.1479 C1473.2021,63.2959 1478.2021,63.2959 1478.2021,63.2959" fill="none" style="stroke:#181818;stroke-width:0.5;"/><text fill="#000000" font-family="Arial" font-size="14" lengthAdjust="spacing" textLength="105.8408" x="1323.4546" y="23.1318">RabbitMQ queue</text><text fill="#000000" font-family="Arial" font-size="14" lengthAdjust="spacing" textLength="153.3096" x="1299.7202" y="39.2305">ingest_task_completions</text><text fill="#000000" font-family="Arial" font-size="14" lengthAdjust="spacing" textLength="183.6543" x="1284.5479" y="55.3291">or ingest_dryrun_completions</text></g><g class="participant participant-tail" data-participant="CompletionQueue"><path d="M1284.5479,887.1504 L1478.2021,887.1504 C1483.2021,887.1504 1483.2021,916.2983 1483.2021,916.2983 C1483.2021,916.2983 1483.2021,945.4463 1478.2021,945.4463 L1284.5479,945.4463 C1279.5479,945.4463 1279.5479,916.2983 1279.5479,916.2983 C1279.5479,916.2983 1279.5479,887.1504 1284.5479,887.1504" fill="#E2E2F0" style="stroke:#181818;stroke-width:0.5;"/><path d="M1478.2021,887.1504 C1473.2021,887.1504 1473.2021,916.2983 1473.2021,916.2983 C1473.2021,945.4463 1478.2021,945.4463 1478.2021,945.4463" fill="none" style="stroke:#181818;stroke-width:0.5;"/><text fill="#000000" font-family="Arial" font-size="14" lengthAdjust="spacing" textLength="105.8408" x="1323.4546" y="905.2822">RabbitMQ queue</text><text fill="#000000" font-family="Arial" font-size="14" lengthAdjust="spacing" textLength="153.3096" x="1299.7202" y="921.3809">ingest_task_completions</text><text fill="#000000" font-family="Arial" font-size="14" lengthAdjust="spacing" textLength="183.6543" x="1284.5479" y="937.4795">or ingest_dryrun_completions</text></g><g><title>WorkerRuntime</title><rect fill="#FFFFFF" height="760.957" style="stroke:#181818;stroke-width:1;" width="10" x="269.2817" y="109.1934"/></g><g><title>Queue Handler Registry</title><rect fill="#FFFFFF" height="28.9487" style="stroke:#181818;stroke-width:1;" width="10" x="455.0288" y="195.0396"/></g><g><title>Platform Handler</title><rect fill="#FFFFFF" height="116.7437" style="stroke:#181818;stroke-width:1;" width="10" x="606.6421" y="267.8857"/></g><g><title>TinLikeSub SDK</title><rect fill="#FFFFFF" height="43.8975" style="stroke:#181818;stroke-width:1;" width="10" x="734.521" y="311.7832"/></g><g><title>StorageAdapter</title><rect fill="#FFFFFF" height="294.9824" style="stroke:#181818;stroke-width:1;" width="10" x="858.9136" y="458.4243"/></g><g><title>MinIO</title><rect fill="#FFFFFF" height="58.8462" style="stroke:#181818;stroke-width:1;" width="10" x="985.418" y="526.2705"/></g><g><title>Local output</title><rect fill="#FFFFFF" height="43.8975" style="stroke:#181818;stroke-width:1;" width="10" x="1066.228" y="643.6631"/></g><g><title>CompletionPublisher</title><rect fill="#FFFFFF" height="72.8462" style="stroke:#181818;stroke-width:1;" width="10" x="1192.9585" y="797.3042"/></g><g class="message" data-participant-1="PlatformQueue" data-participant-2="Worker"><line style="stroke:#181818;stroke-width:1;" x1="267.2817" x2="257.2817" y1="109.1934" y2="105.1934"/><line style="stroke:#181818;stroke-width:1;" x1="267.2817" x2="257.2817" y1="109.1934" y2="113.1934"/><line style="stroke:#181818;stroke-width:1;" x1="106.8306" x2="268.2817" y1="109.1934" y2="109.1934"/><text fill="#000000" font-family="Arial" font-size="13" lengthAdjust="spacing" textLength="38.2954" x="155.1816" y="89.4897">deliver</text><text fill="#000000" font-family="Arial" font-size="13" lengthAdjust="spacing" textLength="3.6118" x="193.4771" y="89.4897">&#160;</text><text fill="#000000" font-family="Arial" font-size="13" lengthAdjust="spacing" textLength="23.8418" x="197.0889" y="89.4897">task</text><text fill="#000000" font-family="Arial" font-size="13" lengthAdjust="spacing" textLength="52.7681" x="161.6721" y="104.4385">envelope</text></g><g class="message" data-participant-1="Worker" data-participant-2="Worker"><line style="stroke:#181818;stroke-width:1;" x1="279.2817" x2="321.2817" y1="138.1421" y2="138.1421"/><line style="stroke:#181818;stroke-width:1;" x1="321.2817" x2="321.2817" y1="138.1421" y2="151.1421"/><line style="stroke:#181818;stroke-width:1;" x1="280.2817" x2="321.2817" y1="151.1421" y2="151.1421"/><polygon fill="#181818" points="290.2817,147.1421,280.2817,151.1421,290.2817,155.1421,286.2817,151.1421" style="stroke:#181818;stroke-width:1;"/><text fill="#000000" font-family="Arial" font-size="13" lengthAdjust="spacing" textLength="151.7471" x="286.2817" y="133.3872">json.loads(message.body)</text></g><g class="message" data-participant-1="Worker" data-participant-2="Registry"><polygon fill="#181818" points="443.0288,191.0396,453.0288,195.0396,443.0288,199.0396,447.0288,195.0396" style="stroke:#181818;stroke-width:1;"/><line style="stroke:#181818;stroke-width:1;" x1="279.2817" x2="449.0288" y1="195.0396" y2="195.0396"/><text fill="#000000" font-family="Arial" font-size="13" lengthAdjust="spacing" textLength="125.7471" x="304.2817" y="175.3359">resolve(queue_name,</text><text fill="#000000" font-family="Arial" font-size="13" lengthAdjust="spacing" textLength="39.019" x="347.6458" y="190.2847">action)</text></g><g class="message" data-participant-1="Registry" data-participant-2="Worker"><polygon fill="#181818" points="290.2817,219.9883,280.2817,223.9883,290.2817,227.9883,286.2817,223.9883" style="stroke:#181818;stroke-width:1;"/><line style="stroke:#181818;stroke-width:1;stroke-dasharray:2,2;" x1="284.2817" x2="459.0288" y1="223.9883" y2="223.9883"/><text fill="#000000" font-family="Arial" font-size="13" lengthAdjust="spacing" textLength="43.3672" x="347.9717" y="219.2334">handler</text></g><g class="message" data-participant-1="Worker" data-participant-2="Handler"><polygon fill="#181818" points="594.6421,263.8857,604.6421,267.8857,594.6421,271.8857,598.6421,267.8857" style="stroke:#181818;stroke-width:1;"/><line style="stroke:#181818;stroke-width:1;" x1="279.2817" x2="600.6421" y1="267.8857" y2="267.8857"/><text fill="#000000" font-family="Arial" font-size="13" lengthAdjust="spacing" textLength="83.8208" x="401.0515" y="248.1821">execute(client,</text><text fill="#000000" font-family="Arial" font-size="13" lengthAdjust="spacing" textLength="47.6772" x="419.1233" y="263.1309">params)</text></g><g class="message" data-participant-1="Handler" data-participant-2="SDK"><polygon fill="#181818" points="722.521,307.7832,732.521,311.7832,722.521,315.7832,726.521,311.7832" style="stroke:#181818;stroke-width:1;"/><line style="stroke:#181818;stroke-width:1;" x1="616.6421" x2="728.521" y1="311.7832" y2="311.7832"/><text fill="#000000" font-family="Arial" font-size="13" lengthAdjust="spacing" textLength="30.3354" x="641.2629" y="292.0796">crawl</text><text fill="#000000" font-family="Arial" font-size="13" lengthAdjust="spacing" textLength="3.6118" x="671.5984" y="292.0796">&#160;</text><text fill="#000000" font-family="Arial" font-size="13" lengthAdjust="spacing" textLength="34.6899" x="675.2102" y="292.0796">action</text><text fill="#000000" font-family="Arial" font-size="13" lengthAdjust="spacing" textLength="11.5591" x="644.5129" y="307.0283">or</text><text fill="#000000" font-family="Arial" font-size="13" lengthAdjust="spacing" textLength="3.6118" x="656.072" y="307.0283">&#160;</text><text fill="#000000" font-family="Arial" font-size="13" lengthAdjust="spacing" textLength="46.9663" x="659.6838" y="307.0283">full_flow</text></g><g class="message" data-participant-1="SDK" data-participant-2="Handler"><polygon fill="#181818" points="627.6421,351.6807,617.6421,355.6807,627.6421,359.6807,623.6421,355.6807" style="stroke:#181818;stroke-width:1;"/><line style="stroke:#181818;stroke-width:1;stroke-dasharray:2,2;" x1="621.6421" x2="738.521" y1="355.6807" y2="355.6807"/><text fill="#000000" font-family="Arial" font-size="13" lengthAdjust="spacing" textLength="20.9473" x="649.9075" y="335.9771">raw</text><text fill="#000000" font-family="Arial" font-size="13" lengthAdjust="spacing" textLength="3.6118" x="670.8547" y="335.9771">&#160;</text><text fill="#000000" font-family="Arial" font-size="13" lengthAdjust="spacing" textLength="31.7891" x="674.4666" y="335.9771">result</text><text fill="#000000" font-family="Arial" font-size="13" lengthAdjust="spacing" textLength="39.0381" x="658.5625" y="350.9258">bundle</text></g><g class="message" data-participant-1="Handler" data-participant-2="Worker"><polygon fill="#181818" points="290.2817,380.6294,280.2817,384.6294,290.2817,388.6294,286.2817,384.6294" style="stroke:#181818;stroke-width:1;"/><line style="stroke:#181818;stroke-width:1;stroke-dasharray:2,2;" x1="284.2817" x2="610.6421" y1="384.6294" y2="384.6294"/><text fill="#000000" font-family="Arial" font-size="13" lengthAdjust="spacing" textLength="65.019" x="412.9524" y="379.8745">TaskResult</text></g><g class="message" data-participant-1="Worker" data-participant-2="Storage"><polygon fill="#181818" points="846.9136,454.4243,856.9136,458.4243,846.9136,462.4243,850.9136,458.4243" style="stroke:#181818;stroke-width:1;"/><line style="stroke:#181818;stroke-width:1;" x1="279.2817" x2="852.9136" y1="458.4243" y2="458.4243"/><text fill="#000000" font-family="Arial" font-size="13" lengthAdjust="spacing" textLength="148.1416" x="495.0269" y="408.8232">save_result_data(task_id,</text><text fill="#000000" font-family="Arial" font-size="13" lengthAdjust="spacing" textLength="50.5718" x="543.8118" y="423.772">platform,</text><text fill="#000000" font-family="Arial" font-size="13" lengthAdjust="spacing" textLength="38.3018" x="549.9468" y="438.7207">action,</text><text fill="#000000" font-family="Arial" font-size="13" lengthAdjust="spacing" textLength="36.1182" x="551.0386" y="453.6694">result)</text></g><path d="M803.8794,473.4243 L858.0503,473.4243 L858.0503,480.373 L848.0503,490.373 L797.8794,490.373 L797.8794,479.4243 A6,6 0 0 1 803.8794,473.4243" fill="#EEEEEE" style="stroke:#000000;stroke-width:1.5;"/><rect fill="none" height="222.1362" rx="6" ry="6" style="stroke:#000000;stroke-width:1.5;" width="328.4897" x="797.8794" y="473.4243"/><text fill="#000000" font-family="Arial" font-size="13" font-weight="bold" lengthAdjust="spacing" textLength="15.1709" x="812.8794" y="486.6182">alt</text><text fill="#000000" font-family="Arial" font-size="11" font-weight="bold" lengthAdjust="spacing" textLength="97.1523" x="873.0503" y="485.7422">[production mode]</text><g class="message" data-participant-1="Storage" data-participant-2="MinIO"><polygon fill="#181818" points="973.418,522.2705,983.418,526.2705,973.418,530.2705,977.418,526.2705" style="stroke:#181818;stroke-width:1;"/><line style="stroke:#181818;stroke-width:1;" x1="868.9136" x2="979.418" y1="526.2705" y2="526.2705"/><text fill="#000000" font-family="Arial" font-size="13" lengthAdjust="spacing" textLength="39.0381" x="895.3672" y="506.5669">upload</text><text fill="#000000" font-family="Arial" font-size="13" lengthAdjust="spacing" textLength="3.6118" x="934.4053" y="506.5669">&#160;</text><text fill="#000000" font-family="Arial" font-size="13" lengthAdjust="spacing" textLength="20.9473" x="938.0171" y="506.5669">raw</text><text fill="#000000" font-family="Arial" font-size="13" lengthAdjust="spacing" textLength="39.0127" x="907.6594" y="521.5156">artifact</text></g><g class="message" data-participant-1="MinIO" data-participant-2="Storage"><polygon fill="#181818" points="879.9136,581.1167,869.9136,585.1167,879.9136,589.1167,875.9136,585.1167" style="stroke:#181818;stroke-width:1;"/><line style="stroke:#181818;stroke-width:1;stroke-dasharray:2,2;" x1="873.9136" x2="989.418" y1="585.1167" y2="585.1167"/><text fill="#000000" font-family="Arial" font-size="13" lengthAdjust="spacing" textLength="92.5044" x="883.4136" y="550.4644">storage_bucket,</text><text fill="#000000" font-family="Arial" font-size="13" lengthAdjust="spacing" textLength="79.5044" x="889.9136" y="565.4131">storage_path,</text><text fill="#000000" font-family="Arial" font-size="13" lengthAdjust="spacing" textLength="58.519" x="900.4063" y="580.3618">checksum</text></g><line style="stroke:#000000;stroke-width:1;stroke-dasharray:2,2;" x1="797.8794" x2="1126.3691" y1="594.1167" y2="594.1167"/><text fill="#000000" font-family="Arial" font-size="11" font-weight="bold" lengthAdjust="spacing" textLength="107.5669" x="802.8794" y="604.4346">[development mode]</text><g class="message" data-participant-1="Storage" data-participant-2="LocalOutput"><polygon fill="#181818" points="1054.228,639.6631,1064.228,643.6631,1054.228,647.6631,1058.228,643.6631" style="stroke:#181818;stroke-width:1;"/><line style="stroke:#181818;stroke-width:1;" x1="868.9136" x2="1060.228" y1="643.6631" y2="643.6631"/><text fill="#000000" font-family="Arial" font-size="13" lengthAdjust="spacing" textLength="27.4473" x="934.7058" y="623.9595">write</text><text fill="#000000" font-family="Arial" font-size="13" lengthAdjust="spacing" textLength="3.6118" x="962.1531" y="623.9595">&#160;</text><text fill="#000000" font-family="Arial" font-size="13" lengthAdjust="spacing" textLength="34.6709" x="965.7649" y="623.9595">JSON</text><text fill="#000000" font-family="Arial" font-size="13" lengthAdjust="spacing" textLength="39.0127" x="948.0645" y="638.9082">artifact</text></g><g class="message" data-participant-1="LocalOutput" data-participant-2="Storage"><polygon fill="#181818" points="879.9136,683.5605,869.9136,687.5605,879.9136,691.5605,875.9136,687.5605" style="stroke:#181818;stroke-width:1;"/><line style="stroke:#181818;stroke-width:1;stroke-dasharray:2,2;" x1="873.9136" x2="1070.228" y1="687.5605" y2="687.5605"/><text fill="#000000" font-family="Arial" font-size="13" lengthAdjust="spacing" textLength="26.7363" x="942.2458" y="667.8569">local</text><text fill="#000000" font-family="Arial" font-size="13" lengthAdjust="spacing" textLength="3.6118" x="968.9822" y="667.8569">&#160;</text><text fill="#000000" font-family="Arial" font-size="13" lengthAdjust="spacing" textLength="25.3018" x="972.594" y="667.8569">path</text><text fill="#000000" font-family="Arial" font-size="13" lengthAdjust="spacing" textLength="54.2026" x="942.9695" y="682.8057">metadata</text></g><g class="message" data-participant-1="Storage" data-participant-2="Worker"><polygon fill="#181818" points="290.2817,749.4067,280.2817,753.4067,290.2817,757.4067,286.2817,753.4067" style="stroke:#181818;stroke-width:1;"/><line style="stroke:#181818;stroke-width:1;stroke-dasharray:2,2;" x1="284.2817" x2="862.9136" y1="753.4067" y2="753.4067"/><text fill="#000000" font-family="Arial" font-size="13" lengthAdjust="spacing" textLength="43.3608" x="549.9172" y="718.7544">storage</text><text fill="#000000" font-family="Arial" font-size="13" lengthAdjust="spacing" textLength="54.2026" x="538.8945" y="733.7031">metadata</text><text fill="#000000" font-family="Arial" font-size="13" lengthAdjust="spacing" textLength="3.6118" x="593.0972" y="733.7031">&#160;</text><text fill="#000000" font-family="Arial" font-size="13" lengthAdjust="spacing" textLength="7.5918" x="596.709" y="733.7031">+</text><text fill="#000000" font-family="Arial" font-size="13" lengthAdjust="spacing" textLength="49.1499" x="547.0227" y="748.6519">batch_id</text></g><g class="message" data-participant-1="Worker" data-participant-2="Publisher"><polygon fill="#181818" points="1180.9585,793.3042,1190.9585,797.3042,1180.9585,801.3042,1184.9585,797.3042" style="stroke:#181818;stroke-width:1;"/><line style="stroke:#181818;stroke-width:1;" x1="279.2817" x2="1186.9585" y1="797.3042" y2="797.3042"/><text fill="#000000" font-family="Arial" font-size="13" lengthAdjust="spacing" textLength="178.4897" x="646.8752" y="777.6006">publish_completion(completion</text><text fill="#000000" font-family="Arial" font-size="13" lengthAdjust="spacing" textLength="57.0972" x="707.5715" y="792.5493">envelope)</text></g><g class="message" data-participant-1="Publisher" data-participant-2="CompletionQueue"><line style="stroke:#181818;stroke-width:1;" x1="1379.375" x2="1369.375" y1="826.2529" y2="822.2529"/><line style="stroke:#181818;stroke-width:1;" x1="1379.375" x2="1369.375" y1="826.2529" y2="830.2529"/><line style="stroke:#181818;stroke-width:1;" x1="1202.9585" x2="1380.375" y1="826.2529" y2="826.2529"/><text fill="#000000" font-family="Arial" font-size="13" lengthAdjust="spacing" textLength="119.9644" x="1232.1846" y="821.498">CompletionEnvelope</text></g><g class="message" data-participant-1="Publisher" data-participant-2="Worker"><polygon fill="#181818" points="285.2817,866.1504,275.2817,870.1504,285.2817,874.1504,281.2817,870.1504" style="stroke:#181818;stroke-width:1;"/><line style="stroke:#181818;stroke-width:1;stroke-dasharray:2,2;" x1="279.2817" x2="1196.9585" y1="870.1504" y2="870.1504"/><text fill="#000000" font-family="Arial" font-size="13" lengthAdjust="spacing" textLength="41.1963" x="715.522" y="850.4468">publish</text><text fill="#000000" font-family="Arial" font-size="13" lengthAdjust="spacing" textLength="52.7617" x="709.7393" y="865.3955">accepted</text></g><!--SRC=[TLJ9Rjim4BthAmOvEQYTBfS2EGH8DtJ9QWVe9O11KMER5KMgNEmuNzyXHKbKcvv4aU_Dc-6ReQs5QfbX3LIuOLwwBrgv6zOWN1h1P667SxjZbJu8jOKDanRp4_pjKN6yHclP5Y-bs2hWg1oQ36NGjbhP7lK1fJvS6gCFu8pFmpNiAM5MuXdX_PiyYFQgujeeDF3sNL6Gi4SuMRAo5Exw7kB_etAYThf-lM4SIqsBe_REbmYEsTgU0BDm9vdRQDFS1q91mPtWecNAmSbFRMeqIqzH6epWRcUAYaJuobGbAPSbReLrvXZX_S-Kq2lsd0XDwodoGQWhKUFAbx3wz2FYw3l5h9msuQuhrheKAsrDSTT2VRkDnt4rFRpId4cWksczYvYuSHl_fyYFkcabEg7LdI-biBkaEVpzpmdg5xHk7Iv-pOSWzb5f0-ciCaVZLNuQGu-IdKV5n39ON5maN-2SUbUAFQs23A3QKs-rM33kn9uvxFrBy4L6_6MrEfEQLNRMT3rtLkhgU9fXUpS9JIsivHvdiRQreYcPGn3HwdGK6zmVY8jSSPSSh_1VnYZQzzKvu1Doxt36fQ29caES0vlfzItKKuXDtK9CRjX1flo0hdlZfLnlQEf6RcYh05vC98aNIgN704eVDlDa0sMGoWjxeBjVHbOExxFBQajzIXJBzhZkbDOLSsmMsqHKL6Nokh_VUKeegxjlTqPfjaPNlYkqqHKMC8YGNcnyKlDjC3fM5rgR7WT7m25UDn-Gu8jfejrgNNfU8vdG_xVCxUR0TyXhwniYPvLtyP2UIjgD7TcGWI_abmqTIHsC8FBtrUtDYrdc4meJwZHZ6KSxv0SDEXPkTvfU7WXLLGm9vPwcEeSGy0fAvlYEF9hqHB8YCtbu62XAswsp2P-Dos5SCsl7LsKC4-RzhoU1Geyxd_kfpoXvAIa9kacEz6HEyX_riisE-GS0]--></g></svg>