<svg xmlns="http://www.w3.org/2000/svg" xmlns:xlink="http://www.w3.org/1999/xlink" contentStyleType="text/css" data-diagram-type="SEQUENCE" height="1329px" preserveAspectRatio="none" style="width:971px;height:1329px;background:#FFFFFF;" version="1.1" viewBox="0 0 971 1329" width="971px" zoomAndPan="magnify"><defs/><g><g><title>Ingest Service</title><rect fill="#FFFFFF" height="176.5386" style="stroke:#181818;stroke-width:1;" width="10" x="51.355" y="364.4795"/></g><g><title>Ingest Service</title><rect fill="#FFFFFF" height="58.8462" style="stroke:#181818;stroke-width:1;" width="10" x="51.355" y="1114.48"/></g><g><title>Scapper Worker</title><rect fill="#FFFFFF" height="206.436" style="stroke:#181818;stroke-width:1;" width="10" x="263.3027" y="158.0435"/></g><g><title>MinIO</title><rect fill="#FFFFFF" height="43.8975" style="stroke:#181818;stroke-width:1;" width="10" x="368.106" y="216.8896"/></g><g><title>MinIO</title><rect fill="#FFFFFF" height="43.8975" style="stroke:#181818;stroke-width:1;" width="10" x="368.106" y="423.3257"/></g><g><title>Analysis Service</title><rect fill="#FFFFFF" height="617.3594" style="stroke:#181818;stroke-width:1;" width="10" x="592.4053" y="599.8643"/></g><g><title>PostgreSQL</title><rect fill="#FFFFFF" height="28.9487" style="stroke:#181818;stroke-width:1;" width="10" x="701.8877" y="775.4028"/></g><g><title>Project Service</title><rect fill="#FFFFFF" height="176.5386" style="stroke:#181818;stroke-width:1;" width="10" x="807.0908" y="1040.6851"/></g><g><title>Crisis Stage</title><rect fill="#FFFFFF" height="103.6924" style="stroke:#181818;stroke-width:1;" width="10" x="915.8975" y="863.1978"/></g><g><title>Ingest Service</title><rect fill="#000000" fill-opacity="0.00000" height="1152.0264" width="8" x="52.355" y="83.1973"/><line style="stroke:#181818;stroke-width:0.5;stroke-dasharray:5,5;" x1="56" x2="56" y1="83.1973" y2="1235.2236"/></g><g><title>RabbitMQ</title><rect fill="#000000" fill-opacity="0.00000" height="1152.0264" width="8" x="155.2202" y="83.1973"/><line style="stroke:#181818;stroke-width:0.5;stroke-dasharray:5,5;" x1="158.71" x2="158.71" y1="83.1973" y2="1235.2236"/></g><g><title>Scapper Worker</title><rect fill="#000000" fill-opacity="0.00000" height="1152.0264" width="8" x="264.3027" y="83.1973"/><line style="stroke:#181818;stroke-width:0.5;stroke-dasharray:5,5;" x1="267.7305" x2="267.7305" y1="83.1973" y2="1235.2236"/></g><g><title>MinIO</title><rect fill="#000000" fill-opacity="0.00000" height="1152.0264" width="8" x="369.106" y="83.1973"/><line style="stroke:#181818;stroke-width:0.5;stroke-dasharray:5,5;" x1="372.875" x2="372.875" y1="83.1973" y2="1235.2236"/></g><g><title>Kafka</title><rect fill="#000000" fill-opacity="0.00000" height="1152.0264" width="8" x="470.6953" y="83.1973"/><line style="stroke:#181818;stroke-width:0.5;stroke-dasharray:5,5;" x1="474.3369" x2="474.3369" y1="83.1973" y2="1235.2236"/></g><g><title>Analysis Service</title><rect fill="#000000" fill-opacity="0.00000" height="1152.0264" width="8" x="593.4053" y="83.1973"/><line style="stroke:#181818;stroke-width:0.5;stroke-dasharray:5,5;" x1="597.0537" x2="597.0537" y1="83.1973" y2="1235.2236"/></g><g><title>PostgreSQL</title><rect fill="#000000" fill-opacity="0.00000" height="1152.0264" width="8" x="702.8877" y="83.1973"/><line style="stroke:#181818;stroke-width:0.5;stroke-dasharray:5,5;" x1="706.7568" x2="706.7568" y1="83.1973" y2="1235.2236"/></g><g><title>Project Service</title><rect fill="#000000" fill-opacity="0.00000" height="1152.0264" width="8" x="808.0908" y="83.1973"/><line style="stroke:#181818;stroke-width:0.5;stroke-dasharray:5,5;" x1="812.0186" x2="812.0186" y1="83.1973" y2="1235.2236"/></g><g><title>Crisis Stage</title><rect fill="#000000" fill-opacity="0.00000" height="1152.0264" width="8" x="916.8975" y="83.1973"/><line style="stroke:#181818;stroke-width:0.5;stroke-dasharray:5,5;" x1="920.1631" x2="920.1631" y1="83.1973" y2="1235.2236"/></g><g class="participant participant-head" data-participant="IngestService"><rect fill="#E2E2F0" height="30.0986" rx="6" ry="6" style="stroke:#181818;stroke-width:0.5;" width="102.71" x="5" y="52.0986"/><text fill="#000000" font-family="Arial" font-size="14" lengthAdjust="spacing" textLength="88.71" x="12" y="72.2305">Ingest Service</text></g><g class="participant participant-tail" data-participant="IngestService"><rect fill="#E2E2F0" height="30.0986" rx="6" ry="6" style="stroke:#181818;stroke-width:0.5;" width="102.71" x="5" y="1234.2236"/><text fill="#000000" font-family="Arial" font-size="14" lengthAdjust="spacing" textLength="88.71" x="12" y="1254.3555">Ingest Service</text></g><g class="participant participant-head" data-participant="RabbitMQ"><path d="M122.71,41 L195.7305,41 C200.7305,41 200.7305,62.0986 200.7305,62.0986 C200.7305,62.0986 200.7305,83.1973 195.7305,83.1973 L122.71,83.1973 C117.71,83.1973 117.71,62.0986 117.71,62.0986 C117.71,62.0986 117.71,41 122.71,41" fill="#E2E2F0" style="stroke:#181818;stroke-width:0.5;"/><path d="M195.7305,41 C190.7305,41 190.7305,62.0986 190.7305,62.0986 C190.7305,83.1973 195.7305,83.1973 195.7305,83.1973" fill="none" style="stroke:#181818;stroke-width:0.5;"/><text fill="#000000" font-family="Arial" font-size="14" lengthAdjust="spacing" textLength="63.0205" x="122.71" y="59.1318">RabbitMQ</text><text fill="#000000" font-family="Arial" font-size="14" lengthAdjust="spacing" textLength="62.2344" x="123.103" y="75.2305">crawl task</text></g><g class="participant participant-tail" data-participant="RabbitMQ"><path d="M122.71,1234.2236 L195.7305,1234.2236 C200.7305,1234.2236 200.7305,1255.3223 200.7305,1255.3223 C200.7305,1255.3223 200.7305,1276.4209 195.7305,1276.4209 L122.71,1276.4209 C117.71,1276.4209 117.71,1255.3223 117.71,1255.3223 C117.71,1255.3223 117.71,1234.2236 122.71,1234.2236" fill="#E2E2F0" style="stroke:#181818;stroke-width:0.5;"/><path d="M195.7305,1234.2236 C190.7305,1234.2236 190.7305,1255.3223 190.7305,1255.3223 C190.7305,1276.4209 195.7305,1276.4209 195.7305,1276.4209" fill="none" style="stroke:#181818;stroke-width:0.5;"/><text fill="#000000" font-family="Arial" font-size="14" lengthAdjust="spacing" textLength="63.0205" x="122.71" y="1252.3555">RabbitMQ</text><text fill="#000000" font-family="Arial" font-size="14" lengthAdjust="spacing" textLength="62.2344" x="123.103" y="1268.4541">crawl task</text></g><g class="participant participant-head" data-participant="ScapperWorker"><rect fill="#E2E2F0" height="30.0986" rx="6" ry="6" style="stroke:#181818;stroke-width:0.5;" width="115.1445" x="210.7305" y="52.0986"/><text fill="#000000" font-family="Arial" font-size="14" lengthAdjust="spacing" textLength="101.1445" x="217.7305" y="72.2305">Scapper Worker</text></g><g class="participant participant-tail" data-participant="ScapperWorker"><rect fill="#E2E2F0" height="30.0986" rx="6" ry="6" style="stroke:#181818;stroke-width:0.5;" width="115.1445" x="210.7305" y="1234.2236"/><text fill="#000000" font-family="Arial" font-size="14" lengthAdjust="spacing" textLength="101.1445" x="217.7305" y="1254.3555">Scapper Worker</text></g><g class="participant participant-head" data-participant="MinIO"><text fill="#000000" font-family="Arial" font-size="14" lengthAdjust="spacing" textLength="37.3379" x="351.437" y="64.1318">MinIO</text><text fill="#000000" font-family="Arial" font-size="14" lengthAdjust="spacing" textLength="68.4619" x="335.875" y="80.2305">raw artifact</text><path d="M355.106,15 C355.106,5 373.106,5 373.106,5 C373.106,5 391.106,5 391.106,15 L391.106,41 C391.106,51 373.106,51 373.106,51 C373.106,51 355.106,51 355.106,41 L355.106,15" fill="#E2E2F0" style="stroke:#181818;stroke-width:0.5;"/><path d="M355.106,15 C355.106,25 373.106,25 373.106,25 C373.106,25 391.106,25 391.106,15" fill="none" style="stroke:#181818;stroke-width:0.5;"/></g><g class="participant participant-tail" data-participant="MinIO"><text fill="#000000" font-family="Arial" font-size="14" lengthAdjust="spacing" textLength="37.3379" x="351.437" y="1247.3555">MinIO</text><text fill="#000000" font-family="Arial" font-size="14" lengthAdjust="spacing" textLength="68.4619" x="335.875" y="1263.4541">raw artifact</text><path d="M355.106,1276.4209 C355.106,1266.4209 373.106,1266.4209 373.106,1266.4209 C373.106,1266.4209 391.106,1266.4209 391.106,1276.4209 L391.106,1302.4209 C391.106,1312.4209 373.106,1312.4209 373.106,1312.4209 C373.106,1312.4209 355.106,1312.4209 355.106,1302.4209 L355.106,1276.4209" fill="#E2E2F0" style="stroke:#181818;stroke-width:0.5;"/><path d="M355.106,1276.4209 C355.106,1286.4209 373.106,1286.4209 373.106,1286.4209 C373.106,1286.4209 391.106,1286.4209 391.106,1276.4209" fill="none" style="stroke:#181818;stroke-width:0.5;"/></g><g class="participant participant-head" data-participant="AnalyticsInput"><path d="M425.3369,41 L524.0537,41 C529.0537,41 529.0537,62.0986 529.0537,62.0986 C529.0537,62.0986 529.0537,83.1973 524.0537,83.1973 L425.3369,83.1973 C420.3369,83.1973 420.3369,62.0986 420.3369,62.0986 C420.3369,62.0986 420.3369,41 425.3369,41" fill="#E2E2F0" style="stroke:#181818;stroke-width:0.5;"/><path d="M524.0537,41 C519.0537,41 519.0537,62.0986 519.0537,62.0986 C519.0537,83.1973 524.0537,83.1973 524.0537,83.1973" fill="none" style="stroke:#181818;stroke-width:0.5;"/><text fill="#000000" font-family="Arial" font-size="14" lengthAdjust="spacing" textLength="35.7998" x="451.7954" y="59.1318">Kafka</text><text fill="#000000" font-family="Arial" font-size="14" lengthAdjust="spacing" textLength="88.7168" x="425.3369" y="75.2305">analytics input</text></g><g class="participant participant-tail" data-participant="AnalyticsInput"><path d="M425.3369,1234.2236 L524.0537,1234.2236 C529.0537,1234.2236 529.0537,1255.3223 529.0537,1255.3223 C529.0537,1255.3223 529.0537,1276.4209 524.0537,1276.4209 L425.3369,1276.4209 C420.3369,1276.4209 420.3369,1255.3223 420.3369,1255.3223 C420.3369,1255.3223 420.3369,1234.2236 425.3369,1234.2236" fill="#E2E2F0" style="stroke:#181818;stroke-width:0.5;"/><path d="M524.0537,1234.2236 C519.0537,1234.2236 519.0537,1255.3223 519.0537,1255.3223 C519.0537,1276.4209 524.0537,1276.4209 524.0537,1276.4209" fill="none" style="stroke:#181818;stroke-width:0.5;"/><text fill="#000000" font-family="Arial" font-size="14" lengthAdjust="spacing" textLength="35.7998" x="451.7954" y="1252.3555">Kafka</text><text fill="#000000" font-family="Arial" font-size="14" lengthAdjust="spacing" textLength="88.7168" x="425.3369" y="1268.4541">analytics input</text></g><g class="participant participant-head" data-participant="AnalysisService"><rect fill="#E2E2F0" height="30.0986" rx="6" ry="6" style="stroke:#181818;stroke-width:0.5;" width="116.7031" x="539.0537" y="52.0986"/><text fill="#000000" font-family="Arial" font-size="14" lengthAdjust="spacing" textLength="102.7031" x="546.0537" y="72.2305">Analysis Service</text></g><g class="participant participant-tail" data-participant="AnalysisService"><rect fill="#E2E2F0" height="30.0986" rx="6" ry="6" style="stroke:#181818;stroke-width:0.5;" width="116.7031" x="539.0537" y="1234.2236"/><text fill="#000000" font-family="Arial" font-size="14" lengthAdjust="spacing" textLength="102.7031" x="546.0537" y="1254.3555">Analysis Service</text></g><g class="participant participant-head" data-participant="PostInsight"><text fill="#000000" font-family="Arial" font-size="14" lengthAdjust="spacing" textLength="76.2617" x="665.7568" y="64.1318">PostgreSQL</text><text fill="#000000" font-family="Arial" font-size="14" lengthAdjust="spacing" textLength="74.7168" x="666.5293" y="80.2305">post_insight</text><path d="M688.8877,15 C688.8877,5 706.8877,5 706.8877,5 C706.8877,5 724.8877,5 724.8877,15 L724.8877,41 C724.8877,51 706.8877,51 706.8877,51 C706.8877,51 688.8877,51 688.8877,41 L688.8877,15" fill="#E2E2F0" style="stroke:#181818;stroke-width:0.5;"/><path d="M688.8877,15 C688.8877,25 706.8877,25 706.8877,25 C706.8877,25 724.8877,25 724.8877,15" fill="none" style="stroke:#181818;stroke-width:0.5;"/></g><g class="participant participant-tail" data-participant="PostInsight"><text fill="#000000" font-family="Arial" font-size="14" lengthAdjust="spacing" textLength="76.2617" x="665.7568" y="1247.3555">PostgreSQL</text><text fill="#000000" font-family="Arial" font-size="14" lengthAdjust="spacing" textLength="74.7168" x="666.5293" y="1263.4541">post_insight</text><path d="M688.8877,1276.4209 C688.8877,1266.4209 706.8877,1266.4209 706.8877,1266.4209 C706.8877,1266.4209 724.8877,1266.4209 724.8877,1276.4209 L724.8877,1302.4209 C724.8877,1312.4209 706.8877,1312.4209 706.8877,1312.4209 C706.8877,1312.4209 688.8877,1312.4209 688.8877,1302.4209 L688.8877,1276.4209" fill="#E2E2F0" style="stroke:#181818;stroke-width:0.5;"/><path d="M688.8877,1276.4209 C688.8877,1286.4209 706.8877,1286.4209 706.8877,1286.4209 C706.8877,1286.4209 724.8877,1286.4209 724.8877,1276.4209" fill="none" style="stroke:#181818;stroke-width:0.5;"/></g><g class="participant participant-head" data-participant="ProjectService"><rect fill="#E2E2F0" height="46.1973" rx="6" ry="6" style="stroke:#181818;stroke-width:0.5;" width="108.1445" x="758.0186" y="36"/><text fill="#000000" font-family="Arial" font-size="14" lengthAdjust="spacing" textLength="94.1445" x="765.0186" y="56.1318">Project Service</text><text fill="#000000" font-family="Arial" font-size="14" lengthAdjust="spacing" textLength="84.041" x="770.0703" y="72.2305">runtime apply</text></g><g class="participant participant-tail" data-participant="ProjectService"><rect fill="#E2E2F0" height="46.1973" rx="6" ry="6" style="stroke:#181818;stroke-width:0.5;" width="108.1445" x="758.0186" y="1234.2236"/><text fill="#000000" font-family="Arial" font-size="14" lengthAdjust="spacing" textLength="94.1445" x="765.0186" y="1254.3555">Project Service</text><text fill="#000000" font-family="Arial" font-size="14" lengthAdjust="spacing" textLength="84.041" x="770.0703" y="1270.4541">runtime apply</text></g><g class="participant participant-head" data-participant="CrisisStage"><rect fill="#E2E2F0" height="30.0986" rx="6" ry="6" style="stroke:#181818;stroke-width:0.5;" width="89.4688" x="876.1631" y="52.0986"/><text fill="#000000" font-family="Arial" font-size="14" lengthAdjust="spacing" textLength="75.4688" x="883.1631" y="72.2305">Crisis Stage</text></g><g class="participant participant-tail" data-participant="CrisisStage"><rect fill="#E2E2F0" height="30.0986" rx="6" ry="6" style="stroke:#181818;stroke-width:0.5;" width="89.4688" x="876.1631" y="1234.2236"/><text fill="#000000" font-family="Arial" font-size="14" lengthAdjust="spacing" textLength="75.4688" x="883.1631" y="1254.3555">Crisis Stage</text></g><g><title>Ingest Service</title><rect fill="#FFFFFF" height="176.5386" style="stroke:#181818;stroke-width:1;" width="10" x="51.355" y="364.4795"/></g><g><title>Ingest Service</title><rect fill="#FFFFFF" height="58.8462" style="stroke:#181818;stroke-width:1;" width="10" x="51.355" y="1114.48"/></g><g><title>Scapper Worker</title><rect fill="#FFFFFF" height="206.436" style="stroke:#181818;stroke-width:1;" width="10" x="263.3027" y="158.0435"/></g><g><title>MinIO</title><rect fill="#FFFFFF" height="43.8975" style="stroke:#181818;stroke-width:1;" width="10" x="368.106" y="216.8896"/></g><g><title>MinIO</title><rect fill="#FFFFFF" height="43.8975" style="stroke:#181818;stroke-width:1;" width="10" x="368.106" y="423.3257"/></g><g><title>Analysis Service</title><rect fill="#FFFFFF" height="617.3594" style="stroke:#181818;stroke-width:1;" width="10" x="592.4053" y="599.8643"/></g><g><title>PostgreSQL</title><rect fill="#FFFFFF" height="28.9487" style="stroke:#181818;stroke-width:1;" width="10" x="701.8877" y="775.4028"/></g><g><title>Project Service</title><rect fill="#FFFFFF" height="176.5386" style="stroke:#181818;stroke-width:1;" width="10" x="807.0908" y="1040.6851"/></g><g><title>Crisis Stage</title><rect fill="#FFFFFF" height="103.6924" style="stroke:#181818;stroke-width:1;" width="10" x="915.8975" y="863.1978"/></g><g class="message" data-participant-1="IngestService" data-participant-2="RabbitMQ"><line style="stroke:#181818;stroke-width:1;" x1="157.2202" x2="147.2202" y1="129.0947" y2="125.0947"/><line style="stroke:#181818;stroke-width:1;" x1="157.2202" x2="147.2202" y1="129.0947" y2="133.0947"/><line style="stroke:#181818;stroke-width:1;" x1="56.355" x2="158.2202" y1="129.0947" y2="129.0947"/><text fill="#000000" font-family="Arial" font-size="13" lengthAdjust="spacing" textLength="48.4199" x="83.5776" y="109.3911">dispatch</text><text fill="#000000" font-family="Arial" font-size="13" lengthAdjust="spacing" textLength="30.3354" x="78.8931" y="124.3398">crawl</text><text fill="#000000" font-family="Arial" font-size="13" lengthAdjust="spacing" textLength="3.6118" x="109.2285" y="124.3398">&#160;</text><text fill="#000000" font-family="Arial" font-size="13" lengthAdjust="spacing" textLength="23.8418" x="112.8403" y="124.3398">task</text></g><g class="message" data-participant-1="RabbitMQ" data-participant-2="ScapperWorker"><line style="stroke:#181818;stroke-width:1;" x1="261.3027" x2="251.3027" y1="158.0435" y2="154.0435"/><line style="stroke:#181818;stroke-width:1;" x1="261.3027" x2="251.3027" y1="158.0435" y2="162.0435"/><line style="stroke:#181818;stroke-width:1;" x1="159.2202" x2="262.3027" y1="158.0435" y2="158.0435"/><text fill="#000000" font-family="Arial" font-size="13" lengthAdjust="spacing" textLength="38.2954" x="178.387" y="153.2886">deliver</text><text fill="#000000" font-family="Arial" font-size="13" lengthAdjust="spacing" textLength="3.6118" x="216.6824" y="153.2886">&#160;</text><text fill="#000000" font-family="Arial" font-size="13" lengthAdjust="spacing" textLength="23.8418" x="220.2942" y="153.2886">task</text></g><g class="message" data-participant-1="ScapperWorker" data-participant-2="MinIO"><polygon fill="#181818" points="356.106,212.8896,366.106,216.8896,356.106,220.8896,360.106,216.8896" style="stroke:#181818;stroke-width:1;"/><line style="stroke:#181818;stroke-width:1;" x1="273.3027" x2="362.106" y1="216.8896" y2="216.8896"/><text fill="#000000" font-family="Arial" font-size="13" lengthAdjust="spacing" textLength="27.4473" x="294.7012" y="182.2373">write</text><text fill="#000000" font-family="Arial" font-size="13" lengthAdjust="spacing" textLength="3.6118" x="322.1484" y="182.2373">&#160;</text><text fill="#000000" font-family="Arial" font-size="13" lengthAdjust="spacing" textLength="20.9473" x="325.7603" y="182.2373">raw</text><text fill="#000000" font-family="Arial" font-size="13" lengthAdjust="spacing" textLength="30.3354" x="305.5366" y="197.186">crawl</text><text fill="#000000" font-family="Arial" font-size="13" lengthAdjust="spacing" textLength="39.0127" x="301.198" y="212.1348">artifact</text></g><g class="message" data-participant-1="MinIO" data-participant-2="ScapperWorker"><polygon fill="#181818" points="284.3027,256.7871,274.3027,260.7871,284.3027,264.7871,280.3027,260.7871" style="stroke:#181818;stroke-width:1;"/><line style="stroke:#181818;stroke-width:1;stroke-dasharray:2,2;" x1="278.3027" x2="372.106" y1="260.7871" y2="260.7871"/><text fill="#000000" font-family="Arial" font-size="13" lengthAdjust="spacing" textLength="34.6899" x="305.8594" y="241.0835">object</text><text fill="#000000" font-family="Arial" font-size="13" lengthAdjust="spacing" textLength="54.2026" x="296.103" y="256.0322">metadata</text></g><g class="message" data-participant-1="ScapperWorker" data-participant-2="IngestService"><line style="stroke:#181818;stroke-width:1;" x1="62.355" x2="72.355" y1="364.4795" y2="360.4795"/><line style="stroke:#181818;stroke-width:1;" x1="62.355" x2="72.355" y1="364.4795" y2="368.4795"/><line style="stroke:#181818;stroke-width:1;" x1="61.355" x2="267.3027" y1="364.4795" y2="364.4795"/><text fill="#000000" font-family="Arial" font-size="13" lengthAdjust="spacing" textLength="62.8672" x="133.3953" y="284.981">completion</text><text fill="#000000" font-family="Arial" font-size="13" lengthAdjust="spacing" textLength="52.7681" x="138.4448" y="299.9297">envelope</text><text fill="#000000" font-family="Arial" font-size="13" lengthAdjust="spacing" textLength="46.2427" x="141.7075" y="314.8784">(bucket,</text><text fill="#000000" font-family="Arial" font-size="13" lengthAdjust="spacing" textLength="28.9136" x="150.3721" y="329.8271">path,</text><text fill="#000000" font-family="Arial" font-size="13" lengthAdjust="spacing" textLength="62.1309" x="133.7634" y="344.7759">checksum,</text><text fill="#000000" font-family="Arial" font-size="13" lengthAdjust="spacing" textLength="45.519" x="142.0693" y="359.7246">task_id)</text></g><g class="message" data-participant-1="IngestService" data-participant-2="MinIO"><polygon fill="#181818" points="356.106,419.3257,366.106,423.3257,356.106,427.3257,360.106,423.3257" style="stroke:#181818;stroke-width:1;"/><line style="stroke:#181818;stroke-width:1;" x1="61.355" x2="362.106" y1="423.3257" y2="423.3257"/><text fill="#000000" font-family="Arial" font-size="13" lengthAdjust="spacing" textLength="31.0591" x="186.55" y="388.6733">verify</text><text fill="#000000" font-family="Arial" font-size="13" lengthAdjust="spacing" textLength="3.6118" x="217.6091" y="388.6733">&#160;</text><text fill="#000000" font-family="Arial" font-size="13" lengthAdjust="spacing" textLength="21.6899" x="221.2209" y="388.6733">and</text><text fill="#000000" font-family="Arial" font-size="13" lengthAdjust="spacing" textLength="32.519" x="198.4709" y="403.6221">parse</text><text fill="#000000" font-family="Arial" font-size="13" lengthAdjust="spacing" textLength="39.0127" x="195.2241" y="418.5708">artifact</text></g><g class="message" data-participant-1="MinIO" data-participant-2="IngestService"><polygon fill="#181818" points="72.355,463.2231,62.355,467.2231,72.355,471.2231,68.355,467.2231" style="stroke:#181818;stroke-width:1;"/><line style="stroke:#181818;stroke-width:1;stroke-dasharray:2,2;" x1="66.355" x2="372.106" y1="467.2231" y2="467.2231"/><text fill="#000000" font-family="Arial" font-size="13" lengthAdjust="spacing" textLength="20.9473" x="185.4446" y="447.5195">raw</text><text fill="#000000" font-family="Arial" font-size="13" lengthAdjust="spacing" textLength="3.6118" x="206.3918" y="447.5195">&#160;</text><text fill="#000000" font-family="Arial" font-size="13" lengthAdjust="spacing" textLength="39.0127" x="210.0037" y="447.5195">artifact</text><text fill="#000000" font-family="Arial" font-size="13" lengthAdjust="spacing" textLength="31.0718" x="201.6946" y="462.4683">bytes</text></g><g class="message" data-participant-1="IngestService" data-participant-2="AnalyticsInput"><line style="stroke:#181818;stroke-width:1;" x1="472.6953" x2="462.6953" y1="541.0181" y2="537.0181"/><line style="stroke:#181818;stroke-width:1;" x1="472.6953" x2="462.6953" y1="541.0181" y2="545.0181"/><line style="stroke:#181818;stroke-width:1;" x1="56.355" x2="473.6953" y1="541.0181" y2="541.0181"/><text fill="#000000" font-family="Arial" font-size="13" lengthAdjust="spacing" textLength="41.1963" x="244.927" y="491.417">publish</text><text fill="#000000" font-family="Arial" font-size="13" lengthAdjust="spacing" textLength="63.5845" x="233.7329" y="506.3657">normalized</text><text fill="#000000" font-family="Arial" font-size="13" lengthAdjust="spacing" textLength="26.73" x="252.1602" y="521.3145">UAP</text><text fill="#000000" font-family="Arial" font-size="13" lengthAdjust="spacing" textLength="43.3481" x="243.8511" y="536.2632">records</text></g><g class="message" data-participant-1="AnalyticsInput" data-participant-2="AnalysisService"><line style="stroke:#181818;stroke-width:1;" x1="590.4053" x2="580.4053" y1="599.8643" y2="595.8643"/><line style="stroke:#181818;stroke-width:1;" x1="590.4053" x2="580.4053" y1="599.8643" y2="603.8643"/><line style="stroke:#181818;stroke-width:1;" x1="474.6953" x2="591.4053" y1="599.8643" y2="599.8643"/><text fill="#000000" font-family="Arial" font-size="13" lengthAdjust="spacing" textLength="52.749" x="507.1758" y="565.2119">consume</text><text fill="#000000" font-family="Arial" font-size="13" lengthAdjust="spacing" textLength="50.5781" x="508.2612" y="580.1606">analytics</text><text fill="#000000" font-family="Arial" font-size="13" lengthAdjust="spacing" textLength="31.8018" x="517.6494" y="595.1094">batch</text></g><g class="message" data-participant-1="AnalysisService" data-participant-2="AnalysisService"><line style="stroke:#181818;stroke-width:1;" x1="602.4053" x2="644.4053" y1="703.5566" y2="703.5566"/><line style="stroke:#181818;stroke-width:1;" x1="644.4053" x2="644.4053" y1="703.5566" y2="716.5566"/><line style="stroke:#181818;stroke-width:1;" x1="603.4053" x2="644.4053" y1="716.5566" y2="716.5566"/><polygon fill="#181818" points="613.4053,712.5566,603.4053,716.5566,613.4053,720.5566,609.4053,716.5566" style="stroke:#181818;stroke-width:1;"/><text fill="#000000" font-family="Arial" font-size="13" lengthAdjust="spacing" textLength="18.7891" x="617.7112" y="624.0581">run</text><text fill="#000000" font-family="Arial" font-size="13" lengthAdjust="spacing" textLength="3.6118" x="636.5002" y="624.0581">&#160;</text><text fill="#000000" font-family="Arial" font-size="13" lengthAdjust="spacing" textLength="25.2891" x="640.1121" y="624.0581">NLP</text><text fill="#000000" font-family="Arial" font-size="13" lengthAdjust="spacing" textLength="44.8145" x="619.1489" y="639.0068">pipeline</text><text fill="#000000" font-family="Arial" font-size="13" lengthAdjust="spacing" textLength="64.3018" x="609.4053" y="653.9556">(sentiment,</text><text fill="#000000" font-family="Arial" font-size="13" lengthAdjust="spacing" textLength="58.519" x="612.2966" y="668.9043">keywords,</text><text fill="#000000" font-family="Arial" font-size="13" lengthAdjust="spacing" textLength="20.2173" x="631.4475" y="683.853">risk</text><text fill="#000000" font-family="Arial" font-size="13" lengthAdjust="spacing" textLength="44.7954" x="619.1584" y="698.8018">signals)</text></g><g class="message" data-participant-1="AnalysisService" data-participant-2="PostInsight"><polygon fill="#181818" points="689.8877,771.4028,699.8877,775.4028,689.8877,779.4028,693.8877,775.4028" style="stroke:#181818;stroke-width:1;"/><line style="stroke:#181818;stroke-width:1;" x1="602.4053" x2="695.8877" y1="775.4028" y2="775.4028"/><text fill="#000000" font-family="Arial" font-size="13" lengthAdjust="spacing" textLength="38.2891" x="633.002" y="740.7505">persist</text><text fill="#000000" font-family="Arial" font-size="13" lengthAdjust="spacing" textLength="57.8018" x="623.2456" y="755.6992">structured</text><text fill="#000000" font-family="Arial" font-size="13" lengthAdjust="spacing" textLength="37.5781" x="633.3574" y="770.6479">insight</text></g><g class="message" data-participant-1="PostInsight" data-participant-2="AnalysisService"><polygon fill="#181818" points="613.4053,800.3516,603.4053,804.3516,613.4053,808.3516,609.4053,804.3516" style="stroke:#181818;stroke-width:1;"/><line style="stroke:#181818;stroke-width:1;stroke-dasharray:2,2;" x1="607.4053" x2="705.8877" y1="804.3516" y2="804.3516"/><text fill="#000000" font-family="Arial" font-size="13" lengthAdjust="spacing" textLength="52.749" x="628.272" y="799.5967">persisted</text></g><g class="message" data-participant-1="AnalysisService" data-participant-2="CrisisStage"><polygon fill="#181818" points="903.8975,859.1978,913.8975,863.1978,903.8975,867.1978,907.8975,863.1978" style="stroke:#181818;stroke-width:1;"/><line style="stroke:#181818;stroke-width:1;" x1="602.4053" x2="909.8975" y1="863.1978" y2="863.1978"/><text fill="#000000" font-family="Arial" font-size="13" lengthAdjust="spacing" textLength="40.46" x="738.9214" y="828.5454">assess</text><text fill="#000000" font-family="Arial" font-size="13" lengthAdjust="spacing" textLength="29.6055" x="744.3486" y="843.4941">crisis</text><text fill="#000000" font-family="Arial" font-size="13" lengthAdjust="spacing" textLength="40.4663" x="738.9182" y="858.4429">signals</text></g><g class="message" data-participant-1="CrisisStage" data-participant-2="AnalysisService"><polygon fill="#181818" points="613.4053,962.8901,603.4053,966.8901,613.4053,970.8901,609.4053,966.8901" style="stroke:#181818;stroke-width:1;"/><line style="stroke:#181818;stroke-width:1;stroke-dasharray:2,2;" x1="607.4053" x2="919.8975" y1="966.8901" y2="966.8901"/><text fill="#000000" font-family="Arial" font-size="13" lengthAdjust="spacing" textLength="29.6055" x="746.8486" y="887.3916">crisis</text><text fill="#000000" font-family="Arial" font-size="13" lengthAdjust="spacing" textLength="69.3608" x="726.9709" y="902.3403">assessment</text><text fill="#000000" font-family="Arial" font-size="13" lengthAdjust="spacing" textLength="34.6772" x="744.3127" y="917.2891">(level,</text><text fill="#000000" font-family="Arial" font-size="13" lengthAdjust="spacing" textLength="39" x="742.1514" y="932.2378">metric,</text><text fill="#000000" font-family="Arial" font-size="13" lengthAdjust="spacing" textLength="57.0908" x="733.106" y="947.1865">threshold,</text><text fill="#000000" font-family="Arial" font-size="13" lengthAdjust="spacing" textLength="49.1309" x="737.0859" y="962.1353">aspects)</text></g><g class="message" data-participant-1="AnalysisService" data-participant-2="ProjectService"><polygon fill="#181818" points="795.0908,1036.6851,805.0908,1040.6851,795.0908,1044.6851,799.0908,1040.6851" style="stroke:#181818;stroke-width:1;"/><line style="stroke:#181818;stroke-width:1;" x1="602.4053" x2="801.0908" y1="1040.6851" y2="1040.6851"/><text fill="#000000" font-family="Arial" font-size="13" lengthAdjust="spacing" textLength="78.7554" x="665.3704" y="991.084">apply-runtime</text><text fill="#000000" font-family="Arial" font-size="13" lengthAdjust="spacing" textLength="42.6245" x="683.4358" y="1006.0327">(status,</text><text fill="#000000" font-family="Arial" font-size="13" lengthAdjust="spacing" textLength="43.3608" x="683.0676" y="1020.9814">reason,</text><text fill="#000000" font-family="Arial" font-size="13" lengthAdjust="spacing" textLength="58.5317" x="675.4822" y="1035.9302">event_ref)</text></g><g class="message" data-participant-1="ProjectService" data-participant-2="IngestService"><polygon fill="#181818" points="72.355,1110.48,62.355,1114.48,72.355,1118.48,68.355,1114.48" style="stroke:#181818;stroke-width:1;"/><line style="stroke:#181818;stroke-width:1;" x1="66.355" x2="806.0908" y1="1114.48" y2="1114.48"/><text fill="#000000" font-family="Arial" font-size="13" lengthAdjust="spacing" textLength="31.0781" x="401.7102" y="1064.8789">apply</text><text fill="#000000" font-family="Arial" font-size="13" lengthAdjust="spacing" textLength="3.6118" x="432.7883" y="1064.8789">&#160;</text><text fill="#000000" font-family="Arial" font-size="13" lengthAdjust="spacing" textLength="30.3354" x="436.4001" y="1064.8789">crawl</text><text fill="#000000" font-family="Arial" font-size="13" lengthAdjust="spacing" textLength="32.519" x="417.9634" y="1079.8276">mode</text><text fill="#000000" font-family="Arial" font-size="13" lengthAdjust="spacing" textLength="15.1709" x="405.322" y="1094.7764">for</text><text fill="#000000" font-family="Arial" font-size="13" lengthAdjust="spacing" textLength="3.6118" x="420.4929" y="1094.7764">&#160;</text><text fill="#000000" font-family="Arial" font-size="13" lengthAdjust="spacing" textLength="39.019" x="424.1047" y="1094.7764">project</text><text fill="#000000" font-family="Arial" font-size="13" lengthAdjust="spacing" textLength="70.8208" x="398.8125" y="1109.7251">datasources</text></g><g class="message" data-participant-1="IngestService" data-participant-2="ProjectService"><polygon fill="#181818" points="795.0908,1169.3262,805.0908,1173.3262,795.0908,1177.3262,799.0908,1173.3262" style="stroke:#181818;stroke-width:1;"/><line style="stroke:#181818;stroke-width:1;stroke-dasharray:2,2;" x1="56.355" x2="801.0908" y1="1173.3262" y2="1173.3262"/><text fill="#000000" font-family="Arial" font-size="13" lengthAdjust="spacing" textLength="46.2554" x="408.5952" y="1138.6738">affected</text><text fill="#000000" font-family="Arial" font-size="13" lengthAdjust="spacing" textLength="64.3208" x="399.5625" y="1153.6226">datasource</text><text fill="#000000" font-family="Arial" font-size="13" lengthAdjust="spacing" textLength="31.8018" x="415.822" y="1168.5713">count</text></g><g class="message" data-participant-1="ProjectService" data-participant-2="AnalysisService"><polygon fill="#181818" points="608.4053,1213.2236,598.4053,1217.2236,608.4053,1221.2236,604.4053,1217.2236" style="stroke:#181818;stroke-width:1;"/><line style="stroke:#181818;stroke-width:1;stroke-dasharray:2,2;" x1="602.4053" x2="811.0908" y1="1217.2236" y2="1217.2236"/><text fill="#000000" font-family="Arial" font-size="13" lengthAdjust="spacing" textLength="43.3481" x="683.074" y="1197.52">runtime</text><text fill="#000000" font-family="Arial" font-size="13" lengthAdjust="spacing" textLength="31.0781" x="671.5085" y="1212.4688">apply</text><text fill="#000000" font-family="Arial" font-size="13" lengthAdjust="spacing" textLength="3.6118" x="702.5867" y="1212.4688">&#160;</text><text fill="#000000" font-family="Arial" font-size="13" lengthAdjust="spacing" textLength="31.7891" x="706.1985" y="1212.4688">result</text></g><!--SRC=[ZLPDZzCm4BtdLupsn4hj0Gu8SQXKa90gTfT2XRYij9euayOaiOFjj9HVppWVZPtD2cx9UFncvisyIMmfLOC6QyWenxPodxHo3rWJR8t4Ah7NSrjWfizI7I77ob9uGhzQKeBkoLeyqhQIHmM2b2CJU1coZLPszFf0bJvlZT5dSAODuMhyFVWSv1-2j-z24DsgJ6YZoC3hDqd2LYU5R50vkDcf8ra71p8dAUW6q49l6Ym9fzaIt7p3D9Nk_kkZ4WRF5JYqPUSz7iIm1u5Dm_5-Q5EIwHm7Ksz9CdIOecNaUwbsNnuLeu97o56uph-pZ-4_OrxYeqA5rOMZME3YsjvlEzfstXIdqPrPQQFwHkDOuPJANbjtD7JuUlUe6dv-aihAOz77yOUx_ZqEiZVw9uahXrnAgvpaQU1wgqj_jtSP8qRNFnhPPUYuUPrpR-ZUaoHg1gmtcolXy1uoQHjqee2f9ydrsFj6dFiBLCaJFtMUJBGyeQDPP-8xwqtV2BvyDfATVP_wS6Et9g2-PRt_Ulqyl4uxecfow4bFCffTdSVUnCF844BNJKLEQWMaJgo7XWb_bRQY9BS2PgDOWIX8bBQjLrsTJpAx3IF5rKx9nsC_v_tA0jCdymkWoZYQuQdvDmtp6i9HX_JYo3vduddVupbdcAPDAsaBKDhKMB7iC_Y-tVFEOArd4MHSMZ93ke9FckY8LamXbtULNEf7RQfoBgCvn7e9bQK13tTxQ6J3ewXyxonrQb7Slf8kPv_x2bW29R3M6C3UBa47QlHKaE5Z1vRNed2jOIe6wKxvXleDRwyN4nqGAGjv324MSWg4omXeBMzaraedxw6MAPrGvU75vNG6b1xJayN4LSJpl_9gCbBmh1VyjIXqbQtOhM6TsMZimtXBV4ORogVlbzTwM6M-JGvTwpj3QBLQ0GTNxibGVXjG7A-v6UQ24heWmpgfTSPnScsW6HQgtn5MjqQG_K-PBXQIv_pE4p71yN1pNIyhP9xuIwCyRNd_fUOVWMXOOZA2andMNm00]--></g></svg>