<svg xmlns="http://www.w3.org/2000/svg" xmlns:xlink="http://www.w3.org/1999/xlink" contentStyleType="text/css" data-diagram-type="SEQUENCE" height="1027px" preserveAspectRatio="none" style="width:1093px;height:1027px;background:#FFFFFF;" version="1.1" viewBox="0 0 1093 1027" width="1093px" zoomAndPan="magnify"><title>Analytics Pipeline Execution Flow</title><defs/><g><text fill="#000000" font-family="Arial" font-size="14" font-weight="bold" lengthAdjust="spacing" textLength="226.3857" x="434.9141" y="28.1318">Analytics Pipeline Execution Flow</text><g><title>PipelineUseCase</title><rect fill="#FFFFFF" height="166.6411" style="stroke:#181818;stroke-width:1;" width="10" x="215.5098" y="231.0396"/></g><g><title>run_pipeline..</title><rect fill="#FFFFFF" height="78.8462" style="stroke:#181818;stroke-width:1;" width="10" x="356.4614" y="274.937"/></g><g><title>PostInsightUseCase</title><rect fill="#FFFFFF" height="116.7437" style="stroke:#181818;stroke-width:1;" width="10" x="486.6851" y="474.5269"/></g><g><title>PostgreSQL</title><rect fill="#FFFFFF" height="28.9487" style="stroke:#181818;stroke-width:1;" width="10" x="663.1016" y="533.373"/></g><g><title>ContractPublisherUseCase</title><rect fill="#FFFFFF" height="235.436" style="stroke:#181818;stroke-width:1;" width="10" x="860.5249" y="666.1167"/></g><rect fill="none" height="503.8721" rx="6" ry="6" style="stroke:#000000;stroke-width:1.5;" width="1077.2139" x="10" y="412.6807"/><rect fill="none" height="162.6411" rx="6" ry="6" style="stroke:#000000;stroke-width:1.5;" width="754.0977" x="20" y="436.6294"/><rect fill="none" height="296.2822" rx="6" ry="6" style="stroke:#000000;stroke-width:1.5;" width="1057.2139" x="20" y="613.2705"/><rect fill="none" height="120.6411" rx="6" ry="6" style="stroke:#000000;stroke-width:1.5;" width="303.1162" x="764.0977" y="738.0142"/><g><title>ConsumerServer</title><rect fill="#000000" fill-opacity="0.00000" height="813.2568" width="8" x="85.9067" y="120.2959"/><line style="stroke:#181818;stroke-width:0.5;stroke-dasharray:5,5;" x1="89" x2="89" y1="120.2959" y2="933.5527"/></g><g><title>PipelineUseCase</title><rect fill="#000000" fill-opacity="0.00000" height="813.2568" width="8" x="216.5098" y="120.2959"/><line style="stroke:#181818;stroke-width:0.5;stroke-dasharray:5,5;" x1="219.8135" x2="219.8135" y1="120.2959" y2="933.5527"/></g><g><title>run_pipeline..</title><rect fill="#000000" fill-opacity="0.00000" height="813.2568" width="8" x="357.4614" y="120.2959"/><line style="stroke:#181818;stroke-width:0.5;stroke-dasharray:5,5;" x1="360.6582" x2="360.6582" y1="120.2959" y2="933.5527"/></g><g><title>PostInsightUseCase</title><rect fill="#000000" fill-opacity="0.00000" height="813.2568" width="8" x="487.6851" y="120.2959"/><line style="stroke:#181818;stroke-width:0.5;stroke-dasharray:5,5;" x1="491.2646" x2="491.2646" y1="120.2959" y2="933.5527"/></g><g><title>PostgreSQL</title><rect fill="#000000" fill-opacity="0.00000" height="813.2568" width="8" x="664.1016" y="120.2959"/><line style="stroke:#181818;stroke-width:0.5;stroke-dasharray:5,5;" x1="667.1055" x2="667.1055" y1="120.2959" y2="933.5527"/></g><g><title>ContractPublisherUseCase</title><rect fill="#000000" fill-opacity="0.00000" height="813.2568" width="8" x="861.5249" y="120.2959"/><line style="stroke:#181818;stroke-width:0.5;stroke-dasharray:5,5;" x1="865.0977" x2="865.0977" y1="120.2959" y2="933.5527"/></g><g><title>Kafka topics</title><rect fill="#000000" fill-opacity="0.00000" height="813.2568" width="8" x="1008.083" y="120.2959"/><line style="stroke:#181818;stroke-width:0.5;stroke-dasharray:5,5;" x1="1011.9521" x2="1011.9521" y1="120.2959" y2="933.5527"/></g><g class="participant participant-head" data-participant="Consumer"><rect fill="#E2E2F0" height="30.0986" rx="6" ry="6" style="stroke:#181818;stroke-width:0.5;" width="119.8135" x="30" y="89.1973"/><text fill="#000000" font-family="Arial" font-size="14" lengthAdjust="spacing" textLength="105.8135" x="37" y="109.3291">ConsumerServer</text></g><g class="participant participant-tail" data-participant="Consumer"><rect fill="#E2E2F0" height="30.0986" rx="6" ry="6" style="stroke:#181818;stroke-width:0.5;" width="119.8135" x="30" y="932.5527"/><text fill="#000000" font-family="Arial" font-size="14" lengthAdjust="spacing" textLength="105.8135" x="37" y="952.6846">ConsumerServer</text></g><g class="participant participant-head" data-participant="Pipeline"><rect fill="#E2E2F0" height="30.0986" rx="6" ry="6" style="stroke:#181818;stroke-width:0.5;" width="121.3926" x="159.8135" y="89.1973"/><text fill="#000000" font-family="Arial" font-size="14" lengthAdjust="spacing" textLength="107.3926" x="166.8135" y="109.3291">PipelineUseCase</text></g><g class="participant participant-tail" data-participant="Pipeline"><rect fill="#E2E2F0" height="30.0986" rx="6" ry="6" style="stroke:#181818;stroke-width:0.5;" width="121.3926" x="159.8135" y="932.5527"/><text fill="#000000" font-family="Arial" font-size="14" lengthAdjust="spacing" textLength="107.3926" x="166.8135" y="952.6846">PipelineUseCase</text></g><g class="participant participant-head" data-participant="Runner"><rect fill="#E2E2F0" height="30.0986" rx="6" ry="6" style="stroke:#181818;stroke-width:0.5;" width="99.6064" x="311.6582" y="89.1973"/><text fill="#000000" font-family="Arial" font-size="14" lengthAdjust="spacing" textLength="85.6064" x="318.6582" y="109.3291">run_pipeline()</text></g><g class="participant participant-tail" data-participant="Runner"><rect fill="#E2E2F0" height="30.0986" rx="6" ry="6" style="stroke:#181818;stroke-width:0.5;" width="99.6064" x="311.6582" y="932.5527"/><text fill="#000000" font-family="Arial" font-size="14" lengthAdjust="spacing" textLength="85.6064" x="318.6582" y="952.6846">run_pipeline()</text></g><g class="participant participant-head" data-participant="PostInsight"><rect fill="#E2E2F0" height="30.0986" rx="6" ry="6" style="stroke:#181818;stroke-width:0.5;" width="140.8408" x="421.2646" y="89.1973"/><text fill="#000000" font-family="Arial" font-size="14" lengthAdjust="spacing" textLength="126.8408" x="428.2646" y="109.3291">PostInsightUseCase</text></g><g class="participant participant-tail" data-participant="PostInsight"><rect fill="#E2E2F0" height="30.0986" rx="6" ry="6" style="stroke:#181818;stroke-width:0.5;" width="140.8408" x="421.2646" y="932.5527"/><text fill="#000000" font-family="Arial" font-size="14" lengthAdjust="spacing" textLength="126.8408" x="428.2646" y="952.6846">PostInsightUseCase</text></g><g class="participant participant-head" data-participant="PostgreSQL"><text fill="#000000" font-family="Arial" font-size="14" lengthAdjust="spacing" textLength="76.2617" x="626.9707" y="101.2305">PostgreSQL</text><text fill="#000000" font-family="Arial" font-size="14" lengthAdjust="spacing" textLength="185.9922" x="572.1055" y="117.3291">schema_analysis.post_insight</text><path d="M650.1016,52.0986 C650.1016,42.0986 668.1016,42.0986 668.1016,42.0986 C668.1016,42.0986 686.1016,42.0986 686.1016,52.0986 L686.1016,78.0986 C686.1016,88.0986 668.1016,88.0986 668.1016,88.0986 C668.1016,88.0986 650.1016,88.0986 650.1016,78.0986 L650.1016,52.0986" fill="#E2E2F0" style="stroke:#181818;stroke-width:0.5;"/><path d="M650.1016,52.0986 C650.1016,62.0986 668.1016,62.0986 668.1016,62.0986 C668.1016,62.0986 686.1016,62.0986 686.1016,52.0986" fill="none" style="stroke:#181818;stroke-width:0.5;"/></g><g class="participant participant-tail" data-participant="PostgreSQL"><text fill="#000000" font-family="Arial" font-size="14" lengthAdjust="spacing" textLength="76.2617" x="626.9707" y="945.6846">PostgreSQL</text><text fill="#000000" font-family="Arial" font-size="14" lengthAdjust="spacing" textLength="185.9922" x="572.1055" y="961.7832">schema_analysis.post_insight</text><path d="M650.1016,974.75 C650.1016,964.75 668.1016,964.75 668.1016,964.75 C668.1016,964.75 686.1016,964.75 686.1016,974.75 L686.1016,1000.75 C686.1016,1010.75 668.1016,1010.75 668.1016,1010.75 C668.1016,1010.75 650.1016,1010.75 650.1016,1000.75 L650.1016,974.75" fill="#E2E2F0" style="stroke:#181818;stroke-width:0.5;"/><path d="M650.1016,974.75 C650.1016,984.75 668.1016,984.75 668.1016,984.75 C668.1016,984.75 686.1016,984.75 686.1016,974.75" fill="none" style="stroke:#181818;stroke-width:0.5;"/></g><g class="participant participant-head" data-participant="Publisher"><rect fill="#E2E2F0" height="30.0986" rx="6" ry="6" style="stroke:#181818;stroke-width:0.5;" width="182.8545" x="774.0977" y="89.1973"/><text fill="#000000" font-family="Arial" font-size="14" lengthAdjust="spacing" textLength="168.8545" x="781.0977" y="109.3291">ContractPublisherUseCase</text></g><g class="participant participant-tail" data-participant="Publisher"><rect fill="#E2E2F0" height="30.0986" rx="6" ry="6" style="stroke:#181818;stroke-width:0.5;" width="182.8545" x="774.0977" y="932.5527"/><text fill="#000000" font-family="Arial" font-size="14" lengthAdjust="spacing" textLength="168.8545" x="781.0977" y="952.6846">ContractPublisherUseCase</text></g><g class="participant participant-head" data-participant="AnalyticsTopics"><rect fill="#E2E2F0" height="46.1973" rx="6" ry="6" style="stroke:#181818;stroke-width:0.5;" width="90.2617" x="966.9521" y="73.0986"/><text fill="#000000" font-family="Arial" font-size="14" lengthAdjust="spacing" textLength="76.2617" x="973.9521" y="93.2305">Kafka topics</text><text fill="#000000" font-family="Arial" font-size="14" lengthAdjust="spacing" textLength="63.8066" x="980.1797" y="109.3291">analytics.*</text></g><g class="participant participant-tail" data-participant="AnalyticsTopics"><rect fill="#E2E2F0" height="46.1973" rx="6" ry="6" style="stroke:#181818;stroke-width:0.5;" width="90.2617" x="966.9521" y="932.5527"/><text fill="#000000" font-family="Arial" font-size="14" lengthAdjust="spacing" textLength="76.2617" x="973.9521" y="952.6846">Kafka topics</text><text fill="#000000" font-family="Arial" font-size="14" lengthAdjust="spacing" textLength="63.8066" x="980.1797" y="968.7832">analytics.*</text></g><g><title>PipelineUseCase</title><rect fill="#FFFFFF" height="166.6411" style="stroke:#181818;stroke-width:1;" width="10" x="215.5098" y="231.0396"/></g><g><title>run_pipeline..</title><rect fill="#FFFFFF" height="78.8462" style="stroke:#181818;stroke-width:1;" width="10" x="356.4614" y="274.937"/></g><g><title>PostInsightUseCase</title><rect fill="#FFFFFF" height="116.7437" style="stroke:#181818;stroke-width:1;" width="10" x="486.6851" y="474.5269"/></g><g><title>PostgreSQL</title><rect fill="#FFFFFF" height="28.9487" style="stroke:#181818;stroke-width:1;" width="10" x="663.1016" y="533.373"/></g><g><title>ContractPublisherUseCase</title><rect fill="#FFFFFF" height="235.436" style="stroke:#181818;stroke-width:1;" width="10" x="860.5249" y="666.1167"/></g><path d="M5,141.2959 L5,168.2959 A6,6 0 0 0 11,174.2959 L299,174.2959 A6,6 0 0 0 305,168.2959 L305,145.2959 L295,135.2959 L11,135.2959 A6,6 0 0 0 5,141.2959" fill="#FEFFDD" style="stroke:#181818;stroke-width:0.5;"/><path d="M295,135.2959 L295,142.2959 A3,3 0 0 0 298,145.2959 L305,145.2959 L295,135.2959" fill="#FEFFDD" style="stroke:#181818;stroke-width:0.5;"/><text fill="#000000" font-family="Arial" font-size="13" lengthAdjust="spacing" textLength="138.7153" x="11" y="152.4897">ConsumerServer awaits</text><text fill="#000000" font-family="Arial" font-size="13" lengthAdjust="spacing" textLength="279.6587" x="11" y="167.4385">asyncio.to_thread(self.pipeline_usecase.run, ...).</text><g class="message" data-participant-1="Consumer" data-participant-2="Pipeline"><polygon fill="#181818" points="203.5098,227.0396,213.5098,231.0396,203.5098,235.0396,207.5098,231.0396" style="stroke:#181818;stroke-width:1;"/><line style="stroke:#181818;stroke-width:1;" x1="89.9067" x2="209.5098" y1="231.0396" y2="231.0396"/><text fill="#000000" font-family="Arial" font-size="13" lengthAdjust="spacing" textLength="65.7681" x="119.8242" y="196.3872">run(bundle,</text><text fill="#000000" font-family="Arial" font-size="13" lengthAdjust="spacing" textLength="20.2236" x="142.5964" y="211.3359">ctx,</text><text fill="#000000" font-family="Arial" font-size="13" lengthAdjust="spacing" textLength="91.0635" x="107.1765" y="226.2847">pipeline_config)</text></g><g class="message" data-participant-1="Pipeline" data-participant-2="Runner"><polygon fill="#181818" points="344.4614,270.937,354.4614,274.937,344.4614,278.937,348.4614,274.937" style="stroke:#181818;stroke-width:1;"/><line style="stroke:#181818;stroke-width:1;" x1="225.5098" x2="350.4614" y1="274.937" y2="274.937"/><text fill="#000000" font-family="Arial" font-size="13" lengthAdjust="spacing" textLength="110.5762" x="235.6975" y="255.2334">run_pipeline(batch,</text><text fill="#000000" font-family="Arial" font-size="13" lengthAdjust="spacing" textLength="20.2236" x="259.5583" y="270.1821">ctx,</text><text fill="#000000" font-family="Arial" font-size="13" lengthAdjust="spacing" textLength="3.6118" x="279.782" y="270.1821">&#160;</text><text fill="#000000" font-family="Arial" font-size="13" lengthAdjust="spacing" textLength="39.019" x="283.3938" y="270.1821">config)</text></g><path d="M371,293.937 L371,320.937 A6,6 0 0 0 377,326.937 L603,326.937 A6,6 0 0 0 609,320.937 L609,297.937 L599,287.937 L377,287.937 A6,6 0 0 0 371,293.937" fill="#FEFFDD" style="stroke:#181818;stroke-width:0.5;"/><path d="M599,287.937 L599,294.937 A3,3 0 0 0 602,297.937 L609,297.937 L599,287.937" fill="#FEFFDD" style="stroke:#181818;stroke-width:0.5;"/><text fill="#000000" font-family="Arial" font-size="13" lengthAdjust="spacing" textLength="183.5425" x="377" y="305.1309">normalization -&gt; dedup -&gt; spam</text><text fill="#000000" font-family="Arial" font-size="13" lengthAdjust="spacing" textLength="217.5088" x="377" y="320.0796">-&gt; thread topology -&gt; NLP enrichment</text><g class="message" data-participant-1="Runner" data-participant-2="Pipeline"><polygon fill="#181818" points="236.5098,349.7832,226.5098,353.7832,236.5098,357.7832,232.5098,353.7832" style="stroke:#181818;stroke-width:1;"/><line style="stroke:#181818;stroke-width:1;stroke-dasharray:2,2;" x1="230.5098" x2="360.4614" y1="353.7832" y2="353.7832"/><text fill="#000000" font-family="Arial" font-size="13" lengthAdjust="spacing" textLength="106.9517" x="240.0098" y="349.0283">PipelineRunResult</text></g><g class="message" data-participant-1="Pipeline" data-participant-2="Consumer"><polygon fill="#181818" points="100.9067,393.6807,90.9067,397.6807,100.9067,401.6807,96.9067,397.6807" style="stroke:#181818;stroke-width:1;"/><line style="stroke:#181818;stroke-width:1;stroke-dasharray:2,2;" x1="94.9067" x2="219.5098" y1="397.6807" y2="397.6807"/><text fill="#000000" font-family="Arial" font-size="13" lengthAdjust="spacing" textLength="44.8145" x="132.801" y="377.9771">pipeline</text><text fill="#000000" font-family="Arial" font-size="13" lengthAdjust="spacing" textLength="31.7891" x="139.3137" y="392.9258">result</text></g><path d="M16,412.6807 L82.4346,412.6807 L82.4346,419.6294 L72.4346,429.6294 L10,429.6294 L10,418.6807 A6,6 0 0 1 16,412.6807" fill="#EEEEEE" style="stroke:#000000;stroke-width:1.5;"/><rect fill="none" height="503.8721" rx="6" ry="6" style="stroke:#000000;stroke-width:1.5;" width="1077.2139" x="10" y="412.6807"/><text fill="#000000" font-family="Arial" font-size="13" font-weight="bold" lengthAdjust="spacing" textLength="27.4346" x="25" y="425.8745">loop</text><text fill="#000000" font-family="Arial" font-size="11" font-weight="bold" lengthAdjust="spacing" textLength="177.2622" x="97.4346" y="424.9985">[each NLPFact in result.nlp_facts]</text><path d="M26,436.6294 L80.1709,436.6294 L80.1709,443.5781 L70.1709,453.5781 L20,453.5781 L20,442.6294 A6,6 0 0 1 26,436.6294" fill="#EEEEEE" style="stroke:#000000;stroke-width:1.5;"/><rect fill="none" height="162.6411" rx="6" ry="6" style="stroke:#000000;stroke-width:1.5;" width="754.0977" x="20" y="436.6294"/><text fill="#000000" font-family="Arial" font-size="13" font-weight="bold" lengthAdjust="spacing" textLength="15.1709" x="35" y="449.8232">alt</text><text fill="#000000" font-family="Arial" font-size="11" font-weight="bold" lengthAdjust="spacing" textLength="152.2437" x="95.1709" y="448.9473">[analytics_result is available]</text><g class="message" data-participant-1="Consumer" data-participant-2="PostInsight"><polygon fill="#181818" points="474.6851,470.5269,484.6851,474.5269,474.6851,478.5269,478.6851,474.5269" style="stroke:#181818;stroke-width:1;"/><line style="stroke:#181818;stroke-width:1;" x1="89.9067" x2="480.6851" y1="474.5269" y2="474.5269"/><text fill="#000000" font-family="Arial" font-size="13" lengthAdjust="spacing" textLength="167.6606" x="204.4656" y="469.772">create(to_post_insight_input)</text></g><g class="message" data-participant-1="PostInsight" data-participant-2="PostgreSQL"><polygon fill="#181818" points="651.1016,529.373,661.1016,533.373,651.1016,537.373,655.1016,533.373" style="stroke:#181818;stroke-width:1;"/><line style="stroke:#181818;stroke-width:1;" x1="496.6851" x2="657.1016" y1="533.373" y2="533.373"/><text fill="#000000" font-family="Arial" font-size="13" lengthAdjust="spacing" textLength="31.7891" x="563.9988" y="498.7207">insert</text><text fill="#000000" font-family="Arial" font-size="13" lengthAdjust="spacing" textLength="69.3799" x="545.2034" y="513.6694">post_insight</text><text fill="#000000" font-family="Arial" font-size="13" lengthAdjust="spacing" textLength="20.9473" x="569.4197" y="528.6182">row</text></g><g class="message" data-participant-1="PostgreSQL" data-participant-2="PostInsight"><polygon fill="#181818" points="507.6851,558.3218,497.6851,562.3218,507.6851,566.3218,503.6851,562.3218" style="stroke:#181818;stroke-width:1;"/><line style="stroke:#181818;stroke-width:1;stroke-dasharray:2,2;" x1="501.6851" x2="667.1016" y1="562.3218" y2="562.3218"/><text fill="#000000" font-family="Arial" font-size="13" lengthAdjust="spacing" textLength="52.749" x="556.0188" y="557.5669">persisted</text></g><g class="message" data-participant-1="PostInsight" data-participant-2="Consumer"><polygon fill="#181818" points="100.9067,587.2705,90.9067,591.2705,100.9067,595.2705,96.9067,591.2705" style="stroke:#181818;stroke-width:1;"/><line style="stroke:#181818;stroke-width:1;stroke-dasharray:2,2;" x1="94.9067" x2="490.6851" y1="591.2705" y2="591.2705"/><text fill="#000000" font-family="Arial" font-size="13" lengthAdjust="spacing" textLength="13.73" x="283.9309" y="586.5156">ok</text></g><path d="M26,613.2705 L80.1709,613.2705 L80.1709,620.2192 L70.1709,630.2192 L20,630.2192 L20,619.2705 A6,6 0 0 1 26,613.2705" fill="#EEEEEE" style="stroke:#000000;stroke-width:1.5;"/><rect fill="none" height="296.2822" rx="6" ry="6" style="stroke:#000000;stroke-width:1.5;" width="1057.2139" x="20" y="613.2705"/><text fill="#000000" font-family="Arial" font-size="13" font-weight="bold" lengthAdjust="spacing" textLength="15.1709" x="35" y="626.4644">alt</text><text fill="#000000" font-family="Arial" font-size="11" font-weight="bold" lengthAdjust="spacing" textLength="158.3452" x="95.1709" y="625.5884">[insight_message is available]</text><g class="message" data-participant-1="Consumer" data-participant-2="Publisher"><polygon fill="#181818" points="848.5249,662.1167,858.5249,666.1167,848.5249,670.1167,852.5249,666.1167" style="stroke:#181818;stroke-width:1;"/><line style="stroke:#181818;stroke-width:1;" x1="89.9067" x2="854.5249" y1="666.1167" y2="666.1167"/><text fill="#000000" font-family="Arial" font-size="13" lengthAdjust="spacing" textLength="143.8252" x="403.3032" y="646.4131">publish_one(uap_record,</text><text fill="#000000" font-family="Arial" font-size="13" lengthAdjust="spacing" textLength="101.8862" x="424.2727" y="661.3618">insight_message)</text></g><g class="message" data-participant-1="Publisher" data-participant-2="Publisher"><line style="stroke:#181818;stroke-width:1;" x1="870.5249" x2="912.5249" y1="710.0142" y2="710.0142"/><line style="stroke:#181818;stroke-width:1;" x1="912.5249" x2="912.5249" y1="710.0142" y2="723.0142"/><line style="stroke:#181818;stroke-width:1;" x1="871.5249" x2="912.5249" y1="723.0142" y2="723.0142"/><polygon fill="#181818" points="881.5249,719.0142,871.5249,723.0142,881.5249,727.0142,877.5249,723.0142" style="stroke:#181818;stroke-width:1;"/><text fill="#000000" font-family="Arial" font-size="13" lengthAdjust="spacing" textLength="43.3799" x="877.5249" y="690.3105">append</text><text fill="#000000" font-family="Arial" font-size="13" lengthAdjust="spacing" textLength="3.6118" x="920.9048" y="690.3105">&#160;</text><text fill="#000000" font-family="Arial" font-size="13" lengthAdjust="spacing" textLength="10.8418" x="924.5166" y="690.3105">to</text><text fill="#000000" font-family="Arial" font-size="13" lengthAdjust="spacing" textLength="33.2427" x="889.8203" y="705.2593">buffer</text></g><path d="M770.0977,738.0142 L829.3086,738.0142 L829.3086,744.9629 L819.3086,754.9629 L764.0977,754.9629 L764.0977,744.0142 A6,6 0 0 1 770.0977,738.0142" fill="#EEEEEE" style="stroke:#000000;stroke-width:1.5;"/><rect fill="none" height="120.6411" rx="6" ry="6" style="stroke:#000000;stroke-width:1.5;" width="303.1162" x="764.0977" y="738.0142"/><text fill="#000000" font-family="Arial" font-size="13" font-weight="bold" lengthAdjust="spacing" textLength="20.2109" x="779.0977" y="751.208">opt</text><text fill="#000000" font-family="Arial" font-size="11" font-weight="bold" lengthAdjust="spacing" textLength="137.543" x="844.3086" y="750.332">[buffer size &gt;= batch_size]</text><g class="message" data-participant-1="Publisher" data-participant-2="AnalyticsTopics"><line style="stroke:#181818;stroke-width:1;" x1="1010.083" x2="1000.083" y1="850.6553" y2="846.6553"/><line style="stroke:#181818;stroke-width:1;" x1="1010.083" x2="1000.083" y1="850.6553" y2="854.6553"/><line style="stroke:#181818;stroke-width:1;" x1="870.5249" x2="1011.083" y1="850.6553" y2="850.6553"/><text fill="#000000" font-family="Arial" font-size="13" lengthAdjust="spacing" textLength="41.1963" x="920.7058" y="771.1567">publish</text><text fill="#000000" font-family="Arial" font-size="13" lengthAdjust="spacing" textLength="95.3926" x="893.6077" y="786.1055">batch.completed</text><text fill="#000000" font-family="Arial" font-size="13" lengthAdjust="spacing" textLength="25.3018" x="928.6531" y="801.0542">then</text><text fill="#000000" font-family="Arial" font-size="13" lengthAdjust="spacing" textLength="103.3462" x="889.6309" y="816.0029">insights.published</text><text fill="#000000" font-family="Arial" font-size="13" lengthAdjust="spacing" textLength="25.3018" x="928.6531" y="830.9517">then</text><text fill="#000000" font-family="Arial" font-size="13" lengthAdjust="spacing" textLength="72.2617" x="905.1731" y="845.9004">report.digest</text></g><g class="message" data-participant-1="Publisher" data-participant-2="Consumer"><polygon fill="#181818" points="100.9067,897.5527,90.9067,901.5527,100.9067,905.5527,96.9067,901.5527" style="stroke:#181818;stroke-width:1;"/><line style="stroke:#181818;stroke-width:1;stroke-dasharray:2,2;" x1="94.9067" x2="864.5249" y1="901.5527" y2="901.5527"/><text fill="#000000" font-family="Arial" font-size="13" lengthAdjust="spacing" textLength="47.7026" x="446.2791" y="881.8491">buffered</text><text fill="#000000" font-family="Arial" font-size="13" lengthAdjust="spacing" textLength="3.6118" x="493.9817" y="881.8491">&#160;</text><text fill="#000000" font-family="Arial" font-size="13" lengthAdjust="spacing" textLength="11.5591" x="497.5935" y="881.8491">or</text><text fill="#000000" font-family="Arial" font-size="13" lengthAdjust="spacing" textLength="41.9199" x="456.7559" y="896.7979">flushed</text></g><!--SRC=[XLHDQnmn3BtFhn0vRSfcQ7if11f8GmEbQKYJzXOOj1xDZ8d7TlsHJVBhAy_tx1PwMDOZFJrBJvA338hWKgDw3L9uk9EMbDG4Nrz8n22DXcjbzfb_ajgYmnPAgZ2gS6rqkCMMOvr4jV3x1akpbxg62fMdfOV-HDA2Vf3tMDEbahK6GJgGMw0SUMkq7r5VYA-_TCxi8RYuf6lnPS0yo3U2J- -N92RgKXYdoS67Zrd6LYvFMjG1JgwOFhRa7iWzapi1z32Qri1HZD-Uhj1JXnnjQwIBkh23PtFQ0U-ZraU4neTlsikw2IlEsPoL6737ZXvSEthuUVEelMYenG9JdxpqkMLV8VkGYQ877zKQ78fm5tTA-eRSwjxHk8xvZjKJGZ2M1-9HupWR-RikQ9gLNnqWoxG918QLd5JSJY81hCK6tACCdkteNxMG9W-c28qZB3UUL9MF8XRHa-0ySrPs2tcUd-OPwHBIPLasaiBPnJonvy3OpOuRhsWB8hniOM8JHbUoFirO2VcCdE-KuHJEL7tBUgAvdJiCeXa8ZtY6BdSQkDGDCDLe1CxMjQZa6tQBn3UKL4QR3jvYom0-zTKdkOqozMiotTxS0MadHTFoTinr3_cThQiUZ-oz9y-hcPLqcDzS9STEwfrF0gMjEuYS5CgKCHROqQJ4hXa0KWy1kLQsgDZKjLG5cAQbw04WFU0pIeKxbSPX7eYkT_FWSpA2XGYquObOZZV_snXEkzWvkSN69CUIQE3jju5fcOTSW2Kdlm_xOy9XVqQ-WU3iA4zBZdSmKDb1bv8Taqn9hNKtJ_-AdIlYbcU3egCCRV_M_KVGSQDJclsvC3p34IqtX1_4Sdj8UAZiz2Pq9Kny1-HeRHhBO60Ngsf06nk6J_3fIRxu3Dto5EchGwmPBmuVapdhFZ0NfhMAMEf77HhIO-xy00uqeyEHDIxafQp9zoEH93ouSDs3FbCgmJYeL4naHqrPY97u-FSN]--></g></svg>