<svg xmlns="http://www.w3.org/2000/svg" xmlns:xlink="http://www.w3.org/1999/xlink" contentStyleType="text/css" data-diagram-type="SEQUENCE" height="724px" preserveAspectRatio="none" style="width:691px;height:724px;background:#FFFFFF;" version="1.1" viewBox="0 0 691 724" width="691px" zoomAndPan="magnify"><defs/><g><g><title>ConsumerServer</title><rect fill="#FFFFFF" height="500.6748" style="stroke:#181818;stroke-width:1;" width="10" x="172.6235" y="98.0947"/></g><g><title>UAPRecord</title><rect fill="#FFFFFF" height="28.9487" style="stroke:#181818;stroke-width:1;" width="10" x="375.0479" y="249.8384"/></g><g><title>UAPRecord</title><rect fill="#FFFFFF" height="28.9487" style="stroke:#181818;stroke-width:1;" width="10" x="375.0479" y="322.3848"/></g><g><title>DomainRegistry</title><rect fill="#FFFFFF" height="28.9487" style="stroke:#181818;stroke-width:1;" width="10" x="485.7993" y="387.2822"/></g><g><title>IngestionUseCase</title><rect fill="#FFFFFF" height="43.8975" style="stroke:#181818;stroke-width:1;" width="10" x="616.792" y="475.0771"/></g><rect fill="none" height="147.3926" rx="6" ry="6" style="stroke:#000000;stroke-width:1.5;" width="326.2896" x="107.7168" y="211.9409"/><g><title>Kafka topic</title><rect fill="#000000" fill-opacity="0.00000" height="621.4697" width="8" x="52.3584" y="52.1973"/><line style="stroke:#181818;stroke-width:0.5;stroke-dasharray:5,5;" x1="56" x2="56" y1="52.1973" y2="673.667"/></g><g><title>ConsumerServer</title><rect fill="#000000" fill-opacity="0.00000" height="621.4697" width="8" x="173.6235" y="52.1973"/><line style="stroke:#181818;stroke-width:0.5;stroke-dasharray:5,5;" x1="176.7168" x2="176.7168" y1="52.1973" y2="673.667"/></g><g><title>UAPRecord</title><rect fill="#000000" fill-opacity="0.00000" height="621.4697" width="8" x="376.0479" y="52.1973"/><line style="stroke:#181818;stroke-width:0.5;stroke-dasharray:5,5;" x1="379.0894" x2="379.0894" y1="52.1973" y2="673.667"/></g><g><title>DomainRegistry</title><rect fill="#000000" fill-opacity="0.00000" height="621.4697" width="8" x="486.7993" y="52.1973"/><line style="stroke:#181818;stroke-width:0.5;stroke-dasharray:5,5;" x1="490.0063" x2="490.0063" y1="52.1973" y2="673.667"/></g><g><title>IngestionUseCase</title><rect fill="#000000" fill-opacity="0.00000" height="621.4697" width="8" x="617.792" y="52.1973"/><line style="stroke:#181818;stroke-width:0.5;stroke-dasharray:5,5;" x1="621.5923" x2="621.5923" y1="52.1973" y2="673.667"/></g><g class="participant participant-head" data-participant="Kafka"><rect fill="#E2E2F0" height="46.1973" rx="6" ry="6" style="stroke:#181818;stroke-width:0.5;" width="102.7168" x="5" y="5"/><text fill="#000000" font-family="Arial" font-size="14" lengthAdjust="spacing" textLength="69.2617" x="21.7275" y="25.1318">Kafka topic</text><text fill="#000000" font-family="Arial" font-size="14" lengthAdjust="spacing" textLength="88.7168" x="12" y="41.2305">analytics input</text></g><g class="participant participant-tail" data-participant="Kafka"><rect fill="#E2E2F0" height="46.1973" rx="6" ry="6" style="stroke:#181818;stroke-width:0.5;" width="102.7168" x="5" y="672.667"/><text fill="#000000" font-family="Arial" font-size="14" lengthAdjust="spacing" textLength="69.2617" x="21.7275" y="692.7988">Kafka topic</text><text fill="#000000" font-family="Arial" font-size="14" lengthAdjust="spacing" textLength="88.7168" x="12" y="708.8975">analytics input</text></g><g class="participant participant-head" data-participant="Consumer"><rect fill="#E2E2F0" height="30.0986" rx="6" ry="6" style="stroke:#181818;stroke-width:0.5;" width="119.8135" x="117.7168" y="21.0986"/><text fill="#000000" font-family="Arial" font-size="14" lengthAdjust="spacing" textLength="105.8135" x="124.7168" y="41.2305">ConsumerServer</text></g><g class="participant participant-tail" data-participant="Consumer"><rect fill="#E2E2F0" height="30.0986" rx="6" ry="6" style="stroke:#181818;stroke-width:0.5;" width="119.8135" x="117.7168" y="672.667"/><text fill="#000000" font-family="Arial" font-size="14" lengthAdjust="spacing" textLength="105.8135" x="124.7168" y="692.7988">ConsumerServer</text></g><g class="participant participant-head" data-participant="UAPRecord"><rect fill="#E2E2F0" height="30.0986" rx="6" ry="6" style="stroke:#181818;stroke-width:0.5;" width="87.917" x="336.0894" y="21.0986"/><text fill="#000000" font-family="Arial" font-size="14" lengthAdjust="spacing" textLength="73.917" x="343.0894" y="41.2305">UAPRecord</text></g><g class="participant participant-tail" data-participant="UAPRecord"><rect fill="#E2E2F0" height="30.0986" rx="6" ry="6" style="stroke:#181818;stroke-width:0.5;" width="87.917" x="336.0894" y="672.667"/><text fill="#000000" font-family="Arial" font-size="14" lengthAdjust="spacing" textLength="73.917" x="343.0894" y="692.7988">UAPRecord</text></g><g class="participant participant-head" data-participant="DomainRegistry"><rect fill="#E2E2F0" height="30.0986" rx="6" ry="6" style="stroke:#181818;stroke-width:0.5;" width="113.5859" x="434.0063" y="21.0986"/><text fill="#000000" font-family="Arial" font-size="14" lengthAdjust="spacing" textLength="99.5859" x="441.0063" y="41.2305">DomainRegistry</text></g><g class="participant participant-tail" data-participant="DomainRegistry"><rect fill="#E2E2F0" height="30.0986" rx="6" ry="6" style="stroke:#181818;stroke-width:0.5;" width="113.5859" x="434.0063" y="672.667"/><text fill="#000000" font-family="Arial" font-size="14" lengthAdjust="spacing" textLength="99.5859" x="441.0063" y="692.7988">DomainRegistry</text></g><g class="participant participant-head" data-participant="Ingestion"><rect fill="#E2E2F0" height="30.0986" rx="6" ry="6" style="stroke:#181818;stroke-width:0.5;" width="128.3994" x="557.5923" y="21.0986"/><text fill="#000000" font-family="Arial" font-size="14" lengthAdjust="spacing" textLength="114.3994" x="564.5923" y="41.2305">IngestionUseCase</text></g><g class="participant participant-tail" data-participant="Ingestion"><rect fill="#E2E2F0" height="30.0986" rx="6" ry="6" style="stroke:#181818;stroke-width:0.5;" width="128.3994" x="557.5923" y="672.667"/><text fill="#000000" font-family="Arial" font-size="14" lengthAdjust="spacing" textLength="114.3994" x="564.5923" y="692.7988">IngestionUseCase</text></g><g><title>ConsumerServer</title><rect fill="#FFFFFF" height="500.6748" style="stroke:#181818;stroke-width:1;" width="10" x="172.6235" y="98.0947"/></g><g><title>UAPRecord</title><rect fill="#FFFFFF" height="28.9487" style="stroke:#181818;stroke-width:1;" width="10" x="375.0479" y="249.8384"/></g><g><title>UAPRecord</title><rect fill="#FFFFFF" height="28.9487" style="stroke:#181818;stroke-width:1;" width="10" x="375.0479" y="322.3848"/></g><g><title>DomainRegistry</title><rect fill="#FFFFFF" height="28.9487" style="stroke:#181818;stroke-width:1;" width="10" x="485.7993" y="387.2822"/></g><g><title>IngestionUseCase</title><rect fill="#FFFFFF" height="43.8975" style="stroke:#181818;stroke-width:1;" width="10" x="616.792" y="475.0771"/></g><g class="message" data-participant-1="Kafka" data-participant-2="Consumer"><line style="stroke:#181818;stroke-width:1;" x1="170.6235" x2="160.6235" y1="98.0947" y2="94.0947"/><line style="stroke:#181818;stroke-width:1;" x1="170.6235" x2="160.6235" y1="98.0947" y2="102.0947"/><line style="stroke:#181818;stroke-width:1;" x1="56.3584" x2="171.6235" y1="98.0947" y2="98.0947"/><text fill="#000000" font-family="Arial" font-size="13" lengthAdjust="spacing" textLength="38.2954" x="95.3433" y="78.3911">deliver</text><text fill="#000000" font-family="Arial" font-size="13" lengthAdjust="spacing" textLength="85.9917" x="71.4951" y="93.3398">KafkaMessage</text></g><g class="message" data-participant-1="Consumer" data-participant-2="Consumer"><line style="stroke:#181818;stroke-width:1;" x1="182.6235" x2="224.6235" y1="141.9922" y2="141.9922"/><line style="stroke:#181818;stroke-width:1;" x1="224.6235" x2="224.6235" y1="141.9922" y2="154.9922"/><line style="stroke:#181818;stroke-width:1;" x1="183.6235" x2="224.6235" y1="154.9922" y2="154.9922"/><polygon fill="#181818" points="193.6235,150.9922,183.6235,154.9922,193.6235,158.9922,189.6235,154.9922" style="stroke:#181818;stroke-width:1;"/><text fill="#000000" font-family="Arial" font-size="13" lengthAdjust="spacing" textLength="42.6499" x="189.6235" y="122.2886">decode</text><text fill="#000000" font-family="Arial" font-size="13" lengthAdjust="spacing" textLength="28.1899" x="196.8535" y="137.2373">body</text></g><g class="message" data-participant-1="Consumer" data-participant-2="Consumer"><line style="stroke:#181818;stroke-width:1;" x1="182.6235" x2="224.6235" y1="183.9409" y2="183.9409"/><line style="stroke:#181818;stroke-width:1;" x1="224.6235" x2="224.6235" y1="183.9409" y2="196.9409"/><line style="stroke:#181818;stroke-width:1;" x1="183.6235" x2="224.6235" y1="196.9409" y2="196.9409"/><polygon fill="#181818" points="193.6235,192.9409,183.6235,196.9409,193.6235,200.9409,189.6235,196.9409" style="stroke:#181818;stroke-width:1;"/><text fill="#000000" font-family="Arial" font-size="13" lengthAdjust="spacing" textLength="95.3862" x="189.6235" y="179.186">json.loads(body)</text></g><path d="M113.7168,211.9409 L167.8877,211.9409 L167.8877,218.8896 L157.8877,228.8896 L107.7168,228.8896 L107.7168,217.9409 A6,6 0 0 1 113.7168,211.9409" fill="#EEEEEE" style="stroke:#000000;stroke-width:1.5;"/><rect fill="none" height="147.3926" rx="6" ry="6" style="stroke:#000000;stroke-width:1.5;" width="326.2896" x="107.7168" y="211.9409"/><text fill="#000000" font-family="Arial" font-size="13" font-weight="bold" lengthAdjust="spacing" textLength="15.1709" x="122.7168" y="225.1348">alt</text><text fill="#000000" font-family="Arial" font-size="11" font-weight="bold" lengthAdjust="spacing" textLength="122.2568" x="182.8877" y="224.2588">[Legacy UAP envelope]</text><g class="message" data-participant-1="Consumer" data-participant-2="UAPRecord"><polygon fill="#181818" points="363.0479,245.8384,373.0479,249.8384,363.0479,253.8384,367.0479,249.8384" style="stroke:#181818;stroke-width:1;"/><line style="stroke:#181818;stroke-width:1;" x1="182.6235" x2="369.0479" y1="249.8384" y2="249.8384"/><text fill="#000000" font-family="Arial" font-size="13" lengthAdjust="spacing" textLength="93.9453" x="231.863" y="245.0835">parse(envelope)</text></g><g class="message" data-participant-1="UAPRecord" data-participant-2="Consumer"><polygon fill="#181818" points="193.6235,274.7871,183.6235,278.7871,193.6235,282.7871,189.6235,278.7871" style="stroke:#181818;stroke-width:1;"/><line style="stroke:#181818;stroke-width:1;stroke-dasharray:2,2;" x1="187.6235" x2="379.0479" y1="278.7871" y2="278.7871"/><text fill="#000000" font-family="Arial" font-size="13" lengthAdjust="spacing" textLength="65.7681" x="248.4517" y="274.0322">uap_record</text></g><line style="stroke:#000000;stroke-width:1;stroke-dasharray:2,2;" x1="107.7168" x2="434.0063" y1="287.7871" y2="287.7871"/><text fill="#000000" font-family="Arial" font-size="11" font-weight="bold" lengthAdjust="spacing" textLength="110.0161" x="112.7168" y="298.105">[Ingest flat envelope]</text><g class="message" data-participant-1="Consumer" data-participant-2="UAPRecord"><polygon fill="#181818" points="363.0479,318.3848,373.0479,322.3848,363.0479,326.3848,367.0479,322.3848" style="stroke:#181818;stroke-width:1;"/><line style="stroke:#181818;stroke-width:1;" x1="182.6235" x2="369.0479" y1="322.3848" y2="322.3848"/><text fill="#000000" font-family="Arial" font-size="13" lengthAdjust="spacing" textLength="173.4243" x="192.1235" y="317.6299">from_ingest_record(envelope)</text></g><g class="message" data-participant-1="UAPRecord" data-participant-2="Consumer"><polygon fill="#181818" points="193.6235,347.3335,183.6235,351.3335,193.6235,355.3335,189.6235,351.3335" style="stroke:#181818;stroke-width:1;"/><line style="stroke:#181818;stroke-width:1;stroke-dasharray:2,2;" x1="187.6235" x2="379.0479" y1="351.3335" y2="351.3335"/><text fill="#000000" font-family="Arial" font-size="13" lengthAdjust="spacing" textLength="65.7681" x="248.4517" y="346.5786">uap_record</text></g><g class="message" data-participant-1="Consumer" data-participant-2="DomainRegistry"><polygon fill="#181818" points="473.7993,383.2822,483.7993,387.2822,473.7993,391.2822,477.7993,387.2822" style="stroke:#181818;stroke-width:1;"/><line style="stroke:#181818;stroke-width:1;" x1="182.6235" x2="479.7993" y1="387.2822" y2="387.2822"/><text fill="#000000" font-family="Arial" font-size="13" lengthAdjust="spacing" textLength="226.2051" x="221.1089" y="382.5273">lookup(uap_record.domain_type_code)</text></g><g class="message" data-participant-1="DomainRegistry" data-participant-2="Consumer"><polygon fill="#181818" points="193.6235,412.231,183.6235,416.231,193.6235,420.231,189.6235,416.231" style="stroke:#181818;stroke-width:1;"/><line style="stroke:#181818;stroke-width:1;stroke-dasharray:2,2;" x1="187.6235" x2="489.7993" y1="416.231" y2="416.231"/><text fill="#000000" font-family="Arial" font-size="13" lengthAdjust="spacing" textLength="84.5571" x="294.4329" y="411.4761">domain_config</text></g><g class="message" data-participant-1="Consumer" data-participant-2="Ingestion"><polygon fill="#181818" points="604.792,471.0771,614.792,475.0771,604.792,479.0771,608.792,475.0771" style="stroke:#181818;stroke-width:1;"/><line style="stroke:#181818;stroke-width:1;" x1="182.6235" x2="610.792" y1="475.0771" y2="475.0771"/><text fill="#000000" font-family="Arial" font-size="13" lengthAdjust="spacing" textLength="145.2344" x="327.0906" y="440.4248">from_kafka([uap_record],</text><text fill="#000000" font-family="Arial" font-size="13" lengthAdjust="spacing" textLength="59.979" x="369.7183" y="455.3735">project_id,</text><text fill="#000000" font-family="Arial" font-size="13" lengthAdjust="spacing" textLength="94.8657" x="352.2749" y="470.3223">campaign_id="")</text></g><g class="message" data-participant-1="Ingestion" data-participant-2="Consumer"><polygon fill="#181818" points="193.6235,514.9746,183.6235,518.9746,193.6235,522.9746,189.6235,518.9746" style="stroke:#181818;stroke-width:1;"/><line style="stroke:#181818;stroke-width:1;stroke-dasharray:2,2;" x1="187.6235" x2="620.792" y1="518.9746" y2="518.9746"/><text fill="#000000" font-family="Arial" font-size="13" lengthAdjust="spacing" textLength="42.6499" x="380.8828" y="499.271">bundle,</text><text fill="#000000" font-family="Arial" font-size="13" lengthAdjust="spacing" textLength="27.4536" x="388.481" y="514.2197">stats</text></g><g class="message" data-participant-1="Consumer" data-participant-2="Consumer"><line style="stroke:#181818;stroke-width:1;" x1="182.6235" x2="224.6235" y1="597.7695" y2="597.7695"/><line style="stroke:#181818;stroke-width:1;" x1="224.6235" x2="224.6235" y1="597.7695" y2="610.7695"/><line style="stroke:#181818;stroke-width:1;" x1="177.6235" x2="224.6235" y1="610.7695" y2="610.7695"/><polygon fill="#181818" points="187.6235,606.7695,177.6235,610.7695,187.6235,614.7695,183.6235,610.7695" style="stroke:#181818;stroke-width:1;"/><text fill="#000000" font-family="Arial" font-size="13" lengthAdjust="spacing" textLength="36.1309" x="227.9221" y="548.1685">create</text><text fill="#000000" font-family="Arial" font-size="13" lengthAdjust="spacing" textLength="112.728" x="189.6235" y="563.1172">RunContext(run_id,</text><text fill="#000000" font-family="Arial" font-size="13" lengthAdjust="spacing" textLength="59.979" x="215.998" y="578.0659">project_id,</text><text fill="#000000" font-family="Arial" font-size="13" lengthAdjust="spacing" textLength="53.479" x="219.248" y="593.0146">ontology)</text></g><path d="M182,624.7695 L182,651.7695 A6,6 0 0 0 188,657.7695 L382,657.7695 A6,6 0 0 0 388,651.7695 L388,628.7695 L378,618.7695 L188,618.7695 A6,6 0 0 0 182,624.7695" fill="#FEFFDD" style="stroke:#181818;stroke-width:0.5;"/><path d="M378,618.7695 L378,625.7695 A3,3 0 0 0 381,628.7695 L388,628.7695 L378,618.7695" fill="#FEFFDD" style="stroke:#181818;stroke-width:0.5;"/><text fill="#000000" font-family="Arial" font-size="13" lengthAdjust="spacing" textLength="183.5615" x="188" y="635.9634">bundle.records and RunContext</text><text fill="#000000" font-family="Arial" font-size="13" lengthAdjust="spacing" textLength="185.0024" x="188" y="650.9121">are ready for pipeline execution.</text><!--SRC=[jPDDYzim48Rl_XL3JWaaeUsbKEX2kgLG-a79igUsX5bfxDL6rgYIdCJzzPKTVyYc2xtqwD4xhv_vyaTbB3eiGLAEbGuVs8IlM1Bid4AT-U7TFwBaip85vAWzfI_qgo8Zw0jvZmNjj2eC23A1NA9ov2qRtwlUaURppZa-Gt1LQbVYfTFSgTy4hr-a9bmPATWPSl3oLPR5Q512MJG15fymFo84jahyC6XGr_7DGyojmWBGGokOvjn6fAeaTqVkHAvLzQ6fy7xtRK_npxBL35zJqNikKPaz5Se7LxVAQMWg_sWAya6nkVTqYvxQX26OPTU2DZSt0nEyYNFIAg9UY-aQbQ48weI1HlWXOpFB5Ym97bZMpqcUF9kjPfH-sSXMMOOwm6SgKDHDuK3c58TdAGD8BOQUH8zOfgTbBrn5vK0ujWwIbCsKeK9xSBrAqb-IAUvWrol8DOP_eSeTbmVLvdJk_nVHo6pIvEakH0_DVApiShJQobPo2BMbGpEfrJZQsIRDp6PqdOzWawiYI_1cBXE-OVNwNXsR7Lj-7_b-hi4wVY8H3agkGM1fCLvx_7YxM2IiunAFdZF2XtZ9cjRW0mQV4YO7yCo62aUDS5-P60nq2KjNcHOeXOjFhBc82smugfqg7WDmFfu8T0pRQsqUqCZ4jDa85_C8PGqvEx3Anjip17GXKJM4ssR6qDYd1VG_-0C0]--></g></svg>