<svg xmlns="http://www.w3.org/2000/svg" xmlns:xlink="http://www.w3.org/1999/xlink" contentStyleType="text/css" data-diagram-type="SEQUENCE" height="761px" preserveAspectRatio="none" style="width:691px;height:761px;background:#FFFFFF;" version="1.1" viewBox="0 0 691 761" width="691px" zoomAndPan="magnify"><title>Analytics Kafka Intake Flow</title><defs/><g><text fill="#000000" font-family="Arial" font-size="14" font-weight="bold" lengthAdjust="spacing" textLength="184.3926" x="252.7996" y="28.1318">Analytics Kafka Intake Flow</text><g><title>ConsumerServer</title><rect fill="#FFFFFF" height="500.6748" style="stroke:#181818;stroke-width:1;" width="10" x="172.6235" y="135.1934"/></g><g><title>UAPRecord</title><rect fill="#FFFFFF" height="28.9487" style="stroke:#181818;stroke-width:1;" width="10" x="375.0479" y="286.937"/></g><g><title>UAPRecord</title><rect fill="#FFFFFF" height="28.9487" style="stroke:#181818;stroke-width:1;" width="10" x="375.0479" y="359.4834"/></g><g><title>DomainRegistry</title><rect fill="#FFFFFF" height="28.9487" style="stroke:#181818;stroke-width:1;" width="10" x="485.7993" y="424.3809"/></g><g><title>IngestionUseCase</title><rect fill="#FFFFFF" height="43.8975" style="stroke:#181818;stroke-width:1;" width="10" x="616.792" y="512.1758"/></g><rect fill="none" height="147.3926" rx="6" ry="6" style="stroke:#000000;stroke-width:1.5;" width="326.2896" x="107.7168" y="249.0396"/><g><title>Kafka topic</title><rect fill="#000000" fill-opacity="0.00000" height="621.4697" width="8" x="52.3584" y="89.2959"/><line style="stroke:#181818;stroke-width:0.5;stroke-dasharray:5,5;" x1="56" x2="56" y1="89.2959" y2="710.7656"/></g><g><title>ConsumerServer</title><rect fill="#000000" fill-opacity="0.00000" height="621.4697" width="8" x="173.6235" y="89.2959"/><line style="stroke:#181818;stroke-width:0.5;stroke-dasharray:5,5;" x1="176.7168" x2="176.7168" y1="89.2959" y2="710.7656"/></g><g><title>UAPRecord</title><rect fill="#000000" fill-opacity="0.00000" height="621.4697" width="8" x="376.0479" y="89.2959"/><line style="stroke:#181818;stroke-width:0.5;stroke-dasharray:5,5;" x1="379.0894" x2="379.0894" y1="89.2959" y2="710.7656"/></g><g><title>DomainRegistry</title><rect fill="#000000" fill-opacity="0.00000" height="621.4697" width="8" x="486.7993" y="89.2959"/><line style="stroke:#181818;stroke-width:0.5;stroke-dasharray:5,5;" x1="490.0063" x2="490.0063" y1="89.2959" y2="710.7656"/></g><g><title>IngestionUseCase</title><rect fill="#000000" fill-opacity="0.00000" height="621.4697" width="8" x="617.792" y="89.2959"/><line style="stroke:#181818;stroke-width:0.5;stroke-dasharray:5,5;" x1="621.5923" x2="621.5923" y1="89.2959" y2="710.7656"/></g><g class="participant participant-head" data-participant="Kafka"><rect fill="#E2E2F0" height="46.1973" rx="6" ry="6" style="stroke:#181818;stroke-width:0.5;" width="102.7168" x="5" y="42.0986"/><text fill="#000000" font-family="Arial" font-size="14" lengthAdjust="spacing" textLength="69.2617" x="21.7275" y="62.2305">Kafka topic</text><text fill="#000000" font-family="Arial" font-size="14" lengthAdjust="spacing" textLength="88.7168" x="12" y="78.3291">analytics input</text></g><g class="participant participant-tail" data-participant="Kafka"><rect fill="#E2E2F0" height="46.1973" rx="6" ry="6" style="stroke:#181818;stroke-width:0.5;" width="102.7168" x="5" y="709.7656"/><text fill="#000000" font-family="Arial" font-size="14" lengthAdjust="spacing" textLength="69.2617" x="21.7275" y="729.8975">Kafka topic</text><text fill="#000000" font-family="Arial" font-size="14" lengthAdjust="spacing" textLength="88.7168" x="12" y="745.9961">analytics input</text></g><g class="participant participant-head" data-participant="Consumer"><rect fill="#E2E2F0" height="30.0986" rx="6" ry="6" style="stroke:#181818;stroke-width:0.5;" width="119.8135" x="117.7168" y="58.1973"/><text fill="#000000" font-family="Arial" font-size="14" lengthAdjust="spacing" textLength="105.8135" x="124.7168" y="78.3291">ConsumerServer</text></g><g class="participant participant-tail" data-participant="Consumer"><rect fill="#E2E2F0" height="30.0986" rx="6" ry="6" style="stroke:#181818;stroke-width:0.5;" width="119.8135" x="117.7168" y="709.7656"/><text fill="#000000" font-family="Arial" font-size="14" lengthAdjust="spacing" textLength="105.8135" x="124.7168" y="729.8975">ConsumerServer</text></g><g class="participant participant-head" data-participant="UAPRecord"><rect fill="#E2E2F0" height="30.0986" rx="6" ry="6" style="stroke:#181818;stroke-width:0.5;" width="87.917" x="336.0894" y="58.1973"/><text fill="#000000" font-family="Arial" font-size="14" lengthAdjust="spacing" textLength="73.917" x="343.0894" y="78.3291">UAPRecord</text></g><g class="participant participant-tail" data-participant="UAPRecord"><rect fill="#E2E2F0" height="30.0986" rx="6" ry="6" style="stroke:#181818;stroke-width:0.5;" width="87.917" x="336.0894" y="709.7656"/><text fill="#000000" font-family="Arial" font-size="14" lengthAdjust="spacing" textLength="73.917" x="343.0894" y="729.8975">UAPRecord</text></g><g class="participant participant-head" data-participant="DomainRegistry"><rect fill="#E2E2F0" height="30.0986" rx="6" ry="6" style="stroke:#181818;stroke-width:0.5;" width="113.5859" x="434.0063" y="58.1973"/><text fill="#000000" font-family="Arial" font-size="14" lengthAdjust="spacing" textLength="99.5859" x="441.0063" y="78.3291">DomainRegistry</text></g><g class="participant participant-tail" data-participant="DomainRegistry"><rect fill="#E2E2F0" height="30.0986" rx="6" ry="6" style="stroke:#181818;stroke-width:0.5;" width="113.5859" x="434.0063" y="709.7656"/><text fill="#000000" font-family="Arial" font-size="14" lengthAdjust="spacing" textLength="99.5859" x="441.0063" y="729.8975">DomainRegistry</text></g><g class="participant participant-head" data-participant="Ingestion"><rect fill="#E2E2F0" height="30.0986" rx="6" ry="6" style="stroke:#181818;stroke-width:0.5;" width="128.3994" x="557.5923" y="58.1973"/><text fill="#000000" font-family="Arial" font-size="14" lengthAdjust="spacing" textLength="114.3994" x="564.5923" y="78.3291">IngestionUseCase</text></g><g class="participant participant-tail" data-participant="Ingestion"><rect fill="#E2E2F0" height="30.0986" rx="6" ry="6" style="stroke:#181818;stroke-width:0.5;" width="128.3994" x="557.5923" y="709.7656"/><text fill="#000000" font-family="Arial" font-size="14" lengthAdjust="spacing" textLength="114.3994" x="564.5923" y="729.8975">IngestionUseCase</text></g><g><title>ConsumerServer</title><rect fill="#FFFFFF" height="500.6748" style="stroke:#181818;stroke-width:1;" width="10" x="172.6235" y="135.1934"/></g><g><title>UAPRecord</title><rect fill="#FFFFFF" height="28.9487" style="stroke:#181818;stroke-width:1;" width="10" x="375.0479" y="286.937"/></g><g><title>UAPRecord</title><rect fill="#FFFFFF" height="28.9487" style="stroke:#181818;stroke-width:1;" width="10" x="375.0479" y="359.4834"/></g><g><title>DomainRegistry</title><rect fill="#FFFFFF" height="28.9487" style="stroke:#181818;stroke-width:1;" width="10" x="485.7993" y="424.3809"/></g><g><title>IngestionUseCase</title><rect fill="#FFFFFF" height="43.8975" style="stroke:#181818;stroke-width:1;" width="10" x="616.792" y="512.1758"/></g><g class="message" data-participant-1="Kafka" data-participant-2="Consumer"><line style="stroke:#181818;stroke-width:1;" x1="170.6235" x2="160.6235" y1="135.1934" y2="131.1934"/><line style="stroke:#181818;stroke-width:1;" x1="170.6235" x2="160.6235" y1="135.1934" y2="139.1934"/><line style="stroke:#181818;stroke-width:1;" x1="56.3584" x2="171.6235" y1="135.1934" y2="135.1934"/><text fill="#000000" font-family="Arial" font-size="13" lengthAdjust="spacing" textLength="38.2954" x="95.3433" y="115.4897">deliver</text><text fill="#000000" font-family="Arial" font-size="13" lengthAdjust="spacing" textLength="85.9917" x="71.4951" y="130.4385">KafkaMessage</text></g><g class="message" data-participant-1="Consumer" data-participant-2="Consumer"><line style="stroke:#181818;stroke-width:1;" x1="182.6235" x2="224.6235" y1="179.0908" y2="179.0908"/><line style="stroke:#181818;stroke-width:1;" x1="224.6235" x2="224.6235" y1="179.0908" y2="192.0908"/><line style="stroke:#181818;stroke-width:1;" x1="183.6235" x2="224.6235" y1="192.0908" y2="192.0908"/><polygon fill="#181818" points="193.6235,188.0908,183.6235,192.0908,193.6235,196.0908,189.6235,192.0908" style="stroke:#181818;stroke-width:1;"/><text fill="#000000" font-family="Arial" font-size="13" lengthAdjust="spacing" textLength="42.6499" x="189.6235" y="159.3872">decode</text><text fill="#000000" font-family="Arial" font-size="13" lengthAdjust="spacing" textLength="28.1899" x="196.8535" y="174.3359">body</text></g><g class="message" data-participant-1="Consumer" data-participant-2="Consumer"><line style="stroke:#181818;stroke-width:1;" x1="182.6235" x2="224.6235" y1="221.0396" y2="221.0396"/><line style="stroke:#181818;stroke-width:1;" x1="224.6235" x2="224.6235" y1="221.0396" y2="234.0396"/><line style="stroke:#181818;stroke-width:1;" x1="183.6235" x2="224.6235" y1="234.0396" y2="234.0396"/><polygon fill="#181818" points="193.6235,230.0396,183.6235,234.0396,193.6235,238.0396,189.6235,234.0396" style="stroke:#181818;stroke-width:1;"/><text fill="#000000" font-family="Arial" font-size="13" lengthAdjust="spacing" textLength="95.3862" x="189.6235" y="216.2847">json.loads(body)</text></g><path d="M113.7168,249.0396 L167.8877,249.0396 L167.8877,255.9883 L157.8877,265.9883 L107.7168,265.9883 L107.7168,255.0396 A6,6 0 0 1 113.7168,249.0396" fill="#EEEEEE" style="stroke:#000000;stroke-width:1.5;"/><rect fill="none" height="147.3926" rx="6" ry="6" style="stroke:#000000;stroke-width:1.5;" width="326.2896" x="107.7168" y="249.0396"/><text fill="#000000" font-family="Arial" font-size="13" font-weight="bold" lengthAdjust="spacing" textLength="15.1709" x="122.7168" y="262.2334">alt</text><text fill="#000000" font-family="Arial" font-size="11" font-weight="bold" lengthAdjust="spacing" textLength="122.2568" x="182.8877" y="261.3574">[Legacy UAP envelope]</text><g class="message" data-participant-1="Consumer" data-participant-2="UAPRecord"><polygon fill="#181818" points="363.0479,282.937,373.0479,286.937,363.0479,290.937,367.0479,286.937" style="stroke:#181818;stroke-width:1;"/><line style="stroke:#181818;stroke-width:1;" x1="182.6235" x2="369.0479" y1="286.937" y2="286.937"/><text fill="#000000" font-family="Arial" font-size="13" lengthAdjust="spacing" textLength="93.9453" x="231.863" y="282.1821">parse(envelope)</text></g><g class="message" data-participant-1="UAPRecord" data-participant-2="Consumer"><polygon fill="#181818" points="193.6235,311.8857,183.6235,315.8857,193.6235,319.8857,189.6235,315.8857" style="stroke:#181818;stroke-width:1;"/><line style="stroke:#181818;stroke-width:1;stroke-dasharray:2,2;" x1="187.6235" x2="379.0479" y1="315.8857" y2="315.8857"/><text fill="#000000" font-family="Arial" font-size="13" lengthAdjust="spacing" textLength="65.7681" x="248.4517" y="311.1309">uap_record</text></g><line style="stroke:#000000;stroke-width:1;stroke-dasharray:2,2;" x1="107.7168" x2="434.0063" y1="324.8857" y2="324.8857"/><text fill="#000000" font-family="Arial" font-size="11" font-weight="bold" lengthAdjust="spacing" textLength="110.0161" x="112.7168" y="335.2036">[Ingest flat envelope]</text><g class="message" data-participant-1="Consumer" data-participant-2="UAPRecord"><polygon fill="#181818" points="363.0479,355.4834,373.0479,359.4834,363.0479,363.4834,367.0479,359.4834" style="stroke:#181818;stroke-width:1;"/><line style="stroke:#181818;stroke-width:1;" x1="182.6235" x2="369.0479" y1="359.4834" y2="359.4834"/><text fill="#000000" font-family="Arial" font-size="13" lengthAdjust="spacing" textLength="173.4243" x="192.1235" y="354.7285">from_ingest_record(envelope)</text></g><g class="message" data-participant-1="UAPRecord" data-participant-2="Consumer"><polygon fill="#181818" points="193.6235,384.4321,183.6235,388.4321,193.6235,392.4321,189.6235,388.4321" style="stroke:#181818;stroke-width:1;"/><line style="stroke:#181818;stroke-width:1;stroke-dasharray:2,2;" x1="187.6235" x2="379.0479" y1="388.4321" y2="388.4321"/><text fill="#000000" font-family="Arial" font-size="13" lengthAdjust="spacing" textLength="65.7681" x="248.4517" y="383.6772">uap_record</text></g><g class="message" data-participant-1="Consumer" data-participant-2="DomainRegistry"><polygon fill="#181818" points="473.7993,420.3809,483.7993,424.3809,473.7993,428.3809,477.7993,424.3809" style="stroke:#181818;stroke-width:1;"/><line style="stroke:#181818;stroke-width:1;" x1="182.6235" x2="479.7993" y1="424.3809" y2="424.3809"/><text fill="#000000" font-family="Arial" font-size="13" lengthAdjust="spacing" textLength="226.2051" x="221.1089" y="419.626">lookup(uap_record.domain_type_code)</text></g><g class="message" data-participant-1="DomainRegistry" data-participant-2="Consumer"><polygon fill="#181818" points="193.6235,449.3296,183.6235,453.3296,193.6235,457.3296,189.6235,453.3296" style="stroke:#181818;stroke-width:1;"/><line style="stroke:#181818;stroke-width:1;stroke-dasharray:2,2;" x1="187.6235" x2="489.7993" y1="453.3296" y2="453.3296"/><text fill="#000000" font-family="Arial" font-size="13" lengthAdjust="spacing" textLength="84.5571" x="294.4329" y="448.5747">domain_config</text></g><g class="message" data-participant-1="Consumer" data-participant-2="Ingestion"><polygon fill="#181818" points="604.792,508.1758,614.792,512.1758,604.792,516.1758,608.792,512.1758" style="stroke:#181818;stroke-width:1;"/><line style="stroke:#181818;stroke-width:1;" x1="182.6235" x2="610.792" y1="512.1758" y2="512.1758"/><text fill="#000000" font-family="Arial" font-size="13" lengthAdjust="spacing" textLength="145.2344" x="327.0906" y="477.5234">from_kafka([uap_record],</text><text fill="#000000" font-family="Arial" font-size="13" lengthAdjust="spacing" textLength="59.979" x="369.7183" y="492.4722">project_id,</text><text fill="#000000" font-family="Arial" font-size="13" lengthAdjust="spacing" textLength="94.8657" x="352.2749" y="507.4209">campaign_id="")</text></g><g class="message" data-participant-1="Ingestion" data-participant-2="Consumer"><polygon fill="#181818" points="193.6235,552.0732,183.6235,556.0732,193.6235,560.0732,189.6235,556.0732" style="stroke:#181818;stroke-width:1;"/><line style="stroke:#181818;stroke-width:1;stroke-dasharray:2,2;" x1="187.6235" x2="620.792" y1="556.0732" y2="556.0732"/><text fill="#000000" font-family="Arial" font-size="13" lengthAdjust="spacing" textLength="42.6499" x="380.8828" y="536.3696">bundle,</text><text fill="#000000" font-family="Arial" font-size="13" lengthAdjust="spacing" textLength="27.4536" x="388.481" y="551.3184">stats</text></g><g class="message" data-participant-1="Consumer" data-participant-2="Consumer"><line style="stroke:#181818;stroke-width:1;" x1="182.6235" x2="224.6235" y1="634.8682" y2="634.8682"/><line style="stroke:#181818;stroke-width:1;" x1="224.6235" x2="224.6235" y1="634.8682" y2="647.8682"/><line style="stroke:#181818;stroke-width:1;" x1="177.6235" x2="224.6235" y1="647.8682" y2="647.8682"/><polygon fill="#181818" points="187.6235,643.8682,177.6235,647.8682,187.6235,651.8682,183.6235,647.8682" style="stroke:#181818;stroke-width:1;"/><text fill="#000000" font-family="Arial" font-size="13" lengthAdjust="spacing" textLength="36.1309" x="227.9221" y="585.2671">create</text><text fill="#000000" font-family="Arial" font-size="13" lengthAdjust="spacing" textLength="112.728" x="189.6235" y="600.2158">RunContext(run_id,</text><text fill="#000000" font-family="Arial" font-size="13" lengthAdjust="spacing" textLength="59.979" x="215.998" y="615.1646">project_id,</text><text fill="#000000" font-family="Arial" font-size="13" lengthAdjust="spacing" textLength="53.479" x="219.248" y="630.1133">ontology)</text></g><path d="M182,661.8682 L182,688.8682 A6,6 0 0 0 188,694.8682 L382,694.8682 A6,6 0 0 0 388,688.8682 L388,665.8682 L378,655.8682 L188,655.8682 A6,6 0 0 0 182,661.8682" fill="#FEFFDD" style="stroke:#181818;stroke-width:0.5;"/><path d="M378,655.8682 L378,662.8682 A3,3 0 0 0 381,665.8682 L388,665.8682 L378,655.8682" fill="#FEFFDD" style="stroke:#181818;stroke-width:0.5;"/><text fill="#000000" font-family="Arial" font-size="13" lengthAdjust="spacing" textLength="183.5615" x="188" y="673.062">bundle.records and RunContext</text><text fill="#000000" font-family="Arial" font-size="13" lengthAdjust="spacing" textLength="185.0024" x="188" y="688.0107">are ready for pipeline execution.</text><!--SRC=[jLDDYzim4BtxLmmv9P0DRI-5GXVIBGjBFoXPzjIMC2kDlTh88rMIaxY_lhBZ3zbqePSUDNhlwRsPKL114smPTHsKyF09ymF27GSy4DngSyhyGR55XoL8oh7IuTPm-8fbP3c5EhdtJoZDIN41EMfFwGtzgeW5VI7liQ2jLWM380xa4fGZRmtx7lM1ulDRvym9WgjIkHBF7UPU_IPu-oeLCHLBOHoJWzTliYnMOp1baGCiBkc2iKhyO1n2HsuL5e1T_2dd9bggIdBtv8xaMbHVcW8Vjjzs55-MBMOuJK4VJOcATrGe7rpT8gUbAVoE2_916NxmT8EUMi9GpB9BeAlhwy4Jl8jpqYfQlOJf6fMX2Eg8WKRp0-DgnXP64ZmQMRy4UVQ6DzgWzCi6jieor04-Ku6YRe83yJ4Epr86a4eCFOaQCQQdPGzSHUJWS6mT99IhgOSAxTxrA4b_8LFSmQvNa6iC_-8gTwRSgvRJgVzVYoopIPEdkn0rj367oYv7gOri8VjGMzetargDevrjqanivgxJ4OPpLMI9lPdAnD-mUdsl3isEBR-F_dwkmJhpJ2BibLo3mD9Y_Etny7wnIBoEIpngpXm-nf-iQGq-OF2fm-G3lB2Xmb43t5KSYu7EOUagRWsbvkALqQQ82ymcefqgdWAOVFmYq7dONB9vG9Q9QBCHBl88PGsvSM2LZN-F2UXCeceSRfePGoEV1kWV-0C0]--></g></svg>