<svg xmlns="http://www.w3.org/2000/svg" xmlns:xlink="http://www.w3.org/1999/xlink" contentStyleType="text/css" data-diagram-type="SEQUENCE" height="1809px" preserveAspectRatio="none" style="width:1285px;height:1809px;background:#FFFFFF;" version="1.1" viewBox="0 0 1285 1809" width="1285px" zoomAndPan="magnify"><title>Project Lifecycle Control Flow</title><defs/><g><text fill="#000000" font-family="Arial" font-size="14" font-weight="bold" lengthAdjust="spacing" textLength="200.7031" x="541.4771" y="28.1318">Project Lifecycle Control Flow</text><g><title>Project Handler</title><rect fill="#FFFFFF" height="1547.2632" style="stroke:#181818;stroke-width:1;" width="10" x="178.418" y="164.0947"/></g><g><title>Lifecycle UseCase</title><rect fill="#FFFFFF" height="1372.6733" style="stroke:#181818;stroke-width:1;" width="10" x="341.0215" y="294.7871"/></g><g><title>Project Repo</title><rect fill="#FFFFFF" height="131.6924" style="stroke:#181818;stroke-width:1;" width="10" x="482.7559" y="323.7358"/></g><g><title>Project Repo</title><rect fill="#FFFFFF" height="131.6924" style="stroke:#181818;stroke-width:1;" width="10" x="482.7559" y="1330.2808"/></g><g><title>PostgreSQL</title><rect fill="#FFFFFF" height="43.8975" style="stroke:#181818;stroke-width:1;" width="10" x="599.9058" y="382.582"/></g><g><title>PostgreSQL</title><rect fill="#FFFFFF" height="43.8975" style="stroke:#181818;stroke-width:1;" width="10" x="599.9058" y="1374.1782"/></g><g><title>Ingest Client</title><rect fill="#FFFFFF" height="131.6924" style="stroke:#181818;stroke-width:1;" width="10" x="696.9468" y="523.2744"/></g><g><title>Ingest Client</title><rect fill="#FFFFFF" height="101.7949" style="stroke:#181818;stroke-width:1;" width="10" x="696.9468" y="713.813"/></g><g><title>Ingest Client</title><rect fill="#FFFFFF" height="101.7949" style="stroke:#181818;stroke-width:1;" width="10" x="696.9468" y="859.2056"/></g><g><title>Ingest Client</title><rect fill="#FFFFFF" height="101.7949" style="stroke:#181818;stroke-width:1;" width="10" x="696.9468" y="1004.5981"/></g><g><title>ingest-srv</title><rect fill="#FFFFFF" height="43.8975" style="stroke:#181818;stroke-width:1;" width="10" x="999.4546" y="567.1719"/></g><g><title>ingest-srv</title><rect fill="#FFFFFF" height="28.9487" style="stroke:#181818;stroke-width:1;" width="10" x="999.4546" y="757.7104"/></g><g><title>ingest-srv</title><rect fill="#FFFFFF" height="28.9487" style="stroke:#181818;stroke-width:1;" width="10" x="999.4546" y="903.103"/></g><g><title>ingest-srv</title><rect fill="#FFFFFF" height="28.9487" style="stroke:#181818;stroke-width:1;" width="10" x="999.4546" y="1048.4956"/></g><g><title>Lifecycle Event</title><rect fill="#FFFFFF" height="117.6924" style="stroke:#181818;stroke-width:1;" width="10" x="1100.875" y="1505.8706"/></g><rect fill="none" height="802.0063" rx="6" ry="6" style="stroke:#000000;stroke-width:1.5;" width="780.7432" x="271.0527" y="470.4282"/><g><title>UI</title><rect fill="#000000" fill-opacity="0.00000" height="1611.1606" width="8" x="14.5" y="118.1973"/><line style="stroke:#181818;stroke-width:0.5;stroke-dasharray:5,5;" x1="18" x2="18" y1="118.1973" y2="1729.3579"/></g><g><title>Project Handler</title><rect fill="#000000" fill-opacity="0.00000" height="1611.1606" width="8" x="179.418" y="118.1973"/><line style="stroke:#181818;stroke-width:0.5;stroke-dasharray:5,5;" x1="183.1733" x2="183.1733" y1="118.1973" y2="1729.3579"/></g><g><title>Lifecycle UseCase</title><rect fill="#000000" fill-opacity="0.00000" height="1611.1606" width="8" x="342.0215" y="118.1973"/><line style="stroke:#181818;stroke-width:0.5;stroke-dasharray:5,5;" x1="345.0527" x2="345.0527" y1="118.1973" y2="1729.3579"/></g><g><title>Project Repo</title><rect fill="#000000" fill-opacity="0.00000" height="1611.1606" width="8" x="483.7559" y="118.1973"/><line style="stroke:#181818;stroke-width:0.5;stroke-dasharray:5,5;" x1="487.2905" x2="487.2905" y1="118.1973" y2="1729.3579"/></g><g><title>PostgreSQL</title><rect fill="#000000" fill-opacity="0.00000" height="1611.1606" width="8" x="600.9058" y="118.1973"/><line style="stroke:#181818;stroke-width:0.5;stroke-dasharray:5,5;" x1="604.7749" x2="604.7749" y1="118.1973" y2="1729.3579"/></g><g><title>Ingest Client</title><rect fill="#000000" fill-opacity="0.00000" height="1611.1606" width="8" x="697.9468" y="118.1973"/><line style="stroke:#181818;stroke-width:0.5;stroke-dasharray:5,5;" x1="701.0366" x2="701.0366" y1="118.1973" y2="1729.3579"/></g><g><title>ingest-srv</title><rect fill="#000000" fill-opacity="0.00000" height="1611.1606" width="8" x="1000.4546" y="118.1973"/><line style="stroke:#181818;stroke-width:0.5;stroke-dasharray:5,5;" x1="1004.1133" x2="1004.1133" y1="118.1973" y2="1729.3579"/></g><g><title>Lifecycle Event</title><rect fill="#000000" fill-opacity="0.00000" height="1611.1606" width="8" x="1101.875" y="118.1973"/><line style="stroke:#181818;stroke-width:0.5;stroke-dasharray:5,5;" x1="1105.7959" x2="1105.7959" y1="118.1973" y2="1729.3579"/></g><g><title>Kafka topic</title><rect fill="#000000" fill-opacity="0.00000" height="1611.1606" width="8" x="1220.8057" y="118.1973"/><line style="stroke:#181818;stroke-width:0.5;stroke-dasharray:5,5;" x1="1223.9541" x2="1223.9541" y1="118.1973" y2="1729.3579"/></g><g class="participant participant-head" data-participant="UI"><text fill="#000000" font-family="Arial" font-size="14" lengthAdjust="spacing" textLength="14" x="8.5" y="115.2305">UI</text><ellipse cx="18.5" cy="50.5986" fill="#E2E2F0" rx="8" ry="8" style="stroke:#181818;stroke-width:0.5;"/><path d="M18.5,58.5986 L18.5,85.5986 M5.5,66.5986 L31.5,66.5986 M18.5,85.5986 L5.5,100.5986 M18.5,85.5986 L31.5,100.5986" fill="none" style="stroke:#181818;stroke-width:0.5;"/></g><g class="participant participant-tail" data-participant="UI"><text fill="#000000" font-family="Arial" font-size="14" lengthAdjust="spacing" textLength="14" x="8.5" y="1741.4897">UI</text><ellipse cx="18.5" cy="1752.9565" fill="#E2E2F0" rx="8" ry="8" style="stroke:#181818;stroke-width:0.5;"/><path d="M18.5,1760.9565 L18.5,1787.9565 M5.5,1768.9565 L31.5,1768.9565 M18.5,1787.9565 L5.5,1802.9565 M18.5,1787.9565 L31.5,1802.9565" fill="none" style="stroke:#181818;stroke-width:0.5;"/></g><g class="participant participant-head" data-participant="ProjectHandler"><rect fill="#E2E2F0" height="30.0986" rx="6" ry="6" style="stroke:#181818;stroke-width:0.5;" width="110.4893" x="128.1733" y="87.0986"/><text fill="#000000" font-family="Arial" font-size="14" lengthAdjust="spacing" textLength="96.4893" x="135.1733" y="107.2305">Project Handler</text></g><g class="participant participant-tail" data-participant="ProjectHandler"><rect fill="#E2E2F0" height="30.0986" rx="6" ry="6" style="stroke:#181818;stroke-width:0.5;" width="110.4893" x="128.1733" y="1728.3579"/><text fill="#000000" font-family="Arial" font-size="14" lengthAdjust="spacing" textLength="96.4893" x="135.1733" y="1748.4897">Project Handler</text></g><g class="participant participant-head" data-participant="LifecycleUC"><rect fill="#E2E2F0" height="30.0986" rx="6" ry="6" style="stroke:#181818;stroke-width:0.5;" width="129.9375" x="281.0527" y="87.0986"/><text fill="#000000" font-family="Arial" font-size="14" lengthAdjust="spacing" textLength="115.9375" x="288.0527" y="107.2305">Lifecycle UseCase</text></g><g class="participant participant-tail" data-participant="LifecycleUC"><rect fill="#E2E2F0" height="30.0986" rx="6" ry="6" style="stroke:#181818;stroke-width:0.5;" width="129.9375" x="281.0527" y="1728.3579"/><text fill="#000000" font-family="Arial" font-size="14" lengthAdjust="spacing" textLength="115.9375" x="288.0527" y="1748.4897">Lifecycle UseCase</text></g><g class="participant participant-head" data-participant="ProjectRepo"><rect fill="#E2E2F0" height="30.0986" rx="6" ry="6" style="stroke:#181818;stroke-width:0.5;" width="94.9307" x="440.2905" y="87.0986"/><text fill="#000000" font-family="Arial" font-size="14" lengthAdjust="spacing" textLength="80.9307" x="447.2905" y="107.2305">Project Repo</text></g><g class="participant participant-tail" data-participant="ProjectRepo"><rect fill="#E2E2F0" height="30.0986" rx="6" ry="6" style="stroke:#181818;stroke-width:0.5;" width="94.9307" x="440.2905" y="1728.3579"/><text fill="#000000" font-family="Arial" font-size="14" lengthAdjust="spacing" textLength="80.9307" x="447.2905" y="1748.4897">Project Repo</text></g><g class="participant participant-head" data-participant="PostgreSQL"><text fill="#000000" font-family="Arial" font-size="14" lengthAdjust="spacing" textLength="76.2617" x="563.7749" y="115.2305">PostgreSQL</text><path d="M586.9058,66.0986 C586.9058,56.0986 604.9058,56.0986 604.9058,56.0986 C604.9058,56.0986 622.9058,56.0986 622.9058,66.0986 L622.9058,92.0986 C622.9058,102.0986 604.9058,102.0986 604.9058,102.0986 C604.9058,102.0986 586.9058,102.0986 586.9058,92.0986 L586.9058,66.0986" fill="#E2E2F0" style="stroke:#181818;stroke-width:0.5;"/><path d="M586.9058,66.0986 C586.9058,76.0986 604.9058,76.0986 604.9058,76.0986 C604.9058,76.0986 622.9058,76.0986 622.9058,66.0986" fill="none" style="stroke:#181818;stroke-width:0.5;"/></g><g class="participant participant-tail" data-participant="PostgreSQL"><text fill="#000000" font-family="Arial" font-size="14" lengthAdjust="spacing" textLength="76.2617" x="563.7749" y="1741.4897">PostgreSQL</text><path d="M586.9058,1754.4565 C586.9058,1744.4565 604.9058,1744.4565 604.9058,1744.4565 C604.9058,1744.4565 622.9058,1744.4565 622.9058,1754.4565 L622.9058,1780.4565 C622.9058,1790.4565 604.9058,1790.4565 604.9058,1790.4565 C604.9058,1790.4565 586.9058,1790.4565 586.9058,1780.4565 L586.9058,1754.4565" fill="#E2E2F0" style="stroke:#181818;stroke-width:0.5;"/><path d="M586.9058,1754.4565 C586.9058,1764.4565 604.9058,1764.4565 604.9058,1764.4565 C604.9058,1764.4565 622.9058,1764.4565 622.9058,1754.4565" fill="none" style="stroke:#181818;stroke-width:0.5;"/></g><g class="participant participant-head" data-participant="IngestClient"><rect fill="#E2E2F0" height="30.0986" rx="6" ry="6" style="stroke:#181818;stroke-width:0.5;" width="91.8203" x="656.0366" y="87.0986"/><text fill="#000000" font-family="Arial" font-size="14" lengthAdjust="spacing" textLength="77.8203" x="663.0366" y="107.2305">Ingest Client</text></g><g class="participant participant-tail" data-participant="IngestClient"><rect fill="#E2E2F0" height="30.0986" rx="6" ry="6" style="stroke:#181818;stroke-width:0.5;" width="91.8203" x="656.0366" y="1728.3579"/><text fill="#000000" font-family="Arial" font-size="14" lengthAdjust="spacing" textLength="77.8203" x="663.0366" y="1748.4897">Ingest Client</text></g><g class="participant participant-head" data-participant="IngestService"><rect fill="#E2E2F0" height="30.0986" rx="6" ry="6" style="stroke:#181818;stroke-width:0.5;" width="74.6826" x="967.1133" y="87.0986"/><text fill="#000000" font-family="Arial" font-size="14" lengthAdjust="spacing" textLength="60.6826" x="974.1133" y="107.2305">ingest-srv</text></g><g class="participant participant-tail" data-participant="IngestService"><rect fill="#E2E2F0" height="30.0986" rx="6" ry="6" style="stroke:#181818;stroke-width:0.5;" width="74.6826" x="967.1133" y="1728.3579"/><text fill="#000000" font-family="Arial" font-size="14" lengthAdjust="spacing" textLength="60.6826" x="974.1133" y="1748.4897">ingest-srv</text></g><g class="participant participant-head" data-participant="Publisher"><rect fill="#E2E2F0" height="46.1973" rx="6" ry="6" style="stroke:#181818;stroke-width:0.5;" width="108.1582" x="1051.7959" y="71"/><text fill="#000000" font-family="Arial" font-size="14" lengthAdjust="spacing" textLength="94.1582" x="1058.7959" y="91.1318">Lifecycle Event</text><text fill="#000000" font-family="Arial" font-size="14" lengthAdjust="spacing" textLength="58.3652" x="1076.6924" y="107.2305">Publisher</text></g><g class="participant participant-tail" data-participant="Publisher"><rect fill="#E2E2F0" height="46.1973" rx="6" ry="6" style="stroke:#181818;stroke-width:0.5;" width="108.1582" x="1051.7959" y="1728.3579"/><text fill="#000000" font-family="Arial" font-size="14" lengthAdjust="spacing" textLength="94.1582" x="1058.7959" y="1748.4897">Lifecycle Event</text><text fill="#000000" font-family="Arial" font-size="14" lengthAdjust="spacing" textLength="58.3652" x="1076.6924" y="1764.5884">Publisher</text></g><g class="participant participant-head" data-participant="KafkaTopic"><rect fill="#E2E2F0" height="46.1973" rx="6" ry="6" style="stroke:#181818;stroke-width:0.5;" width="109.7031" x="1169.9541" y="71"/><text fill="#000000" font-family="Arial" font-size="14" lengthAdjust="spacing" textLength="69.2617" x="1190.1748" y="91.1318">Kafka topic</text><text fill="#000000" font-family="Arial" font-size="14" lengthAdjust="spacing" textLength="95.7031" x="1176.9541" y="107.2305">project.lifecycle</text></g><g class="participant participant-tail" data-participant="KafkaTopic"><rect fill="#E2E2F0" height="46.1973" rx="6" ry="6" style="stroke:#181818;stroke-width:0.5;" width="109.7031" x="1169.9541" y="1728.3579"/><text fill="#000000" font-family="Arial" font-size="14" lengthAdjust="spacing" textLength="69.2617" x="1190.1748" y="1748.4897">Kafka topic</text><text fill="#000000" font-family="Arial" font-size="14" lengthAdjust="spacing" textLength="95.7031" x="1176.9541" y="1764.5884">project.lifecycle</text></g><g><title>Project Handler</title><rect fill="#FFFFFF" height="1547.2632" style="stroke:#181818;stroke-width:1;" width="10" x="178.418" y="164.0947"/></g><g><title>Lifecycle UseCase</title><rect fill="#FFFFFF" height="1372.6733" style="stroke:#181818;stroke-width:1;" width="10" x="341.0215" y="294.7871"/></g><g><title>Project Repo</title><rect fill="#FFFFFF" height="131.6924" style="stroke:#181818;stroke-width:1;" width="10" x="482.7559" y="323.7358"/></g><g><title>Project Repo</title><rect fill="#FFFFFF" height="131.6924" style="stroke:#181818;stroke-width:1;" width="10" x="482.7559" y="1330.2808"/></g><g><title>PostgreSQL</title><rect fill="#FFFFFF" height="43.8975" style="stroke:#181818;stroke-width:1;" width="10" x="599.9058" y="382.582"/></g><g><title>PostgreSQL</title><rect fill="#FFFFFF" height="43.8975" style="stroke:#181818;stroke-width:1;" width="10" x="599.9058" y="1374.1782"/></g><g><title>Ingest Client</title><rect fill="#FFFFFF" height="131.6924" style="stroke:#181818;stroke-width:1;" width="10" x="696.9468" y="523.2744"/></g><g><title>Ingest Client</title><rect fill="#FFFFFF" height="101.7949" style="stroke:#181818;stroke-width:1;" width="10" x="696.9468" y="713.813"/></g><g><title>Ingest Client</title><rect fill="#FFFFFF" height="101.7949" style="stroke:#181818;stroke-width:1;" width="10" x="696.9468" y="859.2056"/></g><g><title>Ingest Client</title><rect fill="#FFFFFF" height="101.7949" style="stroke:#181818;stroke-width:1;" width="10" x="696.9468" y="1004.5981"/></g><g><title>ingest-srv</title><rect fill="#FFFFFF" height="43.8975" style="stroke:#181818;stroke-width:1;" width="10" x="999.4546" y="567.1719"/></g><g><title>ingest-srv</title><rect fill="#FFFFFF" height="28.9487" style="stroke:#181818;stroke-width:1;" width="10" x="999.4546" y="757.7104"/></g><g><title>ingest-srv</title><rect fill="#FFFFFF" height="28.9487" style="stroke:#181818;stroke-width:1;" width="10" x="999.4546" y="903.103"/></g><g><title>ingest-srv</title><rect fill="#FFFFFF" height="28.9487" style="stroke:#181818;stroke-width:1;" width="10" x="999.4546" y="1048.4956"/></g><g><title>Lifecycle Event</title><rect fill="#FFFFFF" height="117.6924" style="stroke:#181818;stroke-width:1;" width="10" x="1100.875" y="1505.8706"/></g><g class="message" data-participant-1="UI" data-participant-2="ProjectHandler"><polygon fill="#181818" points="166.418,160.0947,176.418,164.0947,166.418,168.0947,170.418,164.0947" style="stroke:#181818;stroke-width:1;"/><line style="stroke:#181818;stroke-width:1;" x1="18.5" x2="172.418" y1="164.0947" y2="164.0947"/><text fill="#000000" font-family="Arial" font-size="13" lengthAdjust="spacing" textLength="35.3945" x="80.7617" y="144.3911">POST</text><text fill="#000000" font-family="Arial" font-size="13" lengthAdjust="spacing" textLength="140.918" x="28" y="159.3398">/projects/{id}/{command}</text></g><g class="message" data-participant-1="ProjectHandler" data-participant-2="ProjectHandler"><line style="stroke:#181818;stroke-width:1;" x1="188.418" x2="230.418" y1="193.0435" y2="193.0435"/><line style="stroke:#181818;stroke-width:1;" x1="230.418" x2="230.418" y1="193.0435" y2="206.0435"/><line style="stroke:#181818;stroke-width:1;" x1="189.418" x2="230.418" y1="206.0435" y2="206.0435"/><polygon fill="#181818" points="199.418,202.0435,189.418,206.0435,199.418,210.0435,195.418,206.0435" style="stroke:#181818;stroke-width:1;"/><text fill="#000000" font-family="Arial" font-size="13" lengthAdjust="spacing" textLength="128.6035" x="195.418" y="188.2886">processLifecycleReq()</text></g><g class="message" data-participant-1="ProjectHandler" data-participant-2="LifecycleUC"><polygon fill="#181818" points="329.0215,290.7871,339.0215,294.7871,329.0215,298.7871,333.0215,294.7871" style="stroke:#181818;stroke-width:1;"/><line style="stroke:#181818;stroke-width:1;" x1="188.418" x2="335.0215" y1="294.7871" y2="294.7871"/><text fill="#000000" font-family="Arial" font-size="13" lengthAdjust="spacing" textLength="46.2427" x="237.9866" y="230.2373">Activate</text><text fill="#000000" font-family="Arial" font-size="13" lengthAdjust="spacing" textLength="3.6118" x="284.2292" y="230.2373">&#160;</text><text fill="#000000" font-family="Arial" font-size="13" lengthAdjust="spacing" textLength="3.6118" x="287.8411" y="230.2373">/</text><text fill="#000000" font-family="Arial" font-size="13" lengthAdjust="spacing" textLength="36.8608" x="242.6775" y="245.186">Pause</text><text fill="#000000" font-family="Arial" font-size="13" lengthAdjust="spacing" textLength="3.6118" x="279.5383" y="245.186">&#160;</text><text fill="#000000" font-family="Arial" font-size="13" lengthAdjust="spacing" textLength="3.6118" x="283.1501" y="245.186">/</text><text fill="#000000" font-family="Arial" font-size="13" lengthAdjust="spacing" textLength="48.4072" x="236.9043" y="260.1348">Resume</text><text fill="#000000" font-family="Arial" font-size="13" lengthAdjust="spacing" textLength="3.6118" x="285.3115" y="260.1348">&#160;</text><text fill="#000000" font-family="Arial" font-size="13" lengthAdjust="spacing" textLength="3.6118" x="288.9233" y="260.1348">/</text><text fill="#000000" font-family="Arial" font-size="13" lengthAdjust="spacing" textLength="43.3481" x="239.4338" y="275.0835">Archive</text><text fill="#000000" font-family="Arial" font-size="13" lengthAdjust="spacing" textLength="3.6118" x="282.782" y="275.0835">&#160;</text><text fill="#000000" font-family="Arial" font-size="13" lengthAdjust="spacing" textLength="3.6118" x="286.3938" y="275.0835">/</text><text fill="#000000" font-family="Arial" font-size="13" lengthAdjust="spacing" textLength="58.5254" x="235.457" y="290.0322">Unarchive</text></g><g class="message" data-participant-1="LifecycleUC" data-participant-2="ProjectRepo"><polygon fill="#181818" points="470.7559,319.7358,480.7559,323.7358,470.7559,327.7358,474.7559,323.7358" style="stroke:#181818;stroke-width:1;"/><line style="stroke:#181818;stroke-width:1;" x1="351.0215" x2="476.7559" y1="323.7358" y2="323.7358"/><text fill="#000000" font-family="Arial" font-size="13" lengthAdjust="spacing" textLength="52.0127" x="390.8823" y="318.981">Detail(id)</text></g><g class="message" data-participant-1="ProjectRepo" data-participant-2="PostgreSQL"><polygon fill="#181818" points="587.9058,378.582,597.9058,382.582,587.9058,386.582,591.9058,382.582" style="stroke:#181818;stroke-width:1;"/><line style="stroke:#181818;stroke-width:1;" x1="492.7559" x2="593.9058" y1="382.582" y2="382.582"/><text fill="#000000" font-family="Arial" font-size="13" lengthAdjust="spacing" textLength="50.5718" x="521.0449" y="347.9297">SELECT</text><text fill="#000000" font-family="Arial" font-size="13" lengthAdjust="spacing" textLength="39.019" x="518.1504" y="362.8784">project</text><text fill="#000000" font-family="Arial" font-size="13" lengthAdjust="spacing" textLength="3.6118" x="557.1694" y="362.8784">&#160;</text><text fill="#000000" font-family="Arial" font-size="13" lengthAdjust="spacing" textLength="13.73" x="560.7813" y="362.8784">by</text><text fill="#000000" font-family="Arial" font-size="13" lengthAdjust="spacing" textLength="10.1182" x="541.2717" y="377.8271">id</text></g><g class="message" data-participant-1="PostgreSQL" data-participant-2="ProjectRepo"><polygon fill="#181818" points="503.7559,422.4795,493.7559,426.4795,503.7559,430.4795,499.7559,426.4795" style="stroke:#181818;stroke-width:1;"/><line style="stroke:#181818;stroke-width:1;stroke-dasharray:2,2;" x1="497.7559" x2="603.9058" y1="426.4795" y2="426.4795"/><text fill="#000000" font-family="Arial" font-size="13" lengthAdjust="spacing" textLength="40.46" x="528.6008" y="406.7759">current</text><text fill="#000000" font-family="Arial" font-size="13" lengthAdjust="spacing" textLength="39.019" x="529.3213" y="421.7246">project</text></g><g class="message" data-participant-1="ProjectRepo" data-participant-2="LifecycleUC"><polygon fill="#181818" points="362.0215,451.4282,352.0215,455.4282,362.0215,459.4282,358.0215,455.4282" style="stroke:#181818;stroke-width:1;"/><line style="stroke:#181818;stroke-width:1;stroke-dasharray:2,2;" x1="356.0215" x2="486.7559" y1="455.4282" y2="455.4282"/><text fill="#000000" font-family="Arial" font-size="13" lengthAdjust="spacing" textLength="39.019" x="399.8792" y="450.6733">project</text></g><path d="M277.0527,470.4282 L331.2236,470.4282 L331.2236,477.377 L321.2236,487.377 L271.0527,487.377 L271.0527,476.4282 A6,6 0 0 1 277.0527,470.4282" fill="#EEEEEE" style="stroke:#000000;stroke-width:1.5;"/><rect fill="none" height="802.0063" rx="6" ry="6" style="stroke:#000000;stroke-width:1.5;" width="780.7432" x="271.0527" y="470.4282"/><text fill="#000000" font-family="Arial" font-size="13" font-weight="bold" lengthAdjust="spacing" textLength="15.1709" x="286.0527" y="483.6221">alt</text><text fill="#000000" font-family="Arial" font-size="11" font-weight="bold" lengthAdjust="spacing" textLength="104.543" x="346.2236" y="482.7461">[activate or resume]</text><g class="message" data-participant-1="LifecycleUC" data-participant-2="IngestClient"><polygon fill="#181818" points="684.9468,519.2744,694.9468,523.2744,684.9468,527.2744,688.9468,523.2744" style="stroke:#181818;stroke-width:1;"/><line style="stroke:#181818;stroke-width:1;" x1="351.0215" x2="690.9468" y1="523.2744" y2="523.2744"/><text fill="#000000" font-family="Arial" font-size="13" lengthAdjust="spacing" textLength="203.0488" x="422.4597" y="503.5708">GetActivationReadiness(project_id,</text><text fill="#000000" font-family="Arial" font-size="13" lengthAdjust="spacing" textLength="61.4072" x="493.2805" y="518.5195">command)</text></g><g class="message" data-participant-1="IngestClient" data-participant-2="IngestService"><polygon fill="#181818" points="987.4546,563.1719,997.4546,567.1719,987.4546,571.1719,991.4546,567.1719" style="stroke:#181818;stroke-width:1;"/><line style="stroke:#181818;stroke-width:1;" x1="706.9468" x2="993.4546" y1="567.1719" y2="567.1719"/><text fill="#000000" font-family="Arial" font-size="13" lengthAdjust="spacing" textLength="26.7236" x="839.8389" y="547.4683">GET</text><text fill="#000000" font-family="Arial" font-size="13" lengthAdjust="spacing" textLength="273.5078" x="716.4468" y="562.417">/projects/{id}/activation-readiness?command=...</text></g><g class="message" data-participant-1="IngestService" data-participant-2="IngestClient"><polygon fill="#181818" points="717.9468,607.0693,707.9468,611.0693,717.9468,615.0693,713.9468,611.0693" style="stroke:#181818;stroke-width:1;"/><line style="stroke:#181818;stroke-width:1;stroke-dasharray:2,2;" x1="711.9468" x2="1003.4546" y1="611.0693" y2="611.0693"/><text fill="#000000" font-family="Arial" font-size="13" lengthAdjust="spacing" textLength="56.3672" x="827.5171" y="591.3657">readiness</text><text fill="#000000" font-family="Arial" font-size="13" lengthAdjust="spacing" textLength="31.7891" x="839.8062" y="606.3145">result</text></g><g class="message" data-participant-1="IngestClient" data-participant-2="LifecycleUC"><polygon fill="#181818" points="362.0215,650.9668,352.0215,654.9668,362.0215,658.9668,358.0215,654.9668" style="stroke:#181818;stroke-width:1;"/><line style="stroke:#181818;stroke-width:1;stroke-dasharray:2,2;" x1="356.0215" x2="700.9468" y1="654.9668" y2="654.9668"/><text fill="#000000" font-family="Arial" font-size="13" lengthAdjust="spacing" textLength="72.2681" x="490.3501" y="635.2632">CanProceed</text><text fill="#000000" font-family="Arial" font-size="13" lengthAdjust="spacing" textLength="7.5918" x="503.9087" y="650.2119">+</text><text fill="#000000" font-family="Arial" font-size="13" lengthAdjust="spacing" textLength="3.6118" x="511.5005" y="650.2119">&#160;</text><text fill="#000000" font-family="Arial" font-size="13" lengthAdjust="spacing" textLength="33.9473" x="515.1123" y="650.2119">errors</text></g><g class="message" data-participant-1="LifecycleUC" data-participant-2="IngestClient"><polygon fill="#181818" points="684.9468,709.813,694.9468,713.813,684.9468,717.813,688.9468,713.813" style="stroke:#181818;stroke-width:1;"/><line style="stroke:#181818;stroke-width:1;" x1="351.0215" x2="690.9468" y1="713.813" y2="713.813"/><text fill="#000000" font-family="Arial" font-size="13" lengthAdjust="spacing" textLength="111.2681" x="468.3501" y="679.1606">Activate(project_id)</text><text fill="#000000" font-family="Arial" font-size="13" lengthAdjust="spacing" textLength="11.5591" x="518.2046" y="694.1094">or</text><text fill="#000000" font-family="Arial" font-size="13" lengthAdjust="spacing" textLength="113.4326" x="467.2678" y="709.0581">Resume(project_id)</text></g><g class="message" data-participant-1="IngestClient" data-participant-2="IngestService"><polygon fill="#181818" points="987.4546,753.7104,997.4546,757.7104,987.4546,761.7104,991.4546,757.7104" style="stroke:#181818;stroke-width:1;"/><line style="stroke:#181818;stroke-width:1;" x1="706.9468" x2="993.4546" y1="757.7104" y2="757.7104"/><text fill="#000000" font-family="Arial" font-size="13" lengthAdjust="spacing" textLength="35.3945" x="835.5034" y="738.0068">POST</text><text fill="#000000" font-family="Arial" font-size="13" lengthAdjust="spacing" textLength="166.6831" x="769.8591" y="752.9556">/projects/{id}/activate|resume</text></g><g class="message" data-participant-1="IngestService" data-participant-2="IngestClient"><polygon fill="#181818" points="717.9468,782.6592,707.9468,786.6592,717.9468,790.6592,713.9468,786.6592" style="stroke:#181818;stroke-width:1;"/><line style="stroke:#181818;stroke-width:1;stroke-dasharray:2,2;" x1="711.9468" x2="1003.4546" y1="786.6592" y2="786.6592"/><text fill="#000000" font-family="Arial" font-size="13" lengthAdjust="spacing" textLength="21.6899" x="833.6584" y="781.9043">200</text><text fill="#000000" font-family="Arial" font-size="13" lengthAdjust="spacing" textLength="3.6118" x="855.3484" y="781.9043">&#160;</text><text fill="#000000" font-family="Arial" font-size="13" lengthAdjust="spacing" textLength="18.7827" x="858.9602" y="781.9043">OK</text></g><g class="message" data-participant-1="IngestClient" data-participant-2="LifecycleUC"><polygon fill="#181818" points="362.0215,811.6079,352.0215,815.6079,362.0215,819.6079,358.0215,815.6079" style="stroke:#181818;stroke-width:1;"/><line style="stroke:#181818;stroke-width:1;stroke-dasharray:2,2;" x1="356.0215" x2="700.9468" y1="815.6079" y2="815.6079"/><text fill="#000000" font-family="Arial" font-size="13" lengthAdjust="spacing" textLength="13.73" x="519.6191" y="810.853">ok</text></g><line style="stroke:#000000;stroke-width:1;stroke-dasharray:2,2;" x1="271.0527" x2="1051.7959" y1="824.6079" y2="824.6079"/><text fill="#000000" font-family="Arial" font-size="11" font-weight="bold" lengthAdjust="spacing" textLength="39.1177" x="276.0527" y="834.9258">[pause]</text><g class="message" data-participant-1="LifecycleUC" data-participant-2="IngestClient"><polygon fill="#181818" points="684.9468,855.2056,694.9468,859.2056,684.9468,863.2056,688.9468,859.2056" style="stroke:#181818;stroke-width:1;"/><line style="stroke:#181818;stroke-width:1;" x1="351.0215" x2="690.9468" y1="859.2056" y2="859.2056"/><text fill="#000000" font-family="Arial" font-size="13" lengthAdjust="spacing" textLength="101.8862" x="473.041" y="854.4507">Pause(project_id)</text></g><g class="message" data-participant-1="IngestClient" data-participant-2="IngestService"><polygon fill="#181818" points="987.4546,899.103,997.4546,903.103,987.4546,907.103,991.4546,903.103" style="stroke:#181818;stroke-width:1;"/><line style="stroke:#181818;stroke-width:1;" x1="706.9468" x2="993.4546" y1="903.103" y2="903.103"/><text fill="#000000" font-family="Arial" font-size="13" lengthAdjust="spacing" textLength="35.3945" x="835.5034" y="883.3994">POST</text><text fill="#000000" font-family="Arial" font-size="13" lengthAdjust="spacing" textLength="110.5762" x="797.9126" y="898.3481">/projects/{id}/pause</text></g><g class="message" data-participant-1="IngestService" data-participant-2="IngestClient"><polygon fill="#181818" points="717.9468,928.0518,707.9468,932.0518,717.9468,936.0518,713.9468,932.0518" style="stroke:#181818;stroke-width:1;"/><line style="stroke:#181818;stroke-width:1;stroke-dasharray:2,2;" x1="711.9468" x2="1003.4546" y1="932.0518" y2="932.0518"/><text fill="#000000" font-family="Arial" font-size="13" lengthAdjust="spacing" textLength="21.6899" x="833.6584" y="927.2969">200</text><text fill="#000000" font-family="Arial" font-size="13" lengthAdjust="spacing" textLength="3.6118" x="855.3484" y="927.2969">&#160;</text><text fill="#000000" font-family="Arial" font-size="13" lengthAdjust="spacing" textLength="18.7827" x="858.9602" y="927.2969">OK</text></g><g class="message" data-participant-1="IngestClient" data-participant-2="LifecycleUC"><polygon fill="#181818" points="362.0215,957.0005,352.0215,961.0005,362.0215,965.0005,358.0215,961.0005" style="stroke:#181818;stroke-width:1;"/><line style="stroke:#181818;stroke-width:1;stroke-dasharray:2,2;" x1="356.0215" x2="700.9468" y1="961.0005" y2="961.0005"/><text fill="#000000" font-family="Arial" font-size="13" lengthAdjust="spacing" textLength="13.73" x="519.6191" y="956.2456">ok</text></g><line style="stroke:#000000;stroke-width:1;stroke-dasharray:2,2;" x1="271.0527" x2="1051.7959" y1="970.0005" y2="970.0005"/><text fill="#000000" font-family="Arial" font-size="11" font-weight="bold" lengthAdjust="spacing" textLength="119.8291" x="276.0527" y="980.3184">[archive active project]</text><g class="message" data-participant-1="LifecycleUC" data-participant-2="IngestClient"><polygon fill="#181818" points="684.9468,1000.5981,694.9468,1004.5981,684.9468,1008.5981,688.9468,1004.5981" style="stroke:#181818;stroke-width:1;"/><line style="stroke:#181818;stroke-width:1;" x1="351.0215" x2="690.9468" y1="1004.5981" y2="1004.5981"/><text fill="#000000" font-family="Arial" font-size="13" lengthAdjust="spacing" textLength="101.8862" x="473.041" y="999.8433">Pause(project_id)</text></g><g class="message" data-participant-1="IngestClient" data-participant-2="IngestService"><polygon fill="#181818" points="987.4546,1044.4956,997.4546,1048.4956,987.4546,1052.4956,991.4546,1048.4956" style="stroke:#181818;stroke-width:1;"/><line style="stroke:#181818;stroke-width:1;" x1="706.9468" x2="993.4546" y1="1048.4956" y2="1048.4956"/><text fill="#000000" font-family="Arial" font-size="13" lengthAdjust="spacing" textLength="35.3945" x="835.5034" y="1028.792">POST</text><text fill="#000000" font-family="Arial" font-size="13" lengthAdjust="spacing" textLength="110.5762" x="797.9126" y="1043.7407">/projects/{id}/pause</text></g><g class="message" data-participant-1="IngestService" data-participant-2="IngestClient"><polygon fill="#181818" points="717.9468,1073.4443,707.9468,1077.4443,717.9468,1081.4443,713.9468,1077.4443" style="stroke:#181818;stroke-width:1;"/><line style="stroke:#181818;stroke-width:1;stroke-dasharray:2,2;" x1="711.9468" x2="1003.4546" y1="1077.4443" y2="1077.4443"/><text fill="#000000" font-family="Arial" font-size="13" lengthAdjust="spacing" textLength="21.6899" x="833.6584" y="1072.6895">200</text><text fill="#000000" font-family="Arial" font-size="13" lengthAdjust="spacing" textLength="3.6118" x="855.3484" y="1072.6895">&#160;</text><text fill="#000000" font-family="Arial" font-size="13" lengthAdjust="spacing" textLength="18.7827" x="858.9602" y="1072.6895">OK</text></g><g class="message" data-participant-1="IngestClient" data-participant-2="LifecycleUC"><polygon fill="#181818" points="362.0215,1102.3931,352.0215,1106.3931,362.0215,1110.3931,358.0215,1106.3931" style="stroke:#181818;stroke-width:1;"/><line style="stroke:#181818;stroke-width:1;stroke-dasharray:2,2;" x1="356.0215" x2="700.9468" y1="1106.3931" y2="1106.3931"/><text fill="#000000" font-family="Arial" font-size="13" lengthAdjust="spacing" textLength="13.73" x="519.6191" y="1101.6382">ok</text></g><line style="stroke:#000000;stroke-width:1;stroke-dasharray:2,2;" x1="271.0527" x2="1051.7959" y1="1115.3931" y2="1115.3931"/><text fill="#000000" font-family="Arial" font-size="11" font-weight="bold" lengthAdjust="spacing" textLength="187.0322" x="276.0527" y="1125.7109">[archive pending or paused project]</text><g class="message" data-participant-1="LifecycleUC" data-participant-2="LifecycleUC"><line style="stroke:#181818;stroke-width:1;" x1="351.0215" x2="393.0215" y1="1164.9395" y2="1164.9395"/><line style="stroke:#181818;stroke-width:1;" x1="393.0215" x2="393.0215" y1="1164.9395" y2="1177.9395"/><line style="stroke:#181818;stroke-width:1;" x1="352.0215" x2="393.0215" y1="1177.9395" y2="1177.9395"/><polygon fill="#181818" points="362.0215,1173.9395,352.0215,1177.9395,362.0215,1181.9395,358.0215,1177.9395" style="stroke:#181818;stroke-width:1;"/><text fill="#000000" font-family="Arial" font-size="13" lengthAdjust="spacing" textLength="23.1182" x="358.0215" y="1145.2358">skip</text><text fill="#000000" font-family="Arial" font-size="13" lengthAdjust="spacing" textLength="3.6118" x="381.1396" y="1145.2358">&#160;</text><text fill="#000000" font-family="Arial" font-size="13" lengthAdjust="spacing" textLength="34.6899" x="384.7515" y="1145.2358">ingest</text><text fill="#000000" font-family="Arial" font-size="13" lengthAdjust="spacing" textLength="19.5063" x="378.9783" y="1160.1846">call</text></g><line style="stroke:#000000;stroke-width:1;stroke-dasharray:2,2;" x1="271.0527" x2="1051.7959" y1="1186.9395" y2="1186.9395"/><text fill="#000000" font-family="Arial" font-size="11" font-weight="bold" lengthAdjust="spacing" textLength="147.3237" x="276.0527" y="1197.2573">[unarchive archived project]</text><g class="message" data-participant-1="LifecycleUC" data-participant-2="LifecycleUC"><line style="stroke:#181818;stroke-width:1;" x1="351.0215" x2="393.0215" y1="1251.4346" y2="1251.4346"/><line style="stroke:#181818;stroke-width:1;" x1="393.0215" x2="393.0215" y1="1251.4346" y2="1264.4346"/><line style="stroke:#181818;stroke-width:1;" x1="352.0215" x2="393.0215" y1="1264.4346" y2="1264.4346"/><polygon fill="#181818" points="362.0215,1260.4346,352.0215,1264.4346,362.0215,1268.4346,358.0215,1264.4346" style="stroke:#181818;stroke-width:1;"/><text fill="#000000" font-family="Arial" font-size="13" lengthAdjust="spacing" textLength="14.46" x="358.0215" y="1216.7822">no</text><text fill="#000000" font-family="Arial" font-size="13" lengthAdjust="spacing" textLength="3.6118" x="372.4814" y="1216.7822">&#160;</text><text fill="#000000" font-family="Arial" font-size="13" lengthAdjust="spacing" textLength="34.6899" x="376.0933" y="1216.7822">ingest</text><text fill="#000000" font-family="Arial" font-size="13" lengthAdjust="spacing" textLength="19.5063" x="374.6492" y="1231.731">call</text><text fill="#000000" font-family="Arial" font-size="13" lengthAdjust="spacing" textLength="47.6963" x="360.5542" y="1246.6797">required</text></g><g class="message" data-participant-1="LifecycleUC" data-participant-2="ProjectRepo"><polygon fill="#181818" points="470.7559,1326.2808,480.7559,1330.2808,470.7559,1334.2808,474.7559,1330.2808" style="stroke:#181818;stroke-width:1;"/><line style="stroke:#181818;stroke-width:1;" x1="351.0215" x2="476.7559" y1="1330.2808" y2="1330.2808"/><text fill="#000000" font-family="Arial" font-size="13" lengthAdjust="spacing" textLength="96.8335" x="368.4719" y="1295.6284">UpdateStatus(id,</text><text fill="#000000" font-family="Arial" font-size="13" lengthAdjust="spacing" textLength="69.3735" x="382.2019" y="1310.5771">new_status,</text><text fill="#000000" font-family="Arial" font-size="13" lengthAdjust="spacing" textLength="112.7344" x="360.5215" y="1325.5259">expected_statuses)</text></g><g class="message" data-participant-1="ProjectRepo" data-participant-2="PostgreSQL"><polygon fill="#181818" points="587.9058,1370.1782,597.9058,1374.1782,587.9058,1378.1782,591.9058,1374.1782" style="stroke:#181818;stroke-width:1;"/><line style="stroke:#181818;stroke-width:1;" x1="492.7559" x2="593.9058" y1="1374.1782" y2="1374.1782"/><text fill="#000000" font-family="Arial" font-size="13" lengthAdjust="spacing" textLength="52.73" x="519.9658" y="1354.4746">UPDATE</text><text fill="#000000" font-family="Arial" font-size="13" lengthAdjust="spacing" textLength="88.1499" x="502.2559" y="1369.4233">project.projects</text></g><g class="message" data-participant-1="PostgreSQL" data-participant-2="ProjectRepo"><polygon fill="#181818" points="503.7559,1414.0757,493.7559,1418.0757,503.7559,1422.0757,499.7559,1418.0757" style="stroke:#181818;stroke-width:1;"/><line style="stroke:#181818;stroke-width:1;stroke-dasharray:2,2;" x1="497.7559" x2="603.9058" y1="1418.0757" y2="1418.0757"/><text fill="#000000" font-family="Arial" font-size="13" lengthAdjust="spacing" textLength="46.9917" x="525.335" y="1398.3721">updated</text><text fill="#000000" font-family="Arial" font-size="13" lengthAdjust="spacing" textLength="39.019" x="517.0417" y="1413.3208">project</text><text fill="#000000" font-family="Arial" font-size="13" lengthAdjust="spacing" textLength="3.6118" x="556.0608" y="1413.3208">&#160;</text><text fill="#000000" font-family="Arial" font-size="13" lengthAdjust="spacing" textLength="20.9473" x="559.6726" y="1413.3208">row</text></g><g class="message" data-participant-1="ProjectRepo" data-participant-2="LifecycleUC"><polygon fill="#181818" points="362.0215,1457.9731,352.0215,1461.9731,362.0215,1465.9731,358.0215,1461.9731" style="stroke:#181818;stroke-width:1;"/><line style="stroke:#181818;stroke-width:1;stroke-dasharray:2,2;" x1="356.0215" x2="486.7559" y1="1461.9731" y2="1461.9731"/><text fill="#000000" font-family="Arial" font-size="13" lengthAdjust="spacing" textLength="46.9917" x="395.8928" y="1442.2695">updated</text><text fill="#000000" font-family="Arial" font-size="13" lengthAdjust="spacing" textLength="39.019" x="399.8792" y="1457.2183">project</text></g><g class="message" data-participant-1="LifecycleUC" data-participant-2="Publisher"><polygon fill="#181818" points="1088.875,1501.8706,1098.875,1505.8706,1088.875,1509.8706,1092.875,1505.8706" style="stroke:#181818;stroke-width:1;"/><line style="stroke:#181818;stroke-width:1;" x1="351.0215" x2="1094.875" y1="1505.8706" y2="1505.8706"/><text fill="#000000" font-family="Arial" font-size="13" lengthAdjust="spacing" textLength="166.2007" x="642.8479" y="1486.167">PublishLifecycleEvent(event,</text><text fill="#000000" font-family="Arial" font-size="13" lengthAdjust="spacing" textLength="43.3481" x="704.2742" y="1501.1157">project)</text></g><g class="message" data-participant-1="Publisher" data-participant-2="KafkaTopic"><line style="stroke:#181818;stroke-width:1;" x1="1222.8057" x2="1212.8057" y1="1564.7168" y2="1560.7168"/><line style="stroke:#181818;stroke-width:1;" x1="1222.8057" x2="1212.8057" y1="1564.7168" y2="1568.7168"/><line style="stroke:#181818;stroke-width:1;" x1="1110.875" x2="1223.8057" y1="1564.7168" y2="1564.7168"/><text fill="#000000" font-family="Arial" font-size="13" lengthAdjust="spacing" textLength="41.1963" x="1147.2422" y="1530.0645">publish</text><text fill="#000000" font-family="Arial" font-size="13" lengthAdjust="spacing" textLength="46.2363" x="1144.7222" y="1545.0132">lifecycle</text><text fill="#000000" font-family="Arial" font-size="13" lengthAdjust="spacing" textLength="31.8018" x="1151.9395" y="1559.9619">event</text></g><g class="message" data-participant-1="Publisher" data-participant-2="LifecycleUC"><polygon fill="#181818" points="362.0215,1619.563,352.0215,1623.563,362.0215,1627.563,358.0215,1623.563" style="stroke:#181818;stroke-width:1;"/><line style="stroke:#181818;stroke-width:1;stroke-dasharray:2,2;" x1="356.0215" x2="1104.875" y1="1623.563" y2="1623.563"/><text fill="#000000" font-family="Arial" font-size="13" lengthAdjust="spacing" textLength="13.73" x="713.9978" y="1588.9106">ok</text><text fill="#000000" font-family="Arial" font-size="13" lengthAdjust="spacing" textLength="3.6118" x="727.7278" y="1588.9106">&#160;</text><text fill="#000000" font-family="Arial" font-size="13" lengthAdjust="spacing" textLength="11.5591" x="731.3396" y="1588.9106">or</text><text fill="#000000" font-family="Arial" font-size="13" lengthAdjust="spacing" textLength="39.0381" x="708.9292" y="1603.8594">logged</text><text fill="#000000" font-family="Arial" font-size="13" lengthAdjust="spacing" textLength="27.4473" x="714.7246" y="1618.8081">error</text></g><g class="message" data-participant-1="LifecycleUC" data-participant-2="ProjectHandler"><polygon fill="#181818" points="199.418,1663.4604,189.418,1667.4604,199.418,1671.4604,195.418,1667.4604" style="stroke:#181818;stroke-width:1;"/><line style="stroke:#181818;stroke-width:1;stroke-dasharray:2,2;" x1="193.418" x2="345.0215" y1="1667.4604" y2="1667.4604"/><text fill="#000000" font-family="Arial" font-size="13" lengthAdjust="spacing" textLength="46.2363" x="244.1016" y="1647.7568">lifecycle</text><text fill="#000000" font-family="Arial" font-size="13" lengthAdjust="spacing" textLength="36.1436" x="249.1479" y="1662.7056">output</text></g><g class="message" data-participant-1="ProjectHandler" data-participant-2="UI"><polygon fill="#181818" points="29.5,1707.3579,19.5,1711.3579,29.5,1715.3579,25.5,1711.3579" style="stroke:#181818;stroke-width:1;"/><line style="stroke:#181818;stroke-width:1;stroke-dasharray:2,2;" x1="23.5" x2="182.418" y1="1711.3579" y2="1711.3579"/><text fill="#000000" font-family="Arial" font-size="13" lengthAdjust="spacing" textLength="21.6899" x="73.3149" y="1691.6543">200</text><text fill="#000000" font-family="Arial" font-size="13" lengthAdjust="spacing" textLength="3.6118" x="95.0049" y="1691.6543">&#160;</text><text fill="#000000" font-family="Arial" font-size="13" lengthAdjust="spacing" textLength="18.7827" x="98.6167" y="1691.6543">OK</text><text fill="#000000" font-family="Arial" font-size="13" lengthAdjust="spacing" textLength="3.6118" x="117.3994" y="1691.6543">&#160;</text><text fill="#000000" font-family="Arial" font-size="13" lengthAdjust="spacing" textLength="7.5918" x="121.0112" y="1691.6543">+</text><text fill="#000000" font-family="Arial" font-size="13" lengthAdjust="spacing" textLength="23.8481" x="69.8872" y="1706.603">new</text><text fill="#000000" font-family="Arial" font-size="13" lengthAdjust="spacing" textLength="3.6118" x="93.7354" y="1706.603">&#160;</text><text fill="#000000" font-family="Arial" font-size="13" lengthAdjust="spacing" textLength="34.6836" x="97.3472" y="1706.603">status</text></g><!--SRC=[xLPHRnCn37w_Ns7jgHLhDtX1GcAeb08LWvLrVPiqPNTU5vOcjoJN0cF_7UVkakRQ6sD3I3pmqbuI-xFzsObjkHK84ws-O6hXa5zW-YsbdQ6ILYi1RuLQ9UQAovnfje0CBrWXx5iw_SGM20FDcOZEpINBr8hBELmmOJ0-mUi2POeVqHWsnu7WSmafIeiwaj9eSYMDbtgDP7wWjLg1rKKCjs1VQvaf_uxmV3y6KONCKgKbQdZwB4bOQfM6dTbu1vY1sJWXCSjJdZDfOSV7_fx9JA0kPUgzUgifl-PePd3839OQONSsR8S_nbp5s6wTPCooSu8WCMNiNEFqys4b59PDjB6Sex4m59oOAoMhdMgZASlBavxHoqXmYdh9KxmhfD6IO4xbf3WNt5nwDloggVM1NLmni2hdwQdCgwZwmaELcgN8YPD8ajaOUWSRpC8Bc1nDJs2lLZTxDpoxtRj9rM914hSkTNp9B6vcP0Ec3PWWKwgG4DinNdUwBOfHvaXhu0tkmOGLnlqVeoaMxcEWqqk-T5ypoQhljODn0IGnvjetbt8oyGOjuwB3i-vMU6LHnD9EEPG2wKv7XwFX2THqmVatu5c4igwQIAktvK5QQ4rvzZ19XgqGiHzRHBNfHa4aJ5W89tJzTCbY0h31JLo_1FiERPq2hkGnienBIcAdjdR6irseYwDBMC50unP04pGOgMlVMHbjrHmBLdlQctrLcthPx_UthVch11lmlUse0c99Wt0kHhormtdljvWVCZbnjOqPF06anr6RDhoQZ7iPznKVSTnr2QlAFjxz0yBRRhd7-X5Au_44FzlVXwCFVqIhkle5YqZD37Bt8DpBP_bi_4NQl1V_E5dr0rcvYU6v-C_UWzZBKMPkcgBxM7gUtKraqmHDGpbK4m2aJ8WAjf0XBTN_R-D95QFHCtPTS8rPGlxTq-vcEKqvEBNC5gRZtc-9gpDJBdS1l-OaYLczWUOHFN4sUJCu6Vb0-ZxV3s-BHUbfe8JcoDMZMkC6pfqjSfCsFsQvqgs-WqGvbtNG_Uvwt9YgCA6jGNe71z7yvJfsTGHXH8CIBrPfgLHNUaBDvnHFsMiQqGIppLZQnh6rLLNOl6Ym4izEcmCQOT7awAyTTJmg7wYgfONOMkqd]--></g></svg>