<svg xmlns="http://www.w3.org/2000/svg" xmlns:xlink="http://www.w3.org/1999/xlink" contentStyleType="text/css" data-diagram-type="SEQUENCE" height="814px" preserveAspectRatio="none" style="width:614px;height:814px;background:#FFFFFF;" version="1.1" viewBox="0 0 614 814" width="614px" zoomAndPan="magnify"><defs/><g><g><title>Knowledge Service</title><rect fill="#FFFFFF" height="485.8208" style="stroke:#181818;stroke-width:1;" width="10" x="224.3184" y="170.8936"/></g><g><title>Qdrant</title><rect fill="#FFFFFF" height="43.8975" style="stroke:#181818;stroke-width:1;" width="10" x="325.6421" y="363.4321"/></g><g><title>LLM Provider</title><rect fill="#FFFFFF" height="28.9487" style="stroke:#181818;stroke-width:1;" width="10" x="408.6694" y="466.1758"/></g><g><title>Conversation Store</title><rect fill="#FFFFFF" height="43.8975" style="stroke:#181818;stroke-width:1;" width="10" x="530.2173" y="253.6885"/></g><g><title>Conversation Store</title><rect fill="#FFFFFF" height="28.9487" style="stroke:#181818;stroke-width:1;" width="10" x="530.2173" y="568.9194"/></g><rect fill="none" height="119.6924" rx="6" ry="6" style="stroke:#000000;stroke-width:1.5;" width="455.7432" x="152.3945" y="185.8936"/><g><title>User</title><rect fill="#000000" fill-opacity="0.00000" height="652.4619" width="8" x="18.7793" y="81.0986"/><line style="stroke:#181818;stroke-width:0.5;stroke-dasharray:5,5;" x1="22" x2="22" y1="81.0986" y2="733.5605"/></g><g><title>Giao di.n</title><rect fill="#000000" fill-opacity="0.00000" height="652.4619" width="8" x="111.4292" y="81.0986"/><line style="stroke:#181818;stroke-width:0.5;stroke-dasharray:5,5;" x1="114.4639" x2="114.4639" y1="81.0986" y2="733.5605"/></g><g><title>Knowledge Service</title><rect fill="#000000" fill-opacity="0.00000" height="652.4619" width="8" x="225.3184" y="81.0986"/><line style="stroke:#181818;stroke-width:0.5;stroke-dasharray:5,5;" x1="228.3945" x2="228.3945" y1="81.0986" y2="733.5605"/></g><g><title>Qdrant</title><rect fill="#000000" fill-opacity="0.00000" height="652.4619" width="8" x="326.6421" y="81.0986"/><line style="stroke:#181818;stroke-width:0.5;stroke-dasharray:5,5;" x1="330.2422" x2="330.2422" y1="81.0986" y2="733.5605"/></g><g><title>LLM Provider</title><rect fill="#000000" fill-opacity="0.00000" height="652.4619" width="8" x="409.6694" y="81.0986"/><line style="stroke:#181818;stroke-width:0.5;stroke-dasharray:5,5;" x1="413.042" x2="413.042" y1="81.0986" y2="733.5605"/></g><g><title>Conversation Store</title><rect fill="#000000" fill-opacity="0.00000" height="652.4619" width="8" x="531.2173" y="81.0986"/><line style="stroke:#181818;stroke-width:0.5;stroke-dasharray:5,5;" x1="534.2969" x2="534.2969" y1="81.0986" y2="733.5605"/></g><g class="participant participant-head" data-participant="User"><text fill="#000000" font-family="Arial" font-size="14" lengthAdjust="spacing" textLength="29.5586" x="5" y="78.1318">User</text><ellipse cx="22.7793" cy="13.5" fill="#E2E2F0" rx="8" ry="8" style="stroke:#181818;stroke-width:0.5;"/><path d="M22.7793,21.5 L22.7793,48.5 M9.7793,29.5 L35.7793,29.5 M22.7793,48.5 L9.7793,63.5 M22.7793,48.5 L35.7793,63.5" fill="none" style="stroke:#181818;stroke-width:0.5;"/></g><g class="participant participant-tail" data-participant="User"><text fill="#000000" font-family="Arial" font-size="14" lengthAdjust="spacing" textLength="29.5586" x="5" y="745.6924">User</text><ellipse cx="22.7793" cy="757.1592" fill="#E2E2F0" rx="8" ry="8" style="stroke:#181818;stroke-width:0.5;"/><path d="M22.7793,765.1592 L22.7793,792.1592 M9.7793,773.1592 L35.7793,773.1592 M22.7793,792.1592 L9.7793,807.1592 M22.7793,792.1592 L35.7793,807.1592" fill="none" style="stroke:#181818;stroke-width:0.5;"/></g><g class="participant participant-head" data-participant="UI"><rect fill="#E2E2F0" height="30.0986" rx="6" ry="6" style="stroke:#181818;stroke-width:0.5;" width="73.9307" x="78.4639" y="50"/><text fill="#000000" font-family="Arial" font-size="14" lengthAdjust="spacing" textLength="59.9307" x="85.4639" y="70.1318">Giao di&#7879;n</text></g><g class="participant participant-tail" data-participant="UI"><rect fill="#E2E2F0" height="30.0986" rx="6" ry="6" style="stroke:#181818;stroke-width:0.5;" width="73.9307" x="78.4639" y="732.5605"/><text fill="#000000" font-family="Arial" font-size="14" lengthAdjust="spacing" textLength="59.9307" x="85.4639" y="752.6924">Giao di&#7879;n</text></g><g class="participant participant-head" data-participant="KnowledgeService"><rect fill="#E2E2F0" height="30.0986" rx="6" ry="6" style="stroke:#181818;stroke-width:0.5;" width="133.8477" x="162.3945" y="50"/><text fill="#000000" font-family="Arial" font-size="14" lengthAdjust="spacing" textLength="119.8477" x="169.3945" y="70.1318">Knowledge Service</text></g><g class="participant participant-tail" data-participant="KnowledgeService"><rect fill="#E2E2F0" height="30.0986" rx="6" ry="6" style="stroke:#181818;stroke-width:0.5;" width="133.8477" x="162.3945" y="732.5605"/><text fill="#000000" font-family="Arial" font-size="14" lengthAdjust="spacing" textLength="119.8477" x="169.3945" y="752.6924">Knowledge Service</text></g><g class="participant participant-head" data-participant="Qdrant"><text fill="#000000" font-family="Arial" font-size="14" lengthAdjust="spacing" textLength="42.7998" x="306.2422" y="78.1318">Qdrant</text><path d="M312.6421,29 C312.6421,19 330.6421,19 330.6421,19 C330.6421,19 348.6421,19 348.6421,29 L348.6421,55 C348.6421,65 330.6421,65 330.6421,65 C330.6421,65 312.6421,65 312.6421,55 L312.6421,29" fill="#E2E2F0" style="stroke:#181818;stroke-width:0.5;"/><path d="M312.6421,29 C312.6421,39 330.6421,39 330.6421,39 C330.6421,39 348.6421,39 348.6421,29" fill="none" style="stroke:#181818;stroke-width:0.5;"/></g><g class="participant participant-tail" data-participant="Qdrant"><text fill="#000000" font-family="Arial" font-size="14" lengthAdjust="spacing" textLength="42.7998" x="306.2422" y="745.6924">Qdrant</text><path d="M312.6421,758.6592 C312.6421,748.6592 330.6421,748.6592 330.6421,748.6592 C330.6421,748.6592 348.6421,748.6592 348.6421,758.6592 L348.6421,784.6592 C348.6421,794.6592 330.6421,794.6592 330.6421,794.6592 C330.6421,794.6592 312.6421,794.6592 312.6421,784.6592 L312.6421,758.6592" fill="#E2E2F0" style="stroke:#181818;stroke-width:0.5;"/><path d="M312.6421,758.6592 C312.6421,768.6592 330.6421,768.6592 330.6421,768.6592 C330.6421,768.6592 348.6421,768.6592 348.6421,758.6592" fill="none" style="stroke:#181818;stroke-width:0.5;"/></g><g class="participant participant-head" data-participant="LLM"><rect fill="#E2E2F0" height="30.0986" rx="6" ry="6" style="stroke:#181818;stroke-width:0.5;" width="97.2549" x="365.042" y="50"/><text fill="#000000" font-family="Arial" font-size="14" lengthAdjust="spacing" textLength="83.2549" x="372.042" y="70.1318">LLM Provider</text></g><g class="participant participant-tail" data-participant="LLM"><rect fill="#E2E2F0" height="30.0986" rx="6" ry="6" style="stroke:#181818;stroke-width:0.5;" width="97.2549" x="365.042" y="732.5605"/><text fill="#000000" font-family="Arial" font-size="14" lengthAdjust="spacing" textLength="83.2549" x="372.042" y="752.6924">LLM Provider</text></g><g class="participant participant-head" data-participant="ConversationStore"><text fill="#000000" font-family="Arial" font-size="14" lengthAdjust="spacing" textLength="119.8408" x="472.2969" y="78.1318">Conversation Store</text><path d="M517.2173,29 C517.2173,19 535.2173,19 535.2173,19 C535.2173,19 553.2173,19 553.2173,29 L553.2173,55 C553.2173,65 535.2173,65 535.2173,65 C535.2173,65 517.2173,65 517.2173,55 L517.2173,29" fill="#E2E2F0" style="stroke:#181818;stroke-width:0.5;"/><path d="M517.2173,29 C517.2173,39 535.2173,39 535.2173,39 C535.2173,39 553.2173,39 553.2173,29" fill="none" style="stroke:#181818;stroke-width:0.5;"/></g><g class="participant participant-tail" data-participant="ConversationStore"><text fill="#000000" font-family="Arial" font-size="14" lengthAdjust="spacing" textLength="119.8408" x="472.2969" y="745.6924">Conversation Store</text><path d="M517.2173,758.6592 C517.2173,748.6592 535.2173,748.6592 535.2173,748.6592 C535.2173,748.6592 553.2173,748.6592 553.2173,758.6592 L553.2173,784.6592 C553.2173,794.6592 535.2173,794.6592 535.2173,794.6592 C535.2173,794.6592 517.2173,794.6592 517.2173,784.6592 L517.2173,758.6592" fill="#E2E2F0" style="stroke:#181818;stroke-width:0.5;"/><path d="M517.2173,758.6592 C517.2173,768.6592 535.2173,768.6592 535.2173,768.6592 C535.2173,768.6592 553.2173,768.6592 553.2173,758.6592" fill="none" style="stroke:#181818;stroke-width:0.5;"/></g><g><title>Knowledge Service</title><rect fill="#FFFFFF" height="485.8208" style="stroke:#181818;stroke-width:1;" width="10" x="224.3184" y="170.8936"/></g><g><title>Qdrant</title><rect fill="#FFFFFF" height="43.8975" style="stroke:#181818;stroke-width:1;" width="10" x="325.6421" y="363.4321"/></g><g><title>LLM Provider</title><rect fill="#FFFFFF" height="28.9487" style="stroke:#181818;stroke-width:1;" width="10" x="408.6694" y="466.1758"/></g><g><title>Conversation Store</title><rect fill="#FFFFFF" height="43.8975" style="stroke:#181818;stroke-width:1;" width="10" x="530.2173" y="253.6885"/></g><g><title>Conversation Store</title><rect fill="#FFFFFF" height="28.9487" style="stroke:#181818;stroke-width:1;" width="10" x="530.2173" y="568.9194"/></g><g class="message" data-participant-1="User" data-participant-2="UI"><polygon fill="#181818" points="103.4292,137.9448,113.4292,141.9448,103.4292,145.9448,107.4292,141.9448" style="stroke:#181818;stroke-width:1;"/><line style="stroke:#181818;stroke-width:1;" x1="22.7793" x2="109.4292" y1="141.9448" y2="141.9448"/><text fill="#000000" font-family="Arial" font-size="13" lengthAdjust="spacing" textLength="21.7026" x="35.4871" y="107.2925">G&#7917;i</text><text fill="#000000" font-family="Arial" font-size="13" lengthAdjust="spacing" textLength="3.6118" x="57.1897" y="107.2925">&#160;</text><text fill="#000000" font-family="Arial" font-size="13" lengthAdjust="spacing" textLength="20.96" x="60.8015" y="107.2925">c&#226;u</text><text fill="#000000" font-family="Arial" font-size="13" lengthAdjust="spacing" textLength="3.6118" x="81.7615" y="107.2925">&#160;</text><text fill="#000000" font-family="Arial" font-size="13" lengthAdjust="spacing" textLength="17.3481" x="85.3733" y="107.2925">h&#7887;i</text><text fill="#000000" font-family="Arial" font-size="13" lengthAdjust="spacing" textLength="29.6309" x="37.75" y="122.2412">trong</text><text fill="#000000" font-family="Arial" font-size="13" lengthAdjust="spacing" textLength="3.6118" x="67.3809" y="122.2412">&#160;</text><text fill="#000000" font-family="Arial" font-size="13" lengthAdjust="spacing" textLength="16.4658" x="70.9927" y="122.2412">tr&#7907;</text><text fill="#000000" font-family="Arial" font-size="13" lengthAdjust="spacing" textLength="3.6118" x="87.4585" y="122.2412">&#160;</text><text fill="#000000" font-family="Arial" font-size="13" lengthAdjust="spacing" textLength="9.3882" x="91.0703" y="122.2412">l&#253;</text><text fill="#000000" font-family="Arial" font-size="13" lengthAdjust="spacing" textLength="15.9326" x="49.2139" y="137.1899">d&#7919;</text><text fill="#000000" font-family="Arial" font-size="13" lengthAdjust="spacing" textLength="3.6118" x="65.1465" y="137.1899">&#160;</text><text fill="#000000" font-family="Arial" font-size="13" lengthAdjust="spacing" textLength="20.2363" x="68.7583" y="137.1899">li&#7879;u</text></g><g class="message" data-participant-1="UI" data-participant-2="KnowledgeService"><polygon fill="#181818" points="212.3184,166.8936,222.3184,170.8936,212.3184,174.8936,216.3184,170.8936" style="stroke:#181818;stroke-width:1;"/><line style="stroke:#181818;stroke-width:1;" x1="115.4292" x2="218.3184" y1="170.8936" y2="170.8936"/><text fill="#000000" font-family="Arial" font-size="13" lengthAdjust="spacing" textLength="35.3945" x="136.2788" y="166.1387">POST</text><text fill="#000000" font-family="Arial" font-size="13" lengthAdjust="spacing" textLength="3.6118" x="171.6733" y="166.1387">&#160;</text><text fill="#000000" font-family="Arial" font-size="13" lengthAdjust="spacing" textLength="28.1836" x="175.2852" y="166.1387">/chat</text></g><path d="M158.3945,185.8936 L217.6055,185.8936 L217.6055,192.8423 L207.6055,202.8423 L152.3945,202.8423 L152.3945,191.8936 A6,6 0 0 1 158.3945,185.8936" fill="#EEEEEE" style="stroke:#000000;stroke-width:1.5;"/><rect fill="none" height="119.6924" rx="6" ry="6" style="stroke:#000000;stroke-width:1.5;" width="455.7432" x="152.3945" y="185.8936"/><text fill="#000000" font-family="Arial" font-size="13" font-weight="bold" lengthAdjust="spacing" textLength="20.2109" x="167.3945" y="199.0874">opt</text><text fill="#000000" font-family="Arial" font-size="11" font-weight="bold" lengthAdjust="spacing" textLength="130.1631" x="232.6055" y="198.2114">[Ti&#7871;p t&#7909;c h&#7897;i tho&#7841;i &#273;&#227; c&#243;]</text><g class="message" data-participant-1="KnowledgeService" data-participant-2="ConversationStore"><polygon fill="#181818" points="518.2173,249.6885,528.2173,253.6885,518.2173,257.6885,522.2173,253.6885" style="stroke:#181818;stroke-width:1;"/><line style="stroke:#181818;stroke-width:1;" x1="234.3184" x2="524.2173" y1="253.6885" y2="253.6885"/><text fill="#000000" font-family="Arial" font-size="13" lengthAdjust="spacing" textLength="24.5781" x="369.9788" y="219.0361">load</text><text fill="#000000" font-family="Arial" font-size="13" lengthAdjust="spacing" textLength="73.709" x="345.4133" y="233.9849">conversation</text><text fill="#000000" font-family="Arial" font-size="13" lengthAdjust="spacing" textLength="38.2891" x="363.1233" y="248.9336">history</text></g><g class="message" data-participant-1="ConversationStore" data-participant-2="KnowledgeService"><polygon fill="#181818" points="245.3184,293.5859,235.3184,297.5859,245.3184,301.5859,241.3184,297.5859" style="stroke:#181818;stroke-width:1;"/><line style="stroke:#181818;stroke-width:1;stroke-dasharray:2,2;" x1="239.3184" x2="534.2173" y1="297.5859" y2="297.5859"/><text fill="#000000" font-family="Arial" font-size="13" lengthAdjust="spacing" textLength="36.1309" x="366.7024" y="277.8823">recent</text><text fill="#000000" font-family="Arial" font-size="13" lengthAdjust="spacing" textLength="59.249" x="355.1433" y="292.8311">messages</text></g><g class="message" data-participant-1="KnowledgeService" data-participant-2="Qdrant"><polygon fill="#181818" points="313.6421,359.4321,323.6421,363.4321,313.6421,367.4321,317.6421,363.4321" style="stroke:#181818;stroke-width:1;"/><line style="stroke:#181818;stroke-width:1;" x1="234.3184" x2="319.6421" y1="363.4321" y2="363.4321"/><text fill="#000000" font-family="Arial" font-size="13" lengthAdjust="spacing" textLength="43.3481" x="258.3062" y="328.7798">retrieve</text><text fill="#000000" font-family="Arial" font-size="13" lengthAdjust="spacing" textLength="46.249" x="256.8557" y="343.7285">relevant</text><text fill="#000000" font-family="Arial" font-size="13" lengthAdjust="spacing" textLength="41.9136" x="259.0234" y="358.6772">context</text></g><g class="message" data-participant-1="Qdrant" data-participant-2="KnowledgeService"><polygon fill="#181818" points="245.3184,403.3296,235.3184,407.3296,245.3184,411.3296,241.3184,407.3296" style="stroke:#181818;stroke-width:1;"/><line style="stroke:#181818;stroke-width:1;stroke-dasharray:2,2;" x1="239.3184" x2="329.6421" y1="407.3296" y2="407.3296"/><text fill="#000000" font-family="Arial" font-size="13" lengthAdjust="spacing" textLength="39.019" x="262.9707" y="387.626">search</text><text fill="#000000" font-family="Arial" font-size="13" lengthAdjust="spacing" textLength="38.2891" x="263.3357" y="402.5747">results</text></g><g class="message" data-participant-1="KnowledgeService" data-participant-2="LLM"><polygon fill="#181818" points="396.6694,462.1758,406.6694,466.1758,396.6694,470.1758,400.6694,466.1758" style="stroke:#181818;stroke-width:1;"/><line style="stroke:#181818;stroke-width:1;" x1="234.3184" x2="402.6694" y1="466.1758" y2="466.1758"/><text fill="#000000" font-family="Arial" font-size="13" lengthAdjust="spacing" textLength="51.3208" x="295.8335" y="431.5234">generate</text><text fill="#000000" font-family="Arial" font-size="13" lengthAdjust="spacing" textLength="54.939" x="294.0244" y="446.4722">grounded</text><text fill="#000000" font-family="Arial" font-size="13" lengthAdjust="spacing" textLength="41.9072" x="300.5403" y="461.4209">answer</text></g><g class="message" data-participant-1="LLM" data-participant-2="KnowledgeService"><polygon fill="#181818" points="245.3184,491.1245,235.3184,495.1245,245.3184,499.1245,241.3184,495.1245" style="stroke:#181818;stroke-width:1;"/><line style="stroke:#181818;stroke-width:1;stroke-dasharray:2,2;" x1="239.3184" x2="412.6694" y1="495.1245" y2="495.1245"/><text fill="#000000" font-family="Arial" font-size="13" lengthAdjust="spacing" textLength="41.9072" x="303.0403" y="490.3696">answer</text></g><g class="message" data-participant-1="KnowledgeService" data-participant-2="ConversationStore"><polygon fill="#181818" points="518.2173,564.9194,528.2173,568.9194,518.2173,572.9194,522.2173,568.9194" style="stroke:#181818;stroke-width:1;"/><line style="stroke:#181818;stroke-width:1;" x1="234.3184" x2="524.2173" y1="568.9194" y2="568.9194"/><text fill="#000000" font-family="Arial" font-size="13" lengthAdjust="spacing" textLength="27.46" x="354.0874" y="519.3184">save</text><text fill="#000000" font-family="Arial" font-size="13" lengthAdjust="spacing" textLength="3.6118" x="381.5474" y="519.3184">&#160;</text><text fill="#000000" font-family="Arial" font-size="13" lengthAdjust="spacing" textLength="25.2891" x="385.1592" y="519.3184">user</text><text fill="#000000" font-family="Arial" font-size="13" lengthAdjust="spacing" textLength="21.6899" x="371.4229" y="534.2671">and</text><text fill="#000000" font-family="Arial" font-size="13" lengthAdjust="spacing" textLength="51.3018" x="356.6169" y="549.2158">assistant</text><text fill="#000000" font-family="Arial" font-size="13" lengthAdjust="spacing" textLength="59.249" x="352.6433" y="564.1646">messages</text></g><g class="message" data-participant-1="ConversationStore" data-participant-2="KnowledgeService"><polygon fill="#181818" points="245.3184,593.8682,235.3184,597.8682,245.3184,601.8682,241.3184,597.8682" style="stroke:#181818;stroke-width:1;"/><line style="stroke:#181818;stroke-width:1;stroke-dasharray:2,2;" x1="239.3184" x2="534.2173" y1="597.8682" y2="597.8682"/><text fill="#000000" font-family="Arial" font-size="13" lengthAdjust="spacing" textLength="52.749" x="358.3933" y="593.1133">persisted</text></g><g class="message" data-participant-1="KnowledgeService" data-participant-2="UI"><polygon fill="#181818" points="126.4292,652.7144,116.4292,656.7144,126.4292,660.7144,122.4292,656.7144" style="stroke:#181818;stroke-width:1;"/><line style="stroke:#181818;stroke-width:1;stroke-dasharray:2,2;" x1="120.4292" x2="228.3184" y1="656.7144" y2="656.7144"/><text fill="#000000" font-family="Arial" font-size="13" lengthAdjust="spacing" textLength="41.9072" x="145.8184" y="622.062">answer</text><text fill="#000000" font-family="Arial" font-size="13" lengthAdjust="spacing" textLength="3.6118" x="187.7256" y="622.062">&#160;</text><text fill="#000000" font-family="Arial" font-size="13" lengthAdjust="spacing" textLength="7.5918" x="191.3374" y="622.062">+</text><text fill="#000000" font-family="Arial" font-size="13" lengthAdjust="spacing" textLength="47.6899" x="142.927" y="637.0107">citations</text><text fill="#000000" font-family="Arial" font-size="13" lengthAdjust="spacing" textLength="3.6118" x="190.6169" y="637.0107">&#160;</text><text fill="#000000" font-family="Arial" font-size="13" lengthAdjust="spacing" textLength="7.5918" x="194.2288" y="637.0107">+</text><text fill="#000000" font-family="Arial" font-size="13" lengthAdjust="spacing" textLength="69.3799" x="137.6838" y="651.9595">suggestions</text></g><g class="message" data-participant-1="UI" data-participant-2="User"><polygon fill="#181818" points="33.7793,711.5605,23.7793,715.5605,33.7793,719.5605,29.7793,715.5605" style="stroke:#181818;stroke-width:1;"/><line style="stroke:#181818;stroke-width:1;stroke-dasharray:2,2;" x1="27.7793" x2="114.4292" y1="715.5605" y2="715.5605"/><text fill="#000000" font-family="Arial" font-size="13" lengthAdjust="spacing" textLength="26.7363" x="34.7793" y="680.9082">Hi&#7875;n</text><text fill="#000000" font-family="Arial" font-size="13" lengthAdjust="spacing" textLength="3.6118" x="61.5156" y="680.9082">&#160;</text><text fill="#000000" font-family="Arial" font-size="13" lengthAdjust="spacing" textLength="13.73" x="65.1274" y="680.9082">th&#7883;</text><text fill="#000000" font-family="Arial" font-size="13" lengthAdjust="spacing" textLength="3.6118" x="78.8574" y="680.9082">&#160;</text><text fill="#000000" font-family="Arial" font-size="13" lengthAdjust="spacing" textLength="20.96" x="82.4692" y="680.9082">c&#226;u</text><text fill="#000000" font-family="Arial" font-size="13" lengthAdjust="spacing" textLength="15.1709" x="43.8914" y="695.8569">tr&#7843;</text><text fill="#000000" font-family="Arial" font-size="13" lengthAdjust="spacing" textLength="3.6118" x="59.0623" y="695.8569">&#160;</text><text fill="#000000" font-family="Arial" font-size="13" lengthAdjust="spacing" textLength="14.3013" x="62.6741" y="695.8569">l&#7901;i</text><text fill="#000000" font-family="Arial" font-size="13" lengthAdjust="spacing" textLength="3.6118" x="76.9753" y="695.8569">&#160;</text><text fill="#000000" font-family="Arial" font-size="13" lengthAdjust="spacing" textLength="13.73" x="80.5872" y="695.8569">c&#243;</text><text fill="#000000" font-family="Arial" font-size="13" lengthAdjust="spacing" textLength="21.6899" x="38.0071" y="710.8057">d&#7851;n</text><text fill="#000000" font-family="Arial" font-size="13" lengthAdjust="spacing" textLength="3.6118" x="59.697" y="710.8057">&#160;</text><text fill="#000000" font-family="Arial" font-size="13" lengthAdjust="spacing" textLength="36.8926" x="63.3088" y="710.8057">ch&#7913;ng</text></g><!--SRC=[ZLGzRzH04EttLupIeeYF1kaAf0E9W4WWw98VCEnEx1M-NRExzWLQ2WeAH4b10H45GeWYtLc8ulWZ_YVCsivfWo-dTBxPDs_UpBmv_rAR4XtEGT49LaLuQ4ruYdE2gTDO2Bz-zpagkz0cWnCiFAKlzAeY8-c0lCUCfeNE34WoWLo2SkHBQ_m5wZuLTZ5rpYuWk2gbc-FfW9dfDmHtRwKajZ9AMcV8mUqxGg0Cri6nvqeC25hg4as0dJsD5fHkctTc1z33yUFBxq-CNHIaCe8PkLfBwb3hw10K2WE-G4-myrmvJknG_UTblltz0pXqjjQAN0VYG9Bzm9gQdCUWhO4PI-xhfU4kAaHi1NRliM2Om5xR_DGWLryhoDlcW-P9MPv_S6rp1iNgDwYs-GL5RBCIdC5v_xV0B8VFPaTmK-OOuhXqZO76dGfR1ZZIxV9F2Q5jlibOyHDNp6sx_ABXxyVL6Iiv5p0kmML7dN3Tmg82cNQUQyzlhvbZBMGy0jX0jhkvCqVHPJ3ltU8vLT4MPZ9AY4tg-ursXC5fgea_2gfZZFK7EaqcDsn_IBb2c2TqCe-Mvulo8b4rf6zI4JqqWOpOsn6PTLud1MZyWlszfeZMYjWhQW_mf6PCkExIF7BtLJGX6YxjFQyCqnblcU-rzrOoYdb9YQtx6ck-E8o-HxW1KeSkmVEthp8MsFrAUKTMZuSIYMAJ4tZ4r_FMiC_Rvdr_QdnUIpwljlaSR- -SZspvW__F6F3TPFy0]--></g></svg>