<svg xmlns="http://www.w3.org/2000/svg" xmlns:xlink="http://www.w3.org/1999/xlink" contentStyleType="text/css" data-diagram-type="SEQUENCE" height="1289px" preserveAspectRatio="none" style="width:961px;height:1289px;background:#FFFFFF;" version="1.1" viewBox="0 0 961 1289" width="961px" zoomAndPan="magnify"><defs/><g><g><title>Datasource Handler</title><rect fill="#FFFFFF" height="1042.4443" style="stroke:#181818;stroke-width:1;" width="10" x="201.3716" y="156.8936"/></g><g><title>Datasource UseCase</title><rect fill="#FFFFFF" height="262.436" style="stroke:#181818;stroke-width:1;" width="10" x="426.1187" y="251.7397"/></g><g><title>Datasource UseCase</title><rect fill="#FFFFFF" height="437.0259" style="stroke:#181818;stroke-width:1;" width="10" x="426.1187" y="703.4146"/></g><g><title>Project Service Client</title><rect fill="#FFFFFF" height="43.8975" style="stroke:#181818;stroke-width:1;" width="10" x="590.9058" y="280.6885"/></g><g><title>Datasource Repository</title><rect fill="#FFFFFF" height="116.7437" style="stroke:#181818;stroke-width:1;" width="10" x="753.019" y="353.5347"/></g><g><title>Datasource Repository</title><rect fill="#FFFFFF" height="131.6924" style="stroke:#181818;stroke-width:1;" width="10" x="753.019" y="732.3633"/></g><g><title>Datasource Repository</title><rect fill="#FFFFFF" height="101.7949" style="stroke:#181818;stroke-width:1;" width="10" x="753.019" y="994.748"/></g><g><title>PostgreSQL</title><rect fill="#FFFFFF" height="43.8975" style="stroke:#181818;stroke-width:1;" width="10" x="898.3716" y="397.4321"/></g><g><title>PostgreSQL</title><rect fill="#FFFFFF" height="43.8975" style="stroke:#181818;stroke-width:1;" width="10" x="898.3716" y="791.2095"/></g><g><title>PostgreSQL</title><rect fill="#FFFFFF" height="28.9487" style="stroke:#181818;stroke-width:1;" width="10" x="898.3716" y="1038.6455"/></g><rect fill="none" height="1020.4443" rx="6" ry="6" style="stroke:#000000;stroke-width:1.5;" width="944.5024" x="10" y="171.8936"/><g><title>UI</title><rect fill="#000000" fill-opacity="0.00000" height="1128.2393" width="8" x="29.5" y="81.0986"/><line style="stroke:#181818;stroke-width:0.5;stroke-dasharray:5,5;" x1="33" x2="33" y1="81.0986" y2="1209.3379"/></g><g><title>Datasource Handler</title><rect fill="#000000" fill-opacity="0.00000" height="1128.2393" width="8" x="202.3716" y="81.0986"/><line style="stroke:#181818;stroke-width:0.5;stroke-dasharray:5,5;" x1="206.1167" x2="206.1167" y1="81.0986" y2="1209.3379"/></g><g><title>Datasource UseCase</title><rect fill="#000000" fill-opacity="0.00000" height="1128.2393" width="8" x="427.1187" y="81.0986"/><line style="stroke:#181818;stroke-width:0.5;stroke-dasharray:5,5;" x1="430.5879" x2="430.5879" y1="81.0986" y2="1209.3379"/></g><g><title>Project Service Client</title><rect fill="#000000" fill-opacity="0.00000" height="1128.2393" width="8" x="591.9058" y="81.0986"/><line style="stroke:#181818;stroke-width:0.5;stroke-dasharray:5,5;" x1="594.9922" x2="594.9922" y1="81.0986" y2="1209.3379"/></g><g><title>Datasource Repository</title><rect fill="#000000" fill-opacity="0.00000" height="1128.2393" width="8" x="754.019" y="81.0986"/><line style="stroke:#181818;stroke-width:0.5;stroke-dasharray:5,5;" x1="757.8193" x2="757.8193" y1="81.0986" y2="1209.3379"/></g><g><title>PostgreSQL</title><rect fill="#000000" fill-opacity="0.00000" height="1128.2393" width="8" x="899.3716" y="81.0986"/><line style="stroke:#181818;stroke-width:0.5;stroke-dasharray:5,5;" x1="903.2407" x2="903.2407" y1="81.0986" y2="1209.3379"/></g><g class="participant participant-head" data-participant="UI"><text fill="#000000" font-family="Arial" font-size="14" lengthAdjust="spacing" textLength="14" x="23.5" y="78.1318">UI</text><ellipse cx="33.5" cy="13.5" fill="#E2E2F0" rx="8" ry="8" style="stroke:#181818;stroke-width:0.5;"/><path d="M33.5,21.5 L33.5,48.5 M20.5,29.5 L46.5,29.5 M33.5,48.5 L20.5,63.5 M33.5,48.5 L46.5,63.5" fill="none" style="stroke:#181818;stroke-width:0.5;"/></g><g class="participant participant-tail" data-participant="UI"><text fill="#000000" font-family="Arial" font-size="14" lengthAdjust="spacing" textLength="14" x="23.5" y="1221.4697">UI</text><ellipse cx="33.5" cy="1232.9365" fill="#E2E2F0" rx="8" ry="8" style="stroke:#181818;stroke-width:0.5;"/><path d="M33.5,1240.9365 L33.5,1267.9365 M20.5,1248.9365 L46.5,1248.9365 M33.5,1267.9365 L20.5,1282.9365 M33.5,1267.9365 L46.5,1282.9365" fill="none" style="stroke:#181818;stroke-width:0.5;"/></g><g class="participant participant-head" data-participant="Handler"><rect fill="#E2E2F0" height="30.0986" rx="6" ry="6" style="stroke:#181818;stroke-width:0.5;" width="138.5098" x="137.1167" y="50"/><text fill="#000000" font-family="Arial" font-size="14" lengthAdjust="spacing" textLength="124.5098" x="144.1167" y="70.1318">Datasource Handler</text></g><g class="participant participant-tail" data-participant="Handler"><rect fill="#E2E2F0" height="30.0986" rx="6" ry="6" style="stroke:#181818;stroke-width:0.5;" width="138.5098" x="137.1167" y="1208.3379"/><text fill="#000000" font-family="Arial" font-size="14" lengthAdjust="spacing" textLength="124.5098" x="144.1167" y="1228.4697">Datasource Handler</text></g><g class="participant participant-head" data-participant="DatasourceUC"><rect fill="#E2E2F0" height="30.0986" rx="6" ry="6" style="stroke:#181818;stroke-width:0.5;" width="147.0615" x="357.5879" y="50"/><text fill="#000000" font-family="Arial" font-size="14" lengthAdjust="spacing" textLength="133.0615" x="364.5879" y="70.1318">Datasource UseCase</text></g><g class="participant participant-tail" data-participant="DatasourceUC"><rect fill="#E2E2F0" height="30.0986" rx="6" ry="6" style="stroke:#181818;stroke-width:0.5;" width="147.0615" x="357.5879" y="1208.3379"/><text fill="#000000" font-family="Arial" font-size="14" lengthAdjust="spacing" textLength="133.0615" x="364.5879" y="1228.4697">Datasource UseCase</text></g><g class="participant participant-head" data-participant="ProjectClient"><rect fill="#E2E2F0" height="30.0986" rx="6" ry="6" style="stroke:#181818;stroke-width:0.5;" width="147.8271" x="521.9922" y="50"/><text fill="#000000" font-family="Arial" font-size="14" lengthAdjust="spacing" textLength="133.8271" x="528.9922" y="70.1318">Project Service Client</text></g><g class="participant participant-tail" data-participant="ProjectClient"><rect fill="#E2E2F0" height="30.0986" rx="6" ry="6" style="stroke:#181818;stroke-width:0.5;" width="147.8271" x="521.9922" y="1208.3379"/><text fill="#000000" font-family="Arial" font-size="14" lengthAdjust="spacing" textLength="133.8271" x="528.9922" y="1228.4697">Project Service Client</text></g><g class="participant participant-head" data-participant="DatasourceRepo"><rect fill="#E2E2F0" height="30.0986" rx="6" ry="6" style="stroke:#181818;stroke-width:0.5;" width="156.3994" x="679.8193" y="50"/><text fill="#000000" font-family="Arial" font-size="14" lengthAdjust="spacing" textLength="142.3994" x="686.8193" y="70.1318">Datasource Repository</text></g><g class="participant participant-tail" data-participant="DatasourceRepo"><rect fill="#E2E2F0" height="30.0986" rx="6" ry="6" style="stroke:#181818;stroke-width:0.5;" width="156.3994" x="679.8193" y="1208.3379"/><text fill="#000000" font-family="Arial" font-size="14" lengthAdjust="spacing" textLength="142.3994" x="686.8193" y="1228.4697">Datasource Repository</text></g><g class="participant participant-head" data-participant="PostgreSQL"><text fill="#000000" font-family="Arial" font-size="14" lengthAdjust="spacing" textLength="76.2617" x="862.2407" y="78.1318">PostgreSQL</text><path d="M885.3716,29 C885.3716,19 903.3716,19 903.3716,19 C903.3716,19 921.3716,19 921.3716,29 L921.3716,55 C921.3716,65 903.3716,65 903.3716,65 C903.3716,65 885.3716,65 885.3716,55 L885.3716,29" fill="#E2E2F0" style="stroke:#181818;stroke-width:0.5;"/><path d="M885.3716,29 C885.3716,39 903.3716,39 903.3716,39 C903.3716,39 921.3716,39 921.3716,29" fill="none" style="stroke:#181818;stroke-width:0.5;"/></g><g class="participant participant-tail" data-participant="PostgreSQL"><text fill="#000000" font-family="Arial" font-size="14" lengthAdjust="spacing" textLength="76.2617" x="862.2407" y="1221.4697">PostgreSQL</text><path d="M885.3716,1234.4365 C885.3716,1224.4365 903.3716,1224.4365 903.3716,1224.4365 C903.3716,1224.4365 921.3716,1224.4365 921.3716,1234.4365 L921.3716,1260.4365 C921.3716,1270.4365 903.3716,1270.4365 903.3716,1270.4365 C903.3716,1270.4365 885.3716,1270.4365 885.3716,1260.4365 L885.3716,1234.4365" fill="#E2E2F0" style="stroke:#181818;stroke-width:0.5;"/><path d="M885.3716,1234.4365 C885.3716,1244.4365 903.3716,1244.4365 903.3716,1244.4365 C903.3716,1244.4365 921.3716,1244.4365 921.3716,1234.4365" fill="none" style="stroke:#181818;stroke-width:0.5;"/></g><g><title>Datasource Handler</title><rect fill="#FFFFFF" height="1042.4443" style="stroke:#181818;stroke-width:1;" width="10" x="201.3716" y="156.8936"/></g><g><title>Datasource UseCase</title><rect fill="#FFFFFF" height="262.436" style="stroke:#181818;stroke-width:1;" width="10" x="426.1187" y="251.7397"/></g><g><title>Datasource UseCase</title><rect fill="#FFFFFF" height="437.0259" style="stroke:#181818;stroke-width:1;" width="10" x="426.1187" y="703.4146"/></g><g><title>Project Service Client</title><rect fill="#FFFFFF" height="43.8975" style="stroke:#181818;stroke-width:1;" width="10" x="590.9058" y="280.6885"/></g><g><title>Datasource Repository</title><rect fill="#FFFFFF" height="116.7437" style="stroke:#181818;stroke-width:1;" width="10" x="753.019" y="353.5347"/></g><g><title>Datasource Repository</title><rect fill="#FFFFFF" height="131.6924" style="stroke:#181818;stroke-width:1;" width="10" x="753.019" y="732.3633"/></g><g><title>Datasource Repository</title><rect fill="#FFFFFF" height="101.7949" style="stroke:#181818;stroke-width:1;" width="10" x="753.019" y="994.748"/></g><g><title>PostgreSQL</title><rect fill="#FFFFFF" height="43.8975" style="stroke:#181818;stroke-width:1;" width="10" x="898.3716" y="397.4321"/></g><g><title>PostgreSQL</title><rect fill="#FFFFFF" height="43.8975" style="stroke:#181818;stroke-width:1;" width="10" x="898.3716" y="791.2095"/></g><g><title>PostgreSQL</title><rect fill="#FFFFFF" height="28.9487" style="stroke:#181818;stroke-width:1;" width="10" x="898.3716" y="1038.6455"/></g><g class="message" data-participant-1="UI" data-participant-2="Handler"><polygon fill="#181818" points="189.3716,152.8936,199.3716,156.8936,189.3716,160.8936,193.3716,156.8936" style="stroke:#181818;stroke-width:1;"/><line style="stroke:#181818;stroke-width:1;" x1="33.5" x2="195.3716" y1="156.8936" y2="156.8936"/><text fill="#000000" font-family="Arial" font-size="13" lengthAdjust="spacing" textLength="35.3945" x="99.7385" y="107.2925">POST</text><text fill="#000000" font-family="Arial" font-size="13" lengthAdjust="spacing" textLength="74.4326" x="80.2195" y="122.2412">/datasources</text><text fill="#000000" font-family="Arial" font-size="13" lengthAdjust="spacing" textLength="11.5591" x="111.6563" y="137.1899">or</text><text fill="#000000" font-family="Arial" font-size="13" lengthAdjust="spacing" textLength="148.8716" x="43" y="152.1387">/datasources/{id}/targets/*</text></g><path d="M16,171.8936 L70.1709,171.8936 L70.1709,178.8423 L60.1709,188.8423 L10,188.8423 L10,177.8936 A6,6 0 0 1 16,171.8936" fill="#EEEEEE" style="stroke:#000000;stroke-width:1.5;"/><rect fill="none" height="1020.4443" rx="6" ry="6" style="stroke:#000000;stroke-width:1.5;" width="944.5024" x="10" y="171.8936"/><text fill="#000000" font-family="Arial" font-size="13" font-weight="bold" lengthAdjust="spacing" textLength="15.1709" x="25" y="185.0874">alt</text><text fill="#000000" font-family="Arial" font-size="11" font-weight="bold" lengthAdjust="spacing" textLength="101.4868" x="85.1709" y="184.2114">[create datasource]</text><g class="message" data-participant-1="Handler" data-participant-2="Handler"><line style="stroke:#181818;stroke-width:1;" x1="211.3716" x2="253.3716" y1="209.791" y2="209.791"/><line style="stroke:#181818;stroke-width:1;" x1="253.3716" x2="253.3716" y1="209.791" y2="222.791"/><line style="stroke:#181818;stroke-width:1;" x1="212.3716" x2="253.3716" y1="222.791" y2="222.791"/><polygon fill="#181818" points="222.3716,218.791,212.3716,222.791,222.3716,226.791,218.3716,222.791" style="stroke:#181818;stroke-width:1;"/><text fill="#000000" font-family="Arial" font-size="13" lengthAdjust="spacing" textLength="117.0444" x="218.3716" y="205.0361">processCreateReq()</text></g><g class="message" data-participant-1="Handler" data-participant-2="DatasourceUC"><polygon fill="#181818" points="414.1187,247.7397,424.1187,251.7397,414.1187,255.7397,418.1187,251.7397" style="stroke:#181818;stroke-width:1;"/><line style="stroke:#181818;stroke-width:1;" x1="211.3716" x2="420.1187" y1="251.7397" y2="251.7397"/><text fill="#000000" font-family="Arial" font-size="13" lengthAdjust="spacing" textLength="75.8672" x="280.8115" y="246.9849">Create(input)</text></g><g class="message" data-participant-1="DatasourceUC" data-participant-2="ProjectClient"><polygon fill="#181818" points="578.9058,276.6885,588.9058,280.6885,578.9058,284.6885,582.9058,280.6885" style="stroke:#181818;stroke-width:1;"/><line style="stroke:#181818;stroke-width:1;" x1="436.1187" x2="584.9058" y1="280.6885" y2="280.6885"/><text fill="#000000" font-family="Arial" font-size="13" lengthAdjust="spacing" textLength="98.2617" x="464.3813" y="275.9336">Detail(project_id)</text></g><g class="message" data-participant-1="ProjectClient" data-participant-2="DatasourceUC"><polygon fill="#181818" points="447.1187,320.5859,437.1187,324.5859,447.1187,328.5859,443.1187,324.5859" style="stroke:#181818;stroke-width:1;"/><line style="stroke:#181818;stroke-width:1;stroke-dasharray:2,2;" x1="441.1187" x2="594.9058" y1="324.5859" y2="324.5859"/><text fill="#000000" font-family="Arial" font-size="13" lengthAdjust="spacing" textLength="39.019" x="496.5027" y="304.8823">project</text><text fill="#000000" font-family="Arial" font-size="13" lengthAdjust="spacing" textLength="31.0781" x="500.4731" y="319.8311">detail</text></g><g class="message" data-participant-1="DatasourceUC" data-participant-2="DatasourceRepo"><polygon fill="#181818" points="741.019,349.5347,751.019,353.5347,741.019,357.5347,745.019,353.5347" style="stroke:#181818;stroke-width:1;"/><line style="stroke:#181818;stroke-width:1;" x1="436.1187" x2="747.019" y1="353.5347" y2="353.5347"/><text fill="#000000" font-family="Arial" font-size="13" lengthAdjust="spacing" textLength="158.2471" x="515.4453" y="348.7798">CreateDataSource(options)</text></g><g class="message" data-participant-1="DatasourceRepo" data-participant-2="PostgreSQL"><polygon fill="#181818" points="886.3716,393.4321,896.3716,397.4321,886.3716,401.4321,890.3716,397.4321" style="stroke:#181818;stroke-width:1;"/><line style="stroke:#181818;stroke-width:1;" x1="763.019" x2="892.3716" y1="397.4321" y2="397.4321"/><text fill="#000000" font-family="Arial" font-size="13" lengthAdjust="spacing" textLength="47.6709" x="806.8599" y="377.7285">INSERT</text><text fill="#000000" font-family="Arial" font-size="13" lengthAdjust="spacing" textLength="116.3525" x="772.519" y="392.6772">ingest.data_sources</text></g><g class="message" data-participant-1="PostgreSQL" data-participant-2="DatasourceRepo"><polygon fill="#181818" points="774.019,437.3296,764.019,441.3296,774.019,445.3296,770.019,441.3296" style="stroke:#181818;stroke-width:1;"/><line style="stroke:#181818;stroke-width:1;stroke-dasharray:2,2;" x1="768.019" x2="902.3716" y1="441.3296" y2="441.3296"/><text fill="#000000" font-family="Arial" font-size="13" lengthAdjust="spacing" textLength="64.3208" x="801.0349" y="421.626">datasource</text><text fill="#000000" font-family="Arial" font-size="13" lengthAdjust="spacing" textLength="20.9473" x="822.7217" y="436.5747">row</text></g><g class="message" data-participant-1="DatasourceRepo" data-participant-2="DatasourceUC"><polygon fill="#181818" points="447.1187,466.2783,437.1187,470.2783,447.1187,474.2783,443.1187,470.2783" style="stroke:#181818;stroke-width:1;"/><line style="stroke:#181818;stroke-width:1;stroke-dasharray:2,2;" x1="441.1187" x2="757.019" y1="470.2783" y2="470.2783"/><text fill="#000000" font-family="Arial" font-size="13" lengthAdjust="spacing" textLength="64.3208" x="564.9084" y="465.5234">datasource</text></g><g class="message" data-participant-1="DatasourceUC" data-participant-2="Handler"><polygon fill="#181818" points="222.3716,510.1758,212.3716,514.1758,222.3716,518.1758,218.3716,514.1758" style="stroke:#181818;stroke-width:1;"/><line style="stroke:#181818;stroke-width:1;stroke-dasharray:2,2;" x1="216.3716" x2="430.1187" y1="514.1758" y2="514.1758"/><text fill="#000000" font-family="Arial" font-size="13" lengthAdjust="spacing" textLength="64.3208" x="289.0847" y="494.4722">datasource</text><text fill="#000000" font-family="Arial" font-size="13" lengthAdjust="spacing" textLength="36.1436" x="303.1733" y="509.4209">output</text></g><g class="message" data-participant-1="Handler" data-participant-2="UI"><polygon fill="#181818" points="44.5,554.0732,34.5,558.0732,44.5,562.0732,40.5,558.0732" style="stroke:#181818;stroke-width:1;"/><line style="stroke:#181818;stroke-width:1;stroke-dasharray:2,2;" x1="38.5" x2="200.3716" y1="558.0732" y2="558.0732"/><text fill="#000000" font-family="Arial" font-size="13" lengthAdjust="spacing" textLength="21.6899" x="89.7917" y="538.3696">200</text><text fill="#000000" font-family="Arial" font-size="13" lengthAdjust="spacing" textLength="3.6118" x="111.4817" y="538.3696">&#160;</text><text fill="#000000" font-family="Arial" font-size="13" lengthAdjust="spacing" textLength="18.7827" x="115.0935" y="538.3696">OK</text><text fill="#000000" font-family="Arial" font-size="13" lengthAdjust="spacing" textLength="3.6118" x="133.8762" y="538.3696">&#160;</text><text fill="#000000" font-family="Arial" font-size="13" lengthAdjust="spacing" textLength="7.5918" x="137.488" y="538.3696">+</text><text fill="#000000" font-family="Arial" font-size="13" lengthAdjust="spacing" textLength="64.3208" x="85.2754" y="553.3184">datasource</text></g><line style="stroke:#000000;stroke-width:1;stroke-dasharray:2,2;" x1="10" x2="954.5024" y1="567.0732" y2="567.0732"/><text fill="#000000" font-family="Arial" font-size="11" font-weight="bold" lengthAdjust="spacing" textLength="120.4092" x="15" y="577.3911">[create grouped target]</text><g class="message" data-participant-1="Handler" data-participant-2="Handler"><line style="stroke:#181818;stroke-width:1;" x1="211.3716" x2="253.3716" y1="601.6709" y2="601.6709"/><line style="stroke:#181818;stroke-width:1;" x1="253.3716" x2="253.3716" y1="601.6709" y2="614.6709"/><line style="stroke:#181818;stroke-width:1;" x1="212.3716" x2="253.3716" y1="614.6709" y2="614.6709"/><polygon fill="#181818" points="222.3716,610.6709,212.3716,614.6709,222.3716,618.6709,218.3716,614.6709" style="stroke:#181818;stroke-width:1;"/><text fill="#000000" font-family="Arial" font-size="13" lengthAdjust="spacing" textLength="190.7471" x="218.3716" y="596.916">processCreateTargetGroupReq()</text></g><g class="message" data-participant-1="Handler" data-participant-2="DatasourceUC"><polygon fill="#181818" points="414.1187,699.4146,424.1187,703.4146,414.1187,707.4146,418.1187,703.4146" style="stroke:#181818;stroke-width:1;"/><line style="stroke:#181818;stroke-width:1;" x1="211.3716" x2="420.1187" y1="703.4146" y2="703.4146"/><text fill="#000000" font-family="Arial" font-size="13" lengthAdjust="spacing" textLength="127.1689" x="255.1606" y="638.8647">CreateKeywordTarget</text><text fill="#000000" font-family="Arial" font-size="13" lengthAdjust="spacing" textLength="3.6118" x="316.9392" y="653.8135">/</text><text fill="#000000" font-family="Arial" font-size="13" lengthAdjust="spacing" textLength="113.439" x="262.0256" y="668.7622">CreateProfileTarget</text><text fill="#000000" font-family="Arial" font-size="13" lengthAdjust="spacing" textLength="3.6118" x="316.9392" y="683.7109">/</text><text fill="#000000" font-family="Arial" font-size="13" lengthAdjust="spacing" textLength="102.6035" x="267.4434" y="698.6597">CreatePostTarget</text></g><g class="message" data-participant-1="DatasourceUC" data-participant-2="DatasourceRepo"><polygon fill="#181818" points="741.019,728.3633,751.019,732.3633,741.019,736.3633,745.019,732.3633" style="stroke:#181818;stroke-width:1;"/><line style="stroke:#181818;stroke-width:1;" x1="436.1187" x2="747.019" y1="732.3633" y2="732.3633"/><text fill="#000000" font-family="Arial" font-size="13" lengthAdjust="spacing" textLength="199.4434" x="494.8472" y="727.6084">DetailDataSource(data_source_id)</text></g><g class="message" data-participant-1="DatasourceRepo" data-participant-2="PostgreSQL"><polygon fill="#181818" points="886.3716,787.2095,896.3716,791.2095,886.3716,795.2095,890.3716,791.2095" style="stroke:#181818;stroke-width:1;"/><line style="stroke:#181818;stroke-width:1;" x1="763.019" x2="892.3716" y1="791.2095" y2="791.2095"/><text fill="#000000" font-family="Arial" font-size="13" lengthAdjust="spacing" textLength="50.5718" x="805.4094" y="756.5571">SELECT</text><text fill="#000000" font-family="Arial" font-size="13" lengthAdjust="spacing" textLength="116.3525" x="772.519" y="771.5059">ingest.data_sources</text><text fill="#000000" font-family="Arial" font-size="13" lengthAdjust="spacing" textLength="20.9473" x="820.2217" y="786.4546">row</text></g><g class="message" data-participant-1="PostgreSQL" data-participant-2="DatasourceRepo"><polygon fill="#181818" points="774.019,831.1069,764.019,835.1069,774.019,839.1069,770.019,835.1069" style="stroke:#181818;stroke-width:1;"/><line style="stroke:#181818;stroke-width:1;stroke-dasharray:2,2;" x1="768.019" x2="902.3716" y1="835.1069" y2="835.1069"/><text fill="#000000" font-family="Arial" font-size="13" lengthAdjust="spacing" textLength="64.3208" x="801.0349" y="815.4033">datasource</text><text fill="#000000" font-family="Arial" font-size="13" lengthAdjust="spacing" textLength="20.9473" x="822.7217" y="830.3521">row</text></g><g class="message" data-participant-1="DatasourceRepo" data-participant-2="DatasourceUC"><polygon fill="#181818" points="447.1187,860.0557,437.1187,864.0557,447.1187,868.0557,443.1187,864.0557" style="stroke:#181818;stroke-width:1;"/><line style="stroke:#181818;stroke-width:1;stroke-dasharray:2,2;" x1="441.1187" x2="757.019" y1="864.0557" y2="864.0557"/><text fill="#000000" font-family="Arial" font-size="13" lengthAdjust="spacing" textLength="64.3208" x="564.9084" y="859.3008">datasource</text></g><g class="message" data-participant-1="DatasourceUC" data-participant-2="DatasourceUC"><line style="stroke:#181818;stroke-width:1;" x1="436.1187" x2="478.1187" y1="952.7993" y2="952.7993"/><line style="stroke:#181818;stroke-width:1;" x1="478.1187" x2="478.1187" y1="952.7993" y2="965.7993"/><line style="stroke:#181818;stroke-width:1;" x1="437.1187" x2="478.1187" y1="965.7993" y2="965.7993"/><polygon fill="#181818" points="447.1187,961.7993,437.1187,965.7993,447.1187,969.7993,443.1187,965.7993" style="stroke:#181818;stroke-width:1;"/><text fill="#000000" font-family="Arial" font-size="13" lengthAdjust="spacing" textLength="130.7871" x="443.1187" y="888.2495">prepareTargetValues()</text><text fill="#000000" font-family="Arial" font-size="13" lengthAdjust="spacing" textLength="21.6899" x="497.6672" y="903.1982">and</text><text fill="#000000" font-family="Arial" font-size="13" lengthAdjust="spacing" textLength="44.8081" x="486.1082" y="918.147">validate</text><text fill="#000000" font-family="Arial" font-size="13" lengthAdjust="spacing" textLength="39.019" x="489.0027" y="933.0957">source</text><text fill="#000000" font-family="Arial" font-size="13" lengthAdjust="spacing" textLength="28.1772" x="494.4236" y="948.0444">rules</text></g><g class="message" data-participant-1="DatasourceUC" data-participant-2="DatasourceRepo"><polygon fill="#181818" points="741.019,990.748,751.019,994.748,741.019,998.748,745.019,994.748" style="stroke:#181818;stroke-width:1;"/><line style="stroke:#181818;stroke-width:1;" x1="436.1187" x2="747.019" y1="994.748" y2="994.748"/><text fill="#000000" font-family="Arial" font-size="13" lengthAdjust="spacing" textLength="127.1689" x="530.9844" y="989.9932">CreateTarget(options)</text></g><g class="message" data-participant-1="DatasourceRepo" data-participant-2="PostgreSQL"><polygon fill="#181818" points="886.3716,1034.6455,896.3716,1038.6455,886.3716,1042.6455,890.3716,1038.6455" style="stroke:#181818;stroke-width:1;"/><line style="stroke:#181818;stroke-width:1;" x1="763.019" x2="892.3716" y1="1038.6455" y2="1038.6455"/><text fill="#000000" font-family="Arial" font-size="13" lengthAdjust="spacing" textLength="47.6709" x="806.8599" y="1018.9419">INSERT</text><text fill="#000000" font-family="Arial" font-size="13" lengthAdjust="spacing" textLength="115.6099" x="772.8904" y="1033.8906">ingest.crawl_targets</text></g><g class="message" data-participant-1="PostgreSQL" data-participant-2="DatasourceRepo"><polygon fill="#181818" points="774.019,1063.5942,764.019,1067.5942,774.019,1071.5942,770.019,1067.5942" style="stroke:#181818;stroke-width:1;"/><line style="stroke:#181818;stroke-width:1;stroke-dasharray:2,2;" x1="768.019" x2="902.3716" y1="1067.5942" y2="1067.5942"/><text fill="#000000" font-family="Arial" font-size="13" lengthAdjust="spacing" textLength="33.2427" x="804.2944" y="1062.8394">target</text><text fill="#000000" font-family="Arial" font-size="13" lengthAdjust="spacing" textLength="3.6118" x="837.5371" y="1062.8394">&#160;</text><text fill="#000000" font-family="Arial" font-size="13" lengthAdjust="spacing" textLength="20.9473" x="841.1489" y="1062.8394">row</text></g><g class="message" data-participant-1="DatasourceRepo" data-participant-2="DatasourceUC"><polygon fill="#181818" points="447.1187,1092.543,437.1187,1096.543,447.1187,1100.543,443.1187,1096.543" style="stroke:#181818;stroke-width:1;"/><line style="stroke:#181818;stroke-width:1;stroke-dasharray:2,2;" x1="441.1187" x2="757.019" y1="1096.543" y2="1096.543"/><text fill="#000000" font-family="Arial" font-size="13" lengthAdjust="spacing" textLength="33.2427" x="580.4475" y="1091.7881">target</text></g><g class="message" data-participant-1="DatasourceUC" data-participant-2="Handler"><polygon fill="#181818" points="222.3716,1136.4404,212.3716,1140.4404,222.3716,1144.4404,218.3716,1140.4404" style="stroke:#181818;stroke-width:1;"/><line style="stroke:#181818;stroke-width:1;stroke-dasharray:2,2;" x1="216.3716" x2="430.1187" y1="1140.4404" y2="1140.4404"/><text fill="#000000" font-family="Arial" font-size="13" lengthAdjust="spacing" textLength="33.2427" x="304.6238" y="1120.7368">target</text><text fill="#000000" font-family="Arial" font-size="13" lengthAdjust="spacing" textLength="36.1436" x="303.1733" y="1135.6855">output</text></g><g class="message" data-participant-1="Handler" data-participant-2="UI"><polygon fill="#181818" points="44.5,1180.3379,34.5,1184.3379,44.5,1188.3379,40.5,1184.3379" style="stroke:#181818;stroke-width:1;"/><line style="stroke:#181818;stroke-width:1;stroke-dasharray:2,2;" x1="38.5" x2="200.3716" y1="1184.3379" y2="1184.3379"/><text fill="#000000" font-family="Arial" font-size="13" lengthAdjust="spacing" textLength="21.6899" x="89.7917" y="1164.6343">200</text><text fill="#000000" font-family="Arial" font-size="13" lengthAdjust="spacing" textLength="3.6118" x="111.4817" y="1164.6343">&#160;</text><text fill="#000000" font-family="Arial" font-size="13" lengthAdjust="spacing" textLength="18.7827" x="115.0935" y="1164.6343">OK</text><text fill="#000000" font-family="Arial" font-size="13" lengthAdjust="spacing" textLength="3.6118" x="133.8762" y="1164.6343">&#160;</text><text fill="#000000" font-family="Arial" font-size="13" lengthAdjust="spacing" textLength="7.5918" x="137.488" y="1164.6343">+</text><text fill="#000000" font-family="Arial" font-size="13" lengthAdjust="spacing" textLength="33.2427" x="100.8145" y="1179.583">target</text></g><!--SRC=[rLHDRnCn4BtlhnZbb892GYz8FI25D43KqfPimZKowqamEFRMzcOfYF_Ex4SszYP1eHK7RhlZDs- -tepz9bJA35i3noNBf7khbRjXQuIX4Kn6jdctNnZNkL0hM39fqN_1-mnLWX_GMhR2eHGh1GagXyP36RIfLdQBUeDIvqDZT0xEP3xTcdslCR7uWV1gu9FeJF546uK6Nfv74KkSDj2PJph0BCmd4S6SI4JAb8FE9NFCwima2E-PuX9D2Qk_ZsBd5aVCOedTcUUZqE7EwA-OE8ZHR0HvZQIWaakd-gco70qpnLHRGVa_j28L3n6dty-K1GNIrgqCnX-lA_BcDuhc4-YztjO35t1t6y-Wpnic2zGT_x__K_1VVSVC2ftjFolw9pRCDVsXZae7YS72jlEBe0aIn4kD9b8xAl5JlE-UXKY_UmIlS5qQPkOAP1Czw3A4RaGJz9DuBj4n8RjfPLu87f25tOUMTsy_hPg7Dg2W9G-EHydQgOLJQseip75fxkhK2TBzaNhBMKERfgYv6JEHJcxYyNG6j7netOjYBejwe47XEsM0xzyxbETkkBHKUQjedwYTsdx_0fruD7-eicXUe2Gl7PqvqiSngb8WZSI8WtRW0iu70xYzWkT-BaXNQYlb5HsE53bKoZz9phCI-gvmF5NPL_YGQyChJ-ZNLfBGKaXiMwd7isqsfox2tXIhJV3KvccZlHT_AxfuV3qU7HHThPZ_LNW73W3IaQudz8d936tt36ZOi65Iy89oct4covqxyGnKZF_W12I6vN9Ht_57ZwBoV_8OcgLwvExNQJnfx-iSKF4eylnhXzy0]--></g></svg>