<svg xmlns="http://www.w3.org/2000/svg" xmlns:xlink="http://www.w3.org/1999/xlink" contentStyleType="text/css" data-diagram-type="SEQUENCE" height="1093px" preserveAspectRatio="none" style="width:980px;height:1093px;background:#FFFFFF;" version="1.1" viewBox="0 0 980 1093" width="980px" zoomAndPan="magnify"><defs/><g><g><title>Ingest Service</title><rect fill="#FFFFFF" height="102.7437" style="stroke:#181818;stroke-width:1;" width="10" x="307.1553" y="170.8936"/></g><g><title>Ingest Service</title><rect fill="#FFFFFF" height="79.7949" style="stroke:#181818;stroke-width:1;" width="10" x="307.1553" y="670.6631"/></g><g><title>Ingest Service</title><rect fill="#FFFFFF" height="103.6924" style="stroke:#181818;stroke-width:1;" width="10" x="307.1553" y="825.3042"/></g><g><title>Scapper Worker</title><rect fill="#FFFFFF" height="294.2822" style="stroke:#181818;stroke-width:1;" width="10" x="591.4888" y="317.5347"/></g><g><title>Artifact Storage</title><rect fill="#FFFFFF" height="43.8975" style="stroke:#181818;stroke-width:1;" width="10" x="710.3057" y="502.0732"/></g><rect fill="none" height="119.6924" rx="6" ry="6" style="stroke:#000000;stroke-width:1.5;" width="247.6338" x="528.9165" y="434.2783"/><rect fill="none" height="164.5386" rx="6" ry="6" style="stroke:#000000;stroke-width:1.5;" width="304.3101" x="69.2002" y="772.458"/><g><title>User</title><rect fill="#000000" fill-opacity="0.00000" height="931.7441" width="8" x="18.7793" y="81.0986"/><line style="stroke:#181818;stroke-width:0.5;stroke-dasharray:5,5;" x1="22" x2="22" y1="81.0986" y2="1012.8428"/></g><g><title>Giao di.n</title><rect fill="#000000" fill-opacity="0.00000" height="931.7441" width="8" x="112.1655" y="81.0986"/><line style="stroke:#181818;stroke-width:0.5;stroke-dasharray:5,5;" x1="115.2002" x2="115.2002" y1="81.0986" y2="1012.8428"/></g><g><title>Ingest Service</title><rect fill="#000000" fill-opacity="0.00000" height="931.7441" width="8" x="308.1553" y="81.0986"/><line style="stroke:#181818;stroke-width:0.5;stroke-dasharray:5,5;" x1="311.8003" x2="311.8003" y1="81.0986" y2="1012.8428"/></g><g><title>RabbitMQ task queue</title><rect fill="#000000" fill-opacity="0.00000" height="931.7441" width="8" x="447.2134" y="81.0986"/><line style="stroke:#181818;stroke-width:0.5;stroke-dasharray:5,5;" x1="450.5103" x2="450.5103" y1="81.0986" y2="1012.8428"/></g><g><title>Scapper Worker</title><rect fill="#000000" fill-opacity="0.00000" height="931.7441" width="8" x="592.4888" y="81.0986"/><line style="stroke:#181818;stroke-width:0.5;stroke-dasharray:5,5;" x1="595.9165" x2="595.9165" y1="81.0986" y2="1012.8428"/></g><g><title>Artifact Storage</title><rect fill="#000000" fill-opacity="0.00000" height="931.7441" width="8" x="711.3057" y="81.0986"/><line style="stroke:#181818;stroke-width:0.5;stroke-dasharray:5,5;" x1="715.061" x2="715.061" y1="81.0986" y2="1012.8428"/></g><g><title>RabbitMQ completion queue</title><rect fill="#000000" fill-opacity="0.00000" height="931.7441" width="8" x="871.2671" y="81.0986"/><line style="stroke:#181818;stroke-width:0.5;stroke-dasharray:5,5;" x1="874.5503" x2="874.5503" y1="81.0986" y2="1012.8428"/></g><g class="participant participant-head" data-participant="User"><text fill="#000000" font-family="Arial" font-size="14" lengthAdjust="spacing" textLength="29.5586" x="5" y="78.1318">User</text><ellipse cx="22.7793" cy="13.5" fill="#E2E2F0" rx="8" ry="8" style="stroke:#181818;stroke-width:0.5;"/><path d="M22.7793,21.5 L22.7793,48.5 M9.7793,29.5 L35.7793,29.5 M22.7793,48.5 L9.7793,63.5 M22.7793,48.5 L35.7793,63.5" fill="none" style="stroke:#181818;stroke-width:0.5;"/></g><g class="participant participant-tail" data-participant="User"><text fill="#000000" font-family="Arial" font-size="14" lengthAdjust="spacing" textLength="29.5586" x="5" y="1024.9746">User</text><ellipse cx="22.7793" cy="1036.4414" fill="#E2E2F0" rx="8" ry="8" style="stroke:#181818;stroke-width:0.5;"/><path d="M22.7793,1044.4414 L22.7793,1071.4414 M9.7793,1052.4414 L35.7793,1052.4414 M22.7793,1071.4414 L9.7793,1086.4414 M22.7793,1071.4414 L35.7793,1086.4414" fill="none" style="stroke:#181818;stroke-width:0.5;"/></g><g class="participant participant-head" data-participant="UI"><rect fill="#E2E2F0" height="30.0986" rx="6" ry="6" style="stroke:#181818;stroke-width:0.5;" width="73.9307" x="79.2002" y="50"/><text fill="#000000" font-family="Arial" font-size="14" lengthAdjust="spacing" textLength="59.9307" x="86.2002" y="70.1318">Giao di&#7879;n</text></g><g class="participant participant-tail" data-participant="UI"><rect fill="#E2E2F0" height="30.0986" rx="6" ry="6" style="stroke:#181818;stroke-width:0.5;" width="73.9307" x="79.2002" y="1011.8428"/><text fill="#000000" font-family="Arial" font-size="14" lengthAdjust="spacing" textLength="59.9307" x="86.2002" y="1031.9746">Giao di&#7879;n</text></g><g class="participant participant-head" data-participant="IngestService"><rect fill="#E2E2F0" height="30.0986" rx="6" ry="6" style="stroke:#181818;stroke-width:0.5;" width="102.71" x="260.8003" y="50"/><text fill="#000000" font-family="Arial" font-size="14" lengthAdjust="spacing" textLength="88.71" x="267.8003" y="70.1318">Ingest Service</text></g><g class="participant participant-tail" data-participant="IngestService"><rect fill="#E2E2F0" height="30.0986" rx="6" ry="6" style="stroke:#181818;stroke-width:0.5;" width="102.71" x="260.8003" y="1011.8428"/><text fill="#000000" font-family="Arial" font-size="14" lengthAdjust="spacing" textLength="88.71" x="267.8003" y="1031.9746">Ingest Service</text></g><g class="participant participant-head" data-participant="TaskQueue"><path d="M378.5103,55 L523.9165,55 C528.9165,55 528.9165,68.0493 528.9165,68.0493 C528.9165,68.0493 528.9165,81.0986 523.9165,81.0986 L378.5103,81.0986 C373.5103,81.0986 373.5103,68.0493 373.5103,68.0493 C373.5103,68.0493 373.5103,55 378.5103,55" fill="#E2E2F0" style="stroke:#181818;stroke-width:0.5;"/><path d="M523.9165,55 C518.9165,55 518.9165,68.0493 518.9165,68.0493 C518.9165,81.0986 523.9165,81.0986 523.9165,81.0986" fill="none" style="stroke:#181818;stroke-width:0.5;"/><text fill="#000000" font-family="Arial" font-size="14" lengthAdjust="spacing" textLength="135.4063" x="378.5103" y="73.1318">RabbitMQ task queue</text></g><g class="participant participant-tail" data-participant="TaskQueue"><path d="M378.5103,1011.8428 L523.9165,1011.8428 C528.9165,1011.8428 528.9165,1024.8921 528.9165,1024.8921 C528.9165,1024.8921 528.9165,1037.9414 523.9165,1037.9414 L378.5103,1037.9414 C373.5103,1037.9414 373.5103,1024.8921 373.5103,1024.8921 C373.5103,1024.8921 373.5103,1011.8428 378.5103,1011.8428" fill="#E2E2F0" style="stroke:#181818;stroke-width:0.5;"/><path d="M523.9165,1011.8428 C518.9165,1011.8428 518.9165,1024.8921 518.9165,1024.8921 C518.9165,1037.9414 523.9165,1037.9414 523.9165,1037.9414" fill="none" style="stroke:#181818;stroke-width:0.5;"/><text fill="#000000" font-family="Arial" font-size="14" lengthAdjust="spacing" textLength="135.4063" x="378.5103" y="1029.9746">RabbitMQ task queue</text></g><g class="participant participant-head" data-participant="Worker"><rect fill="#E2E2F0" height="30.0986" rx="6" ry="6" style="stroke:#181818;stroke-width:0.5;" width="115.1445" x="538.9165" y="50"/><text fill="#000000" font-family="Arial" font-size="14" lengthAdjust="spacing" textLength="101.1445" x="545.9165" y="70.1318">Scapper Worker</text></g><g class="participant participant-tail" data-participant="Worker"><rect fill="#E2E2F0" height="30.0986" rx="6" ry="6" style="stroke:#181818;stroke-width:0.5;" width="115.1445" x="538.9165" y="1011.8428"/><text fill="#000000" font-family="Arial" font-size="14" lengthAdjust="spacing" textLength="101.1445" x="545.9165" y="1031.9746">Scapper Worker</text></g><g class="participant participant-head" data-participant="Storage"><text fill="#000000" font-family="Arial" font-size="14" lengthAdjust="spacing" textLength="96.4893" x="664.061" y="78.1318">Artifact Storage</text><path d="M697.3057,29 C697.3057,19 715.3057,19 715.3057,19 C715.3057,19 733.3057,19 733.3057,29 L733.3057,55 C733.3057,65 715.3057,65 715.3057,65 C715.3057,65 697.3057,65 697.3057,55 L697.3057,29" fill="#E2E2F0" style="stroke:#181818;stroke-width:0.5;"/><path d="M697.3057,29 C697.3057,39 715.3057,39 715.3057,39 C715.3057,39 733.3057,39 733.3057,29" fill="none" style="stroke:#181818;stroke-width:0.5;"/></g><g class="participant participant-tail" data-participant="Storage"><text fill="#000000" font-family="Arial" font-size="14" lengthAdjust="spacing" textLength="96.4893" x="664.061" y="1024.9746">Artifact Storage</text><path d="M697.3057,1037.9414 C697.3057,1027.9414 715.3057,1027.9414 715.3057,1027.9414 C715.3057,1027.9414 733.3057,1027.9414 733.3057,1037.9414 L733.3057,1063.9414 C733.3057,1073.9414 715.3057,1073.9414 715.3057,1073.9414 C715.3057,1073.9414 697.3057,1073.9414 697.3057,1063.9414 L697.3057,1037.9414" fill="#E2E2F0" style="stroke:#181818;stroke-width:0.5;"/><path d="M697.3057,1037.9414 C697.3057,1047.9414 715.3057,1047.9414 715.3057,1047.9414 C715.3057,1047.9414 733.3057,1047.9414 733.3057,1037.9414" fill="none" style="stroke:#181818;stroke-width:0.5;"/></g><g class="participant participant-head" data-participant="CompletionQueue"><path d="M781.5503,55 L968.9839,55 C973.9839,55 973.9839,68.0493 973.9839,68.0493 C973.9839,68.0493 973.9839,81.0986 968.9839,81.0986 L781.5503,81.0986 C776.5503,81.0986 776.5503,68.0493 776.5503,68.0493 C776.5503,68.0493 776.5503,55 781.5503,55" fill="#E2E2F0" style="stroke:#181818;stroke-width:0.5;"/><path d="M968.9839,55 C963.9839,55 963.9839,68.0493 963.9839,68.0493 C963.9839,81.0986 968.9839,81.0986 968.9839,81.0986" fill="none" style="stroke:#181818;stroke-width:0.5;"/><text fill="#000000" font-family="Arial" font-size="14" lengthAdjust="spacing" textLength="177.4336" x="781.5503" y="73.1318">RabbitMQ completion queue</text></g><g class="participant participant-tail" data-participant="CompletionQueue"><path d="M781.5503,1011.8428 L968.9839,1011.8428 C973.9839,1011.8428 973.9839,1024.8921 973.9839,1024.8921 C973.9839,1024.8921 973.9839,1037.9414 968.9839,1037.9414 L781.5503,1037.9414 C776.5503,1037.9414 776.5503,1024.8921 776.5503,1024.8921 C776.5503,1024.8921 776.5503,1011.8428 781.5503,1011.8428" fill="#E2E2F0" style="stroke:#181818;stroke-width:0.5;"/><path d="M968.9839,1011.8428 C963.9839,1011.8428 963.9839,1024.8921 963.9839,1024.8921 C963.9839,1037.9414 968.9839,1037.9414 968.9839,1037.9414" fill="none" style="stroke:#181818;stroke-width:0.5;"/><text fill="#000000" font-family="Arial" font-size="14" lengthAdjust="spacing" textLength="177.4336" x="781.5503" y="1029.9746">RabbitMQ completion queue</text></g><g><title>Ingest Service</title><rect fill="#FFFFFF" height="102.7437" style="stroke:#181818;stroke-width:1;" width="10" x="307.1553" y="170.8936"/></g><g><title>Ingest Service</title><rect fill="#FFFFFF" height="79.7949" style="stroke:#181818;stroke-width:1;" width="10" x="307.1553" y="670.6631"/></g><g><title>Ingest Service</title><rect fill="#FFFFFF" height="103.6924" style="stroke:#181818;stroke-width:1;" width="10" x="307.1553" y="825.3042"/></g><g><title>Scapper Worker</title><rect fill="#FFFFFF" height="294.2822" style="stroke:#181818;stroke-width:1;" width="10" x="591.4888" y="317.5347"/></g><g><title>Artifact Storage</title><rect fill="#FFFFFF" height="43.8975" style="stroke:#181818;stroke-width:1;" width="10" x="710.3057" y="502.0732"/></g><g class="message" data-participant-1="User" data-participant-2="UI"><polygon fill="#181818" points="104.1655,122.9961,114.1655,126.9961,104.1655,130.9961,108.1655,126.9961" style="stroke:#181818;stroke-width:1;"/><line style="stroke:#181818;stroke-width:1;" x1="22.7793" x2="110.1655" y1="126.9961" y2="126.9961"/><text fill="#000000" font-family="Arial" font-size="13" lengthAdjust="spacing" textLength="23.1309" x="45.6211" y="107.2925">Y&#234;u</text><text fill="#000000" font-family="Arial" font-size="13" lengthAdjust="spacing" textLength="3.6118" x="68.752" y="107.2925">&#160;</text><text fill="#000000" font-family="Arial" font-size="13" lengthAdjust="spacing" textLength="20.96" x="72.3638" y="107.2925">c&#7847;u</text><text fill="#000000" font-family="Arial" font-size="13" lengthAdjust="spacing" textLength="27.4473" x="34.7793" y="122.2412">ki&#7875;m</text><text fill="#000000" font-family="Arial" font-size="13" lengthAdjust="spacing" textLength="3.6118" x="62.2266" y="122.2412">&#160;</text><text fill="#000000" font-family="Arial" font-size="13" lengthAdjust="spacing" textLength="15.1709" x="65.8384" y="122.2412">tra</text><text fill="#000000" font-family="Arial" font-size="13" lengthAdjust="spacing" textLength="3.6118" x="81.0093" y="122.2412">&#160;</text><text fill="#000000" font-family="Arial" font-size="13" lengthAdjust="spacing" textLength="19.5444" x="84.6211" y="122.2412">th&#7917;</text></g><g class="message" data-participant-1="UI" data-participant-2="IngestService"><polygon fill="#181818" points="295.1553,166.8936,305.1553,170.8936,295.1553,174.8936,299.1553,170.8936" style="stroke:#181818;stroke-width:1;"/><line style="stroke:#181818;stroke-width:1;" x1="116.1655" x2="301.1553" y1="170.8936" y2="170.8936"/><text fill="#000000" font-family="Arial" font-size="13" lengthAdjust="spacing" textLength="35.3945" x="193.9631" y="151.1899">POST</text><text fill="#000000" font-family="Arial" font-size="13" lengthAdjust="spacing" textLength="137.3062" x="143.0073" y="166.1387">/datasources/{id}/dryrun</text></g><g class="message" data-participant-1="IngestService" data-participant-2="TaskQueue"><line style="stroke:#181818;stroke-width:1;" x1="449.2134" x2="439.2134" y1="214.791" y2="210.791"/><line style="stroke:#181818;stroke-width:1;" x1="449.2134" x2="439.2134" y1="214.791" y2="218.791"/><line style="stroke:#181818;stroke-width:1;" x1="317.1553" x2="450.2134" y1="214.791" y2="214.791"/><text fill="#000000" font-family="Arial" font-size="13" lengthAdjust="spacing" textLength="41.1963" x="363.5862" y="195.0874">publish</text><text fill="#000000" font-family="Arial" font-size="13" lengthAdjust="spacing" textLength="36.8481" x="352.0334" y="210.0361">dryrun</text><text fill="#000000" font-family="Arial" font-size="13" lengthAdjust="spacing" textLength="3.6118" x="388.8816" y="210.0361">&#160;</text><text fill="#000000" font-family="Arial" font-size="13" lengthAdjust="spacing" textLength="23.8418" x="392.4934" y="210.0361">task</text></g><g class="message" data-participant-1="IngestService" data-participant-2="UI"><polygon fill="#181818" points="127.1655,269.6372,117.1655,273.6372,127.1655,277.6372,123.1655,273.6372" style="stroke:#181818;stroke-width:1;"/><line style="stroke:#181818;stroke-width:1;stroke-dasharray:2,2;" x1="121.1655" x2="311.1553" y1="273.6372" y2="273.6372"/><text fill="#000000" font-family="Arial" font-size="13" lengthAdjust="spacing" textLength="36.8481" x="195.7363" y="238.9849">dryrun</text><text fill="#000000" font-family="Arial" font-size="13" lengthAdjust="spacing" textLength="52.7617" x="187.7795" y="253.9336">accepted</text><text fill="#000000" font-family="Arial" font-size="13" lengthAdjust="spacing" textLength="111.5981" x="158.3613" y="268.8823">(status=RUNNING)</text></g><g class="message" data-participant-1="TaskQueue" data-participant-2="Worker"><line style="stroke:#181818;stroke-width:1;" x1="589.4888" x2="579.4888" y1="317.5347" y2="313.5347"/><line style="stroke:#181818;stroke-width:1;" x1="589.4888" x2="579.4888" y1="317.5347" y2="321.5347"/><line style="stroke:#181818;stroke-width:1;" x1="451.2134" x2="590.4888" y1="317.5347" y2="317.5347"/><text fill="#000000" font-family="Arial" font-size="13" lengthAdjust="spacing" textLength="38.2954" x="502.2034" y="297.8311">deliver</text><text fill="#000000" font-family="Arial" font-size="13" lengthAdjust="spacing" textLength="36.8481" x="489.2002" y="312.7798">dryrun</text><text fill="#000000" font-family="Arial" font-size="13" lengthAdjust="spacing" textLength="3.6118" x="526.0483" y="312.7798">&#160;</text><text fill="#000000" font-family="Arial" font-size="13" lengthAdjust="spacing" textLength="23.8418" x="529.6602" y="312.7798">task</text></g><g class="message" data-participant-1="Worker" data-participant-2="Worker"><line style="stroke:#181818;stroke-width:1;" x1="601.4888" x2="643.4888" y1="406.2783" y2="406.2783"/><line style="stroke:#181818;stroke-width:1;" x1="643.4888" x2="643.4888" y1="406.2783" y2="419.2783"/><line style="stroke:#181818;stroke-width:1;" x1="602.4888" x2="643.4888" y1="419.2783" y2="419.2783"/><polygon fill="#181818" points="612.4888,415.2783,602.4888,419.2783,612.4888,423.2783,608.4888,419.2783" style="stroke:#181818;stroke-width:1;"/><text fill="#000000" font-family="Arial" font-size="13" lengthAdjust="spacing" textLength="20.96" x="610.6597" y="341.7285">L&#7845;y</text><text fill="#000000" font-family="Arial" font-size="13" lengthAdjust="spacing" textLength="3.6118" x="631.6196" y="341.7285">&#160;</text><text fill="#000000" font-family="Arial" font-size="13" lengthAdjust="spacing" textLength="25.2891" x="635.2314" y="341.7285">m&#7851;u</text><text fill="#000000" font-family="Arial" font-size="13" lengthAdjust="spacing" textLength="28.1899" x="609.5742" y="356.6772">ho&#7863;c</text><text fill="#000000" font-family="Arial" font-size="13" lengthAdjust="spacing" textLength="3.6118" x="637.7642" y="356.6772">&#160;</text><text fill="#000000" font-family="Arial" font-size="13" lengthAdjust="spacing" textLength="20.23" x="641.376" y="356.6772">x&#225;c</text><text fill="#000000" font-family="Arial" font-size="13" lengthAdjust="spacing" textLength="28.9199" x="608.8442" y="371.626">nh&#7853;n</text><text fill="#000000" font-family="Arial" font-size="13" lengthAdjust="spacing" textLength="3.6118" x="637.7642" y="371.626">&#160;</text><text fill="#000000" font-family="Arial" font-size="13" lengthAdjust="spacing" textLength="20.96" x="641.376" y="371.626">kh&#7843;</text><text fill="#000000" font-family="Arial" font-size="13" lengthAdjust="spacing" textLength="28.9199" x="608.4888" y="386.5747">n&#259;ng</text><text fill="#000000" font-family="Arial" font-size="13" lengthAdjust="spacing" textLength="3.6118" x="637.4087" y="386.5747">&#160;</text><text fill="#000000" font-family="Arial" font-size="13" lengthAdjust="spacing" textLength="21.6709" x="641.0205" y="386.5747">truy</text><text fill="#000000" font-family="Arial" font-size="13" lengthAdjust="spacing" textLength="20.96" x="625.1101" y="401.5234">c&#7853;p</text></g><path d="M534.9165,434.2783 L594.1274,434.2783 L594.1274,441.2271 L584.1274,451.2271 L528.9165,451.2271 L528.9165,440.2783 A6,6 0 0 1 534.9165,434.2783" fill="#EEEEEE" style="stroke:#000000;stroke-width:1.5;"/><rect fill="none" height="119.6924" rx="6" ry="6" style="stroke:#000000;stroke-width:1.5;" width="247.6338" x="528.9165" y="434.2783"/><text fill="#000000" font-family="Arial" font-size="13" font-weight="bold" lengthAdjust="spacing" textLength="20.2109" x="543.9165" y="447.4722">opt</text><text fill="#000000" font-family="Arial" font-size="11" font-weight="bold" lengthAdjust="spacing" textLength="102.6899" x="609.1274" y="446.5962">[C&#243; sample artifact]</text><g class="message" data-participant-1="Worker" data-participant-2="Storage"><polygon fill="#181818" points="698.3057,498.0732,708.3057,502.0732,698.3057,506.0732,702.3057,502.0732" style="stroke:#181818;stroke-width:1;"/><line style="stroke:#181818;stroke-width:1;" x1="601.4888" x2="704.3057" y1="502.0732" y2="502.0732"/><text fill="#000000" font-family="Arial" font-size="13" lengthAdjust="spacing" textLength="27.46" x="642.1672" y="467.4209">save</text><text fill="#000000" font-family="Arial" font-size="13" lengthAdjust="spacing" textLength="41.9072" x="634.9436" y="482.3696">sample</text><text fill="#000000" font-family="Arial" font-size="13" lengthAdjust="spacing" textLength="39.0127" x="636.3909" y="497.3184">artifact</text></g><g class="message" data-participant-1="Storage" data-participant-2="Worker"><polygon fill="#181818" points="612.4888,541.9707,602.4888,545.9707,612.4888,549.9707,608.4888,545.9707" style="stroke:#181818;stroke-width:1;"/><line style="stroke:#181818;stroke-width:1;stroke-dasharray:2,2;" x1="606.4888" x2="714.3057" y1="545.9707" y2="545.9707"/><text fill="#000000" font-family="Arial" font-size="13" lengthAdjust="spacing" textLength="39.0127" x="638.8909" y="526.2671">artifact</text><text fill="#000000" font-family="Arial" font-size="13" lengthAdjust="spacing" textLength="54.2026" x="631.2959" y="541.2158">metadata</text></g><g class="message" data-participant-1="Worker" data-participant-2="CompletionQueue"><line style="stroke:#181818;stroke-width:1;" x1="873.2671" x2="863.2671" y1="611.8169" y2="607.8169"/><line style="stroke:#181818;stroke-width:1;" x1="873.2671" x2="863.2671" y1="611.8169" y2="615.8169"/><line style="stroke:#181818;stroke-width:1;" x1="596.4888" x2="874.2671" y1="611.8169" y2="611.8169"/><text fill="#000000" font-family="Arial" font-size="13" lengthAdjust="spacing" textLength="41.1963" x="715.2798" y="577.1646">publish</text><text fill="#000000" font-family="Arial" font-size="13" lengthAdjust="spacing" textLength="36.8481" x="717.4539" y="592.1133">dryrun</text><text fill="#000000" font-family="Arial" font-size="13" lengthAdjust="spacing" textLength="62.8672" x="704.4443" y="607.062">completion</text></g><g class="message" data-participant-1="CompletionQueue" data-participant-2="IngestService"><line style="stroke:#181818;stroke-width:1;" x1="318.1553" x2="328.1553" y1="670.6631" y2="666.6631"/><line style="stroke:#181818;stroke-width:1;" x1="318.1553" x2="328.1553" y1="670.6631" y2="674.6631"/><line style="stroke:#181818;stroke-width:1;" x1="317.1553" x2="874.2671" y1="670.6631" y2="670.6631"/><text fill="#000000" font-family="Arial" font-size="13" lengthAdjust="spacing" textLength="38.2954" x="577.0635" y="636.0107">deliver</text><text fill="#000000" font-family="Arial" font-size="13" lengthAdjust="spacing" textLength="36.8481" x="577.7871" y="650.9595">dryrun</text><text fill="#000000" font-family="Arial" font-size="13" lengthAdjust="spacing" textLength="62.8672" x="564.7776" y="665.9082">completion</text></g><g class="message" data-participant-1="IngestService" data-participant-2="IngestService"><line style="stroke:#181818;stroke-width:1;" x1="317.1553" x2="359.1553" y1="749.458" y2="749.458"/><line style="stroke:#181818;stroke-width:1;" x1="359.1553" x2="359.1553" y1="749.458" y2="762.458"/><line style="stroke:#181818;stroke-width:1;" x1="312.1553" x2="359.1553" y1="762.458" y2="762.458"/><polygon fill="#181818" points="322.1553,758.458,312.1553,762.458,322.1553,766.458,318.1553,762.458" style="stroke:#181818;stroke-width:1;"/><text fill="#000000" font-family="Arial" font-size="13" lengthAdjust="spacing" textLength="39.7617" x="337.5107" y="699.8569">update</text><text fill="#000000" font-family="Arial" font-size="13" lengthAdjust="spacing" textLength="31.0718" x="324.1553" y="714.8057">latest</text><text fill="#000000" font-family="Arial" font-size="13" lengthAdjust="spacing" textLength="3.6118" x="355.2271" y="714.8057">&#160;</text><text fill="#000000" font-family="Arial" font-size="13" lengthAdjust="spacing" textLength="31.7891" x="358.8389" y="714.8057">result</text><text fill="#000000" font-family="Arial" font-size="13" lengthAdjust="spacing" textLength="21.6899" x="346.5466" y="729.7544">and</text><text fill="#000000" font-family="Arial" font-size="13" lengthAdjust="spacing" textLength="56.3672" x="329.208" y="744.7031">readiness</text></g><path d="M75.2002,772.458 L141.6348,772.458 L141.6348,779.4067 L131.6348,789.4067 L69.2002,789.4067 L69.2002,778.458 A6,6 0 0 1 75.2002,772.458" fill="#EEEEEE" style="stroke:#000000;stroke-width:1.5;"/><rect fill="none" height="164.5386" rx="6" ry="6" style="stroke:#000000;stroke-width:1.5;" width="304.3101" x="69.2002" y="772.458"/><text fill="#000000" font-family="Arial" font-size="13" font-weight="bold" lengthAdjust="spacing" textLength="27.4346" x="84.2002" y="785.6519">loop</text><text fill="#000000" font-family="Arial" font-size="11" font-weight="bold" lengthAdjust="spacing" textLength="131.4521" x="156.6348" y="784.7759">[User ki&#7875;m tra readiness]</text><g class="message" data-participant-1="UI" data-participant-2="IngestService"><polygon fill="#181818" points="295.1553,821.3042,305.1553,825.3042,295.1553,829.3042,299.1553,825.3042" style="stroke:#181818;stroke-width:1;"/><line style="stroke:#181818;stroke-width:1;" x1="116.1655" x2="301.1553" y1="825.3042" y2="825.3042"/><text fill="#000000" font-family="Arial" font-size="13" lengthAdjust="spacing" textLength="26.7236" x="198.2986" y="805.6006">GET</text><text fill="#000000" font-family="Arial" font-size="13" lengthAdjust="spacing" textLength="171.9897" x="125.6655" y="820.5493">/datasources/{id}/dryrun/latest</text></g><g class="message" data-participant-1="IngestService" data-participant-2="UI"><polygon fill="#181818" points="127.1655,924.9966,117.1655,928.9966,127.1655,932.9966,123.1655,928.9966" style="stroke:#181818;stroke-width:1;"/><line style="stroke:#181818;stroke-width:1;stroke-dasharray:2,2;" x1="121.1655" x2="311.1553" y1="928.9966" y2="928.9966"/><text fill="#000000" font-family="Arial" font-size="13" lengthAdjust="spacing" textLength="31.0718" x="198.6245" y="849.498">latest</text><text fill="#000000" font-family="Arial" font-size="13" lengthAdjust="spacing" textLength="36.8481" x="195.7363" y="864.4468">dryrun</text><text fill="#000000" font-family="Arial" font-size="13" lengthAdjust="spacing" textLength="31.7891" x="198.2659" y="879.3955">result</text><text fill="#000000" font-family="Arial" font-size="13" lengthAdjust="spacing" textLength="21.6899" x="203.3154" y="894.3442">and</text><text fill="#000000" font-family="Arial" font-size="13" lengthAdjust="spacing" textLength="56.3672" x="185.9768" y="909.293">readiness</text><text fill="#000000" font-family="Arial" font-size="13" lengthAdjust="spacing" textLength="28.1836" x="200.0686" y="924.2417">state</text></g><g class="message" data-participant-1="UI" data-participant-2="User"><polygon fill="#181818" points="33.7793,990.8428,23.7793,994.8428,33.7793,998.8428,29.7793,994.8428" style="stroke:#181818;stroke-width:1;"/><line style="stroke:#181818;stroke-width:1;stroke-dasharray:2,2;" x1="27.7793" x2="115.1655" y1="994.8428" y2="994.8428"/><text fill="#000000" font-family="Arial" font-size="13" lengthAdjust="spacing" textLength="26.7363" x="36.9565" y="960.1904">Hi&#7875;n</text><text fill="#000000" font-family="Arial" font-size="13" lengthAdjust="spacing" textLength="3.6118" x="63.6929" y="960.1904">&#160;</text><text fill="#000000" font-family="Arial" font-size="13" lengthAdjust="spacing" textLength="13.73" x="67.3047" y="960.1904">th&#7883;</text><text fill="#000000" font-family="Arial" font-size="13" lengthAdjust="spacing" textLength="3.6118" x="81.0347" y="960.1904">&#160;</text><text fill="#000000" font-family="Arial" font-size="13" lengthAdjust="spacing" textLength="17.3418" x="84.6465" y="960.1904">k&#7871;t</text><text fill="#000000" font-family="Arial" font-size="13" lengthAdjust="spacing" textLength="21.6899" x="43.0979" y="975.1392">qu&#7843;</text><text fill="#000000" font-family="Arial" font-size="13" lengthAdjust="spacing" textLength="3.6118" x="64.7878" y="975.1392">&#160;</text><text fill="#000000" font-family="Arial" font-size="13" lengthAdjust="spacing" textLength="27.4473" x="68.3997" y="975.1392">ki&#7875;m</text><text fill="#000000" font-family="Arial" font-size="13" lengthAdjust="spacing" textLength="15.1709" x="50.3088" y="990.0879">tra</text><text fill="#000000" font-family="Arial" font-size="13" lengthAdjust="spacing" textLength="3.6118" x="65.4797" y="990.0879">&#160;</text><text fill="#000000" font-family="Arial" font-size="13" lengthAdjust="spacing" textLength="19.5444" x="69.0916" y="990.0879">th&#7917;</text></g><!--SRC=[ZLIzRXD14ExlAKQfeB0CD4X8M38Hc4Z4a3WMGaeptXlRAz_j7hjxJWAYIa71Ko24a42fA92SWYAyoBq9itTdU- -I81fxR_URRsQ- -R4BgJ8qc49CKymJzqmhDyIKe6ya9f7TlDivnlf4gXbCCR4Klj3Rd9IWVR8MPzHFv4o18EN812X3DjFAhb5FAD4dVMFq2JYJXtGfdjQOaNn7yF1UIA9p5Gjj51cu_o2AK3XjO6pP4mES5393vM1d8553B8lBZse7qC9uh_c-fsPa7Op8BAMW4b9TrJSHPvGJx1pYP2BT_W4uj0ieBqlm4NyU-AycxKXWbd5ehxLPa2cHrJ6AqU44BLFs6J_bk674eNEI9Qe-NtChT9ebvAHMWVFTpMKLGkJpXqwFiuH7yERgUmwYM7tBOS42dAUiBuAR5vSN4GCOriYKBLwz71r1rqTeTMu4sUvx6N_enkRCvCfBB9Veg2LGawJJwsqrOSeidoJIpg7YADLhMwpZhI4e16MEucDrnpfqkNryE1uEzuQ3kr5CjyGGRLtw02gfFIKbSicdqFk6eYv83Uu4PY-ArTSpI8lLZnpckbZz4d1wzLc0cXUh2mKB_li2wiyvZm2tx9aN-IABTEPWz-edMFHL0QpB6m5iNTJbPHyMbtG3T1FTkX5WOzC9GroRG4eEVSKO6CYpjYOLRnFijHlcUdssRHQANIiLjSqzPRk7Mf87XF_PFzSOyopsLWd_yAJozk3b1AXYFc8i5M-8VpH6edLMheLm1hQ603TFmk3fxOFGhI89YzLq2d1BXzSfrD9KcHohHYhWUvwQnMoo-vAMy-jPRTaCptrggXpjJx0eLhyTBmdVe-sv_mi0]--></g></svg>