<svg xmlns="http://www.w3.org/2000/svg" xmlns:xlink="http://www.w3.org/1999/xlink" contentStyleType="text/css" data-diagram-type="SEQUENCE" height="1307px" preserveAspectRatio="none" style="width:855px;height:1307px;background:#FFFFFF;" version="1.1" viewBox="0 0 855 1307" width="855px" zoomAndPan="magnify"><defs/><g><g><title>Crisis Handler</title><rect fill="#FFFFFF" height="1075.0933" style="stroke:#181818;stroke-width:1;" width="10" x="196.2808" y="141.9448"/></g><g><title>Crisis UseCase</title><rect fill="#FFFFFF" height="586.3672" style="stroke:#181818;stroke-width:1;" width="10" x="346.5952" y="236.791"/></g><g><title>Crisis UseCase</title><rect fill="#FFFFFF" height="262.436" style="stroke:#181818;stroke-width:1;" width="10" x="346.5952" y="910.6533"/></g><g><title>Project UseCase</title><rect fill="#FFFFFF" height="131.6924" style="stroke:#181818;stroke-width:1;" width="10" x="473.8569" y="265.7397"/></g><g><title>Crisis Repo</title><rect fill="#FFFFFF" height="367.8286" style="stroke:#181818;stroke-width:1;" width="10" x="586.5532" y="426.3809"/></g><g><title>Crisis Repo</title><rect fill="#FFFFFF" height="204.5386" style="stroke:#181818;stroke-width:1;" width="10" x="586.5532" y="939.6021"/></g><g><title>PostgreSQL</title><rect fill="#FFFFFF" height="28.9487" style="stroke:#181818;stroke-width:1;" width="10" x="782.4585" y="324.5859"/></g><g><title>PostgreSQL</title><rect fill="#FFFFFF" height="43.8975" style="stroke:#181818;stroke-width:1;" width="10" x="782.4585" y="500.1758"/></g><g><title>PostgreSQL</title><rect fill="#FFFFFF" height="43.8975" style="stroke:#181818;stroke-width:1;" width="10" x="782.4585" y="611.9194"/></g><g><title>PostgreSQL</title><rect fill="#FFFFFF" height="43.8975" style="stroke:#181818;stroke-width:1;" width="10" x="782.4585" y="714.3633"/></g><g><title>PostgreSQL</title><rect fill="#FFFFFF" height="28.9487" style="stroke:#181818;stroke-width:1;" width="10" x="782.4585" y="1013.397"/></g><g><title>PostgreSQL</title><rect fill="#FFFFFF" height="28.9487" style="stroke:#181818;stroke-width:1;" width="10" x="782.4585" y="1086.2432"/></g><rect fill="none" height="1053.0933" rx="6" ry="6" style="stroke:#000000;stroke-width:1.5;" width="838.5894" x="10" y="156.9448"/><rect fill="none" height="207.1875" rx="6" ry="6" style="stroke:#000000;stroke-width:1.5;" width="300.2119" x="538.3774" y="559.0732"/><g><title>UI</title><rect fill="#000000" fill-opacity="0.00000" height="1145.9395" width="8" x="29.5" y="81.0986"/><line style="stroke:#181818;stroke-width:0.5;stroke-dasharray:5,5;" x1="33" x2="33" y1="81.0986" y2="1227.0381"/></g><g><title>Crisis Handler</title><rect fill="#000000" fill-opacity="0.00000" height="1145.9395" width="8" x="197.2808" y="81.0986"/><line style="stroke:#181818;stroke-width:0.5;stroke-dasharray:5,5;" x1="200.3257" x2="200.3257" y1="81.0986" y2="1227.0381"/></g><g><title>Crisis UseCase</title><rect fill="#000000" fill-opacity="0.00000" height="1145.9395" width="8" x="347.5952" y="81.0986"/><line style="stroke:#181818;stroke-width:0.5;stroke-dasharray:5,5;" x1="351.3643" x2="351.3643" y1="81.0986" y2="1227.0381"/></g><g><title>Project UseCase</title><rect fill="#000000" fill-opacity="0.00000" height="1145.9395" width="8" x="474.8569" y="81.0986"/><line style="stroke:#181818;stroke-width:0.5;stroke-dasharray:5,5;" x1="478.3364" x2="478.3364" y1="81.0986" y2="1227.0381"/></g><g><title>Crisis Repo</title><rect fill="#000000" fill-opacity="0.00000" height="1145.9395" width="8" x="587.5532" y="81.0986"/><line style="stroke:#181818;stroke-width:0.5;stroke-dasharray:5,5;" x1="591.3774" x2="591.3774" y1="81.0986" y2="1227.0381"/></g><g><title>PostgreSQL</title><rect fill="#000000" fill-opacity="0.00000" height="1145.9395" width="8" x="783.4585" y="81.0986"/><line style="stroke:#181818;stroke-width:0.5;stroke-dasharray:5,5;" x1="787.3276" x2="787.3276" y1="81.0986" y2="1227.0381"/></g><g class="participant participant-head" data-participant="UI"><text fill="#000000" font-family="Arial" font-size="14" lengthAdjust="spacing" textLength="14" x="23.5" y="78.1318">UI</text><ellipse cx="33.5" cy="13.5" fill="#E2E2F0" rx="8" ry="8" style="stroke:#181818;stroke-width:0.5;"/><path d="M33.5,21.5 L33.5,48.5 M20.5,29.5 L46.5,29.5 M33.5,48.5 L20.5,63.5 M33.5,48.5 L46.5,63.5" fill="none" style="stroke:#181818;stroke-width:0.5;"/></g><g class="participant participant-tail" data-participant="UI"><text fill="#000000" font-family="Arial" font-size="14" lengthAdjust="spacing" textLength="14" x="23.5" y="1239.1699">UI</text><ellipse cx="33.5" cy="1250.6367" fill="#E2E2F0" rx="8" ry="8" style="stroke:#181818;stroke-width:0.5;"/><path d="M33.5,1258.6367 L33.5,1285.6367 M20.5,1266.6367 L46.5,1266.6367 M33.5,1285.6367 L20.5,1300.6367 M33.5,1285.6367 L46.5,1300.6367" fill="none" style="stroke:#181818;stroke-width:0.5;"/></g><g class="participant participant-head" data-participant="CrisisHandler"><rect fill="#E2E2F0" height="30.0986" rx="6" ry="6" style="stroke:#181818;stroke-width:0.5;" width="101.9102" x="150.3257" y="50"/><text fill="#000000" font-family="Arial" font-size="14" lengthAdjust="spacing" textLength="87.9102" x="157.3257" y="70.1318">Crisis Handler</text></g><g class="participant participant-tail" data-participant="CrisisHandler"><rect fill="#E2E2F0" height="30.0986" rx="6" ry="6" style="stroke:#181818;stroke-width:0.5;" width="101.9102" x="150.3257" y="1226.0381"/><text fill="#000000" font-family="Arial" font-size="14" lengthAdjust="spacing" textLength="87.9102" x="157.3257" y="1246.1699">Crisis Handler</text></g><g class="participant participant-head" data-participant="CrisisUC"><rect fill="#E2E2F0" height="30.0986" rx="6" ry="6" style="stroke:#181818;stroke-width:0.5;" width="110.4619" x="296.3643" y="50"/><text fill="#000000" font-family="Arial" font-size="14" lengthAdjust="spacing" textLength="96.4619" x="303.3643" y="70.1318">Crisis UseCase</text></g><g class="participant participant-tail" data-participant="CrisisUC"><rect fill="#E2E2F0" height="30.0986" rx="6" ry="6" style="stroke:#181818;stroke-width:0.5;" width="110.4619" x="296.3643" y="1226.0381"/><text fill="#000000" font-family="Arial" font-size="14" lengthAdjust="spacing" textLength="96.4619" x="303.3643" y="1246.1699">Crisis UseCase</text></g><g class="participant participant-head" data-participant="ProjectUC"><rect fill="#E2E2F0" height="30.0986" rx="6" ry="6" style="stroke:#181818;stroke-width:0.5;" width="119.041" x="419.3364" y="50"/><text fill="#000000" font-family="Arial" font-size="14" lengthAdjust="spacing" textLength="105.041" x="426.3364" y="70.1318">Project UseCase</text></g><g class="participant participant-tail" data-participant="ProjectUC"><rect fill="#E2E2F0" height="30.0986" rx="6" ry="6" style="stroke:#181818;stroke-width:0.5;" width="119.041" x="419.3364" y="1226.0381"/><text fill="#000000" font-family="Arial" font-size="14" lengthAdjust="spacing" textLength="105.041" x="426.3364" y="1246.1699">Project UseCase</text></g><g class="participant participant-head" data-participant="CrisisRepo"><rect fill="#E2E2F0" height="30.0986" rx="6" ry="6" style="stroke:#181818;stroke-width:0.5;" width="86.3516" x="548.3774" y="50"/><text fill="#000000" font-family="Arial" font-size="14" lengthAdjust="spacing" textLength="72.3516" x="555.3774" y="70.1318">Crisis Repo</text></g><g class="participant participant-tail" data-participant="CrisisRepo"><rect fill="#E2E2F0" height="30.0986" rx="6" ry="6" style="stroke:#181818;stroke-width:0.5;" width="86.3516" x="548.3774" y="1226.0381"/><text fill="#000000" font-family="Arial" font-size="14" lengthAdjust="spacing" textLength="72.3516" x="555.3774" y="1246.1699">Crisis Repo</text></g><g class="participant participant-head" data-participant="PostgreSQL"><text fill="#000000" font-family="Arial" font-size="14" lengthAdjust="spacing" textLength="76.2617" x="746.3276" y="78.1318">PostgreSQL</text><path d="M769.4585,29 C769.4585,19 787.4585,19 787.4585,19 C787.4585,19 805.4585,19 805.4585,29 L805.4585,55 C805.4585,65 787.4585,65 787.4585,65 C787.4585,65 769.4585,65 769.4585,55 L769.4585,29" fill="#E2E2F0" style="stroke:#181818;stroke-width:0.5;"/><path d="M769.4585,29 C769.4585,39 787.4585,39 787.4585,39 C787.4585,39 805.4585,39 805.4585,29" fill="none" style="stroke:#181818;stroke-width:0.5;"/></g><g class="participant participant-tail" data-participant="PostgreSQL"><text fill="#000000" font-family="Arial" font-size="14" lengthAdjust="spacing" textLength="76.2617" x="746.3276" y="1239.1699">PostgreSQL</text><path d="M769.4585,1252.1367 C769.4585,1242.1367 787.4585,1242.1367 787.4585,1242.1367 C787.4585,1242.1367 805.4585,1242.1367 805.4585,1252.1367 L805.4585,1278.1367 C805.4585,1288.1367 787.4585,1288.1367 787.4585,1288.1367 C787.4585,1288.1367 769.4585,1288.1367 769.4585,1278.1367 L769.4585,1252.1367" fill="#E2E2F0" style="stroke:#181818;stroke-width:0.5;"/><path d="M769.4585,1252.1367 C769.4585,1262.1367 787.4585,1262.1367 787.4585,1262.1367 C787.4585,1262.1367 805.4585,1262.1367 805.4585,1252.1367" fill="none" style="stroke:#181818;stroke-width:0.5;"/></g><g><title>Crisis Handler</title><rect fill="#FFFFFF" height="1075.0933" style="stroke:#181818;stroke-width:1;" width="10" x="196.2808" y="141.9448"/></g><g><title>Crisis UseCase</title><rect fill="#FFFFFF" height="586.3672" style="stroke:#181818;stroke-width:1;" width="10" x="346.5952" y="236.791"/></g><g><title>Crisis UseCase</title><rect fill="#FFFFFF" height="262.436" style="stroke:#181818;stroke-width:1;" width="10" x="346.5952" y="910.6533"/></g><g><title>Project UseCase</title><rect fill="#FFFFFF" height="131.6924" style="stroke:#181818;stroke-width:1;" width="10" x="473.8569" y="265.7397"/></g><g><title>Crisis Repo</title><rect fill="#FFFFFF" height="367.8286" style="stroke:#181818;stroke-width:1;" width="10" x="586.5532" y="426.3809"/></g><g><title>Crisis Repo</title><rect fill="#FFFFFF" height="204.5386" style="stroke:#181818;stroke-width:1;" width="10" x="586.5532" y="939.6021"/></g><g><title>PostgreSQL</title><rect fill="#FFFFFF" height="28.9487" style="stroke:#181818;stroke-width:1;" width="10" x="782.4585" y="324.5859"/></g><g><title>PostgreSQL</title><rect fill="#FFFFFF" height="43.8975" style="stroke:#181818;stroke-width:1;" width="10" x="782.4585" y="500.1758"/></g><g><title>PostgreSQL</title><rect fill="#FFFFFF" height="43.8975" style="stroke:#181818;stroke-width:1;" width="10" x="782.4585" y="611.9194"/></g><g><title>PostgreSQL</title><rect fill="#FFFFFF" height="43.8975" style="stroke:#181818;stroke-width:1;" width="10" x="782.4585" y="714.3633"/></g><g><title>PostgreSQL</title><rect fill="#FFFFFF" height="28.9487" style="stroke:#181818;stroke-width:1;" width="10" x="782.4585" y="1013.397"/></g><g><title>PostgreSQL</title><rect fill="#FFFFFF" height="28.9487" style="stroke:#181818;stroke-width:1;" width="10" x="782.4585" y="1086.2432"/></g><g class="message" data-participant-1="UI" data-participant-2="CrisisHandler"><polygon fill="#181818" points="184.2808,137.9448,194.2808,141.9448,184.2808,145.9448,188.2808,141.9448" style="stroke:#181818;stroke-width:1;"/><line style="stroke:#181818;stroke-width:1;" x1="33.5" x2="190.2808" y1="141.9448" y2="141.9448"/><text fill="#000000" font-family="Arial" font-size="13" lengthAdjust="spacing" textLength="26" x="94.3049" y="107.2925">PUT</text><text fill="#000000" font-family="Arial" font-size="13" lengthAdjust="spacing" textLength="3.6118" x="120.3049" y="107.2925">&#160;</text><text fill="#000000" font-family="Arial" font-size="13" lengthAdjust="spacing" textLength="11.5591" x="123.9167" y="107.2925">or</text><text fill="#000000" font-family="Arial" font-size="13" lengthAdjust="spacing" textLength="50.5718" x="89.6045" y="122.2412">DELETE</text><text fill="#000000" font-family="Arial" font-size="13" lengthAdjust="spacing" textLength="143.7808" x="43" y="137.1899">/projects/{id}/crisis-config</text></g><path d="M16,156.9448 L70.1709,156.9448 L70.1709,163.8936 L60.1709,173.8936 L10,173.8936 L10,162.9448 A6,6 0 0 1 16,156.9448" fill="#EEEEEE" style="stroke:#000000;stroke-width:1.5;"/><rect fill="none" height="1053.0933" rx="6" ry="6" style="stroke:#000000;stroke-width:1.5;" width="838.5894" x="10" y="156.9448"/><text fill="#000000" font-family="Arial" font-size="13" font-weight="bold" lengthAdjust="spacing" textLength="15.1709" x="25" y="170.1387">alt</text><text fill="#000000" font-family="Arial" font-size="11" font-weight="bold" lengthAdjust="spacing" textLength="76.9946" x="85.1709" y="169.2627">[upsert config]</text><g class="message" data-participant-1="CrisisHandler" data-participant-2="CrisisHandler"><line style="stroke:#181818;stroke-width:1;" x1="206.2808" x2="248.2808" y1="194.8423" y2="194.8423"/><line style="stroke:#181818;stroke-width:1;" x1="248.2808" x2="248.2808" y1="194.8423" y2="207.8423"/><line style="stroke:#181818;stroke-width:1;" x1="207.2808" x2="248.2808" y1="207.8423" y2="207.8423"/><polygon fill="#181818" points="217.2808,203.8423,207.2808,207.8423,217.2808,211.8423,213.2808,207.8423" style="stroke:#181818;stroke-width:1;"/><text fill="#000000" font-family="Arial" font-size="13" lengthAdjust="spacing" textLength="116.3145" x="213.2808" y="190.0874">processUpsertReq()</text></g><g class="message" data-participant-1="CrisisHandler" data-participant-2="CrisisUC"><polygon fill="#181818" points="334.5952,232.791,344.5952,236.791,334.5952,240.791,338.5952,236.791" style="stroke:#181818;stroke-width:1;"/><line style="stroke:#181818;stroke-width:1;" x1="206.2808" x2="340.5952" y1="236.791" y2="236.791"/><text fill="#000000" font-family="Arial" font-size="13" lengthAdjust="spacing" textLength="75.1372" x="238.8694" y="232.0361">Upsert(input)</text></g><g class="message" data-participant-1="CrisisUC" data-participant-2="ProjectUC"><polygon fill="#181818" points="461.8569,261.7397,471.8569,265.7397,461.8569,269.7397,465.8569,265.7397" style="stroke:#181818;stroke-width:1;"/><line style="stroke:#181818;stroke-width:1;" x1="356.5952" x2="467.8569" y1="265.7397" y2="265.7397"/><text fill="#000000" font-family="Arial" font-size="13" lengthAdjust="spacing" textLength="98.2617" x="366.0952" y="260.9849">Detail(project_id)</text></g><g class="message" data-participant-1="ProjectUC" data-participant-2="PostgreSQL"><polygon fill="#181818" points="770.4585,320.5859,780.4585,324.5859,770.4585,328.5859,774.4585,324.5859" style="stroke:#181818;stroke-width:1;"/><line style="stroke:#181818;stroke-width:1;" x1="483.8569" x2="776.4585" y1="324.5859" y2="324.5859"/><text fill="#000000" font-family="Arial" font-size="13" lengthAdjust="spacing" textLength="50.5718" x="607.8718" y="289.9336">SELECT</text><text fill="#000000" font-family="Arial" font-size="13" lengthAdjust="spacing" textLength="39.019" x="604.9773" y="304.8823">project</text><text fill="#000000" font-family="Arial" font-size="13" lengthAdjust="spacing" textLength="3.6118" x="643.9963" y="304.8823">&#160;</text><text fill="#000000" font-family="Arial" font-size="13" lengthAdjust="spacing" textLength="13.73" x="647.6082" y="304.8823">by</text><text fill="#000000" font-family="Arial" font-size="13" lengthAdjust="spacing" textLength="10.1182" x="628.0986" y="319.8311">id</text></g><g class="message" data-participant-1="PostgreSQL" data-participant-2="ProjectUC"><polygon fill="#181818" points="494.8569,349.5347,484.8569,353.5347,494.8569,357.5347,490.8569,353.5347" style="stroke:#181818;stroke-width:1;"/><line style="stroke:#181818;stroke-width:1;stroke-dasharray:2,2;" x1="488.8569" x2="786.4585" y1="353.5347" y2="353.5347"/><text fill="#000000" font-family="Arial" font-size="13" lengthAdjust="spacing" textLength="39.019" x="603.8687" y="348.7798">project</text><text fill="#000000" font-family="Arial" font-size="13" lengthAdjust="spacing" textLength="3.6118" x="642.8877" y="348.7798">&#160;</text><text fill="#000000" font-family="Arial" font-size="13" lengthAdjust="spacing" textLength="20.9473" x="646.4995" y="348.7798">row</text></g><g class="message" data-participant-1="ProjectUC" data-participant-2="CrisisUC"><polygon fill="#181818" points="367.5952,393.4321,357.5952,397.4321,367.5952,401.4321,363.5952,397.4321" style="stroke:#181818;stroke-width:1;"/><line style="stroke:#181818;stroke-width:1;stroke-dasharray:2,2;" x1="361.5952" x2="477.8569" y1="397.4321" y2="397.4321"/><text fill="#000000" font-family="Arial" font-size="13" lengthAdjust="spacing" textLength="39.019" x="398.2166" y="377.7285">project</text><text fill="#000000" font-family="Arial" font-size="13" lengthAdjust="spacing" textLength="33.23" x="401.1111" y="392.6772">exists</text></g><g class="message" data-participant-1="CrisisUC" data-participant-2="CrisisRepo"><polygon fill="#181818" points="574.5532,422.3809,584.5532,426.3809,574.5532,430.3809,578.5532,426.3809" style="stroke:#181818;stroke-width:1;"/><line style="stroke:#181818;stroke-width:1;" x1="356.5952" x2="580.5532" y1="426.3809" y2="426.3809"/><text fill="#000000" font-family="Arial" font-size="13" lengthAdjust="spacing" textLength="130.0381" x="406.5552" y="421.626">Upsert(UpsertOptions)</text></g><g class="message" data-participant-1="CrisisRepo" data-participant-2="PostgreSQL"><polygon fill="#181818" points="770.4585,496.1758,780.4585,500.1758,770.4585,504.1758,774.4585,500.1758" style="stroke:#181818;stroke-width:1;"/><line style="stroke:#181818;stroke-width:1;" x1="596.5532" x2="776.4585" y1="500.1758" y2="500.1758"/><text fill="#000000" font-family="Arial" font-size="13" lengthAdjust="spacing" textLength="50.5718" x="664.22" y="450.5747">SELECT</text><text fill="#000000" font-family="Arial" font-size="13" lengthAdjust="spacing" textLength="29.6055" x="655.5522" y="465.5234">crisis</text><text fill="#000000" font-family="Arial" font-size="13" lengthAdjust="spacing" textLength="3.6118" x="685.1577" y="465.5234">&#160;</text><text fill="#000000" font-family="Arial" font-size="13" lengthAdjust="spacing" textLength="34.6899" x="688.7695" y="465.5234">config</text><text fill="#000000" font-family="Arial" font-size="13" lengthAdjust="spacing" textLength="13.73" x="682.6409" y="480.4722">by</text><text fill="#000000" font-family="Arial" font-size="13" lengthAdjust="spacing" textLength="56.3672" x="661.3223" y="495.4209">project_id</text></g><g class="message" data-participant-1="PostgreSQL" data-participant-2="CrisisRepo"><polygon fill="#181818" points="607.5532,540.0732,597.5532,544.0732,607.5532,548.0732,603.5532,544.0732" style="stroke:#181818;stroke-width:1;"/><line style="stroke:#181818;stroke-width:1;stroke-dasharray:2,2;" x1="601.5532" x2="786.4585" y1="544.0732" y2="544.0732"/><text fill="#000000" font-family="Arial" font-size="13" lengthAdjust="spacing" textLength="20.9473" x="664.9109" y="524.3696">row</text><text fill="#000000" font-family="Arial" font-size="13" lengthAdjust="spacing" textLength="3.6118" x="685.8582" y="524.3696">&#160;</text><text fill="#000000" font-family="Arial" font-size="13" lengthAdjust="spacing" textLength="11.5591" x="689.47" y="524.3696">or</text><text fill="#000000" font-family="Arial" font-size="13" lengthAdjust="spacing" textLength="3.6118" x="701.0291" y="524.3696">&#160;</text><text fill="#000000" font-family="Arial" font-size="13" lengthAdjust="spacing" textLength="14.46" x="704.6409" y="524.3696">no</text><text fill="#000000" font-family="Arial" font-size="13" lengthAdjust="spacing" textLength="27.4473" x="678.2822" y="539.3184">rows</text></g><path d="M544.3774,559.0732 L598.5483,559.0732 L598.5483,566.022 L588.5483,576.022 L538.3774,576.022 L538.3774,565.0732 A6,6 0 0 1 544.3774,559.0732" fill="#EEEEEE" style="stroke:#000000;stroke-width:1.5;"/><rect fill="none" height="207.1875" rx="6" ry="6" style="stroke:#000000;stroke-width:1.5;" width="300.2119" x="538.3774" y="559.0732"/><text fill="#000000" font-family="Arial" font-size="13" font-weight="bold" lengthAdjust="spacing" textLength="15.1709" x="553.3774" y="572.2671">alt</text><text fill="#000000" font-family="Arial" font-size="11" font-weight="bold" lengthAdjust="spacing" textLength="84.9438" x="613.5483" y="571.3911">[existing config]</text><g class="message" data-participant-1="CrisisRepo" data-participant-2="PostgreSQL"><polygon fill="#181818" points="770.4585,607.9194,780.4585,611.9194,770.4585,615.9194,774.4585,611.9194" style="stroke:#181818;stroke-width:1;"/><line style="stroke:#181818;stroke-width:1;" x1="596.5532" x2="776.4585" y1="611.9194" y2="611.9194"/><text fill="#000000" font-family="Arial" font-size="13" lengthAdjust="spacing" textLength="52.73" x="663.1409" y="592.2158">UPDATE</text><text fill="#000000" font-family="Arial" font-size="13" lengthAdjust="spacing" textLength="166.9053" x="606.0532" y="607.1646">project.projects_crisis_config</text></g><g class="message" data-participant-1="PostgreSQL" data-participant-2="CrisisRepo"><polygon fill="#181818" points="607.5532,651.8169,597.5532,655.8169,607.5532,659.8169,603.5532,655.8169" style="stroke:#181818;stroke-width:1;"/><line style="stroke:#181818;stroke-width:1;stroke-dasharray:2,2;" x1="601.5532" x2="786.4585" y1="655.8169" y2="655.8169"/><text fill="#000000" font-family="Arial" font-size="13" lengthAdjust="spacing" textLength="46.9917" x="668.51" y="636.1133">updated</text><text fill="#000000" font-family="Arial" font-size="13" lengthAdjust="spacing" textLength="20.9473" x="681.5322" y="651.062">row</text></g><line style="stroke:#000000;stroke-width:1;stroke-dasharray:2,2;" x1="538.3774" x2="838.5894" y1="664.8169" y2="664.8169"/><text fill="#000000" font-family="Arial" font-size="11" font-weight="bold" lengthAdjust="spacing" textLength="64.77" x="543.3774" y="675.1348">[new config]</text><g class="message" data-participant-1="CrisisRepo" data-participant-2="PostgreSQL"><polygon fill="#181818" points="770.4585,710.3633,780.4585,714.3633,770.4585,718.3633,774.4585,714.3633" style="stroke:#181818;stroke-width:1;"/><line style="stroke:#181818;stroke-width:1;" x1="596.5532" x2="776.4585" y1="714.3633" y2="714.3633"/><text fill="#000000" font-family="Arial" font-size="13" lengthAdjust="spacing" textLength="47.6709" x="665.6704" y="694.6597">INSERT</text><text fill="#000000" font-family="Arial" font-size="13" lengthAdjust="spacing" textLength="166.9053" x="606.0532" y="709.6084">project.projects_crisis_config</text></g><g class="message" data-participant-1="PostgreSQL" data-participant-2="CrisisRepo"><polygon fill="#181818" points="607.5532,754.2607,597.5532,758.2607,607.5532,762.2607,603.5532,758.2607" style="stroke:#181818;stroke-width:1;"/><line style="stroke:#181818;stroke-width:1;stroke-dasharray:2,2;" x1="601.5532" x2="786.4585" y1="758.2607" y2="758.2607"/><text fill="#000000" font-family="Arial" font-size="13" lengthAdjust="spacing" textLength="46.249" x="668.8813" y="738.5571">inserted</text><text fill="#000000" font-family="Arial" font-size="13" lengthAdjust="spacing" textLength="20.9473" x="681.5322" y="753.5059">row</text></g><g class="message" data-participant-1="CrisisRepo" data-participant-2="CrisisUC"><polygon fill="#181818" points="367.5952,790.2095,357.5952,794.2095,367.5952,798.2095,363.5952,794.2095" style="stroke:#181818;stroke-width:1;"/><line style="stroke:#181818;stroke-width:1;stroke-dasharray:2,2;" x1="361.5952" x2="590.5532" y1="794.2095" y2="794.2095"/><text fill="#000000" font-family="Arial" font-size="13" lengthAdjust="spacing" textLength="70.0718" x="439.0383" y="789.4546">CrisisConfig</text></g><g class="message" data-participant-1="CrisisUC" data-participant-2="CrisisHandler"><polygon fill="#181818" points="217.2808,819.1582,207.2808,823.1582,217.2808,827.1582,213.2808,823.1582" style="stroke:#181818;stroke-width:1;"/><line style="stroke:#181818;stroke-width:1;stroke-dasharray:2,2;" x1="211.2808" x2="350.5952" y1="823.1582" y2="823.1582"/><text fill="#000000" font-family="Arial" font-size="13" lengthAdjust="spacing" textLength="77.3145" x="240.2808" y="818.4033">UpsertOutput</text></g><g class="message" data-participant-1="CrisisHandler" data-participant-2="UI"><polygon fill="#181818" points="44.5,863.0557,34.5,867.0557,44.5,871.0557,40.5,867.0557" style="stroke:#181818;stroke-width:1;"/><line style="stroke:#181818;stroke-width:1;stroke-dasharray:2,2;" x1="38.5" x2="195.2808" y1="867.0557" y2="867.0557"/><text fill="#000000" font-family="Arial" font-size="13" lengthAdjust="spacing" textLength="21.6899" x="87.2463" y="847.3521">200</text><text fill="#000000" font-family="Arial" font-size="13" lengthAdjust="spacing" textLength="3.6118" x="108.9363" y="847.3521">&#160;</text><text fill="#000000" font-family="Arial" font-size="13" lengthAdjust="spacing" textLength="18.7827" x="112.5481" y="847.3521">OK</text><text fill="#000000" font-family="Arial" font-size="13" lengthAdjust="spacing" textLength="3.6118" x="131.3308" y="847.3521">&#160;</text><text fill="#000000" font-family="Arial" font-size="13" lengthAdjust="spacing" textLength="7.5918" x="134.9426" y="847.3521">+</text><text fill="#000000" font-family="Arial" font-size="13" lengthAdjust="spacing" textLength="29.6055" x="80.9368" y="862.3008">crisis</text><text fill="#000000" font-family="Arial" font-size="13" lengthAdjust="spacing" textLength="3.6118" x="110.5422" y="862.3008">&#160;</text><text fill="#000000" font-family="Arial" font-size="13" lengthAdjust="spacing" textLength="34.6899" x="114.1541" y="862.3008">config</text></g><line style="stroke:#000000;stroke-width:1;stroke-dasharray:2,2;" x1="10" x2="848.5894" y1="876.0557" y2="876.0557"/><text fill="#000000" font-family="Arial" font-size="11" font-weight="bold" lengthAdjust="spacing" textLength="75.1685" x="15" y="886.3735">[delete config]</text><g class="message" data-participant-1="CrisisHandler" data-participant-2="CrisisUC"><polygon fill="#181818" points="334.5952,906.6533,344.5952,910.6533,334.5952,914.6533,338.5952,910.6533" style="stroke:#181818;stroke-width:1;"/><line style="stroke:#181818;stroke-width:1;" x1="206.2808" x2="340.5952" y1="910.6533" y2="910.6533"/><text fill="#000000" font-family="Arial" font-size="13" lengthAdjust="spacing" textLength="102.6035" x="225.1362" y="905.8984">Delete(project_id)</text></g><g class="message" data-participant-1="CrisisUC" data-participant-2="CrisisRepo"><polygon fill="#181818" points="574.5532,935.6021,584.5532,939.6021,574.5532,943.6021,578.5532,939.6021" style="stroke:#181818;stroke-width:1;"/><line style="stroke:#181818;stroke-width:1;" x1="356.5952" x2="580.5532" y1="939.6021" y2="939.6021"/><text fill="#000000" font-family="Arial" font-size="13" lengthAdjust="spacing" textLength="102.6035" x="420.2725" y="934.8472">Delete(project_id)</text></g><g class="message" data-participant-1="CrisisRepo" data-participant-2="PostgreSQL"><polygon fill="#181818" points="770.4585,1009.397,780.4585,1013.397,770.4585,1017.397,774.4585,1013.397" style="stroke:#181818;stroke-width:1;"/><line style="stroke:#181818;stroke-width:1;" x1="596.5532" x2="776.4585" y1="1013.397" y2="1013.397"/><text fill="#000000" font-family="Arial" font-size="13" lengthAdjust="spacing" textLength="50.5718" x="664.22" y="963.7959">SELECT</text><text fill="#000000" font-family="Arial" font-size="13" lengthAdjust="spacing" textLength="29.6055" x="655.5522" y="978.7446">crisis</text><text fill="#000000" font-family="Arial" font-size="13" lengthAdjust="spacing" textLength="3.6118" x="685.1577" y="978.7446">&#160;</text><text fill="#000000" font-family="Arial" font-size="13" lengthAdjust="spacing" textLength="34.6899" x="688.7695" y="978.7446">config</text><text fill="#000000" font-family="Arial" font-size="13" lengthAdjust="spacing" textLength="13.73" x="682.6409" y="993.6934">by</text><text fill="#000000" font-family="Arial" font-size="13" lengthAdjust="spacing" textLength="56.3672" x="661.3223" y="1008.6421">project_id</text></g><g class="message" data-participant-1="PostgreSQL" data-participant-2="CrisisRepo"><polygon fill="#181818" points="607.5532,1038.3457,597.5532,1042.3457,607.5532,1046.3457,603.5532,1042.3457" style="stroke:#181818;stroke-width:1;"/><line style="stroke:#181818;stroke-width:1;stroke-dasharray:2,2;" x1="601.5532" x2="786.4585" y1="1042.3457" y2="1042.3457"/><text fill="#000000" font-family="Arial" font-size="13" lengthAdjust="spacing" textLength="34.6899" x="662.3813" y="1037.5908">config</text><text fill="#000000" font-family="Arial" font-size="13" lengthAdjust="spacing" textLength="3.6118" x="697.0713" y="1037.5908">&#160;</text><text fill="#000000" font-family="Arial" font-size="13" lengthAdjust="spacing" textLength="20.9473" x="700.6831" y="1037.5908">row</text></g><g class="message" data-participant-1="CrisisRepo" data-participant-2="PostgreSQL"><polygon fill="#181818" points="770.4585,1082.2432,780.4585,1086.2432,770.4585,1090.2432,774.4585,1086.2432" style="stroke:#181818;stroke-width:1;"/><line style="stroke:#181818;stroke-width:1;" x1="596.5532" x2="776.4585" y1="1086.2432" y2="1086.2432"/><text fill="#000000" font-family="Arial" font-size="13" lengthAdjust="spacing" textLength="50.5718" x="664.22" y="1066.5396">DELETE</text><text fill="#000000" font-family="Arial" font-size="13" lengthAdjust="spacing" textLength="166.9053" x="606.0532" y="1081.4883">project.projects_crisis_config</text></g><g class="message" data-participant-1="PostgreSQL" data-participant-2="CrisisRepo"><polygon fill="#181818" points="607.5532,1111.1919,597.5532,1115.1919,607.5532,1119.1919,603.5532,1115.1919" style="stroke:#181818;stroke-width:1;"/><line style="stroke:#181818;stroke-width:1;stroke-dasharray:2,2;" x1="601.5532" x2="786.4585" y1="1115.1919" y2="1115.1919"/><text fill="#000000" font-family="Arial" font-size="13" lengthAdjust="spacing" textLength="42.6499" x="670.6809" y="1110.437">deleted</text></g><g class="message" data-participant-1="CrisisRepo" data-participant-2="CrisisUC"><polygon fill="#181818" points="367.5952,1140.1406,357.5952,1144.1406,367.5952,1148.1406,363.5952,1144.1406" style="stroke:#181818;stroke-width:1;"/><line style="stroke:#181818;stroke-width:1;stroke-dasharray:2,2;" x1="361.5952" x2="590.5532" y1="1144.1406" y2="1144.1406"/><text fill="#000000" font-family="Arial" font-size="13" lengthAdjust="spacing" textLength="13.73" x="467.2092" y="1139.3857">ok</text></g><g class="message" data-participant-1="CrisisUC" data-participant-2="CrisisHandler"><polygon fill="#181818" points="217.2808,1169.0894,207.2808,1173.0894,217.2808,1177.0894,213.2808,1173.0894" style="stroke:#181818;stroke-width:1;"/><line style="stroke:#181818;stroke-width:1;stroke-dasharray:2,2;" x1="211.2808" x2="350.5952" y1="1173.0894" y2="1173.0894"/><text fill="#000000" font-family="Arial" font-size="13" lengthAdjust="spacing" textLength="46.96" x="255.458" y="1168.3345">success</text></g><g class="message" data-participant-1="CrisisHandler" data-participant-2="UI"><polygon fill="#181818" points="44.5,1198.0381,34.5,1202.0381,44.5,1206.0381,40.5,1202.0381" style="stroke:#181818;stroke-width:1;"/><line style="stroke:#181818;stroke-width:1;stroke-dasharray:2,2;" x1="38.5" x2="195.2808" y1="1202.0381" y2="1202.0381"/><text fill="#000000" font-family="Arial" font-size="13" lengthAdjust="spacing" textLength="21.6899" x="92.8481" y="1197.2832">200</text><text fill="#000000" font-family="Arial" font-size="13" lengthAdjust="spacing" textLength="3.6118" x="114.5381" y="1197.2832">&#160;</text><text fill="#000000" font-family="Arial" font-size="13" lengthAdjust="spacing" textLength="18.7827" x="118.1499" y="1197.2832">OK</text></g><!--SRC=[nLLTRzCm57tFhxZgKn4gBNj1sWDIIOke65jfc-VAYs-BMMfdjaC7YF- -wyJDrzAkJ48yvUlSu-FZSs_CdP0fqsm773SiI-n79Uqrso6CjM19OChlvXlZQY_a5ZOiCLZ_WlSPoXY_e35iY-D4R2N4A2tg6agZIPKq1zG7JDH-hBNQWzLPdMx77ZncANuXl1lLILGcUQoqH0rlBuA0nLPfw4Mp7Z03qImWc1MnI9cqq0krCCB09oPvWZg75A_ycqvqP31a1cleA6m2vrfznzWsaFvT6-ev5vYg6g5x33Ypx9RAYKyPkzMu_7fLK9MFGH3DOF2-AHekOHwjWBOzcLvDLrCOfiNQPlXRy3_3E0SFOYKtOkiC4Z-OnTR60vPOo5A3se97GckPZdLfePXE9ihh5dZVVtMyAWgfe43swVGowx0jDUHMIK1ugYrjfE89MYQIlj_TMl06GsKurAeSHMaVSIp9ed05dWDkVuBW3PRAQwXN3bfQ3WGKLm9oF49GwMZwS2Z71s6iQJ6K6sbvKMMbShAutAHMK2jrE9ed2-gbHnmfKkBFtlbIsNokFmrzheyfabAvEtFK8yUTU1_SA2cpTr9pD9-CAUXUufj3tjV59jOracxXfwLdARKYSd-snqyNQUg1nFsPecVNo-bYzQz42-c2S8vgoODM8fhPB6x3WvmQJqUa6j6k1eEFPMQfpxiuyYvj3GgYeUbs2HUZ4TnyXjVDI0QvsnmJ99Bd9fGV5mvxR5myqT7HO-Sm_BS6yqId1z09MVvdyMmS_rvPSKZyJ5dDGrDtBusSoMBtBtfPseAyAvuKUlGZ]--></g></svg>