<svg xmlns="http://www.w3.org/2000/svg" xmlns:xlink="http://www.w3.org/1999/xlink" contentStyleType="text/css" data-diagram-type="SEQUENCE" height="1385px" preserveAspectRatio="none" style="width:744px;height:1385px;background:#FFFFFF;" version="1.1" viewBox="0 0 744 1385" width="744px" zoomAndPan="magnify"><defs/><g><g><title>Project Service</title><rect fill="#FFFFFF" height="116.7437" style="stroke:#181818;stroke-width:1;" width="10" x="279.48" y="194.8423"/></g><g><title>Project Service</title><rect fill="#FFFFFF" height="204.5386" style="stroke:#181818;stroke-width:1;" width="10" x="279.48" y="472.876"/></g><g><title>Project Service</title><rect fill="#FFFFFF" height="177.5898" style="stroke:#181818;stroke-width:1;" width="10" x="279.48" y="838.7046"/></g><g><title>Project Service</title><rect fill="#FFFFFF" height="43.8975" style="stroke:#181818;stroke-width:1;" width="10" x="279.48" y="1177.5845"/></g><g><title>Ingest Service</title><rect fill="#FFFFFF" height="28.9487" style="stroke:#181818;stroke-width:1;" width="10" x="660.7495" y="238.7397"/></g><g><title>Ingest Service</title><rect fill="#FFFFFF" height="43.8975" style="stroke:#181818;stroke-width:1;" width="10" x="660.7495" y="516.7734"/></g><g><title>Ingest Service</title><rect fill="#FFFFFF" height="28.9487" style="stroke:#181818;stroke-width:1;" width="10" x="660.7495" y="604.5684"/></g><g><title>Ingest Service</title><rect fill="#FFFFFF" height="58.8462" style="stroke:#181818;stroke-width:1;" width="10" x="660.7495" y="906.5508"/></g><rect fill="none" height="1190.2295" rx="6" ry="6" style="stroke:#000000;stroke-width:1.5;" width="727.1045" x="10" y="98.0986"/><rect fill="none" height="119.6924" rx="6" ry="6" style="stroke:#000000;stroke-width:1.5;" width="506.6968" x="220.4077" y="853.7046"/><g><title>User</title><rect fill="#000000" fill-opacity="0.00000" height="1224.2295" width="8" x="33.7793" y="81.0986"/><line style="stroke:#181818;stroke-width:0.5;stroke-dasharray:5,5;" x1="37" x2="37" y1="81.0986" y2="1305.3281"/></g><g><title>Giao di.n</title><rect fill="#000000" fill-opacity="0.00000" height="1224.2295" width="8" x="124.9565" y="81.0986"/><line style="stroke:#181818;stroke-width:0.5;stroke-dasharray:5,5;" x1="127.9912" x2="127.9912" y1="81.0986" y2="1305.3281"/></g><g><title>Project Service</title><rect fill="#000000" fill-opacity="0.00000" height="1224.2295" width="8" x="280.48" y="81.0986"/><line style="stroke:#181818;stroke-width:0.5;stroke-dasharray:5,5;" x1="284.4077" x2="284.4077" y1="81.0986" y2="1305.3281"/></g><g><title>Ingest Service</title><rect fill="#000000" fill-opacity="0.00000" height="1224.2295" width="8" x="661.7495" y="81.0986"/><line style="stroke:#181818;stroke-width:0.5;stroke-dasharray:5,5;" x1="665.3945" x2="665.3945" y1="81.0986" y2="1305.3281"/></g><g class="participant participant-head" data-participant="User"><text fill="#000000" font-family="Arial" font-size="14" lengthAdjust="spacing" textLength="29.5586" x="20" y="78.1318">User</text><ellipse cx="37.7793" cy="13.5" fill="#E2E2F0" rx="8" ry="8" style="stroke:#181818;stroke-width:0.5;"/><path d="M37.7793,21.5 L37.7793,48.5 M24.7793,29.5 L50.7793,29.5 M37.7793,48.5 L24.7793,63.5 M37.7793,48.5 L50.7793,63.5" fill="none" style="stroke:#181818;stroke-width:0.5;"/></g><g class="participant participant-tail" data-participant="User"><text fill="#000000" font-family="Arial" font-size="14" lengthAdjust="spacing" textLength="29.5586" x="20" y="1317.46">User</text><ellipse cx="37.7793" cy="1328.9268" fill="#E2E2F0" rx="8" ry="8" style="stroke:#181818;stroke-width:0.5;"/><path d="M37.7793,1336.9268 L37.7793,1363.9268 M24.7793,1344.9268 L50.7793,1344.9268 M37.7793,1363.9268 L24.7793,1378.9268 M37.7793,1363.9268 L50.7793,1378.9268" fill="none" style="stroke:#181818;stroke-width:0.5;"/></g><g class="participant participant-head" data-participant="UI"><rect fill="#E2E2F0" height="30.0986" rx="6" ry="6" style="stroke:#181818;stroke-width:0.5;" width="73.9307" x="91.9912" y="50"/><text fill="#000000" font-family="Arial" font-size="14" lengthAdjust="spacing" textLength="59.9307" x="98.9912" y="70.1318">Giao di&#7879;n</text></g><g class="participant participant-tail" data-participant="UI"><rect fill="#E2E2F0" height="30.0986" rx="6" ry="6" style="stroke:#181818;stroke-width:0.5;" width="73.9307" x="91.9912" y="1304.3281"/><text fill="#000000" font-family="Arial" font-size="14" lengthAdjust="spacing" textLength="59.9307" x="98.9912" y="1324.46">Giao di&#7879;n</text></g><g class="participant participant-head" data-participant="ProjectService"><rect fill="#E2E2F0" height="30.0986" rx="6" ry="6" style="stroke:#181818;stroke-width:0.5;" width="108.1445" x="230.4077" y="50"/><text fill="#000000" font-family="Arial" font-size="14" lengthAdjust="spacing" textLength="94.1445" x="237.4077" y="70.1318">Project Service</text></g><g class="participant participant-tail" data-participant="ProjectService"><rect fill="#E2E2F0" height="30.0986" rx="6" ry="6" style="stroke:#181818;stroke-width:0.5;" width="108.1445" x="230.4077" y="1304.3281"/><text fill="#000000" font-family="Arial" font-size="14" lengthAdjust="spacing" textLength="94.1445" x="237.4077" y="1324.46">Project Service</text></g><g class="participant participant-head" data-participant="IngestService"><rect fill="#E2E2F0" height="30.0986" rx="6" ry="6" style="stroke:#181818;stroke-width:0.5;" width="102.71" x="614.3945" y="50"/><text fill="#000000" font-family="Arial" font-size="14" lengthAdjust="spacing" textLength="88.71" x="621.3945" y="70.1318">Ingest Service</text></g><g class="participant participant-tail" data-participant="IngestService"><rect fill="#E2E2F0" height="30.0986" rx="6" ry="6" style="stroke:#181818;stroke-width:0.5;" width="102.71" x="614.3945" y="1304.3281"/><text fill="#000000" font-family="Arial" font-size="14" lengthAdjust="spacing" textLength="88.71" x="621.3945" y="1324.46">Ingest Service</text></g><g><title>Project Service</title><rect fill="#FFFFFF" height="116.7437" style="stroke:#181818;stroke-width:1;" width="10" x="279.48" y="194.8423"/></g><g><title>Project Service</title><rect fill="#FFFFFF" height="204.5386" style="stroke:#181818;stroke-width:1;" width="10" x="279.48" y="472.876"/></g><g><title>Project Service</title><rect fill="#FFFFFF" height="177.5898" style="stroke:#181818;stroke-width:1;" width="10" x="279.48" y="838.7046"/></g><g><title>Project Service</title><rect fill="#FFFFFF" height="43.8975" style="stroke:#181818;stroke-width:1;" width="10" x="279.48" y="1177.5845"/></g><g><title>Ingest Service</title><rect fill="#FFFFFF" height="28.9487" style="stroke:#181818;stroke-width:1;" width="10" x="660.7495" y="238.7397"/></g><g><title>Ingest Service</title><rect fill="#FFFFFF" height="43.8975" style="stroke:#181818;stroke-width:1;" width="10" x="660.7495" y="516.7734"/></g><g><title>Ingest Service</title><rect fill="#FFFFFF" height="28.9487" style="stroke:#181818;stroke-width:1;" width="10" x="660.7495" y="604.5684"/></g><g><title>Ingest Service</title><rect fill="#FFFFFF" height="58.8462" style="stroke:#181818;stroke-width:1;" width="10" x="660.7495" y="906.5508"/></g><path d="M16,98.0986 L70.1709,98.0986 L70.1709,105.0474 L60.1709,115.0474 L10,115.0474 L10,104.0986 A6,6 0 0 1 16,98.0986" fill="#EEEEEE" style="stroke:#000000;stroke-width:1.5;"/><rect fill="none" height="1190.2295" rx="6" ry="6" style="stroke:#000000;stroke-width:1.5;" width="727.1045" x="10" y="98.0986"/><text fill="#000000" font-family="Arial" font-size="13" font-weight="bold" lengthAdjust="spacing" textLength="15.1709" x="25" y="111.2925">alt</text><text fill="#000000" font-family="Arial" font-size="11" font-weight="bold" lengthAdjust="spacing" textLength="118.5776" x="85.1709" y="110.4165">[T&#7841;m d&#7915;ng chi&#7871;n d&#7883;ch]</text><g class="message" data-participant-1="User" data-participant-2="UI"><polygon fill="#181818" points="116.9565,146.9448,126.9565,150.9448,116.9565,154.9448,120.9565,150.9448" style="stroke:#181818;stroke-width:1;"/><line style="stroke:#181818;stroke-width:1;" x1="37.7793" x2="122.9565" y1="150.9448" y2="150.9448"/><text fill="#000000" font-family="Arial" font-size="13" lengthAdjust="spacing" textLength="31.0781" x="67.8289" y="131.2412">Ch&#7885;n</text><text fill="#000000" font-family="Arial" font-size="13" lengthAdjust="spacing" textLength="35.4199" x="65.658" y="146.1899">pause</text></g><g class="message" data-participant-1="UI" data-participant-2="ProjectService"><polygon fill="#181818" points="267.48,190.8423,277.48,194.8423,267.48,198.8423,271.48,194.8423" style="stroke:#181818;stroke-width:1;"/><line style="stroke:#181818;stroke-width:1;" x1="128.9565" x2="273.48" y1="194.8423" y2="194.8423"/><text fill="#000000" font-family="Arial" font-size="13" lengthAdjust="spacing" textLength="35.3945" x="186.521" y="175.1387">POST</text><text fill="#000000" font-family="Arial" font-size="13" lengthAdjust="spacing" textLength="110.5762" x="148.9302" y="190.0874">/projects/{id}/pause</text></g><g class="message" data-participant-1="ProjectService" data-participant-2="IngestService"><polygon fill="#181818" points="648.7495,234.7397,658.7495,238.7397,648.7495,242.7397,652.7495,238.7397" style="stroke:#181818;stroke-width:1;"/><line style="stroke:#181818;stroke-width:1;" x1="289.48" x2="654.7495" y1="238.7397" y2="238.7397"/><text fill="#000000" font-family="Arial" font-size="13" lengthAdjust="spacing" textLength="35.3945" x="457.4175" y="219.0361">POST</text><text fill="#000000" font-family="Arial" font-size="13" lengthAdjust="spacing" textLength="156.8252" x="396.7021" y="233.9849">/internal/projects/{id}/pause</text></g><g class="message" data-participant-1="IngestService" data-participant-2="ProjectService"><polygon fill="#181818" points="300.48,263.6885,290.48,267.6885,300.48,271.6885,296.48,267.6885" style="stroke:#181818;stroke-width:1;"/><line style="stroke:#181818;stroke-width:1;stroke-dasharray:2,2;" x1="294.48" x2="664.7495" y1="267.6885" y2="267.6885"/><text fill="#000000" font-family="Arial" font-size="13" lengthAdjust="spacing" textLength="42.6499" x="456.2898" y="262.9336">paused</text></g><g class="message" data-participant-1="ProjectService" data-participant-2="UI"><polygon fill="#181818" points="139.9565,307.5859,129.9565,311.5859,139.9565,315.5859,135.9565,311.5859" style="stroke:#181818;stroke-width:1;"/><line style="stroke:#181818;stroke-width:1;stroke-dasharray:2,2;" x1="133.9565" x2="283.48" y1="311.5859" y2="311.5859"/><text fill="#000000" font-family="Arial" font-size="13" lengthAdjust="spacing" textLength="39.019" x="187.2087" y="291.8823">project</text><text fill="#000000" font-family="Arial" font-size="13" lengthAdjust="spacing" textLength="53.46" x="179.9883" y="306.8311">PAUSED</text></g><g class="message" data-participant-1="UI" data-participant-2="User"><polygon fill="#181818" points="48.7793,366.4321,38.7793,370.4321,48.7793,374.4321,44.7793,370.4321" style="stroke:#181818;stroke-width:1;"/><line style="stroke:#181818;stroke-width:1;stroke-dasharray:2,2;" x1="42.7793" x2="127.9565" y1="370.4321" y2="370.4321"/><text fill="#000000" font-family="Arial" font-size="13" lengthAdjust="spacing" textLength="26.7363" x="61.3289" y="335.7798">Hi&#7875;n</text><text fill="#000000" font-family="Arial" font-size="13" lengthAdjust="spacing" textLength="3.6118" x="88.0652" y="335.7798">&#160;</text><text fill="#000000" font-family="Arial" font-size="13" lengthAdjust="spacing" textLength="13.73" x="91.677" y="335.7798">th&#7883;</text><text fill="#000000" font-family="Arial" font-size="13" lengthAdjust="spacing" textLength="29.6309" x="56.2666" y="350.7285">tr&#7841;ng</text><text fill="#000000" font-family="Arial" font-size="13" lengthAdjust="spacing" textLength="3.6118" x="85.8975" y="350.7285">&#160;</text><text fill="#000000" font-family="Arial" font-size="13" lengthAdjust="spacing" textLength="20.96" x="89.5093" y="350.7285">th&#225;i</text><text fill="#000000" font-family="Arial" font-size="13" lengthAdjust="spacing" textLength="53.46" x="56.6379" y="365.6772">PAUSED</text></g><line style="stroke:#000000;stroke-width:1;stroke-dasharray:2,2;" x1="10" x2="737.1045" y1="379.4321" y2="379.4321"/><text fill="#000000" font-family="Arial" font-size="11" font-weight="bold" lengthAdjust="spacing" textLength="106.9492" x="15" y="389.75">[Ti&#7871;p t&#7909;c chi&#7871;n d&#7883;ch]</text><g class="message" data-participant-1="User" data-participant-2="UI"><polygon fill="#181818" points="116.9565,424.9785,126.9565,428.9785,116.9565,432.9785,120.9565,428.9785" style="stroke:#181818;stroke-width:1;"/><line style="stroke:#181818;stroke-width:1;" x1="37.7793" x2="122.9565" y1="428.9785" y2="428.9785"/><text fill="#000000" font-family="Arial" font-size="13" lengthAdjust="spacing" textLength="31.0781" x="67.8289" y="409.2749">Ch&#7885;n</text><text fill="#000000" font-family="Arial" font-size="13" lengthAdjust="spacing" textLength="43.3481" x="61.6938" y="424.2236">resume</text></g><g class="message" data-participant-1="UI" data-participant-2="ProjectService"><polygon fill="#181818" points="267.48,468.876,277.48,472.876,267.48,476.876,271.48,472.876" style="stroke:#181818;stroke-width:1;"/><line style="stroke:#181818;stroke-width:1;" x1="128.9565" x2="273.48" y1="472.876" y2="472.876"/><text fill="#000000" font-family="Arial" font-size="13" lengthAdjust="spacing" textLength="35.3945" x="186.521" y="453.1724">POST</text><text fill="#000000" font-family="Arial" font-size="13" lengthAdjust="spacing" textLength="118.5044" x="144.9661" y="468.1211">/projects/{id}/resume</text></g><g class="message" data-participant-1="ProjectService" data-participant-2="IngestService"><polygon fill="#181818" points="648.7495,512.7734,658.7495,516.7734,648.7495,520.7734,652.7495,516.7734" style="stroke:#181818;stroke-width:1;"/><line style="stroke:#181818;stroke-width:1;" x1="289.48" x2="654.7495" y1="516.7734" y2="516.7734"/><text fill="#000000" font-family="Arial" font-size="13" lengthAdjust="spacing" textLength="26.7236" x="461.7529" y="497.0698">GET</text><text fill="#000000" font-family="Arial" font-size="13" lengthAdjust="spacing" textLength="352.2695" x="298.98" y="512.0186">/internal/projects/{id}/activation-readiness?command=resume</text></g><g class="message" data-participant-1="IngestService" data-participant-2="ProjectService"><polygon fill="#181818" points="300.48,556.6709,290.48,560.6709,300.48,564.6709,296.48,560.6709" style="stroke:#181818;stroke-width:1;"/><line style="stroke:#181818;stroke-width:1;stroke-dasharray:2,2;" x1="294.48" x2="664.7495" y1="560.6709" y2="560.6709"/><text fill="#000000" font-family="Arial" font-size="13" lengthAdjust="spacing" textLength="56.3672" x="449.4312" y="540.9673">readiness</text><text fill="#000000" font-family="Arial" font-size="13" lengthAdjust="spacing" textLength="31.7891" x="461.7202" y="555.916">result</text></g><g class="message" data-participant-1="ProjectService" data-participant-2="IngestService"><polygon fill="#181818" points="648.7495,600.5684,658.7495,604.5684,648.7495,608.5684,652.7495,604.5684" style="stroke:#181818;stroke-width:1;"/><line style="stroke:#181818;stroke-width:1;" x1="289.48" x2="654.7495" y1="604.5684" y2="604.5684"/><text fill="#000000" font-family="Arial" font-size="13" lengthAdjust="spacing" textLength="35.3945" x="457.4175" y="584.8647">POST</text><text fill="#000000" font-family="Arial" font-size="13" lengthAdjust="spacing" textLength="164.7534" x="392.738" y="599.8135">/internal/projects/{id}/resume</text></g><g class="message" data-participant-1="IngestService" data-participant-2="ProjectService"><polygon fill="#181818" points="300.48,629.5171,290.48,633.5171,300.48,637.5171,296.48,633.5171" style="stroke:#181818;stroke-width:1;"/><line style="stroke:#181818;stroke-width:1;stroke-dasharray:2,2;" x1="294.48" x2="664.7495" y1="633.5171" y2="633.5171"/><text fill="#000000" font-family="Arial" font-size="13" lengthAdjust="spacing" textLength="50.5781" x="452.3257" y="628.7622">resumed</text></g><g class="message" data-participant-1="ProjectService" data-participant-2="UI"><polygon fill="#181818" points="139.9565,673.4146,129.9565,677.4146,139.9565,681.4146,135.9565,677.4146" style="stroke:#181818;stroke-width:1;"/><line style="stroke:#181818;stroke-width:1;stroke-dasharray:2,2;" x1="133.9565" x2="283.48" y1="677.4146" y2="677.4146"/><text fill="#000000" font-family="Arial" font-size="13" lengthAdjust="spacing" textLength="39.019" x="187.2087" y="657.7109">project</text><text fill="#000000" font-family="Arial" font-size="13" lengthAdjust="spacing" textLength="46.9536" x="183.2415" y="672.6597">ACTIVE</text></g><g class="message" data-participant-1="UI" data-participant-2="User"><polygon fill="#181818" points="48.7793,732.2607,38.7793,736.2607,48.7793,740.2607,44.7793,736.2607" style="stroke:#181818;stroke-width:1;"/><line style="stroke:#181818;stroke-width:1;stroke-dasharray:2,2;" x1="42.7793" x2="127.9565" y1="736.2607" y2="736.2607"/><text fill="#000000" font-family="Arial" font-size="13" lengthAdjust="spacing" textLength="26.7363" x="61.3289" y="701.6084">Hi&#7875;n</text><text fill="#000000" font-family="Arial" font-size="13" lengthAdjust="spacing" textLength="3.6118" x="88.0652" y="701.6084">&#160;</text><text fill="#000000" font-family="Arial" font-size="13" lengthAdjust="spacing" textLength="13.73" x="91.677" y="701.6084">th&#7883;</text><text fill="#000000" font-family="Arial" font-size="13" lengthAdjust="spacing" textLength="29.6309" x="56.2666" y="716.5571">tr&#7841;ng</text><text fill="#000000" font-family="Arial" font-size="13" lengthAdjust="spacing" textLength="3.6118" x="85.8975" y="716.5571">&#160;</text><text fill="#000000" font-family="Arial" font-size="13" lengthAdjust="spacing" textLength="20.96" x="89.5093" y="716.5571">th&#225;i</text><text fill="#000000" font-family="Arial" font-size="13" lengthAdjust="spacing" textLength="46.9536" x="59.8911" y="731.5059">ACTIVE</text></g><line style="stroke:#000000;stroke-width:1;stroke-dasharray:2,2;" x1="10" x2="737.1045" y1="745.2607" y2="745.2607"/><text fill="#000000" font-family="Arial" font-size="11" font-weight="bold" lengthAdjust="spacing" textLength="105.1499" x="15" y="755.5786">[L&#432;u tr&#7919; chi&#7871;n d&#7883;ch]</text><g class="message" data-participant-1="User" data-participant-2="UI"><polygon fill="#181818" points="116.9565,790.8071,126.9565,794.8071,116.9565,798.8071,120.9565,794.8071" style="stroke:#181818;stroke-width:1;"/><line style="stroke:#181818;stroke-width:1;" x1="37.7793" x2="122.9565" y1="794.8071" y2="794.8071"/><text fill="#000000" font-family="Arial" font-size="13" lengthAdjust="spacing" textLength="31.0781" x="67.8289" y="775.1035">Ch&#7885;n</text><text fill="#000000" font-family="Arial" font-size="13" lengthAdjust="spacing" textLength="41.9072" x="62.4143" y="790.0522">archive</text></g><g class="message" data-participant-1="UI" data-participant-2="ProjectService"><polygon fill="#181818" points="267.48,834.7046,277.48,838.7046,267.48,842.7046,271.48,838.7046" style="stroke:#181818;stroke-width:1;"/><line style="stroke:#181818;stroke-width:1;" x1="128.9565" x2="273.48" y1="838.7046" y2="838.7046"/><text fill="#000000" font-family="Arial" font-size="13" lengthAdjust="spacing" textLength="35.3945" x="186.521" y="819.001">POST</text><text fill="#000000" font-family="Arial" font-size="13" lengthAdjust="spacing" textLength="117.0635" x="145.6865" y="833.9497">/projects/{id}/archive</text></g><path d="M226.4077,853.7046 L285.6187,853.7046 L285.6187,860.6533 L275.6187,870.6533 L220.4077,870.6533 L220.4077,859.7046 A6,6 0 0 1 226.4077,853.7046" fill="#EEEEEE" style="stroke:#000000;stroke-width:1.5;"/><rect fill="none" height="119.6924" rx="6" ry="6" style="stroke:#000000;stroke-width:1.5;" width="506.6968" x="220.4077" y="853.7046"/><text fill="#000000" font-family="Arial" font-size="13" font-weight="bold" lengthAdjust="spacing" textLength="20.2109" x="235.4077" y="866.8984">opt</text><text fill="#000000" font-family="Arial" font-size="11" font-weight="bold" lengthAdjust="spacing" textLength="136.2754" x="300.6187" y="866.0225">[Chi&#7871;n d&#7883;ch &#273;ang ACTIVE]</text><g class="message" data-participant-1="ProjectService" data-participant-2="IngestService"><polygon fill="#181818" points="648.7495,902.5508,658.7495,906.5508,648.7495,910.5508,652.7495,906.5508" style="stroke:#181818;stroke-width:1;"/><line style="stroke:#181818;stroke-width:1;" x1="289.48" x2="654.7495" y1="906.5508" y2="906.5508"/><text fill="#000000" font-family="Arial" font-size="13" lengthAdjust="spacing" textLength="35.3945" x="457.4175" y="886.8472">POST</text><text fill="#000000" font-family="Arial" font-size="13" lengthAdjust="spacing" textLength="156.8252" x="396.7021" y="901.7959">/internal/projects/{id}/pause</text></g><g class="message" data-participant-1="IngestService" data-participant-2="ProjectService"><polygon fill="#181818" points="300.48,961.397,290.48,965.397,300.48,969.397,296.48,965.397" style="stroke:#181818;stroke-width:1;"/><line style="stroke:#181818;stroke-width:1;stroke-dasharray:2,2;" x1="294.48" x2="664.7495" y1="965.397" y2="965.397"/><text fill="#000000" font-family="Arial" font-size="13" lengthAdjust="spacing" textLength="42.6499" x="456.2898" y="930.7446">paused</text><text fill="#000000" font-family="Arial" font-size="13" lengthAdjust="spacing" textLength="36.8608" x="459.1843" y="945.6934">before</text><text fill="#000000" font-family="Arial" font-size="13" lengthAdjust="spacing" textLength="41.9072" x="456.6611" y="960.6421">archive</text></g><g class="message" data-participant-1="ProjectService" data-participant-2="UI"><polygon fill="#181818" points="139.9565,1012.2944,129.9565,1016.2944,139.9565,1020.2944,135.9565,1016.2944" style="stroke:#181818;stroke-width:1;"/><line style="stroke:#181818;stroke-width:1;stroke-dasharray:2,2;" x1="133.9565" x2="283.48" y1="1016.2944" y2="1016.2944"/><text fill="#000000" font-family="Arial" font-size="13" lengthAdjust="spacing" textLength="39.019" x="187.2087" y="996.5908">project</text><text fill="#000000" font-family="Arial" font-size="13" lengthAdjust="spacing" textLength="67.1772" x="173.1296" y="1011.5396">ARCHIVED</text></g><g class="message" data-participant-1="UI" data-participant-2="User"><polygon fill="#181818" points="48.7793,1071.1406,38.7793,1075.1406,48.7793,1079.1406,44.7793,1075.1406" style="stroke:#181818;stroke-width:1;"/><line style="stroke:#181818;stroke-width:1;stroke-dasharray:2,2;" x1="42.7793" x2="127.9565" y1="1075.1406" y2="1075.1406"/><text fill="#000000" font-family="Arial" font-size="13" lengthAdjust="spacing" textLength="26.7363" x="61.3289" y="1040.4883">Hi&#7875;n</text><text fill="#000000" font-family="Arial" font-size="13" lengthAdjust="spacing" textLength="3.6118" x="88.0652" y="1040.4883">&#160;</text><text fill="#000000" font-family="Arial" font-size="13" lengthAdjust="spacing" textLength="13.73" x="91.677" y="1040.4883">th&#7883;</text><text fill="#000000" font-family="Arial" font-size="13" lengthAdjust="spacing" textLength="29.6309" x="56.2666" y="1055.437">tr&#7841;ng</text><text fill="#000000" font-family="Arial" font-size="13" lengthAdjust="spacing" textLength="3.6118" x="85.8975" y="1055.437">&#160;</text><text fill="#000000" font-family="Arial" font-size="13" lengthAdjust="spacing" textLength="20.96" x="89.5093" y="1055.437">th&#225;i</text><text fill="#000000" font-family="Arial" font-size="13" lengthAdjust="spacing" textLength="67.1772" x="49.7793" y="1070.3857">ARCHIVED</text></g><line style="stroke:#000000;stroke-width:1;stroke-dasharray:2,2;" x1="10" x2="737.1045" y1="1084.1406" y2="1084.1406"/><text fill="#000000" font-family="Arial" font-size="11" font-weight="bold" lengthAdjust="spacing" textLength="97.0503" x="15" y="1094.4585">[M&#7903; l&#7841;i chi&#7871;n d&#7883;ch]</text><g class="message" data-participant-1="User" data-participant-2="UI"><polygon fill="#181818" points="116.9565,1129.687,126.9565,1133.687,116.9565,1137.687,120.9565,1133.687" style="stroke:#181818;stroke-width:1;"/><line style="stroke:#181818;stroke-width:1;" x1="37.7793" x2="122.9565" y1="1133.687" y2="1133.687"/><text fill="#000000" font-family="Arial" font-size="13" lengthAdjust="spacing" textLength="31.0781" x="67.8289" y="1113.9834">Ch&#7885;n</text><text fill="#000000" font-family="Arial" font-size="13" lengthAdjust="spacing" textLength="56.3672" x="55.1843" y="1128.9321">unarchive</text></g><g class="message" data-participant-1="UI" data-participant-2="ProjectService"><polygon fill="#181818" points="267.48,1173.5845,277.48,1177.5845,267.48,1181.5845,271.48,1177.5845" style="stroke:#181818;stroke-width:1;"/><line style="stroke:#181818;stroke-width:1;" x1="128.9565" x2="273.48" y1="1177.5845" y2="1177.5845"/><text fill="#000000" font-family="Arial" font-size="13" lengthAdjust="spacing" textLength="35.3945" x="186.521" y="1157.8809">POST</text><text fill="#000000" font-family="Arial" font-size="13" lengthAdjust="spacing" textLength="131.5234" x="138.4565" y="1172.8296">/projects/{id}/unarchive</text></g><g class="message" data-participant-1="ProjectService" data-participant-2="UI"><polygon fill="#181818" points="139.9565,1217.4819,129.9565,1221.4819,139.9565,1225.4819,135.9565,1221.4819" style="stroke:#181818;stroke-width:1;"/><line style="stroke:#181818;stroke-width:1;stroke-dasharray:2,2;" x1="133.9565" x2="283.48" y1="1221.4819" y2="1221.4819"/><text fill="#000000" font-family="Arial" font-size="13" lengthAdjust="spacing" textLength="39.019" x="187.2087" y="1201.7783">project</text><text fill="#000000" font-family="Arial" font-size="13" lengthAdjust="spacing" textLength="53.46" x="179.9883" y="1216.7271">PAUSED</text></g><g class="message" data-participant-1="UI" data-participant-2="User"><polygon fill="#181818" points="48.7793,1276.3281,38.7793,1280.3281,48.7793,1284.3281,44.7793,1280.3281" style="stroke:#181818;stroke-width:1;"/><line style="stroke:#181818;stroke-width:1;stroke-dasharray:2,2;" x1="42.7793" x2="127.9565" y1="1280.3281" y2="1280.3281"/><text fill="#000000" font-family="Arial" font-size="13" lengthAdjust="spacing" textLength="26.7363" x="61.3289" y="1245.6758">Hi&#7875;n</text><text fill="#000000" font-family="Arial" font-size="13" lengthAdjust="spacing" textLength="3.6118" x="88.0652" y="1245.6758">&#160;</text><text fill="#000000" font-family="Arial" font-size="13" lengthAdjust="spacing" textLength="13.73" x="91.677" y="1245.6758">th&#7883;</text><text fill="#000000" font-family="Arial" font-size="13" lengthAdjust="spacing" textLength="29.6309" x="56.2666" y="1260.6245">tr&#7841;ng</text><text fill="#000000" font-family="Arial" font-size="13" lengthAdjust="spacing" textLength="3.6118" x="85.8975" y="1260.6245">&#160;</text><text fill="#000000" font-family="Arial" font-size="13" lengthAdjust="spacing" textLength="20.96" x="89.5093" y="1260.6245">th&#225;i</text><text fill="#000000" font-family="Arial" font-size="13" lengthAdjust="spacing" textLength="53.46" x="56.6379" y="1275.5732">PAUSED</text></g><!--SRC=[lLInZjD04Etp5QFhem0Dqac0GWXtaJY8I4A_x4xY1NlMxAuJ1AAYe3XHt1UWAwWee3uN523-mt_2sESOEqUEv2wYzCoRjs_cZSUzr1GBAo9GE1L9w1yQyez5XD2rMeGjL-LT89HPQ9h1L8GEwnbybI19F4Bdn0oxePuHI2IFjeQow693RecwZw5PTAqr2_0sgTD5udM96Uat2BTlr4bCGaeQIsZXvgrMIqXlB4mSlyG0hwME1NdOEz32WD9P-e7sG3YO39hveJKlK7eOePrhYGMcZ9MX9dv0CtHD-7beYMw9qCCuEplbGMRf5vwI37HszftopsCPjA1G2Usxh0NseHTawKU2M2GyIiXZd6agODJmoMWCdVWyx3fljNhNMPPmwtekFAxgXbKQ9cvehNXrxX29y5yFD3k55RRstuGN78gn2jVIhCfSZgPK0yFkPDH_qEIuq6i-kBmmd-q-7BBZxmay3_UOruhjO2DyyEDKBzcGLnV6kJCn-2pzB3VpYPStYROqgggvZbC7_VL6bRpQKDkYK9huhxadJHG9KdSkldu56olQOW2XtyxGBVTkHufpacjkNhSt7ZphxshpIhPYynxz-fRawVJhPdidBCFcMoxUdwBrwati-Osw0lXv8bXprVlExiWbXcvnI-0vJet5saGkjHX9RMBqqzuXTxkp8rFn5MOVPUad23clDpCxeIlPNI_R_DJydsjBwZS0]--></g></svg>