<svg xmlns="http://www.w3.org/2000/svg" xmlns:xlink="http://www.w3.org/1999/xlink" contentStyleType="text/css" data-diagram-type="SEQUENCE" height="1056px" preserveAspectRatio="none" style="width:1060px;height:1056px;background:#FFFFFF;" version="1.1" viewBox="0 0 1060 1056" width="1060px" zoomAndPan="magnify"><title>Project Creation Flow</title><defs/><g><text fill="#000000" font-family="Arial" font-size="14" font-weight="bold" lengthAdjust="spacing" textLength="143.9102" x="456.613" y="28.1318">Project Creation Flow</text><g><title>Project Handler</title><rect fill="#FFFFFF" height="778.3081" style="stroke:#181818;stroke-width:1;" width="10" x="175.5234" y="166.1934"/></g><g><title>Project UseCase</title><rect fill="#FFFFFF" height="648.5645" style="stroke:#181818;stroke-width:1;" width="10" x="326.5679" y="237.0908"/></g><g><title>Redis domain</title><rect fill="#FFFFFF" height="28.9487" style="stroke:#181818;stroke-width:1;" width="10" x="508.7559" y="266.0396"/></g><g><title>Campaign UseCase</title><rect fill="#FFFFFF" height="219.4873" style="stroke:#181818;stroke-width:1;" width="10" x="634.1968" y="323.937"/></g><g><title>Campaign Repo</title><rect fill="#FFFFFF" height="146.6411" style="stroke:#181818;stroke-width:1;" width="10" x="771.4238" y="352.8857"/></g><g><title>Project Repo</title><rect fill="#FFFFFF" height="284.3335" style="stroke:#181818;stroke-width:1;" width="10" x="886.4751" y="572.373"/></g><g><title>PostgreSQL</title><rect fill="#FFFFFF" height="43.8975" style="stroke:#181818;stroke-width:1;" width="10" x="1003.625" y="411.7319"/></g><g><title>PostgreSQL</title><rect fill="#FFFFFF" height="43.8975" style="stroke:#181818;stroke-width:1;" width="10" x="1003.625" y="681.1167"/></g><g><title>PostgreSQL</title><rect fill="#FFFFFF" height="28.9487" style="stroke:#181818;stroke-width:1;" width="10" x="1003.625" y="783.8604"/></g><g><title>UI</title><rect fill="#000000" fill-opacity="0.00000" height="842.2056" width="8" x="14.5" y="120.2959"/><line style="stroke:#181818;stroke-width:0.5;stroke-dasharray:5,5;" x1="18" x2="18" y1="120.2959" y2="962.5015"/></g><g><title>Project Handler</title><rect fill="#000000" fill-opacity="0.00000" height="842.2056" width="8" x="176.5234" y="120.2959"/><line style="stroke:#181818;stroke-width:0.5;stroke-dasharray:5,5;" x1="180.2788" x2="180.2788" y1="120.2959" y2="962.5015"/></g><g><title>Project UseCase</title><rect fill="#000000" fill-opacity="0.00000" height="842.2056" width="8" x="327.5679" y="120.2959"/><line style="stroke:#181818;stroke-width:0.5;stroke-dasharray:5,5;" x1="331.0474" x2="331.0474" y1="120.2959" y2="962.5015"/></g><g><title>Redis domain</title><rect fill="#000000" fill-opacity="0.00000" height="842.2056" width="8" x="509.7559" y="120.2959"/><line style="stroke:#181818;stroke-width:0.5;stroke-dasharray:5,5;" x1="512.9561" x2="512.9561" y1="120.2959" y2="962.5015"/></g><g><title>Campaign UseCase</title><rect fill="#000000" fill-opacity="0.00000" height="842.2056" width="8" x="635.1968" y="120.2959"/><line style="stroke:#181818;stroke-width:0.5;stroke-dasharray:5,5;" x1="638.5557" x2="638.5557" y1="120.2959" y2="962.5015"/></g><g><title>Campaign Repo</title><rect fill="#000000" fill-opacity="0.00000" height="842.2056" width="8" x="772.4238" y="120.2959"/><line style="stroke:#181818;stroke-width:0.5;stroke-dasharray:5,5;" x1="775.8379" x2="775.8379" y1="120.2959" y2="962.5015"/></g><g><title>Project Repo</title><rect fill="#000000" fill-opacity="0.00000" height="842.2056" width="8" x="887.4751" y="120.2959"/><line style="stroke:#181818;stroke-width:0.5;stroke-dasharray:5,5;" x1="891.0098" x2="891.0098" y1="120.2959" y2="962.5015"/></g><g><title>PostgreSQL</title><rect fill="#000000" fill-opacity="0.00000" height="842.2056" width="8" x="1004.625" y="120.2959"/><line style="stroke:#181818;stroke-width:0.5;stroke-dasharray:5,5;" x1="1008.4941" x2="1008.4941" y1="120.2959" y2="962.5015"/></g><g class="participant participant-head" data-participant="UI"><text fill="#000000" font-family="Arial" font-size="14" lengthAdjust="spacing" textLength="14" x="8.5" y="117.3291">UI</text><ellipse cx="18.5" cy="52.6973" fill="#E2E2F0" rx="8" ry="8" style="stroke:#181818;stroke-width:0.5;"/><path d="M18.5,60.6973 L18.5,87.6973 M5.5,68.6973 L31.5,68.6973 M18.5,87.6973 L5.5,102.6973 M18.5,87.6973 L31.5,102.6973" fill="none" style="stroke:#181818;stroke-width:0.5;"/></g><g class="participant participant-tail" data-participant="UI"><text fill="#000000" font-family="Arial" font-size="14" lengthAdjust="spacing" textLength="14" x="8.5" y="974.6333">UI</text><ellipse cx="18.5" cy="986.1001" fill="#E2E2F0" rx="8" ry="8" style="stroke:#181818;stroke-width:0.5;"/><path d="M18.5,994.1001 L18.5,1021.1001 M5.5,1002.1001 L31.5,1002.1001 M18.5,1021.1001 L5.5,1036.1001 M18.5,1021.1001 L31.5,1036.1001" fill="none" style="stroke:#181818;stroke-width:0.5;"/></g><g class="participant participant-head" data-participant="ProjectHandler"><rect fill="#E2E2F0" height="30.0986" rx="6" ry="6" style="stroke:#181818;stroke-width:0.5;" width="110.4893" x="125.2788" y="89.1973"/><text fill="#000000" font-family="Arial" font-size="14" lengthAdjust="spacing" textLength="96.4893" x="132.2788" y="109.3291">Project Handler</text></g><g class="participant participant-tail" data-participant="ProjectHandler"><rect fill="#E2E2F0" height="30.0986" rx="6" ry="6" style="stroke:#181818;stroke-width:0.5;" width="110.4893" x="125.2788" y="961.5015"/><text fill="#000000" font-family="Arial" font-size="14" lengthAdjust="spacing" textLength="96.4893" x="132.2788" y="981.6333">Project Handler</text></g><g class="participant participant-head" data-participant="ProjectUC"><rect fill="#E2E2F0" height="30.0986" rx="6" ry="6" style="stroke:#181818;stroke-width:0.5;" width="119.041" x="272.0474" y="89.1973"/><text fill="#000000" font-family="Arial" font-size="14" lengthAdjust="spacing" textLength="105.041" x="279.0474" y="109.3291">Project UseCase</text></g><g class="participant participant-tail" data-participant="ProjectUC"><rect fill="#E2E2F0" height="30.0986" rx="6" ry="6" style="stroke:#181818;stroke-width:0.5;" width="119.041" x="272.0474" y="961.5015"/><text fill="#000000" font-family="Arial" font-size="14" lengthAdjust="spacing" textLength="105.041" x="279.0474" y="981.6333">Project UseCase</text></g><g class="participant participant-head" data-participant="DomainRegistry"><text fill="#000000" font-family="Arial" font-size="14" lengthAdjust="spacing" textLength="85.5996" x="467.9561" y="101.2305">Redis domain</text><text fill="#000000" font-family="Arial" font-size="14" lengthAdjust="spacing" textLength="45.8965" x="487.8076" y="117.3291">registry</text><path d="M495.7559,52.0986 C495.7559,42.0986 513.7559,42.0986 513.7559,42.0986 C513.7559,42.0986 531.7559,42.0986 531.7559,52.0986 L531.7559,78.0986 C531.7559,88.0986 513.7559,88.0986 513.7559,88.0986 C513.7559,88.0986 495.7559,88.0986 495.7559,78.0986 L495.7559,52.0986" fill="#E2E2F0" style="stroke:#181818;stroke-width:0.5;"/><path d="M495.7559,52.0986 C495.7559,62.0986 513.7559,62.0986 513.7559,62.0986 C513.7559,62.0986 531.7559,62.0986 531.7559,52.0986" fill="none" style="stroke:#181818;stroke-width:0.5;"/></g><g class="participant participant-tail" data-participant="DomainRegistry"><text fill="#000000" font-family="Arial" font-size="14" lengthAdjust="spacing" textLength="85.5996" x="467.9561" y="974.6333">Redis domain</text><text fill="#000000" font-family="Arial" font-size="14" lengthAdjust="spacing" textLength="45.8965" x="487.8076" y="990.7319">registry</text><path d="M495.7559,1003.6987 C495.7559,993.6987 513.7559,993.6987 513.7559,993.6987 C513.7559,993.6987 531.7559,993.6987 531.7559,1003.6987 L531.7559,1029.6987 C531.7559,1039.6987 513.7559,1039.6987 513.7559,1039.6987 C513.7559,1039.6987 495.7559,1039.6987 495.7559,1029.6987 L495.7559,1003.6987" fill="#E2E2F0" style="stroke:#181818;stroke-width:0.5;"/><path d="M495.7559,1003.6987 C495.7559,1013.6987 513.7559,1013.6987 513.7559,1013.6987 C513.7559,1013.6987 531.7559,1013.6987 531.7559,1003.6987" fill="none" style="stroke:#181818;stroke-width:0.5;"/></g><g class="participant participant-head" data-participant="CampaignUC"><rect fill="#E2E2F0" height="30.0986" rx="6" ry="6" style="stroke:#181818;stroke-width:0.5;" width="139.2822" x="569.5557" y="89.1973"/><text fill="#000000" font-family="Arial" font-size="14" lengthAdjust="spacing" textLength="125.2822" x="576.5557" y="109.3291">Campaign UseCase</text></g><g class="participant participant-tail" data-participant="CampaignUC"><rect fill="#E2E2F0" height="30.0986" rx="6" ry="6" style="stroke:#181818;stroke-width:0.5;" width="139.2822" x="569.5557" y="961.5015"/><text fill="#000000" font-family="Arial" font-size="14" lengthAdjust="spacing" textLength="125.2822" x="576.5557" y="981.6333">Campaign UseCase</text></g><g class="participant participant-head" data-participant="CampaignRepo"><rect fill="#E2E2F0" height="30.0986" rx="6" ry="6" style="stroke:#181818;stroke-width:0.5;" width="115.1719" x="718.8379" y="89.1973"/><text fill="#000000" font-family="Arial" font-size="14" lengthAdjust="spacing" textLength="101.1719" x="725.8379" y="109.3291">Campaign Repo</text></g><g class="participant participant-tail" data-participant="CampaignRepo"><rect fill="#E2E2F0" height="30.0986" rx="6" ry="6" style="stroke:#181818;stroke-width:0.5;" width="115.1719" x="718.8379" y="961.5015"/><text fill="#000000" font-family="Arial" font-size="14" lengthAdjust="spacing" textLength="101.1719" x="725.8379" y="981.6333">Campaign Repo</text></g><g class="participant participant-head" data-participant="ProjectRepo"><rect fill="#E2E2F0" height="30.0986" rx="6" ry="6" style="stroke:#181818;stroke-width:0.5;" width="94.9307" x="844.0098" y="89.1973"/><text fill="#000000" font-family="Arial" font-size="14" lengthAdjust="spacing" textLength="80.9307" x="851.0098" y="109.3291">Project Repo</text></g><g class="participant participant-tail" data-participant="ProjectRepo"><rect fill="#E2E2F0" height="30.0986" rx="6" ry="6" style="stroke:#181818;stroke-width:0.5;" width="94.9307" x="844.0098" y="961.5015"/><text fill="#000000" font-family="Arial" font-size="14" lengthAdjust="spacing" textLength="80.9307" x="851.0098" y="981.6333">Project Repo</text></g><g class="participant participant-head" data-participant="PostgreSQL"><text fill="#000000" font-family="Arial" font-size="14" lengthAdjust="spacing" textLength="76.2617" x="967.4941" y="117.3291">PostgreSQL</text><path d="M990.625,68.1973 C990.625,58.1973 1008.625,58.1973 1008.625,58.1973 C1008.625,58.1973 1026.625,58.1973 1026.625,68.1973 L1026.625,94.1973 C1026.625,104.1973 1008.625,104.1973 1008.625,104.1973 C1008.625,104.1973 990.625,104.1973 990.625,94.1973 L990.625,68.1973" fill="#E2E2F0" style="stroke:#181818;stroke-width:0.5;"/><path d="M990.625,68.1973 C990.625,78.1973 1008.625,78.1973 1008.625,78.1973 C1008.625,78.1973 1026.625,78.1973 1026.625,68.1973" fill="none" style="stroke:#181818;stroke-width:0.5;"/></g><g class="participant participant-tail" data-participant="PostgreSQL"><text fill="#000000" font-family="Arial" font-size="14" lengthAdjust="spacing" textLength="76.2617" x="967.4941" y="974.6333">PostgreSQL</text><path d="M990.625,987.6001 C990.625,977.6001 1008.625,977.6001 1008.625,977.6001 C1008.625,977.6001 1026.625,977.6001 1026.625,987.6001 L1026.625,1013.6001 C1026.625,1023.6001 1008.625,1023.6001 1008.625,1023.6001 C1008.625,1023.6001 990.625,1023.6001 990.625,1013.6001 L990.625,987.6001" fill="#E2E2F0" style="stroke:#181818;stroke-width:0.5;"/><path d="M990.625,987.6001 C990.625,997.6001 1008.625,997.6001 1008.625,997.6001 C1008.625,997.6001 1026.625,997.6001 1026.625,987.6001" fill="none" style="stroke:#181818;stroke-width:0.5;"/></g><g><title>Project Handler</title><rect fill="#FFFFFF" height="778.3081" style="stroke:#181818;stroke-width:1;" width="10" x="175.5234" y="166.1934"/></g><g><title>Project UseCase</title><rect fill="#FFFFFF" height="648.5645" style="stroke:#181818;stroke-width:1;" width="10" x="326.5679" y="237.0908"/></g><g><title>Redis domain</title><rect fill="#FFFFFF" height="28.9487" style="stroke:#181818;stroke-width:1;" width="10" x="508.7559" y="266.0396"/></g><g><title>Campaign UseCase</title><rect fill="#FFFFFF" height="219.4873" style="stroke:#181818;stroke-width:1;" width="10" x="634.1968" y="323.937"/></g><g><title>Campaign Repo</title><rect fill="#FFFFFF" height="146.6411" style="stroke:#181818;stroke-width:1;" width="10" x="771.4238" y="352.8857"/></g><g><title>Project Repo</title><rect fill="#FFFFFF" height="284.3335" style="stroke:#181818;stroke-width:1;" width="10" x="886.4751" y="572.373"/></g><g><title>PostgreSQL</title><rect fill="#FFFFFF" height="43.8975" style="stroke:#181818;stroke-width:1;" width="10" x="1003.625" y="411.7319"/></g><g><title>PostgreSQL</title><rect fill="#FFFFFF" height="43.8975" style="stroke:#181818;stroke-width:1;" width="10" x="1003.625" y="681.1167"/></g><g><title>PostgreSQL</title><rect fill="#FFFFFF" height="28.9487" style="stroke:#181818;stroke-width:1;" width="10" x="1003.625" y="783.8604"/></g><g class="message" data-participant-1="UI" data-participant-2="ProjectHandler"><polygon fill="#181818" points="163.5234,162.1934,173.5234,166.1934,163.5234,170.1934,167.5234,166.1934" style="stroke:#181818;stroke-width:1;"/><line style="stroke:#181818;stroke-width:1;" x1="18.5" x2="169.5234" y1="166.1934" y2="166.1934"/><text fill="#000000" font-family="Arial" font-size="13" lengthAdjust="spacing" textLength="35.3945" x="79.3145" y="146.4897">POST</text><text fill="#000000" font-family="Arial" font-size="13" lengthAdjust="spacing" textLength="138.0234" x="28" y="161.4385">/campaigns/{id}/projects</text></g><g class="message" data-participant-1="ProjectHandler" data-participant-2="ProjectHandler"><line style="stroke:#181818;stroke-width:1;" x1="185.5234" x2="227.5234" y1="195.1421" y2="195.1421"/><line style="stroke:#181818;stroke-width:1;" x1="227.5234" x2="227.5234" y1="195.1421" y2="208.1421"/><line style="stroke:#181818;stroke-width:1;" x1="186.5234" x2="227.5234" y1="208.1421" y2="208.1421"/><polygon fill="#181818" points="196.5234,204.1421,186.5234,208.1421,196.5234,212.1421,192.5234,208.1421" style="stroke:#181818;stroke-width:1;"/><text fill="#000000" font-family="Arial" font-size="13" lengthAdjust="spacing" textLength="117.0444" x="192.5234" y="190.3872">processCreateReq()</text></g><g class="message" data-participant-1="ProjectHandler" data-participant-2="ProjectUC"><polygon fill="#181818" points="314.5679,233.0908,324.5679,237.0908,314.5679,241.0908,318.5679,237.0908" style="stroke:#181818;stroke-width:1;"/><line style="stroke:#181818;stroke-width:1;" x1="185.5234" x2="320.5679" y1="237.0908" y2="237.0908"/><text fill="#000000" font-family="Arial" font-size="13" lengthAdjust="spacing" textLength="75.8672" x="218.1121" y="232.3359">Create(input)</text></g><g class="message" data-participant-1="ProjectUC" data-participant-2="DomainRegistry"><polygon fill="#181818" points="496.7559,262.0396,506.7559,266.0396,496.7559,270.0396,500.7559,266.0396" style="stroke:#181818;stroke-width:1;"/><line style="stroke:#181818;stroke-width:1;" x1="336.5679" x2="502.7559" y1="266.0396" y2="266.0396"/><text fill="#000000" font-family="Arial" font-size="13" lengthAdjust="spacing" textLength="153.188" x="346.0679" y="261.2847">Exists(domain_type_code)</text></g><g class="message" data-participant-1="DomainRegistry" data-participant-2="ProjectUC"><polygon fill="#181818" points="347.5679,290.9883,337.5679,294.9883,347.5679,298.9883,343.5679,294.9883" style="stroke:#181818;stroke-width:1;"/><line style="stroke:#181818;stroke-width:1;stroke-dasharray:2,2;" x1="341.5679" x2="512.7559" y1="294.9883" y2="294.9883"/><text fill="#000000" font-family="Arial" font-size="13" lengthAdjust="spacing" textLength="33.23" x="408.5469" y="290.2334">exists</text></g><g class="message" data-participant-1="ProjectUC" data-participant-2="CampaignUC"><polygon fill="#181818" points="622.1968,319.937,632.1968,323.937,622.1968,327.937,626.1968,323.937" style="stroke:#181818;stroke-width:1;"/><line style="stroke:#181818;stroke-width:1;" x1="336.5679" x2="628.1968" y1="323.937" y2="323.937"/><text fill="#000000" font-family="Arial" font-size="13" lengthAdjust="spacing" textLength="115.6099" x="427.5774" y="319.1821">Detail(campaign_id)</text></g><g class="message" data-participant-1="CampaignUC" data-participant-2="CampaignRepo"><polygon fill="#181818" points="759.4238,348.8857,769.4238,352.8857,759.4238,356.8857,763.4238,352.8857" style="stroke:#181818;stroke-width:1;"/><line style="stroke:#181818;stroke-width:1;" x1="644.1968" x2="765.4238" y1="352.8857" y2="352.8857"/><text fill="#000000" font-family="Arial" font-size="13" lengthAdjust="spacing" textLength="52.0127" x="681.804" y="348.1309">Detail(id)</text></g><g class="message" data-participant-1="CampaignRepo" data-participant-2="PostgreSQL"><polygon fill="#181818" points="991.625,407.7319,1001.625,411.7319,991.625,415.7319,995.625,411.7319" style="stroke:#181818;stroke-width:1;"/><line style="stroke:#181818;stroke-width:1;" x1="781.4238" x2="997.625" y1="411.7319" y2="411.7319"/><text fill="#000000" font-family="Arial" font-size="13" lengthAdjust="spacing" textLength="50.5718" x="867.2385" y="377.0796">SELECT</text><text fill="#000000" font-family="Arial" font-size="13" lengthAdjust="spacing" textLength="56.3672" x="864.3408" y="392.0283">campaign</text><text fill="#000000" font-family="Arial" font-size="13" lengthAdjust="spacing" textLength="13.73" x="878.7944" y="406.9771">by</text><text fill="#000000" font-family="Arial" font-size="13" lengthAdjust="spacing" textLength="3.6118" x="892.5244" y="406.9771">&#160;</text><text fill="#000000" font-family="Arial" font-size="13" lengthAdjust="spacing" textLength="10.1182" x="896.1362" y="406.9771">id</text></g><g class="message" data-participant-1="PostgreSQL" data-participant-2="CampaignRepo"><polygon fill="#181818" points="792.4238,451.6294,782.4238,455.6294,792.4238,459.6294,788.4238,455.6294" style="stroke:#181818;stroke-width:1;"/><line style="stroke:#181818;stroke-width:1;stroke-dasharray:2,2;" x1="786.4238" x2="1007.625" y1="455.6294" y2="455.6294"/><text fill="#000000" font-family="Arial" font-size="13" lengthAdjust="spacing" textLength="56.3672" x="866.8408" y="435.9258">campaign</text><text fill="#000000" font-family="Arial" font-size="13" lengthAdjust="spacing" textLength="20.9473" x="884.5508" y="450.8745">row</text></g><g class="message" data-participant-1="CampaignRepo" data-participant-2="CampaignUC"><polygon fill="#181818" points="655.1968,495.5269,645.1968,499.5269,655.1968,503.5269,651.1968,499.5269" style="stroke:#181818;stroke-width:1;"/><line style="stroke:#181818;stroke-width:1;stroke-dasharray:2,2;" x1="649.1968" x2="775.4238" y1="499.5269" y2="499.5269"/><text fill="#000000" font-family="Arial" font-size="13" lengthAdjust="spacing" textLength="56.3672" x="682.1267" y="479.8232">campaign</text><text fill="#000000" font-family="Arial" font-size="13" lengthAdjust="spacing" textLength="35.4072" x="692.6067" y="494.772">model</text></g><g class="message" data-participant-1="CampaignUC" data-participant-2="ProjectUC"><polygon fill="#181818" points="347.5679,539.4243,337.5679,543.4243,347.5679,547.4243,343.5679,543.4243" style="stroke:#181818;stroke-width:1;"/><line style="stroke:#181818;stroke-width:1;stroke-dasharray:2,2;" x1="341.5679" x2="638.1968" y1="543.4243" y2="543.4243"/><text fill="#000000" font-family="Arial" font-size="13" lengthAdjust="spacing" textLength="56.3672" x="459.6987" y="523.7207">campaign</text><text fill="#000000" font-family="Arial" font-size="13" lengthAdjust="spacing" textLength="33.23" x="471.2673" y="538.6694">exists</text></g><g class="message" data-participant-1="ProjectUC" data-participant-2="ProjectRepo"><polygon fill="#181818" points="874.4751,568.373,884.4751,572.373,874.4751,576.373,878.4751,572.373" style="stroke:#181818;stroke-width:1;"/><line style="stroke:#181818;stroke-width:1;" x1="336.5679" x2="880.4751" y1="572.373" y2="572.373"/><text fill="#000000" font-family="Arial" font-size="13" lengthAdjust="spacing" textLength="131.498" x="545.7725" y="567.6182">Create(CreateOptions)</text></g><path d="M901,591.373 L901,633.373 A6,6 0 0 0 907,639.373 L1047,639.373 A6,6 0 0 0 1053,633.373 L1053,595.373 L1043,585.373 L907,585.373 A6,6 0 0 0 901,591.373" fill="#FEFFDD" style="stroke:#181818;stroke-width:0.5;"/><path d="M1043,585.373 L1043,592.373 A3,3 0 0 0 1046,595.373 L1053,595.373 L1043,585.373" fill="#FEFFDD" style="stroke:#181818;stroke-width:0.5;"/><text fill="#000000" font-family="Arial" font-size="13" lengthAdjust="spacing" textLength="130.7617" x="907" y="602.5669">New projects start with</text><text fill="#000000" font-family="Arial" font-size="13" lengthAdjust="spacing" textLength="126.8071" x="907" y="617.5156">status=PENDING and</text><text fill="#000000" font-family="Arial" font-size="13" lengthAdjust="spacing" textLength="131.1362" x="907" y="632.4644">config_status=DRAFT.</text><g class="message" data-participant-1="ProjectRepo" data-participant-2="PostgreSQL"><polygon fill="#181818" points="991.625,677.1167,1001.625,681.1167,991.625,685.1167,995.625,681.1167" style="stroke:#181818;stroke-width:1;"/><line style="stroke:#181818;stroke-width:1;" x1="896.4751" x2="997.625" y1="681.1167" y2="681.1167"/><text fill="#000000" font-family="Arial" font-size="13" lengthAdjust="spacing" textLength="47.6709" x="926.2146" y="661.4131">INSERT</text><text fill="#000000" font-family="Arial" font-size="13" lengthAdjust="spacing" textLength="88.1499" x="905.9751" y="676.3618">project.projects</text></g><g class="message" data-participant-1="PostgreSQL" data-participant-2="ProjectRepo"><polygon fill="#181818" points="907.4751,721.0142,897.4751,725.0142,907.4751,729.0142,903.4751,725.0142" style="stroke:#181818;stroke-width:1;"/><line style="stroke:#181818;stroke-width:1;stroke-dasharray:2,2;" x1="901.4751" x2="1007.625" y1="725.0142" y2="725.0142"/><text fill="#000000" font-family="Arial" font-size="13" lengthAdjust="spacing" textLength="23.8481" x="919.3105" y="705.3105">new</text><text fill="#000000" font-family="Arial" font-size="13" lengthAdjust="spacing" textLength="3.6118" x="943.1587" y="705.3105">&#160;</text><text fill="#000000" font-family="Arial" font-size="13" lengthAdjust="spacing" textLength="39.019" x="946.7705" y="705.3105">project</text><text fill="#000000" font-family="Arial" font-size="13" lengthAdjust="spacing" textLength="10.1182" x="947.491" y="720.2593">id</text></g><g class="message" data-participant-1="ProjectRepo" data-participant-2="PostgreSQL"><polygon fill="#181818" points="991.625,779.8604,1001.625,783.8604,991.625,787.8604,995.625,783.8604" style="stroke:#181818;stroke-width:1;"/><line style="stroke:#181818;stroke-width:1;" x1="896.4751" x2="997.625" y1="783.8604" y2="783.8604"/><text fill="#000000" font-family="Arial" font-size="13" lengthAdjust="spacing" textLength="50.5718" x="924.7642" y="749.208">SELECT</text><text fill="#000000" font-family="Arial" font-size="13" lengthAdjust="spacing" textLength="39.019" x="921.8696" y="764.1567">project</text><text fill="#000000" font-family="Arial" font-size="13" lengthAdjust="spacing" textLength="3.6118" x="960.8887" y="764.1567">&#160;</text><text fill="#000000" font-family="Arial" font-size="13" lengthAdjust="spacing" textLength="13.73" x="964.5005" y="764.1567">by</text><text fill="#000000" font-family="Arial" font-size="13" lengthAdjust="spacing" textLength="10.1182" x="944.991" y="779.1055">id</text></g><g class="message" data-participant-1="PostgreSQL" data-participant-2="ProjectRepo"><polygon fill="#181818" points="907.4751,808.8091,897.4751,812.8091,907.4751,816.8091,903.4751,812.8091" style="stroke:#181818;stroke-width:1;"/><line style="stroke:#181818;stroke-width:1;stroke-dasharray:2,2;" x1="901.4751" x2="1007.625" y1="812.8091" y2="812.8091"/><text fill="#000000" font-family="Arial" font-size="13" lengthAdjust="spacing" textLength="39.019" x="920.761" y="808.0542">project</text><text fill="#000000" font-family="Arial" font-size="13" lengthAdjust="spacing" textLength="3.6118" x="959.78" y="808.0542">&#160;</text><text fill="#000000" font-family="Arial" font-size="13" lengthAdjust="spacing" textLength="20.9473" x="963.3918" y="808.0542">row</text></g><g class="message" data-participant-1="ProjectRepo" data-participant-2="ProjectUC"><polygon fill="#181818" points="347.5679,852.7065,337.5679,856.7065,347.5679,860.7065,343.5679,856.7065" style="stroke:#181818;stroke-width:1;"/><line style="stroke:#181818;stroke-width:1;stroke-dasharray:2,2;" x1="341.5679" x2="890.4751" y1="856.7065" y2="856.7065"/><text fill="#000000" font-family="Arial" font-size="13" lengthAdjust="spacing" textLength="39.019" x="594.512" y="837.0029">project</text><text fill="#000000" font-family="Arial" font-size="13" lengthAdjust="spacing" textLength="35.4072" x="596.3179" y="851.9517">model</text></g><g class="message" data-participant-1="ProjectUC" data-participant-2="ProjectHandler"><polygon fill="#181818" points="196.5234,881.6553,186.5234,885.6553,196.5234,889.6553,192.5234,885.6553" style="stroke:#181818;stroke-width:1;"/><line style="stroke:#181818;stroke-width:1;stroke-dasharray:2,2;" x1="190.5234" x2="330.5679" y1="885.6553" y2="885.6553"/><text fill="#000000" font-family="Arial" font-size="13" lengthAdjust="spacing" textLength="78.0444" x="219.5234" y="880.9004">CreateOutput</text></g><g class="message" data-participant-1="ProjectHandler" data-participant-2="UI"><polygon fill="#181818" points="29.5,940.5015,19.5,944.5015,29.5,948.5015,25.5,944.5015" style="stroke:#181818;stroke-width:1;"/><line style="stroke:#181818;stroke-width:1;stroke-dasharray:2,2;" x1="23.5" x2="179.5234" y1="944.5015" y2="944.5015"/><text fill="#000000" font-family="Arial" font-size="13" lengthAdjust="spacing" textLength="21.6899" x="71.8677" y="909.8491">200</text><text fill="#000000" font-family="Arial" font-size="13" lengthAdjust="spacing" textLength="3.6118" x="93.5576" y="909.8491">&#160;</text><text fill="#000000" font-family="Arial" font-size="13" lengthAdjust="spacing" textLength="18.7827" x="97.1694" y="909.8491">OK</text><text fill="#000000" font-family="Arial" font-size="13" lengthAdjust="spacing" textLength="3.6118" x="115.9521" y="909.8491">&#160;</text><text fill="#000000" font-family="Arial" font-size="13" lengthAdjust="spacing" textLength="7.5918" x="119.564" y="909.8491">+</text><text fill="#000000" font-family="Arial" font-size="13" lengthAdjust="spacing" textLength="43.3608" x="77.8313" y="924.7979">created</text><text fill="#000000" font-family="Arial" font-size="13" lengthAdjust="spacing" textLength="39.019" x="80.0022" y="939.7466">project</text></g><!--SRC=[ZLHDZzem4BtdLumuiQfOw5ughTHAD42BkWNAnwqIyiP3S9lOMTifkrlrltSIyk64KFK46R_t_3nlR2jiXB3IwWS65doDp0ebOHQfasT-2fampMBWU61fP6TAsWMB4SPQiCXPDqV6rKd840uiCkYku5EACi2lQ0mBSHo9K4A0qg9sK1fDegGfKH-HjXzhhKvWTUhAnUovm6p4AyAxaIkYKia3fILgU7ldUIomIaDlD-y1Cx2RUmIp8X09anPwvP4_CyaZr3ccg1MbRlpEeCyCklYTxt5csIELeRT6BWnm5JCXlqkDeJ1Ml-JmILvS5wMclC_YX6MzSVNB8ctG3LvZeXh8hD3jku8MXHnPsrufOqEDcsyFPr3rwNcxEGm-j7e3zx1QRhOm38gDpV2tu7-6oHbbikQBNynYkwSjcIvXqWWeutmMSOrF_Plhh9rFX3EoJtEGsfkBdQbvNeqcQZC6ua-VwP_fdpFRsvS4zu7Yw4Yracif35f-CDVpE5xZD_tKAHDtWfQ9g5-sTI-uOyEP1uVaI6IXrYATt3pt1ZvpNyLDxCtqOUfleRG0ZoyWkDFMUZGSsk3IHIL0zzXjXYFGzD7kHIKGKngHAz5vcAmLhIGgXSj8d5usut3kHprRvvzbaZsEvdB6SXzIKK6By6X17Heh00iyGNatm5Ywe70IzaWhz65JyturNKpcYqz04qx5GCc32FV5scGzdcrlFPGSiZqyrs4xlFbYCrrloxrkE-xZrVYQ1vUruop-xlp-vQGOerBZlwUeQQEaNv-XXeTM_YNxOe3STDpukzwZ8llKqlFIeK43r7wUI8KUpNku6urW-GNUG91ByD9FXqh1_Gi0]--></g></svg>