<svg xmlns="http://www.w3.org/2000/svg" xmlns:xlink="http://www.w3.org/1999/xlink" contentStyleType="text/css" data-diagram-type="SEQUENCE" height="1166px" preserveAspectRatio="none" style="width:971px;height:1166px;background:#FFFFFF;" version="1.1" viewBox="0 0 971 1166" width="971px" zoomAndPan="magnify"><defs/><g><g><title>Ingest Service</title><rect fill="#FFFFFF" height="176.5386" style="stroke:#181818;stroke-width:1;" width="10" x="51.355" y="364.4795"/></g><g><title>Scapper Worker</title><rect fill="#FFFFFF" height="206.436" style="stroke:#181818;stroke-width:1;" width="10" x="263.3027" y="158.0435"/></g><g><title>MinIO</title><rect fill="#FFFFFF" height="43.8975" style="stroke:#181818;stroke-width:1;" width="10" x="368.106" y="216.8896"/></g><g><title>MinIO</title><rect fill="#FFFFFF" height="43.8975" style="stroke:#181818;stroke-width:1;" width="10" x="368.106" y="423.3257"/></g><g><title>Analysis Service</title><rect fill="#FFFFFF" height="454.8208" style="stroke:#181818;stroke-width:1;" width="10" x="592.4053" y="599.8643"/></g><g><title>PostgreSQL</title><rect fill="#FFFFFF" height="28.9487" style="stroke:#181818;stroke-width:1;" width="10" x="701.8877" y="775.4028"/></g><g><title>Project Service</title><rect fill="#FFFFFF" height="43.8975" style="stroke:#181818;stroke-width:1;" width="10" x="807.0908" y="848.249"/></g><g><title>Crisis Stage</title><rect fill="#FFFFFF" height="103.6924" style="stroke:#181818;stroke-width:1;" width="10" x="915.8975" y="950.9927"/></g><g><title>Ingest Service</title><rect fill="#000000" fill-opacity="0.00000" height="989.4878" width="8" x="52.355" y="83.1973"/><line style="stroke:#181818;stroke-width:0.5;stroke-dasharray:5,5;" x1="56" x2="56" y1="83.1973" y2="1072.6851"/></g><g><title>RabbitMQ</title><rect fill="#000000" fill-opacity="0.00000" height="989.4878" width="8" x="155.2202" y="83.1973"/><line style="stroke:#181818;stroke-width:0.5;stroke-dasharray:5,5;" x1="158.71" x2="158.71" y1="83.1973" y2="1072.6851"/></g><g><title>Scapper Worker</title><rect fill="#000000" fill-opacity="0.00000" height="989.4878" width="8" x="264.3027" y="83.1973"/><line style="stroke:#181818;stroke-width:0.5;stroke-dasharray:5,5;" x1="267.7305" x2="267.7305" y1="83.1973" y2="1072.6851"/></g><g><title>MinIO</title><rect fill="#000000" fill-opacity="0.00000" height="989.4878" width="8" x="369.106" y="83.1973"/><line style="stroke:#181818;stroke-width:0.5;stroke-dasharray:5,5;" x1="372.875" x2="372.875" y1="83.1973" y2="1072.6851"/></g><g><title>Kafka</title><rect fill="#000000" fill-opacity="0.00000" height="989.4878" width="8" x="470.6953" y="83.1973"/><line style="stroke:#181818;stroke-width:0.5;stroke-dasharray:5,5;" x1="474.3369" x2="474.3369" y1="83.1973" y2="1072.6851"/></g><g><title>Analysis Service</title><rect fill="#000000" fill-opacity="0.00000" height="989.4878" width="8" x="593.4053" y="83.1973"/><line style="stroke:#181818;stroke-width:0.5;stroke-dasharray:5,5;" x1="597.0537" x2="597.0537" y1="83.1973" y2="1072.6851"/></g><g><title>PostgreSQL</title><rect fill="#000000" fill-opacity="0.00000" height="989.4878" width="8" x="702.8877" y="83.1973"/><line style="stroke:#181818;stroke-width:0.5;stroke-dasharray:5,5;" x1="706.7568" x2="706.7568" y1="83.1973" y2="1072.6851"/></g><g><title>Project Service</title><rect fill="#000000" fill-opacity="0.00000" height="989.4878" width="8" x="808.0908" y="83.1973"/><line style="stroke:#181818;stroke-width:0.5;stroke-dasharray:5,5;" x1="812.0186" x2="812.0186" y1="83.1973" y2="1072.6851"/></g><g><title>Crisis Stage</title><rect fill="#000000" fill-opacity="0.00000" height="989.4878" width="8" x="916.8975" y="83.1973"/><line style="stroke:#181818;stroke-width:0.5;stroke-dasharray:5,5;" x1="920.1631" x2="920.1631" y1="83.1973" y2="1072.6851"/></g><g class="participant participant-head" data-participant="IngestService"><rect fill="#E2E2F0" height="30.0986" rx="6" ry="6" style="stroke:#181818;stroke-width:0.5;" width="102.71" x="5" y="52.0986"/><text fill="#000000" font-family="Arial" font-size="14" lengthAdjust="spacing" textLength="88.71" x="12" y="72.2305">Ingest Service</text></g><g class="participant participant-tail" data-participant="IngestService"><rect fill="#E2E2F0" height="30.0986" rx="6" ry="6" style="stroke:#181818;stroke-width:0.5;" width="102.71" x="5" y="1071.6851"/><text fill="#000000" font-family="Arial" font-size="14" lengthAdjust="spacing" textLength="88.71" x="12" y="1091.8169">Ingest Service</text></g><g class="participant participant-head" data-participant="RabbitMQ"><path d="M122.71,41 L195.7305,41 C200.7305,41 200.7305,62.0986 200.7305,62.0986 C200.7305,62.0986 200.7305,83.1973 195.7305,83.1973 L122.71,83.1973 C117.71,83.1973 117.71,62.0986 117.71,62.0986 C117.71,62.0986 117.71,41 122.71,41" fill="#E2E2F0" style="stroke:#181818;stroke-width:0.5;"/><path d="M195.7305,41 C190.7305,41 190.7305,62.0986 190.7305,62.0986 C190.7305,83.1973 195.7305,83.1973 195.7305,83.1973" fill="none" style="stroke:#181818;stroke-width:0.5;"/><text fill="#000000" font-family="Arial" font-size="14" lengthAdjust="spacing" textLength="63.0205" x="122.71" y="59.1318">RabbitMQ</text><text fill="#000000" font-family="Arial" font-size="14" lengthAdjust="spacing" textLength="62.2344" x="123.103" y="75.2305">crawl task</text></g><g class="participant participant-tail" data-participant="RabbitMQ"><path d="M122.71,1071.6851 L195.7305,1071.6851 C200.7305,1071.6851 200.7305,1092.7837 200.7305,1092.7837 C200.7305,1092.7837 200.7305,1113.8823 195.7305,1113.8823 L122.71,1113.8823 C117.71,1113.8823 117.71,1092.7837 117.71,1092.7837 C117.71,1092.7837 117.71,1071.6851 122.71,1071.6851" fill="#E2E2F0" style="stroke:#181818;stroke-width:0.5;"/><path d="M195.7305,1071.6851 C190.7305,1071.6851 190.7305,1092.7837 190.7305,1092.7837 C190.7305,1113.8823 195.7305,1113.8823 195.7305,1113.8823" fill="none" style="stroke:#181818;stroke-width:0.5;"/><text fill="#000000" font-family="Arial" font-size="14" lengthAdjust="spacing" textLength="63.0205" x="122.71" y="1089.8169">RabbitMQ</text><text fill="#000000" font-family="Arial" font-size="14" lengthAdjust="spacing" textLength="62.2344" x="123.103" y="1105.9155">crawl task</text></g><g class="participant participant-head" data-participant="ScapperWorker"><rect fill="#E2E2F0" height="30.0986" rx="6" ry="6" style="stroke:#181818;stroke-width:0.5;" width="115.1445" x="210.7305" y="52.0986"/><text fill="#000000" font-family="Arial" font-size="14" lengthAdjust="spacing" textLength="101.1445" x="217.7305" y="72.2305">Scapper Worker</text></g><g class="participant participant-tail" data-participant="ScapperWorker"><rect fill="#E2E2F0" height="30.0986" rx="6" ry="6" style="stroke:#181818;stroke-width:0.5;" width="115.1445" x="210.7305" y="1071.6851"/><text fill="#000000" font-family="Arial" font-size="14" lengthAdjust="spacing" textLength="101.1445" x="217.7305" y="1091.8169">Scapper Worker</text></g><g class="participant participant-head" data-participant="MinIO"><text fill="#000000" font-family="Arial" font-size="14" lengthAdjust="spacing" textLength="37.3379" x="351.437" y="64.1318">MinIO</text><text fill="#000000" font-family="Arial" font-size="14" lengthAdjust="spacing" textLength="68.4619" x="335.875" y="80.2305">raw artifact</text><path d="M355.106,15 C355.106,5 373.106,5 373.106,5 C373.106,5 391.106,5 391.106,15 L391.106,41 C391.106,51 373.106,51 373.106,51 C373.106,51 355.106,51 355.106,41 L355.106,15" fill="#E2E2F0" style="stroke:#181818;stroke-width:0.5;"/><path d="M355.106,15 C355.106,25 373.106,25 373.106,25 C373.106,25 391.106,25 391.106,15" fill="none" style="stroke:#181818;stroke-width:0.5;"/></g><g class="participant participant-tail" data-participant="MinIO"><text fill="#000000" font-family="Arial" font-size="14" lengthAdjust="spacing" textLength="37.3379" x="351.437" y="1084.8169">MinIO</text><text fill="#000000" font-family="Arial" font-size="14" lengthAdjust="spacing" textLength="68.4619" x="335.875" y="1100.9155">raw artifact</text><path d="M355.106,1113.8823 C355.106,1103.8823 373.106,1103.8823 373.106,1103.8823 C373.106,1103.8823 391.106,1103.8823 391.106,1113.8823 L391.106,1139.8823 C391.106,1149.8823 373.106,1149.8823 373.106,1149.8823 C373.106,1149.8823 355.106,1149.8823 355.106,1139.8823 L355.106,1113.8823" fill="#E2E2F0" style="stroke:#181818;stroke-width:0.5;"/><path d="M355.106,1113.8823 C355.106,1123.8823 373.106,1123.8823 373.106,1123.8823 C373.106,1123.8823 391.106,1123.8823 391.106,1113.8823" fill="none" style="stroke:#181818;stroke-width:0.5;"/></g><g class="participant participant-head" data-participant="AnalyticsInput"><path d="M425.3369,41 L524.0537,41 C529.0537,41 529.0537,62.0986 529.0537,62.0986 C529.0537,62.0986 529.0537,83.1973 524.0537,83.1973 L425.3369,83.1973 C420.3369,83.1973 420.3369,62.0986 420.3369,62.0986 C420.3369,62.0986 420.3369,41 425.3369,41" fill="#E2E2F0" style="stroke:#181818;stroke-width:0.5;"/><path d="M524.0537,41 C519.0537,41 519.0537,62.0986 519.0537,62.0986 C519.0537,83.1973 524.0537,83.1973 524.0537,83.1973" fill="none" style="stroke:#181818;stroke-width:0.5;"/><text fill="#000000" font-family="Arial" font-size="14" lengthAdjust="spacing" textLength="35.7998" x="451.7954" y="59.1318">Kafka</text><text fill="#000000" font-family="Arial" font-size="14" lengthAdjust="spacing" textLength="88.7168" x="425.3369" y="75.2305">analytics input</text></g><g class="participant participant-tail" data-participant="AnalyticsInput"><path d="M425.3369,1071.6851 L524.0537,1071.6851 C529.0537,1071.6851 529.0537,1092.7837 529.0537,1092.7837 C529.0537,1092.7837 529.0537,1113.8823 524.0537,1113.8823 L425.3369,1113.8823 C420.3369,1113.8823 420.3369,1092.7837 420.3369,1092.7837 C420.3369,1092.7837 420.3369,1071.6851 425.3369,1071.6851" fill="#E2E2F0" style="stroke:#181818;stroke-width:0.5;"/><path d="M524.0537,1071.6851 C519.0537,1071.6851 519.0537,1092.7837 519.0537,1092.7837 C519.0537,1113.8823 524.0537,1113.8823 524.0537,1113.8823" fill="none" style="stroke:#181818;stroke-width:0.5;"/><text fill="#000000" font-family="Arial" font-size="14" lengthAdjust="spacing" textLength="35.7998" x="451.7954" y="1089.8169">Kafka</text><text fill="#000000" font-family="Arial" font-size="14" lengthAdjust="spacing" textLength="88.7168" x="425.3369" y="1105.9155">analytics input</text></g><g class="participant participant-head" data-participant="AnalysisService"><rect fill="#E2E2F0" height="30.0986" rx="6" ry="6" style="stroke:#181818;stroke-width:0.5;" width="116.7031" x="539.0537" y="52.0986"/><text fill="#000000" font-family="Arial" font-size="14" lengthAdjust="spacing" textLength="102.7031" x="546.0537" y="72.2305">Analysis Service</text></g><g class="participant participant-tail" data-participant="AnalysisService"><rect fill="#E2E2F0" height="30.0986" rx="6" ry="6" style="stroke:#181818;stroke-width:0.5;" width="116.7031" x="539.0537" y="1071.6851"/><text fill="#000000" font-family="Arial" font-size="14" lengthAdjust="spacing" textLength="102.7031" x="546.0537" y="1091.8169">Analysis Service</text></g><g class="participant participant-head" data-participant="PostInsight"><text fill="#000000" font-family="Arial" font-size="14" lengthAdjust="spacing" textLength="76.2617" x="665.7568" y="64.1318">PostgreSQL</text><text fill="#000000" font-family="Arial" font-size="14" lengthAdjust="spacing" textLength="74.7168" x="666.5293" y="80.2305">post_insight</text><path d="M688.8877,15 C688.8877,5 706.8877,5 706.8877,5 C706.8877,5 724.8877,5 724.8877,15 L724.8877,41 C724.8877,51 706.8877,51 706.8877,51 C706.8877,51 688.8877,51 688.8877,41 L688.8877,15" fill="#E2E2F0" style="stroke:#181818;stroke-width:0.5;"/><path d="M688.8877,15 C688.8877,25 706.8877,25 706.8877,25 C706.8877,25 724.8877,25 724.8877,15" fill="none" style="stroke:#181818;stroke-width:0.5;"/></g><g class="participant participant-tail" data-participant="PostInsight"><text fill="#000000" font-family="Arial" font-size="14" lengthAdjust="spacing" textLength="76.2617" x="665.7568" y="1084.8169">PostgreSQL</text><text fill="#000000" font-family="Arial" font-size="14" lengthAdjust="spacing" textLength="74.7168" x="666.5293" y="1100.9155">post_insight</text><path d="M688.8877,1113.8823 C688.8877,1103.8823 706.8877,1103.8823 706.8877,1103.8823 C706.8877,1103.8823 724.8877,1103.8823 724.8877,1113.8823 L724.8877,1139.8823 C724.8877,1149.8823 706.8877,1149.8823 706.8877,1149.8823 C706.8877,1149.8823 688.8877,1149.8823 688.8877,1139.8823 L688.8877,1113.8823" fill="#E2E2F0" style="stroke:#181818;stroke-width:0.5;"/><path d="M688.8877,1113.8823 C688.8877,1123.8823 706.8877,1123.8823 706.8877,1123.8823 C706.8877,1123.8823 724.8877,1123.8823 724.8877,1113.8823" fill="none" style="stroke:#181818;stroke-width:0.5;"/></g><g class="participant participant-head" data-participant="ProjectService"><rect fill="#E2E2F0" height="46.1973" rx="6" ry="6" style="stroke:#181818;stroke-width:0.5;" width="108.1445" x="758.0186" y="36"/><text fill="#000000" font-family="Arial" font-size="14" lengthAdjust="spacing" textLength="94.1445" x="765.0186" y="56.1318">Project Service</text><text fill="#000000" font-family="Arial" font-size="14" lengthAdjust="spacing" textLength="73.1309" x="775.5254" y="72.2305">crisis config</text></g><g class="participant participant-tail" data-participant="ProjectService"><rect fill="#E2E2F0" height="46.1973" rx="6" ry="6" style="stroke:#181818;stroke-width:0.5;" width="108.1445" x="758.0186" y="1071.6851"/><text fill="#000000" font-family="Arial" font-size="14" lengthAdjust="spacing" textLength="94.1445" x="765.0186" y="1091.8169">Project Service</text><text fill="#000000" font-family="Arial" font-size="14" lengthAdjust="spacing" textLength="73.1309" x="775.5254" y="1107.9155">crisis config</text></g><g class="participant participant-head" data-participant="CrisisStage"><rect fill="#E2E2F0" height="30.0986" rx="6" ry="6" style="stroke:#181818;stroke-width:0.5;" width="89.4688" x="876.1631" y="52.0986"/><text fill="#000000" font-family="Arial" font-size="14" lengthAdjust="spacing" textLength="75.4688" x="883.1631" y="72.2305">Crisis Stage</text></g><g class="participant participant-tail" data-participant="CrisisStage"><rect fill="#E2E2F0" height="30.0986" rx="6" ry="6" style="stroke:#181818;stroke-width:0.5;" width="89.4688" x="876.1631" y="1071.6851"/><text fill="#000000" font-family="Arial" font-size="14" lengthAdjust="spacing" textLength="75.4688" x="883.1631" y="1091.8169">Crisis Stage</text></g><g><title>Ingest Service</title><rect fill="#FFFFFF" height="176.5386" style="stroke:#181818;stroke-width:1;" width="10" x="51.355" y="364.4795"/></g><g><title>Scapper Worker</title><rect fill="#FFFFFF" height="206.436" style="stroke:#181818;stroke-width:1;" width="10" x="263.3027" y="158.0435"/></g><g><title>MinIO</title><rect fill="#FFFFFF" height="43.8975" style="stroke:#181818;stroke-width:1;" width="10" x="368.106" y="216.8896"/></g><g><title>MinIO</title><rect fill="#FFFFFF" height="43.8975" style="stroke:#181818;stroke-width:1;" width="10" x="368.106" y="423.3257"/></g><g><title>Analysis Service</title><rect fill="#FFFFFF" height="454.8208" style="stroke:#181818;stroke-width:1;" width="10" x="592.4053" y="599.8643"/></g><g><title>PostgreSQL</title><rect fill="#FFFFFF" height="28.9487" style="stroke:#181818;stroke-width:1;" width="10" x="701.8877" y="775.4028"/></g><g><title>Project Service</title><rect fill="#FFFFFF" height="43.8975" style="stroke:#181818;stroke-width:1;" width="10" x="807.0908" y="848.249"/></g><g><title>Crisis Stage</title><rect fill="#FFFFFF" height="103.6924" style="stroke:#181818;stroke-width:1;" width="10" x="915.8975" y="950.9927"/></g><g class="message" data-participant-1="IngestService" data-participant-2="RabbitMQ"><line style="stroke:#181818;stroke-width:1;" x1="157.2202" x2="147.2202" y1="129.0947" y2="125.0947"/><line style="stroke:#181818;stroke-width:1;" x1="157.2202" x2="147.2202" y1="129.0947" y2="133.0947"/><line style="stroke:#181818;stroke-width:1;" x1="56.355" x2="158.2202" y1="129.0947" y2="129.0947"/><text fill="#000000" font-family="Arial" font-size="13" lengthAdjust="spacing" textLength="48.4199" x="83.5776" y="109.3911">dispatch</text><text fill="#000000" font-family="Arial" font-size="13" lengthAdjust="spacing" textLength="30.3354" x="78.8931" y="124.3398">crawl</text><text fill="#000000" font-family="Arial" font-size="13" lengthAdjust="spacing" textLength="3.6118" x="109.2285" y="124.3398">&#160;</text><text fill="#000000" font-family="Arial" font-size="13" lengthAdjust="spacing" textLength="23.8418" x="112.8403" y="124.3398">task</text></g><g class="message" data-participant-1="RabbitMQ" data-participant-2="ScapperWorker"><line style="stroke:#181818;stroke-width:1;" x1="261.3027" x2="251.3027" y1="158.0435" y2="154.0435"/><line style="stroke:#181818;stroke-width:1;" x1="261.3027" x2="251.3027" y1="158.0435" y2="162.0435"/><line style="stroke:#181818;stroke-width:1;" x1="159.2202" x2="262.3027" y1="158.0435" y2="158.0435"/><text fill="#000000" font-family="Arial" font-size="13" lengthAdjust="spacing" textLength="38.2954" x="178.387" y="153.2886">deliver</text><text fill="#000000" font-family="Arial" font-size="13" lengthAdjust="spacing" textLength="3.6118" x="216.6824" y="153.2886">&#160;</text><text fill="#000000" font-family="Arial" font-size="13" lengthAdjust="spacing" textLength="23.8418" x="220.2942" y="153.2886">task</text></g><g class="message" data-participant-1="ScapperWorker" data-participant-2="MinIO"><polygon fill="#181818" points="356.106,212.8896,366.106,216.8896,356.106,220.8896,360.106,216.8896" style="stroke:#181818;stroke-width:1;"/><line style="stroke:#181818;stroke-width:1;" x1="273.3027" x2="362.106" y1="216.8896" y2="216.8896"/><text fill="#000000" font-family="Arial" font-size="13" lengthAdjust="spacing" textLength="27.4473" x="294.7012" y="182.2373">write</text><text fill="#000000" font-family="Arial" font-size="13" lengthAdjust="spacing" textLength="3.6118" x="322.1484" y="182.2373">&#160;</text><text fill="#000000" font-family="Arial" font-size="13" lengthAdjust="spacing" textLength="20.9473" x="325.7603" y="182.2373">raw</text><text fill="#000000" font-family="Arial" font-size="13" lengthAdjust="spacing" textLength="30.3354" x="305.5366" y="197.186">crawl</text><text fill="#000000" font-family="Arial" font-size="13" lengthAdjust="spacing" textLength="39.0127" x="301.198" y="212.1348">artifact</text></g><g class="message" data-participant-1="MinIO" data-participant-2="ScapperWorker"><polygon fill="#181818" points="284.3027,256.7871,274.3027,260.7871,284.3027,264.7871,280.3027,260.7871" style="stroke:#181818;stroke-width:1;"/><line style="stroke:#181818;stroke-width:1;stroke-dasharray:2,2;" x1="278.3027" x2="372.106" y1="260.7871" y2="260.7871"/><text fill="#000000" font-family="Arial" font-size="13" lengthAdjust="spacing" textLength="34.6899" x="305.8594" y="241.0835">object</text><text fill="#000000" font-family="Arial" font-size="13" lengthAdjust="spacing" textLength="54.2026" x="296.103" y="256.0322">metadata</text></g><g class="message" data-participant-1="ScapperWorker" data-participant-2="IngestService"><line style="stroke:#181818;stroke-width:1;" x1="62.355" x2="72.355" y1="364.4795" y2="360.4795"/><line style="stroke:#181818;stroke-width:1;" x1="62.355" x2="72.355" y1="364.4795" y2="368.4795"/><line style="stroke:#181818;stroke-width:1;" x1="61.355" x2="267.3027" y1="364.4795" y2="364.4795"/><text fill="#000000" font-family="Arial" font-size="13" lengthAdjust="spacing" textLength="62.8672" x="133.3953" y="284.981">completion</text><text fill="#000000" font-family="Arial" font-size="13" lengthAdjust="spacing" textLength="52.7681" x="138.4448" y="299.9297">envelope</text><text fill="#000000" font-family="Arial" font-size="13" lengthAdjust="spacing" textLength="46.2427" x="141.7075" y="314.8784">(bucket,</text><text fill="#000000" font-family="Arial" font-size="13" lengthAdjust="spacing" textLength="28.9136" x="150.3721" y="329.8271">path,</text><text fill="#000000" font-family="Arial" font-size="13" lengthAdjust="spacing" textLength="62.1309" x="133.7634" y="344.7759">checksum,</text><text fill="#000000" font-family="Arial" font-size="13" lengthAdjust="spacing" textLength="45.519" x="142.0693" y="359.7246">task_id)</text></g><g class="message" data-participant-1="IngestService" data-participant-2="MinIO"><polygon fill="#181818" points="356.106,419.3257,366.106,423.3257,356.106,427.3257,360.106,423.3257" style="stroke:#181818;stroke-width:1;"/><line style="stroke:#181818;stroke-width:1;" x1="61.355" x2="362.106" y1="423.3257" y2="423.3257"/><text fill="#000000" font-family="Arial" font-size="13" lengthAdjust="spacing" textLength="31.0591" x="186.55" y="388.6733">verify</text><text fill="#000000" font-family="Arial" font-size="13" lengthAdjust="spacing" textLength="3.6118" x="217.6091" y="388.6733">&#160;</text><text fill="#000000" font-family="Arial" font-size="13" lengthAdjust="spacing" textLength="21.6899" x="221.2209" y="388.6733">and</text><text fill="#000000" font-family="Arial" font-size="13" lengthAdjust="spacing" textLength="32.519" x="198.4709" y="403.6221">parse</text><text fill="#000000" font-family="Arial" font-size="13" lengthAdjust="spacing" textLength="39.0127" x="195.2241" y="418.5708">artifact</text></g><g class="message" data-participant-1="MinIO" data-participant-2="IngestService"><polygon fill="#181818" points="72.355,463.2231,62.355,467.2231,72.355,471.2231,68.355,467.2231" style="stroke:#181818;stroke-width:1;"/><line style="stroke:#181818;stroke-width:1;stroke-dasharray:2,2;" x1="66.355" x2="372.106" y1="467.2231" y2="467.2231"/><text fill="#000000" font-family="Arial" font-size="13" lengthAdjust="spacing" textLength="20.9473" x="185.4446" y="447.5195">raw</text><text fill="#000000" font-family="Arial" font-size="13" lengthAdjust="spacing" textLength="3.6118" x="206.3918" y="447.5195">&#160;</text><text fill="#000000" font-family="Arial" font-size="13" lengthAdjust="spacing" textLength="39.0127" x="210.0037" y="447.5195">artifact</text><text fill="#000000" font-family="Arial" font-size="13" lengthAdjust="spacing" textLength="31.0718" x="201.6946" y="462.4683">bytes</text></g><g class="message" data-participant-1="IngestService" data-participant-2="AnalyticsInput"><line style="stroke:#181818;stroke-width:1;" x1="472.6953" x2="462.6953" y1="541.0181" y2="537.0181"/><line style="stroke:#181818;stroke-width:1;" x1="472.6953" x2="462.6953" y1="541.0181" y2="545.0181"/><line style="stroke:#181818;stroke-width:1;" x1="56.355" x2="473.6953" y1="541.0181" y2="541.0181"/><text fill="#000000" font-family="Arial" font-size="13" lengthAdjust="spacing" textLength="41.1963" x="244.927" y="491.417">publish</text><text fill="#000000" font-family="Arial" font-size="13" lengthAdjust="spacing" textLength="63.5845" x="233.7329" y="506.3657">normalized</text><text fill="#000000" font-family="Arial" font-size="13" lengthAdjust="spacing" textLength="26.73" x="252.1602" y="521.3145">UAP</text><text fill="#000000" font-family="Arial" font-size="13" lengthAdjust="spacing" textLength="43.3481" x="243.8511" y="536.2632">records</text></g><g class="message" data-participant-1="AnalyticsInput" data-participant-2="AnalysisService"><line style="stroke:#181818;stroke-width:1;" x1="590.4053" x2="580.4053" y1="599.8643" y2="595.8643"/><line style="stroke:#181818;stroke-width:1;" x1="590.4053" x2="580.4053" y1="599.8643" y2="603.8643"/><line style="stroke:#181818;stroke-width:1;" x1="474.6953" x2="591.4053" y1="599.8643" y2="599.8643"/><text fill="#000000" font-family="Arial" font-size="13" lengthAdjust="spacing" textLength="52.749" x="507.1758" y="565.2119">consume</text><text fill="#000000" font-family="Arial" font-size="13" lengthAdjust="spacing" textLength="50.5781" x="508.2612" y="580.1606">analytics</text><text fill="#000000" font-family="Arial" font-size="13" lengthAdjust="spacing" textLength="31.8018" x="517.6494" y="595.1094">batch</text></g><g class="message" data-participant-1="AnalysisService" data-participant-2="AnalysisService"><line style="stroke:#181818;stroke-width:1;" x1="602.4053" x2="644.4053" y1="703.5566" y2="703.5566"/><line style="stroke:#181818;stroke-width:1;" x1="644.4053" x2="644.4053" y1="703.5566" y2="716.5566"/><line style="stroke:#181818;stroke-width:1;" x1="603.4053" x2="644.4053" y1="716.5566" y2="716.5566"/><polygon fill="#181818" points="613.4053,712.5566,603.4053,716.5566,613.4053,720.5566,609.4053,716.5566" style="stroke:#181818;stroke-width:1;"/><text fill="#000000" font-family="Arial" font-size="13" lengthAdjust="spacing" textLength="18.7891" x="617.7112" y="624.0581">run</text><text fill="#000000" font-family="Arial" font-size="13" lengthAdjust="spacing" textLength="3.6118" x="636.5002" y="624.0581">&#160;</text><text fill="#000000" font-family="Arial" font-size="13" lengthAdjust="spacing" textLength="25.2891" x="640.1121" y="624.0581">NLP</text><text fill="#000000" font-family="Arial" font-size="13" lengthAdjust="spacing" textLength="44.8145" x="619.1489" y="639.0068">pipeline</text><text fill="#000000" font-family="Arial" font-size="13" lengthAdjust="spacing" textLength="64.3018" x="609.4053" y="653.9556">(sentiment,</text><text fill="#000000" font-family="Arial" font-size="13" lengthAdjust="spacing" textLength="58.519" x="612.2966" y="668.9043">keywords,</text><text fill="#000000" font-family="Arial" font-size="13" lengthAdjust="spacing" textLength="20.2173" x="631.4475" y="683.853">risk</text><text fill="#000000" font-family="Arial" font-size="13" lengthAdjust="spacing" textLength="44.7954" x="619.1584" y="698.8018">signals)</text></g><g class="message" data-participant-1="AnalysisService" data-participant-2="PostInsight"><polygon fill="#181818" points="689.8877,771.4028,699.8877,775.4028,689.8877,779.4028,693.8877,775.4028" style="stroke:#181818;stroke-width:1;"/><line style="stroke:#181818;stroke-width:1;" x1="602.4053" x2="695.8877" y1="775.4028" y2="775.4028"/><text fill="#000000" font-family="Arial" font-size="13" lengthAdjust="spacing" textLength="38.2891" x="633.002" y="740.7505">persist</text><text fill="#000000" font-family="Arial" font-size="13" lengthAdjust="spacing" textLength="57.8018" x="623.2456" y="755.6992">structured</text><text fill="#000000" font-family="Arial" font-size="13" lengthAdjust="spacing" textLength="37.5781" x="633.3574" y="770.6479">insight</text></g><g class="message" data-participant-1="PostInsight" data-participant-2="AnalysisService"><polygon fill="#181818" points="613.4053,800.3516,603.4053,804.3516,613.4053,808.3516,609.4053,804.3516" style="stroke:#181818;stroke-width:1;"/><line style="stroke:#181818;stroke-width:1;stroke-dasharray:2,2;" x1="607.4053" x2="705.8877" y1="804.3516" y2="804.3516"/><text fill="#000000" font-family="Arial" font-size="13" lengthAdjust="spacing" textLength="52.749" x="628.272" y="799.5967">persisted</text></g><g class="message" data-participant-1="AnalysisService" data-participant-2="ProjectService"><polygon fill="#181818" points="795.0908,844.249,805.0908,848.249,795.0908,852.249,799.0908,848.249" style="stroke:#181818;stroke-width:1;"/><line style="stroke:#181818;stroke-width:1;" x1="602.4053" x2="801.0908" y1="848.249" y2="848.249"/><text fill="#000000" font-family="Arial" font-size="13" lengthAdjust="spacing" textLength="18.0718" x="679.1035" y="828.5454">get</text><text fill="#000000" font-family="Arial" font-size="13" lengthAdjust="spacing" textLength="3.6118" x="697.1753" y="828.5454">&#160;</text><text fill="#000000" font-family="Arial" font-size="13" lengthAdjust="spacing" textLength="29.6055" x="700.7871" y="828.5454">crisis</text><text fill="#000000" font-family="Arial" font-size="13" lengthAdjust="spacing" textLength="21.6772" x="671.1467" y="843.4941">rule</text><text fill="#000000" font-family="Arial" font-size="13" lengthAdjust="spacing" textLength="3.6118" x="692.824" y="843.4941">&#160;</text><text fill="#000000" font-family="Arial" font-size="13" lengthAdjust="spacing" textLength="41.9136" x="696.4358" y="843.4941">context</text></g><g class="message" data-participant-1="ProjectService" data-participant-2="AnalysisService"><polygon fill="#181818" points="613.4053,888.1465,603.4053,892.1465,613.4053,896.1465,609.4053,892.1465" style="stroke:#181818;stroke-width:1;"/><line style="stroke:#181818;stroke-width:1;stroke-dasharray:2,2;" x1="607.4053" x2="811.0908" y1="892.1465" y2="892.1465"/><text fill="#000000" font-family="Arial" font-size="13" lengthAdjust="spacing" textLength="33.96" x="673.6594" y="872.4429">active</text><text fill="#000000" font-family="Arial" font-size="13" lengthAdjust="spacing" textLength="3.6118" x="707.6194" y="872.4429">&#160;</text><text fill="#000000" font-family="Arial" font-size="13" lengthAdjust="spacing" textLength="29.6055" x="711.2312" y="872.4429">crisis</text><text fill="#000000" font-family="Arial" font-size="13" lengthAdjust="spacing" textLength="28.1772" x="693.1594" y="887.3916">rules</text></g><g class="message" data-participant-1="AnalysisService" data-participant-2="CrisisStage"><polygon fill="#181818" points="903.8975,946.9927,913.8975,950.9927,903.8975,954.9927,907.8975,950.9927" style="stroke:#181818;stroke-width:1;"/><line style="stroke:#181818;stroke-width:1;" x1="602.4053" x2="909.8975" y1="950.9927" y2="950.9927"/><text fill="#000000" font-family="Arial" font-size="13" lengthAdjust="spacing" textLength="40.46" x="738.9214" y="916.3403">assess</text><text fill="#000000" font-family="Arial" font-size="13" lengthAdjust="spacing" textLength="29.6055" x="744.3486" y="931.2891">crisis</text><text fill="#000000" font-family="Arial" font-size="13" lengthAdjust="spacing" textLength="40.4663" x="738.9182" y="946.2378">signals</text></g><g class="message" data-participant-1="CrisisStage" data-participant-2="AnalysisService"><polygon fill="#181818" points="608.4053,1050.6851,598.4053,1054.6851,608.4053,1058.6851,604.4053,1054.6851" style="stroke:#181818;stroke-width:1;"/><line style="stroke:#181818;stroke-width:1;stroke-dasharray:2,2;" x1="602.4053" x2="919.8975" y1="1054.6851" y2="1054.6851"/><text fill="#000000" font-family="Arial" font-size="13" lengthAdjust="spacing" textLength="29.6055" x="744.3486" y="975.1865">crisis</text><text fill="#000000" font-family="Arial" font-size="13" lengthAdjust="spacing" textLength="69.3608" x="724.4709" y="990.1353">assessment</text><text fill="#000000" font-family="Arial" font-size="13" lengthAdjust="spacing" textLength="34.6772" x="741.8127" y="1005.084">(level,</text><text fill="#000000" font-family="Arial" font-size="13" lengthAdjust="spacing" textLength="39" x="739.6514" y="1020.0327">metric,</text><text fill="#000000" font-family="Arial" font-size="13" lengthAdjust="spacing" textLength="57.0908" x="730.606" y="1034.9814">threshold,</text><text fill="#000000" font-family="Arial" font-size="13" lengthAdjust="spacing" textLength="49.1309" x="734.5859" y="1049.9302">aspects)</text></g><!--SRC=[XLLDZzCm4BtdLupsn4hf0Gu8SQXKa90gTfSk5U9I2JdED359x60xxPPVppZEXvsDnALgns_UpBpnSqqbPCiqQo37C-jg-qL9-yGQX9qMh4xCT6vAbgkha0MSMMqmFC4_7KgEZsWCAt1NYq82HsbH1oYDfbNIZAXFMAlhJcjr1QkxaAvXBmFcAFuYlFyGagXEvbnfYHhUlaiIYbh1HSkaXRkzBD1OEAA-28vtm0puq119gCqEuUuxop9X7vzFacjshS4oK_NeyI2cFNBMjbJlfz8LwXuuX7maoPbb6JF4_2Za_jj94YiuXZFZjiVtyR7yLtQks4aooUeRLJ50mtKUjnjZUnUAs-ZFZ33HV6Dmd71kvQ2CBJGUdnzEigNlluGqeYXz7NUuzx_Z8WUjVYEVD7GA2LUJAtaMXS_raB5YbFxPeu-MbjU3VQ3_dIJHCc2ptKw2mqV8XMcPvINCEqccOuUDD7S9M8iBVUkH9BIuC8kBpSGvcwrV12LVjI2msvClDsvh9l8hy_ZDvdLvbVL2DMYP4pt9SP6whBsDBoDHSDMqDLgX9A2ya1zQ4lnDrl4ARGgaHfa2Bv5NfclIVivV8hyFAyNJpit7rtwf-wG2oIVEDs0ofsgQRit_PLZE45vro6uMpMibNkyzlkT4qtPPBKm9Kkc6rMJx77xi3lHcaDVpY38UBLamJUIp9tgX9Kb8uqsMoznLcwTSscX9iLbZrPs4fuS3jAAbgoZTxWmzUgAXZnGgl5rTxocG1IeWhn61kL-Z3jpef41DnnOCFOlSTfga6AmxznlwDypUh3OwC68UwXXIhFKKkPn82hGmF0Qwgz5fQl4bx2b-5nO4wvtroHZoHhjUKAwq6RmlZiuO-kCOwGR9vmx3noXCNEzjOF6SRgUqtnh9fgaplHQSB5dIdrgfwZmbM4kTciYTORqWl2Zr3m00]--></g></svg>