<svg xmlns="http://www.w3.org/2000/svg" xmlns:xlink="http://www.w3.org/1999/xlink" contentStyleType="text/css" data-diagram-type="SEQUENCE" height="1019px" preserveAspectRatio="none" style="width:1060px;height:1019px;background:#FFFFFF;" version="1.1" viewBox="0 0 1060 1019" width="1060px" zoomAndPan="magnify"><defs/><g><g><title>Project Handler</title><rect fill="#FFFFFF" height="778.3081" style="stroke:#181818;stroke-width:1;" width="10" x="175.5234" y="129.0947"/></g><g><title>Project UseCase</title><rect fill="#FFFFFF" height="648.5645" style="stroke:#181818;stroke-width:1;" width="10" x="326.5679" y="199.9922"/></g><g><title>Redis domain</title><rect fill="#FFFFFF" height="28.9487" style="stroke:#181818;stroke-width:1;" width="10" x="508.7559" y="228.9409"/></g><g><title>Campaign UseCase</title><rect fill="#FFFFFF" height="219.4873" style="stroke:#181818;stroke-width:1;" width="10" x="634.1968" y="286.8384"/></g><g><title>Campaign Repo</title><rect fill="#FFFFFF" height="146.6411" style="stroke:#181818;stroke-width:1;" width="10" x="771.4238" y="315.7871"/></g><g><title>Project Repo</title><rect fill="#FFFFFF" height="284.3335" style="stroke:#181818;stroke-width:1;" width="10" x="886.4751" y="535.2744"/></g><g><title>PostgreSQL</title><rect fill="#FFFFFF" height="43.8975" style="stroke:#181818;stroke-width:1;" width="10" x="1003.625" y="374.6333"/></g><g><title>PostgreSQL</title><rect fill="#FFFFFF" height="43.8975" style="stroke:#181818;stroke-width:1;" width="10" x="1003.625" y="644.0181"/></g><g><title>PostgreSQL</title><rect fill="#FFFFFF" height="28.9487" style="stroke:#181818;stroke-width:1;" width="10" x="1003.625" y="746.7617"/></g><g><title>UI</title><rect fill="#000000" fill-opacity="0.00000" height="842.2056" width="8" x="14.5" y="83.1973"/><line style="stroke:#181818;stroke-width:0.5;stroke-dasharray:5,5;" x1="18" x2="18" y1="83.1973" y2="925.4028"/></g><g><title>Project Handler</title><rect fill="#000000" fill-opacity="0.00000" height="842.2056" width="8" x="176.5234" y="83.1973"/><line style="stroke:#181818;stroke-width:0.5;stroke-dasharray:5,5;" x1="180.2788" x2="180.2788" y1="83.1973" y2="925.4028"/></g><g><title>Project UseCase</title><rect fill="#000000" fill-opacity="0.00000" height="842.2056" width="8" x="327.5679" y="83.1973"/><line style="stroke:#181818;stroke-width:0.5;stroke-dasharray:5,5;" x1="331.0474" x2="331.0474" y1="83.1973" y2="925.4028"/></g><g><title>Redis domain</title><rect fill="#000000" fill-opacity="0.00000" height="842.2056" width="8" x="509.7559" y="83.1973"/><line style="stroke:#181818;stroke-width:0.5;stroke-dasharray:5,5;" x1="512.9561" x2="512.9561" y1="83.1973" y2="925.4028"/></g><g><title>Campaign UseCase</title><rect fill="#000000" fill-opacity="0.00000" height="842.2056" width="8" x="635.1968" y="83.1973"/><line style="stroke:#181818;stroke-width:0.5;stroke-dasharray:5,5;" x1="638.5557" x2="638.5557" y1="83.1973" y2="925.4028"/></g><g><title>Campaign Repo</title><rect fill="#000000" fill-opacity="0.00000" height="842.2056" width="8" x="772.4238" y="83.1973"/><line style="stroke:#181818;stroke-width:0.5;stroke-dasharray:5,5;" x1="775.8379" x2="775.8379" y1="83.1973" y2="925.4028"/></g><g><title>Project Repo</title><rect fill="#000000" fill-opacity="0.00000" height="842.2056" width="8" x="887.4751" y="83.1973"/><line style="stroke:#181818;stroke-width:0.5;stroke-dasharray:5,5;" x1="891.0098" x2="891.0098" y1="83.1973" y2="925.4028"/></g><g><title>PostgreSQL</title><rect fill="#000000" fill-opacity="0.00000" height="842.2056" width="8" x="1004.625" y="83.1973"/><line style="stroke:#181818;stroke-width:0.5;stroke-dasharray:5,5;" x1="1008.4941" x2="1008.4941" y1="83.1973" y2="925.4028"/></g><g class="participant participant-head" data-participant="UI"><text fill="#000000" font-family="Arial" font-size="14" lengthAdjust="spacing" textLength="14" x="8.5" y="80.2305">UI</text><ellipse cx="18.5" cy="15.5986" fill="#E2E2F0" rx="8" ry="8" style="stroke:#181818;stroke-width:0.5;"/><path d="M18.5,23.5986 L18.5,50.5986 M5.5,31.5986 L31.5,31.5986 M18.5,50.5986 L5.5,65.5986 M18.5,50.5986 L31.5,65.5986" fill="none" style="stroke:#181818;stroke-width:0.5;"/></g><g class="participant participant-tail" data-participant="UI"><text fill="#000000" font-family="Arial" font-size="14" lengthAdjust="spacing" textLength="14" x="8.5" y="937.5347">UI</text><ellipse cx="18.5" cy="949.0015" fill="#E2E2F0" rx="8" ry="8" style="stroke:#181818;stroke-width:0.5;"/><path d="M18.5,957.0015 L18.5,984.0015 M5.5,965.0015 L31.5,965.0015 M18.5,984.0015 L5.5,999.0015 M18.5,984.0015 L31.5,999.0015" fill="none" style="stroke:#181818;stroke-width:0.5;"/></g><g class="participant participant-head" data-participant="ProjectHandler"><rect fill="#E2E2F0" height="30.0986" rx="6" ry="6" style="stroke:#181818;stroke-width:0.5;" width="110.4893" x="125.2788" y="52.0986"/><text fill="#000000" font-family="Arial" font-size="14" lengthAdjust="spacing" textLength="96.4893" x="132.2788" y="72.2305">Project Handler</text></g><g class="participant participant-tail" data-participant="ProjectHandler"><rect fill="#E2E2F0" height="30.0986" rx="6" ry="6" style="stroke:#181818;stroke-width:0.5;" width="110.4893" x="125.2788" y="924.4028"/><text fill="#000000" font-family="Arial" font-size="14" lengthAdjust="spacing" textLength="96.4893" x="132.2788" y="944.5347">Project Handler</text></g><g class="participant participant-head" data-participant="ProjectUC"><rect fill="#E2E2F0" height="30.0986" rx="6" ry="6" style="stroke:#181818;stroke-width:0.5;" width="119.041" x="272.0474" y="52.0986"/><text fill="#000000" font-family="Arial" font-size="14" lengthAdjust="spacing" textLength="105.041" x="279.0474" y="72.2305">Project UseCase</text></g><g class="participant participant-tail" data-participant="ProjectUC"><rect fill="#E2E2F0" height="30.0986" rx="6" ry="6" style="stroke:#181818;stroke-width:0.5;" width="119.041" x="272.0474" y="924.4028"/><text fill="#000000" font-family="Arial" font-size="14" lengthAdjust="spacing" textLength="105.041" x="279.0474" y="944.5347">Project UseCase</text></g><g class="participant participant-head" data-participant="DomainRegistry"><text fill="#000000" font-family="Arial" font-size="14" lengthAdjust="spacing" textLength="85.5996" x="467.9561" y="64.1318">Redis domain</text><text fill="#000000" font-family="Arial" font-size="14" lengthAdjust="spacing" textLength="45.8965" x="487.8076" y="80.2305">registry</text><path d="M495.7559,15 C495.7559,5 513.7559,5 513.7559,5 C513.7559,5 531.7559,5 531.7559,15 L531.7559,41 C531.7559,51 513.7559,51 513.7559,51 C513.7559,51 495.7559,51 495.7559,41 L495.7559,15" fill="#E2E2F0" style="stroke:#181818;stroke-width:0.5;"/><path d="M495.7559,15 C495.7559,25 513.7559,25 513.7559,25 C513.7559,25 531.7559,25 531.7559,15" fill="none" style="stroke:#181818;stroke-width:0.5;"/></g><g class="participant participant-tail" data-participant="DomainRegistry"><text fill="#000000" font-family="Arial" font-size="14" lengthAdjust="spacing" textLength="85.5996" x="467.9561" y="937.5347">Redis domain</text><text fill="#000000" font-family="Arial" font-size="14" lengthAdjust="spacing" textLength="45.8965" x="487.8076" y="953.6333">registry</text><path d="M495.7559,966.6001 C495.7559,956.6001 513.7559,956.6001 513.7559,956.6001 C513.7559,956.6001 531.7559,956.6001 531.7559,966.6001 L531.7559,992.6001 C531.7559,1002.6001 513.7559,1002.6001 513.7559,1002.6001 C513.7559,1002.6001 495.7559,1002.6001 495.7559,992.6001 L495.7559,966.6001" fill="#E2E2F0" style="stroke:#181818;stroke-width:0.5;"/><path d="M495.7559,966.6001 C495.7559,976.6001 513.7559,976.6001 513.7559,976.6001 C513.7559,976.6001 531.7559,976.6001 531.7559,966.6001" fill="none" style="stroke:#181818;stroke-width:0.5;"/></g><g class="participant participant-head" data-participant="CampaignUC"><rect fill="#E2E2F0" height="30.0986" rx="6" ry="6" style="stroke:#181818;stroke-width:0.5;" width="139.2822" x="569.5557" y="52.0986"/><text fill="#000000" font-family="Arial" font-size="14" lengthAdjust="spacing" textLength="125.2822" x="576.5557" y="72.2305">Campaign UseCase</text></g><g class="participant participant-tail" data-participant="CampaignUC"><rect fill="#E2E2F0" height="30.0986" rx="6" ry="6" style="stroke:#181818;stroke-width:0.5;" width="139.2822" x="569.5557" y="924.4028"/><text fill="#000000" font-family="Arial" font-size="14" lengthAdjust="spacing" textLength="125.2822" x="576.5557" y="944.5347">Campaign UseCase</text></g><g class="participant participant-head" data-participant="CampaignRepo"><rect fill="#E2E2F0" height="30.0986" rx="6" ry="6" style="stroke:#181818;stroke-width:0.5;" width="115.1719" x="718.8379" y="52.0986"/><text fill="#000000" font-family="Arial" font-size="14" lengthAdjust="spacing" textLength="101.1719" x="725.8379" y="72.2305">Campaign Repo</text></g><g class="participant participant-tail" data-participant="CampaignRepo"><rect fill="#E2E2F0" height="30.0986" rx="6" ry="6" style="stroke:#181818;stroke-width:0.5;" width="115.1719" x="718.8379" y="924.4028"/><text fill="#000000" font-family="Arial" font-size="14" lengthAdjust="spacing" textLength="101.1719" x="725.8379" y="944.5347">Campaign Repo</text></g><g class="participant participant-head" data-participant="ProjectRepo"><rect fill="#E2E2F0" height="30.0986" rx="6" ry="6" style="stroke:#181818;stroke-width:0.5;" width="94.9307" x="844.0098" y="52.0986"/><text fill="#000000" font-family="Arial" font-size="14" lengthAdjust="spacing" textLength="80.9307" x="851.0098" y="72.2305">Project Repo</text></g><g class="participant participant-tail" data-participant="ProjectRepo"><rect fill="#E2E2F0" height="30.0986" rx="6" ry="6" style="stroke:#181818;stroke-width:0.5;" width="94.9307" x="844.0098" y="924.4028"/><text fill="#000000" font-family="Arial" font-size="14" lengthAdjust="spacing" textLength="80.9307" x="851.0098" y="944.5347">Project Repo</text></g><g class="participant participant-head" data-participant="PostgreSQL"><text fill="#000000" font-family="Arial" font-size="14" lengthAdjust="spacing" textLength="76.2617" x="967.4941" y="80.2305">PostgreSQL</text><path d="M990.625,31.0986 C990.625,21.0986 1008.625,21.0986 1008.625,21.0986 C1008.625,21.0986 1026.625,21.0986 1026.625,31.0986 L1026.625,57.0986 C1026.625,67.0986 1008.625,67.0986 1008.625,67.0986 C1008.625,67.0986 990.625,67.0986 990.625,57.0986 L990.625,31.0986" fill="#E2E2F0" style="stroke:#181818;stroke-width:0.5;"/><path d="M990.625,31.0986 C990.625,41.0986 1008.625,41.0986 1008.625,41.0986 C1008.625,41.0986 1026.625,41.0986 1026.625,31.0986" fill="none" style="stroke:#181818;stroke-width:0.5;"/></g><g class="participant participant-tail" data-participant="PostgreSQL"><text fill="#000000" font-family="Arial" font-size="14" lengthAdjust="spacing" textLength="76.2617" x="967.4941" y="937.5347">PostgreSQL</text><path d="M990.625,950.5015 C990.625,940.5015 1008.625,940.5015 1008.625,940.5015 C1008.625,940.5015 1026.625,940.5015 1026.625,950.5015 L1026.625,976.5015 C1026.625,986.5015 1008.625,986.5015 1008.625,986.5015 C1008.625,986.5015 990.625,986.5015 990.625,976.5015 L990.625,950.5015" fill="#E2E2F0" style="stroke:#181818;stroke-width:0.5;"/><path d="M990.625,950.5015 C990.625,960.5015 1008.625,960.5015 1008.625,960.5015 C1008.625,960.5015 1026.625,960.5015 1026.625,950.5015" fill="none" style="stroke:#181818;stroke-width:0.5;"/></g><g><title>Project Handler</title><rect fill="#FFFFFF" height="778.3081" style="stroke:#181818;stroke-width:1;" width="10" x="175.5234" y="129.0947"/></g><g><title>Project UseCase</title><rect fill="#FFFFFF" height="648.5645" style="stroke:#181818;stroke-width:1;" width="10" x="326.5679" y="199.9922"/></g><g><title>Redis domain</title><rect fill="#FFFFFF" height="28.9487" style="stroke:#181818;stroke-width:1;" width="10" x="508.7559" y="228.9409"/></g><g><title>Campaign UseCase</title><rect fill="#FFFFFF" height="219.4873" style="stroke:#181818;stroke-width:1;" width="10" x="634.1968" y="286.8384"/></g><g><title>Campaign Repo</title><rect fill="#FFFFFF" height="146.6411" style="stroke:#181818;stroke-width:1;" width="10" x="771.4238" y="315.7871"/></g><g><title>Project Repo</title><rect fill="#FFFFFF" height="284.3335" style="stroke:#181818;stroke-width:1;" width="10" x="886.4751" y="535.2744"/></g><g><title>PostgreSQL</title><rect fill="#FFFFFF" height="43.8975" style="stroke:#181818;stroke-width:1;" width="10" x="1003.625" y="374.6333"/></g><g><title>PostgreSQL</title><rect fill="#FFFFFF" height="43.8975" style="stroke:#181818;stroke-width:1;" width="10" x="1003.625" y="644.0181"/></g><g><title>PostgreSQL</title><rect fill="#FFFFFF" height="28.9487" style="stroke:#181818;stroke-width:1;" width="10" x="1003.625" y="746.7617"/></g><g class="message" data-participant-1="UI" data-participant-2="ProjectHandler"><polygon fill="#181818" points="163.5234,125.0947,173.5234,129.0947,163.5234,133.0947,167.5234,129.0947" style="stroke:#181818;stroke-width:1;"/><line style="stroke:#181818;stroke-width:1;" x1="18.5" x2="169.5234" y1="129.0947" y2="129.0947"/><text fill="#000000" font-family="Arial" font-size="13" lengthAdjust="spacing" textLength="35.3945" x="79.3145" y="109.3911">POST</text><text fill="#000000" font-family="Arial" font-size="13" lengthAdjust="spacing" textLength="138.0234" x="28" y="124.3398">/campaigns/{id}/projects</text></g><g class="message" data-participant-1="ProjectHandler" data-participant-2="ProjectHandler"><line style="stroke:#181818;stroke-width:1;" x1="185.5234" x2="227.5234" y1="158.0435" y2="158.0435"/><line style="stroke:#181818;stroke-width:1;" x1="227.5234" x2="227.5234" y1="158.0435" y2="171.0435"/><line style="stroke:#181818;stroke-width:1;" x1="186.5234" x2="227.5234" y1="171.0435" y2="171.0435"/><polygon fill="#181818" points="196.5234,167.0435,186.5234,171.0435,196.5234,175.0435,192.5234,171.0435" style="stroke:#181818;stroke-width:1;"/><text fill="#000000" font-family="Arial" font-size="13" lengthAdjust="spacing" textLength="117.0444" x="192.5234" y="153.2886">processCreateReq()</text></g><g class="message" data-participant-1="ProjectHandler" data-participant-2="ProjectUC"><polygon fill="#181818" points="314.5679,195.9922,324.5679,199.9922,314.5679,203.9922,318.5679,199.9922" style="stroke:#181818;stroke-width:1;"/><line style="stroke:#181818;stroke-width:1;" x1="185.5234" x2="320.5679" y1="199.9922" y2="199.9922"/><text fill="#000000" font-family="Arial" font-size="13" lengthAdjust="spacing" textLength="75.8672" x="218.1121" y="195.2373">Create(input)</text></g><g class="message" data-participant-1="ProjectUC" data-participant-2="DomainRegistry"><polygon fill="#181818" points="496.7559,224.9409,506.7559,228.9409,496.7559,232.9409,500.7559,228.9409" style="stroke:#181818;stroke-width:1;"/><line style="stroke:#181818;stroke-width:1;" x1="336.5679" x2="502.7559" y1="228.9409" y2="228.9409"/><text fill="#000000" font-family="Arial" font-size="13" lengthAdjust="spacing" textLength="153.188" x="346.0679" y="224.186">Exists(domain_type_code)</text></g><g class="message" data-participant-1="DomainRegistry" data-participant-2="ProjectUC"><polygon fill="#181818" points="347.5679,253.8896,337.5679,257.8896,347.5679,261.8896,343.5679,257.8896" style="stroke:#181818;stroke-width:1;"/><line style="stroke:#181818;stroke-width:1;stroke-dasharray:2,2;" x1="341.5679" x2="512.7559" y1="257.8896" y2="257.8896"/><text fill="#000000" font-family="Arial" font-size="13" lengthAdjust="spacing" textLength="33.23" x="408.5469" y="253.1348">exists</text></g><g class="message" data-participant-1="ProjectUC" data-participant-2="CampaignUC"><polygon fill="#181818" points="622.1968,282.8384,632.1968,286.8384,622.1968,290.8384,626.1968,286.8384" style="stroke:#181818;stroke-width:1;"/><line style="stroke:#181818;stroke-width:1;" x1="336.5679" x2="628.1968" y1="286.8384" y2="286.8384"/><text fill="#000000" font-family="Arial" font-size="13" lengthAdjust="spacing" textLength="115.6099" x="427.5774" y="282.0835">Detail(campaign_id)</text></g><g class="message" data-participant-1="CampaignUC" data-participant-2="CampaignRepo"><polygon fill="#181818" points="759.4238,311.7871,769.4238,315.7871,759.4238,319.7871,763.4238,315.7871" style="stroke:#181818;stroke-width:1;"/><line style="stroke:#181818;stroke-width:1;" x1="644.1968" x2="765.4238" y1="315.7871" y2="315.7871"/><text fill="#000000" font-family="Arial" font-size="13" lengthAdjust="spacing" textLength="52.0127" x="681.804" y="311.0322">Detail(id)</text></g><g class="message" data-participant-1="CampaignRepo" data-participant-2="PostgreSQL"><polygon fill="#181818" points="991.625,370.6333,1001.625,374.6333,991.625,378.6333,995.625,374.6333" style="stroke:#181818;stroke-width:1;"/><line style="stroke:#181818;stroke-width:1;" x1="781.4238" x2="997.625" y1="374.6333" y2="374.6333"/><text fill="#000000" font-family="Arial" font-size="13" lengthAdjust="spacing" textLength="50.5718" x="867.2385" y="339.981">SELECT</text><text fill="#000000" font-family="Arial" font-size="13" lengthAdjust="spacing" textLength="56.3672" x="864.3408" y="354.9297">campaign</text><text fill="#000000" font-family="Arial" font-size="13" lengthAdjust="spacing" textLength="13.73" x="878.7944" y="369.8784">by</text><text fill="#000000" font-family="Arial" font-size="13" lengthAdjust="spacing" textLength="3.6118" x="892.5244" y="369.8784">&#160;</text><text fill="#000000" font-family="Arial" font-size="13" lengthAdjust="spacing" textLength="10.1182" x="896.1362" y="369.8784">id</text></g><g class="message" data-participant-1="PostgreSQL" data-participant-2="CampaignRepo"><polygon fill="#181818" points="792.4238,414.5308,782.4238,418.5308,792.4238,422.5308,788.4238,418.5308" style="stroke:#181818;stroke-width:1;"/><line style="stroke:#181818;stroke-width:1;stroke-dasharray:2,2;" x1="786.4238" x2="1007.625" y1="418.5308" y2="418.5308"/><text fill="#000000" font-family="Arial" font-size="13" lengthAdjust="spacing" textLength="56.3672" x="866.8408" y="398.8271">campaign</text><text fill="#000000" font-family="Arial" font-size="13" lengthAdjust="spacing" textLength="20.9473" x="884.5508" y="413.7759">row</text></g><g class="message" data-participant-1="CampaignRepo" data-participant-2="CampaignUC"><polygon fill="#181818" points="655.1968,458.4282,645.1968,462.4282,655.1968,466.4282,651.1968,462.4282" style="stroke:#181818;stroke-width:1;"/><line style="stroke:#181818;stroke-width:1;stroke-dasharray:2,2;" x1="649.1968" x2="775.4238" y1="462.4282" y2="462.4282"/><text fill="#000000" font-family="Arial" font-size="13" lengthAdjust="spacing" textLength="56.3672" x="682.1267" y="442.7246">campaign</text><text fill="#000000" font-family="Arial" font-size="13" lengthAdjust="spacing" textLength="35.4072" x="692.6067" y="457.6733">model</text></g><g class="message" data-participant-1="CampaignUC" data-participant-2="ProjectUC"><polygon fill="#181818" points="347.5679,502.3257,337.5679,506.3257,347.5679,510.3257,343.5679,506.3257" style="stroke:#181818;stroke-width:1;"/><line style="stroke:#181818;stroke-width:1;stroke-dasharray:2,2;" x1="341.5679" x2="638.1968" y1="506.3257" y2="506.3257"/><text fill="#000000" font-family="Arial" font-size="13" lengthAdjust="spacing" textLength="56.3672" x="459.6987" y="486.6221">campaign</text><text fill="#000000" font-family="Arial" font-size="13" lengthAdjust="spacing" textLength="33.23" x="471.2673" y="501.5708">exists</text></g><g class="message" data-participant-1="ProjectUC" data-participant-2="ProjectRepo"><polygon fill="#181818" points="874.4751,531.2744,884.4751,535.2744,874.4751,539.2744,878.4751,535.2744" style="stroke:#181818;stroke-width:1;"/><line style="stroke:#181818;stroke-width:1;" x1="336.5679" x2="880.4751" y1="535.2744" y2="535.2744"/><text fill="#000000" font-family="Arial" font-size="13" lengthAdjust="spacing" textLength="131.498" x="545.7725" y="530.5195">Create(CreateOptions)</text></g><path d="M901,554.2744 L901,596.2744 A6,6 0 0 0 907,602.2744 L1047,602.2744 A6,6 0 0 0 1053,596.2744 L1053,558.2744 L1043,548.2744 L907,548.2744 A6,6 0 0 0 901,554.2744" fill="#FEFFDD" style="stroke:#181818;stroke-width:0.5;"/><path d="M1043,548.2744 L1043,555.2744 A3,3 0 0 0 1046,558.2744 L1053,558.2744 L1043,548.2744" fill="#FEFFDD" style="stroke:#181818;stroke-width:0.5;"/><text fill="#000000" font-family="Arial" font-size="13" lengthAdjust="spacing" textLength="130.7617" x="907" y="565.4683">New projects start with</text><text fill="#000000" font-family="Arial" font-size="13" lengthAdjust="spacing" textLength="126.8071" x="907" y="580.417">status=PENDING and</text><text fill="#000000" font-family="Arial" font-size="13" lengthAdjust="spacing" textLength="131.1362" x="907" y="595.3657">config_status=DRAFT.</text><g class="message" data-participant-1="ProjectRepo" data-participant-2="PostgreSQL"><polygon fill="#181818" points="991.625,640.0181,1001.625,644.0181,991.625,648.0181,995.625,644.0181" style="stroke:#181818;stroke-width:1;"/><line style="stroke:#181818;stroke-width:1;" x1="896.4751" x2="997.625" y1="644.0181" y2="644.0181"/><text fill="#000000" font-family="Arial" font-size="13" lengthAdjust="spacing" textLength="47.6709" x="926.2146" y="624.3145">INSERT</text><text fill="#000000" font-family="Arial" font-size="13" lengthAdjust="spacing" textLength="88.1499" x="905.9751" y="639.2632">project.projects</text></g><g class="message" data-participant-1="PostgreSQL" data-participant-2="ProjectRepo"><polygon fill="#181818" points="907.4751,683.9155,897.4751,687.9155,907.4751,691.9155,903.4751,687.9155" style="stroke:#181818;stroke-width:1;"/><line style="stroke:#181818;stroke-width:1;stroke-dasharray:2,2;" x1="901.4751" x2="1007.625" y1="687.9155" y2="687.9155"/><text fill="#000000" font-family="Arial" font-size="13" lengthAdjust="spacing" textLength="23.8481" x="919.3105" y="668.2119">new</text><text fill="#000000" font-family="Arial" font-size="13" lengthAdjust="spacing" textLength="3.6118" x="943.1587" y="668.2119">&#160;</text><text fill="#000000" font-family="Arial" font-size="13" lengthAdjust="spacing" textLength="39.019" x="946.7705" y="668.2119">project</text><text fill="#000000" font-family="Arial" font-size="13" lengthAdjust="spacing" textLength="10.1182" x="947.491" y="683.1606">id</text></g><g class="message" data-participant-1="ProjectRepo" data-participant-2="PostgreSQL"><polygon fill="#181818" points="991.625,742.7617,1001.625,746.7617,991.625,750.7617,995.625,746.7617" style="stroke:#181818;stroke-width:1;"/><line style="stroke:#181818;stroke-width:1;" x1="896.4751" x2="997.625" y1="746.7617" y2="746.7617"/><text fill="#000000" font-family="Arial" font-size="13" lengthAdjust="spacing" textLength="50.5718" x="924.7642" y="712.1094">SELECT</text><text fill="#000000" font-family="Arial" font-size="13" lengthAdjust="spacing" textLength="39.019" x="921.8696" y="727.0581">project</text><text fill="#000000" font-family="Arial" font-size="13" lengthAdjust="spacing" textLength="3.6118" x="960.8887" y="727.0581">&#160;</text><text fill="#000000" font-family="Arial" font-size="13" lengthAdjust="spacing" textLength="13.73" x="964.5005" y="727.0581">by</text><text fill="#000000" font-family="Arial" font-size="13" lengthAdjust="spacing" textLength="10.1182" x="944.991" y="742.0068">id</text></g><g class="message" data-participant-1="PostgreSQL" data-participant-2="ProjectRepo"><polygon fill="#181818" points="907.4751,771.7104,897.4751,775.7104,907.4751,779.7104,903.4751,775.7104" style="stroke:#181818;stroke-width:1;"/><line style="stroke:#181818;stroke-width:1;stroke-dasharray:2,2;" x1="901.4751" x2="1007.625" y1="775.7104" y2="775.7104"/><text fill="#000000" font-family="Arial" font-size="13" lengthAdjust="spacing" textLength="39.019" x="920.761" y="770.9556">project</text><text fill="#000000" font-family="Arial" font-size="13" lengthAdjust="spacing" textLength="3.6118" x="959.78" y="770.9556">&#160;</text><text fill="#000000" font-family="Arial" font-size="13" lengthAdjust="spacing" textLength="20.9473" x="963.3918" y="770.9556">row</text></g><g class="message" data-participant-1="ProjectRepo" data-participant-2="ProjectUC"><polygon fill="#181818" points="347.5679,815.6079,337.5679,819.6079,347.5679,823.6079,343.5679,819.6079" style="stroke:#181818;stroke-width:1;"/><line style="stroke:#181818;stroke-width:1;stroke-dasharray:2,2;" x1="341.5679" x2="890.4751" y1="819.6079" y2="819.6079"/><text fill="#000000" font-family="Arial" font-size="13" lengthAdjust="spacing" textLength="39.019" x="594.512" y="799.9043">project</text><text fill="#000000" font-family="Arial" font-size="13" lengthAdjust="spacing" textLength="35.4072" x="596.3179" y="814.853">model</text></g><g class="message" data-participant-1="ProjectUC" data-participant-2="ProjectHandler"><polygon fill="#181818" points="196.5234,844.5566,186.5234,848.5566,196.5234,852.5566,192.5234,848.5566" style="stroke:#181818;stroke-width:1;"/><line style="stroke:#181818;stroke-width:1;stroke-dasharray:2,2;" x1="190.5234" x2="330.5679" y1="848.5566" y2="848.5566"/><text fill="#000000" font-family="Arial" font-size="13" lengthAdjust="spacing" textLength="78.0444" x="219.5234" y="843.8018">CreateOutput</text></g><g class="message" data-participant-1="ProjectHandler" data-participant-2="UI"><polygon fill="#181818" points="29.5,903.4028,19.5,907.4028,29.5,911.4028,25.5,907.4028" style="stroke:#181818;stroke-width:1;"/><line style="stroke:#181818;stroke-width:1;stroke-dasharray:2,2;" x1="23.5" x2="179.5234" y1="907.4028" y2="907.4028"/><text fill="#000000" font-family="Arial" font-size="13" lengthAdjust="spacing" textLength="21.6899" x="71.8677" y="872.7505">200</text><text fill="#000000" font-family="Arial" font-size="13" lengthAdjust="spacing" textLength="3.6118" x="93.5576" y="872.7505">&#160;</text><text fill="#000000" font-family="Arial" font-size="13" lengthAdjust="spacing" textLength="18.7827" x="97.1694" y="872.7505">OK</text><text fill="#000000" font-family="Arial" font-size="13" lengthAdjust="spacing" textLength="3.6118" x="115.9521" y="872.7505">&#160;</text><text fill="#000000" font-family="Arial" font-size="13" lengthAdjust="spacing" textLength="7.5918" x="119.564" y="872.7505">+</text><text fill="#000000" font-family="Arial" font-size="13" lengthAdjust="spacing" textLength="43.3608" x="77.8313" y="887.6992">created</text><text fill="#000000" font-family="Arial" font-size="13" lengthAdjust="spacing" textLength="39.019" x="80.0022" y="902.6479">project</text></g><!--SRC=[ZLHDZzem4BtdLumuiQfOw5ughTHADB0jwXOe7xTAo1iFmMrYPssdB5lrltSIyk64KFMKPFpUyykyiSrF8HEcMGmSzooDx8EITivYXB4MBF9CjMuEZAkZa27iMMJGNS7d56M0Nz4O5k8u4g640AL5xQ0qcaH9Kw8-OgIEOwtL4QnENRcOlHIOjNX5U3ToHLGgUQ2qH0rlxpoF1LPfw6rdFM06jZEFO5O48c7IGc-frGyCB7ncaaUeSqnHAqhT-Ar1dnbqyLlVuyoo9of3RuLS6E0gPa9-bnf3OQm-vV19NbmLfQQyp-A4PRrnzSiYRT0DNc6Y6iYiqEsxWXQ575dRNYfZGuthRuzdKFNfUTiP33wqUWFti5oiDp0CYetDyBVWVuR96MMovejVp6AxfosPBc7I22XZNoFnL_ZSlxdEslf4E2FxD0UflRdOcPhdrMYYDcCW_lI5tap_dDdEdXBS1OgZ8zLAhgKmQFd1NC_ZU8tVz5EdJDm9MYQYVjdMdU2E3MSU798ZaOLQYtHoyzmR-Cnz5JUnrzF7gR-1qW8ydK1mfwtrQ3YqmQMBIe3EiTiCHw3fezsBIY2cD29NelDdibQqagWKBYDnUjcCmpaVzMoT7ul42hgcBcSizo4L5RG83nRKlh42CCSZb6S3ZAK32aTX3xH27pOrxvVJ-MGs_mGquLGCbDoBS5UiJLRZXysjXv93jeVdEco7DvklfwjDkTTjntcy6b_pnsNjE8k_Exz_EId6gDJuxobgsYZfrsUeuQ6LVyc-620t7JV-hlkeo3wrTBrqQD00jQydKg5BynxkHYDOV84t4EGIlFJJeL9m_m80]--></g></svg>