<svg xmlns="http://www.w3.org/2000/svg" xmlns:xlink="http://www.w3.org/1999/xlink" contentStyleType="text/css" data-diagram-type="SEQUENCE" height="765px" preserveAspectRatio="none" style="width:782px;height:765px;background:#FFFFFF;" version="1.1" viewBox="0 0 782 765" width="782px" zoomAndPan="magnify"><defs/><g><g><title>IndexingUseCase</title><rect fill="#FFFFFF" height="645.6157" style="stroke:#181818;stroke-width:1;" width="10" x="190.5234" y="67.0474"/></g><g><title>EmbeddingUseCase</title><rect fill="#FFFFFF" height="28.9487" style="stroke:#181818;stroke-width:1;" width="10" x="341.646" y="280.5859"/></g><g><title>PointUseCase</title><rect fill="#FFFFFF" height="131.6924" style="stroke:#181818;stroke-width:1;" width="10" x="474.5938" y="95.9961"/></g><g><title>PointUseCase</title><rect fill="#FFFFFF" height="101.7949" style="stroke:#181818;stroke-width:1;" width="10" x="474.5938" y="353.4321"/></g><g><title>Qdrant</title><rect fill="#FFFFFF" height="43.8975" style="stroke:#181818;stroke-width:1;" width="10" x="571.5264" y="154.8423"/></g><g><title>Qdrant</title><rect fill="#FFFFFF" height="43.8975" style="stroke:#181818;stroke-width:1;" width="10" x="571.5264" y="382.3809"/></g><g><title>Cache Repo</title><rect fill="#FFFFFF" height="131.6924" style="stroke:#181818;stroke-width:1;" width="10" x="655.8398" y="515.1245"/></g><g><title>Redis</title><rect fill="#FFFFFF" height="43.8975" style="stroke:#181818;stroke-width:1;" width="10" x="736.6499" y="573.9707"/></g><rect fill="none" height="220.5386" rx="6" ry="6" style="stroke:#000000;stroke-width:1.5;" width="491.6577" x="123.2686" y="242.6885"/><rect fill="none" height="177.5898" rx="6" ry="6" style="stroke:#000000;stroke-width:1.5;" width="653.2778" x="123.2686" y="477.2271"/><g><title>Kafka Consumer</title><rect fill="#000000" fill-opacity="0.00000" height="694.5645" width="8" x="60.1343" y="36.0986"/><line style="stroke:#181818;stroke-width:0.5;stroke-dasharray:5,5;" x1="64" x2="64" y1="36.0986" y2="730.6631"/></g><g><title>IndexingUseCase</title><rect fill="#000000" fill-opacity="0.00000" height="694.5645" width="8" x="191.5234" y="36.0986"/><line style="stroke:#181818;stroke-width:0.5;stroke-dasharray:5,5;" x1="195.2686" x2="195.2686" y1="36.0986" y2="730.6631"/></g><g><title>EmbeddingUseCase</title><rect fill="#000000" fill-opacity="0.00000" height="694.5645" width="8" x="342.646" y="36.0986"/><line style="stroke:#181818;stroke-width:0.5;stroke-dasharray:5,5;" x1="346.4429" x2="346.4429" y1="36.0986" y2="730.6631"/></g><g><title>PointUseCase</title><rect fill="#000000" fill-opacity="0.00000" height="694.5645" width="8" x="475.5938" y="36.0986"/><line style="stroke:#181818;stroke-width:0.5;stroke-dasharray:5,5;" x1="478.8491" x2="478.8491" y1="36.0986" y2="730.6631"/></g><g><title>Qdrant</title><rect fill="#000000" fill-opacity="0.00000" height="694.5645" width="8" x="572.5264" y="36.0986"/><line style="stroke:#181818;stroke-width:0.5;stroke-dasharray:5,5;" x1="576.1265" x2="576.1265" y1="36.0986" y2="730.6631"/></g><g><title>Cache Repo</title><rect fill="#000000" fill-opacity="0.00000" height="694.5645" width="8" x="656.8398" y="36.0986"/><line style="stroke:#181818;stroke-width:0.5;stroke-dasharray:5,5;" x1="659.9263" x2="659.9263" y1="36.0986" y2="730.6631"/></g><g><title>Redis</title><rect fill="#000000" fill-opacity="0.00000" height="694.5645" width="8" x="737.6499" y="36.0986"/><line style="stroke:#181818;stroke-width:0.5;stroke-dasharray:5,5;" x1="740.7534" x2="740.7534" y1="36.0986" y2="730.6631"/></g><g class="participant participant-head" data-participant="Consumer"><rect fill="#E2E2F0" height="30.0986" rx="6" ry="6" style="stroke:#181818;stroke-width:0.5;" width="118.2686" x="5" y="5"/><text fill="#000000" font-family="Arial" font-size="14" lengthAdjust="spacing" textLength="104.2686" x="12" y="25.1318">Kafka Consumer</text></g><g class="participant participant-tail" data-participant="Consumer"><rect fill="#E2E2F0" height="30.0986" rx="6" ry="6" style="stroke:#181818;stroke-width:0.5;" width="118.2686" x="5" y="729.6631"/><text fill="#000000" font-family="Arial" font-size="14" lengthAdjust="spacing" textLength="104.2686" x="12" y="749.7949">Kafka Consumer</text></g><g class="participant participant-head" data-participant="Indexing"><rect fill="#E2E2F0" height="30.0986" rx="6" ry="6" style="stroke:#181818;stroke-width:0.5;" width="124.5098" x="133.2686" y="5"/><text fill="#000000" font-family="Arial" font-size="14" lengthAdjust="spacing" textLength="110.5098" x="140.2686" y="25.1318">IndexingUseCase</text></g><g class="participant participant-tail" data-participant="Indexing"><rect fill="#E2E2F0" height="30.0986" rx="6" ry="6" style="stroke:#181818;stroke-width:0.5;" width="124.5098" x="133.2686" y="729.6631"/><text fill="#000000" font-family="Arial" font-size="14" lengthAdjust="spacing" textLength="110.5098" x="140.2686" y="749.7949">IndexingUseCase</text></g><g class="participant participant-head" data-participant="Embedding"><rect fill="#E2E2F0" height="30.0986" rx="6" ry="6" style="stroke:#181818;stroke-width:0.5;" width="142.4063" x="275.4429" y="5"/><text fill="#000000" font-family="Arial" font-size="14" lengthAdjust="spacing" textLength="128.4063" x="282.4429" y="25.1318">EmbeddingUseCase</text></g><g class="participant participant-tail" data-participant="Embedding"><rect fill="#E2E2F0" height="30.0986" rx="6" ry="6" style="stroke:#181818;stroke-width:0.5;" width="142.4063" x="275.4429" y="729.6631"/><text fill="#000000" font-family="Arial" font-size="14" lengthAdjust="spacing" textLength="128.4063" x="282.4429" y="749.7949">EmbeddingUseCase</text></g><g class="participant participant-head" data-participant="PointUC"><rect fill="#E2E2F0" height="30.0986" rx="6" ry="6" style="stroke:#181818;stroke-width:0.5;" width="103.4893" x="427.8491" y="5"/><text fill="#000000" font-family="Arial" font-size="14" lengthAdjust="spacing" textLength="89.4893" x="434.8491" y="25.1318">PointUseCase</text></g><g class="participant participant-tail" data-participant="PointUC"><rect fill="#E2E2F0" height="30.0986" rx="6" ry="6" style="stroke:#181818;stroke-width:0.5;" width="103.4893" x="427.8491" y="729.6631"/><text fill="#000000" font-family="Arial" font-size="14" lengthAdjust="spacing" textLength="89.4893" x="434.8491" y="749.7949">PointUseCase</text></g><g class="participant participant-head" data-participant="Qdrant"><rect fill="#E2E2F0" height="30.0986" rx="6" ry="6" style="stroke:#181818;stroke-width:0.5;" width="56.7998" x="548.1265" y="5"/><text fill="#000000" font-family="Arial" font-size="14" lengthAdjust="spacing" textLength="42.7998" x="555.1265" y="25.1318">Qdrant</text></g><g class="participant participant-tail" data-participant="Qdrant"><rect fill="#E2E2F0" height="30.0986" rx="6" ry="6" style="stroke:#181818;stroke-width:0.5;" width="56.7998" x="548.1265" y="729.6631"/><text fill="#000000" font-family="Arial" font-size="14" lengthAdjust="spacing" textLength="42.7998" x="555.1265" y="749.7949">Qdrant</text></g><g class="participant participant-head" data-participant="CacheRepo"><rect fill="#E2E2F0" height="30.0986" rx="6" ry="6" style="stroke:#181818;stroke-width:0.5;" width="91.8271" x="614.9263" y="5"/><text fill="#000000" font-family="Arial" font-size="14" lengthAdjust="spacing" textLength="77.8271" x="621.9263" y="25.1318">Cache Repo</text></g><g class="participant participant-tail" data-participant="CacheRepo"><rect fill="#E2E2F0" height="30.0986" rx="6" ry="6" style="stroke:#181818;stroke-width:0.5;" width="91.8271" x="614.9263" y="729.6631"/><text fill="#000000" font-family="Arial" font-size="14" lengthAdjust="spacing" textLength="77.8271" x="621.9263" y="749.7949">Cache Repo</text></g><g class="participant participant-head" data-participant="Redis"><rect fill="#E2E2F0" height="30.0986" rx="6" ry="6" style="stroke:#181818;stroke-width:0.5;" width="49.793" x="716.7534" y="5"/><text fill="#000000" font-family="Arial" font-size="14" lengthAdjust="spacing" textLength="35.793" x="723.7534" y="25.1318">Redis</text></g><g class="participant participant-tail" data-participant="Redis"><rect fill="#E2E2F0" height="30.0986" rx="6" ry="6" style="stroke:#181818;stroke-width:0.5;" width="49.793" x="716.7534" y="729.6631"/><text fill="#000000" font-family="Arial" font-size="14" lengthAdjust="spacing" textLength="35.793" x="723.7534" y="749.7949">Redis</text></g><g><title>IndexingUseCase</title><rect fill="#FFFFFF" height="645.6157" style="stroke:#181818;stroke-width:1;" width="10" x="190.5234" y="67.0474"/></g><g><title>EmbeddingUseCase</title><rect fill="#FFFFFF" height="28.9487" style="stroke:#181818;stroke-width:1;" width="10" x="341.646" y="280.5859"/></g><g><title>PointUseCase</title><rect fill="#FFFFFF" height="131.6924" style="stroke:#181818;stroke-width:1;" width="10" x="474.5938" y="95.9961"/></g><g><title>PointUseCase</title><rect fill="#FFFFFF" height="101.7949" style="stroke:#181818;stroke-width:1;" width="10" x="474.5938" y="353.4321"/></g><g><title>Qdrant</title><rect fill="#FFFFFF" height="43.8975" style="stroke:#181818;stroke-width:1;" width="10" x="571.5264" y="154.8423"/></g><g><title>Qdrant</title><rect fill="#FFFFFF" height="43.8975" style="stroke:#181818;stroke-width:1;" width="10" x="571.5264" y="382.3809"/></g><g><title>Cache Repo</title><rect fill="#FFFFFF" height="131.6924" style="stroke:#181818;stroke-width:1;" width="10" x="655.8398" y="515.1245"/></g><g><title>Redis</title><rect fill="#FFFFFF" height="43.8975" style="stroke:#181818;stroke-width:1;" width="10" x="736.6499" y="573.9707"/></g><g class="message" data-participant-1="Consumer" data-participant-2="Indexing"><polygon fill="#181818" points="178.5234,63.0474,188.5234,67.0474,178.5234,71.0474,182.5234,67.0474" style="stroke:#181818;stroke-width:1;"/><line style="stroke:#181818;stroke-width:1;" x1="64.1343" x2="184.5234" y1="67.0474" y2="67.0474"/><text fill="#000000" font-family="Arial" font-size="13" lengthAdjust="spacing" textLength="101.8926" x="76.3826" y="62.2925">IndexBatch(input)</text></g><g class="message" data-participant-1="Indexing" data-participant-2="PointUC"><polygon fill="#181818" points="462.5938,91.9961,472.5938,95.9961,462.5938,99.9961,466.5938,95.9961" style="stroke:#181818;stroke-width:1;"/><line style="stroke:#181818;stroke-width:1;" x1="200.5234" x2="468.5938" y1="95.9961" y2="95.9961"/><text fill="#000000" font-family="Arial" font-size="13" lengthAdjust="spacing" textLength="200.8906" x="237.1133" y="91.2412">EnsureCollection(proj_{project_id})</text></g><g class="message" data-participant-1="PointUC" data-participant-2="Qdrant"><polygon fill="#181818" points="559.5264,150.8423,569.5264,154.8423,559.5264,158.8423,563.5264,154.8423" style="stroke:#181818;stroke-width:1;"/><line style="stroke:#181818;stroke-width:1;" x1="484.5938" x2="565.5264" y1="154.8423" y2="154.8423"/><text fill="#000000" font-family="Arial" font-size="13" lengthAdjust="spacing" textLength="36.1309" x="509.9946" y="120.1899">create</text><text fill="#000000" font-family="Arial" font-size="13" lengthAdjust="spacing" textLength="54.1963" x="495.906" y="135.1387">collection</text><text fill="#000000" font-family="Arial" font-size="13" lengthAdjust="spacing" textLength="3.6118" x="550.1023" y="135.1387">&#160;</text><text fill="#000000" font-family="Arial" font-size="13" lengthAdjust="spacing" textLength="6.5" x="553.7141" y="135.1387">if</text><text fill="#000000" font-family="Arial" font-size="13" lengthAdjust="spacing" textLength="44.0654" x="506.0273" y="150.0874">missing</text></g><g class="message" data-participant-1="Qdrant" data-participant-2="PointUC"><polygon fill="#181818" points="495.5938,194.7397,485.5938,198.7397,495.5938,202.7397,491.5938,198.7397" style="stroke:#181818;stroke-width:1;"/><line style="stroke:#181818;stroke-width:1;stroke-dasharray:2,2;" x1="489.5938" x2="575.5264" y1="198.7397" y2="198.7397"/><text fill="#000000" font-family="Arial" font-size="13" lengthAdjust="spacing" textLength="54.1963" x="503.4619" y="179.0361">collection</text><text fill="#000000" font-family="Arial" font-size="13" lengthAdjust="spacing" textLength="32.519" x="514.3005" y="193.9849">ready</text></g><g class="message" data-participant-1="PointUC" data-participant-2="Indexing"><polygon fill="#181818" points="211.5234,223.6885,201.5234,227.6885,211.5234,231.6885,207.5234,227.6885" style="stroke:#181818;stroke-width:1;"/><line style="stroke:#181818;stroke-width:1;stroke-dasharray:2,2;" x1="205.5234" x2="478.5938" y1="227.6885" y2="227.6885"/><text fill="#000000" font-family="Arial" font-size="13" lengthAdjust="spacing" textLength="13.73" x="333.1936" y="222.9336">ok</text></g><path d="M129.2686,242.6885 L195.7031,242.6885 L195.7031,249.6372 L185.7031,259.6372 L123.2686,259.6372 L123.2686,248.6885 A6,6 0 0 1 129.2686,242.6885" fill="#EEEEEE" style="stroke:#000000;stroke-width:1.5;"/><rect fill="none" height="220.5386" rx="6" ry="6" style="stroke:#000000;stroke-width:1.5;" width="491.6577" x="123.2686" y="242.6885"/><text fill="#000000" font-family="Arial" font-size="13" font-weight="bold" lengthAdjust="spacing" textLength="27.4346" x="138.2686" y="255.8823">loop</text><text fill="#000000" font-family="Arial" font-size="11" font-weight="bold" lengthAdjust="spacing" textLength="141.8076" x="210.7031" y="255.0063">[each indexable document]</text><g class="message" data-participant-1="Indexing" data-participant-2="Embedding"><polygon fill="#181818" points="329.646,276.5859,339.646,280.5859,329.646,284.5859,333.646,280.5859" style="stroke:#181818;stroke-width:1;"/><line style="stroke:#181818;stroke-width:1;" x1="200.5234" x2="335.646" y1="280.5859" y2="280.5859"/><text fill="#000000" font-family="Arial" font-size="13" lengthAdjust="spacing" textLength="122.1226" x="210.0234" y="275.8311">Generate(clean_text)</text></g><g class="message" data-participant-1="Embedding" data-participant-2="Indexing"><polygon fill="#181818" points="211.5234,305.5347,201.5234,309.5347,211.5234,313.5347,207.5234,309.5347" style="stroke:#181818;stroke-width:1;"/><line style="stroke:#181818;stroke-width:1;stroke-dasharray:2,2;" x1="205.5234" x2="345.646" y1="309.5347" y2="309.5347"/><text fill="#000000" font-family="Arial" font-size="13" lengthAdjust="spacing" textLength="35.4009" x="255.8843" y="304.7798">vector</text></g><g class="message" data-participant-1="Indexing" data-participant-2="PointUC"><polygon fill="#181818" points="462.5938,349.4321,472.5938,353.4321,462.5938,357.4321,466.5938,353.4321" style="stroke:#181818;stroke-width:1;"/><line style="stroke:#181818;stroke-width:1;" x1="200.5234" x2="468.5938" y1="353.4321" y2="353.4321"/><text fill="#000000" font-family="Arial" font-size="13" lengthAdjust="spacing" textLength="81.6372" x="296.74" y="333.7285">Upsert(project</text><text fill="#000000" font-family="Arial" font-size="13" lengthAdjust="spacing" textLength="32.519" x="321.2991" y="348.6772">point)</text></g><g class="message" data-participant-1="PointUC" data-participant-2="Qdrant"><polygon fill="#181818" points="559.5264,378.3809,569.5264,382.3809,559.5264,386.3809,563.5264,382.3809" style="stroke:#181818;stroke-width:1;"/><line style="stroke:#181818;stroke-width:1;" x1="484.5938" x2="565.5264" y1="382.3809" y2="382.3809"/><text fill="#000000" font-family="Arial" font-size="13" lengthAdjust="spacing" textLength="36.1309" x="494.0938" y="377.626">upsert</text><text fill="#000000" font-family="Arial" font-size="13" lengthAdjust="spacing" textLength="3.6118" x="530.2246" y="377.626">&#160;</text><text fill="#000000" font-family="Arial" font-size="13" lengthAdjust="spacing" textLength="28.1899" x="533.8364" y="377.626">point</text></g><g class="message" data-participant-1="Qdrant" data-participant-2="PointUC"><polygon fill="#181818" points="495.5938,422.2783,485.5938,426.2783,495.5938,430.2783,491.5938,426.2783" style="stroke:#181818;stroke-width:1;"/><line style="stroke:#181818;stroke-width:1;stroke-dasharray:2,2;" x1="489.5938" x2="575.5264" y1="426.2783" y2="426.2783"/><text fill="#000000" font-family="Arial" font-size="13" lengthAdjust="spacing" textLength="28.1899" x="516.4651" y="406.5747">point</text><text fill="#000000" font-family="Arial" font-size="13" lengthAdjust="spacing" textLength="45.5381" x="507.791" y="421.5234">indexed</text></g><g class="message" data-participant-1="PointUC" data-participant-2="Indexing"><polygon fill="#181818" points="211.5234,451.2271,201.5234,455.2271,211.5234,459.2271,207.5234,455.2271" style="stroke:#181818;stroke-width:1;"/><line style="stroke:#181818;stroke-width:1;stroke-dasharray:2,2;" x1="205.5234" x2="478.5938" y1="455.2271" y2="455.2271"/><text fill="#000000" font-family="Arial" font-size="13" lengthAdjust="spacing" textLength="13.73" x="333.1936" y="450.4722">ok</text></g><path d="M129.2686,477.2271 L188.4795,477.2271 L188.4795,484.1758 L178.4795,494.1758 L123.2686,494.1758 L123.2686,483.2271 A6,6 0 0 1 129.2686,477.2271" fill="#EEEEEE" style="stroke:#000000;stroke-width:1.5;"/><rect fill="none" height="177.5898" rx="6" ry="6" style="stroke:#000000;stroke-width:1.5;" width="653.2778" x="123.2686" y="477.2271"/><text fill="#000000" font-family="Arial" font-size="13" font-weight="bold" lengthAdjust="spacing" textLength="20.2109" x="138.2686" y="490.4209">opt</text><text fill="#000000" font-family="Arial" font-size="11" font-weight="bold" lengthAdjust="spacing" textLength="67.5469" x="203.4795" y="489.5449">[indexed &gt; 0]</text><g class="message" data-participant-1="Indexing" data-participant-2="CacheRepo"><polygon fill="#181818" points="643.8398,511.1245,653.8398,515.1245,643.8398,519.1245,647.8398,515.1245" style="stroke:#181818;stroke-width:1;"/><line style="stroke:#181818;stroke-width:1;" x1="200.5234" x2="649.8398" y1="515.1245" y2="515.1245"/><text fill="#000000" font-family="Arial" font-size="13" lengthAdjust="spacing" textLength="199.4434" x="328.46" y="510.3696">InvalidateSearchCache(project_id)</text></g><g class="message" data-participant-1="CacheRepo" data-participant-2="Redis"><polygon fill="#181818" points="724.6499,569.9707,734.6499,573.9707,724.6499,577.9707,728.6499,573.9707" style="stroke:#181818;stroke-width:1;"/><line style="stroke:#181818;stroke-width:1;" x1="665.8398" x2="730.6499" y1="573.9707" y2="573.9707"/><text fill="#000000" font-family="Arial" font-size="13" lengthAdjust="spacing" textLength="35.4199" x="683.5349" y="539.3184">delete</text><text fill="#000000" font-family="Arial" font-size="13" lengthAdjust="spacing" textLength="46.2554" x="678.1172" y="554.2671">affected</text><text fill="#000000" font-family="Arial" font-size="13" lengthAdjust="spacing" textLength="26.73" x="687.8799" y="569.2158">keys</text></g><g class="message" data-participant-1="Redis" data-participant-2="CacheRepo"><polygon fill="#181818" points="676.8398,613.8682,666.8398,617.8682,676.8398,621.8682,672.8398,617.8682" style="stroke:#181818;stroke-width:1;"/><line style="stroke:#181818;stroke-width:1;stroke-dasharray:2,2;" x1="670.8398" x2="740.6499" y1="617.8682" y2="617.8682"/><text fill="#000000" font-family="Arial" font-size="13" lengthAdjust="spacing" textLength="34.6899" x="686.3999" y="598.1646">cache</text><text fill="#000000" font-family="Arial" font-size="13" lengthAdjust="spacing" textLength="42.6372" x="682.4263" y="613.1133">cleared</text></g><g class="message" data-participant-1="CacheRepo" data-participant-2="Indexing"><polygon fill="#181818" points="211.5234,642.8169,201.5234,646.8169,211.5234,650.8169,207.5234,646.8169" style="stroke:#181818;stroke-width:1;"/><line style="stroke:#181818;stroke-width:1;stroke-dasharray:2,2;" x1="205.5234" x2="659.8398" y1="646.8169" y2="646.8169"/><text fill="#000000" font-family="Arial" font-size="13" lengthAdjust="spacing" textLength="62.1563" x="399.6035" y="642.062">invalidated</text></g><g class="message" data-participant-1="Indexing" data-participant-2="Consumer"><polygon fill="#181818" points="75.1343,708.6631,65.1343,712.6631,75.1343,716.6631,71.1343,712.6631" style="stroke:#181818;stroke-width:1;"/><line style="stroke:#181818;stroke-width:1;stroke-dasharray:2,2;" x1="69.1343" x2="194.5234" y1="712.6631" y2="712.6631"/><text fill="#000000" font-family="Arial" font-size="13" lengthAdjust="spacing" textLength="31.8018" x="113.928" y="678.0107">batch</text><text fill="#000000" font-family="Arial" font-size="13" lengthAdjust="spacing" textLength="48.4263" x="105.6157" y="692.9595">indexing</text><text fill="#000000" font-family="Arial" font-size="13" lengthAdjust="spacing" textLength="31.7891" x="113.9343" y="707.9082">result</text></g><!--SRC=[TLHDRzim3BtxLn0zPOS0tIu3UYYG1jqm31ks5Zq7Z4J7McJ9a-GatR3_FlfBbepqaaZYUu_aasX_LAP1XpL8Ah7LuPCruJlM11kdK1S-nds5qfwLEK29sbCQeTyj6K7Vo7iyq4QhWm519f1BK8vyOusVK0-axNdZd3r3S6qgL-Dbn3ohFmGVRrCHsnefh3FauFs7ek3Je8Hgq0Iu-Ohb4M7BITgQt0sWZviS-CL8kd0dBvwswAb7JcSvyh7UavGBQ3pCiJ-iCY753GVR7FLJElxluyCo3szHL0HFrDYX_cxRxNBK4qdbUq2_AegfJrZVnqxWRbW-O13LYXrimxi2HL0d33Jt6-5C7IjcvYFhETfQhOaPrgmQPt_j_dQ_VB1Jyb-YDJKwqLbfw8s5XACE8g8Ig19gvNsNEogCLeoiTLPAGcKj-Lf8Ml9YuhnzUqonKvM5jhO1Fgz0TLZSQm9f1Vl7KW2f8V6gMUqpyQjZePNGX6ONwC9-0aJz-Lb0mbkKTE9Eh6D4KbXAl7uRBuqd5rQZ-z1qWIptr1l0jJjeU_f0IrcZUm1NVU_XWqKayueZyMtZC_nK7XbP5BQ9gd0Fjukcuulld-y9jPAiy4peHDN7LlCRp2oOHmKI4LRiHuJL96bY79ObipdtaLvzAZ2C4epuzQ8MqGzcT_LkwSP4JBBcTgZOnu8vrzmxC_lG9Pz6-WxstGGFddLH_fBoXpfzsXFnFm00]--></g></svg>