<svg xmlns="http://www.w3.org/2000/svg" xmlns:xlink="http://www.w3.org/1999/xlink" contentStyleType="text/css" data-diagram-type="SEQUENCE" height="1164px" preserveAspectRatio="none" style="width:629px;height:1164px;background:#FFFFFF;" version="1.1" viewBox="0 0 629 1164" width="629px" zoomAndPan="magnify"><title>Knowledge Indexing Phase 3 - Insight and Digest Indexing</title><defs/><g><text fill="#000000" font-family="Arial" font-size="14" font-weight="bold" lengthAdjust="spacing" textLength="388.1582" x="121.5518" y="28.1318">Knowledge Indexing Phase 3 - Insight and Digest Indexing</text><g><title>IndexingUseCase</title><rect fill="#FFFFFF" height="438.0259" style="stroke:#181818;stroke-width:1;" width="10" x="205.5234" y="128.0947"/></g><g><title>IndexingUseCase</title><rect fill="#FFFFFF" height="494.9233" style="stroke:#181818;stroke-width:1;" width="10" x="205.5234" y="609.7183"/></g><g><title>EmbeddingUseCase</title><rect fill="#FFFFFF" height="28.9487" style="stroke:#181818;stroke-width:1;" width="10" x="348.9814" y="171.9922"/></g><g><title>EmbeddingUseCase</title><rect fill="#FFFFFF" height="28.9487" style="stroke:#181818;stroke-width:1;" width="10" x="348.9814" y="710.5132"/></g><g><title>PointUseCase</title><rect fill="#FFFFFF" height="131.6924" style="stroke:#181818;stroke-width:1;" width="10" x="481.9292" y="229.8896"/></g><g><title>PointUseCase</title><rect fill="#FFFFFF" height="101.7949" style="stroke:#181818;stroke-width:1;" width="10" x="481.9292" y="405.4795"/></g><g><title>PointUseCase</title><rect fill="#FFFFFF" height="131.6924" style="stroke:#181818;stroke-width:1;" width="10" x="481.9292" y="768.4106"/></g><g><title>PointUseCase</title><rect fill="#FFFFFF" height="101.7949" style="stroke:#181818;stroke-width:1;" width="10" x="481.9292" y="944.0005"/></g><g><title>Qdrant</title><rect fill="#FFFFFF" height="43.8975" style="stroke:#181818;stroke-width:1;" width="10" x="578.8618" y="288.7358"/></g><g><title>Qdrant</title><rect fill="#FFFFFF" height="43.8975" style="stroke:#181818;stroke-width:1;" width="10" x="578.8618" y="434.4282"/></g><g><title>Qdrant</title><rect fill="#FFFFFF" height="43.8975" style="stroke:#181818;stroke-width:1;" width="10" x="578.8618" y="827.2568"/></g><g><title>Qdrant</title><rect fill="#FFFFFF" height="43.8975" style="stroke:#181818;stroke-width:1;" width="10" x="578.8618" y="972.9492"/></g><rect fill="none" height="1022.4443" rx="6" ry="6" style="stroke:#000000;stroke-width:1.5;" width="612.2617" x="10" y="90.1973"/><g><title>Kafka Consumer</title><rect fill="#000000" fill-opacity="0.00000" height="1056.4443" width="8" x="75.1343" y="73.1973"/><line style="stroke:#181818;stroke-width:0.5;stroke-dasharray:5,5;" x1="79" x2="79" y1="73.1973" y2="1129.6416"/></g><g><title>IndexingUseCase</title><rect fill="#000000" fill-opacity="0.00000" height="1056.4443" width="8" x="206.5234" y="73.1973"/><line style="stroke:#181818;stroke-width:0.5;stroke-dasharray:5,5;" x1="210.2686" x2="210.2686" y1="73.1973" y2="1129.6416"/></g><g><title>EmbeddingUseCase</title><rect fill="#000000" fill-opacity="0.00000" height="1056.4443" width="8" x="349.9814" y="73.1973"/><line style="stroke:#181818;stroke-width:0.5;stroke-dasharray:5,5;" x1="353.7783" x2="353.7783" y1="73.1973" y2="1129.6416"/></g><g><title>PointUseCase</title><rect fill="#000000" fill-opacity="0.00000" height="1056.4443" width="8" x="482.9292" y="73.1973"/><line style="stroke:#181818;stroke-width:0.5;stroke-dasharray:5,5;" x1="486.1846" x2="486.1846" y1="73.1973" y2="1129.6416"/></g><g><title>Qdrant</title><rect fill="#000000" fill-opacity="0.00000" height="1056.4443" width="8" x="579.8618" y="73.1973"/><line style="stroke:#181818;stroke-width:0.5;stroke-dasharray:5,5;" x1="583.4619" x2="583.4619" y1="73.1973" y2="1129.6416"/></g><g class="participant participant-head" data-participant="Consumer"><rect fill="#E2E2F0" height="30.0986" rx="6" ry="6" style="stroke:#181818;stroke-width:0.5;" width="118.2686" x="20" y="42.0986"/><text fill="#000000" font-family="Arial" font-size="14" lengthAdjust="spacing" textLength="104.2686" x="27" y="62.2305">Kafka Consumer</text></g><g class="participant participant-tail" data-participant="Consumer"><rect fill="#E2E2F0" height="30.0986" rx="6" ry="6" style="stroke:#181818;stroke-width:0.5;" width="118.2686" x="20" y="1128.6416"/><text fill="#000000" font-family="Arial" font-size="14" lengthAdjust="spacing" textLength="104.2686" x="27" y="1148.7734">Kafka Consumer</text></g><g class="participant participant-head" data-participant="Indexing"><rect fill="#E2E2F0" height="30.0986" rx="6" ry="6" style="stroke:#181818;stroke-width:0.5;" width="124.5098" x="148.2686" y="42.0986"/><text fill="#000000" font-family="Arial" font-size="14" lengthAdjust="spacing" textLength="110.5098" x="155.2686" y="62.2305">IndexingUseCase</text></g><g class="participant participant-tail" data-participant="Indexing"><rect fill="#E2E2F0" height="30.0986" rx="6" ry="6" style="stroke:#181818;stroke-width:0.5;" width="124.5098" x="148.2686" y="1128.6416"/><text fill="#000000" font-family="Arial" font-size="14" lengthAdjust="spacing" textLength="110.5098" x="155.2686" y="1148.7734">IndexingUseCase</text></g><g class="participant participant-head" data-participant="Embedding"><rect fill="#E2E2F0" height="30.0986" rx="6" ry="6" style="stroke:#181818;stroke-width:0.5;" width="142.4063" x="282.7783" y="42.0986"/><text fill="#000000" font-family="Arial" font-size="14" lengthAdjust="spacing" textLength="128.4063" x="289.7783" y="62.2305">EmbeddingUseCase</text></g><g class="participant participant-tail" data-participant="Embedding"><rect fill="#E2E2F0" height="30.0986" rx="6" ry="6" style="stroke:#181818;stroke-width:0.5;" width="142.4063" x="282.7783" y="1128.6416"/><text fill="#000000" font-family="Arial" font-size="14" lengthAdjust="spacing" textLength="128.4063" x="289.7783" y="1148.7734">EmbeddingUseCase</text></g><g class="participant participant-head" data-participant="PointUC"><rect fill="#E2E2F0" height="30.0986" rx="6" ry="6" style="stroke:#181818;stroke-width:0.5;" width="103.4893" x="435.1846" y="42.0986"/><text fill="#000000" font-family="Arial" font-size="14" lengthAdjust="spacing" textLength="89.4893" x="442.1846" y="62.2305">PointUseCase</text></g><g class="participant participant-tail" data-participant="PointUC"><rect fill="#E2E2F0" height="30.0986" rx="6" ry="6" style="stroke:#181818;stroke-width:0.5;" width="103.4893" x="435.1846" y="1128.6416"/><text fill="#000000" font-family="Arial" font-size="14" lengthAdjust="spacing" textLength="89.4893" x="442.1846" y="1148.7734">PointUseCase</text></g><g class="participant participant-head" data-participant="Qdrant"><rect fill="#E2E2F0" height="30.0986" rx="6" ry="6" style="stroke:#181818;stroke-width:0.5;" width="56.7998" x="555.4619" y="42.0986"/><text fill="#000000" font-family="Arial" font-size="14" lengthAdjust="spacing" textLength="42.7998" x="562.4619" y="62.2305">Qdrant</text></g><g class="participant participant-tail" data-participant="Qdrant"><rect fill="#E2E2F0" height="30.0986" rx="6" ry="6" style="stroke:#181818;stroke-width:0.5;" width="56.7998" x="555.4619" y="1128.6416"/><text fill="#000000" font-family="Arial" font-size="14" lengthAdjust="spacing" textLength="42.7998" x="562.4619" y="1148.7734">Qdrant</text></g><g><title>IndexingUseCase</title><rect fill="#FFFFFF" height="438.0259" style="stroke:#181818;stroke-width:1;" width="10" x="205.5234" y="128.0947"/></g><g><title>IndexingUseCase</title><rect fill="#FFFFFF" height="494.9233" style="stroke:#181818;stroke-width:1;" width="10" x="205.5234" y="609.7183"/></g><g><title>EmbeddingUseCase</title><rect fill="#FFFFFF" height="28.9487" style="stroke:#181818;stroke-width:1;" width="10" x="348.9814" y="171.9922"/></g><g><title>EmbeddingUseCase</title><rect fill="#FFFFFF" height="28.9487" style="stroke:#181818;stroke-width:1;" width="10" x="348.9814" y="710.5132"/></g><g><title>PointUseCase</title><rect fill="#FFFFFF" height="131.6924" style="stroke:#181818;stroke-width:1;" width="10" x="481.9292" y="229.8896"/></g><g><title>PointUseCase</title><rect fill="#FFFFFF" height="101.7949" style="stroke:#181818;stroke-width:1;" width="10" x="481.9292" y="405.4795"/></g><g><title>PointUseCase</title><rect fill="#FFFFFF" height="131.6924" style="stroke:#181818;stroke-width:1;" width="10" x="481.9292" y="768.4106"/></g><g><title>PointUseCase</title><rect fill="#FFFFFF" height="101.7949" style="stroke:#181818;stroke-width:1;" width="10" x="481.9292" y="944.0005"/></g><g><title>Qdrant</title><rect fill="#FFFFFF" height="43.8975" style="stroke:#181818;stroke-width:1;" width="10" x="578.8618" y="288.7358"/></g><g><title>Qdrant</title><rect fill="#FFFFFF" height="43.8975" style="stroke:#181818;stroke-width:1;" width="10" x="578.8618" y="434.4282"/></g><g><title>Qdrant</title><rect fill="#FFFFFF" height="43.8975" style="stroke:#181818;stroke-width:1;" width="10" x="578.8618" y="827.2568"/></g><g><title>Qdrant</title><rect fill="#FFFFFF" height="43.8975" style="stroke:#181818;stroke-width:1;" width="10" x="578.8618" y="972.9492"/></g><path d="M16,90.1973 L70.1709,90.1973 L70.1709,97.146 L60.1709,107.146 L10,107.146 L10,96.1973 A6,6 0 0 1 16,90.1973" fill="#EEEEEE" style="stroke:#000000;stroke-width:1.5;"/><rect fill="none" height="1022.4443" rx="6" ry="6" style="stroke:#000000;stroke-width:1.5;" width="612.2617" x="10" y="90.1973"/><text fill="#000000" font-family="Arial" font-size="13" font-weight="bold" lengthAdjust="spacing" textLength="15.1709" x="25" y="103.3911">alt</text><text fill="#000000" font-family="Arial" font-size="11" font-weight="bold" lengthAdjust="spacing" textLength="104.4946" x="85.1709" y="102.5151">[insights.published]</text><g class="message" data-participant-1="Consumer" data-participant-2="Indexing"><polygon fill="#181818" points="193.5234,124.0947,203.5234,128.0947,193.5234,132.0947,197.5234,128.0947" style="stroke:#181818;stroke-width:1;"/><line style="stroke:#181818;stroke-width:1;" x1="79.1343" x2="199.5234" y1="128.0947" y2="128.0947"/><text fill="#000000" font-family="Arial" font-size="13" lengthAdjust="spacing" textLength="106.9517" x="88.853" y="123.3398">IndexInsight(input)</text></g><g class="message" data-participant-1="Indexing" data-participant-2="Embedding"><polygon fill="#181818" points="336.9814,167.9922,346.9814,171.9922,336.9814,175.9922,340.9814,171.9922" style="stroke:#181818;stroke-width:1;"/><line style="stroke:#181818;stroke-width:1;" x1="215.5234" x2="342.9814" y1="171.9922" y2="171.9922"/><text fill="#000000" font-family="Arial" font-size="13" lengthAdjust="spacing" textLength="78.7617" x="242.8716" y="152.2886">Generate(title</text><text fill="#000000" font-family="Arial" font-size="13" lengthAdjust="spacing" textLength="7.5918" x="247.7625" y="167.2373">+</text><text fill="#000000" font-family="Arial" font-size="13" lengthAdjust="spacing" textLength="3.6118" x="255.3542" y="167.2373">&#160;</text><text fill="#000000" font-family="Arial" font-size="13" lengthAdjust="spacing" textLength="57.7764" x="258.9661" y="167.2373">summary)</text></g><g class="message" data-participant-1="Embedding" data-participant-2="Indexing"><polygon fill="#181818" points="226.5234,196.9409,216.5234,200.9409,226.5234,204.9409,222.5234,200.9409" style="stroke:#181818;stroke-width:1;"/><line style="stroke:#181818;stroke-width:1;stroke-dasharray:2,2;" x1="220.5234" x2="352.9814" y1="200.9409" y2="200.9409"/><text fill="#000000" font-family="Arial" font-size="13" lengthAdjust="spacing" textLength="35.4009" x="267.052" y="196.186">vector</text></g><g class="message" data-participant-1="Indexing" data-participant-2="PointUC"><polygon fill="#181818" points="469.9292,225.8896,479.9292,229.8896,469.9292,233.8896,473.9292,229.8896" style="stroke:#181818;stroke-width:1;"/><line style="stroke:#181818;stroke-width:1;" x1="215.5234" x2="475.9292" y1="229.8896" y2="229.8896"/><text fill="#000000" font-family="Arial" font-size="13" lengthAdjust="spacing" textLength="194.3589" x="251.5469" y="225.1348">EnsureCollection(macro_insights)</text></g><g class="message" data-participant-1="PointUC" data-participant-2="Qdrant"><polygon fill="#181818" points="566.8618,284.7358,576.8618,288.7358,566.8618,292.7358,570.8618,288.7358" style="stroke:#181818;stroke-width:1;"/><line style="stroke:#181818;stroke-width:1;" x1="491.9292" x2="572.8618" y1="288.7358" y2="288.7358"/><text fill="#000000" font-family="Arial" font-size="13" lengthAdjust="spacing" textLength="36.1309" x="517.3301" y="254.0835">create</text><text fill="#000000" font-family="Arial" font-size="13" lengthAdjust="spacing" textLength="54.1963" x="503.2415" y="269.0322">collection</text><text fill="#000000" font-family="Arial" font-size="13" lengthAdjust="spacing" textLength="3.6118" x="557.4377" y="269.0322">&#160;</text><text fill="#000000" font-family="Arial" font-size="13" lengthAdjust="spacing" textLength="6.5" x="561.0496" y="269.0322">if</text><text fill="#000000" font-family="Arial" font-size="13" lengthAdjust="spacing" textLength="44.0654" x="513.3628" y="283.981">missing</text></g><g class="message" data-participant-1="Qdrant" data-participant-2="PointUC"><polygon fill="#181818" points="502.9292,328.6333,492.9292,332.6333,502.9292,336.6333,498.9292,332.6333" style="stroke:#181818;stroke-width:1;"/><line style="stroke:#181818;stroke-width:1;stroke-dasharray:2,2;" x1="496.9292" x2="582.8618" y1="332.6333" y2="332.6333"/><text fill="#000000" font-family="Arial" font-size="13" lengthAdjust="spacing" textLength="54.1963" x="510.7974" y="312.9297">collection</text><text fill="#000000" font-family="Arial" font-size="13" lengthAdjust="spacing" textLength="32.519" x="521.636" y="327.8784">ready</text></g><g class="message" data-participant-1="PointUC" data-participant-2="Indexing"><polygon fill="#181818" points="226.5234,357.582,216.5234,361.582,226.5234,365.582,222.5234,361.582" style="stroke:#181818;stroke-width:1;"/><line style="stroke:#181818;stroke-width:1;stroke-dasharray:2,2;" x1="220.5234" x2="485.9292" y1="361.582" y2="361.582"/><text fill="#000000" font-family="Arial" font-size="13" lengthAdjust="spacing" textLength="13.73" x="344.3613" y="356.8271">ok</text></g><g class="message" data-participant-1="Indexing" data-participant-2="PointUC"><polygon fill="#181818" points="469.9292,401.4795,479.9292,405.4795,469.9292,409.4795,473.9292,405.4795" style="stroke:#181818;stroke-width:1;"/><line style="stroke:#181818;stroke-width:1;" x1="215.5234" x2="475.9292" y1="405.4795" y2="405.4795"/><text fill="#000000" font-family="Arial" font-size="13" lengthAdjust="spacing" textLength="80.1963" x="308.6282" y="385.7759">Upsert(insight</text><text fill="#000000" font-family="Arial" font-size="13" lengthAdjust="spacing" textLength="32.519" x="332.4668" y="400.7246">point)</text></g><g class="message" data-participant-1="PointUC" data-participant-2="Qdrant"><polygon fill="#181818" points="566.8618,430.4282,576.8618,434.4282,566.8618,438.4282,570.8618,434.4282" style="stroke:#181818;stroke-width:1;"/><line style="stroke:#181818;stroke-width:1;" x1="491.9292" x2="572.8618" y1="434.4282" y2="434.4282"/><text fill="#000000" font-family="Arial" font-size="13" lengthAdjust="spacing" textLength="36.1309" x="501.4292" y="429.6733">upsert</text><text fill="#000000" font-family="Arial" font-size="13" lengthAdjust="spacing" textLength="3.6118" x="537.5601" y="429.6733">&#160;</text><text fill="#000000" font-family="Arial" font-size="13" lengthAdjust="spacing" textLength="28.1899" x="541.1719" y="429.6733">point</text></g><g class="message" data-participant-1="Qdrant" data-participant-2="PointUC"><polygon fill="#181818" points="502.9292,474.3257,492.9292,478.3257,502.9292,482.3257,498.9292,478.3257" style="stroke:#181818;stroke-width:1;"/><line style="stroke:#181818;stroke-width:1;stroke-dasharray:2,2;" x1="496.9292" x2="582.8618" y1="478.3257" y2="478.3257"/><text fill="#000000" font-family="Arial" font-size="13" lengthAdjust="spacing" textLength="28.1899" x="523.8005" y="458.6221">point</text><text fill="#000000" font-family="Arial" font-size="13" lengthAdjust="spacing" textLength="45.5381" x="515.1265" y="473.5708">indexed</text></g><g class="message" data-participant-1="PointUC" data-participant-2="Indexing"><polygon fill="#181818" points="226.5234,503.2744,216.5234,507.2744,226.5234,511.2744,222.5234,507.2744" style="stroke:#181818;stroke-width:1;"/><line style="stroke:#181818;stroke-width:1;stroke-dasharray:2,2;" x1="220.5234" x2="485.9292" y1="507.2744" y2="507.2744"/><text fill="#000000" font-family="Arial" font-size="13" lengthAdjust="spacing" textLength="13.73" x="344.3613" y="502.5195">ok</text></g><g class="message" data-participant-1="Indexing" data-participant-2="Consumer"><polygon fill="#181818" points="90.1343,562.1206,80.1343,566.1206,90.1343,570.1206,86.1343,566.1206" style="stroke:#181818;stroke-width:1;"/><line style="stroke:#181818;stroke-width:1;stroke-dasharray:2,2;" x1="84.1343" x2="209.5234" y1="566.1206" y2="566.1206"/><text fill="#000000" font-family="Arial" font-size="13" lengthAdjust="spacing" textLength="37.5781" x="126.0398" y="531.4683">insight</text><text fill="#000000" font-family="Arial" font-size="13" lengthAdjust="spacing" textLength="48.4263" x="120.6157" y="546.417">indexing</text><text fill="#000000" font-family="Arial" font-size="13" lengthAdjust="spacing" textLength="31.7891" x="128.9343" y="561.3657">result</text></g><line style="stroke:#000000;stroke-width:1;stroke-dasharray:2,2;" x1="10" x2="622.2617" y1="575.1206" y2="575.1206"/><text fill="#000000" font-family="Arial" font-size="11" font-weight="bold" lengthAdjust="spacing" textLength="74.5562" x="15" y="585.4385">[report.digest]</text><g class="message" data-participant-1="Consumer" data-participant-2="Indexing"><polygon fill="#181818" points="193.5234,605.7183,203.5234,609.7183,193.5234,613.7183,197.5234,609.7183" style="stroke:#181818;stroke-width:1;"/><line style="stroke:#181818;stroke-width:1;" x1="79.1343" x2="199.5234" y1="609.7183" y2="609.7183"/><text fill="#000000" font-family="Arial" font-size="13" lengthAdjust="spacing" textLength="105.498" x="89.5798" y="604.9634">IndexDigest(input)</text></g><g class="message" data-participant-1="Indexing" data-participant-2="Indexing"><line style="stroke:#181818;stroke-width:1;" x1="215.5234" x2="257.5234" y1="653.6157" y2="653.6157"/><line style="stroke:#181818;stroke-width:1;" x1="257.5234" x2="257.5234" y1="653.6157" y2="666.6157"/><line style="stroke:#181818;stroke-width:1;" x1="216.5234" x2="257.5234" y1="666.6157" y2="666.6157"/><polygon fill="#181818" points="226.5234,662.6157,216.5234,666.6157,226.5234,670.6157,222.5234,666.6157" style="stroke:#181818;stroke-width:1;"/><text fill="#000000" font-family="Arial" font-size="13" lengthAdjust="spacing" textLength="27.4663" x="222.5234" y="633.9121">build</text><text fill="#000000" font-family="Arial" font-size="13" lengthAdjust="spacing" textLength="3.6118" x="249.9897" y="633.9121">&#160;</text><text fill="#000000" font-family="Arial" font-size="13" lengthAdjust="spacing" textLength="34.6899" x="253.6016" y="633.9121">digest</text><text fill="#000000" font-family="Arial" font-size="13" lengthAdjust="spacing" textLength="32.519" x="239.1479" y="648.8608">prose</text></g><g class="message" data-participant-1="Indexing" data-participant-2="Embedding"><polygon fill="#181818" points="336.9814,706.5132,346.9814,710.5132,336.9814,714.5132,340.9814,710.5132" style="stroke:#181818;stroke-width:1;"/><line style="stroke:#181818;stroke-width:1;" x1="215.5234" x2="342.9814" y1="710.5132" y2="710.5132"/><text fill="#000000" font-family="Arial" font-size="13" lengthAdjust="spacing" textLength="93.2217" x="235.6416" y="690.8096">Generate(digest</text><text fill="#000000" font-family="Arial" font-size="13" lengthAdjust="spacing" textLength="36.8481" x="263.8284" y="705.7583">prose)</text></g><g class="message" data-participant-1="Embedding" data-participant-2="Indexing"><polygon fill="#181818" points="226.5234,735.4619,216.5234,739.4619,226.5234,743.4619,222.5234,739.4619" style="stroke:#181818;stroke-width:1;"/><line style="stroke:#181818;stroke-width:1;stroke-dasharray:2,2;" x1="220.5234" x2="352.9814" y1="739.4619" y2="739.4619"/><text fill="#000000" font-family="Arial" font-size="13" lengthAdjust="spacing" textLength="35.4009" x="267.052" y="734.707">vector</text></g><g class="message" data-participant-1="Indexing" data-participant-2="PointUC"><polygon fill="#181818" points="469.9292,764.4106,479.9292,768.4106,469.9292,772.4106,473.9292,768.4106" style="stroke:#181818;stroke-width:1;"/><line style="stroke:#181818;stroke-width:1;" x1="215.5234" x2="475.9292" y1="768.4106" y2="768.4106"/><text fill="#000000" font-family="Arial" font-size="13" lengthAdjust="spacing" textLength="194.3589" x="251.5469" y="763.6558">EnsureCollection(macro_insights)</text></g><g class="message" data-participant-1="PointUC" data-participant-2="Qdrant"><polygon fill="#181818" points="566.8618,823.2568,576.8618,827.2568,566.8618,831.2568,570.8618,827.2568" style="stroke:#181818;stroke-width:1;"/><line style="stroke:#181818;stroke-width:1;" x1="491.9292" x2="572.8618" y1="827.2568" y2="827.2568"/><text fill="#000000" font-family="Arial" font-size="13" lengthAdjust="spacing" textLength="36.1309" x="517.3301" y="792.6045">create</text><text fill="#000000" font-family="Arial" font-size="13" lengthAdjust="spacing" textLength="54.1963" x="503.2415" y="807.5532">collection</text><text fill="#000000" font-family="Arial" font-size="13" lengthAdjust="spacing" textLength="3.6118" x="557.4377" y="807.5532">&#160;</text><text fill="#000000" font-family="Arial" font-size="13" lengthAdjust="spacing" textLength="6.5" x="561.0496" y="807.5532">if</text><text fill="#000000" font-family="Arial" font-size="13" lengthAdjust="spacing" textLength="44.0654" x="513.3628" y="822.502">missing</text></g><g class="message" data-participant-1="Qdrant" data-participant-2="PointUC"><polygon fill="#181818" points="502.9292,867.1543,492.9292,871.1543,502.9292,875.1543,498.9292,871.1543" style="stroke:#181818;stroke-width:1;"/><line style="stroke:#181818;stroke-width:1;stroke-dasharray:2,2;" x1="496.9292" x2="582.8618" y1="871.1543" y2="871.1543"/><text fill="#000000" font-family="Arial" font-size="13" lengthAdjust="spacing" textLength="54.1963" x="510.7974" y="851.4507">collection</text><text fill="#000000" font-family="Arial" font-size="13" lengthAdjust="spacing" textLength="32.519" x="521.636" y="866.3994">ready</text></g><g class="message" data-participant-1="PointUC" data-participant-2="Indexing"><polygon fill="#181818" points="226.5234,896.103,216.5234,900.103,226.5234,904.103,222.5234,900.103" style="stroke:#181818;stroke-width:1;"/><line style="stroke:#181818;stroke-width:1;stroke-dasharray:2,2;" x1="220.5234" x2="485.9292" y1="900.103" y2="900.103"/><text fill="#000000" font-family="Arial" font-size="13" lengthAdjust="spacing" textLength="13.73" x="344.3613" y="895.3481">ok</text></g><g class="message" data-participant-1="Indexing" data-participant-2="PointUC"><polygon fill="#181818" points="469.9292,940.0005,479.9292,944.0005,469.9292,948.0005,473.9292,944.0005" style="stroke:#181818;stroke-width:1;"/><line style="stroke:#181818;stroke-width:1;" x1="215.5234" x2="475.9292" y1="944.0005" y2="944.0005"/><text fill="#000000" font-family="Arial" font-size="13" lengthAdjust="spacing" textLength="77.3081" x="310.0723" y="924.2969">Upsert(digest</text><text fill="#000000" font-family="Arial" font-size="13" lengthAdjust="spacing" textLength="32.519" x="332.4668" y="939.2456">point)</text></g><g class="message" data-participant-1="PointUC" data-participant-2="Qdrant"><polygon fill="#181818" points="566.8618,968.9492,576.8618,972.9492,566.8618,976.9492,570.8618,972.9492" style="stroke:#181818;stroke-width:1;"/><line style="stroke:#181818;stroke-width:1;" x1="491.9292" x2="572.8618" y1="972.9492" y2="972.9492"/><text fill="#000000" font-family="Arial" font-size="13" lengthAdjust="spacing" textLength="36.1309" x="501.4292" y="968.1943">upsert</text><text fill="#000000" font-family="Arial" font-size="13" lengthAdjust="spacing" textLength="3.6118" x="537.5601" y="968.1943">&#160;</text><text fill="#000000" font-family="Arial" font-size="13" lengthAdjust="spacing" textLength="28.1899" x="541.1719" y="968.1943">point</text></g><g class="message" data-participant-1="Qdrant" data-participant-2="PointUC"><polygon fill="#181818" points="502.9292,1012.8467,492.9292,1016.8467,502.9292,1020.8467,498.9292,1016.8467" style="stroke:#181818;stroke-width:1;"/><line style="stroke:#181818;stroke-width:1;stroke-dasharray:2,2;" x1="496.9292" x2="582.8618" y1="1016.8467" y2="1016.8467"/><text fill="#000000" font-family="Arial" font-size="13" lengthAdjust="spacing" textLength="28.1899" x="523.8005" y="997.1431">point</text><text fill="#000000" font-family="Arial" font-size="13" lengthAdjust="spacing" textLength="45.5381" x="515.1265" y="1012.0918">indexed</text></g><g class="message" data-participant-1="PointUC" data-participant-2="Indexing"><polygon fill="#181818" points="226.5234,1041.7954,216.5234,1045.7954,226.5234,1049.7954,222.5234,1045.7954" style="stroke:#181818;stroke-width:1;"/><line style="stroke:#181818;stroke-width:1;stroke-dasharray:2,2;" x1="220.5234" x2="485.9292" y1="1045.7954" y2="1045.7954"/><text fill="#000000" font-family="Arial" font-size="13" lengthAdjust="spacing" textLength="13.73" x="344.3613" y="1041.0405">ok</text></g><g class="message" data-participant-1="Indexing" data-participant-2="Consumer"><polygon fill="#181818" points="90.1343,1100.6416,80.1343,1104.6416,90.1343,1108.6416,86.1343,1104.6416" style="stroke:#181818;stroke-width:1;"/><line style="stroke:#181818;stroke-width:1;stroke-dasharray:2,2;" x1="84.1343" x2="209.5234" y1="1104.6416" y2="1104.6416"/><text fill="#000000" font-family="Arial" font-size="13" lengthAdjust="spacing" textLength="34.6899" x="127.4839" y="1069.9893">digest</text><text fill="#000000" font-family="Arial" font-size="13" lengthAdjust="spacing" textLength="48.4263" x="120.6157" y="1084.938">indexing</text><text fill="#000000" font-family="Arial" font-size="13" lengthAdjust="spacing" textLength="31.7891" x="128.9343" y="1099.8867">result</text></g><!--SRC=[xLHDRnCn4BtlhnZr58HIyN50wW4fX89G1If2FQF9UhAnuhMNiRTf-VNChdST6rKYIAY7YbCsC-yzpppFEEXW2AwiEnXI3S4dg-XEsmQkT-W9NiDIGbutkm1e5RpN3VcGK9NVQziXOmkAjjYRyC7Py0LRWXLhD5dUxr2vmw2yHUCfpz2FdcnDdybxR6XbT6EX9Xk8CnIJxvprC-eT6NTOCRi31EvpkHRl9imt_PFWpOjSnFLMrOujCRnyLLKI3RhM7Te0PrUutIEivP2-9Ju3zEbF2Poxl_6q5fD6P7AaG5ws6rBgDsWAbjXhfst8SJ6mBb5V5Sllc8-VLOKcW8vtvC-xVcEqtv6g85KFoxV7Uxs8dzEbBiIPFZmJCDP1ts8uJe344aa4KjMYy974GC4kmZWzpq6EQP7l2vrZcv2HbsKjjrG7nu9Gz20nhs3oGrYNqXVJsXaZTEtieiMQtVVPXAACsKL8V96ArebIpJI0wYG5UWkjzZuUdrGchs5cBejwChhegVkodyHD1PGUk7s9FrRySFStdISURYwkPJSa_gBbVgH7skajZd0PCobedAr_t9ymqhHUpDCSZnloilpojfGoQKv9dXD1T8x3kHhVfp_CVdp4JX_zZB_fjL4GJu6EdJna9wn9Zl-_8u-u8xFnJsz5fivEt12hVW40]--></g></svg>