<svg xmlns="http://www.w3.org/2000/svg" xmlns:xlink="http://www.w3.org/1999/xlink" contentStyleType="text/css" data-diagram-type="SEQUENCE" height="1344px" preserveAspectRatio="none" style="width:855px;height:1344px;background:#FFFFFF;" version="1.1" viewBox="0 0 855 1344" width="855px" zoomAndPan="magnify"><title>Crisis Configuration Flow</title><defs/><g><text fill="#000000" font-family="Arial" font-size="14" font-weight="bold" lengthAdjust="spacing" textLength="170.3311" x="343.6292" y="28.1318">Crisis Configuration Flow</text><g><title>Crisis Handler</title><rect fill="#FFFFFF" height="1075.0933" style="stroke:#181818;stroke-width:1;" width="10" x="196.2808" y="179.0435"/></g><g><title>Crisis UseCase</title><rect fill="#FFFFFF" height="586.3672" style="stroke:#181818;stroke-width:1;" width="10" x="346.5952" y="273.8896"/></g><g><title>Crisis UseCase</title><rect fill="#FFFFFF" height="262.436" style="stroke:#181818;stroke-width:1;" width="10" x="346.5952" y="947.752"/></g><g><title>Project UseCase</title><rect fill="#FFFFFF" height="131.6924" style="stroke:#181818;stroke-width:1;" width="10" x="473.8569" y="302.8384"/></g><g><title>Crisis Repo</title><rect fill="#FFFFFF" height="367.8286" style="stroke:#181818;stroke-width:1;" width="10" x="586.5532" y="463.4795"/></g><g><title>Crisis Repo</title><rect fill="#FFFFFF" height="204.5386" style="stroke:#181818;stroke-width:1;" width="10" x="586.5532" y="976.7007"/></g><g><title>PostgreSQL</title><rect fill="#FFFFFF" height="28.9487" style="stroke:#181818;stroke-width:1;" width="10" x="782.4585" y="361.6846"/></g><g><title>PostgreSQL</title><rect fill="#FFFFFF" height="43.8975" style="stroke:#181818;stroke-width:1;" width="10" x="782.4585" y="537.2744"/></g><g><title>PostgreSQL</title><rect fill="#FFFFFF" height="43.8975" style="stroke:#181818;stroke-width:1;" width="10" x="782.4585" y="649.0181"/></g><g><title>PostgreSQL</title><rect fill="#FFFFFF" height="43.8975" style="stroke:#181818;stroke-width:1;" width="10" x="782.4585" y="751.4619"/></g><g><title>PostgreSQL</title><rect fill="#FFFFFF" height="28.9487" style="stroke:#181818;stroke-width:1;" width="10" x="782.4585" y="1050.4956"/></g><g><title>PostgreSQL</title><rect fill="#FFFFFF" height="28.9487" style="stroke:#181818;stroke-width:1;" width="10" x="782.4585" y="1123.3418"/></g><rect fill="none" height="1053.0933" rx="6" ry="6" style="stroke:#000000;stroke-width:1.5;" width="838.5894" x="10" y="194.0435"/><rect fill="none" height="207.1875" rx="6" ry="6" style="stroke:#000000;stroke-width:1.5;" width="300.2119" x="538.3774" y="596.1719"/><g><title>UI</title><rect fill="#000000" fill-opacity="0.00000" height="1145.9395" width="8" x="29.5" y="118.1973"/><line style="stroke:#181818;stroke-width:0.5;stroke-dasharray:5,5;" x1="33" x2="33" y1="118.1973" y2="1264.1367"/></g><g><title>Crisis Handler</title><rect fill="#000000" fill-opacity="0.00000" height="1145.9395" width="8" x="197.2808" y="118.1973"/><line style="stroke:#181818;stroke-width:0.5;stroke-dasharray:5,5;" x1="200.3257" x2="200.3257" y1="118.1973" y2="1264.1367"/></g><g><title>Crisis UseCase</title><rect fill="#000000" fill-opacity="0.00000" height="1145.9395" width="8" x="347.5952" y="118.1973"/><line style="stroke:#181818;stroke-width:0.5;stroke-dasharray:5,5;" x1="351.3643" x2="351.3643" y1="118.1973" y2="1264.1367"/></g><g><title>Project UseCase</title><rect fill="#000000" fill-opacity="0.00000" height="1145.9395" width="8" x="474.8569" y="118.1973"/><line style="stroke:#181818;stroke-width:0.5;stroke-dasharray:5,5;" x1="478.3364" x2="478.3364" y1="118.1973" y2="1264.1367"/></g><g><title>Crisis Repo</title><rect fill="#000000" fill-opacity="0.00000" height="1145.9395" width="8" x="587.5532" y="118.1973"/><line style="stroke:#181818;stroke-width:0.5;stroke-dasharray:5,5;" x1="591.3774" x2="591.3774" y1="118.1973" y2="1264.1367"/></g><g><title>PostgreSQL</title><rect fill="#000000" fill-opacity="0.00000" height="1145.9395" width="8" x="783.4585" y="118.1973"/><line style="stroke:#181818;stroke-width:0.5;stroke-dasharray:5,5;" x1="787.3276" x2="787.3276" y1="118.1973" y2="1264.1367"/></g><g class="participant participant-head" data-participant="UI"><text fill="#000000" font-family="Arial" font-size="14" lengthAdjust="spacing" textLength="14" x="23.5" y="115.2305">UI</text><ellipse cx="33.5" cy="50.5986" fill="#E2E2F0" rx="8" ry="8" style="stroke:#181818;stroke-width:0.5;"/><path d="M33.5,58.5986 L33.5,85.5986 M20.5,66.5986 L46.5,66.5986 M33.5,85.5986 L20.5,100.5986 M33.5,85.5986 L46.5,100.5986" fill="none" style="stroke:#181818;stroke-width:0.5;"/></g><g class="participant participant-tail" data-participant="UI"><text fill="#000000" font-family="Arial" font-size="14" lengthAdjust="spacing" textLength="14" x="23.5" y="1276.2686">UI</text><ellipse cx="33.5" cy="1287.7354" fill="#E2E2F0" rx="8" ry="8" style="stroke:#181818;stroke-width:0.5;"/><path d="M33.5,1295.7354 L33.5,1322.7354 M20.5,1303.7354 L46.5,1303.7354 M33.5,1322.7354 L20.5,1337.7354 M33.5,1322.7354 L46.5,1337.7354" fill="none" style="stroke:#181818;stroke-width:0.5;"/></g><g class="participant participant-head" data-participant="CrisisHandler"><rect fill="#E2E2F0" height="30.0986" rx="6" ry="6" style="stroke:#181818;stroke-width:0.5;" width="101.9102" x="150.3257" y="87.0986"/><text fill="#000000" font-family="Arial" font-size="14" lengthAdjust="spacing" textLength="87.9102" x="157.3257" y="107.2305">Crisis Handler</text></g><g class="participant participant-tail" data-participant="CrisisHandler"><rect fill="#E2E2F0" height="30.0986" rx="6" ry="6" style="stroke:#181818;stroke-width:0.5;" width="101.9102" x="150.3257" y="1263.1367"/><text fill="#000000" font-family="Arial" font-size="14" lengthAdjust="spacing" textLength="87.9102" x="157.3257" y="1283.2686">Crisis Handler</text></g><g class="participant participant-head" data-participant="CrisisUC"><rect fill="#E2E2F0" height="30.0986" rx="6" ry="6" style="stroke:#181818;stroke-width:0.5;" width="110.4619" x="296.3643" y="87.0986"/><text fill="#000000" font-family="Arial" font-size="14" lengthAdjust="spacing" textLength="96.4619" x="303.3643" y="107.2305">Crisis UseCase</text></g><g class="participant participant-tail" data-participant="CrisisUC"><rect fill="#E2E2F0" height="30.0986" rx="6" ry="6" style="stroke:#181818;stroke-width:0.5;" width="110.4619" x="296.3643" y="1263.1367"/><text fill="#000000" font-family="Arial" font-size="14" lengthAdjust="spacing" textLength="96.4619" x="303.3643" y="1283.2686">Crisis UseCase</text></g><g class="participant participant-head" data-participant="ProjectUC"><rect fill="#E2E2F0" height="30.0986" rx="6" ry="6" style="stroke:#181818;stroke-width:0.5;" width="119.041" x="419.3364" y="87.0986"/><text fill="#000000" font-family="Arial" font-size="14" lengthAdjust="spacing" textLength="105.041" x="426.3364" y="107.2305">Project UseCase</text></g><g class="participant participant-tail" data-participant="ProjectUC"><rect fill="#E2E2F0" height="30.0986" rx="6" ry="6" style="stroke:#181818;stroke-width:0.5;" width="119.041" x="419.3364" y="1263.1367"/><text fill="#000000" font-family="Arial" font-size="14" lengthAdjust="spacing" textLength="105.041" x="426.3364" y="1283.2686">Project UseCase</text></g><g class="participant participant-head" data-participant="CrisisRepo"><rect fill="#E2E2F0" height="30.0986" rx="6" ry="6" style="stroke:#181818;stroke-width:0.5;" width="86.3516" x="548.3774" y="87.0986"/><text fill="#000000" font-family="Arial" font-size="14" lengthAdjust="spacing" textLength="72.3516" x="555.3774" y="107.2305">Crisis Repo</text></g><g class="participant participant-tail" data-participant="CrisisRepo"><rect fill="#E2E2F0" height="30.0986" rx="6" ry="6" style="stroke:#181818;stroke-width:0.5;" width="86.3516" x="548.3774" y="1263.1367"/><text fill="#000000" font-family="Arial" font-size="14" lengthAdjust="spacing" textLength="72.3516" x="555.3774" y="1283.2686">Crisis Repo</text></g><g class="participant participant-head" data-participant="PostgreSQL"><text fill="#000000" font-family="Arial" font-size="14" lengthAdjust="spacing" textLength="76.2617" x="746.3276" y="115.2305">PostgreSQL</text><path d="M769.4585,66.0986 C769.4585,56.0986 787.4585,56.0986 787.4585,56.0986 C787.4585,56.0986 805.4585,56.0986 805.4585,66.0986 L805.4585,92.0986 C805.4585,102.0986 787.4585,102.0986 787.4585,102.0986 C787.4585,102.0986 769.4585,102.0986 769.4585,92.0986 L769.4585,66.0986" fill="#E2E2F0" style="stroke:#181818;stroke-width:0.5;"/><path d="M769.4585,66.0986 C769.4585,76.0986 787.4585,76.0986 787.4585,76.0986 C787.4585,76.0986 805.4585,76.0986 805.4585,66.0986" fill="none" style="stroke:#181818;stroke-width:0.5;"/></g><g class="participant participant-tail" data-participant="PostgreSQL"><text fill="#000000" font-family="Arial" font-size="14" lengthAdjust="spacing" textLength="76.2617" x="746.3276" y="1276.2686">PostgreSQL</text><path d="M769.4585,1289.2354 C769.4585,1279.2354 787.4585,1279.2354 787.4585,1279.2354 C787.4585,1279.2354 805.4585,1279.2354 805.4585,1289.2354 L805.4585,1315.2354 C805.4585,1325.2354 787.4585,1325.2354 787.4585,1325.2354 C787.4585,1325.2354 769.4585,1325.2354 769.4585,1315.2354 L769.4585,1289.2354" fill="#E2E2F0" style="stroke:#181818;stroke-width:0.5;"/><path d="M769.4585,1289.2354 C769.4585,1299.2354 787.4585,1299.2354 787.4585,1299.2354 C787.4585,1299.2354 805.4585,1299.2354 805.4585,1289.2354" fill="none" style="stroke:#181818;stroke-width:0.5;"/></g><g><title>Crisis Handler</title><rect fill="#FFFFFF" height="1075.0933" style="stroke:#181818;stroke-width:1;" width="10" x="196.2808" y="179.0435"/></g><g><title>Crisis UseCase</title><rect fill="#FFFFFF" height="586.3672" style="stroke:#181818;stroke-width:1;" width="10" x="346.5952" y="273.8896"/></g><g><title>Crisis UseCase</title><rect fill="#FFFFFF" height="262.436" style="stroke:#181818;stroke-width:1;" width="10" x="346.5952" y="947.752"/></g><g><title>Project UseCase</title><rect fill="#FFFFFF" height="131.6924" style="stroke:#181818;stroke-width:1;" width="10" x="473.8569" y="302.8384"/></g><g><title>Crisis Repo</title><rect fill="#FFFFFF" height="367.8286" style="stroke:#181818;stroke-width:1;" width="10" x="586.5532" y="463.4795"/></g><g><title>Crisis Repo</title><rect fill="#FFFFFF" height="204.5386" style="stroke:#181818;stroke-width:1;" width="10" x="586.5532" y="976.7007"/></g><g><title>PostgreSQL</title><rect fill="#FFFFFF" height="28.9487" style="stroke:#181818;stroke-width:1;" width="10" x="782.4585" y="361.6846"/></g><g><title>PostgreSQL</title><rect fill="#FFFFFF" height="43.8975" style="stroke:#181818;stroke-width:1;" width="10" x="782.4585" y="537.2744"/></g><g><title>PostgreSQL</title><rect fill="#FFFFFF" height="43.8975" style="stroke:#181818;stroke-width:1;" width="10" x="782.4585" y="649.0181"/></g><g><title>PostgreSQL</title><rect fill="#FFFFFF" height="43.8975" style="stroke:#181818;stroke-width:1;" width="10" x="782.4585" y="751.4619"/></g><g><title>PostgreSQL</title><rect fill="#FFFFFF" height="28.9487" style="stroke:#181818;stroke-width:1;" width="10" x="782.4585" y="1050.4956"/></g><g><title>PostgreSQL</title><rect fill="#FFFFFF" height="28.9487" style="stroke:#181818;stroke-width:1;" width="10" x="782.4585" y="1123.3418"/></g><g class="message" data-participant-1="UI" data-participant-2="CrisisHandler"><polygon fill="#181818" points="184.2808,175.0435,194.2808,179.0435,184.2808,183.0435,188.2808,179.0435" style="stroke:#181818;stroke-width:1;"/><line style="stroke:#181818;stroke-width:1;" x1="33.5" x2="190.2808" y1="179.0435" y2="179.0435"/><text fill="#000000" font-family="Arial" font-size="13" lengthAdjust="spacing" textLength="26" x="94.3049" y="144.3911">PUT</text><text fill="#000000" font-family="Arial" font-size="13" lengthAdjust="spacing" textLength="3.6118" x="120.3049" y="144.3911">&#160;</text><text fill="#000000" font-family="Arial" font-size="13" lengthAdjust="spacing" textLength="11.5591" x="123.9167" y="144.3911">or</text><text fill="#000000" font-family="Arial" font-size="13" lengthAdjust="spacing" textLength="50.5718" x="89.6045" y="159.3398">DELETE</text><text fill="#000000" font-family="Arial" font-size="13" lengthAdjust="spacing" textLength="143.7808" x="43" y="174.2886">/projects/{id}/crisis-config</text></g><path d="M16,194.0435 L70.1709,194.0435 L70.1709,200.9922 L60.1709,210.9922 L10,210.9922 L10,200.0435 A6,6 0 0 1 16,194.0435" fill="#EEEEEE" style="stroke:#000000;stroke-width:1.5;"/><rect fill="none" height="1053.0933" rx="6" ry="6" style="stroke:#000000;stroke-width:1.5;" width="838.5894" x="10" y="194.0435"/><text fill="#000000" font-family="Arial" font-size="13" font-weight="bold" lengthAdjust="spacing" textLength="15.1709" x="25" y="207.2373">alt</text><text fill="#000000" font-family="Arial" font-size="11" font-weight="bold" lengthAdjust="spacing" textLength="76.9946" x="85.1709" y="206.3613">[upsert config]</text><g class="message" data-participant-1="CrisisHandler" data-participant-2="CrisisHandler"><line style="stroke:#181818;stroke-width:1;" x1="206.2808" x2="248.2808" y1="231.9409" y2="231.9409"/><line style="stroke:#181818;stroke-width:1;" x1="248.2808" x2="248.2808" y1="231.9409" y2="244.9409"/><line style="stroke:#181818;stroke-width:1;" x1="207.2808" x2="248.2808" y1="244.9409" y2="244.9409"/><polygon fill="#181818" points="217.2808,240.9409,207.2808,244.9409,217.2808,248.9409,213.2808,244.9409" style="stroke:#181818;stroke-width:1;"/><text fill="#000000" font-family="Arial" font-size="13" lengthAdjust="spacing" textLength="116.3145" x="213.2808" y="227.186">processUpsertReq()</text></g><g class="message" data-participant-1="CrisisHandler" data-participant-2="CrisisUC"><polygon fill="#181818" points="334.5952,269.8896,344.5952,273.8896,334.5952,277.8896,338.5952,273.8896" style="stroke:#181818;stroke-width:1;"/><line style="stroke:#181818;stroke-width:1;" x1="206.2808" x2="340.5952" y1="273.8896" y2="273.8896"/><text fill="#000000" font-family="Arial" font-size="13" lengthAdjust="spacing" textLength="75.1372" x="238.8694" y="269.1348">Upsert(input)</text></g><g class="message" data-participant-1="CrisisUC" data-participant-2="ProjectUC"><polygon fill="#181818" points="461.8569,298.8384,471.8569,302.8384,461.8569,306.8384,465.8569,302.8384" style="stroke:#181818;stroke-width:1;"/><line style="stroke:#181818;stroke-width:1;" x1="356.5952" x2="467.8569" y1="302.8384" y2="302.8384"/><text fill="#000000" font-family="Arial" font-size="13" lengthAdjust="spacing" textLength="98.2617" x="366.0952" y="298.0835">Detail(project_id)</text></g><g class="message" data-participant-1="ProjectUC" data-participant-2="PostgreSQL"><polygon fill="#181818" points="770.4585,357.6846,780.4585,361.6846,770.4585,365.6846,774.4585,361.6846" style="stroke:#181818;stroke-width:1;"/><line style="stroke:#181818;stroke-width:1;" x1="483.8569" x2="776.4585" y1="361.6846" y2="361.6846"/><text fill="#000000" font-family="Arial" font-size="13" lengthAdjust="spacing" textLength="50.5718" x="607.8718" y="327.0322">SELECT</text><text fill="#000000" font-family="Arial" font-size="13" lengthAdjust="spacing" textLength="39.019" x="604.9773" y="341.981">project</text><text fill="#000000" font-family="Arial" font-size="13" lengthAdjust="spacing" textLength="3.6118" x="643.9963" y="341.981">&#160;</text><text fill="#000000" font-family="Arial" font-size="13" lengthAdjust="spacing" textLength="13.73" x="647.6082" y="341.981">by</text><text fill="#000000" font-family="Arial" font-size="13" lengthAdjust="spacing" textLength="10.1182" x="628.0986" y="356.9297">id</text></g><g class="message" data-participant-1="PostgreSQL" data-participant-2="ProjectUC"><polygon fill="#181818" points="494.8569,386.6333,484.8569,390.6333,494.8569,394.6333,490.8569,390.6333" style="stroke:#181818;stroke-width:1;"/><line style="stroke:#181818;stroke-width:1;stroke-dasharray:2,2;" x1="488.8569" x2="786.4585" y1="390.6333" y2="390.6333"/><text fill="#000000" font-family="Arial" font-size="13" lengthAdjust="spacing" textLength="39.019" x="603.8687" y="385.8784">project</text><text fill="#000000" font-family="Arial" font-size="13" lengthAdjust="spacing" textLength="3.6118" x="642.8877" y="385.8784">&#160;</text><text fill="#000000" font-family="Arial" font-size="13" lengthAdjust="spacing" textLength="20.9473" x="646.4995" y="385.8784">row</text></g><g class="message" data-participant-1="ProjectUC" data-participant-2="CrisisUC"><polygon fill="#181818" points="367.5952,430.5308,357.5952,434.5308,367.5952,438.5308,363.5952,434.5308" style="stroke:#181818;stroke-width:1;"/><line style="stroke:#181818;stroke-width:1;stroke-dasharray:2,2;" x1="361.5952" x2="477.8569" y1="434.5308" y2="434.5308"/><text fill="#000000" font-family="Arial" font-size="13" lengthAdjust="spacing" textLength="39.019" x="398.2166" y="414.8271">project</text><text fill="#000000" font-family="Arial" font-size="13" lengthAdjust="spacing" textLength="33.23" x="401.1111" y="429.7759">exists</text></g><g class="message" data-participant-1="CrisisUC" data-participant-2="CrisisRepo"><polygon fill="#181818" points="574.5532,459.4795,584.5532,463.4795,574.5532,467.4795,578.5532,463.4795" style="stroke:#181818;stroke-width:1;"/><line style="stroke:#181818;stroke-width:1;" x1="356.5952" x2="580.5532" y1="463.4795" y2="463.4795"/><text fill="#000000" font-family="Arial" font-size="13" lengthAdjust="spacing" textLength="130.0381" x="406.5552" y="458.7246">Upsert(UpsertOptions)</text></g><g class="message" data-participant-1="CrisisRepo" data-participant-2="PostgreSQL"><polygon fill="#181818" points="770.4585,533.2744,780.4585,537.2744,770.4585,541.2744,774.4585,537.2744" style="stroke:#181818;stroke-width:1;"/><line style="stroke:#181818;stroke-width:1;" x1="596.5532" x2="776.4585" y1="537.2744" y2="537.2744"/><text fill="#000000" font-family="Arial" font-size="13" lengthAdjust="spacing" textLength="50.5718" x="664.22" y="487.6733">SELECT</text><text fill="#000000" font-family="Arial" font-size="13" lengthAdjust="spacing" textLength="29.6055" x="655.5522" y="502.6221">crisis</text><text fill="#000000" font-family="Arial" font-size="13" lengthAdjust="spacing" textLength="3.6118" x="685.1577" y="502.6221">&#160;</text><text fill="#000000" font-family="Arial" font-size="13" lengthAdjust="spacing" textLength="34.6899" x="688.7695" y="502.6221">config</text><text fill="#000000" font-family="Arial" font-size="13" lengthAdjust="spacing" textLength="13.73" x="682.6409" y="517.5708">by</text><text fill="#000000" font-family="Arial" font-size="13" lengthAdjust="spacing" textLength="56.3672" x="661.3223" y="532.5195">project_id</text></g><g class="message" data-participant-1="PostgreSQL" data-participant-2="CrisisRepo"><polygon fill="#181818" points="607.5532,577.1719,597.5532,581.1719,607.5532,585.1719,603.5532,581.1719" style="stroke:#181818;stroke-width:1;"/><line style="stroke:#181818;stroke-width:1;stroke-dasharray:2,2;" x1="601.5532" x2="786.4585" y1="581.1719" y2="581.1719"/><text fill="#000000" font-family="Arial" font-size="13" lengthAdjust="spacing" textLength="20.9473" x="664.9109" y="561.4683">row</text><text fill="#000000" font-family="Arial" font-size="13" lengthAdjust="spacing" textLength="3.6118" x="685.8582" y="561.4683">&#160;</text><text fill="#000000" font-family="Arial" font-size="13" lengthAdjust="spacing" textLength="11.5591" x="689.47" y="561.4683">or</text><text fill="#000000" font-family="Arial" font-size="13" lengthAdjust="spacing" textLength="3.6118" x="701.0291" y="561.4683">&#160;</text><text fill="#000000" font-family="Arial" font-size="13" lengthAdjust="spacing" textLength="14.46" x="704.6409" y="561.4683">no</text><text fill="#000000" font-family="Arial" font-size="13" lengthAdjust="spacing" textLength="27.4473" x="678.2822" y="576.417">rows</text></g><path d="M544.3774,596.1719 L598.5483,596.1719 L598.5483,603.1206 L588.5483,613.1206 L538.3774,613.1206 L538.3774,602.1719 A6,6 0 0 1 544.3774,596.1719" fill="#EEEEEE" style="stroke:#000000;stroke-width:1.5;"/><rect fill="none" height="207.1875" rx="6" ry="6" style="stroke:#000000;stroke-width:1.5;" width="300.2119" x="538.3774" y="596.1719"/><text fill="#000000" font-family="Arial" font-size="13" font-weight="bold" lengthAdjust="spacing" textLength="15.1709" x="553.3774" y="609.3657">alt</text><text fill="#000000" font-family="Arial" font-size="11" font-weight="bold" lengthAdjust="spacing" textLength="84.9438" x="613.5483" y="608.4897">[existing config]</text><g class="message" data-participant-1="CrisisRepo" data-participant-2="PostgreSQL"><polygon fill="#181818" points="770.4585,645.0181,780.4585,649.0181,770.4585,653.0181,774.4585,649.0181" style="stroke:#181818;stroke-width:1;"/><line style="stroke:#181818;stroke-width:1;" x1="596.5532" x2="776.4585" y1="649.0181" y2="649.0181"/><text fill="#000000" font-family="Arial" font-size="13" lengthAdjust="spacing" textLength="52.73" x="663.1409" y="629.3145">UPDATE</text><text fill="#000000" font-family="Arial" font-size="13" lengthAdjust="spacing" textLength="166.9053" x="606.0532" y="644.2632">project.projects_crisis_config</text></g><g class="message" data-participant-1="PostgreSQL" data-participant-2="CrisisRepo"><polygon fill="#181818" points="607.5532,688.9155,597.5532,692.9155,607.5532,696.9155,603.5532,692.9155" style="stroke:#181818;stroke-width:1;"/><line style="stroke:#181818;stroke-width:1;stroke-dasharray:2,2;" x1="601.5532" x2="786.4585" y1="692.9155" y2="692.9155"/><text fill="#000000" font-family="Arial" font-size="13" lengthAdjust="spacing" textLength="46.9917" x="668.51" y="673.2119">updated</text><text fill="#000000" font-family="Arial" font-size="13" lengthAdjust="spacing" textLength="20.9473" x="681.5322" y="688.1606">row</text></g><line style="stroke:#000000;stroke-width:1;stroke-dasharray:2,2;" x1="538.3774" x2="838.5894" y1="701.9155" y2="701.9155"/><text fill="#000000" font-family="Arial" font-size="11" font-weight="bold" lengthAdjust="spacing" textLength="64.77" x="543.3774" y="712.2334">[new config]</text><g class="message" data-participant-1="CrisisRepo" data-participant-2="PostgreSQL"><polygon fill="#181818" points="770.4585,747.4619,780.4585,751.4619,770.4585,755.4619,774.4585,751.4619" style="stroke:#181818;stroke-width:1;"/><line style="stroke:#181818;stroke-width:1;" x1="596.5532" x2="776.4585" y1="751.4619" y2="751.4619"/><text fill="#000000" font-family="Arial" font-size="13" lengthAdjust="spacing" textLength="47.6709" x="665.6704" y="731.7583">INSERT</text><text fill="#000000" font-family="Arial" font-size="13" lengthAdjust="spacing" textLength="166.9053" x="606.0532" y="746.707">project.projects_crisis_config</text></g><g class="message" data-participant-1="PostgreSQL" data-participant-2="CrisisRepo"><polygon fill="#181818" points="607.5532,791.3594,597.5532,795.3594,607.5532,799.3594,603.5532,795.3594" style="stroke:#181818;stroke-width:1;"/><line style="stroke:#181818;stroke-width:1;stroke-dasharray:2,2;" x1="601.5532" x2="786.4585" y1="795.3594" y2="795.3594"/><text fill="#000000" font-family="Arial" font-size="13" lengthAdjust="spacing" textLength="46.249" x="668.8813" y="775.6558">inserted</text><text fill="#000000" font-family="Arial" font-size="13" lengthAdjust="spacing" textLength="20.9473" x="681.5322" y="790.6045">row</text></g><g class="message" data-participant-1="CrisisRepo" data-participant-2="CrisisUC"><polygon fill="#181818" points="367.5952,827.3081,357.5952,831.3081,367.5952,835.3081,363.5952,831.3081" style="stroke:#181818;stroke-width:1;"/><line style="stroke:#181818;stroke-width:1;stroke-dasharray:2,2;" x1="361.5952" x2="590.5532" y1="831.3081" y2="831.3081"/><text fill="#000000" font-family="Arial" font-size="13" lengthAdjust="spacing" textLength="70.0718" x="439.0383" y="826.5532">CrisisConfig</text></g><g class="message" data-participant-1="CrisisUC" data-participant-2="CrisisHandler"><polygon fill="#181818" points="217.2808,856.2568,207.2808,860.2568,217.2808,864.2568,213.2808,860.2568" style="stroke:#181818;stroke-width:1;"/><line style="stroke:#181818;stroke-width:1;stroke-dasharray:2,2;" x1="211.2808" x2="350.5952" y1="860.2568" y2="860.2568"/><text fill="#000000" font-family="Arial" font-size="13" lengthAdjust="spacing" textLength="77.3145" x="240.2808" y="855.502">UpsertOutput</text></g><g class="message" data-participant-1="CrisisHandler" data-participant-2="UI"><polygon fill="#181818" points="44.5,900.1543,34.5,904.1543,44.5,908.1543,40.5,904.1543" style="stroke:#181818;stroke-width:1;"/><line style="stroke:#181818;stroke-width:1;stroke-dasharray:2,2;" x1="38.5" x2="195.2808" y1="904.1543" y2="904.1543"/><text fill="#000000" font-family="Arial" font-size="13" lengthAdjust="spacing" textLength="21.6899" x="87.2463" y="884.4507">200</text><text fill="#000000" font-family="Arial" font-size="13" lengthAdjust="spacing" textLength="3.6118" x="108.9363" y="884.4507">&#160;</text><text fill="#000000" font-family="Arial" font-size="13" lengthAdjust="spacing" textLength="18.7827" x="112.5481" y="884.4507">OK</text><text fill="#000000" font-family="Arial" font-size="13" lengthAdjust="spacing" textLength="3.6118" x="131.3308" y="884.4507">&#160;</text><text fill="#000000" font-family="Arial" font-size="13" lengthAdjust="spacing" textLength="7.5918" x="134.9426" y="884.4507">+</text><text fill="#000000" font-family="Arial" font-size="13" lengthAdjust="spacing" textLength="29.6055" x="80.9368" y="899.3994">crisis</text><text fill="#000000" font-family="Arial" font-size="13" lengthAdjust="spacing" textLength="3.6118" x="110.5422" y="899.3994">&#160;</text><text fill="#000000" font-family="Arial" font-size="13" lengthAdjust="spacing" textLength="34.6899" x="114.1541" y="899.3994">config</text></g><line style="stroke:#000000;stroke-width:1;stroke-dasharray:2,2;" x1="10" x2="848.5894" y1="913.1543" y2="913.1543"/><text fill="#000000" font-family="Arial" font-size="11" font-weight="bold" lengthAdjust="spacing" textLength="75.1685" x="15" y="923.4722">[delete config]</text><g class="message" data-participant-1="CrisisHandler" data-participant-2="CrisisUC"><polygon fill="#181818" points="334.5952,943.752,344.5952,947.752,334.5952,951.752,338.5952,947.752" style="stroke:#181818;stroke-width:1;"/><line style="stroke:#181818;stroke-width:1;" x1="206.2808" x2="340.5952" y1="947.752" y2="947.752"/><text fill="#000000" font-family="Arial" font-size="13" lengthAdjust="spacing" textLength="102.6035" x="225.1362" y="942.9971">Delete(project_id)</text></g><g class="message" data-participant-1="CrisisUC" data-participant-2="CrisisRepo"><polygon fill="#181818" points="574.5532,972.7007,584.5532,976.7007,574.5532,980.7007,578.5532,976.7007" style="stroke:#181818;stroke-width:1;"/><line style="stroke:#181818;stroke-width:1;" x1="356.5952" x2="580.5532" y1="976.7007" y2="976.7007"/><text fill="#000000" font-family="Arial" font-size="13" lengthAdjust="spacing" textLength="102.6035" x="420.2725" y="971.9458">Delete(project_id)</text></g><g class="message" data-participant-1="CrisisRepo" data-participant-2="PostgreSQL"><polygon fill="#181818" points="770.4585,1046.4956,780.4585,1050.4956,770.4585,1054.4956,774.4585,1050.4956" style="stroke:#181818;stroke-width:1;"/><line style="stroke:#181818;stroke-width:1;" x1="596.5532" x2="776.4585" y1="1050.4956" y2="1050.4956"/><text fill="#000000" font-family="Arial" font-size="13" lengthAdjust="spacing" textLength="50.5718" x="664.22" y="1000.8945">SELECT</text><text fill="#000000" font-family="Arial" font-size="13" lengthAdjust="spacing" textLength="29.6055" x="655.5522" y="1015.8433">crisis</text><text fill="#000000" font-family="Arial" font-size="13" lengthAdjust="spacing" textLength="3.6118" x="685.1577" y="1015.8433">&#160;</text><text fill="#000000" font-family="Arial" font-size="13" lengthAdjust="spacing" textLength="34.6899" x="688.7695" y="1015.8433">config</text><text fill="#000000" font-family="Arial" font-size="13" lengthAdjust="spacing" textLength="13.73" x="682.6409" y="1030.792">by</text><text fill="#000000" font-family="Arial" font-size="13" lengthAdjust="spacing" textLength="56.3672" x="661.3223" y="1045.7407">project_id</text></g><g class="message" data-participant-1="PostgreSQL" data-participant-2="CrisisRepo"><polygon fill="#181818" points="607.5532,1075.4443,597.5532,1079.4443,607.5532,1083.4443,603.5532,1079.4443" style="stroke:#181818;stroke-width:1;"/><line style="stroke:#181818;stroke-width:1;stroke-dasharray:2,2;" x1="601.5532" x2="786.4585" y1="1079.4443" y2="1079.4443"/><text fill="#000000" font-family="Arial" font-size="13" lengthAdjust="spacing" textLength="34.6899" x="662.3813" y="1074.6895">config</text><text fill="#000000" font-family="Arial" font-size="13" lengthAdjust="spacing" textLength="3.6118" x="697.0713" y="1074.6895">&#160;</text><text fill="#000000" font-family="Arial" font-size="13" lengthAdjust="spacing" textLength="20.9473" x="700.6831" y="1074.6895">row</text></g><g class="message" data-participant-1="CrisisRepo" data-participant-2="PostgreSQL"><polygon fill="#181818" points="770.4585,1119.3418,780.4585,1123.3418,770.4585,1127.3418,774.4585,1123.3418" style="stroke:#181818;stroke-width:1;"/><line style="stroke:#181818;stroke-width:1;" x1="596.5532" x2="776.4585" y1="1123.3418" y2="1123.3418"/><text fill="#000000" font-family="Arial" font-size="13" lengthAdjust="spacing" textLength="50.5718" x="664.22" y="1103.6382">DELETE</text><text fill="#000000" font-family="Arial" font-size="13" lengthAdjust="spacing" textLength="166.9053" x="606.0532" y="1118.5869">project.projects_crisis_config</text></g><g class="message" data-participant-1="PostgreSQL" data-participant-2="CrisisRepo"><polygon fill="#181818" points="607.5532,1148.2905,597.5532,1152.2905,607.5532,1156.2905,603.5532,1152.2905" style="stroke:#181818;stroke-width:1;"/><line style="stroke:#181818;stroke-width:1;stroke-dasharray:2,2;" x1="601.5532" x2="786.4585" y1="1152.2905" y2="1152.2905"/><text fill="#000000" font-family="Arial" font-size="13" lengthAdjust="spacing" textLength="42.6499" x="670.6809" y="1147.5356">deleted</text></g><g class="message" data-participant-1="CrisisRepo" data-participant-2="CrisisUC"><polygon fill="#181818" points="367.5952,1177.2393,357.5952,1181.2393,367.5952,1185.2393,363.5952,1181.2393" style="stroke:#181818;stroke-width:1;"/><line style="stroke:#181818;stroke-width:1;stroke-dasharray:2,2;" x1="361.5952" x2="590.5532" y1="1181.2393" y2="1181.2393"/><text fill="#000000" font-family="Arial" font-size="13" lengthAdjust="spacing" textLength="13.73" x="467.2092" y="1176.4844">ok</text></g><g class="message" data-participant-1="CrisisUC" data-participant-2="CrisisHandler"><polygon fill="#181818" points="217.2808,1206.188,207.2808,1210.188,217.2808,1214.188,213.2808,1210.188" style="stroke:#181818;stroke-width:1;"/><line style="stroke:#181818;stroke-width:1;stroke-dasharray:2,2;" x1="211.2808" x2="350.5952" y1="1210.188" y2="1210.188"/><text fill="#000000" font-family="Arial" font-size="13" lengthAdjust="spacing" textLength="46.96" x="255.458" y="1205.4331">success</text></g><g class="message" data-participant-1="CrisisHandler" data-participant-2="UI"><polygon fill="#181818" points="44.5,1235.1367,34.5,1239.1367,44.5,1243.1367,40.5,1239.1367" style="stroke:#181818;stroke-width:1;"/><line style="stroke:#181818;stroke-width:1;stroke-dasharray:2,2;" x1="38.5" x2="195.2808" y1="1239.1367" y2="1239.1367"/><text fill="#000000" font-family="Arial" font-size="13" lengthAdjust="spacing" textLength="21.6899" x="92.8481" y="1234.3818">200</text><text fill="#000000" font-family="Arial" font-size="13" lengthAdjust="spacing" textLength="3.6118" x="114.5381" y="1234.3818">&#160;</text><text fill="#000000" font-family="Arial" font-size="13" lengthAdjust="spacing" textLength="18.7827" x="118.1499" y="1234.3818">OK</text></g><!--SRC=[nLLDRzf04BtxLumuKLKKcakb72fHGrJKDA60psZZ7UWsPjVPNPUqLVzxP-q5VyGcD5BL4s3Ul7txvitO2fiWX5eOOI1KSYEscMPMA0bNYTe7vbx8b6cs0uuRbYNsIabxmtO8OorOKldVV6LSxONSmeOb1gl_u4E6CiRFQ0pRuZWHMmanIekwWj9eKYND0VK1wVYnrceFLcTLkXrxz9Yb-8dmRbGbKPdaiT8IDRoz208MMwMX5yrwm0n4iu1WLiGYPT92pr_x8vCyGPr3YaV-IIiwCXWoWnLq5DQ1Sws-OMnhIF-i2VMS2qnLXT3z33Ypx8xAYKyPkzMu_79TK1r_1a4qWy7xkcYuX7cq0hhsP7ezNKrXc1Pdc-4lmNyFunmyYFDUEuF4TsQnSV609HQorA2su97GEARbN3eefiv4UTq27_glkgkYa0eAP9-wbrc7RQWXjuu4XAVQeurKF47BHDBtjriBNcCe3OTAbQCusaSSIx8eN87dWBiV87YDfVGQgfM3XfO30SMLW1mx24eTTHyEvVWeZ3KDXkD56bwKMIcTB3vkKpV0fiNHF5bGBUrmf4Y9xxtpfRJvN7zg-jmSKoIbSjzCfqUEE_4-k5LopDv9pT5yCgQWUubl3dbV5vTOLqZQXP-MdgKqYiXzRxkxYxJrGEB-JD6pc-LqiVfNeeLqGJX7jUH18n7rR1PVmuES2azBf6hHBXU3ZsLcQSxREF8fRImAeg7jTWaNen7SVeBNzKW6kTiS4oIIvpQKNnSEsxKkdkXecR5p6FxRW7cYqmleX2p_idWsZd-lh6WIFrDMlMdg_gMHCrditaKlIrkGJyMJGe_-0m00]--></g></svg>