<svg xmlns="http://www.w3.org/2000/svg" xmlns:xlink="http://www.w3.org/1999/xlink" contentStyleType="text/css" data-diagram-type="SEQUENCE" height="1192px" preserveAspectRatio="none" style="width:1122px;height:1192px;background:#FFFFFF;" version="1.1" viewBox="0 0 1122 1192" width="1122px" zoomAndPan="magnify"><defs/><g><g><title>Search Handler</title><rect fill="#FFFFFF" height="967.2983" style="stroke:#181818;stroke-width:1;" width="10" x="184.5059" y="126.9961"/></g><g><title>Search UseCase</title><rect fill="#FFFFFF" height="879.5034" style="stroke:#181818;stroke-width:1;" width="10" x="310.0571" y="170.8936"/></g><g><title>Cache Repo</title><rect fill="#FFFFFF" height="829.606" style="stroke:#181818;stroke-width:1;" width="10" x="553.5996" y="199.8423"/></g><g><title>Project Service Client</title><rect fill="#FFFFFF" height="43.8975" style="stroke:#181818;stroke-width:1;" width="10" x="683.4268" y="465.6787"/></g><g><title>EmbeddingUseCase</title><rect fill="#FFFFFF" height="43.8975" style="stroke:#181818;stroke-width:1;" width="10" x="838.5435" y="618.3711"/></g><g><title>PointUseCase</title><rect fill="#FFFFFF" height="131.6924" style="stroke:#181818;stroke-width:1;" width="10" x="971.4912" y="745.0635"/></g><g><title>Qdrant</title><rect fill="#FFFFFF" height="43.8975" style="stroke:#181818;stroke-width:1;" width="10" x="1061.6357" y="788.9609"/></g><rect fill="none" height="807.606" rx="6" ry="6" style="stroke:#000000;stroke-width:1.5;" width="879.8921" x="235.1436" y="214.8423"/><rect fill="none" height="220.2388" rx="6" ry="6" style="stroke:#000000;stroke-width:1.5;" width="527.1968" x="245.1436" y="355.2349"/><rect fill="none" height="207.4873" rx="6" ry="6" style="stroke:#000000;stroke-width:1.5;" width="859.8921" x="245.1436" y="677.2686"/><g><title>Client .. x.c th.c</title><rect fill="#000000" fill-opacity="0.00000" height="1031.1958" width="8" x="60.4341" y="81.0986"/><line style="stroke:#181818;stroke-width:0.5;stroke-dasharray:5,5;" x1="64" x2="64" y1="81.0986" y2="1112.2944"/></g><g><title>Search Handler</title><rect fill="#000000" fill-opacity="0.00000" height="1031.1958" width="8" x="185.5059" y="81.0986"/><line style="stroke:#181818;stroke-width:0.5;stroke-dasharray:5,5;" x1="188.8682" x2="188.8682" y1="81.0986" y2="1112.2944"/></g><g><title>Search UseCase</title><rect fill="#000000" fill-opacity="0.00000" height="1031.1958" width="8" x="311.0571" y="81.0986"/><line style="stroke:#181818;stroke-width:0.5;stroke-dasharray:5,5;" x1="314.1436" x2="314.1436" y1="81.0986" y2="1112.2944"/></g><g><title>Cache Repo</title><rect fill="#000000" fill-opacity="0.00000" height="1031.1958" width="8" x="554.5996" y="81.0986"/><line style="stroke:#181818;stroke-width:0.5;stroke-dasharray:5,5;" x1="557.686" x2="557.686" y1="81.0986" y2="1112.2944"/></g><g><title>Project Service Client</title><rect fill="#000000" fill-opacity="0.00000" height="1031.1958" width="8" x="684.4268" y="81.0986"/><line style="stroke:#181818;stroke-width:0.5;stroke-dasharray:5,5;" x1="687.5132" x2="687.5132" y1="81.0986" y2="1112.2944"/></g><g><title>EmbeddingUseCase</title><rect fill="#000000" fill-opacity="0.00000" height="1031.1958" width="8" x="839.5435" y="81.0986"/><line style="stroke:#181818;stroke-width:0.5;stroke-dasharray:5,5;" x1="843.3403" x2="843.3403" y1="81.0986" y2="1112.2944"/></g><g><title>PointUseCase</title><rect fill="#000000" fill-opacity="0.00000" height="1031.1958" width="8" x="972.4912" y="81.0986"/><line style="stroke:#181818;stroke-width:0.5;stroke-dasharray:5,5;" x1="975.7466" x2="975.7466" y1="81.0986" y2="1112.2944"/></g><g><title>Qdrant</title><rect fill="#000000" fill-opacity="0.00000" height="1031.1958" width="8" x="1062.6357" y="81.0986"/><line style="stroke:#181818;stroke-width:0.5;stroke-dasharray:5,5;" x1="1066.2358" x2="1066.2358" y1="81.0986" y2="1112.2944"/></g><g class="participant participant-head" data-participant="Client"><text fill="#000000" font-family="Arial" font-size="14" lengthAdjust="spacing" textLength="112.8682" x="5" y="78.1318">Client &#273;&#227; x&#225;c th&#7921;c</text><ellipse cx="64.4341" cy="13.5" fill="#E2E2F0" rx="8" ry="8" style="stroke:#181818;stroke-width:0.5;"/><path d="M64.4341,21.5 L64.4341,48.5 M51.4341,29.5 L77.4341,29.5 M64.4341,48.5 L51.4341,63.5 M64.4341,48.5 L77.4341,63.5" fill="none" style="stroke:#181818;stroke-width:0.5;"/></g><g class="participant participant-tail" data-participant="Client"><text fill="#000000" font-family="Arial" font-size="14" lengthAdjust="spacing" textLength="112.8682" x="5" y="1124.4263">Client &#273;&#227; x&#225;c th&#7921;c</text><ellipse cx="64.4341" cy="1135.8931" fill="#E2E2F0" rx="8" ry="8" style="stroke:#181818;stroke-width:0.5;"/><path d="M64.4341,1143.8931 L64.4341,1170.8931 M51.4341,1151.8931 L77.4341,1151.8931 M64.4341,1170.8931 L51.4341,1185.8931 M64.4341,1170.8931 L77.4341,1185.8931" fill="none" style="stroke:#181818;stroke-width:0.5;"/></g><g class="participant participant-head" data-participant="Handler"><rect fill="#E2E2F0" height="30.0986" rx="6" ry="6" style="stroke:#181818;stroke-width:0.5;" width="111.2754" x="133.8682" y="50"/><text fill="#000000" font-family="Arial" font-size="14" lengthAdjust="spacing" textLength="97.2754" x="140.8682" y="70.1318">Search Handler</text></g><g class="participant participant-tail" data-participant="Handler"><rect fill="#E2E2F0" height="30.0986" rx="6" ry="6" style="stroke:#181818;stroke-width:0.5;" width="111.2754" x="133.8682" y="1111.2944"/><text fill="#000000" font-family="Arial" font-size="14" lengthAdjust="spacing" textLength="97.2754" x="140.8682" y="1131.4263">Search Handler</text></g><g class="participant participant-head" data-participant="SearchUC"><rect fill="#E2E2F0" height="30.0986" rx="6" ry="6" style="stroke:#181818;stroke-width:0.5;" width="119.8271" x="255.1436" y="50"/><text fill="#000000" font-family="Arial" font-size="14" lengthAdjust="spacing" textLength="105.8271" x="262.1436" y="70.1318">Search UseCase</text></g><g class="participant participant-tail" data-participant="SearchUC"><rect fill="#E2E2F0" height="30.0986" rx="6" ry="6" style="stroke:#181818;stroke-width:0.5;" width="119.8271" x="255.1436" y="1111.2944"/><text fill="#000000" font-family="Arial" font-size="14" lengthAdjust="spacing" textLength="105.8271" x="262.1436" y="1131.4263">Search UseCase</text></g><g class="participant participant-head" data-participant="CacheRepo"><rect fill="#E2E2F0" height="30.0986" rx="6" ry="6" style="stroke:#181818;stroke-width:0.5;" width="91.8271" x="512.686" y="50"/><text fill="#000000" font-family="Arial" font-size="14" lengthAdjust="spacing" textLength="77.8271" x="519.686" y="70.1318">Cache Repo</text></g><g class="participant participant-tail" data-participant="CacheRepo"><rect fill="#E2E2F0" height="30.0986" rx="6" ry="6" style="stroke:#181818;stroke-width:0.5;" width="91.8271" x="512.686" y="1111.2944"/><text fill="#000000" font-family="Arial" font-size="14" lengthAdjust="spacing" textLength="77.8271" x="519.686" y="1131.4263">Cache Repo</text></g><g class="participant participant-head" data-participant="ProjectClient"><rect fill="#E2E2F0" height="30.0986" rx="6" ry="6" style="stroke:#181818;stroke-width:0.5;" width="147.8271" x="614.5132" y="50"/><text fill="#000000" font-family="Arial" font-size="14" lengthAdjust="spacing" textLength="133.8271" x="621.5132" y="70.1318">Project Service Client</text></g><g class="participant participant-tail" data-participant="ProjectClient"><rect fill="#E2E2F0" height="30.0986" rx="6" ry="6" style="stroke:#181818;stroke-width:0.5;" width="147.8271" x="614.5132" y="1111.2944"/><text fill="#000000" font-family="Arial" font-size="14" lengthAdjust="spacing" textLength="133.8271" x="621.5132" y="1131.4263">Project Service Client</text></g><g class="participant participant-head" data-participant="Embedding"><rect fill="#E2E2F0" height="30.0986" rx="6" ry="6" style="stroke:#181818;stroke-width:0.5;" width="142.4063" x="772.3403" y="50"/><text fill="#000000" font-family="Arial" font-size="14" lengthAdjust="spacing" textLength="128.4063" x="779.3403" y="70.1318">EmbeddingUseCase</text></g><g class="participant participant-tail" data-participant="Embedding"><rect fill="#E2E2F0" height="30.0986" rx="6" ry="6" style="stroke:#181818;stroke-width:0.5;" width="142.4063" x="772.3403" y="1111.2944"/><text fill="#000000" font-family="Arial" font-size="14" lengthAdjust="spacing" textLength="128.4063" x="779.3403" y="1131.4263">EmbeddingUseCase</text></g><g class="participant participant-head" data-participant="PointUC"><rect fill="#E2E2F0" height="30.0986" rx="6" ry="6" style="stroke:#181818;stroke-width:0.5;" width="103.4893" x="924.7466" y="50"/><text fill="#000000" font-family="Arial" font-size="14" lengthAdjust="spacing" textLength="89.4893" x="931.7466" y="70.1318">PointUseCase</text></g><g class="participant participant-tail" data-participant="PointUC"><rect fill="#E2E2F0" height="30.0986" rx="6" ry="6" style="stroke:#181818;stroke-width:0.5;" width="103.4893" x="924.7466" y="1111.2944"/><text fill="#000000" font-family="Arial" font-size="14" lengthAdjust="spacing" textLength="89.4893" x="931.7466" y="1131.4263">PointUseCase</text></g><g class="participant participant-head" data-participant="Qdrant"><rect fill="#E2E2F0" height="30.0986" rx="6" ry="6" style="stroke:#181818;stroke-width:0.5;" width="56.7998" x="1038.2358" y="50"/><text fill="#000000" font-family="Arial" font-size="14" lengthAdjust="spacing" textLength="42.7998" x="1045.2358" y="70.1318">Qdrant</text></g><g class="participant participant-tail" data-participant="Qdrant"><rect fill="#E2E2F0" height="30.0986" rx="6" ry="6" style="stroke:#181818;stroke-width:0.5;" width="56.7998" x="1038.2358" y="1111.2944"/><text fill="#000000" font-family="Arial" font-size="14" lengthAdjust="spacing" textLength="42.7998" x="1045.2358" y="1131.4263">Qdrant</text></g><g><title>Search Handler</title><rect fill="#FFFFFF" height="967.2983" style="stroke:#181818;stroke-width:1;" width="10" x="184.5059" y="126.9961"/></g><g><title>Search UseCase</title><rect fill="#FFFFFF" height="879.5034" style="stroke:#181818;stroke-width:1;" width="10" x="310.0571" y="170.8936"/></g><g><title>Cache Repo</title><rect fill="#FFFFFF" height="829.606" style="stroke:#181818;stroke-width:1;" width="10" x="553.5996" y="199.8423"/></g><g><title>Project Service Client</title><rect fill="#FFFFFF" height="43.8975" style="stroke:#181818;stroke-width:1;" width="10" x="683.4268" y="465.6787"/></g><g><title>EmbeddingUseCase</title><rect fill="#FFFFFF" height="43.8975" style="stroke:#181818;stroke-width:1;" width="10" x="838.5435" y="618.3711"/></g><g><title>PointUseCase</title><rect fill="#FFFFFF" height="131.6924" style="stroke:#181818;stroke-width:1;" width="10" x="971.4912" y="745.0635"/></g><g><title>Qdrant</title><rect fill="#FFFFFF" height="43.8975" style="stroke:#181818;stroke-width:1;" width="10" x="1061.6357" y="788.9609"/></g><g class="message" data-participant-1="Client" data-participant-2="Handler"><polygon fill="#181818" points="172.5059,122.9961,182.5059,126.9961,172.5059,130.9961,176.5059,126.9961" style="stroke:#181818;stroke-width:1;"/><line style="stroke:#181818;stroke-width:1;" x1="64.4341" x2="178.5059" y1="126.9961" y2="126.9961"/><text fill="#000000" font-family="Arial" font-size="13" lengthAdjust="spacing" textLength="35.3945" x="106.7727" y="107.2925">POST</text><text fill="#000000" font-family="Arial" font-size="13" lengthAdjust="spacing" textLength="42.6309" x="103.1545" y="122.2412">/search</text></g><g class="message" data-participant-1="Handler" data-participant-2="SearchUC"><polygon fill="#181818" points="298.0571,166.8936,308.0571,170.8936,298.0571,174.8936,302.0571,170.8936" style="stroke:#181818;stroke-width:1;"/><line style="stroke:#181818;stroke-width:1;" x1="194.5059" x2="304.0571" y1="170.8936" y2="170.8936"/><text fill="#000000" font-family="Arial" font-size="13" lengthAdjust="spacing" textLength="83.8208" x="210.3711" y="151.1899">Search(scope,</text><text fill="#000000" font-family="Arial" font-size="13" lengthAdjust="spacing" textLength="32.519" x="236.022" y="166.1387">input)</text></g><g class="message" data-participant-1="SearchUC" data-participant-2="CacheRepo"><polygon fill="#181818" points="541.5996,195.8423,551.5996,199.8423,541.5996,203.8423,545.5996,199.8423" style="stroke:#181818;stroke-width:1;"/><line style="stroke:#181818;stroke-width:1;" x1="320.0571" x2="547.5996" y1="199.8423" y2="199.8423"/><text fill="#000000" font-family="Arial" font-size="13" lengthAdjust="spacing" textLength="171.2407" x="351.208" y="195.0874">GetSearchResults(cacheKey)</text></g><path d="M241.1436,214.8423 L295.3145,214.8423 L295.3145,221.791 L285.3145,231.791 L235.1436,231.791 L235.1436,220.8423 A6,6 0 0 1 241.1436,214.8423" fill="#EEEEEE" style="stroke:#000000;stroke-width:1.5;"/><rect fill="none" height="807.606" rx="6" ry="6" style="stroke:#000000;stroke-width:1.5;" width="879.8921" x="235.1436" y="214.8423"/><text fill="#000000" font-family="Arial" font-size="13" font-weight="bold" lengthAdjust="spacing" textLength="15.1709" x="250.1436" y="228.0361">alt</text><text fill="#000000" font-family="Arial" font-size="11" font-weight="bold" lengthAdjust="spacing" textLength="93.5376" x="310.3145" y="227.1602">[search cache hit]</text><g class="message" data-participant-1="CacheRepo" data-participant-2="SearchUC"><polygon fill="#181818" points="331.0571,263.6885,321.0571,267.6885,331.0571,271.6885,327.0571,267.6885" style="stroke:#181818;stroke-width:1;"/><line style="stroke:#181818;stroke-width:1;stroke-dasharray:2,2;" x1="325.0571" x2="552.5996" y1="267.6885" y2="267.6885"/><text fill="#000000" font-family="Arial" font-size="13" lengthAdjust="spacing" textLength="41.9199" x="415.8684" y="247.9849">cached</text><text fill="#000000" font-family="Arial" font-size="13" lengthAdjust="spacing" textLength="36.1436" x="418.7566" y="262.9336">output</text></g><line style="stroke:#000000;stroke-width:1;stroke-dasharray:2,2;" x1="235.1436" x2="1115.0356" y1="276.6885" y2="276.6885"/><text fill="#000000" font-family="Arial" font-size="11" font-weight="bold" lengthAdjust="spacing" textLength="105.1714" x="240.1436" y="287.0063">[search cache miss]</text><g class="message" data-participant-1="CacheRepo" data-participant-2="SearchUC"><polygon fill="#181818" points="331.0571,307.2861,321.0571,311.2861,331.0571,315.2861,327.0571,311.2861" style="stroke:#181818;stroke-width:1;"/><line style="stroke:#181818;stroke-width:1;stroke-dasharray:2,2;" x1="325.0571" x2="552.5996" y1="311.2861" y2="311.2861"/><text fill="#000000" font-family="Arial" font-size="13" lengthAdjust="spacing" textLength="26.7173" x="423.4697" y="306.5313">miss</text></g><g class="message" data-participant-1="SearchUC" data-participant-2="CacheRepo"><polygon fill="#181818" points="541.5996,336.2349,551.5996,340.2349,541.5996,344.2349,545.5996,340.2349" style="stroke:#181818;stroke-width:1;"/><line style="stroke:#181818;stroke-width:1;" x1="320.0571" x2="547.5996" y1="340.2349" y2="340.2349"/><text fill="#000000" font-family="Arial" font-size="13" lengthAdjust="spacing" textLength="209.5425" x="332.0571" y="335.48">GetCampaignProjects(campaign_id)</text></g><path d="M251.1436,355.2349 L305.3145,355.2349 L305.3145,362.1836 L295.3145,372.1836 L245.1436,372.1836 L245.1436,361.2349 A6,6 0 0 1 251.1436,355.2349" fill="#EEEEEE" style="stroke:#000000;stroke-width:1.5;"/><rect fill="none" height="220.2388" rx="6" ry="6" style="stroke:#000000;stroke-width:1.5;" width="527.1968" x="245.1436" y="355.2349"/><text fill="#000000" font-family="Arial" font-size="13" font-weight="bold" lengthAdjust="spacing" textLength="15.1709" x="260.1436" y="368.4287">alt</text><text fill="#000000" font-family="Arial" font-size="11" font-weight="bold" lengthAdjust="spacing" textLength="149.7515" x="320.3145" y="367.5527">[campaign-project cache hit]</text><g class="message" data-participant-1="CacheRepo" data-participant-2="SearchUC"><polygon fill="#181818" points="331.0571,389.1323,321.0571,393.1323,331.0571,397.1323,327.0571,393.1323" style="stroke:#181818;stroke-width:1;"/><line style="stroke:#181818;stroke-width:1;stroke-dasharray:2,2;" x1="325.0571" x2="552.5996" y1="393.1323" y2="393.1323"/><text fill="#000000" font-family="Arial" font-size="13" lengthAdjust="spacing" textLength="62.8672" x="405.3948" y="388.3774">project_ids</text></g><line style="stroke:#000000;stroke-width:1;stroke-dasharray:2,2;" x1="245.1436" x2="772.3403" y1="402.1323" y2="402.1323"/><text fill="#000000" font-family="Arial" font-size="11" font-weight="bold" lengthAdjust="spacing" textLength="161.3853" x="250.1436" y="412.4502">[campaign-project cache miss]</text><g class="message" data-participant-1="CacheRepo" data-participant-2="SearchUC"><polygon fill="#181818" points="331.0571,432.73,321.0571,436.73,331.0571,440.73,327.0571,436.73" style="stroke:#181818;stroke-width:1;"/><line style="stroke:#181818;stroke-width:1;stroke-dasharray:2,2;" x1="325.0571" x2="552.5996" y1="436.73" y2="436.73"/><text fill="#000000" font-family="Arial" font-size="13" lengthAdjust="spacing" textLength="26.7173" x="423.4697" y="431.9751">miss</text></g><g class="message" data-participant-1="SearchUC" data-participant-2="ProjectClient"><polygon fill="#181818" points="671.4268,461.6787,681.4268,465.6787,671.4268,469.6787,675.4268,465.6787" style="stroke:#181818;stroke-width:1;"/><line style="stroke:#181818;stroke-width:1;" x1="320.0571" x2="677.4268" y1="465.6787" y2="465.6787"/><text fill="#000000" font-family="Arial" font-size="13" lengthAdjust="spacing" textLength="162.5825" x="420.4507" y="460.9238">GetCampaign(campaign_id)</text></g><g class="message" data-participant-1="ProjectClient" data-participant-2="SearchUC"><polygon fill="#181818" points="331.0571,505.5762,321.0571,509.5762,331.0571,513.5762,327.0571,509.5762" style="stroke:#181818;stroke-width:1;"/><line style="stroke:#181818;stroke-width:1;stroke-dasharray:2,2;" x1="325.0571" x2="687.4268" y1="509.5762" y2="509.5762"/><text fill="#000000" font-family="Arial" font-size="13" lengthAdjust="spacing" textLength="56.3672" x="470.4565" y="489.8726">campaign</text><text fill="#000000" font-family="Arial" font-size="13" lengthAdjust="spacing" textLength="3.6118" x="526.8237" y="489.8726">&#160;</text><text fill="#000000" font-family="Arial" font-size="13" lengthAdjust="spacing" textLength="7.5918" x="530.4355" y="489.8726">+</text><text fill="#000000" font-family="Arial" font-size="13" lengthAdjust="spacing" textLength="62.8672" x="472.8083" y="504.8213">project_ids</text></g><g class="message" data-participant-1="SearchUC" data-participant-2="CacheRepo"><polygon fill="#181818" points="541.5996,534.5249,551.5996,538.5249,541.5996,542.5249,545.5996,538.5249" style="stroke:#181818;stroke-width:1;"/><line style="stroke:#181818;stroke-width:1;" x1="320.0571" x2="547.5996" y1="538.5249" y2="538.5249"/><text fill="#000000" font-family="Arial" font-size="13" lengthAdjust="spacing" textLength="155.3398" x="359.1584" y="533.77">SaveCampaignProjects(...)</text></g><g class="message" data-participant-1="SearchUC" data-participant-2="CacheRepo"><polygon fill="#181818" points="541.5996,563.4736,551.5996,567.4736,541.5996,571.4736,545.5996,567.4736" style="stroke:#181818;stroke-width:1;"/><line style="stroke:#181818;stroke-width:1;" x1="320.0571" x2="547.5996" y1="567.4736" y2="567.4736"/><text fill="#000000" font-family="Arial" font-size="13" lengthAdjust="spacing" textLength="143.0571" x="365.2998" y="562.7188">SaveCampaignName(...)</text></g><g class="message" data-participant-1="SearchUC" data-participant-2="Embedding"><polygon fill="#181818" points="826.5435,614.3711,836.5435,618.3711,826.5435,622.3711,830.5435,618.3711" style="stroke:#181818;stroke-width:1;"/><line style="stroke:#181818;stroke-width:1;" x1="320.0571" x2="832.5435" y1="618.3711" y2="618.3711"/><text fill="#000000" font-family="Arial" font-size="13" lengthAdjust="spacing" textLength="108.3989" x="525.1008" y="598.6675">Generate(enriched</text><text fill="#000000" font-family="Arial" font-size="13" lengthAdjust="spacing" textLength="36.8481" x="560.8762" y="613.6162">query)</text></g><g class="message" data-participant-1="Embedding" data-participant-2="SearchUC"><polygon fill="#181818" points="331.0571,658.2686,321.0571,662.2686,331.0571,666.2686,327.0571,662.2686" style="stroke:#181818;stroke-width:1;"/><line style="stroke:#181818;stroke-width:1;stroke-dasharray:2,2;" x1="325.0571" x2="842.5435" y1="662.2686" y2="662.2686"/><text fill="#000000" font-family="Arial" font-size="13" lengthAdjust="spacing" textLength="32.519" x="565.5408" y="642.5649">query</text><text fill="#000000" font-family="Arial" font-size="13" lengthAdjust="spacing" textLength="35.4009" x="564.0999" y="657.5137">vector</text></g><path d="M251.1436,677.2686 L317.5781,677.2686 L317.5781,684.2173 L307.5781,694.2173 L245.1436,694.2173 L245.1436,683.2686 A6,6 0 0 1 251.1436,677.2686" fill="#EEEEEE" style="stroke:#000000;stroke-width:1.5;"/><rect fill="none" height="207.4873" rx="6" ry="6" style="stroke:#000000;stroke-width:1.5;" width="859.8921" x="245.1436" y="677.2686"/><text fill="#000000" font-family="Arial" font-size="13" font-weight="bold" lengthAdjust="spacing" textLength="27.4346" x="260.1436" y="690.4624">loop</text><text fill="#000000" font-family="Arial" font-size="11" font-weight="bold" lengthAdjust="spacing" textLength="126.5269" x="332.5781" y="689.5864">[each project collection]</text><g class="message" data-participant-1="SearchUC" data-participant-2="PointUC"><polygon fill="#181818" points="959.4912,741.0635,969.4912,745.0635,959.4912,749.0635,963.4912,745.0635" style="stroke:#181818;stroke-width:1;"/><line style="stroke:#181818;stroke-width:1;" x1="320.0571" x2="965.4912" y1="745.0635" y2="745.0635"/><text fill="#000000" font-family="Arial" font-size="13" lengthAdjust="spacing" textLength="103.3271" x="594.1106" y="710.4111">Search(collection,</text><text fill="#000000" font-family="Arial" font-size="13" lengthAdjust="spacing" textLength="39.0127" x="626.2678" y="725.3599">vector,</text><text fill="#000000" font-family="Arial" font-size="13" lengthAdjust="spacing" textLength="28.8882" x="631.3301" y="740.3086">filter)</text></g><g class="message" data-participant-1="PointUC" data-participant-2="Qdrant"><polygon fill="#181818" points="1049.6357,784.9609,1059.6357,788.9609,1049.6357,792.9609,1053.6357,788.9609" style="stroke:#181818;stroke-width:1;"/><line style="stroke:#181818;stroke-width:1;" x1="981.4912" x2="1055.6357" y1="788.9609" y2="788.9609"/><text fill="#000000" font-family="Arial" font-size="13" lengthAdjust="spacing" textLength="39.019" x="1002.054" y="769.2573">search</text><text fill="#000000" font-family="Arial" font-size="13" lengthAdjust="spacing" textLength="34.6899" x="1004.2185" y="784.2061">points</text></g><g class="message" data-participant-1="Qdrant" data-participant-2="PointUC"><polygon fill="#181818" points="992.4912,828.8584,982.4912,832.8584,992.4912,836.8584,988.4912,832.8584" style="stroke:#181818;stroke-width:1;"/><line style="stroke:#181818;stroke-width:1;stroke-dasharray:2,2;" x1="986.4912" x2="1065.6357" y1="832.8584" y2="832.8584"/><text fill="#000000" font-family="Arial" font-size="13" lengthAdjust="spacing" textLength="39.019" x="1004.554" y="813.1548">scored</text><text fill="#000000" font-family="Arial" font-size="13" lengthAdjust="spacing" textLength="38.2891" x="1004.9189" y="828.1035">results</text></g><g class="message" data-participant-1="PointUC" data-participant-2="SearchUC"><polygon fill="#181818" points="331.0571,872.7559,321.0571,876.7559,331.0571,880.7559,327.0571,876.7559" style="stroke:#181818;stroke-width:1;"/><line style="stroke:#181818;stroke-width:1;stroke-dasharray:2,2;" x1="325.0571" x2="975.4912" y1="876.7559" y2="876.7559"/><text fill="#000000" font-family="Arial" font-size="13" lengthAdjust="spacing" textLength="28.1899" x="634.1792" y="857.0522">point</text><text fill="#000000" font-family="Arial" font-size="13" lengthAdjust="spacing" textLength="38.2891" x="629.1296" y="872.001">results</text></g><g class="message" data-participant-1="SearchUC" data-participant-2="SearchUC"><line style="stroke:#181818;stroke-width:1;" x1="320.0571" x2="362.0571" y1="957.5508" y2="957.5508"/><line style="stroke:#181818;stroke-width:1;" x1="362.0571" x2="362.0571" y1="957.5508" y2="970.5508"/><line style="stroke:#181818;stroke-width:1;" x1="321.0571" x2="362.0571" y1="970.5508" y2="970.5508"/><polygon fill="#181818" points="331.0571,966.5508,321.0571,970.5508,331.0571,974.5508,327.0571,970.5508" style="stroke:#181818;stroke-width:1;"/><text fill="#000000" font-family="Arial" font-size="13" lengthAdjust="spacing" textLength="25.2827" x="348.7566" y="907.9497">sort,</text><text fill="#000000" font-family="Arial" font-size="13" lengthAdjust="spacing" textLength="43.3799" x="327.0571" y="922.8984">dedupe</text><text fill="#000000" font-family="Arial" font-size="13" lengthAdjust="spacing" textLength="3.6118" x="370.437" y="922.8984">&#160;</text><text fill="#000000" font-family="Arial" font-size="13" lengthAdjust="spacing" textLength="21.6899" x="374.0488" y="922.8984">and</text><text fill="#000000" font-family="Arial" font-size="13" lengthAdjust="spacing" textLength="58.5508" x="332.1226" y="937.8472">aggregate</text><text fill="#000000" font-family="Arial" font-size="13" lengthAdjust="spacing" textLength="38.2891" x="342.2534" y="952.7959">results</text></g><g class="message" data-participant-1="SearchUC" data-participant-2="CacheRepo"><polygon fill="#181818" points="541.5996,1010.4482,551.5996,1014.4482,541.5996,1018.4482,545.5996,1014.4482" style="stroke:#181818;stroke-width:1;"/><line style="stroke:#181818;stroke-width:1;" x1="320.0571" x2="547.5996" y1="1014.4482" y2="1014.4482"/><text fill="#000000" font-family="Arial" font-size="13" lengthAdjust="spacing" textLength="179.2007" x="347.228" y="994.7446">SaveSearchResults(cacheKey,</text><text fill="#000000" font-family="Arial" font-size="13" lengthAdjust="spacing" textLength="40.4727" x="416.592" y="1009.6934">output)</text></g><g class="message" data-participant-1="SearchUC" data-participant-2="Handler"><polygon fill="#181818" points="205.5059,1046.397,195.5059,1050.397,205.5059,1054.397,201.5059,1050.397" style="stroke:#181818;stroke-width:1;"/><line style="stroke:#181818;stroke-width:1;stroke-dasharray:2,2;" x1="199.5059" x2="314.0571" y1="1050.397" y2="1050.397"/><text fill="#000000" font-family="Arial" font-size="13" lengthAdjust="spacing" textLength="80.2153" x="214.6738" y="1045.6421">SearchOutput</text></g><g class="message" data-participant-1="Handler" data-participant-2="Client"><polygon fill="#181818" points="75.4341,1090.2944,65.4341,1094.2944,75.4341,1098.2944,71.4341,1094.2944" style="stroke:#181818;stroke-width:1;"/><line style="stroke:#181818;stroke-width:1;stroke-dasharray:2,2;" x1="69.4341" x2="188.5059" y1="1094.2944" y2="1094.2944"/><text fill="#000000" font-family="Arial" font-size="13" lengthAdjust="spacing" textLength="38.2891" x="102.2236" y="1074.5908">results</text><text fill="#000000" font-family="Arial" font-size="13" lengthAdjust="spacing" textLength="3.6118" x="140.5127" y="1074.5908">&#160;</text><text fill="#000000" font-family="Arial" font-size="13" lengthAdjust="spacing" textLength="7.5918" x="144.1245" y="1074.5908">+</text><text fill="#000000" font-family="Arial" font-size="13" lengthAdjust="spacing" textLength="75.1689" x="89.3855" y="1089.5396">aggregations</text></g><!--SRC=[ZLHBZXCn4DttAKfP9I8PFXia5aX3n4T2CCE4MIFZhYI6ZjtOxcI6Mt04n0bOinmkmaqeVxhRxdnWbKvLlQfN7p_pMSYQQRQ14fUigUmB9UrRja4uru9LXUdyPirAjHDo1KjM6Kmz-AL1oV4D6iDMU5w9bGIEqg9EeZIQMadJHZt3IktEjLOxiBf9qstOJOnPYAy8Zn-aILGZIwwqH0qF7nK5urPf6CqhGUNWzxUx7t1pzvs3NV_vzPEFW1a8leBmLd1HCueRBP1flePNJ9OLQXyMlm_6NHkSCuC-BfYkvtdWdF4rmXNMAjHqVzs_FEfIgq_8BUNGMy4nKlE8w3f4zldc8vOb3JwbqHa75PIGDeqBXW7RTwLciMxuB8eumTdJTX3m12ul5k_Xll4DkqcBBRFO3QgD8qWx4yA4px7XgiOfqDeQE-cntV0w1A6xOH7y9ThWka93nsZ6t3bVussIf1zkmIeBWH_uG5WBMq2ISPQpyq4bgCOIhmBfZ7FuHXXp2X_z9zZFsQPcTFzndww1OFWWoWb17UFMDAlZFQJSJrIFuPJ9aV3iZwIAFF_TITvBTeHvFyC-g9Ds7_dfEbUUPsy78H7S6pG4944daXuR-e9jSM_gPsTda_z6ERbh4IZBOh3XxgdvYP3o4BynIYtyBP7qwLk_sPPw_pGXmGwcu66mHQTVHTPv3oTxfLGDv5j3js1LLVGhbDnVNtZh_IliOwUnr1IMeY9T7gumgeHVNin22OCuKBxuI6hdCZaq2eYpnV1PHeMKGDEOT7ZFmpKdwAxkuEYT-HYyvtrWRqaIexIT4h1iQWJIBM2hbSQLIz5dFdKgXqLf6fLaKlZo2R5Ue_gicRO6yqKGeWJOAMGdhuvD-o0ZMNewRGEqMvFY8-ml]--></g></svg>