<svg xmlns="http://www.w3.org/2000/svg" xmlns:xlink="http://www.w3.org/1999/xlink" contentStyleType="text/css" data-diagram-type="SEQUENCE" height="1229px" preserveAspectRatio="none" style="width:1122px;height:1229px;background:#FFFFFF;" version="1.1" viewBox="0 0 1122 1229" width="1122px" zoomAndPan="magnify"><title>Contextual Search Flow</title><defs/><g><text fill="#000000" font-family="Arial" font-size="14" font-weight="bold" lengthAdjust="spacing" textLength="158.6963" x="482.6697" y="28.1318">Contextual Search Flow</text><g><title>Search Handler</title><rect fill="#FFFFFF" height="967.2983" style="stroke:#181818;stroke-width:1;" width="10" x="184.5059" y="164.0947"/></g><g><title>Search UseCase</title><rect fill="#FFFFFF" height="879.5034" style="stroke:#181818;stroke-width:1;" width="10" x="310.0571" y="207.9922"/></g><g><title>Cache Repo</title><rect fill="#FFFFFF" height="829.606" style="stroke:#181818;stroke-width:1;" width="10" x="553.5996" y="236.9409"/></g><g><title>Project Service Client</title><rect fill="#FFFFFF" height="43.8975" style="stroke:#181818;stroke-width:1;" width="10" x="683.4268" y="502.7773"/></g><g><title>EmbeddingUseCase</title><rect fill="#FFFFFF" height="43.8975" style="stroke:#181818;stroke-width:1;" width="10" x="838.5435" y="655.4697"/></g><g><title>PointUseCase</title><rect fill="#FFFFFF" height="131.6924" style="stroke:#181818;stroke-width:1;" width="10" x="971.4912" y="782.1621"/></g><g><title>Qdrant</title><rect fill="#FFFFFF" height="43.8975" style="stroke:#181818;stroke-width:1;" width="10" x="1061.6357" y="826.0596"/></g><rect fill="none" height="807.606" rx="6" ry="6" style="stroke:#000000;stroke-width:1.5;" width="879.8921" x="235.1436" y="251.9409"/><rect fill="none" height="220.2388" rx="6" ry="6" style="stroke:#000000;stroke-width:1.5;" width="527.1968" x="245.1436" y="392.3335"/><rect fill="none" height="207.4873" rx="6" ry="6" style="stroke:#000000;stroke-width:1.5;" width="859.8921" x="245.1436" y="714.3672"/><g><title>Client .. x.c th.c</title><rect fill="#000000" fill-opacity="0.00000" height="1031.1958" width="8" x="60.4341" y="118.1973"/><line style="stroke:#181818;stroke-width:0.5;stroke-dasharray:5,5;" x1="64" x2="64" y1="118.1973" y2="1149.3931"/></g><g><title>Search Handler</title><rect fill="#000000" fill-opacity="0.00000" height="1031.1958" width="8" x="185.5059" y="118.1973"/><line style="stroke:#181818;stroke-width:0.5;stroke-dasharray:5,5;" x1="188.8682" x2="188.8682" y1="118.1973" y2="1149.3931"/></g><g><title>Search UseCase</title><rect fill="#000000" fill-opacity="0.00000" height="1031.1958" width="8" x="311.0571" y="118.1973"/><line style="stroke:#181818;stroke-width:0.5;stroke-dasharray:5,5;" x1="314.1436" x2="314.1436" y1="118.1973" y2="1149.3931"/></g><g><title>Cache Repo</title><rect fill="#000000" fill-opacity="0.00000" height="1031.1958" width="8" x="554.5996" y="118.1973"/><line style="stroke:#181818;stroke-width:0.5;stroke-dasharray:5,5;" x1="557.686" x2="557.686" y1="118.1973" y2="1149.3931"/></g><g><title>Project Service Client</title><rect fill="#000000" fill-opacity="0.00000" height="1031.1958" width="8" x="684.4268" y="118.1973"/><line style="stroke:#181818;stroke-width:0.5;stroke-dasharray:5,5;" x1="687.5132" x2="687.5132" y1="118.1973" y2="1149.3931"/></g><g><title>EmbeddingUseCase</title><rect fill="#000000" fill-opacity="0.00000" height="1031.1958" width="8" x="839.5435" y="118.1973"/><line style="stroke:#181818;stroke-width:0.5;stroke-dasharray:5,5;" x1="843.3403" x2="843.3403" y1="118.1973" y2="1149.3931"/></g><g><title>PointUseCase</title><rect fill="#000000" fill-opacity="0.00000" height="1031.1958" width="8" x="972.4912" y="118.1973"/><line style="stroke:#181818;stroke-width:0.5;stroke-dasharray:5,5;" x1="975.7466" x2="975.7466" y1="118.1973" y2="1149.3931"/></g><g><title>Qdrant</title><rect fill="#000000" fill-opacity="0.00000" height="1031.1958" width="8" x="1062.6357" y="118.1973"/><line style="stroke:#181818;stroke-width:0.5;stroke-dasharray:5,5;" x1="1066.2358" x2="1066.2358" y1="118.1973" y2="1149.3931"/></g><g class="participant participant-head" data-participant="Client"><text fill="#000000" font-family="Arial" font-size="14" lengthAdjust="spacing" textLength="112.8682" x="5" y="115.2305">Client &#273;&#227; x&#225;c th&#7921;c</text><ellipse cx="64.4341" cy="50.5986" fill="#E2E2F0" rx="8" ry="8" style="stroke:#181818;stroke-width:0.5;"/><path d="M64.4341,58.5986 L64.4341,85.5986 M51.4341,66.5986 L77.4341,66.5986 M64.4341,85.5986 L51.4341,100.5986 M64.4341,85.5986 L77.4341,100.5986" fill="none" style="stroke:#181818;stroke-width:0.5;"/></g><g class="participant participant-tail" data-participant="Client"><text fill="#000000" font-family="Arial" font-size="14" lengthAdjust="spacing" textLength="112.8682" x="5" y="1161.5249">Client &#273;&#227; x&#225;c th&#7921;c</text><ellipse cx="64.4341" cy="1172.9917" fill="#E2E2F0" rx="8" ry="8" style="stroke:#181818;stroke-width:0.5;"/><path d="M64.4341,1180.9917 L64.4341,1207.9917 M51.4341,1188.9917 L77.4341,1188.9917 M64.4341,1207.9917 L51.4341,1222.9917 M64.4341,1207.9917 L77.4341,1222.9917" fill="none" style="stroke:#181818;stroke-width:0.5;"/></g><g class="participant participant-head" data-participant="Handler"><rect fill="#E2E2F0" height="30.0986" rx="6" ry="6" style="stroke:#181818;stroke-width:0.5;" width="111.2754" x="133.8682" y="87.0986"/><text fill="#000000" font-family="Arial" font-size="14" lengthAdjust="spacing" textLength="97.2754" x="140.8682" y="107.2305">Search Handler</text></g><g class="participant participant-tail" data-participant="Handler"><rect fill="#E2E2F0" height="30.0986" rx="6" ry="6" style="stroke:#181818;stroke-width:0.5;" width="111.2754" x="133.8682" y="1148.3931"/><text fill="#000000" font-family="Arial" font-size="14" lengthAdjust="spacing" textLength="97.2754" x="140.8682" y="1168.5249">Search Handler</text></g><g class="participant participant-head" data-participant="SearchUC"><rect fill="#E2E2F0" height="30.0986" rx="6" ry="6" style="stroke:#181818;stroke-width:0.5;" width="119.8271" x="255.1436" y="87.0986"/><text fill="#000000" font-family="Arial" font-size="14" lengthAdjust="spacing" textLength="105.8271" x="262.1436" y="107.2305">Search UseCase</text></g><g class="participant participant-tail" data-participant="SearchUC"><rect fill="#E2E2F0" height="30.0986" rx="6" ry="6" style="stroke:#181818;stroke-width:0.5;" width="119.8271" x="255.1436" y="1148.3931"/><text fill="#000000" font-family="Arial" font-size="14" lengthAdjust="spacing" textLength="105.8271" x="262.1436" y="1168.5249">Search UseCase</text></g><g class="participant participant-head" data-participant="CacheRepo"><rect fill="#E2E2F0" height="30.0986" rx="6" ry="6" style="stroke:#181818;stroke-width:0.5;" width="91.8271" x="512.686" y="87.0986"/><text fill="#000000" font-family="Arial" font-size="14" lengthAdjust="spacing" textLength="77.8271" x="519.686" y="107.2305">Cache Repo</text></g><g class="participant participant-tail" data-participant="CacheRepo"><rect fill="#E2E2F0" height="30.0986" rx="6" ry="6" style="stroke:#181818;stroke-width:0.5;" width="91.8271" x="512.686" y="1148.3931"/><text fill="#000000" font-family="Arial" font-size="14" lengthAdjust="spacing" textLength="77.8271" x="519.686" y="1168.5249">Cache Repo</text></g><g class="participant participant-head" data-participant="ProjectClient"><rect fill="#E2E2F0" height="30.0986" rx="6" ry="6" style="stroke:#181818;stroke-width:0.5;" width="147.8271" x="614.5132" y="87.0986"/><text fill="#000000" font-family="Arial" font-size="14" lengthAdjust="spacing" textLength="133.8271" x="621.5132" y="107.2305">Project Service Client</text></g><g class="participant participant-tail" data-participant="ProjectClient"><rect fill="#E2E2F0" height="30.0986" rx="6" ry="6" style="stroke:#181818;stroke-width:0.5;" width="147.8271" x="614.5132" y="1148.3931"/><text fill="#000000" font-family="Arial" font-size="14" lengthAdjust="spacing" textLength="133.8271" x="621.5132" y="1168.5249">Project Service Client</text></g><g class="participant participant-head" data-participant="Embedding"><rect fill="#E2E2F0" height="30.0986" rx="6" ry="6" style="stroke:#181818;stroke-width:0.5;" width="142.4063" x="772.3403" y="87.0986"/><text fill="#000000" font-family="Arial" font-size="14" lengthAdjust="spacing" textLength="128.4063" x="779.3403" y="107.2305">EmbeddingUseCase</text></g><g class="participant participant-tail" data-participant="Embedding"><rect fill="#E2E2F0" height="30.0986" rx="6" ry="6" style="stroke:#181818;stroke-width:0.5;" width="142.4063" x="772.3403" y="1148.3931"/><text fill="#000000" font-family="Arial" font-size="14" lengthAdjust="spacing" textLength="128.4063" x="779.3403" y="1168.5249">EmbeddingUseCase</text></g><g class="participant participant-head" data-participant="PointUC"><rect fill="#E2E2F0" height="30.0986" rx="6" ry="6" style="stroke:#181818;stroke-width:0.5;" width="103.4893" x="924.7466" y="87.0986"/><text fill="#000000" font-family="Arial" font-size="14" lengthAdjust="spacing" textLength="89.4893" x="931.7466" y="107.2305">PointUseCase</text></g><g class="participant participant-tail" data-participant="PointUC"><rect fill="#E2E2F0" height="30.0986" rx="6" ry="6" style="stroke:#181818;stroke-width:0.5;" width="103.4893" x="924.7466" y="1148.3931"/><text fill="#000000" font-family="Arial" font-size="14" lengthAdjust="spacing" textLength="89.4893" x="931.7466" y="1168.5249">PointUseCase</text></g><g class="participant participant-head" data-participant="Qdrant"><rect fill="#E2E2F0" height="30.0986" rx="6" ry="6" style="stroke:#181818;stroke-width:0.5;" width="56.7998" x="1038.2358" y="87.0986"/><text fill="#000000" font-family="Arial" font-size="14" lengthAdjust="spacing" textLength="42.7998" x="1045.2358" y="107.2305">Qdrant</text></g><g class="participant participant-tail" data-participant="Qdrant"><rect fill="#E2E2F0" height="30.0986" rx="6" ry="6" style="stroke:#181818;stroke-width:0.5;" width="56.7998" x="1038.2358" y="1148.3931"/><text fill="#000000" font-family="Arial" font-size="14" lengthAdjust="spacing" textLength="42.7998" x="1045.2358" y="1168.5249">Qdrant</text></g><g><title>Search Handler</title><rect fill="#FFFFFF" height="967.2983" style="stroke:#181818;stroke-width:1;" width="10" x="184.5059" y="164.0947"/></g><g><title>Search UseCase</title><rect fill="#FFFFFF" height="879.5034" style="stroke:#181818;stroke-width:1;" width="10" x="310.0571" y="207.9922"/></g><g><title>Cache Repo</title><rect fill="#FFFFFF" height="829.606" style="stroke:#181818;stroke-width:1;" width="10" x="553.5996" y="236.9409"/></g><g><title>Project Service Client</title><rect fill="#FFFFFF" height="43.8975" style="stroke:#181818;stroke-width:1;" width="10" x="683.4268" y="502.7773"/></g><g><title>EmbeddingUseCase</title><rect fill="#FFFFFF" height="43.8975" style="stroke:#181818;stroke-width:1;" width="10" x="838.5435" y="655.4697"/></g><g><title>PointUseCase</title><rect fill="#FFFFFF" height="131.6924" style="stroke:#181818;stroke-width:1;" width="10" x="971.4912" y="782.1621"/></g><g><title>Qdrant</title><rect fill="#FFFFFF" height="43.8975" style="stroke:#181818;stroke-width:1;" width="10" x="1061.6357" y="826.0596"/></g><g class="message" data-participant-1="Client" data-participant-2="Handler"><polygon fill="#181818" points="172.5059,160.0947,182.5059,164.0947,172.5059,168.0947,176.5059,164.0947" style="stroke:#181818;stroke-width:1;"/><line style="stroke:#181818;stroke-width:1;" x1="64.4341" x2="178.5059" y1="164.0947" y2="164.0947"/><text fill="#000000" font-family="Arial" font-size="13" lengthAdjust="spacing" textLength="35.3945" x="106.7727" y="144.3911">POST</text><text fill="#000000" font-family="Arial" font-size="13" lengthAdjust="spacing" textLength="42.6309" x="103.1545" y="159.3398">/search</text></g><g class="message" data-participant-1="Handler" data-participant-2="SearchUC"><polygon fill="#181818" points="298.0571,203.9922,308.0571,207.9922,298.0571,211.9922,302.0571,207.9922" style="stroke:#181818;stroke-width:1;"/><line style="stroke:#181818;stroke-width:1;" x1="194.5059" x2="304.0571" y1="207.9922" y2="207.9922"/><text fill="#000000" font-family="Arial" font-size="13" lengthAdjust="spacing" textLength="83.8208" x="210.3711" y="188.2886">Search(scope,</text><text fill="#000000" font-family="Arial" font-size="13" lengthAdjust="spacing" textLength="32.519" x="236.022" y="203.2373">input)</text></g><g class="message" data-participant-1="SearchUC" data-participant-2="CacheRepo"><polygon fill="#181818" points="541.5996,232.9409,551.5996,236.9409,541.5996,240.9409,545.5996,236.9409" style="stroke:#181818;stroke-width:1;"/><line style="stroke:#181818;stroke-width:1;" x1="320.0571" x2="547.5996" y1="236.9409" y2="236.9409"/><text fill="#000000" font-family="Arial" font-size="13" lengthAdjust="spacing" textLength="171.2407" x="351.208" y="232.186">GetSearchResults(cacheKey)</text></g><path d="M241.1436,251.9409 L295.3145,251.9409 L295.3145,258.8896 L285.3145,268.8896 L235.1436,268.8896 L235.1436,257.9409 A6,6 0 0 1 241.1436,251.9409" fill="#EEEEEE" style="stroke:#000000;stroke-width:1.5;"/><rect fill="none" height="807.606" rx="6" ry="6" style="stroke:#000000;stroke-width:1.5;" width="879.8921" x="235.1436" y="251.9409"/><text fill="#000000" font-family="Arial" font-size="13" font-weight="bold" lengthAdjust="spacing" textLength="15.1709" x="250.1436" y="265.1348">alt</text><text fill="#000000" font-family="Arial" font-size="11" font-weight="bold" lengthAdjust="spacing" textLength="93.5376" x="310.3145" y="264.2588">[search cache hit]</text><g class="message" data-participant-1="CacheRepo" data-participant-2="SearchUC"><polygon fill="#181818" points="331.0571,300.7871,321.0571,304.7871,331.0571,308.7871,327.0571,304.7871" style="stroke:#181818;stroke-width:1;"/><line style="stroke:#181818;stroke-width:1;stroke-dasharray:2,2;" x1="325.0571" x2="552.5996" y1="304.7871" y2="304.7871"/><text fill="#000000" font-family="Arial" font-size="13" lengthAdjust="spacing" textLength="41.9199" x="415.8684" y="285.0835">cached</text><text fill="#000000" font-family="Arial" font-size="13" lengthAdjust="spacing" textLength="36.1436" x="418.7566" y="300.0322">output</text></g><line style="stroke:#000000;stroke-width:1;stroke-dasharray:2,2;" x1="235.1436" x2="1115.0356" y1="313.7871" y2="313.7871"/><text fill="#000000" font-family="Arial" font-size="11" font-weight="bold" lengthAdjust="spacing" textLength="105.1714" x="240.1436" y="324.105">[search cache miss]</text><g class="message" data-participant-1="CacheRepo" data-participant-2="SearchUC"><polygon fill="#181818" points="331.0571,344.3848,321.0571,348.3848,331.0571,352.3848,327.0571,348.3848" style="stroke:#181818;stroke-width:1;"/><line style="stroke:#181818;stroke-width:1;stroke-dasharray:2,2;" x1="325.0571" x2="552.5996" y1="348.3848" y2="348.3848"/><text fill="#000000" font-family="Arial" font-size="13" lengthAdjust="spacing" textLength="26.7173" x="423.4697" y="343.6299">miss</text></g><g class="message" data-participant-1="SearchUC" data-participant-2="CacheRepo"><polygon fill="#181818" points="541.5996,373.3335,551.5996,377.3335,541.5996,381.3335,545.5996,377.3335" style="stroke:#181818;stroke-width:1;"/><line style="stroke:#181818;stroke-width:1;" x1="320.0571" x2="547.5996" y1="377.3335" y2="377.3335"/><text fill="#000000" font-family="Arial" font-size="13" lengthAdjust="spacing" textLength="209.5425" x="332.0571" y="372.5786">GetCampaignProjects(campaign_id)</text></g><path d="M251.1436,392.3335 L305.3145,392.3335 L305.3145,399.2822 L295.3145,409.2822 L245.1436,409.2822 L245.1436,398.3335 A6,6 0 0 1 251.1436,392.3335" fill="#EEEEEE" style="stroke:#000000;stroke-width:1.5;"/><rect fill="none" height="220.2388" rx="6" ry="6" style="stroke:#000000;stroke-width:1.5;" width="527.1968" x="245.1436" y="392.3335"/><text fill="#000000" font-family="Arial" font-size="13" font-weight="bold" lengthAdjust="spacing" textLength="15.1709" x="260.1436" y="405.5273">alt</text><text fill="#000000" font-family="Arial" font-size="11" font-weight="bold" lengthAdjust="spacing" textLength="149.7515" x="320.3145" y="404.6514">[campaign-project cache hit]</text><g class="message" data-participant-1="CacheRepo" data-participant-2="SearchUC"><polygon fill="#181818" points="331.0571,426.231,321.0571,430.231,331.0571,434.231,327.0571,430.231" style="stroke:#181818;stroke-width:1;"/><line style="stroke:#181818;stroke-width:1;stroke-dasharray:2,2;" x1="325.0571" x2="552.5996" y1="430.231" y2="430.231"/><text fill="#000000" font-family="Arial" font-size="13" lengthAdjust="spacing" textLength="62.8672" x="405.3948" y="425.4761">project_ids</text></g><line style="stroke:#000000;stroke-width:1;stroke-dasharray:2,2;" x1="245.1436" x2="772.3403" y1="439.231" y2="439.231"/><text fill="#000000" font-family="Arial" font-size="11" font-weight="bold" lengthAdjust="spacing" textLength="161.3853" x="250.1436" y="449.5488">[campaign-project cache miss]</text><g class="message" data-participant-1="CacheRepo" data-participant-2="SearchUC"><polygon fill="#181818" points="331.0571,469.8286,321.0571,473.8286,331.0571,477.8286,327.0571,473.8286" style="stroke:#181818;stroke-width:1;"/><line style="stroke:#181818;stroke-width:1;stroke-dasharray:2,2;" x1="325.0571" x2="552.5996" y1="473.8286" y2="473.8286"/><text fill="#000000" font-family="Arial" font-size="13" lengthAdjust="spacing" textLength="26.7173" x="423.4697" y="469.0737">miss</text></g><g class="message" data-participant-1="SearchUC" data-participant-2="ProjectClient"><polygon fill="#181818" points="671.4268,498.7773,681.4268,502.7773,671.4268,506.7773,675.4268,502.7773" style="stroke:#181818;stroke-width:1;"/><line style="stroke:#181818;stroke-width:1;" x1="320.0571" x2="677.4268" y1="502.7773" y2="502.7773"/><text fill="#000000" font-family="Arial" font-size="13" lengthAdjust="spacing" textLength="162.5825" x="420.4507" y="498.0225">GetCampaign(campaign_id)</text></g><g class="message" data-participant-1="ProjectClient" data-participant-2="SearchUC"><polygon fill="#181818" points="331.0571,542.6748,321.0571,546.6748,331.0571,550.6748,327.0571,546.6748" style="stroke:#181818;stroke-width:1;"/><line style="stroke:#181818;stroke-width:1;stroke-dasharray:2,2;" x1="325.0571" x2="687.4268" y1="546.6748" y2="546.6748"/><text fill="#000000" font-family="Arial" font-size="13" lengthAdjust="spacing" textLength="56.3672" x="470.4565" y="526.9712">campaign</text><text fill="#000000" font-family="Arial" font-size="13" lengthAdjust="spacing" textLength="3.6118" x="526.8237" y="526.9712">&#160;</text><text fill="#000000" font-family="Arial" font-size="13" lengthAdjust="spacing" textLength="7.5918" x="530.4355" y="526.9712">+</text><text fill="#000000" font-family="Arial" font-size="13" lengthAdjust="spacing" textLength="62.8672" x="472.8083" y="541.9199">project_ids</text></g><g class="message" data-participant-1="SearchUC" data-participant-2="CacheRepo"><polygon fill="#181818" points="541.5996,571.6235,551.5996,575.6235,541.5996,579.6235,545.5996,575.6235" style="stroke:#181818;stroke-width:1;"/><line style="stroke:#181818;stroke-width:1;" x1="320.0571" x2="547.5996" y1="575.6235" y2="575.6235"/><text fill="#000000" font-family="Arial" font-size="13" lengthAdjust="spacing" textLength="155.3398" x="359.1584" y="570.8687">SaveCampaignProjects(...)</text></g><g class="message" data-participant-1="SearchUC" data-participant-2="CacheRepo"><polygon fill="#181818" points="541.5996,600.5723,551.5996,604.5723,541.5996,608.5723,545.5996,604.5723" style="stroke:#181818;stroke-width:1;"/><line style="stroke:#181818;stroke-width:1;" x1="320.0571" x2="547.5996" y1="604.5723" y2="604.5723"/><text fill="#000000" font-family="Arial" font-size="13" lengthAdjust="spacing" textLength="143.0571" x="365.2998" y="599.8174">SaveCampaignName(...)</text></g><g class="message" data-participant-1="SearchUC" data-participant-2="Embedding"><polygon fill="#181818" points="826.5435,651.4697,836.5435,655.4697,826.5435,659.4697,830.5435,655.4697" style="stroke:#181818;stroke-width:1;"/><line style="stroke:#181818;stroke-width:1;" x1="320.0571" x2="832.5435" y1="655.4697" y2="655.4697"/><text fill="#000000" font-family="Arial" font-size="13" lengthAdjust="spacing" textLength="108.3989" x="525.1008" y="635.7661">Generate(enriched</text><text fill="#000000" font-family="Arial" font-size="13" lengthAdjust="spacing" textLength="36.8481" x="560.8762" y="650.7148">query)</text></g><g class="message" data-participant-1="Embedding" data-participant-2="SearchUC"><polygon fill="#181818" points="331.0571,695.3672,321.0571,699.3672,331.0571,703.3672,327.0571,699.3672" style="stroke:#181818;stroke-width:1;"/><line style="stroke:#181818;stroke-width:1;stroke-dasharray:2,2;" x1="325.0571" x2="842.5435" y1="699.3672" y2="699.3672"/><text fill="#000000" font-family="Arial" font-size="13" lengthAdjust="spacing" textLength="32.519" x="565.5408" y="679.6636">query</text><text fill="#000000" font-family="Arial" font-size="13" lengthAdjust="spacing" textLength="35.4009" x="564.0999" y="694.6123">vector</text></g><path d="M251.1436,714.3672 L317.5781,714.3672 L317.5781,721.3159 L307.5781,731.3159 L245.1436,731.3159 L245.1436,720.3672 A6,6 0 0 1 251.1436,714.3672" fill="#EEEEEE" style="stroke:#000000;stroke-width:1.5;"/><rect fill="none" height="207.4873" rx="6" ry="6" style="stroke:#000000;stroke-width:1.5;" width="859.8921" x="245.1436" y="714.3672"/><text fill="#000000" font-family="Arial" font-size="13" font-weight="bold" lengthAdjust="spacing" textLength="27.4346" x="260.1436" y="727.561">loop</text><text fill="#000000" font-family="Arial" font-size="11" font-weight="bold" lengthAdjust="spacing" textLength="126.5269" x="332.5781" y="726.6851">[each project collection]</text><g class="message" data-participant-1="SearchUC" data-participant-2="PointUC"><polygon fill="#181818" points="959.4912,778.1621,969.4912,782.1621,959.4912,786.1621,963.4912,782.1621" style="stroke:#181818;stroke-width:1;"/><line style="stroke:#181818;stroke-width:1;" x1="320.0571" x2="965.4912" y1="782.1621" y2="782.1621"/><text fill="#000000" font-family="Arial" font-size="13" lengthAdjust="spacing" textLength="103.3271" x="594.1106" y="747.5098">Search(collection,</text><text fill="#000000" font-family="Arial" font-size="13" lengthAdjust="spacing" textLength="39.0127" x="626.2678" y="762.4585">vector,</text><text fill="#000000" font-family="Arial" font-size="13" lengthAdjust="spacing" textLength="28.8882" x="631.3301" y="777.4072">filter)</text></g><g class="message" data-participant-1="PointUC" data-participant-2="Qdrant"><polygon fill="#181818" points="1049.6357,822.0596,1059.6357,826.0596,1049.6357,830.0596,1053.6357,826.0596" style="stroke:#181818;stroke-width:1;"/><line style="stroke:#181818;stroke-width:1;" x1="981.4912" x2="1055.6357" y1="826.0596" y2="826.0596"/><text fill="#000000" font-family="Arial" font-size="13" lengthAdjust="spacing" textLength="39.019" x="1002.054" y="806.356">search</text><text fill="#000000" font-family="Arial" font-size="13" lengthAdjust="spacing" textLength="34.6899" x="1004.2185" y="821.3047">points</text></g><g class="message" data-participant-1="Qdrant" data-participant-2="PointUC"><polygon fill="#181818" points="992.4912,865.957,982.4912,869.957,992.4912,873.957,988.4912,869.957" style="stroke:#181818;stroke-width:1;"/><line style="stroke:#181818;stroke-width:1;stroke-dasharray:2,2;" x1="986.4912" x2="1065.6357" y1="869.957" y2="869.957"/><text fill="#000000" font-family="Arial" font-size="13" lengthAdjust="spacing" textLength="39.019" x="1004.554" y="850.2534">scored</text><text fill="#000000" font-family="Arial" font-size="13" lengthAdjust="spacing" textLength="38.2891" x="1004.9189" y="865.2021">results</text></g><g class="message" data-participant-1="PointUC" data-participant-2="SearchUC"><polygon fill="#181818" points="331.0571,909.8545,321.0571,913.8545,331.0571,917.8545,327.0571,913.8545" style="stroke:#181818;stroke-width:1;"/><line style="stroke:#181818;stroke-width:1;stroke-dasharray:2,2;" x1="325.0571" x2="975.4912" y1="913.8545" y2="913.8545"/><text fill="#000000" font-family="Arial" font-size="13" lengthAdjust="spacing" textLength="28.1899" x="634.1792" y="894.1509">point</text><text fill="#000000" font-family="Arial" font-size="13" lengthAdjust="spacing" textLength="38.2891" x="629.1296" y="909.0996">results</text></g><g class="message" data-participant-1="SearchUC" data-participant-2="SearchUC"><line style="stroke:#181818;stroke-width:1;" x1="320.0571" x2="362.0571" y1="994.6494" y2="994.6494"/><line style="stroke:#181818;stroke-width:1;" x1="362.0571" x2="362.0571" y1="994.6494" y2="1007.6494"/><line style="stroke:#181818;stroke-width:1;" x1="321.0571" x2="362.0571" y1="1007.6494" y2="1007.6494"/><polygon fill="#181818" points="331.0571,1003.6494,321.0571,1007.6494,331.0571,1011.6494,327.0571,1007.6494" style="stroke:#181818;stroke-width:1;"/><text fill="#000000" font-family="Arial" font-size="13" lengthAdjust="spacing" textLength="25.2827" x="348.7566" y="945.0483">sort,</text><text fill="#000000" font-family="Arial" font-size="13" lengthAdjust="spacing" textLength="43.3799" x="327.0571" y="959.9971">dedupe</text><text fill="#000000" font-family="Arial" font-size="13" lengthAdjust="spacing" textLength="3.6118" x="370.437" y="959.9971">&#160;</text><text fill="#000000" font-family="Arial" font-size="13" lengthAdjust="spacing" textLength="21.6899" x="374.0488" y="959.9971">and</text><text fill="#000000" font-family="Arial" font-size="13" lengthAdjust="spacing" textLength="58.5508" x="332.1226" y="974.9458">aggregate</text><text fill="#000000" font-family="Arial" font-size="13" lengthAdjust="spacing" textLength="38.2891" x="342.2534" y="989.8945">results</text></g><g class="message" data-participant-1="SearchUC" data-participant-2="CacheRepo"><polygon fill="#181818" points="541.5996,1047.5469,551.5996,1051.5469,541.5996,1055.5469,545.5996,1051.5469" style="stroke:#181818;stroke-width:1;"/><line style="stroke:#181818;stroke-width:1;" x1="320.0571" x2="547.5996" y1="1051.5469" y2="1051.5469"/><text fill="#000000" font-family="Arial" font-size="13" lengthAdjust="spacing" textLength="179.2007" x="347.228" y="1031.8433">SaveSearchResults(cacheKey,</text><text fill="#000000" font-family="Arial" font-size="13" lengthAdjust="spacing" textLength="40.4727" x="416.592" y="1046.792">output)</text></g><g class="message" data-participant-1="SearchUC" data-participant-2="Handler"><polygon fill="#181818" points="205.5059,1083.4956,195.5059,1087.4956,205.5059,1091.4956,201.5059,1087.4956" style="stroke:#181818;stroke-width:1;"/><line style="stroke:#181818;stroke-width:1;stroke-dasharray:2,2;" x1="199.5059" x2="314.0571" y1="1087.4956" y2="1087.4956"/><text fill="#000000" font-family="Arial" font-size="13" lengthAdjust="spacing" textLength="80.2153" x="214.6738" y="1082.7407">SearchOutput</text></g><g class="message" data-participant-1="Handler" data-participant-2="Client"><polygon fill="#181818" points="75.4341,1127.3931,65.4341,1131.3931,75.4341,1135.3931,71.4341,1131.3931" style="stroke:#181818;stroke-width:1;"/><line style="stroke:#181818;stroke-width:1;stroke-dasharray:2,2;" x1="69.4341" x2="188.5059" y1="1131.3931" y2="1131.3931"/><text fill="#000000" font-family="Arial" font-size="13" lengthAdjust="spacing" textLength="38.2891" x="102.2236" y="1111.6895">results</text><text fill="#000000" font-family="Arial" font-size="13" lengthAdjust="spacing" textLength="3.6118" x="140.5127" y="1111.6895">&#160;</text><text fill="#000000" font-family="Arial" font-size="13" lengthAdjust="spacing" textLength="7.5918" x="144.1245" y="1111.6895">+</text><text fill="#000000" font-family="Arial" font-size="13" lengthAdjust="spacing" textLength="75.1689" x="89.3855" y="1126.6382">aggregations</text></g><!--SRC=[ZLHBSXCn4DtFARgoYWixV3PKiQ3Ak0XKKP0GapKbD1rR84k3f74IRi4HA4wGDSjm4Mv2wpCpqiGnh3pkxjVz-gFdX9C82wqSNhcMILWYCtmDnr9VLlQBK0qpR0CrNh1MkcEAUySs27CZcCpyTirgVIdK2YwOj9Xxy6kBYkDRj9QjS2x5IW57gcUoA8EsqSfsKI-Goi-DqPVWJ9kdsx2h5BCKtn2UFigJw5RLN1k51Xu_gIh6dJPmi922oi7lxxS_uUhs1mUt_lFhXXy0in1z5U6TuA9X57UG9l2QgLgY2M7fUsVSkSK5inZYekbyKGOk65yZd66ZOqt_r_yheqwD_epSKGwp5HmJjO18hbraNsu-OLtJu7CQlN5KGGlbyhXe6B5zNnkMwiRFgaeJd3tl1W7FuFHa-G4Usj2mdxJOCeVzeBeuWdGp8KpyFBHSDpW5Mblh9WEs7rwF87G_B8A_GXTTPsZf6EqXzyutU9qb6OPRCUaWyeCG26lXAiWopafs8QW6tJhYLI6TSGdV26ltuPD_3_i5spICxZ_jqpSG3Hz5FI6ePzoPPaswXvpxdkefd39v4e7zFQaIptztKlPI767PpxWFwgJRHtcwtbNckRE3c0WUZ1e2ag0zIUyR-f9jySxKZuwE9l-DydBN8L3LrMZ3_LCB4o7b8Nw7g8m8jqJIPwx3PZlgmzE433kQGe315hr-LKNd0vpiKki6oBU6Vi5QIleLMjrTNtphmoiSOgUfr1GkX2HT7gymgKHONif22QCuKBxqI1hliYKq2OYtfV1PGOMKmD2OJ7pFupLdwBxkwEYz-Jxum7l7th8aLXit9M3TDWYaMy1MAuChdsB8lEzKTelID2d9f0hbCsA3HWrP2ssDvfCeH1cmLyXUNZsRxa4cilHqkWPejpR79zXV]--></g></svg>