<svg xmlns="http://www.w3.org/2000/svg" xmlns:xlink="http://www.w3.org/1999/xlink" contentStyleType="text/css" data-diagram-type="SEQUENCE" height="1127px" preserveAspectRatio="none" style="width:629px;height:1127px;background:#FFFFFF;" version="1.1" viewBox="0 0 629 1127" width="629px" zoomAndPan="magnify"><defs/><g><g><title>IndexingUseCase</title><rect fill="#FFFFFF" height="438.0259" style="stroke:#181818;stroke-width:1;" width="10" x="205.5234" y="90.9961"/></g><g><title>IndexingUseCase</title><rect fill="#FFFFFF" height="494.9233" style="stroke:#181818;stroke-width:1;" width="10" x="205.5234" y="572.6196"/></g><g><title>EmbeddingUseCase</title><rect fill="#FFFFFF" height="28.9487" style="stroke:#181818;stroke-width:1;" width="10" x="348.9814" y="134.8936"/></g><g><title>EmbeddingUseCase</title><rect fill="#FFFFFF" height="28.9487" style="stroke:#181818;stroke-width:1;" width="10" x="348.9814" y="673.4146"/></g><g><title>PointUseCase</title><rect fill="#FFFFFF" height="131.6924" style="stroke:#181818;stroke-width:1;" width="10" x="481.9292" y="192.791"/></g><g><title>PointUseCase</title><rect fill="#FFFFFF" height="101.7949" style="stroke:#181818;stroke-width:1;" width="10" x="481.9292" y="368.3809"/></g><g><title>PointUseCase</title><rect fill="#FFFFFF" height="131.6924" style="stroke:#181818;stroke-width:1;" width="10" x="481.9292" y="731.312"/></g><g><title>PointUseCase</title><rect fill="#FFFFFF" height="101.7949" style="stroke:#181818;stroke-width:1;" width="10" x="481.9292" y="906.9019"/></g><g><title>Qdrant</title><rect fill="#FFFFFF" height="43.8975" style="stroke:#181818;stroke-width:1;" width="10" x="578.8618" y="251.6372"/></g><g><title>Qdrant</title><rect fill="#FFFFFF" height="43.8975" style="stroke:#181818;stroke-width:1;" width="10" x="578.8618" y="397.3296"/></g><g><title>Qdrant</title><rect fill="#FFFFFF" height="43.8975" style="stroke:#181818;stroke-width:1;" width="10" x="578.8618" y="790.1582"/></g><g><title>Qdrant</title><rect fill="#FFFFFF" height="43.8975" style="stroke:#181818;stroke-width:1;" width="10" x="578.8618" y="935.8506"/></g><rect fill="none" height="1022.4443" rx="6" ry="6" style="stroke:#000000;stroke-width:1.5;" width="612.2617" x="10" y="53.0986"/><g><title>Kafka Consumer</title><rect fill="#000000" fill-opacity="0.00000" height="1056.4443" width="8" x="75.1343" y="36.0986"/><line style="stroke:#181818;stroke-width:0.5;stroke-dasharray:5,5;" x1="79" x2="79" y1="36.0986" y2="1092.543"/></g><g><title>IndexingUseCase</title><rect fill="#000000" fill-opacity="0.00000" height="1056.4443" width="8" x="206.5234" y="36.0986"/><line style="stroke:#181818;stroke-width:0.5;stroke-dasharray:5,5;" x1="210.2686" x2="210.2686" y1="36.0986" y2="1092.543"/></g><g><title>EmbeddingUseCase</title><rect fill="#000000" fill-opacity="0.00000" height="1056.4443" width="8" x="349.9814" y="36.0986"/><line style="stroke:#181818;stroke-width:0.5;stroke-dasharray:5,5;" x1="353.7783" x2="353.7783" y1="36.0986" y2="1092.543"/></g><g><title>PointUseCase</title><rect fill="#000000" fill-opacity="0.00000" height="1056.4443" width="8" x="482.9292" y="36.0986"/><line style="stroke:#181818;stroke-width:0.5;stroke-dasharray:5,5;" x1="486.1846" x2="486.1846" y1="36.0986" y2="1092.543"/></g><g><title>Qdrant</title><rect fill="#000000" fill-opacity="0.00000" height="1056.4443" width="8" x="579.8618" y="36.0986"/><line style="stroke:#181818;stroke-width:0.5;stroke-dasharray:5,5;" x1="583.4619" x2="583.4619" y1="36.0986" y2="1092.543"/></g><g class="participant participant-head" data-participant="Consumer"><rect fill="#E2E2F0" height="30.0986" rx="6" ry="6" style="stroke:#181818;stroke-width:0.5;" width="118.2686" x="20" y="5"/><text fill="#000000" font-family="Arial" font-size="14" lengthAdjust="spacing" textLength="104.2686" x="27" y="25.1318">Kafka Consumer</text></g><g class="participant participant-tail" data-participant="Consumer"><rect fill="#E2E2F0" height="30.0986" rx="6" ry="6" style="stroke:#181818;stroke-width:0.5;" width="118.2686" x="20" y="1091.543"/><text fill="#000000" font-family="Arial" font-size="14" lengthAdjust="spacing" textLength="104.2686" x="27" y="1111.6748">Kafka Consumer</text></g><g class="participant participant-head" data-participant="Indexing"><rect fill="#E2E2F0" height="30.0986" rx="6" ry="6" style="stroke:#181818;stroke-width:0.5;" width="124.5098" x="148.2686" y="5"/><text fill="#000000" font-family="Arial" font-size="14" lengthAdjust="spacing" textLength="110.5098" x="155.2686" y="25.1318">IndexingUseCase</text></g><g class="participant participant-tail" data-participant="Indexing"><rect fill="#E2E2F0" height="30.0986" rx="6" ry="6" style="stroke:#181818;stroke-width:0.5;" width="124.5098" x="148.2686" y="1091.543"/><text fill="#000000" font-family="Arial" font-size="14" lengthAdjust="spacing" textLength="110.5098" x="155.2686" y="1111.6748">IndexingUseCase</text></g><g class="participant participant-head" data-participant="Embedding"><rect fill="#E2E2F0" height="30.0986" rx="6" ry="6" style="stroke:#181818;stroke-width:0.5;" width="142.4063" x="282.7783" y="5"/><text fill="#000000" font-family="Arial" font-size="14" lengthAdjust="spacing" textLength="128.4063" x="289.7783" y="25.1318">EmbeddingUseCase</text></g><g class="participant participant-tail" data-participant="Embedding"><rect fill="#E2E2F0" height="30.0986" rx="6" ry="6" style="stroke:#181818;stroke-width:0.5;" width="142.4063" x="282.7783" y="1091.543"/><text fill="#000000" font-family="Arial" font-size="14" lengthAdjust="spacing" textLength="128.4063" x="289.7783" y="1111.6748">EmbeddingUseCase</text></g><g class="participant participant-head" data-participant="PointUC"><rect fill="#E2E2F0" height="30.0986" rx="6" ry="6" style="stroke:#181818;stroke-width:0.5;" width="103.4893" x="435.1846" y="5"/><text fill="#000000" font-family="Arial" font-size="14" lengthAdjust="spacing" textLength="89.4893" x="442.1846" y="25.1318">PointUseCase</text></g><g class="participant participant-tail" data-participant="PointUC"><rect fill="#E2E2F0" height="30.0986" rx="6" ry="6" style="stroke:#181818;stroke-width:0.5;" width="103.4893" x="435.1846" y="1091.543"/><text fill="#000000" font-family="Arial" font-size="14" lengthAdjust="spacing" textLength="89.4893" x="442.1846" y="1111.6748">PointUseCase</text></g><g class="participant participant-head" data-participant="Qdrant"><rect fill="#E2E2F0" height="30.0986" rx="6" ry="6" style="stroke:#181818;stroke-width:0.5;" width="56.7998" x="555.4619" y="5"/><text fill="#000000" font-family="Arial" font-size="14" lengthAdjust="spacing" textLength="42.7998" x="562.4619" y="25.1318">Qdrant</text></g><g class="participant participant-tail" data-participant="Qdrant"><rect fill="#E2E2F0" height="30.0986" rx="6" ry="6" style="stroke:#181818;stroke-width:0.5;" width="56.7998" x="555.4619" y="1091.543"/><text fill="#000000" font-family="Arial" font-size="14" lengthAdjust="spacing" textLength="42.7998" x="562.4619" y="1111.6748">Qdrant</text></g><g><title>IndexingUseCase</title><rect fill="#FFFFFF" height="438.0259" style="stroke:#181818;stroke-width:1;" width="10" x="205.5234" y="90.9961"/></g><g><title>IndexingUseCase</title><rect fill="#FFFFFF" height="494.9233" style="stroke:#181818;stroke-width:1;" width="10" x="205.5234" y="572.6196"/></g><g><title>EmbeddingUseCase</title><rect fill="#FFFFFF" height="28.9487" style="stroke:#181818;stroke-width:1;" width="10" x="348.9814" y="134.8936"/></g><g><title>EmbeddingUseCase</title><rect fill="#FFFFFF" height="28.9487" style="stroke:#181818;stroke-width:1;" width="10" x="348.9814" y="673.4146"/></g><g><title>PointUseCase</title><rect fill="#FFFFFF" height="131.6924" style="stroke:#181818;stroke-width:1;" width="10" x="481.9292" y="192.791"/></g><g><title>PointUseCase</title><rect fill="#FFFFFF" height="101.7949" style="stroke:#181818;stroke-width:1;" width="10" x="481.9292" y="368.3809"/></g><g><title>PointUseCase</title><rect fill="#FFFFFF" height="131.6924" style="stroke:#181818;stroke-width:1;" width="10" x="481.9292" y="731.312"/></g><g><title>PointUseCase</title><rect fill="#FFFFFF" height="101.7949" style="stroke:#181818;stroke-width:1;" width="10" x="481.9292" y="906.9019"/></g><g><title>Qdrant</title><rect fill="#FFFFFF" height="43.8975" style="stroke:#181818;stroke-width:1;" width="10" x="578.8618" y="251.6372"/></g><g><title>Qdrant</title><rect fill="#FFFFFF" height="43.8975" style="stroke:#181818;stroke-width:1;" width="10" x="578.8618" y="397.3296"/></g><g><title>Qdrant</title><rect fill="#FFFFFF" height="43.8975" style="stroke:#181818;stroke-width:1;" width="10" x="578.8618" y="790.1582"/></g><g><title>Qdrant</title><rect fill="#FFFFFF" height="43.8975" style="stroke:#181818;stroke-width:1;" width="10" x="578.8618" y="935.8506"/></g><path d="M16,53.0986 L70.1709,53.0986 L70.1709,60.0474 L60.1709,70.0474 L10,70.0474 L10,59.0986 A6,6 0 0 1 16,53.0986" fill="#EEEEEE" style="stroke:#000000;stroke-width:1.5;"/><rect fill="none" height="1022.4443" rx="6" ry="6" style="stroke:#000000;stroke-width:1.5;" width="612.2617" x="10" y="53.0986"/><text fill="#000000" font-family="Arial" font-size="13" font-weight="bold" lengthAdjust="spacing" textLength="15.1709" x="25" y="66.2925">alt</text><text fill="#000000" font-family="Arial" font-size="11" font-weight="bold" lengthAdjust="spacing" textLength="104.4946" x="85.1709" y="65.4165">[insights.published]</text><g class="message" data-participant-1="Consumer" data-participant-2="Indexing"><polygon fill="#181818" points="193.5234,86.9961,203.5234,90.9961,193.5234,94.9961,197.5234,90.9961" style="stroke:#181818;stroke-width:1;"/><line style="stroke:#181818;stroke-width:1;" x1="79.1343" x2="199.5234" y1="90.9961" y2="90.9961"/><text fill="#000000" font-family="Arial" font-size="13" lengthAdjust="spacing" textLength="106.9517" x="88.853" y="86.2412">IndexInsight(input)</text></g><g class="message" data-participant-1="Indexing" data-participant-2="Embedding"><polygon fill="#181818" points="336.9814,130.8936,346.9814,134.8936,336.9814,138.8936,340.9814,134.8936" style="stroke:#181818;stroke-width:1;"/><line style="stroke:#181818;stroke-width:1;" x1="215.5234" x2="342.9814" y1="134.8936" y2="134.8936"/><text fill="#000000" font-family="Arial" font-size="13" lengthAdjust="spacing" textLength="78.7617" x="242.8716" y="115.1899">Generate(title</text><text fill="#000000" font-family="Arial" font-size="13" lengthAdjust="spacing" textLength="7.5918" x="247.7625" y="130.1387">+</text><text fill="#000000" font-family="Arial" font-size="13" lengthAdjust="spacing" textLength="3.6118" x="255.3542" y="130.1387">&#160;</text><text fill="#000000" font-family="Arial" font-size="13" lengthAdjust="spacing" textLength="57.7764" x="258.9661" y="130.1387">summary)</text></g><g class="message" data-participant-1="Embedding" data-participant-2="Indexing"><polygon fill="#181818" points="226.5234,159.8423,216.5234,163.8423,226.5234,167.8423,222.5234,163.8423" style="stroke:#181818;stroke-width:1;"/><line style="stroke:#181818;stroke-width:1;stroke-dasharray:2,2;" x1="220.5234" x2="352.9814" y1="163.8423" y2="163.8423"/><text fill="#000000" font-family="Arial" font-size="13" lengthAdjust="spacing" textLength="35.4009" x="267.052" y="159.0874">vector</text></g><g class="message" data-participant-1="Indexing" data-participant-2="PointUC"><polygon fill="#181818" points="469.9292,188.791,479.9292,192.791,469.9292,196.791,473.9292,192.791" style="stroke:#181818;stroke-width:1;"/><line style="stroke:#181818;stroke-width:1;" x1="215.5234" x2="475.9292" y1="192.791" y2="192.791"/><text fill="#000000" font-family="Arial" font-size="13" lengthAdjust="spacing" textLength="194.3589" x="251.5469" y="188.0361">EnsureCollection(macro_insights)</text></g><g class="message" data-participant-1="PointUC" data-participant-2="Qdrant"><polygon fill="#181818" points="566.8618,247.6372,576.8618,251.6372,566.8618,255.6372,570.8618,251.6372" style="stroke:#181818;stroke-width:1;"/><line style="stroke:#181818;stroke-width:1;" x1="491.9292" x2="572.8618" y1="251.6372" y2="251.6372"/><text fill="#000000" font-family="Arial" font-size="13" lengthAdjust="spacing" textLength="36.1309" x="517.3301" y="216.9849">create</text><text fill="#000000" font-family="Arial" font-size="13" lengthAdjust="spacing" textLength="54.1963" x="503.2415" y="231.9336">collection</text><text fill="#000000" font-family="Arial" font-size="13" lengthAdjust="spacing" textLength="3.6118" x="557.4377" y="231.9336">&#160;</text><text fill="#000000" font-family="Arial" font-size="13" lengthAdjust="spacing" textLength="6.5" x="561.0496" y="231.9336">if</text><text fill="#000000" font-family="Arial" font-size="13" lengthAdjust="spacing" textLength="44.0654" x="513.3628" y="246.8823">missing</text></g><g class="message" data-participant-1="Qdrant" data-participant-2="PointUC"><polygon fill="#181818" points="502.9292,291.5347,492.9292,295.5347,502.9292,299.5347,498.9292,295.5347" style="stroke:#181818;stroke-width:1;"/><line style="stroke:#181818;stroke-width:1;stroke-dasharray:2,2;" x1="496.9292" x2="582.8618" y1="295.5347" y2="295.5347"/><text fill="#000000" font-family="Arial" font-size="13" lengthAdjust="spacing" textLength="54.1963" x="510.7974" y="275.8311">collection</text><text fill="#000000" font-family="Arial" font-size="13" lengthAdjust="spacing" textLength="32.519" x="521.636" y="290.7798">ready</text></g><g class="message" data-participant-1="PointUC" data-participant-2="Indexing"><polygon fill="#181818" points="226.5234,320.4834,216.5234,324.4834,226.5234,328.4834,222.5234,324.4834" style="stroke:#181818;stroke-width:1;"/><line style="stroke:#181818;stroke-width:1;stroke-dasharray:2,2;" x1="220.5234" x2="485.9292" y1="324.4834" y2="324.4834"/><text fill="#000000" font-family="Arial" font-size="13" lengthAdjust="spacing" textLength="13.73" x="344.3613" y="319.7285">ok</text></g><g class="message" data-participant-1="Indexing" data-participant-2="PointUC"><polygon fill="#181818" points="469.9292,364.3809,479.9292,368.3809,469.9292,372.3809,473.9292,368.3809" style="stroke:#181818;stroke-width:1;"/><line style="stroke:#181818;stroke-width:1;" x1="215.5234" x2="475.9292" y1="368.3809" y2="368.3809"/><text fill="#000000" font-family="Arial" font-size="13" lengthAdjust="spacing" textLength="80.1963" x="308.6282" y="348.6772">Upsert(insight</text><text fill="#000000" font-family="Arial" font-size="13" lengthAdjust="spacing" textLength="32.519" x="332.4668" y="363.626">point)</text></g><g class="message" data-participant-1="PointUC" data-participant-2="Qdrant"><polygon fill="#181818" points="566.8618,393.3296,576.8618,397.3296,566.8618,401.3296,570.8618,397.3296" style="stroke:#181818;stroke-width:1;"/><line style="stroke:#181818;stroke-width:1;" x1="491.9292" x2="572.8618" y1="397.3296" y2="397.3296"/><text fill="#000000" font-family="Arial" font-size="13" lengthAdjust="spacing" textLength="36.1309" x="501.4292" y="392.5747">upsert</text><text fill="#000000" font-family="Arial" font-size="13" lengthAdjust="spacing" textLength="3.6118" x="537.5601" y="392.5747">&#160;</text><text fill="#000000" font-family="Arial" font-size="13" lengthAdjust="spacing" textLength="28.1899" x="541.1719" y="392.5747">point</text></g><g class="message" data-participant-1="Qdrant" data-participant-2="PointUC"><polygon fill="#181818" points="502.9292,437.2271,492.9292,441.2271,502.9292,445.2271,498.9292,441.2271" style="stroke:#181818;stroke-width:1;"/><line style="stroke:#181818;stroke-width:1;stroke-dasharray:2,2;" x1="496.9292" x2="582.8618" y1="441.2271" y2="441.2271"/><text fill="#000000" font-family="Arial" font-size="13" lengthAdjust="spacing" textLength="28.1899" x="523.8005" y="421.5234">point</text><text fill="#000000" font-family="Arial" font-size="13" lengthAdjust="spacing" textLength="45.5381" x="515.1265" y="436.4722">indexed</text></g><g class="message" data-participant-1="PointUC" data-participant-2="Indexing"><polygon fill="#181818" points="226.5234,466.1758,216.5234,470.1758,226.5234,474.1758,222.5234,470.1758" style="stroke:#181818;stroke-width:1;"/><line style="stroke:#181818;stroke-width:1;stroke-dasharray:2,2;" x1="220.5234" x2="485.9292" y1="470.1758" y2="470.1758"/><text fill="#000000" font-family="Arial" font-size="13" lengthAdjust="spacing" textLength="13.73" x="344.3613" y="465.4209">ok</text></g><g class="message" data-participant-1="Indexing" data-participant-2="Consumer"><polygon fill="#181818" points="90.1343,525.022,80.1343,529.022,90.1343,533.022,86.1343,529.022" style="stroke:#181818;stroke-width:1;"/><line style="stroke:#181818;stroke-width:1;stroke-dasharray:2,2;" x1="84.1343" x2="209.5234" y1="529.022" y2="529.022"/><text fill="#000000" font-family="Arial" font-size="13" lengthAdjust="spacing" textLength="37.5781" x="126.0398" y="494.3696">insight</text><text fill="#000000" font-family="Arial" font-size="13" lengthAdjust="spacing" textLength="48.4263" x="120.6157" y="509.3184">indexing</text><text fill="#000000" font-family="Arial" font-size="13" lengthAdjust="spacing" textLength="31.7891" x="128.9343" y="524.2671">result</text></g><line style="stroke:#000000;stroke-width:1;stroke-dasharray:2,2;" x1="10" x2="622.2617" y1="538.022" y2="538.022"/><text fill="#000000" font-family="Arial" font-size="11" font-weight="bold" lengthAdjust="spacing" textLength="74.5562" x="15" y="548.3398">[report.digest]</text><g class="message" data-participant-1="Consumer" data-participant-2="Indexing"><polygon fill="#181818" points="193.5234,568.6196,203.5234,572.6196,193.5234,576.6196,197.5234,572.6196" style="stroke:#181818;stroke-width:1;"/><line style="stroke:#181818;stroke-width:1;" x1="79.1343" x2="199.5234" y1="572.6196" y2="572.6196"/><text fill="#000000" font-family="Arial" font-size="13" lengthAdjust="spacing" textLength="105.498" x="89.5798" y="567.8647">IndexDigest(input)</text></g><g class="message" data-participant-1="Indexing" data-participant-2="Indexing"><line style="stroke:#181818;stroke-width:1;" x1="215.5234" x2="257.5234" y1="616.5171" y2="616.5171"/><line style="stroke:#181818;stroke-width:1;" x1="257.5234" x2="257.5234" y1="616.5171" y2="629.5171"/><line style="stroke:#181818;stroke-width:1;" x1="216.5234" x2="257.5234" y1="629.5171" y2="629.5171"/><polygon fill="#181818" points="226.5234,625.5171,216.5234,629.5171,226.5234,633.5171,222.5234,629.5171" style="stroke:#181818;stroke-width:1;"/><text fill="#000000" font-family="Arial" font-size="13" lengthAdjust="spacing" textLength="27.4663" x="222.5234" y="596.8135">build</text><text fill="#000000" font-family="Arial" font-size="13" lengthAdjust="spacing" textLength="3.6118" x="249.9897" y="596.8135">&#160;</text><text fill="#000000" font-family="Arial" font-size="13" lengthAdjust="spacing" textLength="34.6899" x="253.6016" y="596.8135">digest</text><text fill="#000000" font-family="Arial" font-size="13" lengthAdjust="spacing" textLength="32.519" x="239.1479" y="611.7622">prose</text></g><g class="message" data-participant-1="Indexing" data-participant-2="Embedding"><polygon fill="#181818" points="336.9814,669.4146,346.9814,673.4146,336.9814,677.4146,340.9814,673.4146" style="stroke:#181818;stroke-width:1;"/><line style="stroke:#181818;stroke-width:1;" x1="215.5234" x2="342.9814" y1="673.4146" y2="673.4146"/><text fill="#000000" font-family="Arial" font-size="13" lengthAdjust="spacing" textLength="93.2217" x="235.6416" y="653.7109">Generate(digest</text><text fill="#000000" font-family="Arial" font-size="13" lengthAdjust="spacing" textLength="36.8481" x="263.8284" y="668.6597">prose)</text></g><g class="message" data-participant-1="Embedding" data-participant-2="Indexing"><polygon fill="#181818" points="226.5234,698.3633,216.5234,702.3633,226.5234,706.3633,222.5234,702.3633" style="stroke:#181818;stroke-width:1;"/><line style="stroke:#181818;stroke-width:1;stroke-dasharray:2,2;" x1="220.5234" x2="352.9814" y1="702.3633" y2="702.3633"/><text fill="#000000" font-family="Arial" font-size="13" lengthAdjust="spacing" textLength="35.4009" x="267.052" y="697.6084">vector</text></g><g class="message" data-participant-1="Indexing" data-participant-2="PointUC"><polygon fill="#181818" points="469.9292,727.312,479.9292,731.312,469.9292,735.312,473.9292,731.312" style="stroke:#181818;stroke-width:1;"/><line style="stroke:#181818;stroke-width:1;" x1="215.5234" x2="475.9292" y1="731.312" y2="731.312"/><text fill="#000000" font-family="Arial" font-size="13" lengthAdjust="spacing" textLength="194.3589" x="251.5469" y="726.5571">EnsureCollection(macro_insights)</text></g><g class="message" data-participant-1="PointUC" data-participant-2="Qdrant"><polygon fill="#181818" points="566.8618,786.1582,576.8618,790.1582,566.8618,794.1582,570.8618,790.1582" style="stroke:#181818;stroke-width:1;"/><line style="stroke:#181818;stroke-width:1;" x1="491.9292" x2="572.8618" y1="790.1582" y2="790.1582"/><text fill="#000000" font-family="Arial" font-size="13" lengthAdjust="spacing" textLength="36.1309" x="517.3301" y="755.5059">create</text><text fill="#000000" font-family="Arial" font-size="13" lengthAdjust="spacing" textLength="54.1963" x="503.2415" y="770.4546">collection</text><text fill="#000000" font-family="Arial" font-size="13" lengthAdjust="spacing" textLength="3.6118" x="557.4377" y="770.4546">&#160;</text><text fill="#000000" font-family="Arial" font-size="13" lengthAdjust="spacing" textLength="6.5" x="561.0496" y="770.4546">if</text><text fill="#000000" font-family="Arial" font-size="13" lengthAdjust="spacing" textLength="44.0654" x="513.3628" y="785.4033">missing</text></g><g class="message" data-participant-1="Qdrant" data-participant-2="PointUC"><polygon fill="#181818" points="502.9292,830.0557,492.9292,834.0557,502.9292,838.0557,498.9292,834.0557" style="stroke:#181818;stroke-width:1;"/><line style="stroke:#181818;stroke-width:1;stroke-dasharray:2,2;" x1="496.9292" x2="582.8618" y1="834.0557" y2="834.0557"/><text fill="#000000" font-family="Arial" font-size="13" lengthAdjust="spacing" textLength="54.1963" x="510.7974" y="814.3521">collection</text><text fill="#000000" font-family="Arial" font-size="13" lengthAdjust="spacing" textLength="32.519" x="521.636" y="829.3008">ready</text></g><g class="message" data-participant-1="PointUC" data-participant-2="Indexing"><polygon fill="#181818" points="226.5234,859.0044,216.5234,863.0044,226.5234,867.0044,222.5234,863.0044" style="stroke:#181818;stroke-width:1;"/><line style="stroke:#181818;stroke-width:1;stroke-dasharray:2,2;" x1="220.5234" x2="485.9292" y1="863.0044" y2="863.0044"/><text fill="#000000" font-family="Arial" font-size="13" lengthAdjust="spacing" textLength="13.73" x="344.3613" y="858.2495">ok</text></g><g class="message" data-participant-1="Indexing" data-participant-2="PointUC"><polygon fill="#181818" points="469.9292,902.9019,479.9292,906.9019,469.9292,910.9019,473.9292,906.9019" style="stroke:#181818;stroke-width:1;"/><line style="stroke:#181818;stroke-width:1;" x1="215.5234" x2="475.9292" y1="906.9019" y2="906.9019"/><text fill="#000000" font-family="Arial" font-size="13" lengthAdjust="spacing" textLength="77.3081" x="310.0723" y="887.1982">Upsert(digest</text><text fill="#000000" font-family="Arial" font-size="13" lengthAdjust="spacing" textLength="32.519" x="332.4668" y="902.147">point)</text></g><g class="message" data-participant-1="PointUC" data-participant-2="Qdrant"><polygon fill="#181818" points="566.8618,931.8506,576.8618,935.8506,566.8618,939.8506,570.8618,935.8506" style="stroke:#181818;stroke-width:1;"/><line style="stroke:#181818;stroke-width:1;" x1="491.9292" x2="572.8618" y1="935.8506" y2="935.8506"/><text fill="#000000" font-family="Arial" font-size="13" lengthAdjust="spacing" textLength="36.1309" x="501.4292" y="931.0957">upsert</text><text fill="#000000" font-family="Arial" font-size="13" lengthAdjust="spacing" textLength="3.6118" x="537.5601" y="931.0957">&#160;</text><text fill="#000000" font-family="Arial" font-size="13" lengthAdjust="spacing" textLength="28.1899" x="541.1719" y="931.0957">point</text></g><g class="message" data-participant-1="Qdrant" data-participant-2="PointUC"><polygon fill="#181818" points="502.9292,975.748,492.9292,979.748,502.9292,983.748,498.9292,979.748" style="stroke:#181818;stroke-width:1;"/><line style="stroke:#181818;stroke-width:1;stroke-dasharray:2,2;" x1="496.9292" x2="582.8618" y1="979.748" y2="979.748"/><text fill="#000000" font-family="Arial" font-size="13" lengthAdjust="spacing" textLength="28.1899" x="523.8005" y="960.0444">point</text><text fill="#000000" font-family="Arial" font-size="13" lengthAdjust="spacing" textLength="45.5381" x="515.1265" y="974.9932">indexed</text></g><g class="message" data-participant-1="PointUC" data-participant-2="Indexing"><polygon fill="#181818" points="226.5234,1004.6968,216.5234,1008.6968,226.5234,1012.6968,222.5234,1008.6968" style="stroke:#181818;stroke-width:1;"/><line style="stroke:#181818;stroke-width:1;stroke-dasharray:2,2;" x1="220.5234" x2="485.9292" y1="1008.6968" y2="1008.6968"/><text fill="#000000" font-family="Arial" font-size="13" lengthAdjust="spacing" textLength="13.73" x="344.3613" y="1003.9419">ok</text></g><g class="message" data-participant-1="Indexing" data-participant-2="Consumer"><polygon fill="#181818" points="90.1343,1063.543,80.1343,1067.543,90.1343,1071.543,86.1343,1067.543" style="stroke:#181818;stroke-width:1;"/><line style="stroke:#181818;stroke-width:1;stroke-dasharray:2,2;" x1="84.1343" x2="209.5234" y1="1067.543" y2="1067.543"/><text fill="#000000" font-family="Arial" font-size="13" lengthAdjust="spacing" textLength="34.6899" x="127.4839" y="1032.8906">digest</text><text fill="#000000" font-family="Arial" font-size="13" lengthAdjust="spacing" textLength="48.4263" x="120.6157" y="1047.8394">indexing</text><text fill="#000000" font-family="Arial" font-size="13" lengthAdjust="spacing" textLength="31.7891" x="128.9343" y="1062.7881">result</text></g><!--SRC=[xLJ1RXCn4BtlLunw2aAfW0jI3qWX55HL813g6KtioSQArzwExQRbwvdiPXqRLMeg8Gw8q-vwtdipRtR6OMjSZumTQ5fZil6ZT_4BTWGBDcYRaEDXWzhlZ6jXZJPG6Q7RH4xHPme1MrfOqpfGv29nWM8AlNTXGhqdwtSBPh-3oAcKw_3-WFbkVXAyVLMA-EIqyko8uVMRff7JQ9JfqKKukyRr5c4fIL97V0OOyaSDl7AQxiN9JQ0b1XgGqrcDlEnMfFLlq7nOOxzwusA96m-MDUgRPdaEyV6rQT16C2wOTXF3UPzMreGDwGPozJ1_b-k3Y_7rQYJCf3CflX0mgcZkCDBH2Hn98f2h5eLF90qKx2oQQ0bUWgJfa1ygdQDDACZpkfOxKj6p83GzIYmhEFH3M9VYYsdfhHMwyMxMeMB_Osf2LSRKHSXyaHfR9qgAQGzIMGhC6ZeJmfW-gnnw3HDpNjLJq4LFFzH-CZSNKFV0RslyiUB7tT_qWNZ_vmQtqEy3px2S1lf8EztY09SnauA6sVh3_eIHf_LYckOntJukooztIosJvvJaEX54xpcUQzDIY4_C_eS1TFhe5_nLCbR3c0LwzdAHdR0c9Vx_Zlp57PaQ_- -joC7PYHlYz2y0]--></g></svg>