<svg xmlns="http://www.w3.org/2000/svg" xmlns:xlink="http://www.w3.org/1999/xlink" contentStyleType="text/css" data-diagram-type="SEQUENCE" height="1171px" preserveAspectRatio="none" style="width:758px;height:1171px;background:#FFFFFF;" version="1.1" viewBox="0 0 758 1171" width="758px" zoomAndPan="magnify"><title>Contextual Chat Flow</title><defs/><g><text fill="#000000" font-family="Arial" font-size="14" font-weight="bold" lengthAdjust="spacing" textLength="143.1104" x="306.7227" y="28.1318">Contextual Chat Flow</text><g><title>Chat Handler</title><rect fill="#FFFFFF" height="908.5469" style="stroke:#181818;stroke-width:1;" width="10" x="177.1128" y="151.2446"/></g><g><title>Chat UseCase</title><rect fill="#FFFFFF" height="805.8032" style="stroke:#181818;stroke-width:1;" width="10" x="287.8779" y="195.1421"/></g><g><title>PostgreSQL</title><rect fill="#FFFFFF" height="28.9487" style="stroke:#181818;stroke-width:1;" width="10" x="430.436" y="262.9883"/></g><g><title>PostgreSQL</title><rect fill="#FFFFFF" height="43.8975" style="stroke:#181818;stroke-width:1;" width="10" x="430.436" y="380.3809"/></g><g><title>PostgreSQL</title><rect fill="#FFFFFF" height="219.4873" style="stroke:#181818;stroke-width:1;" width="10" x="430.436" y="752.5093"/></g><g><title>Search UseCase</title><rect fill="#FFFFFF" height="43.8975" style="stroke:#181818;stroke-width:1;" width="10" x="580.3872" y="505.0732"/></g><g><title>LLM Provider</title><rect fill="#FFFFFF" height="28.9487" style="stroke:#181818;stroke-width:1;" width="10" x="698.9282" y="664.7144"/></g><rect fill="none" height="222.1362" rx="6" ry="6" style="stroke:#000000;stroke-width:1.5;" width="295.1162" x="230.3574" y="210.1421"/><g><title>Client .. x.c th.c</title><rect fill="#000000" fill-opacity="0.00000" height="957.4956" width="8" x="60.4341" y="120.2959"/><line style="stroke:#181818;stroke-width:0.5;stroke-dasharray:5,5;" x1="64" x2="64" y1="120.2959" y2="1077.7915"/></g><g><title>Chat Handler</title><rect fill="#000000" fill-opacity="0.00000" height="957.4956" width="8" x="178.1128" y="120.2959"/><line style="stroke:#181818;stroke-width:0.5;stroke-dasharray:5,5;" x1="181.8682" x2="181.8682" y1="120.2959" y2="1077.7915"/></g><g><title>Chat UseCase</title><rect fill="#000000" fill-opacity="0.00000" height="957.4956" width="8" x="288.8779" y="120.2959"/><line style="stroke:#181818;stroke-width:0.5;stroke-dasharray:5,5;" x1="292.3574" x2="292.3574" y1="120.2959" y2="1077.7915"/></g><g><title>PostgreSQL</title><rect fill="#000000" fill-opacity="0.00000" height="957.4956" width="8" x="431.436" y="120.2959"/><line style="stroke:#181818;stroke-width:0.5;stroke-dasharray:5,5;" x1="435.3984" x2="435.3984" y1="120.2959" y2="1077.7915"/></g><g><title>Search UseCase</title><rect fill="#000000" fill-opacity="0.00000" height="957.4956" width="8" x="581.3872" y="120.2959"/><line style="stroke:#181818;stroke-width:0.5;stroke-dasharray:5,5;" x1="584.4736" x2="584.4736" y1="120.2959" y2="1077.7915"/></g><g><title>LLM Provider</title><rect fill="#000000" fill-opacity="0.00000" height="957.4956" width="8" x="699.9282" y="120.2959"/><line style="stroke:#181818;stroke-width:0.5;stroke-dasharray:5,5;" x1="703.3008" x2="703.3008" y1="120.2959" y2="1077.7915"/></g><g class="participant participant-head" data-participant="Client"><text fill="#000000" font-family="Arial" font-size="14" lengthAdjust="spacing" textLength="112.8682" x="5" y="117.3291">Client &#273;&#227; x&#225;c th&#7921;c</text><ellipse cx="64.4341" cy="52.6973" fill="#E2E2F0" rx="8" ry="8" style="stroke:#181818;stroke-width:0.5;"/><path d="M64.4341,60.6973 L64.4341,87.6973 M51.4341,68.6973 L77.4341,68.6973 M64.4341,87.6973 L51.4341,102.6973 M64.4341,87.6973 L77.4341,102.6973" fill="none" style="stroke:#181818;stroke-width:0.5;"/></g><g class="participant participant-tail" data-participant="Client"><text fill="#000000" font-family="Arial" font-size="14" lengthAdjust="spacing" textLength="112.8682" x="5" y="1089.9233">Client &#273;&#227; x&#225;c th&#7921;c</text><ellipse cx="64.4341" cy="1101.3901" fill="#E2E2F0" rx="8" ry="8" style="stroke:#181818;stroke-width:0.5;"/><path d="M64.4341,1109.3901 L64.4341,1136.3901 M51.4341,1117.3901 L77.4341,1117.3901 M64.4341,1136.3901 L51.4341,1151.3901 M64.4341,1136.3901 L77.4341,1151.3901" fill="none" style="stroke:#181818;stroke-width:0.5;"/></g><g class="participant participant-head" data-participant="Handler"><rect fill="#E2E2F0" height="30.0986" rx="6" ry="6" style="stroke:#181818;stroke-width:0.5;" width="96.4893" x="133.8682" y="89.1973"/><text fill="#000000" font-family="Arial" font-size="14" lengthAdjust="spacing" textLength="82.4893" x="140.8682" y="109.3291">Chat Handler</text></g><g class="participant participant-tail" data-participant="Handler"><rect fill="#E2E2F0" height="30.0986" rx="6" ry="6" style="stroke:#181818;stroke-width:0.5;" width="96.4893" x="133.8682" y="1076.7915"/><text fill="#000000" font-family="Arial" font-size="14" lengthAdjust="spacing" textLength="82.4893" x="140.8682" y="1096.9233">Chat Handler</text></g><g class="participant participant-head" data-participant="ChatUC"><rect fill="#E2E2F0" height="30.0986" rx="6" ry="6" style="stroke:#181818;stroke-width:0.5;" width="105.041" x="240.3574" y="89.1973"/><text fill="#000000" font-family="Arial" font-size="14" lengthAdjust="spacing" textLength="91.041" x="247.3574" y="109.3291">Chat UseCase</text></g><g class="participant participant-tail" data-participant="ChatUC"><rect fill="#E2E2F0" height="30.0986" rx="6" ry="6" style="stroke:#181818;stroke-width:0.5;" width="105.041" x="240.3574" y="1076.7915"/><text fill="#000000" font-family="Arial" font-size="14" lengthAdjust="spacing" textLength="91.041" x="247.3574" y="1096.9233">Chat UseCase</text></g><g class="participant participant-head" data-participant="PostgreSQL"><text fill="#000000" font-family="Arial" font-size="14" lengthAdjust="spacing" textLength="76.2617" x="394.3052" y="101.2305">PostgreSQL</text><text fill="#000000" font-family="Arial" font-size="14" lengthAdjust="spacing" textLength="154.0752" x="355.3984" y="117.3291">conversations/messages</text><path d="M417.436,52.0986 C417.436,42.0986 435.436,42.0986 435.436,42.0986 C435.436,42.0986 453.436,42.0986 453.436,52.0986 L453.436,78.0986 C453.436,88.0986 435.436,88.0986 435.436,88.0986 C435.436,88.0986 417.436,88.0986 417.436,78.0986 L417.436,52.0986" fill="#E2E2F0" style="stroke:#181818;stroke-width:0.5;"/><path d="M417.436,52.0986 C417.436,62.0986 435.436,62.0986 435.436,62.0986 C435.436,62.0986 453.436,62.0986 453.436,52.0986" fill="none" style="stroke:#181818;stroke-width:0.5;"/></g><g class="participant participant-tail" data-participant="PostgreSQL"><text fill="#000000" font-family="Arial" font-size="14" lengthAdjust="spacing" textLength="76.2617" x="394.3052" y="1089.9233">PostgreSQL</text><text fill="#000000" font-family="Arial" font-size="14" lengthAdjust="spacing" textLength="154.0752" x="355.3984" y="1106.022">conversations/messages</text><path d="M417.436,1118.9888 C417.436,1108.9888 435.436,1108.9888 435.436,1108.9888 C435.436,1108.9888 453.436,1108.9888 453.436,1118.9888 L453.436,1144.9888 C453.436,1154.9888 435.436,1154.9888 435.436,1154.9888 C435.436,1154.9888 417.436,1154.9888 417.436,1144.9888 L417.436,1118.9888" fill="#E2E2F0" style="stroke:#181818;stroke-width:0.5;"/><path d="M417.436,1118.9888 C417.436,1128.9888 435.436,1128.9888 435.436,1128.9888 C435.436,1128.9888 453.436,1128.9888 453.436,1118.9888" fill="none" style="stroke:#181818;stroke-width:0.5;"/></g><g class="participant participant-head" data-participant="SearchUC"><rect fill="#E2E2F0" height="30.0986" rx="6" ry="6" style="stroke:#181818;stroke-width:0.5;" width="119.8271" x="525.4736" y="89.1973"/><text fill="#000000" font-family="Arial" font-size="14" lengthAdjust="spacing" textLength="105.8271" x="532.4736" y="109.3291">Search UseCase</text></g><g class="participant participant-tail" data-participant="SearchUC"><rect fill="#E2E2F0" height="30.0986" rx="6" ry="6" style="stroke:#181818;stroke-width:0.5;" width="119.8271" x="525.4736" y="1076.7915"/><text fill="#000000" font-family="Arial" font-size="14" lengthAdjust="spacing" textLength="105.8271" x="532.4736" y="1096.9233">Search UseCase</text></g><g class="participant participant-head" data-participant="LLM"><rect fill="#E2E2F0" height="30.0986" rx="6" ry="6" style="stroke:#181818;stroke-width:0.5;" width="97.2549" x="655.3008" y="89.1973"/><text fill="#000000" font-family="Arial" font-size="14" lengthAdjust="spacing" textLength="83.2549" x="662.3008" y="109.3291">LLM Provider</text></g><g class="participant participant-tail" data-participant="LLM"><rect fill="#E2E2F0" height="30.0986" rx="6" ry="6" style="stroke:#181818;stroke-width:0.5;" width="97.2549" x="655.3008" y="1076.7915"/><text fill="#000000" font-family="Arial" font-size="14" lengthAdjust="spacing" textLength="83.2549" x="662.3008" y="1096.9233">LLM Provider</text></g><g><title>Chat Handler</title><rect fill="#FFFFFF" height="908.5469" style="stroke:#181818;stroke-width:1;" width="10" x="177.1128" y="151.2446"/></g><g><title>Chat UseCase</title><rect fill="#FFFFFF" height="805.8032" style="stroke:#181818;stroke-width:1;" width="10" x="287.8779" y="195.1421"/></g><g><title>PostgreSQL</title><rect fill="#FFFFFF" height="28.9487" style="stroke:#181818;stroke-width:1;" width="10" x="430.436" y="262.9883"/></g><g><title>PostgreSQL</title><rect fill="#FFFFFF" height="43.8975" style="stroke:#181818;stroke-width:1;" width="10" x="430.436" y="380.3809"/></g><g><title>PostgreSQL</title><rect fill="#FFFFFF" height="219.4873" style="stroke:#181818;stroke-width:1;" width="10" x="430.436" y="752.5093"/></g><g><title>Search UseCase</title><rect fill="#FFFFFF" height="43.8975" style="stroke:#181818;stroke-width:1;" width="10" x="580.3872" y="505.0732"/></g><g><title>LLM Provider</title><rect fill="#FFFFFF" height="28.9487" style="stroke:#181818;stroke-width:1;" width="10" x="698.9282" y="664.7144"/></g><g class="message" data-participant-1="Client" data-participant-2="Handler"><polygon fill="#181818" points="165.1128,147.2446,175.1128,151.2446,165.1128,155.2446,169.1128,151.2446" style="stroke:#181818;stroke-width:1;"/><line style="stroke:#181818;stroke-width:1;" x1="64.4341" x2="171.1128" y1="151.2446" y2="151.2446"/><text fill="#000000" font-family="Arial" font-size="13" lengthAdjust="spacing" textLength="35.3945" x="87.1785" y="146.4897">POST</text><text fill="#000000" font-family="Arial" font-size="13" lengthAdjust="spacing" textLength="3.6118" x="122.573" y="146.4897">&#160;</text><text fill="#000000" font-family="Arial" font-size="13" lengthAdjust="spacing" textLength="28.1836" x="126.1848" y="146.4897">/chat</text></g><g class="message" data-participant-1="Handler" data-participant-2="ChatUC"><polygon fill="#181818" points="275.8779,191.1421,285.8779,195.1421,275.8779,199.1421,279.8779,195.1421" style="stroke:#181818;stroke-width:1;"/><line style="stroke:#181818;stroke-width:1;" x1="187.1128" x2="281.8779" y1="195.1421" y2="195.1421"/><text fill="#000000" font-family="Arial" font-size="13" lengthAdjust="spacing" textLength="70.0908" x="202.45" y="175.4385">Chat(scope,</text><text fill="#000000" font-family="Arial" font-size="13" lengthAdjust="spacing" textLength="32.519" x="221.2358" y="190.3872">input)</text></g><path d="M236.3574,210.1421 L290.5283,210.1421 L290.5283,217.0908 L280.5283,227.0908 L230.3574,227.0908 L230.3574,216.1421 A6,6 0 0 1 236.3574,210.1421" fill="#EEEEEE" style="stroke:#000000;stroke-width:1.5;"/><rect fill="none" height="222.1362" rx="6" ry="6" style="stroke:#000000;stroke-width:1.5;" width="295.1162" x="230.3574" y="210.1421"/><text fill="#000000" font-family="Arial" font-size="13" font-weight="bold" lengthAdjust="spacing" textLength="15.1709" x="245.3574" y="223.3359">alt</text><text fill="#000000" font-family="Arial" font-size="11" font-weight="bold" lengthAdjust="spacing" textLength="100.2407" x="305.5283" y="222.46">[new conversation]</text><g class="message" data-participant-1="ChatUC" data-participant-2="PostgreSQL"><polygon fill="#181818" points="418.436,258.9883,428.436,262.9883,418.436,266.9883,422.436,262.9883" style="stroke:#181818;stroke-width:1;"/><line style="stroke:#181818;stroke-width:1;" x1="297.8779" x2="424.436" y1="262.9883" y2="262.9883"/><text fill="#000000" font-family="Arial" font-size="13" lengthAdjust="spacing" textLength="47.6709" x="340.3215" y="243.2847">INSERT</text><text fill="#000000" font-family="Arial" font-size="13" lengthAdjust="spacing" textLength="73.709" x="327.3025" y="258.2334">conversation</text></g><g class="message" data-participant-1="PostgreSQL" data-participant-2="ChatUC"><polygon fill="#181818" points="308.8779,287.937,298.8779,291.937,308.8779,295.937,304.8779,291.937" style="stroke:#181818;stroke-width:1;"/><line style="stroke:#181818;stroke-width:1;stroke-dasharray:2,2;" x1="302.8779" x2="434.436" y1="291.937" y2="291.937"/><text fill="#000000" font-family="Arial" font-size="13" lengthAdjust="spacing" textLength="73.709" x="329.8025" y="287.1821">conversation</text></g><line style="stroke:#000000;stroke-width:1;stroke-dasharray:2,2;" x1="230.3574" x2="525.4736" y1="300.937" y2="300.937"/><text fill="#000000" font-family="Arial" font-size="11" font-weight="bold" lengthAdjust="spacing" textLength="120.4146" x="235.3574" y="311.2549">[existing conversation]</text><g class="message" data-participant-1="ChatUC" data-participant-2="PostgreSQL"><polygon fill="#181818" points="418.436,376.3809,428.436,380.3809,418.436,384.3809,422.436,380.3809" style="stroke:#181818;stroke-width:1;"/><line style="stroke:#181818;stroke-width:1;" x1="297.8779" x2="424.436" y1="380.3809" y2="380.3809"/><text fill="#000000" font-family="Arial" font-size="13" lengthAdjust="spacing" textLength="50.5718" x="338.8711" y="330.7798">SELECT</text><text fill="#000000" font-family="Arial" font-size="13" lengthAdjust="spacing" textLength="73.709" x="327.3025" y="345.7285">conversation</text><text fill="#000000" font-family="Arial" font-size="13" lengthAdjust="spacing" textLength="7.5918" x="340.4897" y="360.6772">+</text><text fill="#000000" font-family="Arial" font-size="13" lengthAdjust="spacing" textLength="3.6118" x="348.0815" y="360.6772">&#160;</text><text fill="#000000" font-family="Arial" font-size="13" lengthAdjust="spacing" textLength="36.1309" x="351.6934" y="360.6772">recent</text><text fill="#000000" font-family="Arial" font-size="13" lengthAdjust="spacing" textLength="59.249" x="334.5325" y="375.626">messages</text></g><g class="message" data-participant-1="PostgreSQL" data-participant-2="ChatUC"><polygon fill="#181818" points="308.8779,420.2783,298.8779,424.2783,308.8779,428.2783,304.8779,424.2783" style="stroke:#181818;stroke-width:1;"/><line style="stroke:#181818;stroke-width:1;stroke-dasharray:2,2;" x1="302.8779" x2="434.436" y1="424.2783" y2="424.2783"/><text fill="#000000" font-family="Arial" font-size="13" lengthAdjust="spacing" textLength="73.709" x="329.8025" y="404.5747">conversation</text><text fill="#000000" font-family="Arial" font-size="13" lengthAdjust="spacing" textLength="7.5918" x="341.9106" y="419.5234">+</text><text fill="#000000" font-family="Arial" font-size="13" lengthAdjust="spacing" textLength="3.6118" x="349.5024" y="419.5234">&#160;</text><text fill="#000000" font-family="Arial" font-size="13" lengthAdjust="spacing" textLength="38.2891" x="353.1143" y="419.5234">history</text></g><g class="message" data-participant-1="ChatUC" data-participant-2="SearchUC"><polygon fill="#181818" points="568.3872,501.0732,578.3872,505.0732,568.3872,509.0732,572.3872,505.0732" style="stroke:#181818;stroke-width:1;"/><line style="stroke:#181818;stroke-width:1;" x1="297.8779" x2="574.3872" y1="505.0732" y2="505.0732"/><text fill="#000000" font-family="Arial" font-size="13" lengthAdjust="spacing" textLength="83.8208" x="397.2222" y="455.4722">Search(scope,</text><text fill="#000000" font-family="Arial" font-size="13" lengthAdjust="spacing" textLength="42.6372" x="417.814" y="470.4209">derived</text><text fill="#000000" font-family="Arial" font-size="13" lengthAdjust="spacing" textLength="39.019" x="419.623" y="485.3696">search</text><text fill="#000000" font-family="Arial" font-size="13" lengthAdjust="spacing" textLength="32.519" x="422.873" y="500.3184">input)</text></g><g class="message" data-participant-1="SearchUC" data-participant-2="ChatUC"><polygon fill="#181818" points="308.8779,544.9707,298.8779,548.9707,308.8779,552.9707,304.8779,548.9707" style="stroke:#181818;stroke-width:1;"/><line style="stroke:#181818;stroke-width:1;stroke-dasharray:2,2;" x1="302.8779" x2="584.3872" y1="548.9707" y2="548.9707"/><text fill="#000000" font-family="Arial" font-size="13" lengthAdjust="spacing" textLength="39.019" x="422.123" y="529.2671">search</text><text fill="#000000" font-family="Arial" font-size="13" lengthAdjust="spacing" textLength="38.2891" x="422.488" y="544.2158">results</text></g><g class="message" data-participant-1="ChatUC" data-participant-2="ChatUC"><line style="stroke:#181818;stroke-width:1;" x1="297.8779" x2="339.8779" y1="622.7656" y2="622.7656"/><line style="stroke:#181818;stroke-width:1;" x1="339.8779" x2="339.8779" y1="622.7656" y2="635.7656"/><line style="stroke:#181818;stroke-width:1;" x1="298.8779" x2="339.8779" y1="635.7656" y2="635.7656"/><polygon fill="#181818" points="308.8779,631.7656,298.8779,635.7656,308.8779,639.7656,304.8779,635.7656" style="stroke:#181818;stroke-width:1;"/><text fill="#000000" font-family="Arial" font-size="13" lengthAdjust="spacing" textLength="27.4663" x="316.9766" y="573.1646">build</text><text fill="#000000" font-family="Arial" font-size="13" lengthAdjust="spacing" textLength="40.46" x="304.8779" y="588.1133">prompt</text><text fill="#000000" font-family="Arial" font-size="13" lengthAdjust="spacing" textLength="3.6118" x="345.3379" y="588.1133">&#160;</text><text fill="#000000" font-family="Arial" font-size="13" lengthAdjust="spacing" textLength="7.5918" x="348.9497" y="588.1133">+</text><text fill="#000000" font-family="Arial" font-size="13" lengthAdjust="spacing" textLength="39.0127" x="311.2034" y="603.062">extract</text><text fill="#000000" font-family="Arial" font-size="13" lengthAdjust="spacing" textLength="47.6899" x="306.8647" y="618.0107">citations</text></g><g class="message" data-participant-1="ChatUC" data-participant-2="LLM"><polygon fill="#181818" points="686.9282,660.7144,696.9282,664.7144,686.9282,668.7144,690.9282,664.7144" style="stroke:#181818;stroke-width:1;"/><line style="stroke:#181818;stroke-width:1;" x1="297.8779" x2="692.9282" y1="664.7144" y2="664.7144"/><text fill="#000000" font-family="Arial" font-size="13" lengthAdjust="spacing" textLength="103.3208" x="446.7427" y="659.9595">Generate(prompt)</text></g><g class="message" data-participant-1="LLM" data-participant-2="ChatUC"><polygon fill="#181818" points="308.8779,689.6631,298.8779,693.6631,308.8779,697.6631,304.8779,693.6631" style="stroke:#181818;stroke-width:1;"/><line style="stroke:#181818;stroke-width:1;stroke-dasharray:2,2;" x1="302.8779" x2="702.9282" y1="693.6631" y2="693.6631"/><text fill="#000000" font-family="Arial" font-size="13" lengthAdjust="spacing" textLength="41.9072" x="479.9495" y="688.9082">answer</text></g><g class="message" data-participant-1="ChatUC" data-participant-2="PostgreSQL"><polygon fill="#181818" points="418.436,748.5093,428.436,752.5093,418.436,756.5093,422.436,752.5093" style="stroke:#181818;stroke-width:1;"/><line style="stroke:#181818;stroke-width:1;" x1="297.8779" x2="424.436" y1="752.5093" y2="752.5093"/><text fill="#000000" font-family="Arial" font-size="13" lengthAdjust="spacing" textLength="47.6709" x="340.3215" y="717.8569">INSERT</text><text fill="#000000" font-family="Arial" font-size="13" lengthAdjust="spacing" textLength="25.2891" x="351.5125" y="732.8057">user</text><text fill="#000000" font-family="Arial" font-size="13" lengthAdjust="spacing" textLength="52.749" x="337.7825" y="747.7544">message</text></g><g class="message" data-participant-1="PostgreSQL" data-participant-2="ChatUC"><polygon fill="#181818" points="308.8779,777.458,298.8779,781.458,308.8779,785.458,304.8779,781.458" style="stroke:#181818;stroke-width:1;"/><line style="stroke:#181818;stroke-width:1;stroke-dasharray:2,2;" x1="302.8779" x2="429.436" y1="781.458" y2="781.458"/><text fill="#000000" font-family="Arial" font-size="13" lengthAdjust="spacing" textLength="13.73" x="357.292" y="776.7031">ok</text></g><g class="message" data-participant-1="ChatUC" data-participant-2="PostgreSQL"><polygon fill="#181818" points="418.436,836.3042,428.436,840.3042,418.436,844.3042,422.436,840.3042" style="stroke:#181818;stroke-width:1;"/><line style="stroke:#181818;stroke-width:1;" x1="297.8779" x2="424.436" y1="840.3042" y2="840.3042"/><text fill="#000000" font-family="Arial" font-size="13" lengthAdjust="spacing" textLength="47.6709" x="340.3215" y="805.6519">INSERT</text><text fill="#000000" font-family="Arial" font-size="13" lengthAdjust="spacing" textLength="51.3018" x="338.5061" y="820.6006">assistant</text><text fill="#000000" font-family="Arial" font-size="13" lengthAdjust="spacing" textLength="52.749" x="337.7825" y="835.5493">message</text></g><g class="message" data-participant-1="PostgreSQL" data-participant-2="ChatUC"><polygon fill="#181818" points="308.8779,865.2529,298.8779,869.2529,308.8779,873.2529,304.8779,869.2529" style="stroke:#181818;stroke-width:1;"/><line style="stroke:#181818;stroke-width:1;stroke-dasharray:2,2;" x1="302.8779" x2="429.436" y1="869.2529" y2="869.2529"/><text fill="#000000" font-family="Arial" font-size="13" lengthAdjust="spacing" textLength="13.73" x="357.292" y="864.498">ok</text></g><g class="message" data-participant-1="ChatUC" data-participant-2="PostgreSQL"><polygon fill="#181818" points="418.436,939.0479,428.436,943.0479,418.436,947.0479,422.436,943.0479" style="stroke:#181818;stroke-width:1;"/><line style="stroke:#181818;stroke-width:1;" x1="297.8779" x2="424.436" y1="943.0479" y2="943.0479"/><text fill="#000000" font-family="Arial" font-size="13" lengthAdjust="spacing" textLength="52.73" x="337.792" y="893.4468">UPDATE</text><text fill="#000000" font-family="Arial" font-size="13" lengthAdjust="spacing" textLength="73.709" x="327.3025" y="908.3955">conversation</text><text fill="#000000" font-family="Arial" font-size="13" lengthAdjust="spacing" textLength="20.23" x="354.042" y="923.3442">last</text><text fill="#000000" font-family="Arial" font-size="13" lengthAdjust="spacing" textLength="52.749" x="337.7825" y="938.293">message</text></g><g class="message" data-participant-1="PostgreSQL" data-participant-2="ChatUC"><polygon fill="#181818" points="308.8779,967.9966,298.8779,971.9966,308.8779,975.9966,304.8779,971.9966" style="stroke:#181818;stroke-width:1;"/><line style="stroke:#181818;stroke-width:1;stroke-dasharray:2,2;" x1="302.8779" x2="434.436" y1="971.9966" y2="971.9966"/><text fill="#000000" font-family="Arial" font-size="13" lengthAdjust="spacing" textLength="13.73" x="359.792" y="967.2417">ok</text></g><g class="message" data-participant-1="ChatUC" data-participant-2="Handler"><polygon fill="#181818" points="198.1128,996.9453,188.1128,1000.9453,198.1128,1004.9453,194.1128,1000.9453" style="stroke:#181818;stroke-width:1;"/><line style="stroke:#181818;stroke-width:1;stroke-dasharray:2,2;" x1="192.1128" x2="291.8779" y1="1000.9453" y2="1000.9453"/><text fill="#000000" font-family="Arial" font-size="13" lengthAdjust="spacing" textLength="66.4854" x="206.7527" y="996.1904">ChatOutput</text></g><g class="message" data-participant-1="Handler" data-participant-2="Client"><polygon fill="#181818" points="75.4341,1055.7915,65.4341,1059.7915,75.4341,1063.7915,71.4341,1059.7915" style="stroke:#181818;stroke-width:1;"/><line style="stroke:#181818;stroke-width:1;stroke-dasharray:2,2;" x1="69.4341" x2="181.1128" y1="1059.7915" y2="1059.7915"/><text fill="#000000" font-family="Arial" font-size="13" lengthAdjust="spacing" textLength="41.9072" x="96.718" y="1025.1392">answer</text><text fill="#000000" font-family="Arial" font-size="13" lengthAdjust="spacing" textLength="3.6118" x="138.6252" y="1025.1392">&#160;</text><text fill="#000000" font-family="Arial" font-size="13" lengthAdjust="spacing" textLength="7.5918" x="142.2371" y="1025.1392">+</text><text fill="#000000" font-family="Arial" font-size="13" lengthAdjust="spacing" textLength="47.6899" x="93.8267" y="1040.0879">citations</text><text fill="#000000" font-family="Arial" font-size="13" lengthAdjust="spacing" textLength="3.6118" x="141.5166" y="1040.0879">&#160;</text><text fill="#000000" font-family="Arial" font-size="13" lengthAdjust="spacing" textLength="7.5918" x="145.1284" y="1040.0879">+</text><text fill="#000000" font-family="Arial" font-size="13" lengthAdjust="spacing" textLength="69.3799" x="88.5835" y="1055.0366">suggestions</text></g><!--SRC=[fLHBRXD14DtFAKfU1K4KO8EK1P8P741o4iFOEpQLdehTIhjxwEgn3RVW28WJPCqoN8IRKEFvkCTo889Tg-UzLw-wNatGmH2apWRQX18Df0iCS6RSEk4RRGlqk8IShh4quKnG5xWa67gD9lhE2ypTMjivNADXYh_GfvAiedDYnZaDZPvRK2JLV8Jon8MptA9UaPGVUk_M47mPoornqs0o_ONWnTDOn9KsLyvRyl3iUPAW2ix383LQoi7FhtVVONFtJK5O_FfngmQ03FMtHFX1ArsWu0RR_j-YpGtvBQWv7q3Dc59aggNaOfOcEGQyaZiOJ1o7kQVi_VYZLSwko3C6BLsUBEiEUClRmVe5CaAl5hqIzPKKwG77utEOUBVIUUDNBfAawVhuPMiVJc5ocKtXH8dHwctq2WDrpRKe8TIT2Buw7B5o1Jq1UUGoFDhncdOJD04ihI7kC85MGzHs_OdYkujiz66w3-v4exU0c7WSkzeZvtI8Jf92e8tcK8NoOUQoqNYKzit1OubcbLPeP_PVTaLk8PQS_to_SPlBy3g3xSWhUzjZEmyPjbvHBlkrZSd-UBgeT08zKmrBrawscfF8IaUCJ7IqgrAR70hlbaMGNkI7uOK8IeSwsH6dIkKfl25PHf4zgZcHmIga5QPd2osl9OkHdJhBVmnJoHBRPZp9eIUzRpBkvY_Ao2pJmjtq_q5gDdazd8xwAJ383v8yd92kKc-tgylBCaWAObgpfTroLmNg7qFxs3B6Rdnovd8k8Q-76Uaq0hy1]--></g></svg>