<svg xmlns="http://www.w3.org/2000/svg" xmlns:xlink="http://www.w3.org/1999/xlink" contentStyleType="text/css" data-diagram-type="SEQUENCE" height="1134px" preserveAspectRatio="none" style="width:758px;height:1134px;background:#FFFFFF;" version="1.1" viewBox="0 0 758 1134" width="758px" zoomAndPan="magnify"><defs/><g><g><title>Chat Handler</title><rect fill="#FFFFFF" height="908.5469" style="stroke:#181818;stroke-width:1;" width="10" x="177.1128" y="114.146"/></g><g><title>Chat UseCase</title><rect fill="#FFFFFF" height="805.8032" style="stroke:#181818;stroke-width:1;" width="10" x="287.8779" y="158.0435"/></g><g><title>PostgreSQL</title><rect fill="#FFFFFF" height="28.9487" style="stroke:#181818;stroke-width:1;" width="10" x="430.436" y="225.8896"/></g><g><title>PostgreSQL</title><rect fill="#FFFFFF" height="43.8975" style="stroke:#181818;stroke-width:1;" width="10" x="430.436" y="343.2822"/></g><g><title>PostgreSQL</title><rect fill="#FFFFFF" height="219.4873" style="stroke:#181818;stroke-width:1;" width="10" x="430.436" y="715.4106"/></g><g><title>Search UseCase</title><rect fill="#FFFFFF" height="43.8975" style="stroke:#181818;stroke-width:1;" width="10" x="580.3872" y="467.9746"/></g><g><title>LLM Provider</title><rect fill="#FFFFFF" height="28.9487" style="stroke:#181818;stroke-width:1;" width="10" x="698.9282" y="627.6157"/></g><rect fill="none" height="222.1362" rx="6" ry="6" style="stroke:#000000;stroke-width:1.5;" width="295.1162" x="230.3574" y="173.0435"/><g><title>Client .. x.c th.c</title><rect fill="#000000" fill-opacity="0.00000" height="957.4956" width="8" x="60.4341" y="83.1973"/><line style="stroke:#181818;stroke-width:0.5;stroke-dasharray:5,5;" x1="64" x2="64" y1="83.1973" y2="1040.6929"/></g><g><title>Chat Handler</title><rect fill="#000000" fill-opacity="0.00000" height="957.4956" width="8" x="178.1128" y="83.1973"/><line style="stroke:#181818;stroke-width:0.5;stroke-dasharray:5,5;" x1="181.8682" x2="181.8682" y1="83.1973" y2="1040.6929"/></g><g><title>Chat UseCase</title><rect fill="#000000" fill-opacity="0.00000" height="957.4956" width="8" x="288.8779" y="83.1973"/><line style="stroke:#181818;stroke-width:0.5;stroke-dasharray:5,5;" x1="292.3574" x2="292.3574" y1="83.1973" y2="1040.6929"/></g><g><title>PostgreSQL</title><rect fill="#000000" fill-opacity="0.00000" height="957.4956" width="8" x="431.436" y="83.1973"/><line style="stroke:#181818;stroke-width:0.5;stroke-dasharray:5,5;" x1="435.3984" x2="435.3984" y1="83.1973" y2="1040.6929"/></g><g><title>Search UseCase</title><rect fill="#000000" fill-opacity="0.00000" height="957.4956" width="8" x="581.3872" y="83.1973"/><line style="stroke:#181818;stroke-width:0.5;stroke-dasharray:5,5;" x1="584.4736" x2="584.4736" y1="83.1973" y2="1040.6929"/></g><g><title>LLM Provider</title><rect fill="#000000" fill-opacity="0.00000" height="957.4956" width="8" x="699.9282" y="83.1973"/><line style="stroke:#181818;stroke-width:0.5;stroke-dasharray:5,5;" x1="703.3008" x2="703.3008" y1="83.1973" y2="1040.6929"/></g><g class="participant participant-head" data-participant="Client"><text fill="#000000" font-family="Arial" font-size="14" lengthAdjust="spacing" textLength="112.8682" x="5" y="80.2305">Client &#273;&#227; x&#225;c th&#7921;c</text><ellipse cx="64.4341" cy="15.5986" fill="#E2E2F0" rx="8" ry="8" style="stroke:#181818;stroke-width:0.5;"/><path d="M64.4341,23.5986 L64.4341,50.5986 M51.4341,31.5986 L77.4341,31.5986 M64.4341,50.5986 L51.4341,65.5986 M64.4341,50.5986 L77.4341,65.5986" fill="none" style="stroke:#181818;stroke-width:0.5;"/></g><g class="participant participant-tail" data-participant="Client"><text fill="#000000" font-family="Arial" font-size="14" lengthAdjust="spacing" textLength="112.8682" x="5" y="1052.8247">Client &#273;&#227; x&#225;c th&#7921;c</text><ellipse cx="64.4341" cy="1064.2915" fill="#E2E2F0" rx="8" ry="8" style="stroke:#181818;stroke-width:0.5;"/><path d="M64.4341,1072.2915 L64.4341,1099.2915 M51.4341,1080.2915 L77.4341,1080.2915 M64.4341,1099.2915 L51.4341,1114.2915 M64.4341,1099.2915 L77.4341,1114.2915" fill="none" style="stroke:#181818;stroke-width:0.5;"/></g><g class="participant participant-head" data-participant="Handler"><rect fill="#E2E2F0" height="30.0986" rx="6" ry="6" style="stroke:#181818;stroke-width:0.5;" width="96.4893" x="133.8682" y="52.0986"/><text fill="#000000" font-family="Arial" font-size="14" lengthAdjust="spacing" textLength="82.4893" x="140.8682" y="72.2305">Chat Handler</text></g><g class="participant participant-tail" data-participant="Handler"><rect fill="#E2E2F0" height="30.0986" rx="6" ry="6" style="stroke:#181818;stroke-width:0.5;" width="96.4893" x="133.8682" y="1039.6929"/><text fill="#000000" font-family="Arial" font-size="14" lengthAdjust="spacing" textLength="82.4893" x="140.8682" y="1059.8247">Chat Handler</text></g><g class="participant participant-head" data-participant="ChatUC"><rect fill="#E2E2F0" height="30.0986" rx="6" ry="6" style="stroke:#181818;stroke-width:0.5;" width="105.041" x="240.3574" y="52.0986"/><text fill="#000000" font-family="Arial" font-size="14" lengthAdjust="spacing" textLength="91.041" x="247.3574" y="72.2305">Chat UseCase</text></g><g class="participant participant-tail" data-participant="ChatUC"><rect fill="#E2E2F0" height="30.0986" rx="6" ry="6" style="stroke:#181818;stroke-width:0.5;" width="105.041" x="240.3574" y="1039.6929"/><text fill="#000000" font-family="Arial" font-size="14" lengthAdjust="spacing" textLength="91.041" x="247.3574" y="1059.8247">Chat UseCase</text></g><g class="participant participant-head" data-participant="PostgreSQL"><text fill="#000000" font-family="Arial" font-size="14" lengthAdjust="spacing" textLength="76.2617" x="394.3052" y="64.1318">PostgreSQL</text><text fill="#000000" font-family="Arial" font-size="14" lengthAdjust="spacing" textLength="154.0752" x="355.3984" y="80.2305">conversations/messages</text><path d="M417.436,15 C417.436,5 435.436,5 435.436,5 C435.436,5 453.436,5 453.436,15 L453.436,41 C453.436,51 435.436,51 435.436,51 C435.436,51 417.436,51 417.436,41 L417.436,15" fill="#E2E2F0" style="stroke:#181818;stroke-width:0.5;"/><path d="M417.436,15 C417.436,25 435.436,25 435.436,25 C435.436,25 453.436,25 453.436,15" fill="none" style="stroke:#181818;stroke-width:0.5;"/></g><g class="participant participant-tail" data-participant="PostgreSQL"><text fill="#000000" font-family="Arial" font-size="14" lengthAdjust="spacing" textLength="76.2617" x="394.3052" y="1052.8247">PostgreSQL</text><text fill="#000000" font-family="Arial" font-size="14" lengthAdjust="spacing" textLength="154.0752" x="355.3984" y="1068.9233">conversations/messages</text><path d="M417.436,1081.8901 C417.436,1071.8901 435.436,1071.8901 435.436,1071.8901 C435.436,1071.8901 453.436,1071.8901 453.436,1081.8901 L453.436,1107.8901 C453.436,1117.8901 435.436,1117.8901 435.436,1117.8901 C435.436,1117.8901 417.436,1117.8901 417.436,1107.8901 L417.436,1081.8901" fill="#E2E2F0" style="stroke:#181818;stroke-width:0.5;"/><path d="M417.436,1081.8901 C417.436,1091.8901 435.436,1091.8901 435.436,1091.8901 C435.436,1091.8901 453.436,1091.8901 453.436,1081.8901" fill="none" style="stroke:#181818;stroke-width:0.5;"/></g><g class="participant participant-head" data-participant="SearchUC"><rect fill="#E2E2F0" height="30.0986" rx="6" ry="6" style="stroke:#181818;stroke-width:0.5;" width="119.8271" x="525.4736" y="52.0986"/><text fill="#000000" font-family="Arial" font-size="14" lengthAdjust="spacing" textLength="105.8271" x="532.4736" y="72.2305">Search UseCase</text></g><g class="participant participant-tail" data-participant="SearchUC"><rect fill="#E2E2F0" height="30.0986" rx="6" ry="6" style="stroke:#181818;stroke-width:0.5;" width="119.8271" x="525.4736" y="1039.6929"/><text fill="#000000" font-family="Arial" font-size="14" lengthAdjust="spacing" textLength="105.8271" x="532.4736" y="1059.8247">Search UseCase</text></g><g class="participant participant-head" data-participant="LLM"><rect fill="#E2E2F0" height="30.0986" rx="6" ry="6" style="stroke:#181818;stroke-width:0.5;" width="97.2549" x="655.3008" y="52.0986"/><text fill="#000000" font-family="Arial" font-size="14" lengthAdjust="spacing" textLength="83.2549" x="662.3008" y="72.2305">LLM Provider</text></g><g class="participant participant-tail" data-participant="LLM"><rect fill="#E2E2F0" height="30.0986" rx="6" ry="6" style="stroke:#181818;stroke-width:0.5;" width="97.2549" x="655.3008" y="1039.6929"/><text fill="#000000" font-family="Arial" font-size="14" lengthAdjust="spacing" textLength="83.2549" x="662.3008" y="1059.8247">LLM Provider</text></g><g><title>Chat Handler</title><rect fill="#FFFFFF" height="908.5469" style="stroke:#181818;stroke-width:1;" width="10" x="177.1128" y="114.146"/></g><g><title>Chat UseCase</title><rect fill="#FFFFFF" height="805.8032" style="stroke:#181818;stroke-width:1;" width="10" x="287.8779" y="158.0435"/></g><g><title>PostgreSQL</title><rect fill="#FFFFFF" height="28.9487" style="stroke:#181818;stroke-width:1;" width="10" x="430.436" y="225.8896"/></g><g><title>PostgreSQL</title><rect fill="#FFFFFF" height="43.8975" style="stroke:#181818;stroke-width:1;" width="10" x="430.436" y="343.2822"/></g><g><title>PostgreSQL</title><rect fill="#FFFFFF" height="219.4873" style="stroke:#181818;stroke-width:1;" width="10" x="430.436" y="715.4106"/></g><g><title>Search UseCase</title><rect fill="#FFFFFF" height="43.8975" style="stroke:#181818;stroke-width:1;" width="10" x="580.3872" y="467.9746"/></g><g><title>LLM Provider</title><rect fill="#FFFFFF" height="28.9487" style="stroke:#181818;stroke-width:1;" width="10" x="698.9282" y="627.6157"/></g><g class="message" data-participant-1="Client" data-participant-2="Handler"><polygon fill="#181818" points="165.1128,110.146,175.1128,114.146,165.1128,118.146,169.1128,114.146" style="stroke:#181818;stroke-width:1;"/><line style="stroke:#181818;stroke-width:1;" x1="64.4341" x2="171.1128" y1="114.146" y2="114.146"/><text fill="#000000" font-family="Arial" font-size="13" lengthAdjust="spacing" textLength="35.3945" x="87.1785" y="109.3911">POST</text><text fill="#000000" font-family="Arial" font-size="13" lengthAdjust="spacing" textLength="3.6118" x="122.573" y="109.3911">&#160;</text><text fill="#000000" font-family="Arial" font-size="13" lengthAdjust="spacing" textLength="28.1836" x="126.1848" y="109.3911">/chat</text></g><g class="message" data-participant-1="Handler" data-participant-2="ChatUC"><polygon fill="#181818" points="275.8779,154.0435,285.8779,158.0435,275.8779,162.0435,279.8779,158.0435" style="stroke:#181818;stroke-width:1;"/><line style="stroke:#181818;stroke-width:1;" x1="187.1128" x2="281.8779" y1="158.0435" y2="158.0435"/><text fill="#000000" font-family="Arial" font-size="13" lengthAdjust="spacing" textLength="70.0908" x="202.45" y="138.3398">Chat(scope,</text><text fill="#000000" font-family="Arial" font-size="13" lengthAdjust="spacing" textLength="32.519" x="221.2358" y="153.2886">input)</text></g><path d="M236.3574,173.0435 L290.5283,173.0435 L290.5283,179.9922 L280.5283,189.9922 L230.3574,189.9922 L230.3574,179.0435 A6,6 0 0 1 236.3574,173.0435" fill="#EEEEEE" style="stroke:#000000;stroke-width:1.5;"/><rect fill="none" height="222.1362" rx="6" ry="6" style="stroke:#000000;stroke-width:1.5;" width="295.1162" x="230.3574" y="173.0435"/><text fill="#000000" font-family="Arial" font-size="13" font-weight="bold" lengthAdjust="spacing" textLength="15.1709" x="245.3574" y="186.2373">alt</text><text fill="#000000" font-family="Arial" font-size="11" font-weight="bold" lengthAdjust="spacing" textLength="100.2407" x="305.5283" y="185.3613">[new conversation]</text><g class="message" data-participant-1="ChatUC" data-participant-2="PostgreSQL"><polygon fill="#181818" points="418.436,221.8896,428.436,225.8896,418.436,229.8896,422.436,225.8896" style="stroke:#181818;stroke-width:1;"/><line style="stroke:#181818;stroke-width:1;" x1="297.8779" x2="424.436" y1="225.8896" y2="225.8896"/><text fill="#000000" font-family="Arial" font-size="13" lengthAdjust="spacing" textLength="47.6709" x="340.3215" y="206.186">INSERT</text><text fill="#000000" font-family="Arial" font-size="13" lengthAdjust="spacing" textLength="73.709" x="327.3025" y="221.1348">conversation</text></g><g class="message" data-participant-1="PostgreSQL" data-participant-2="ChatUC"><polygon fill="#181818" points="308.8779,250.8384,298.8779,254.8384,308.8779,258.8384,304.8779,254.8384" style="stroke:#181818;stroke-width:1;"/><line style="stroke:#181818;stroke-width:1;stroke-dasharray:2,2;" x1="302.8779" x2="434.436" y1="254.8384" y2="254.8384"/><text fill="#000000" font-family="Arial" font-size="13" lengthAdjust="spacing" textLength="73.709" x="329.8025" y="250.0835">conversation</text></g><line style="stroke:#000000;stroke-width:1;stroke-dasharray:2,2;" x1="230.3574" x2="525.4736" y1="263.8384" y2="263.8384"/><text fill="#000000" font-family="Arial" font-size="11" font-weight="bold" lengthAdjust="spacing" textLength="120.4146" x="235.3574" y="274.1563">[existing conversation]</text><g class="message" data-participant-1="ChatUC" data-participant-2="PostgreSQL"><polygon fill="#181818" points="418.436,339.2822,428.436,343.2822,418.436,347.2822,422.436,343.2822" style="stroke:#181818;stroke-width:1;"/><line style="stroke:#181818;stroke-width:1;" x1="297.8779" x2="424.436" y1="343.2822" y2="343.2822"/><text fill="#000000" font-family="Arial" font-size="13" lengthAdjust="spacing" textLength="50.5718" x="338.8711" y="293.6812">SELECT</text><text fill="#000000" font-family="Arial" font-size="13" lengthAdjust="spacing" textLength="73.709" x="327.3025" y="308.6299">conversation</text><text fill="#000000" font-family="Arial" font-size="13" lengthAdjust="spacing" textLength="7.5918" x="340.4897" y="323.5786">+</text><text fill="#000000" font-family="Arial" font-size="13" lengthAdjust="spacing" textLength="3.6118" x="348.0815" y="323.5786">&#160;</text><text fill="#000000" font-family="Arial" font-size="13" lengthAdjust="spacing" textLength="36.1309" x="351.6934" y="323.5786">recent</text><text fill="#000000" font-family="Arial" font-size="13" lengthAdjust="spacing" textLength="59.249" x="334.5325" y="338.5273">messages</text></g><g class="message" data-participant-1="PostgreSQL" data-participant-2="ChatUC"><polygon fill="#181818" points="308.8779,383.1797,298.8779,387.1797,308.8779,391.1797,304.8779,387.1797" style="stroke:#181818;stroke-width:1;"/><line style="stroke:#181818;stroke-width:1;stroke-dasharray:2,2;" x1="302.8779" x2="434.436" y1="387.1797" y2="387.1797"/><text fill="#000000" font-family="Arial" font-size="13" lengthAdjust="spacing" textLength="73.709" x="329.8025" y="367.4761">conversation</text><text fill="#000000" font-family="Arial" font-size="13" lengthAdjust="spacing" textLength="7.5918" x="341.9106" y="382.4248">+</text><text fill="#000000" font-family="Arial" font-size="13" lengthAdjust="spacing" textLength="3.6118" x="349.5024" y="382.4248">&#160;</text><text fill="#000000" font-family="Arial" font-size="13" lengthAdjust="spacing" textLength="38.2891" x="353.1143" y="382.4248">history</text></g><g class="message" data-participant-1="ChatUC" data-participant-2="SearchUC"><polygon fill="#181818" points="568.3872,463.9746,578.3872,467.9746,568.3872,471.9746,572.3872,467.9746" style="stroke:#181818;stroke-width:1;"/><line style="stroke:#181818;stroke-width:1;" x1="297.8779" x2="574.3872" y1="467.9746" y2="467.9746"/><text fill="#000000" font-family="Arial" font-size="13" lengthAdjust="spacing" textLength="83.8208" x="397.2222" y="418.3735">Search(scope,</text><text fill="#000000" font-family="Arial" font-size="13" lengthAdjust="spacing" textLength="42.6372" x="417.814" y="433.3223">derived</text><text fill="#000000" font-family="Arial" font-size="13" lengthAdjust="spacing" textLength="39.019" x="419.623" y="448.271">search</text><text fill="#000000" font-family="Arial" font-size="13" lengthAdjust="spacing" textLength="32.519" x="422.873" y="463.2197">input)</text></g><g class="message" data-participant-1="SearchUC" data-participant-2="ChatUC"><polygon fill="#181818" points="308.8779,507.8721,298.8779,511.8721,308.8779,515.8721,304.8779,511.8721" style="stroke:#181818;stroke-width:1;"/><line style="stroke:#181818;stroke-width:1;stroke-dasharray:2,2;" x1="302.8779" x2="584.3872" y1="511.8721" y2="511.8721"/><text fill="#000000" font-family="Arial" font-size="13" lengthAdjust="spacing" textLength="39.019" x="422.123" y="492.1685">search</text><text fill="#000000" font-family="Arial" font-size="13" lengthAdjust="spacing" textLength="38.2891" x="422.488" y="507.1172">results</text></g><g class="message" data-participant-1="ChatUC" data-participant-2="ChatUC"><line style="stroke:#181818;stroke-width:1;" x1="297.8779" x2="339.8779" y1="585.667" y2="585.667"/><line style="stroke:#181818;stroke-width:1;" x1="339.8779" x2="339.8779" y1="585.667" y2="598.667"/><line style="stroke:#181818;stroke-width:1;" x1="298.8779" x2="339.8779" y1="598.667" y2="598.667"/><polygon fill="#181818" points="308.8779,594.667,298.8779,598.667,308.8779,602.667,304.8779,598.667" style="stroke:#181818;stroke-width:1;"/><text fill="#000000" font-family="Arial" font-size="13" lengthAdjust="spacing" textLength="27.4663" x="316.9766" y="536.0659">build</text><text fill="#000000" font-family="Arial" font-size="13" lengthAdjust="spacing" textLength="40.46" x="304.8779" y="551.0146">prompt</text><text fill="#000000" font-family="Arial" font-size="13" lengthAdjust="spacing" textLength="3.6118" x="345.3379" y="551.0146">&#160;</text><text fill="#000000" font-family="Arial" font-size="13" lengthAdjust="spacing" textLength="7.5918" x="348.9497" y="551.0146">+</text><text fill="#000000" font-family="Arial" font-size="13" lengthAdjust="spacing" textLength="39.0127" x="311.2034" y="565.9634">extract</text><text fill="#000000" font-family="Arial" font-size="13" lengthAdjust="spacing" textLength="47.6899" x="306.8647" y="580.9121">citations</text></g><g class="message" data-participant-1="ChatUC" data-participant-2="LLM"><polygon fill="#181818" points="686.9282,623.6157,696.9282,627.6157,686.9282,631.6157,690.9282,627.6157" style="stroke:#181818;stroke-width:1;"/><line style="stroke:#181818;stroke-width:1;" x1="297.8779" x2="692.9282" y1="627.6157" y2="627.6157"/><text fill="#000000" font-family="Arial" font-size="13" lengthAdjust="spacing" textLength="103.3208" x="446.7427" y="622.8608">Generate(prompt)</text></g><g class="message" data-participant-1="LLM" data-participant-2="ChatUC"><polygon fill="#181818" points="308.8779,652.5645,298.8779,656.5645,308.8779,660.5645,304.8779,656.5645" style="stroke:#181818;stroke-width:1;"/><line style="stroke:#181818;stroke-width:1;stroke-dasharray:2,2;" x1="302.8779" x2="702.9282" y1="656.5645" y2="656.5645"/><text fill="#000000" font-family="Arial" font-size="13" lengthAdjust="spacing" textLength="41.9072" x="479.9495" y="651.8096">answer</text></g><g class="message" data-participant-1="ChatUC" data-participant-2="PostgreSQL"><polygon fill="#181818" points="418.436,711.4106,428.436,715.4106,418.436,719.4106,422.436,715.4106" style="stroke:#181818;stroke-width:1;"/><line style="stroke:#181818;stroke-width:1;" x1="297.8779" x2="424.436" y1="715.4106" y2="715.4106"/><text fill="#000000" font-family="Arial" font-size="13" lengthAdjust="spacing" textLength="47.6709" x="340.3215" y="680.7583">INSERT</text><text fill="#000000" font-family="Arial" font-size="13" lengthAdjust="spacing" textLength="25.2891" x="351.5125" y="695.707">user</text><text fill="#000000" font-family="Arial" font-size="13" lengthAdjust="spacing" textLength="52.749" x="337.7825" y="710.6558">message</text></g><g class="message" data-participant-1="PostgreSQL" data-participant-2="ChatUC"><polygon fill="#181818" points="308.8779,740.3594,298.8779,744.3594,308.8779,748.3594,304.8779,744.3594" style="stroke:#181818;stroke-width:1;"/><line style="stroke:#181818;stroke-width:1;stroke-dasharray:2,2;" x1="302.8779" x2="429.436" y1="744.3594" y2="744.3594"/><text fill="#000000" font-family="Arial" font-size="13" lengthAdjust="spacing" textLength="13.73" x="357.292" y="739.6045">ok</text></g><g class="message" data-participant-1="ChatUC" data-participant-2="PostgreSQL"><polygon fill="#181818" points="418.436,799.2056,428.436,803.2056,418.436,807.2056,422.436,803.2056" style="stroke:#181818;stroke-width:1;"/><line style="stroke:#181818;stroke-width:1;" x1="297.8779" x2="424.436" y1="803.2056" y2="803.2056"/><text fill="#000000" font-family="Arial" font-size="13" lengthAdjust="spacing" textLength="47.6709" x="340.3215" y="768.5532">INSERT</text><text fill="#000000" font-family="Arial" font-size="13" lengthAdjust="spacing" textLength="51.3018" x="338.5061" y="783.502">assistant</text><text fill="#000000" font-family="Arial" font-size="13" lengthAdjust="spacing" textLength="52.749" x="337.7825" y="798.4507">message</text></g><g class="message" data-participant-1="PostgreSQL" data-participant-2="ChatUC"><polygon fill="#181818" points="308.8779,828.1543,298.8779,832.1543,308.8779,836.1543,304.8779,832.1543" style="stroke:#181818;stroke-width:1;"/><line style="stroke:#181818;stroke-width:1;stroke-dasharray:2,2;" x1="302.8779" x2="429.436" y1="832.1543" y2="832.1543"/><text fill="#000000" font-family="Arial" font-size="13" lengthAdjust="spacing" textLength="13.73" x="357.292" y="827.3994">ok</text></g><g class="message" data-participant-1="ChatUC" data-participant-2="PostgreSQL"><polygon fill="#181818" points="418.436,901.9492,428.436,905.9492,418.436,909.9492,422.436,905.9492" style="stroke:#181818;stroke-width:1;"/><line style="stroke:#181818;stroke-width:1;" x1="297.8779" x2="424.436" y1="905.9492" y2="905.9492"/><text fill="#000000" font-family="Arial" font-size="13" lengthAdjust="spacing" textLength="52.73" x="337.792" y="856.3481">UPDATE</text><text fill="#000000" font-family="Arial" font-size="13" lengthAdjust="spacing" textLength="73.709" x="327.3025" y="871.2969">conversation</text><text fill="#000000" font-family="Arial" font-size="13" lengthAdjust="spacing" textLength="20.23" x="354.042" y="886.2456">last</text><text fill="#000000" font-family="Arial" font-size="13" lengthAdjust="spacing" textLength="52.749" x="337.7825" y="901.1943">message</text></g><g class="message" data-participant-1="PostgreSQL" data-participant-2="ChatUC"><polygon fill="#181818" points="308.8779,930.8979,298.8779,934.8979,308.8779,938.8979,304.8779,934.8979" style="stroke:#181818;stroke-width:1;"/><line style="stroke:#181818;stroke-width:1;stroke-dasharray:2,2;" x1="302.8779" x2="434.436" y1="934.8979" y2="934.8979"/><text fill="#000000" font-family="Arial" font-size="13" lengthAdjust="spacing" textLength="13.73" x="359.792" y="930.1431">ok</text></g><g class="message" data-participant-1="ChatUC" data-participant-2="Handler"><polygon fill="#181818" points="198.1128,959.8467,188.1128,963.8467,198.1128,967.8467,194.1128,963.8467" style="stroke:#181818;stroke-width:1;"/><line style="stroke:#181818;stroke-width:1;stroke-dasharray:2,2;" x1="192.1128" x2="291.8779" y1="963.8467" y2="963.8467"/><text fill="#000000" font-family="Arial" font-size="13" lengthAdjust="spacing" textLength="66.4854" x="206.7527" y="959.0918">ChatOutput</text></g><g class="message" data-participant-1="Handler" data-participant-2="Client"><polygon fill="#181818" points="75.4341,1018.6929,65.4341,1022.6929,75.4341,1026.6929,71.4341,1022.6929" style="stroke:#181818;stroke-width:1;"/><line style="stroke:#181818;stroke-width:1;stroke-dasharray:2,2;" x1="69.4341" x2="181.1128" y1="1022.6929" y2="1022.6929"/><text fill="#000000" font-family="Arial" font-size="13" lengthAdjust="spacing" textLength="41.9072" x="96.718" y="988.0405">answer</text><text fill="#000000" font-family="Arial" font-size="13" lengthAdjust="spacing" textLength="3.6118" x="138.6252" y="988.0405">&#160;</text><text fill="#000000" font-family="Arial" font-size="13" lengthAdjust="spacing" textLength="7.5918" x="142.2371" y="988.0405">+</text><text fill="#000000" font-family="Arial" font-size="13" lengthAdjust="spacing" textLength="47.6899" x="93.8267" y="1002.9893">citations</text><text fill="#000000" font-family="Arial" font-size="13" lengthAdjust="spacing" textLength="3.6118" x="141.5166" y="1002.9893">&#160;</text><text fill="#000000" font-family="Arial" font-size="13" lengthAdjust="spacing" textLength="7.5918" x="145.1284" y="1002.9893">+</text><text fill="#000000" font-family="Arial" font-size="13" lengthAdjust="spacing" textLength="69.3799" x="88.5835" y="1017.938">suggestions</text></g><!--SRC=[fLHBRXD14DttAKfU1K4KO8EK1P8nvYCvYM7i7PjAJyLkPTmzTFNOXbjm1CG9MBCC5-4cr7XcsZsH0n7iMZtrNhtgzshusjWIFQuWfokiYl3AsN2EAuAXDrWeZjzvYRdR6Bk0AooOqY_qiIAhwOoOSK73mYmiQBA1V5BbYKjdkQjwGONR3Brt6mY-IkbMk6rhClEPuDdZbCHLDjVEM_BmvAbIg8FpC1WLHjh1poytts1xyrL3MFxwyLqF01cQRqhmmMXJejGDHaiCy0PjNf3V5RNd0rLpfX4oDLHoCH-f70DUoXqCfex3mbFsRlB1QcVNv1c3aIbFLiq4lCFjo_eDCaAlbxqMpPKqwHLE9cSmzMvjybQlN2ZLJdtyl9CFfp2zo6PmeaLe_JPcZO7YS5sL09f9fBu-7B5s9Jq2UUGgFDZZsd4L5W4iRI2TK4778Mpx-OJnxNasVZ-xNHn9axU057YSghe5pkaGd2I5G5l3eGxb_SHbuybur1S73oMQTLgXy-o_v0hTKYGv_-bkuJONywB0pl9QtkxO-I5ccpNbib-xcDos9qOb4lH4jIXPEzbgLecK24n4HDXbPOeSIkzMPP1PQ1ky046Rq2GxmTIfF8NN9Ciej4SD9X5OXxIkwSb2onl9OYAdoV8VmrInnBQrHnrwqhkSSTT_OKPcSGltxly3rNpwSZWRzrDG8D-Byd12OgVURjUN5rMG5AImTalZSjSDcXz3zzXYOxHFpbmj9EIDcGbFI_0R]--></g></svg>