<svg xmlns="http://www.w3.org/2000/svg" xmlns:xlink="http://www.w3.org/1999/xlink" contentStyleType="text/css" data-diagram-type="SEQUENCE" height="989px" preserveAspectRatio="none" style="width:1490px;height:989px;background:#FFFFFF;" version="1.1" viewBox="0 0 1490 989" width="1490px" zoomAndPan="magnify"><title>Canonical Crawl Execution and Completion Flow</title><defs/><g><text fill="#000000" font-family="Arial" font-size="14" font-weight="bold" lengthAdjust="spacing" textLength="325.1445" x="581.0288" y="28.1318">Canonical Crawl Execution and Completion Flow</text><g><title>WorkerRuntime</title><rect fill="#FFFFFF" height="760.957" style="stroke:#181818;stroke-width:1;" width="10" x="269.2817" y="146.292"/></g><g><title>Queue Handler Registry</title><rect fill="#FFFFFF" height="28.9487" style="stroke:#181818;stroke-width:1;" width="10" x="455.0288" y="232.1382"/></g><g><title>Platform Handler</title><rect fill="#FFFFFF" height="116.7437" style="stroke:#181818;stroke-width:1;" width="10" x="606.6421" y="304.9844"/></g><g><title>TinLikeSub SDK</title><rect fill="#FFFFFF" height="43.8975" style="stroke:#181818;stroke-width:1;" width="10" x="734.521" y="348.8818"/></g><g><title>StorageAdapter</title><rect fill="#FFFFFF" height="294.9824" style="stroke:#181818;stroke-width:1;" width="10" x="858.9136" y="495.5229"/></g><g><title>MinIO</title><rect fill="#FFFFFF" height="58.8462" style="stroke:#181818;stroke-width:1;" width="10" x="985.418" y="563.3691"/></g><g><title>Local output</title><rect fill="#FFFFFF" height="43.8975" style="stroke:#181818;stroke-width:1;" width="10" x="1066.228" y="680.7617"/></g><g><title>CompletionPublisher</title><rect fill="#FFFFFF" height="72.8462" style="stroke:#181818;stroke-width:1;" width="10" x="1192.9585" y="834.4028"/></g><rect fill="none" height="222.1362" rx="6" ry="6" style="stroke:#000000;stroke-width:1.5;" width="328.4897" x="797.8794" y="510.5229"/><g><title>RabbitMQ queue</title><rect fill="#000000" fill-opacity="0.00000" height="824.8545" width="8" x="102.8306" y="100.3945"/><line style="stroke:#181818;stroke-width:0.5;stroke-dasharray:5,5;" x1="106" x2="106" y1="100.3945" y2="925.249"/></g><g><title>WorkerRuntime</title><rect fill="#000000" fill-opacity="0.00000" height="824.8545" width="8" x="270.2817" y="100.3945"/><line style="stroke:#181818;stroke-width:0.5;stroke-dasharray:5,5;" x1="273.6611" x2="273.6611" y1="100.3945" y2="925.249"/></g><g><title>Queue Handler Registry</title><rect fill="#000000" fill-opacity="0.00000" height="824.8545" width="8" x="456.0288" y="100.3945"/><line style="stroke:#181818;stroke-width:0.5;stroke-dasharray:5,5;" x1="459.936" x2="459.936" y1="100.3945" y2="925.249"/></g><g><title>Platform Handler</title><rect fill="#000000" fill-opacity="0.00000" height="824.8545" width="8" x="607.6421" y="100.3945"/><line style="stroke:#181818;stroke-width:0.5;stroke-dasharray:5,5;" x1="611.1216" x2="611.1216" y1="100.3945" y2="925.249"/></g><g><title>TinLikeSub SDK</title><rect fill="#000000" fill-opacity="0.00000" height="824.8545" width="8" x="735.521" y="100.3945"/><line style="stroke:#181818;stroke-width:0.5;stroke-dasharray:5,5;" x1="739.1626" x2="739.1626" y1="100.3945" y2="925.249"/></g><g><title>StorageAdapter</title><rect fill="#000000" fill-opacity="0.00000" height="824.8545" width="8" x="859.9136" y="100.3945"/><line style="stroke:#181818;stroke-width:0.5;stroke-dasharray:5,5;" x1="863.8794" x2="863.8794" y1="100.3945" y2="925.249"/></g><g><title>MinIO</title><rect fill="#000000" fill-opacity="0.00000" height="824.8545" width="8" x="986.418" y="100.3945"/><line style="stroke:#181818;stroke-width:0.5;stroke-dasharray:5,5;" x1="989.749" x2="989.749" y1="100.3945" y2="925.249"/></g><g><title>Local output</title><rect fill="#000000" fill-opacity="0.00000" height="824.8545" width="8" x="1067.228" y="100.3945"/><line style="stroke:#181818;stroke-width:0.5;stroke-dasharray:5,5;" x1="1071.0869" x2="1071.0869" y1="100.3945" y2="925.249"/></g><g><title>CompletionPublisher</title><rect fill="#000000" fill-opacity="0.00000" height="824.8545" width="8" x="1193.9585" y="100.3945"/><line style="stroke:#181818;stroke-width:0.5;stroke-dasharray:5,5;" x1="1197.3691" x2="1197.3691" y1="100.3945" y2="925.249"/></g><g><title>RabbitMQ queue</title><rect fill="#000000" fill-opacity="0.00000" height="824.8545" width="8" x="1377.375" y="100.3945"/><line style="stroke:#181818;stroke-width:0.5;stroke-dasharray:5,5;" x1="1380.5479" x2="1380.5479" y1="100.3945" y2="925.249"/></g><g class="participant participant-head" data-participant="PlatformQueue"><path d="M10,58.1973 L203.6611,58.1973 C208.6611,58.1973 208.6611,79.2959 208.6611,79.2959 C208.6611,79.2959 208.6611,100.3945 203.6611,100.3945 L10,100.3945 C5,100.3945 5,79.2959 5,79.2959 C5,79.2959 5,58.1973 10,58.1973" fill="#E2E2F0" style="stroke:#181818;stroke-width:0.5;"/><path d="M203.6611,58.1973 C198.6611,58.1973 198.6611,79.2959 198.6611,79.2959 C198.6611,100.3945 203.6611,100.3945 203.6611,100.3945" fill="none" style="stroke:#181818;stroke-width:0.5;"/><text fill="#000000" font-family="Arial" font-size="14" lengthAdjust="spacing" textLength="105.8408" x="48.9102" y="76.3291">RabbitMQ queue</text><text fill="#000000" font-family="Arial" font-size="14" lengthAdjust="spacing" textLength="183.6611" x="10" y="92.4277">tiktok/facebook/youtube tasks</text></g><g class="participant participant-tail" data-participant="PlatformQueue"><path d="M10,924.249 L203.6611,924.249 C208.6611,924.249 208.6611,945.3477 208.6611,945.3477 C208.6611,945.3477 208.6611,966.4463 203.6611,966.4463 L10,966.4463 C5,966.4463 5,945.3477 5,945.3477 C5,945.3477 5,924.249 10,924.249" fill="#E2E2F0" style="stroke:#181818;stroke-width:0.5;"/><path d="M203.6611,924.249 C198.6611,924.249 198.6611,945.3477 198.6611,945.3477 C198.6611,966.4463 203.6611,966.4463 203.6611,966.4463" fill="none" style="stroke:#181818;stroke-width:0.5;"/><text fill="#000000" font-family="Arial" font-size="14" lengthAdjust="spacing" textLength="105.8408" x="48.9102" y="942.3809">RabbitMQ queue</text><text fill="#000000" font-family="Arial" font-size="14" lengthAdjust="spacing" textLength="183.6611" x="10" y="958.4795">tiktok/facebook/youtube tasks</text></g><g class="participant participant-head" data-participant="Worker"><rect fill="#E2E2F0" height="30.0986" rx="6" ry="6" style="stroke:#181818;stroke-width:0.5;" width="111.2412" x="218.6611" y="69.2959"/><text fill="#000000" font-family="Arial" font-size="14" lengthAdjust="spacing" textLength="97.2412" x="225.6611" y="89.4277">WorkerRuntime</text></g><g class="participant participant-tail" data-participant="Worker"><rect fill="#E2E2F0" height="30.0986" rx="6" ry="6" style="stroke:#181818;stroke-width:0.5;" width="111.2412" x="218.6611" y="924.249"/><text fill="#000000" font-family="Arial" font-size="14" lengthAdjust="spacing" textLength="97.2412" x="225.6611" y="944.3809">WorkerRuntime</text></g><g class="participant participant-head" data-participant="Registry"><rect fill="#E2E2F0" height="30.0986" rx="6" ry="6" style="stroke:#181818;stroke-width:0.5;" width="164.1855" x="377.936" y="69.2959"/><text fill="#000000" font-family="Arial" font-size="14" lengthAdjust="spacing" textLength="150.1855" x="384.936" y="89.4277">Queue Handler Registry</text></g><g class="participant participant-tail" data-participant="Registry"><rect fill="#E2E2F0" height="30.0986" rx="6" ry="6" style="stroke:#181818;stroke-width:0.5;" width="164.1855" x="377.936" y="924.249"/><text fill="#000000" font-family="Arial" font-size="14" lengthAdjust="spacing" textLength="150.1855" x="384.936" y="944.3809">Queue Handler Registry</text></g><g class="participant participant-head" data-participant="Handler"><rect fill="#E2E2F0" height="30.0986" rx="6" ry="6" style="stroke:#181818;stroke-width:0.5;" width="119.041" x="552.1216" y="69.2959"/><text fill="#000000" font-family="Arial" font-size="14" lengthAdjust="spacing" textLength="105.041" x="559.1216" y="89.4277">Platform Handler</text></g><g class="participant participant-tail" data-participant="Handler"><rect fill="#E2E2F0" height="30.0986" rx="6" ry="6" style="stroke:#181818;stroke-width:0.5;" width="119.041" x="552.1216" y="924.249"/><text fill="#000000" font-family="Arial" font-size="14" lengthAdjust="spacing" textLength="105.041" x="559.1216" y="944.3809">Platform Handler</text></g><g class="participant participant-head" data-participant="SDK"><rect fill="#E2E2F0" height="30.0986" rx="6" ry="6" style="stroke:#181818;stroke-width:0.5;" width="116.7168" x="681.1626" y="69.2959"/><text fill="#000000" font-family="Arial" font-size="14" lengthAdjust="spacing" textLength="102.7168" x="688.1626" y="89.4277">TinLikeSub SDK</text></g><g class="participant participant-tail" data-participant="SDK"><rect fill="#E2E2F0" height="30.0986" rx="6" ry="6" style="stroke:#181818;stroke-width:0.5;" width="116.7168" x="681.1626" y="924.249"/><text fill="#000000" font-family="Arial" font-size="14" lengthAdjust="spacing" textLength="102.7168" x="688.1626" y="944.3809">TinLikeSub SDK</text></g><g class="participant participant-head" data-participant="Storage"><rect fill="#E2E2F0" height="30.0986" rx="6" ry="6" style="stroke:#181818;stroke-width:0.5;" width="112.0684" x="807.8794" y="69.2959"/><text fill="#000000" font-family="Arial" font-size="14" lengthAdjust="spacing" textLength="98.0684" x="814.8794" y="89.4277">StorageAdapter</text></g><g class="participant participant-tail" data-participant="Storage"><rect fill="#E2E2F0" height="30.0986" rx="6" ry="6" style="stroke:#181818;stroke-width:0.5;" width="112.0684" x="807.8794" y="924.249"/><text fill="#000000" font-family="Arial" font-size="14" lengthAdjust="spacing" textLength="98.0684" x="814.8794" y="944.3809">StorageAdapter</text></g><g class="participant participant-head" data-participant="MinIO"><rect fill="#E2E2F0" height="30.0986" rx="6" ry="6" style="stroke:#181818;stroke-width:0.5;" width="51.3379" x="964.749" y="69.2959"/><text fill="#000000" font-family="Arial" font-size="14" lengthAdjust="spacing" textLength="37.3379" x="971.749" y="89.4277">MinIO</text></g><g class="participant participant-tail" data-participant="MinIO"><rect fill="#E2E2F0" height="30.0986" rx="6" ry="6" style="stroke:#181818;stroke-width:0.5;" width="51.3379" x="964.749" y="924.249"/><text fill="#000000" font-family="Arial" font-size="14" lengthAdjust="spacing" textLength="37.3379" x="971.749" y="944.3809">MinIO</text></g><g class="participant participant-head" data-participant="LocalOutput"><rect fill="#E2E2F0" height="30.0986" rx="6" ry="6" style="stroke:#181818;stroke-width:0.5;" width="90.2822" x="1026.0869" y="69.2959"/><text fill="#000000" font-family="Arial" font-size="14" lengthAdjust="spacing" textLength="76.2822" x="1033.0869" y="89.4277">Local output</text></g><g class="participant participant-tail" data-participant="LocalOutput"><rect fill="#E2E2F0" height="30.0986" rx="6" ry="6" style="stroke:#181818;stroke-width:0.5;" width="90.2822" x="1026.0869" y="924.249"/><text fill="#000000" font-family="Arial" font-size="14" lengthAdjust="spacing" textLength="76.2822" x="1033.0869" y="944.3809">Local output</text></g><g class="participant participant-head" data-participant="Publisher"><rect fill="#E2E2F0" height="30.0986" rx="6" ry="6" style="stroke:#181818;stroke-width:0.5;" width="143.1787" x="1126.3691" y="69.2959"/><text fill="#000000" font-family="Arial" font-size="14" lengthAdjust="spacing" textLength="129.1787" x="1133.3691" y="89.4277">CompletionPublisher</text></g><g class="participant participant-tail" data-participant="Publisher"><rect fill="#E2E2F0" height="30.0986" rx="6" ry="6" style="stroke:#181818;stroke-width:0.5;" width="143.1787" x="1126.3691" y="924.249"/><text fill="#000000" font-family="Arial" font-size="14" lengthAdjust="spacing" textLength="129.1787" x="1133.3691" y="944.3809">CompletionPublisher</text></g><g class="participant participant-head" data-participant="CompletionQueue"><path d="M1284.5479,42.0986 L1478.2021,42.0986 C1483.2021,42.0986 1483.2021,71.2466 1483.2021,71.2466 C1483.2021,71.2466 1483.2021,100.3945 1478.2021,100.3945 L1284.5479,100.3945 C1279.5479,100.3945 1279.5479,71.2466 1279.5479,71.2466 C1279.5479,71.2466 1279.5479,42.0986 1284.5479,42.0986" fill="#E2E2F0" style="stroke:#181818;stroke-width:0.5;"/><path d="M1478.2021,42.0986 C1473.2021,42.0986 1473.2021,71.2466 1473.2021,71.2466 C1473.2021,100.3945 1478.2021,100.3945 1478.2021,100.3945" fill="none" style="stroke:#181818;stroke-width:0.5;"/><text fill="#000000" font-family="Arial" font-size="14" lengthAdjust="spacing" textLength="105.8408" x="1323.4546" y="60.2305">RabbitMQ queue</text><text fill="#000000" font-family="Arial" font-size="14" lengthAdjust="spacing" textLength="153.3096" x="1299.7202" y="76.3291">ingest_task_completions</text><text fill="#000000" font-family="Arial" font-size="14" lengthAdjust="spacing" textLength="183.6543" x="1284.5479" y="92.4277">or ingest_dryrun_completions</text></g><g class="participant participant-tail" data-participant="CompletionQueue"><path d="M1284.5479,924.249 L1478.2021,924.249 C1483.2021,924.249 1483.2021,953.397 1483.2021,953.397 C1483.2021,953.397 1483.2021,982.5449 1478.2021,982.5449 L1284.5479,982.5449 C1279.5479,982.5449 1279.5479,953.397 1279.5479,953.397 C1279.5479,953.397 1279.5479,924.249 1284.5479,924.249" fill="#E2E2F0" style="stroke:#181818;stroke-width:0.5;"/><path d="M1478.2021,924.249 C1473.2021,924.249 1473.2021,953.397 1473.2021,953.397 C1473.2021,982.5449 1478.2021,982.5449 1478.2021,982.5449" fill="none" style="stroke:#181818;stroke-width:0.5;"/><text fill="#000000" font-family="Arial" font-size="14" lengthAdjust="spacing" textLength="105.8408" x="1323.4546" y="942.3809">RabbitMQ queue</text><text fill="#000000" font-family="Arial" font-size="14" lengthAdjust="spacing" textLength="153.3096" x="1299.7202" y="958.4795">ingest_task_completions</text><text fill="#000000" font-family="Arial" font-size="14" lengthAdjust="spacing" textLength="183.6543" x="1284.5479" y="974.5781">or ingest_dryrun_completions</text></g><g><title>WorkerRuntime</title><rect fill="#FFFFFF" height="760.957" style="stroke:#181818;stroke-width:1;" width="10" x="269.2817" y="146.292"/></g><g><title>Queue Handler Registry</title><rect fill="#FFFFFF" height="28.9487" style="stroke:#181818;stroke-width:1;" width="10" x="455.0288" y="232.1382"/></g><g><title>Platform Handler</title><rect fill="#FFFFFF" height="116.7437" style="stroke:#181818;stroke-width:1;" width="10" x="606.6421" y="304.9844"/></g><g><title>TinLikeSub SDK</title><rect fill="#FFFFFF" height="43.8975" style="stroke:#181818;stroke-width:1;" width="10" x="734.521" y="348.8818"/></g><g><title>StorageAdapter</title><rect fill="#FFFFFF" height="294.9824" style="stroke:#181818;stroke-width:1;" width="10" x="858.9136" y="495.5229"/></g><g><title>MinIO</title><rect fill="#FFFFFF" height="58.8462" style="stroke:#181818;stroke-width:1;" width="10" x="985.418" y="563.3691"/></g><g><title>Local output</title><rect fill="#FFFFFF" height="43.8975" style="stroke:#181818;stroke-width:1;" width="10" x="1066.228" y="680.7617"/></g><g><title>CompletionPublisher</title><rect fill="#FFFFFF" height="72.8462" style="stroke:#181818;stroke-width:1;" width="10" x="1192.9585" y="834.4028"/></g><g class="message" data-participant-1="PlatformQueue" data-participant-2="Worker"><line style="stroke:#181818;stroke-width:1;" x1="267.2817" x2="257.2817" y1="146.292" y2="142.292"/><line style="stroke:#181818;stroke-width:1;" x1="267.2817" x2="257.2817" y1="146.292" y2="150.292"/><line style="stroke:#181818;stroke-width:1;" x1="106.8306" x2="268.2817" y1="146.292" y2="146.292"/><text fill="#000000" font-family="Arial" font-size="13" lengthAdjust="spacing" textLength="38.2954" x="155.1816" y="126.5884">deliver</text><text fill="#000000" font-family="Arial" font-size="13" lengthAdjust="spacing" textLength="3.6118" x="193.4771" y="126.5884">&#160;</text><text fill="#000000" font-family="Arial" font-size="13" lengthAdjust="spacing" textLength="23.8418" x="197.0889" y="126.5884">task</text><text fill="#000000" font-family="Arial" font-size="13" lengthAdjust="spacing" textLength="52.7681" x="161.6721" y="141.5371">envelope</text></g><g class="message" data-participant-1="Worker" data-participant-2="Worker"><line style="stroke:#181818;stroke-width:1;" x1="279.2817" x2="321.2817" y1="175.2407" y2="175.2407"/><line style="stroke:#181818;stroke-width:1;" x1="321.2817" x2="321.2817" y1="175.2407" y2="188.2407"/><line style="stroke:#181818;stroke-width:1;" x1="280.2817" x2="321.2817" y1="188.2407" y2="188.2407"/><polygon fill="#181818" points="290.2817,184.2407,280.2817,188.2407,290.2817,192.2407,286.2817,188.2407" style="stroke:#181818;stroke-width:1;"/><text fill="#000000" font-family="Arial" font-size="13" lengthAdjust="spacing" textLength="151.7471" x="286.2817" y="170.4858">json.loads(message.body)</text></g><g class="message" data-participant-1="Worker" data-participant-2="Registry"><polygon fill="#181818" points="443.0288,228.1382,453.0288,232.1382,443.0288,236.1382,447.0288,232.1382" style="stroke:#181818;stroke-width:1;"/><line style="stroke:#181818;stroke-width:1;" x1="279.2817" x2="449.0288" y1="232.1382" y2="232.1382"/><text fill="#000000" font-family="Arial" font-size="13" lengthAdjust="spacing" textLength="125.7471" x="304.2817" y="212.4346">resolve(queue_name,</text><text fill="#000000" font-family="Arial" font-size="13" lengthAdjust="spacing" textLength="39.019" x="347.6458" y="227.3833">action)</text></g><g class="message" data-participant-1="Registry" data-participant-2="Worker"><polygon fill="#181818" points="290.2817,257.0869,280.2817,261.0869,290.2817,265.0869,286.2817,261.0869" style="stroke:#181818;stroke-width:1;"/><line style="stroke:#181818;stroke-width:1;stroke-dasharray:2,2;" x1="284.2817" x2="459.0288" y1="261.0869" y2="261.0869"/><text fill="#000000" font-family="Arial" font-size="13" lengthAdjust="spacing" textLength="43.3672" x="347.9717" y="256.332">handler</text></g><g class="message" data-participant-1="Worker" data-participant-2="Handler"><polygon fill="#181818" points="594.6421,300.9844,604.6421,304.9844,594.6421,308.9844,598.6421,304.9844" style="stroke:#181818;stroke-width:1;"/><line style="stroke:#181818;stroke-width:1;" x1="279.2817" x2="600.6421" y1="304.9844" y2="304.9844"/><text fill="#000000" font-family="Arial" font-size="13" lengthAdjust="spacing" textLength="83.8208" x="401.0515" y="285.2808">execute(client,</text><text fill="#000000" font-family="Arial" font-size="13" lengthAdjust="spacing" textLength="47.6772" x="419.1233" y="300.2295">params)</text></g><g class="message" data-participant-1="Handler" data-participant-2="SDK"><polygon fill="#181818" points="722.521,344.8818,732.521,348.8818,722.521,352.8818,726.521,348.8818" style="stroke:#181818;stroke-width:1;"/><line style="stroke:#181818;stroke-width:1;" x1="616.6421" x2="728.521" y1="348.8818" y2="348.8818"/><text fill="#000000" font-family="Arial" font-size="13" lengthAdjust="spacing" textLength="30.3354" x="641.2629" y="329.1782">crawl</text><text fill="#000000" font-family="Arial" font-size="13" lengthAdjust="spacing" textLength="3.6118" x="671.5984" y="329.1782">&#160;</text><text fill="#000000" font-family="Arial" font-size="13" lengthAdjust="spacing" textLength="34.6899" x="675.2102" y="329.1782">action</text><text fill="#000000" font-family="Arial" font-size="13" lengthAdjust="spacing" textLength="11.5591" x="644.5129" y="344.127">or</text><text fill="#000000" font-family="Arial" font-size="13" lengthAdjust="spacing" textLength="3.6118" x="656.072" y="344.127">&#160;</text><text fill="#000000" font-family="Arial" font-size="13" lengthAdjust="spacing" textLength="46.9663" x="659.6838" y="344.127">full_flow</text></g><g class="message" data-participant-1="SDK" data-participant-2="Handler"><polygon fill="#181818" points="627.6421,388.7793,617.6421,392.7793,627.6421,396.7793,623.6421,392.7793" style="stroke:#181818;stroke-width:1;"/><line style="stroke:#181818;stroke-width:1;stroke-dasharray:2,2;" x1="621.6421" x2="738.521" y1="392.7793" y2="392.7793"/><text fill="#000000" font-family="Arial" font-size="13" lengthAdjust="spacing" textLength="20.9473" x="649.9075" y="373.0757">raw</text><text fill="#000000" font-family="Arial" font-size="13" lengthAdjust="spacing" textLength="3.6118" x="670.8547" y="373.0757">&#160;</text><text fill="#000000" font-family="Arial" font-size="13" lengthAdjust="spacing" textLength="31.7891" x="674.4666" y="373.0757">result</text><text fill="#000000" font-family="Arial" font-size="13" lengthAdjust="spacing" textLength="39.0381" x="658.5625" y="388.0244">bundle</text></g><g class="message" data-participant-1="Handler" data-participant-2="Worker"><polygon fill="#181818" points="290.2817,417.728,280.2817,421.728,290.2817,425.728,286.2817,421.728" style="stroke:#181818;stroke-width:1;"/><line style="stroke:#181818;stroke-width:1;stroke-dasharray:2,2;" x1="284.2817" x2="610.6421" y1="421.728" y2="421.728"/><text fill="#000000" font-family="Arial" font-size="13" lengthAdjust="spacing" textLength="65.019" x="412.9524" y="416.9731">TaskResult</text></g><g class="message" data-participant-1="Worker" data-participant-2="Storage"><polygon fill="#181818" points="846.9136,491.5229,856.9136,495.5229,846.9136,499.5229,850.9136,495.5229" style="stroke:#181818;stroke-width:1;"/><line style="stroke:#181818;stroke-width:1;" x1="279.2817" x2="852.9136" y1="495.5229" y2="495.5229"/><text fill="#000000" font-family="Arial" font-size="13" lengthAdjust="spacing" textLength="148.1416" x="495.0269" y="445.9219">save_result_data(task_id,</text><text fill="#000000" font-family="Arial" font-size="13" lengthAdjust="spacing" textLength="50.5718" x="543.8118" y="460.8706">platform,</text><text fill="#000000" font-family="Arial" font-size="13" lengthAdjust="spacing" textLength="38.3018" x="549.9468" y="475.8193">action,</text><text fill="#000000" font-family="Arial" font-size="13" lengthAdjust="spacing" textLength="36.1182" x="551.0386" y="490.7681">result)</text></g><path d="M803.8794,510.5229 L858.0503,510.5229 L858.0503,517.4717 L848.0503,527.4717 L797.8794,527.4717 L797.8794,516.5229 A6,6 0 0 1 803.8794,510.5229" fill="#EEEEEE" style="stroke:#000000;stroke-width:1.5;"/><rect fill="none" height="222.1362" rx="6" ry="6" style="stroke:#000000;stroke-width:1.5;" width="328.4897" x="797.8794" y="510.5229"/><text fill="#000000" font-family="Arial" font-size="13" font-weight="bold" lengthAdjust="spacing" textLength="15.1709" x="812.8794" y="523.7168">alt</text><text fill="#000000" font-family="Arial" font-size="11" font-weight="bold" lengthAdjust="spacing" textLength="97.1523" x="873.0503" y="522.8408">[production mode]</text><g class="message" data-participant-1="Storage" data-participant-2="MinIO"><polygon fill="#181818" points="973.418,559.3691,983.418,563.3691,973.418,567.3691,977.418,563.3691" style="stroke:#181818;stroke-width:1;"/><line style="stroke:#181818;stroke-width:1;" x1="868.9136" x2="979.418" y1="563.3691" y2="563.3691"/><text fill="#000000" font-family="Arial" font-size="13" lengthAdjust="spacing" textLength="39.0381" x="895.3672" y="543.6655">upload</text><text fill="#000000" font-family="Arial" font-size="13" lengthAdjust="spacing" textLength="3.6118" x="934.4053" y="543.6655">&#160;</text><text fill="#000000" font-family="Arial" font-size="13" lengthAdjust="spacing" textLength="20.9473" x="938.0171" y="543.6655">raw</text><text fill="#000000" font-family="Arial" font-size="13" lengthAdjust="spacing" textLength="39.0127" x="907.6594" y="558.6143">artifact</text></g><g class="message" data-participant-1="MinIO" data-participant-2="Storage"><polygon fill="#181818" points="879.9136,618.2153,869.9136,622.2153,879.9136,626.2153,875.9136,622.2153" style="stroke:#181818;stroke-width:1;"/><line style="stroke:#181818;stroke-width:1;stroke-dasharray:2,2;" x1="873.9136" x2="989.418" y1="622.2153" y2="622.2153"/><text fill="#000000" font-family="Arial" font-size="13" lengthAdjust="spacing" textLength="92.5044" x="883.4136" y="587.563">storage_bucket,</text><text fill="#000000" font-family="Arial" font-size="13" lengthAdjust="spacing" textLength="79.5044" x="889.9136" y="602.5117">storage_path,</text><text fill="#000000" font-family="Arial" font-size="13" lengthAdjust="spacing" textLength="58.519" x="900.4063" y="617.4604">checksum</text></g><line style="stroke:#000000;stroke-width:1;stroke-dasharray:2,2;" x1="797.8794" x2="1126.3691" y1="631.2153" y2="631.2153"/><text fill="#000000" font-family="Arial" font-size="11" font-weight="bold" lengthAdjust="spacing" textLength="107.5669" x="802.8794" y="641.5332">[development mode]</text><g class="message" data-participant-1="Storage" data-participant-2="LocalOutput"><polygon fill="#181818" points="1054.228,676.7617,1064.228,680.7617,1054.228,684.7617,1058.228,680.7617" style="stroke:#181818;stroke-width:1;"/><line style="stroke:#181818;stroke-width:1;" x1="868.9136" x2="1060.228" y1="680.7617" y2="680.7617"/><text fill="#000000" font-family="Arial" font-size="13" lengthAdjust="spacing" textLength="27.4473" x="934.7058" y="661.0581">write</text><text fill="#000000" font-family="Arial" font-size="13" lengthAdjust="spacing" textLength="3.6118" x="962.1531" y="661.0581">&#160;</text><text fill="#000000" font-family="Arial" font-size="13" lengthAdjust="spacing" textLength="34.6709" x="965.7649" y="661.0581">JSON</text><text fill="#000000" font-family="Arial" font-size="13" lengthAdjust="spacing" textLength="39.0127" x="948.0645" y="676.0068">artifact</text></g><g class="message" data-participant-1="LocalOutput" data-participant-2="Storage"><polygon fill="#181818" points="879.9136,720.6592,869.9136,724.6592,879.9136,728.6592,875.9136,724.6592" style="stroke:#181818;stroke-width:1;"/><line style="stroke:#181818;stroke-width:1;stroke-dasharray:2,2;" x1="873.9136" x2="1070.228" y1="724.6592" y2="724.6592"/><text fill="#000000" font-family="Arial" font-size="13" lengthAdjust="spacing" textLength="26.7363" x="942.2458" y="704.9556">local</text><text fill="#000000" font-family="Arial" font-size="13" lengthAdjust="spacing" textLength="3.6118" x="968.9822" y="704.9556">&#160;</text><text fill="#000000" font-family="Arial" font-size="13" lengthAdjust="spacing" textLength="25.3018" x="972.594" y="704.9556">path</text><text fill="#000000" font-family="Arial" font-size="13" lengthAdjust="spacing" textLength="54.2026" x="942.9695" y="719.9043">metadata</text></g><g class="message" data-participant-1="Storage" data-participant-2="Worker"><polygon fill="#181818" points="290.2817,786.5054,280.2817,790.5054,290.2817,794.5054,286.2817,790.5054" style="stroke:#181818;stroke-width:1;"/><line style="stroke:#181818;stroke-width:1;stroke-dasharray:2,2;" x1="284.2817" x2="862.9136" y1="790.5054" y2="790.5054"/><text fill="#000000" font-family="Arial" font-size="13" lengthAdjust="spacing" textLength="43.3608" x="549.9172" y="755.853">storage</text><text fill="#000000" font-family="Arial" font-size="13" lengthAdjust="spacing" textLength="54.2026" x="538.8945" y="770.8018">metadata</text><text fill="#000000" font-family="Arial" font-size="13" lengthAdjust="spacing" textLength="3.6118" x="593.0972" y="770.8018">&#160;</text><text fill="#000000" font-family="Arial" font-size="13" lengthAdjust="spacing" textLength="7.5918" x="596.709" y="770.8018">+</text><text fill="#000000" font-family="Arial" font-size="13" lengthAdjust="spacing" textLength="49.1499" x="547.0227" y="785.7505">batch_id</text></g><g class="message" data-participant-1="Worker" data-participant-2="Publisher"><polygon fill="#181818" points="1180.9585,830.4028,1190.9585,834.4028,1180.9585,838.4028,1184.9585,834.4028" style="stroke:#181818;stroke-width:1;"/><line style="stroke:#181818;stroke-width:1;" x1="279.2817" x2="1186.9585" y1="834.4028" y2="834.4028"/><text fill="#000000" font-family="Arial" font-size="13" lengthAdjust="spacing" textLength="178.4897" x="646.8752" y="814.6992">publish_completion(completion</text><text fill="#000000" font-family="Arial" font-size="13" lengthAdjust="spacing" textLength="57.0972" x="707.5715" y="829.6479">envelope)</text></g><g class="message" data-participant-1="Publisher" data-participant-2="CompletionQueue"><line style="stroke:#181818;stroke-width:1;" x1="1379.375" x2="1369.375" y1="863.3516" y2="859.3516"/><line style="stroke:#181818;stroke-width:1;" x1="1379.375" x2="1369.375" y1="863.3516" y2="867.3516"/><line style="stroke:#181818;stroke-width:1;" x1="1202.9585" x2="1380.375" y1="863.3516" y2="863.3516"/><text fill="#000000" font-family="Arial" font-size="13" lengthAdjust="spacing" textLength="119.9644" x="1232.1846" y="858.5967">CompletionEnvelope</text></g><g class="message" data-participant-1="Publisher" data-participant-2="Worker"><polygon fill="#181818" points="285.2817,903.249,275.2817,907.249,285.2817,911.249,281.2817,907.249" style="stroke:#181818;stroke-width:1;"/><line style="stroke:#181818;stroke-width:1;stroke-dasharray:2,2;" x1="279.2817" x2="1196.9585" y1="907.249" y2="907.249"/><text fill="#000000" font-family="Arial" font-size="13" lengthAdjust="spacing" textLength="41.1963" x="715.522" y="887.5454">publish</text><text fill="#000000" font-family="Arial" font-size="13" lengthAdjust="spacing" textLength="52.7617" x="709.7393" y="902.4941">accepted</text></g><!--SRC=[TLJ9Rjim4BthAmOvEQYTBfS2EGH8qmHTije1UWbWKDJOPaMHAXSxwTTtI54IrQOdKUHxysOuR-Y4amWNJ6abE9DmOTX1mkKpSk-4Li1K1HUwQIN6tokf3uMjXMgPOGrKk65UkYkjt2rh4CwDO38xjpjMwODGMzWmQJ4_mLyU5SSRj9PjyLoAhGAEog79K0PjgvNjKP-GvC-DqGTmnkVX6lQSC2ln6-7Zkpo8zghYsYWqyFv3KP2mHpXQih8KxkO1ul-JSg9skdwxOHnBJOiNxPql4HopjJq2Pk5UChVHfda8X8A2Ey55ovI3en_Qr6YMdg8q6C7TpXGLYV25xbHIBalS2klCIuJtFrD2hzXp8ZIjfyX7eQv5ZIjVmkhpzuYZxnIpSjg4kwvOwrAij3N5tGZrzIuUnzNqy5e7cz3TjDv5JDouY_zJv6YRUrzAONT9S_ZxNoV8BsZTEbpycWz1x9FI1j9PPLwCL_bf33rATZqg9Ys3nTbPwWkSadUbsDCgo02gFNchnO9n9_RCOT-_15zan9zMgnEfMMLdJUUvar9NBySPjkyceSd2Mkvn5cjRAvgIEGGHhOv7iQ7x0t6HA-vInolybp6Azhuw1OpZYpCk1KtK7E8Ss4oljr1F8JQvXPWyZd-N7z1rRxoKwqqO-e4RR1N0YuaayKAfz1X0wSDcdcoW359vOOzqzyl8ok5zTbbjoQT4iMoFwqvfNJ77Pj4ceg8gKw_x-vsdXBAwUxipIhCrkl9TeOski811XFIYyKdDjw7HiRfWRNeS7067UDryG88lfebsgtNfUOtKXFw_PMut1xv3NblV43chl8k7z5JIRdHaGmry9Rziw4ZgO0IHlwtkRb_DCfzGc52d6SiusY4_QD2nSBlJzF90gAfYI2ZlQQfp205le6IExwX74q-aLcHD7Xu6Yj9swsp2P-Do6DUijUEhCeO9y_xNaq2XnvtBVkepIbvAIe9kaYCzcPFyHxriisF-0G00]--></g></svg>