<svg xmlns="http://www.w3.org/2000/svg" xmlns:xlink="http://www.w3.org/1999/xlink" contentStyleType="text/css" data-diagram-type="SEQUENCE" height="1677px" preserveAspectRatio="none" style="width:1362px;height:1677px;background:#FFFFFF;" version="1.1" viewBox="0 0 1362 1677" width="1362px" zoomAndPan="magnify"><defs/><g><g><title>Completion Consumer</title><rect fill="#FFFFFF" height="1453.3677" style="stroke:#181818;stroke-width:1;" width="10" x="290.2954" y="127.9448"/></g><g><title>ExecutionUseCase</title><rect fill="#FFFFFF" height="1424.4189" style="stroke:#181818;stroke-width:1;" width="10" x="463.0952" y="156.8936"/></g><g><title>Execution Repo</title><rect fill="#FFFFFF" height="146.6411" style="stroke:#181818;stroke-width:1;" width="10" x="673.4541" y="185.8423"/></g><g><title>Execution Repo</title><rect fill="#FFFFFF" height="116.7437" style="stroke:#181818;stroke-width:1;" width="10" x="673.4541" y="385.3809"/></g><g><title>Execution Repo</title><rect fill="#FFFFFF" height="116.7437" style="stroke:#181818;stroke-width:1;" width="10" x="673.4541" y="560.6709"/></g><g><title>Execution Repo</title><rect fill="#FFFFFF" height="161.5898" style="stroke:#181818;stroke-width:1;" width="10" x="673.4541" y="779.2095"/></g><g><title>MinIO Client</title><rect fill="#FFFFFF" height="28.9487" style="stroke:#181818;stroke-width:1;" width="10" x="785.3848" y="721.312"/></g><g><title>MinIO Client</title><rect fill="#FFFFFF" height="43.8975" style="stroke:#181818;stroke-width:1;" width="10" x="785.3848" y="1170.2354"/></g><g><title>UAP UseCase</title><rect fill="#FFFFFF" height="514.7695" style="stroke:#181818;stroke-width:1;" width="10" x="939.3892" y="1008.6455"/></g><g><title>UAP Publisher</title><rect fill="#FFFFFF" height="72.8462" style="stroke:#181818;stroke-width:1;" width="10" x="1056.5327" y="1267.0303"/></g><g><title>PostgreSQL</title><rect fill="#FFFFFF" height="43.8975" style="stroke:#181818;stroke-width:1;" width="10" x="1160.1841" y="244.6885"/></g><g><title>PostgreSQL</title><rect fill="#FFFFFF" height="28.9487" style="stroke:#181818;stroke-width:1;" width="10" x="1160.1841" y="444.2271"/></g><g><title>PostgreSQL</title><rect fill="#FFFFFF" height="28.9487" style="stroke:#181818;stroke-width:1;" width="10" x="1160.1841" y="619.5171"/></g><g><title>PostgreSQL</title><rect fill="#FFFFFF" height="43.8975" style="stroke:#181818;stroke-width:1;" width="10" x="1160.1841" y="867.9531"/></g><g><title>PostgreSQL</title><rect fill="#FFFFFF" height="28.9487" style="stroke:#181818;stroke-width:1;" width="10" x="1160.1841" y="1097.3892"/></g><g><title>PostgreSQL</title><rect fill="#FFFFFF" height="43.8975" style="stroke:#181818;stroke-width:1;" width="10" x="1160.1841" y="1435.6201"/></g><rect fill="none" height="1190.9316" rx="6" ry="6" style="stroke:#000000;stroke-width:1.5;" width="973.4673" x="381.5645" y="347.4834"/><rect fill="none" height="575.6157" rx="6" ry="6" style="stroke:#000000;stroke-width:1.5;" width="953.4673" x="391.5645" y="955.7993"/><rect fill="none" height="118.7437" rx="6" ry="6" style="stroke:#000000;stroke-width:1.5;" width="452.77" x="882.2617" y="1229.1328"/><g><title>RabbitMQ queue</title><rect fill="#000000" fill-opacity="0.00000" height="1532.2139" width="8" x="102.8271" y="67.0986"/><line style="stroke:#181818;stroke-width:0.5;stroke-dasharray:5,5;" x1="106" x2="106" y1="67.0986" y2="1599.3125"/></g><g><title>Completion Consumer</title><rect fill="#000000" fill-opacity="0.00000" height="1532.2139" width="8" x="291.2954" y="67.0986"/><line style="stroke:#181818;stroke-width:0.5;stroke-dasharray:5,5;" x1="294.6543" x2="294.6543" y1="67.0986" y2="1599.3125"/></g><g><title>ExecutionUseCase</title><rect fill="#000000" fill-opacity="0.00000" height="1532.2139" width="8" x="464.0952" y="67.0986"/><line style="stroke:#181818;stroke-width:0.5;stroke-dasharray:5,5;" x1="467.5645" x2="467.5645" y1="67.0986" y2="1599.3125"/></g><g><title>Execution Repo</title><rect fill="#000000" fill-opacity="0.00000" height="1532.2139" width="8" x="674.4541" y="67.0986"/><line style="stroke:#181818;stroke-width:0.5;stroke-dasharray:5,5;" x1="678.0337" x2="678.0337" y1="67.0986" y2="1599.3125"/></g><g><title>MinIO Client</title><rect fill="#000000" fill-opacity="0.00000" height="1532.2139" width="8" x="786.3848" y="67.0986"/><line style="stroke:#181818;stroke-width:0.5;stroke-dasharray:5,5;" x1="789.8745" x2="789.8745" y1="67.0986" y2="1599.3125"/></g><g><title>UAP UseCase</title><rect fill="#000000" fill-opacity="0.00000" height="1532.2139" width="8" x="940.3892" y="67.0986"/><line style="stroke:#181818;stroke-width:0.5;stroke-dasharray:5,5;" x1="944.2617" x2="944.2617" y1="67.0986" y2="1599.3125"/></g><g><title>UAP Publisher</title><rect fill="#000000" fill-opacity="0.00000" height="1532.2139" width="8" x="1057.5327" y="67.0986"/><line style="stroke:#181818;stroke-width:0.5;stroke-dasharray:5,5;" x1="1061.0122" x2="1061.0122" y1="67.0986" y2="1599.3125"/></g><g><title>PostgreSQL</title><rect fill="#000000" fill-opacity="0.00000" height="1532.2139" width="8" x="1161.1841" y="67.0986"/><line style="stroke:#181818;stroke-width:0.5;stroke-dasharray:5,5;" x1="1165.0532" x2="1165.0532" y1="67.0986" y2="1599.3125"/></g><g><title>Kafka topic</title><rect fill="#000000" fill-opacity="0.00000" height="1532.2139" width="8" x="1266.6733" y="67.0986"/><line style="stroke:#181818;stroke-width:0.5;stroke-dasharray:5,5;" x1="1270.3149" x2="1270.3149" y1="67.0986" y2="1599.3125"/></g><g class="participant participant-head" data-participant="CompletionQueue"><path d="M10,8.8027 L203.6543,8.8027 C208.6543,8.8027 208.6543,37.9507 208.6543,37.9507 C208.6543,37.9507 208.6543,67.0986 203.6543,67.0986 L10,67.0986 C5,67.0986 5,37.9507 5,37.9507 C5,37.9507 5,8.8027 10,8.8027" fill="#E2E2F0" style="stroke:#181818;stroke-width:0.5;"/><path d="M203.6543,8.8027 C198.6543,8.8027 198.6543,37.9507 198.6543,37.9507 C198.6543,67.0986 203.6543,67.0986 203.6543,67.0986" fill="none" style="stroke:#181818;stroke-width:0.5;"/><text fill="#000000" font-family="Arial" font-size="14" lengthAdjust="spacing" textLength="105.8408" x="48.9067" y="26.9346">RabbitMQ queue</text><text fill="#000000" font-family="Arial" font-size="14" lengthAdjust="spacing" textLength="153.3096" x="25.1724" y="43.0332">ingest_task_completions</text><text fill="#000000" font-family="Arial" font-size="14" lengthAdjust="spacing" textLength="183.6543" x="10" y="59.1318">or ingest_dryrun_completions</text></g><g class="participant participant-tail" data-participant="CompletionQueue"><path d="M10,1598.3125 L203.6543,1598.3125 C208.6543,1598.3125 208.6543,1627.4604 208.6543,1627.4604 C208.6543,1627.4604 208.6543,1656.6084 203.6543,1656.6084 L10,1656.6084 C5,1656.6084 5,1627.4604 5,1627.4604 C5,1627.4604 5,1598.3125 10,1598.3125" fill="#E2E2F0" style="stroke:#181818;stroke-width:0.5;"/><path d="M203.6543,1598.3125 C198.6543,1598.3125 198.6543,1627.4604 198.6543,1627.4604 C198.6543,1656.6084 203.6543,1656.6084 203.6543,1656.6084" fill="none" style="stroke:#181818;stroke-width:0.5;"/><text fill="#000000" font-family="Arial" font-size="14" lengthAdjust="spacing" textLength="105.8408" x="48.9067" y="1616.4443">RabbitMQ queue</text><text fill="#000000" font-family="Arial" font-size="14" lengthAdjust="spacing" textLength="153.3096" x="25.1724" y="1632.543">ingest_task_completions</text><text fill="#000000" font-family="Arial" font-size="14" lengthAdjust="spacing" textLength="183.6543" x="10" y="1648.6416">or ingest_dryrun_completions</text></g><g class="participant participant-head" data-participant="Consumer"><rect fill="#E2E2F0" height="30.0986" rx="6" ry="6" style="stroke:#181818;stroke-width:0.5;" width="153.2822" x="218.6543" y="36"/><text fill="#000000" font-family="Arial" font-size="14" lengthAdjust="spacing" textLength="139.2822" x="225.6543" y="56.1318">Completion Consumer</text></g><g class="participant participant-tail" data-participant="Consumer"><rect fill="#E2E2F0" height="30.0986" rx="6" ry="6" style="stroke:#181818;stroke-width:0.5;" width="153.2822" x="218.6543" y="1598.3125"/><text fill="#000000" font-family="Arial" font-size="14" lengthAdjust="spacing" textLength="139.2822" x="225.6543" y="1618.4443">Completion Consumer</text></g><g class="participant participant-head" data-participant="Execution"><rect fill="#E2E2F0" height="30.0986" rx="6" ry="6" style="stroke:#181818;stroke-width:0.5;" width="133.0615" x="401.5645" y="36"/><text fill="#000000" font-family="Arial" font-size="14" lengthAdjust="spacing" textLength="119.0615" x="408.5645" y="56.1318">ExecutionUseCase</text></g><g class="participant participant-tail" data-participant="Execution"><rect fill="#E2E2F0" height="30.0986" rx="6" ry="6" style="stroke:#181818;stroke-width:0.5;" width="133.0615" x="401.5645" y="1598.3125"/><text fill="#000000" font-family="Arial" font-size="14" lengthAdjust="spacing" textLength="119.0615" x="408.5645" y="1618.4443">ExecutionUseCase</text></g><g class="participant participant-head" data-participant="ExecutionRepo"><rect fill="#E2E2F0" height="30.0986" rx="6" ry="6" style="stroke:#181818;stroke-width:0.5;" width="112.8408" x="622.0337" y="36"/><text fill="#000000" font-family="Arial" font-size="14" lengthAdjust="spacing" textLength="98.8408" x="629.0337" y="56.1318">Execution Repo</text></g><g class="participant participant-tail" data-participant="ExecutionRepo"><rect fill="#E2E2F0" height="30.0986" rx="6" ry="6" style="stroke:#181818;stroke-width:0.5;" width="112.8408" x="622.0337" y="1598.3125"/><text fill="#000000" font-family="Arial" font-size="14" lengthAdjust="spacing" textLength="98.8408" x="629.0337" y="1618.4443">Execution Repo</text></g><g class="participant participant-head" data-participant="MinIO"><rect fill="#E2E2F0" height="30.0986" rx="6" ry="6" style="stroke:#181818;stroke-width:0.5;" width="91.0205" x="744.8745" y="36"/><text fill="#000000" font-family="Arial" font-size="14" lengthAdjust="spacing" textLength="77.0205" x="751.8745" y="56.1318">MinIO Client</text></g><g class="participant participant-tail" data-participant="MinIO"><rect fill="#E2E2F0" height="30.0986" rx="6" ry="6" style="stroke:#181818;stroke-width:0.5;" width="91.0205" x="744.8745" y="1598.3125"/><text fill="#000000" font-family="Arial" font-size="14" lengthAdjust="spacing" textLength="77.0205" x="751.8745" y="1618.4443">MinIO Client</text></g><g class="participant participant-head" data-participant="UAPUC"><rect fill="#E2E2F0" height="30.0986" rx="6" ry="6" style="stroke:#181818;stroke-width:0.5;" width="104.2549" x="892.2617" y="36"/><text fill="#000000" font-family="Arial" font-size="14" lengthAdjust="spacing" textLength="90.2549" x="899.2617" y="56.1318">UAP UseCase</text></g><g class="participant participant-tail" data-participant="UAPUC"><rect fill="#E2E2F0" height="30.0986" rx="6" ry="6" style="stroke:#181818;stroke-width:0.5;" width="104.2549" x="892.2617" y="1598.3125"/><text fill="#000000" font-family="Arial" font-size="14" lengthAdjust="spacing" textLength="90.2549" x="899.2617" y="1618.4443">UAP UseCase</text></g><g class="participant participant-head" data-participant="UAPPublisher"><rect fill="#E2E2F0" height="30.0986" rx="6" ry="6" style="stroke:#181818;stroke-width:0.5;" width="105.041" x="1009.0122" y="36"/><text fill="#000000" font-family="Arial" font-size="14" lengthAdjust="spacing" textLength="91.041" x="1016.0122" y="56.1318">UAP Publisher</text></g><g class="participant participant-tail" data-participant="UAPPublisher"><rect fill="#E2E2F0" height="30.0986" rx="6" ry="6" style="stroke:#181818;stroke-width:0.5;" width="105.041" x="1009.0122" y="1598.3125"/><text fill="#000000" font-family="Arial" font-size="14" lengthAdjust="spacing" textLength="91.041" x="1016.0122" y="1618.4443">UAP Publisher</text></g><g class="participant participant-head" data-participant="PostgreSQL"><text fill="#000000" font-family="Arial" font-size="14" lengthAdjust="spacing" textLength="76.2617" x="1124.0532" y="64.1318">PostgreSQL</text><path d="M1147.1841,15 C1147.1841,5 1165.1841,5 1165.1841,5 C1165.1841,5 1183.1841,5 1183.1841,15 L1183.1841,41 C1183.1841,51 1165.1841,51 1165.1841,51 C1165.1841,51 1147.1841,51 1147.1841,41 L1147.1841,15" fill="#E2E2F0" style="stroke:#181818;stroke-width:0.5;"/><path d="M1147.1841,15 C1147.1841,25 1165.1841,25 1165.1841,25 C1165.1841,25 1183.1841,25 1183.1841,15" fill="none" style="stroke:#181818;stroke-width:0.5;"/></g><g class="participant participant-tail" data-participant="PostgreSQL"><text fill="#000000" font-family="Arial" font-size="14" lengthAdjust="spacing" textLength="76.2617" x="1124.0532" y="1611.4443">PostgreSQL</text><path d="M1147.1841,1624.4111 C1147.1841,1614.4111 1165.1841,1614.4111 1165.1841,1614.4111 C1165.1841,1614.4111 1183.1841,1614.4111 1183.1841,1624.4111 L1183.1841,1650.4111 C1183.1841,1660.4111 1165.1841,1660.4111 1165.1841,1660.4111 C1165.1841,1660.4111 1147.1841,1660.4111 1147.1841,1650.4111 L1147.1841,1624.4111" fill="#E2E2F0" style="stroke:#181818;stroke-width:0.5;"/><path d="M1147.1841,1624.4111 C1147.1841,1634.4111 1165.1841,1634.4111 1165.1841,1634.4111 C1165.1841,1634.4111 1183.1841,1634.4111 1183.1841,1624.4111" fill="none" style="stroke:#181818;stroke-width:0.5;"/></g><g class="participant participant-head" data-participant="AnalyticsInput"><path d="M1221.3149,24.9014 L1320.0317,24.9014 C1325.0317,24.9014 1325.0317,46 1325.0317,46 C1325.0317,46 1325.0317,67.0986 1320.0317,67.0986 L1221.3149,67.0986 C1216.3149,67.0986 1216.3149,46 1216.3149,46 C1216.3149,46 1216.3149,24.9014 1221.3149,24.9014" fill="#E2E2F0" style="stroke:#181818;stroke-width:0.5;"/><path d="M1320.0317,24.9014 C1315.0317,24.9014 1315.0317,46 1315.0317,46 C1315.0317,67.0986 1320.0317,67.0986 1320.0317,67.0986" fill="none" style="stroke:#181818;stroke-width:0.5;"/><text fill="#000000" font-family="Arial" font-size="14" lengthAdjust="spacing" textLength="69.2617" x="1231.0425" y="43.0332">Kafka topic</text><text fill="#000000" font-family="Arial" font-size="14" lengthAdjust="spacing" textLength="88.7168" x="1221.3149" y="59.1318">analytics input</text></g><g class="participant participant-tail" data-participant="AnalyticsInput"><path d="M1221.3149,1598.3125 L1320.0317,1598.3125 C1325.0317,1598.3125 1325.0317,1619.4111 1325.0317,1619.4111 C1325.0317,1619.4111 1325.0317,1640.5098 1320.0317,1640.5098 L1221.3149,1640.5098 C1216.3149,1640.5098 1216.3149,1619.4111 1216.3149,1619.4111 C1216.3149,1619.4111 1216.3149,1598.3125 1221.3149,1598.3125" fill="#E2E2F0" style="stroke:#181818;stroke-width:0.5;"/><path d="M1320.0317,1598.3125 C1315.0317,1598.3125 1315.0317,1619.4111 1315.0317,1619.4111 C1315.0317,1640.5098 1320.0317,1640.5098 1320.0317,1640.5098" fill="none" style="stroke:#181818;stroke-width:0.5;"/><text fill="#000000" font-family="Arial" font-size="14" lengthAdjust="spacing" textLength="69.2617" x="1231.0425" y="1616.4443">Kafka topic</text><text fill="#000000" font-family="Arial" font-size="14" lengthAdjust="spacing" textLength="88.7168" x="1221.3149" y="1632.543">analytics input</text></g><g><title>Completion Consumer</title><rect fill="#FFFFFF" height="1453.3677" style="stroke:#181818;stroke-width:1;" width="10" x="290.2954" y="127.9448"/></g><g><title>ExecutionUseCase</title><rect fill="#FFFFFF" height="1424.4189" style="stroke:#181818;stroke-width:1;" width="10" x="463.0952" y="156.8936"/></g><g><title>Execution Repo</title><rect fill="#FFFFFF" height="146.6411" style="stroke:#181818;stroke-width:1;" width="10" x="673.4541" y="185.8423"/></g><g><title>Execution Repo</title><rect fill="#FFFFFF" height="116.7437" style="stroke:#181818;stroke-width:1;" width="10" x="673.4541" y="385.3809"/></g><g><title>Execution Repo</title><rect fill="#FFFFFF" height="116.7437" style="stroke:#181818;stroke-width:1;" width="10" x="673.4541" y="560.6709"/></g><g><title>Execution Repo</title><rect fill="#FFFFFF" height="161.5898" style="stroke:#181818;stroke-width:1;" width="10" x="673.4541" y="779.2095"/></g><g><title>MinIO Client</title><rect fill="#FFFFFF" height="28.9487" style="stroke:#181818;stroke-width:1;" width="10" x="785.3848" y="721.312"/></g><g><title>MinIO Client</title><rect fill="#FFFFFF" height="43.8975" style="stroke:#181818;stroke-width:1;" width="10" x="785.3848" y="1170.2354"/></g><g><title>UAP UseCase</title><rect fill="#FFFFFF" height="514.7695" style="stroke:#181818;stroke-width:1;" width="10" x="939.3892" y="1008.6455"/></g><g><title>UAP Publisher</title><rect fill="#FFFFFF" height="72.8462" style="stroke:#181818;stroke-width:1;" width="10" x="1056.5327" y="1267.0303"/></g><g><title>PostgreSQL</title><rect fill="#FFFFFF" height="43.8975" style="stroke:#181818;stroke-width:1;" width="10" x="1160.1841" y="244.6885"/></g><g><title>PostgreSQL</title><rect fill="#FFFFFF" height="28.9487" style="stroke:#181818;stroke-width:1;" width="10" x="1160.1841" y="444.2271"/></g><g><title>PostgreSQL</title><rect fill="#FFFFFF" height="28.9487" style="stroke:#181818;stroke-width:1;" width="10" x="1160.1841" y="619.5171"/></g><g><title>PostgreSQL</title><rect fill="#FFFFFF" height="43.8975" style="stroke:#181818;stroke-width:1;" width="10" x="1160.1841" y="867.9531"/></g><g><title>PostgreSQL</title><rect fill="#FFFFFF" height="28.9487" style="stroke:#181818;stroke-width:1;" width="10" x="1160.1841" y="1097.3892"/></g><g><title>PostgreSQL</title><rect fill="#FFFFFF" height="43.8975" style="stroke:#181818;stroke-width:1;" width="10" x="1160.1841" y="1435.6201"/></g><g class="message" data-participant-1="CompletionQueue" data-participant-2="Consumer"><line style="stroke:#181818;stroke-width:1;" x1="288.2954" x2="278.2954" y1="127.9448" y2="123.9448"/><line style="stroke:#181818;stroke-width:1;" x1="288.2954" x2="278.2954" y1="127.9448" y2="131.9448"/><line style="stroke:#181818;stroke-width:1;" x1="106.8271" x2="289.2954" y1="127.9448" y2="127.9448"/><text fill="#000000" font-family="Arial" font-size="13" lengthAdjust="spacing" textLength="38.2954" x="179.4136" y="93.2925">deliver</text><text fill="#000000" font-family="Arial" font-size="13" lengthAdjust="spacing" textLength="62.8672" x="167.1277" y="108.2412">completion</text><text fill="#000000" font-family="Arial" font-size="13" lengthAdjust="spacing" textLength="52.7681" x="172.1772" y="123.1899">envelope</text></g><g class="message" data-participant-1="Consumer" data-participant-2="Execution"><polygon fill="#181818" points="451.0952,152.8936,461.0952,156.8936,451.0952,160.8936,455.0952,156.8936" style="stroke:#181818;stroke-width:1;"/><line style="stroke:#181818;stroke-width:1;" x1="300.2954" x2="457.0952" y1="156.8936" y2="156.8936"/><text fill="#000000" font-family="Arial" font-size="13" lengthAdjust="spacing" textLength="143.7998" x="309.7954" y="152.1387">HandleCompletion(input)</text></g><g class="message" data-participant-1="Execution" data-participant-2="ExecutionRepo"><polygon fill="#181818" points="661.4541,181.8423,671.4541,185.8423,661.4541,189.8423,665.4541,185.8423" style="stroke:#181818;stroke-width:1;"/><line style="stroke:#181818;stroke-width:1;" x1="473.0952" x2="667.4541" y1="185.8423" y2="185.8423"/><text fill="#000000" font-family="Arial" font-size="13" lengthAdjust="spacing" textLength="181.3589" x="482.5952" y="181.0874">GetCompletionContext(task_id)</text></g><g class="message" data-participant-1="ExecutionRepo" data-participant-2="PostgreSQL"><polygon fill="#181818" points="1148.1841,240.6885,1158.1841,244.6885,1148.1841,248.6885,1152.1841,244.6885" style="stroke:#181818;stroke-width:1;"/><line style="stroke:#181818;stroke-width:1;" x1="683.4541" x2="1154.1841" y1="244.6885" y2="244.6885"/><text fill="#000000" font-family="Arial" font-size="13" lengthAdjust="spacing" textLength="50.5718" x="896.5332" y="210.0361">SELECT</text><text fill="#000000" font-family="Arial" font-size="13" lengthAdjust="spacing" textLength="46.249" x="898.6946" y="224.9849">external</text><text fill="#000000" font-family="Arial" font-size="13" lengthAdjust="spacing" textLength="23.8418" x="887.1355" y="239.9336">task</text><text fill="#000000" font-family="Arial" font-size="13" lengthAdjust="spacing" textLength="3.6118" x="910.9773" y="239.9336">&#160;</text><text fill="#000000" font-family="Arial" font-size="13" lengthAdjust="spacing" textLength="41.9136" x="914.5891" y="239.9336">context</text></g><g class="message" data-participant-1="PostgreSQL" data-participant-2="ExecutionRepo"><polygon fill="#181818" points="694.4541,284.5859,684.4541,288.5859,694.4541,292.5859,690.4541,288.5859" style="stroke:#181818;stroke-width:1;"/><line style="stroke:#181818;stroke-width:1;stroke-dasharray:2,2;" x1="688.4541" x2="1164.1841" y1="288.5859" y2="288.5859"/><text fill="#000000" font-family="Arial" font-size="13" lengthAdjust="spacing" textLength="62.8672" x="892.8855" y="268.8823">completion</text><text fill="#000000" font-family="Arial" font-size="13" lengthAdjust="spacing" textLength="41.9136" x="903.3623" y="283.8311">context</text></g><g class="message" data-participant-1="ExecutionRepo" data-participant-2="Execution"><polygon fill="#181818" points="484.0952,328.4834,474.0952,332.4834,484.0952,336.4834,480.0952,332.4834" style="stroke:#181818;stroke-width:1;"/><line style="stroke:#181818;stroke-width:1;stroke-dasharray:2,2;" x1="478.0952" x2="677.4541" y1="332.4834" y2="332.4834"/><text fill="#000000" font-family="Arial" font-size="13" lengthAdjust="spacing" textLength="62.8672" x="544.3411" y="312.7798">completion</text><text fill="#000000" font-family="Arial" font-size="13" lengthAdjust="spacing" textLength="41.9136" x="554.8179" y="327.7285">context</text></g><path d="M387.5645,347.4834 L441.7354,347.4834 L441.7354,354.4321 L431.7354,364.4321 L381.5645,364.4321 L381.5645,353.4834 A6,6 0 0 1 387.5645,347.4834" fill="#EEEEEE" style="stroke:#000000;stroke-width:1.5;"/><rect fill="none" height="1190.9316" rx="6" ry="6" style="stroke:#000000;stroke-width:1.5;" width="973.4673" x="381.5645" y="347.4834"/><text fill="#000000" font-family="Arial" font-size="13" font-weight="bold" lengthAdjust="spacing" textLength="15.1709" x="396.5645" y="360.6772">alt</text><text fill="#000000" font-family="Arial" font-size="11" font-weight="bold" lengthAdjust="spacing" textLength="139.6646" x="456.7354" y="359.8013">[completion status = error]</text><g class="message" data-participant-1="Execution" data-participant-2="ExecutionRepo"><polygon fill="#181818" points="661.4541,381.3809,671.4541,385.3809,661.4541,389.3809,665.4541,385.3809" style="stroke:#181818;stroke-width:1;"/><line style="stroke:#181818;stroke-width:1;" x1="473.0952" x2="667.4541" y1="385.3809" y2="385.3809"/><text fill="#000000" font-family="Arial" font-size="13" lengthAdjust="spacing" textLength="132.1899" x="507.1797" y="380.626">CompleteTaskError(...)</text></g><g class="message" data-participant-1="ExecutionRepo" data-participant-2="PostgreSQL"><polygon fill="#181818" points="1148.1841,440.2271,1158.1841,444.2271,1148.1841,448.2271,1152.1841,444.2271" style="stroke:#181818;stroke-width:1;"/><line style="stroke:#181818;stroke-width:1;" x1="683.4541" x2="1154.1841" y1="444.2271" y2="444.2271"/><text fill="#000000" font-family="Arial" font-size="13" lengthAdjust="spacing" textLength="52.73" x="895.4541" y="409.5747">UPDATE</text><text fill="#000000" font-family="Arial" font-size="13" lengthAdjust="spacing" textLength="77.3208" x="883.1587" y="424.5234">external_task</text><text fill="#000000" font-family="Arial" font-size="13" lengthAdjust="spacing" textLength="13.73" x="897.6091" y="439.4722">as</text><text fill="#000000" font-family="Arial" font-size="13" lengthAdjust="spacing" textLength="3.6118" x="911.3391" y="439.4722">&#160;</text><text fill="#000000" font-family="Arial" font-size="13" lengthAdjust="spacing" textLength="31.0781" x="914.9509" y="439.4722">failed</text></g><g class="message" data-participant-1="PostgreSQL" data-participant-2="ExecutionRepo"><polygon fill="#181818" points="694.4541,469.1758,684.4541,473.1758,694.4541,477.1758,690.4541,473.1758" style="stroke:#181818;stroke-width:1;"/><line style="stroke:#181818;stroke-width:1;stroke-dasharray:2,2;" x1="688.4541" x2="1164.1841" y1="473.1758" y2="473.1758"/><text fill="#000000" font-family="Arial" font-size="13" lengthAdjust="spacing" textLength="52.749" x="897.9446" y="468.4209">persisted</text></g><g class="message" data-participant-1="ExecutionRepo" data-participant-2="Execution"><polygon fill="#181818" points="484.0952,498.1245,474.0952,502.1245,484.0952,506.1245,480.0952,502.1245" style="stroke:#181818;stroke-width:1;"/><line style="stroke:#181818;stroke-width:1;stroke-dasharray:2,2;" x1="478.0952" x2="677.4541" y1="502.1245" y2="502.1245"/><text fill="#000000" font-family="Arial" font-size="13" lengthAdjust="spacing" textLength="13.73" x="568.9097" y="497.3696">ok</text></g><line style="stroke:#000000;stroke-width:1;stroke-dasharray:2,2;" x1="381.5645" x2="1355.0317" y1="511.1245" y2="511.1245"/><text fill="#000000" font-family="Arial" font-size="11" font-weight="bold" lengthAdjust="spacing" textLength="157.4106" x="386.5645" y="521.4424">[completion status = success]</text><g class="message" data-participant-1="Execution" data-participant-2="ExecutionRepo"><polygon fill="#181818" points="661.4541,556.6709,671.4541,560.6709,661.4541,564.6709,665.4541,560.6709" style="stroke:#181818;stroke-width:1;"/><line style="stroke:#181818;stroke-width:1;" x1="473.0952" x2="667.4541" y1="560.6709" y2="560.6709"/><text fill="#000000" font-family="Arial" font-size="13" lengthAdjust="spacing" textLength="146.6753" x="499.937" y="540.9673">HasRawBatch(source_id,</text><text fill="#000000" font-family="Arial" font-size="13" lengthAdjust="spacing" textLength="53.479" x="546.5352" y="555.916">batch_id)</text></g><g class="message" data-participant-1="ExecutionRepo" data-participant-2="PostgreSQL"><polygon fill="#181818" points="1148.1841,615.5171,1158.1841,619.5171,1148.1841,623.5171,1152.1841,619.5171" style="stroke:#181818;stroke-width:1;"/><line style="stroke:#181818;stroke-width:1;" x1="683.4541" x2="1154.1841" y1="619.5171" y2="619.5171"/><text fill="#000000" font-family="Arial" font-size="13" lengthAdjust="spacing" textLength="50.5718" x="896.5332" y="584.8647">SELECT</text><text fill="#000000" font-family="Arial" font-size="13" lengthAdjust="spacing" textLength="59.979" x="891.8296" y="599.8135">raw_batch</text><text fill="#000000" font-family="Arial" font-size="13" lengthAdjust="spacing" textLength="54.9199" x="894.3591" y="614.7622">existence</text></g><g class="message" data-participant-1="PostgreSQL" data-participant-2="ExecutionRepo"><polygon fill="#181818" points="694.4541,644.4658,684.4541,648.4658,694.4541,652.4658,690.4541,648.4658" style="stroke:#181818;stroke-width:1;"/><line style="stroke:#181818;stroke-width:1;stroke-dasharray:2,2;" x1="688.4541" x2="1164.1841" y1="648.4658" y2="648.4658"/><text fill="#000000" font-family="Arial" font-size="13" lengthAdjust="spacing" textLength="40.46" x="904.0891" y="643.7109">exists?</text></g><g class="message" data-participant-1="ExecutionRepo" data-participant-2="Execution"><polygon fill="#181818" points="484.0952,673.4146,474.0952,677.4146,484.0952,681.4146,480.0952,677.4146" style="stroke:#181818;stroke-width:1;"/><line style="stroke:#181818;stroke-width:1;stroke-dasharray:2,2;" x1="478.0952" x2="677.4541" y1="677.4146" y2="677.4146"/><text fill="#000000" font-family="Arial" font-size="13" lengthAdjust="spacing" textLength="40.46" x="555.5447" y="672.6597">exists?</text></g><g class="message" data-participant-1="Execution" data-participant-2="MinIO"><polygon fill="#181818" points="773.3848,717.312,783.3848,721.312,773.3848,725.312,777.3848,721.312" style="stroke:#181818;stroke-width:1;"/><line style="stroke:#181818;stroke-width:1;" x1="473.0952" x2="779.3848" y1="721.312" y2="721.312"/><text fill="#000000" font-family="Arial" font-size="13" lengthAdjust="spacing" textLength="149.5444" x="554.4678" y="701.6084">verifyMinIOObject(bucket,</text><text fill="#000000" font-family="Arial" font-size="13" lengthAdjust="spacing" textLength="29.6309" x="614.4246" y="716.5571">path)</text></g><g class="message" data-participant-1="MinIO" data-participant-2="Execution"><polygon fill="#181818" points="484.0952,746.2607,474.0952,750.2607,484.0952,754.2607,480.0952,750.2607" style="stroke:#181818;stroke-width:1;"/><line style="stroke:#181818;stroke-width:1;stroke-dasharray:2,2;" x1="478.0952" x2="789.3848" y1="750.2607" y2="750.2607"/><text fill="#000000" font-family="Arial" font-size="13" lengthAdjust="spacing" textLength="16.6182" x="611.145" y="745.5059">file</text><text fill="#000000" font-family="Arial" font-size="13" lengthAdjust="spacing" textLength="3.6118" x="627.7632" y="745.5059">&#160;</text><text fill="#000000" font-family="Arial" font-size="13" lengthAdjust="spacing" textLength="20.96" x="631.375" y="745.5059">info</text></g><g class="message" data-participant-1="Execution" data-participant-2="ExecutionRepo"><polygon fill="#181818" points="661.4541,775.2095,671.4541,779.2095,661.4541,783.2095,665.4541,779.2095" style="stroke:#181818;stroke-width:1;"/><line style="stroke:#181818;stroke-width:1;" x1="473.0952" x2="667.4541" y1="779.2095" y2="779.2095"/><text fill="#000000" font-family="Arial" font-size="13" lengthAdjust="spacing" textLength="152.4326" x="497.0583" y="774.4546">CompleteTaskSuccess(...)</text></g><g class="message" data-participant-1="ExecutionRepo" data-participant-2="PostgreSQL"><polygon fill="#181818" points="1148.1841,863.9531,1158.1841,867.9531,1148.1841,871.9531,1152.1841,867.9531" style="stroke:#181818;stroke-width:1;"/><line style="stroke:#181818;stroke-width:1;" x1="683.4541" x2="1154.1841" y1="867.9531" y2="867.9531"/><text fill="#000000" font-family="Arial" font-size="13" lengthAdjust="spacing" textLength="52.73" x="895.4541" y="803.4033">UPDATE</text><text fill="#000000" font-family="Arial" font-size="13" lengthAdjust="spacing" textLength="77.3208" x="883.1587" y="818.3521">external_task</text><text fill="#000000" font-family="Arial" font-size="13" lengthAdjust="spacing" textLength="47.6709" x="897.9836" y="833.3008">INSERT</text><text fill="#000000" font-family="Arial" font-size="13" lengthAdjust="spacing" textLength="59.979" x="891.8296" y="848.2495">raw_batch</text><text fill="#000000" font-family="Arial" font-size="13" lengthAdjust="spacing" textLength="41.9263" x="900.856" y="863.1982">lineage</text></g><g class="message" data-participant-1="PostgreSQL" data-participant-2="ExecutionRepo"><polygon fill="#181818" points="694.4541,907.8506,684.4541,911.8506,694.4541,915.8506,690.4541,911.8506" style="stroke:#181818;stroke-width:1;"/><line style="stroke:#181818;stroke-width:1;stroke-dasharray:2,2;" x1="688.4541" x2="1164.1841" y1="911.8506" y2="911.8506"/><text fill="#000000" font-family="Arial" font-size="13" lengthAdjust="spacing" textLength="59.979" x="894.3296" y="892.147">raw_batch</text><text fill="#000000" font-family="Arial" font-size="13" lengthAdjust="spacing" textLength="52.749" x="897.9446" y="907.0957">persisted</text></g><g class="message" data-participant-1="ExecutionRepo" data-participant-2="Execution"><polygon fill="#181818" points="484.0952,936.7993,474.0952,940.7993,484.0952,944.7993,480.0952,940.7993" style="stroke:#181818;stroke-width:1;"/><line style="stroke:#181818;stroke-width:1;stroke-dasharray:2,2;" x1="478.0952" x2="677.4541" y1="940.7993" y2="940.7993"/><text fill="#000000" font-family="Arial" font-size="13" lengthAdjust="spacing" textLength="59.979" x="545.7852" y="936.0444">raw_batch</text></g><path d="M397.5645,955.7993 L456.7754,955.7993 L456.7754,962.748 L446.7754,972.748 L391.5645,972.748 L391.5645,961.7993 A6,6 0 0 1 397.5645,955.7993" fill="#EEEEEE" style="stroke:#000000;stroke-width:1.5;"/><rect fill="none" height="575.6157" rx="6" ry="6" style="stroke:#000000;stroke-width:1.5;" width="953.4673" x="391.5645" y="955.7993"/><text fill="#000000" font-family="Arial" font-size="13" font-weight="bold" lengthAdjust="spacing" textLength="20.2109" x="406.5645" y="968.9932">opt</text><text fill="#000000" font-family="Arial" font-size="11" font-weight="bold" lengthAdjust="spacing" textLength="196.1899" x="471.7754" y="968.1172">[parser supports platform and action]</text><g class="message" data-participant-1="Execution" data-participant-2="UAPUC"><polygon fill="#181818" points="927.3892,1004.6455,937.3892,1008.6455,927.3892,1012.6455,931.3892,1008.6455" style="stroke:#181818;stroke-width:1;"/><line style="stroke:#181818;stroke-width:1;" x1="473.0952" x2="933.3892" y1="1008.6455" y2="1008.6455"/><text fill="#000000" font-family="Arial" font-size="13" lengthAdjust="spacing" textLength="211.7197" x="600.3823" y="988.9419">ParseAndStoreRawBatch(raw_batch</text><text fill="#000000" font-family="Arial" font-size="13" lengthAdjust="spacing" textLength="32.519" x="689.9827" y="1003.8906">input)</text></g><g class="message" data-participant-1="UAPUC" data-participant-2="PostgreSQL"><polygon fill="#181818" points="1148.1841,1093.3892,1158.1841,1097.3892,1148.1841,1101.3892,1152.1841,1097.3892" style="stroke:#181818;stroke-width:1;"/><line style="stroke:#181818;stroke-width:1;" x1="949.3892" x2="1154.1841" y1="1097.3892" y2="1097.3892"/><text fill="#000000" font-family="Arial" font-size="13" lengthAdjust="spacing" textLength="30.3354" x="1026.968" y="1032.8394">claim</text><text fill="#000000" font-family="Arial" font-size="13" lengthAdjust="spacing" textLength="3.6118" x="1057.3035" y="1032.8394">&#160;</text><text fill="#000000" font-family="Arial" font-size="13" lengthAdjust="spacing" textLength="21.6899" x="1060.9153" y="1032.8394">and</text><text fill="#000000" font-family="Arial" font-size="13" lengthAdjust="spacing" textLength="28.8882" x="1040.3425" y="1047.7881">mark</text><text fill="#000000" font-family="Arial" font-size="13" lengthAdjust="spacing" textLength="59.979" x="1024.7971" y="1062.7368">raw_batch</text><text fill="#000000" font-family="Arial" font-size="13" lengthAdjust="spacing" textLength="42.6372" x="1033.468" y="1077.6855">parsing</text><text fill="#000000" font-family="Arial" font-size="13" lengthAdjust="spacing" textLength="28.1836" x="1040.6948" y="1092.6343">state</text></g><g class="message" data-participant-1="PostgreSQL" data-participant-2="UAPUC"><polygon fill="#181818" points="960.3892,1122.3379,950.3892,1126.3379,960.3892,1130.3379,956.3892,1126.3379" style="stroke:#181818;stroke-width:1;"/><line style="stroke:#181818;stroke-width:1;stroke-dasharray:2,2;" x1="954.3892" x2="1164.1841" y1="1126.3379" y2="1126.3379"/><text fill="#000000" font-family="Arial" font-size="13" lengthAdjust="spacing" textLength="44.7954" x="1034.8889" y="1121.583">claimed</text></g><g class="message" data-participant-1="UAPUC" data-participant-2="MinIO"><polygon fill="#181818" points="806.3848,1166.2354,796.3848,1170.2354,806.3848,1174.2354,802.3848,1170.2354" style="stroke:#181818;stroke-width:1;"/><line style="stroke:#181818;stroke-width:1;" x1="800.3848" x2="938.3892" y1="1170.2354" y2="1170.2354"/><text fill="#000000" font-family="Arial" font-size="13" lengthAdjust="spacing" textLength="125.0044" x="804.8848" y="1150.5317">DownloadFile(bucket,</text><text fill="#000000" font-family="Arial" font-size="13" lengthAdjust="spacing" textLength="39.019" x="847.8774" y="1165.4805">object)</text></g><g class="message" data-participant-1="MinIO" data-participant-2="UAPUC"><polygon fill="#181818" points="927.3892,1210.1328,937.3892,1214.1328,927.3892,1218.1328,931.3892,1214.1328" style="stroke:#181818;stroke-width:1;"/><line style="stroke:#181818;stroke-width:1;stroke-dasharray:2,2;" x1="790.3848" x2="933.3892" y1="1214.1328" y2="1214.1328"/><text fill="#000000" font-family="Arial" font-size="13" lengthAdjust="spacing" textLength="20.9473" x="833.1011" y="1194.4292">raw</text><text fill="#000000" font-family="Arial" font-size="13" lengthAdjust="spacing" textLength="3.6118" x="854.0483" y="1194.4292">&#160;</text><text fill="#000000" font-family="Arial" font-size="13" lengthAdjust="spacing" textLength="39.0127" x="857.6602" y="1194.4292">artifact</text><text fill="#000000" font-family="Arial" font-size="13" lengthAdjust="spacing" textLength="31.0718" x="849.3511" y="1209.3779">bytes</text></g><path d="M888.2617,1229.1328 L954.6963,1229.1328 L954.6963,1236.0815 L944.6963,1246.0815 L882.2617,1246.0815 L882.2617,1235.1328 A6,6 0 0 1 888.2617,1229.1328" fill="#EEEEEE" style="stroke:#000000;stroke-width:1.5;"/><rect fill="none" height="118.7437" rx="6" ry="6" style="stroke:#000000;stroke-width:1.5;" width="452.77" x="882.2617" y="1229.1328"/><text fill="#000000" font-family="Arial" font-size="13" font-weight="bold" lengthAdjust="spacing" textLength="27.4346" x="897.2617" y="1242.3267">loop</text><text fill="#000000" font-family="Arial" font-size="11" font-weight="bold" lengthAdjust="spacing" textLength="135.7061" x="969.6963" y="1241.4507">[each parsed UAPRecord]</text><g class="message" data-participant-1="UAPUC" data-participant-2="UAPPublisher"><polygon fill="#181818" points="1044.5327,1263.0303,1054.5327,1267.0303,1044.5327,1271.0303,1048.5327,1267.0303" style="stroke:#181818;stroke-width:1;"/><line style="stroke:#181818;stroke-width:1;" x1="949.3892" x2="1050.5327" y1="1267.0303" y2="1267.0303"/><text fill="#000000" font-family="Arial" font-size="13" lengthAdjust="spacing" textLength="88.1436" x="958.8892" y="1262.2754">Publish(record)</text></g><g class="message" data-participant-1="UAPPublisher" data-participant-2="AnalyticsInput"><line style="stroke:#181818;stroke-width:1;" x1="1268.6733" x2="1258.6733" y1="1295.979" y2="1291.979"/><line style="stroke:#181818;stroke-width:1;" x1="1268.6733" x2="1258.6733" y1="1295.979" y2="1299.979"/><line style="stroke:#181818;stroke-width:1;" x1="1066.5327" x2="1269.6733" y1="1295.979" y2="1295.979"/><text fill="#000000" font-family="Arial" font-size="13" lengthAdjust="spacing" textLength="68.6372" x="1134.2844" y="1291.2241">UAPRecord</text></g><g class="message" data-participant-1="UAPPublisher" data-participant-2="UAPUC"><polygon fill="#181818" points="960.3892,1335.8765,950.3892,1339.8765,960.3892,1343.8765,956.3892,1339.8765" style="stroke:#181818;stroke-width:1;"/><line style="stroke:#181818;stroke-width:1;stroke-dasharray:2,2;" x1="954.3892" x2="1060.5327" y1="1339.8765" y2="1339.8765"/><text fill="#000000" font-family="Arial" font-size="13" lengthAdjust="spacing" textLength="41.1963" x="984.8628" y="1320.1729">publish</text><text fill="#000000" font-family="Arial" font-size="13" lengthAdjust="spacing" textLength="31.7891" x="989.5664" y="1335.1216">result</text></g><g class="message" data-participant-1="UAPUC" data-participant-2="PostgreSQL"><polygon fill="#181818" points="1148.1841,1431.6201,1158.1841,1435.6201,1148.1841,1439.6201,1152.1841,1435.6201" style="stroke:#181818;stroke-width:1;"/><line style="stroke:#181818;stroke-width:1;" x1="949.3892" x2="1154.1841" y1="1435.6201" y2="1435.6201"/><text fill="#000000" font-family="Arial" font-size="13" lengthAdjust="spacing" textLength="28.8882" x="1040.3425" y="1371.0703">mark</text><text fill="#000000" font-family="Arial" font-size="13" lengthAdjust="spacing" textLength="59.979" x="1024.7971" y="1386.019">raw_batch</text><text fill="#000000" font-family="Arial" font-size="13" lengthAdjust="spacing" textLength="39.749" x="1034.9121" y="1400.9678">parsed</text><text fill="#000000" font-family="Arial" font-size="13" lengthAdjust="spacing" textLength="23.1182" x="1020.8235" y="1415.9165">with</text><text fill="#000000" font-family="Arial" font-size="13" lengthAdjust="spacing" textLength="3.6118" x="1043.9417" y="1415.9165">&#160;</text><text fill="#000000" font-family="Arial" font-size="13" lengthAdjust="spacing" textLength="41.1963" x="1047.5535" y="1415.9165">publish</text><text fill="#000000" font-family="Arial" font-size="13" lengthAdjust="spacing" textLength="49.8418" x="1029.8657" y="1430.8652">statistics</text></g><g class="message" data-participant-1="PostgreSQL" data-participant-2="UAPUC"><polygon fill="#181818" points="960.3892,1475.5176,950.3892,1479.5176,960.3892,1483.5176,956.3892,1479.5176" style="stroke:#181818;stroke-width:1;"/><line style="stroke:#181818;stroke-width:1;stroke-dasharray:2,2;" x1="954.3892" x2="1164.1841" y1="1479.5176" y2="1479.5176"/><text fill="#000000" font-family="Arial" font-size="13" lengthAdjust="spacing" textLength="39.749" x="1037.4121" y="1459.814">parsed</text><text fill="#000000" font-family="Arial" font-size="13" lengthAdjust="spacing" textLength="28.1836" x="1024.0439" y="1474.7627">state</text><text fill="#000000" font-family="Arial" font-size="13" lengthAdjust="spacing" textLength="3.6118" x="1052.2275" y="1474.7627">&#160;</text><text fill="#000000" font-family="Arial" font-size="13" lengthAdjust="spacing" textLength="34.6899" x="1055.8394" y="1474.7627">saved</text></g><g class="message" data-participant-1="UAPUC" data-participant-2="Execution"><polygon fill="#181818" points="484.0952,1519.415,474.0952,1523.415,484.0952,1527.415,480.0952,1523.415" style="stroke:#181818;stroke-width:1;"/><line style="stroke:#181818;stroke-width:1;stroke-dasharray:2,2;" x1="478.0952" x2="943.3892" y1="1523.415" y2="1523.415"/><text fill="#000000" font-family="Arial" font-size="13" lengthAdjust="spacing" textLength="32.519" x="679.1177" y="1503.7114">parse</text><text fill="#000000" font-family="Arial" font-size="13" lengthAdjust="spacing" textLength="3.6118" x="711.6367" y="1503.7114">&#160;</text><text fill="#000000" font-family="Arial" font-size="13" lengthAdjust="spacing" textLength="23.1182" x="715.2485" y="1503.7114">flow</text><text fill="#000000" font-family="Arial" font-size="13" lengthAdjust="spacing" textLength="44.8081" x="686.3381" y="1518.6602">finished</text></g><g class="message" data-participant-1="Execution" data-participant-2="Consumer"><polygon fill="#181818" points="306.2954,1577.3125,296.2954,1581.3125,306.2954,1585.3125,302.2954,1581.3125" style="stroke:#181818;stroke-width:1;"/><line style="stroke:#181818;stroke-width:1;stroke-dasharray:2,2;" x1="300.2954" x2="467.0952" y1="1581.3125" y2="1581.3125"/><text fill="#000000" font-family="Arial" font-size="13" lengthAdjust="spacing" textLength="62.8672" x="350.2617" y="1561.6089">completion</text><text fill="#000000" font-family="Arial" font-size="13" lengthAdjust="spacing" textLength="46.2681" x="358.5613" y="1576.5576">handled</text></g><!--SRC=[jLPDRniv3BtFho1oSe0csErbWGARXUkwss2Rrh6Jcu60dk74gcLfLjB4oVxwfJHVch6Jj2vwC619v2FvzCIXtGXLeC4jP9HZATr7hTmNt1ACZK2PsFRShZ7JEw7k8KTfAJwXVqjIALsHjNXFOodk5QIa79d8of0jjBADrNkIUZSsHk_0cJA6s-9ZRRCG_n7yyLiCeakLfTeeCl3xsoJXm2N1oHnNA-6khY6ibugp9Elk7DhDNQgtXIGdEFPIQGFrMMQUJAdYqnD02vDsVUsX4WxhH2eAL0vEkaEsKxRSagcTgaNVUlf8QUcDRorDq58mRJUViOKv5RflwNVwrbT2NNw5YHJCSR0D6tsRs_4Cui2ylfticypAbHHsNHV2E-r6ag735Rl3oKnRTszeSVqvM7NBXlz_CDyWE5s8TAbGeNpYA9QfBiegmN6pT-ctacH0CvnTNBGimZlMeXGF_A-x7I3rm8efAC7KYGTqrB7UEfvTTAmnoYTKcQGkr2ZaSzeXT9UHT7unYAUUWVucrw5mD4UFRXJ49R93SE76-Y2Csj76a8lfv-da1XY837C37etB3T0TOiHqv7rs8CM8gGObeqCuWxG6bBqCqoymGUbY1-lGbHR-1E9NRHA05pcj2QKRBdpg7KRdv-UdxFLCD82N2RsTVHZVJ5j2mzltoijHICfYt8WCW5TeBSXOOLq0ECpdNbu3HlMcxzglYhYJ7kJGbcdAJV0r5Z-XdUFkFRfqFRAwD2cn9D_0ocy4SHxDPorGWxkxWCRCUYAupH_BPG2mVntDv47_WIG7T5MDyXrmBn7vKrXzNNsZr8rMPReXzmOATEiUIrKhXTfrc4FEOkAsbkj-5fNJZqX-KTtlBn3zKbr-MKpdyTL9eOW_fyTUN0Vqyy-XnNhb6dNX-6wCvQvkowBGnbae9BfScormNm-LSEC6690UldCSQEQTnofRE6seVIDTAVMtmFktMLJVIBzLeGpfJYMAAleMpIRcXOFvoSW_N-fZzhZPexh9DY07MfydDiggqVK7lLDIO_QHPTbAMWU53qfhP1qBkmdETO2V2tAsXjMJ8plCe_EMMXV01rNDb7cGEV54LkKUvHZF4lu-glyZ4unFQ-kO-cxoQ94w03yWz8S8B__zs957L65HxVePb4VSsZggRoywgUm57HouVSgMQYVSkWtbfS1FXRCzHWyrkK5FOF7XUwKnU6q11dAUjBbpAL_U7awZUL-n_yMJq5blA8i-K-imMMK7PuDui_7-7m00]--></g></svg>