<svg xmlns="http://www.w3.org/2000/svg" xmlns:xlink="http://www.w3.org/1999/xlink" contentStyleType="text/css" data-diagram-type="SEQUENCE" height="1772px" preserveAspectRatio="none" style="width:1285px;height:1772px;background:#FFFFFF;" version="1.1" viewBox="0 0 1285 1772" width="1285px" zoomAndPan="magnify"><defs/><g><g><title>Project Handler</title><rect fill="#FFFFFF" height="1547.2632" style="stroke:#181818;stroke-width:1;" width="10" x="178.418" y="126.9961"/></g><g><title>Lifecycle UseCase</title><rect fill="#FFFFFF" height="1372.6733" style="stroke:#181818;stroke-width:1;" width="10" x="341.0215" y="257.6885"/></g><g><title>Project Repo</title><rect fill="#FFFFFF" height="131.6924" style="stroke:#181818;stroke-width:1;" width="10" x="482.7559" y="286.6372"/></g><g><title>Project Repo</title><rect fill="#FFFFFF" height="131.6924" style="stroke:#181818;stroke-width:1;" width="10" x="482.7559" y="1293.1821"/></g><g><title>PostgreSQL</title><rect fill="#FFFFFF" height="43.8975" style="stroke:#181818;stroke-width:1;" width="10" x="599.9058" y="345.4834"/></g><g><title>PostgreSQL</title><rect fill="#FFFFFF" height="43.8975" style="stroke:#181818;stroke-width:1;" width="10" x="599.9058" y="1337.0796"/></g><g><title>Ingest Client</title><rect fill="#FFFFFF" height="131.6924" style="stroke:#181818;stroke-width:1;" width="10" x="696.9468" y="486.1758"/></g><g><title>Ingest Client</title><rect fill="#FFFFFF" height="101.7949" style="stroke:#181818;stroke-width:1;" width="10" x="696.9468" y="676.7144"/></g><g><title>Ingest Client</title><rect fill="#FFFFFF" height="101.7949" style="stroke:#181818;stroke-width:1;" width="10" x="696.9468" y="822.1069"/></g><g><title>Ingest Client</title><rect fill="#FFFFFF" height="101.7949" style="stroke:#181818;stroke-width:1;" width="10" x="696.9468" y="967.4995"/></g><g><title>ingest-srv</title><rect fill="#FFFFFF" height="43.8975" style="stroke:#181818;stroke-width:1;" width="10" x="999.4546" y="530.0732"/></g><g><title>ingest-srv</title><rect fill="#FFFFFF" height="28.9487" style="stroke:#181818;stroke-width:1;" width="10" x="999.4546" y="720.6118"/></g><g><title>ingest-srv</title><rect fill="#FFFFFF" height="28.9487" style="stroke:#181818;stroke-width:1;" width="10" x="999.4546" y="866.0044"/></g><g><title>ingest-srv</title><rect fill="#FFFFFF" height="28.9487" style="stroke:#181818;stroke-width:1;" width="10" x="999.4546" y="1011.397"/></g><g><title>Lifecycle Event</title><rect fill="#FFFFFF" height="117.6924" style="stroke:#181818;stroke-width:1;" width="10" x="1100.875" y="1468.772"/></g><rect fill="none" height="802.0063" rx="6" ry="6" style="stroke:#000000;stroke-width:1.5;" width="780.7432" x="271.0527" y="433.3296"/><g><title>UI</title><rect fill="#000000" fill-opacity="0.00000" height="1611.1606" width="8" x="14.5" y="81.0986"/><line style="stroke:#181818;stroke-width:0.5;stroke-dasharray:5,5;" x1="18" x2="18" y1="81.0986" y2="1692.2593"/></g><g><title>Project Handler</title><rect fill="#000000" fill-opacity="0.00000" height="1611.1606" width="8" x="179.418" y="81.0986"/><line style="stroke:#181818;stroke-width:0.5;stroke-dasharray:5,5;" x1="183.1733" x2="183.1733" y1="81.0986" y2="1692.2593"/></g><g><title>Lifecycle UseCase</title><rect fill="#000000" fill-opacity="0.00000" height="1611.1606" width="8" x="342.0215" y="81.0986"/><line style="stroke:#181818;stroke-width:0.5;stroke-dasharray:5,5;" x1="345.0527" x2="345.0527" y1="81.0986" y2="1692.2593"/></g><g><title>Project Repo</title><rect fill="#000000" fill-opacity="0.00000" height="1611.1606" width="8" x="483.7559" y="81.0986"/><line style="stroke:#181818;stroke-width:0.5;stroke-dasharray:5,5;" x1="487.2905" x2="487.2905" y1="81.0986" y2="1692.2593"/></g><g><title>PostgreSQL</title><rect fill="#000000" fill-opacity="0.00000" height="1611.1606" width="8" x="600.9058" y="81.0986"/><line style="stroke:#181818;stroke-width:0.5;stroke-dasharray:5,5;" x1="604.7749" x2="604.7749" y1="81.0986" y2="1692.2593"/></g><g><title>Ingest Client</title><rect fill="#000000" fill-opacity="0.00000" height="1611.1606" width="8" x="697.9468" y="81.0986"/><line style="stroke:#181818;stroke-width:0.5;stroke-dasharray:5,5;" x1="701.0366" x2="701.0366" y1="81.0986" y2="1692.2593"/></g><g><title>ingest-srv</title><rect fill="#000000" fill-opacity="0.00000" height="1611.1606" width="8" x="1000.4546" y="81.0986"/><line style="stroke:#181818;stroke-width:0.5;stroke-dasharray:5,5;" x1="1004.1133" x2="1004.1133" y1="81.0986" y2="1692.2593"/></g><g><title>Lifecycle Event</title><rect fill="#000000" fill-opacity="0.00000" height="1611.1606" width="8" x="1101.875" y="81.0986"/><line style="stroke:#181818;stroke-width:0.5;stroke-dasharray:5,5;" x1="1105.7959" x2="1105.7959" y1="81.0986" y2="1692.2593"/></g><g><title>Kafka topic</title><rect fill="#000000" fill-opacity="0.00000" height="1611.1606" width="8" x="1220.8057" y="81.0986"/><line style="stroke:#181818;stroke-width:0.5;stroke-dasharray:5,5;" x1="1223.9541" x2="1223.9541" y1="81.0986" y2="1692.2593"/></g><g class="participant participant-head" data-participant="UI"><text fill="#000000" font-family="Arial" font-size="14" lengthAdjust="spacing" textLength="14" x="8.5" y="78.1318">UI</text><ellipse cx="18.5" cy="13.5" fill="#E2E2F0" rx="8" ry="8" style="stroke:#181818;stroke-width:0.5;"/><path d="M18.5,21.5 L18.5,48.5 M5.5,29.5 L31.5,29.5 M18.5,48.5 L5.5,63.5 M18.5,48.5 L31.5,63.5" fill="none" style="stroke:#181818;stroke-width:0.5;"/></g><g class="participant participant-tail" data-participant="UI"><text fill="#000000" font-family="Arial" font-size="14" lengthAdjust="spacing" textLength="14" x="8.5" y="1704.3911">UI</text><ellipse cx="18.5" cy="1715.8579" fill="#E2E2F0" rx="8" ry="8" style="stroke:#181818;stroke-width:0.5;"/><path d="M18.5,1723.8579 L18.5,1750.8579 M5.5,1731.8579 L31.5,1731.8579 M18.5,1750.8579 L5.5,1765.8579 M18.5,1750.8579 L31.5,1765.8579" fill="none" style="stroke:#181818;stroke-width:0.5;"/></g><g class="participant participant-head" data-participant="ProjectHandler"><rect fill="#E2E2F0" height="30.0986" rx="6" ry="6" style="stroke:#181818;stroke-width:0.5;" width="110.4893" x="128.1733" y="50"/><text fill="#000000" font-family="Arial" font-size="14" lengthAdjust="spacing" textLength="96.4893" x="135.1733" y="70.1318">Project Handler</text></g><g class="participant participant-tail" data-participant="ProjectHandler"><rect fill="#E2E2F0" height="30.0986" rx="6" ry="6" style="stroke:#181818;stroke-width:0.5;" width="110.4893" x="128.1733" y="1691.2593"/><text fill="#000000" font-family="Arial" font-size="14" lengthAdjust="spacing" textLength="96.4893" x="135.1733" y="1711.3911">Project Handler</text></g><g class="participant participant-head" data-participant="LifecycleUC"><rect fill="#E2E2F0" height="30.0986" rx="6" ry="6" style="stroke:#181818;stroke-width:0.5;" width="129.9375" x="281.0527" y="50"/><text fill="#000000" font-family="Arial" font-size="14" lengthAdjust="spacing" textLength="115.9375" x="288.0527" y="70.1318">Lifecycle UseCase</text></g><g class="participant participant-tail" data-participant="LifecycleUC"><rect fill="#E2E2F0" height="30.0986" rx="6" ry="6" style="stroke:#181818;stroke-width:0.5;" width="129.9375" x="281.0527" y="1691.2593"/><text fill="#000000" font-family="Arial" font-size="14" lengthAdjust="spacing" textLength="115.9375" x="288.0527" y="1711.3911">Lifecycle UseCase</text></g><g class="participant participant-head" data-participant="ProjectRepo"><rect fill="#E2E2F0" height="30.0986" rx="6" ry="6" style="stroke:#181818;stroke-width:0.5;" width="94.9307" x="440.2905" y="50"/><text fill="#000000" font-family="Arial" font-size="14" lengthAdjust="spacing" textLength="80.9307" x="447.2905" y="70.1318">Project Repo</text></g><g class="participant participant-tail" data-participant="ProjectRepo"><rect fill="#E2E2F0" height="30.0986" rx="6" ry="6" style="stroke:#181818;stroke-width:0.5;" width="94.9307" x="440.2905" y="1691.2593"/><text fill="#000000" font-family="Arial" font-size="14" lengthAdjust="spacing" textLength="80.9307" x="447.2905" y="1711.3911">Project Repo</text></g><g class="participant participant-head" data-participant="PostgreSQL"><text fill="#000000" font-family="Arial" font-size="14" lengthAdjust="spacing" textLength="76.2617" x="563.7749" y="78.1318">PostgreSQL</text><path d="M586.9058,29 C586.9058,19 604.9058,19 604.9058,19 C604.9058,19 622.9058,19 622.9058,29 L622.9058,55 C622.9058,65 604.9058,65 604.9058,65 C604.9058,65 586.9058,65 586.9058,55 L586.9058,29" fill="#E2E2F0" style="stroke:#181818;stroke-width:0.5;"/><path d="M586.9058,29 C586.9058,39 604.9058,39 604.9058,39 C604.9058,39 622.9058,39 622.9058,29" fill="none" style="stroke:#181818;stroke-width:0.5;"/></g><g class="participant participant-tail" data-participant="PostgreSQL"><text fill="#000000" font-family="Arial" font-size="14" lengthAdjust="spacing" textLength="76.2617" x="563.7749" y="1704.3911">PostgreSQL</text><path d="M586.9058,1717.3579 C586.9058,1707.3579 604.9058,1707.3579 604.9058,1707.3579 C604.9058,1707.3579 622.9058,1707.3579 622.9058,1717.3579 L622.9058,1743.3579 C622.9058,1753.3579 604.9058,1753.3579 604.9058,1753.3579 C604.9058,1753.3579 586.9058,1753.3579 586.9058,1743.3579 L586.9058,1717.3579" fill="#E2E2F0" style="stroke:#181818;stroke-width:0.5;"/><path d="M586.9058,1717.3579 C586.9058,1727.3579 604.9058,1727.3579 604.9058,1727.3579 C604.9058,1727.3579 622.9058,1727.3579 622.9058,1717.3579" fill="none" style="stroke:#181818;stroke-width:0.5;"/></g><g class="participant participant-head" data-participant="IngestClient"><rect fill="#E2E2F0" height="30.0986" rx="6" ry="6" style="stroke:#181818;stroke-width:0.5;" width="91.8203" x="656.0366" y="50"/><text fill="#000000" font-family="Arial" font-size="14" lengthAdjust="spacing" textLength="77.8203" x="663.0366" y="70.1318">Ingest Client</text></g><g class="participant participant-tail" data-participant="IngestClient"><rect fill="#E2E2F0" height="30.0986" rx="6" ry="6" style="stroke:#181818;stroke-width:0.5;" width="91.8203" x="656.0366" y="1691.2593"/><text fill="#000000" font-family="Arial" font-size="14" lengthAdjust="spacing" textLength="77.8203" x="663.0366" y="1711.3911">Ingest Client</text></g><g class="participant participant-head" data-participant="IngestService"><rect fill="#E2E2F0" height="30.0986" rx="6" ry="6" style="stroke:#181818;stroke-width:0.5;" width="74.6826" x="967.1133" y="50"/><text fill="#000000" font-family="Arial" font-size="14" lengthAdjust="spacing" textLength="60.6826" x="974.1133" y="70.1318">ingest-srv</text></g><g class="participant participant-tail" data-participant="IngestService"><rect fill="#E2E2F0" height="30.0986" rx="6" ry="6" style="stroke:#181818;stroke-width:0.5;" width="74.6826" x="967.1133" y="1691.2593"/><text fill="#000000" font-family="Arial" font-size="14" lengthAdjust="spacing" textLength="60.6826" x="974.1133" y="1711.3911">ingest-srv</text></g><g class="participant participant-head" data-participant="Publisher"><rect fill="#E2E2F0" height="46.1973" rx="6" ry="6" style="stroke:#181818;stroke-width:0.5;" width="108.1582" x="1051.7959" y="33.9014"/><text fill="#000000" font-family="Arial" font-size="14" lengthAdjust="spacing" textLength="94.1582" x="1058.7959" y="54.0332">Lifecycle Event</text><text fill="#000000" font-family="Arial" font-size="14" lengthAdjust="spacing" textLength="58.3652" x="1076.6924" y="70.1318">Publisher</text></g><g class="participant participant-tail" data-participant="Publisher"><rect fill="#E2E2F0" height="46.1973" rx="6" ry="6" style="stroke:#181818;stroke-width:0.5;" width="108.1582" x="1051.7959" y="1691.2593"/><text fill="#000000" font-family="Arial" font-size="14" lengthAdjust="spacing" textLength="94.1582" x="1058.7959" y="1711.3911">Lifecycle Event</text><text fill="#000000" font-family="Arial" font-size="14" lengthAdjust="spacing" textLength="58.3652" x="1076.6924" y="1727.4897">Publisher</text></g><g class="participant participant-head" data-participant="KafkaTopic"><rect fill="#E2E2F0" height="46.1973" rx="6" ry="6" style="stroke:#181818;stroke-width:0.5;" width="109.7031" x="1169.9541" y="33.9014"/><text fill="#000000" font-family="Arial" font-size="14" lengthAdjust="spacing" textLength="69.2617" x="1190.1748" y="54.0332">Kafka topic</text><text fill="#000000" font-family="Arial" font-size="14" lengthAdjust="spacing" textLength="95.7031" x="1176.9541" y="70.1318">project.lifecycle</text></g><g class="participant participant-tail" data-participant="KafkaTopic"><rect fill="#E2E2F0" height="46.1973" rx="6" ry="6" style="stroke:#181818;stroke-width:0.5;" width="109.7031" x="1169.9541" y="1691.2593"/><text fill="#000000" font-family="Arial" font-size="14" lengthAdjust="spacing" textLength="69.2617" x="1190.1748" y="1711.3911">Kafka topic</text><text fill="#000000" font-family="Arial" font-size="14" lengthAdjust="spacing" textLength="95.7031" x="1176.9541" y="1727.4897">project.lifecycle</text></g><g><title>Project Handler</title><rect fill="#FFFFFF" height="1547.2632" style="stroke:#181818;stroke-width:1;" width="10" x="178.418" y="126.9961"/></g><g><title>Lifecycle UseCase</title><rect fill="#FFFFFF" height="1372.6733" style="stroke:#181818;stroke-width:1;" width="10" x="341.0215" y="257.6885"/></g><g><title>Project Repo</title><rect fill="#FFFFFF" height="131.6924" style="stroke:#181818;stroke-width:1;" width="10" x="482.7559" y="286.6372"/></g><g><title>Project Repo</title><rect fill="#FFFFFF" height="131.6924" style="stroke:#181818;stroke-width:1;" width="10" x="482.7559" y="1293.1821"/></g><g><title>PostgreSQL</title><rect fill="#FFFFFF" height="43.8975" style="stroke:#181818;stroke-width:1;" width="10" x="599.9058" y="345.4834"/></g><g><title>PostgreSQL</title><rect fill="#FFFFFF" height="43.8975" style="stroke:#181818;stroke-width:1;" width="10" x="599.9058" y="1337.0796"/></g><g><title>Ingest Client</title><rect fill="#FFFFFF" height="131.6924" style="stroke:#181818;stroke-width:1;" width="10" x="696.9468" y="486.1758"/></g><g><title>Ingest Client</title><rect fill="#FFFFFF" height="101.7949" style="stroke:#181818;stroke-width:1;" width="10" x="696.9468" y="676.7144"/></g><g><title>Ingest Client</title><rect fill="#FFFFFF" height="101.7949" style="stroke:#181818;stroke-width:1;" width="10" x="696.9468" y="822.1069"/></g><g><title>Ingest Client</title><rect fill="#FFFFFF" height="101.7949" style="stroke:#181818;stroke-width:1;" width="10" x="696.9468" y="967.4995"/></g><g><title>ingest-srv</title><rect fill="#FFFFFF" height="43.8975" style="stroke:#181818;stroke-width:1;" width="10" x="999.4546" y="530.0732"/></g><g><title>ingest-srv</title><rect fill="#FFFFFF" height="28.9487" style="stroke:#181818;stroke-width:1;" width="10" x="999.4546" y="720.6118"/></g><g><title>ingest-srv</title><rect fill="#FFFFFF" height="28.9487" style="stroke:#181818;stroke-width:1;" width="10" x="999.4546" y="866.0044"/></g><g><title>ingest-srv</title><rect fill="#FFFFFF" height="28.9487" style="stroke:#181818;stroke-width:1;" width="10" x="999.4546" y="1011.397"/></g><g><title>Lifecycle Event</title><rect fill="#FFFFFF" height="117.6924" style="stroke:#181818;stroke-width:1;" width="10" x="1100.875" y="1468.772"/></g><g class="message" data-participant-1="UI" data-participant-2="ProjectHandler"><polygon fill="#181818" points="166.418,122.9961,176.418,126.9961,166.418,130.9961,170.418,126.9961" style="stroke:#181818;stroke-width:1;"/><line style="stroke:#181818;stroke-width:1;" x1="18.5" x2="172.418" y1="126.9961" y2="126.9961"/><text fill="#000000" font-family="Arial" font-size="13" lengthAdjust="spacing" textLength="35.3945" x="80.7617" y="107.2925">POST</text><text fill="#000000" font-family="Arial" font-size="13" lengthAdjust="spacing" textLength="140.918" x="28" y="122.2412">/projects/{id}/{command}</text></g><g class="message" data-participant-1="ProjectHandler" data-participant-2="ProjectHandler"><line style="stroke:#181818;stroke-width:1;" x1="188.418" x2="230.418" y1="155.9448" y2="155.9448"/><line style="stroke:#181818;stroke-width:1;" x1="230.418" x2="230.418" y1="155.9448" y2="168.9448"/><line style="stroke:#181818;stroke-width:1;" x1="189.418" x2="230.418" y1="168.9448" y2="168.9448"/><polygon fill="#181818" points="199.418,164.9448,189.418,168.9448,199.418,172.9448,195.418,168.9448" style="stroke:#181818;stroke-width:1;"/><text fill="#000000" font-family="Arial" font-size="13" lengthAdjust="spacing" textLength="128.6035" x="195.418" y="151.1899">processLifecycleReq()</text></g><g class="message" data-participant-1="ProjectHandler" data-participant-2="LifecycleUC"><polygon fill="#181818" points="329.0215,253.6885,339.0215,257.6885,329.0215,261.6885,333.0215,257.6885" style="stroke:#181818;stroke-width:1;"/><line style="stroke:#181818;stroke-width:1;" x1="188.418" x2="335.0215" y1="257.6885" y2="257.6885"/><text fill="#000000" font-family="Arial" font-size="13" lengthAdjust="spacing" textLength="46.2427" x="237.9866" y="193.1387">Activate</text><text fill="#000000" font-family="Arial" font-size="13" lengthAdjust="spacing" textLength="3.6118" x="284.2292" y="193.1387">&#160;</text><text fill="#000000" font-family="Arial" font-size="13" lengthAdjust="spacing" textLength="3.6118" x="287.8411" y="193.1387">/</text><text fill="#000000" font-family="Arial" font-size="13" lengthAdjust="spacing" textLength="36.8608" x="242.6775" y="208.0874">Pause</text><text fill="#000000" font-family="Arial" font-size="13" lengthAdjust="spacing" textLength="3.6118" x="279.5383" y="208.0874">&#160;</text><text fill="#000000" font-family="Arial" font-size="13" lengthAdjust="spacing" textLength="3.6118" x="283.1501" y="208.0874">/</text><text fill="#000000" font-family="Arial" font-size="13" lengthAdjust="spacing" textLength="48.4072" x="236.9043" y="223.0361">Resume</text><text fill="#000000" font-family="Arial" font-size="13" lengthAdjust="spacing" textLength="3.6118" x="285.3115" y="223.0361">&#160;</text><text fill="#000000" font-family="Arial" font-size="13" lengthAdjust="spacing" textLength="3.6118" x="288.9233" y="223.0361">/</text><text fill="#000000" font-family="Arial" font-size="13" lengthAdjust="spacing" textLength="43.3481" x="239.4338" y="237.9849">Archive</text><text fill="#000000" font-family="Arial" font-size="13" lengthAdjust="spacing" textLength="3.6118" x="282.782" y="237.9849">&#160;</text><text fill="#000000" font-family="Arial" font-size="13" lengthAdjust="spacing" textLength="3.6118" x="286.3938" y="237.9849">/</text><text fill="#000000" font-family="Arial" font-size="13" lengthAdjust="spacing" textLength="58.5254" x="235.457" y="252.9336">Unarchive</text></g><g class="message" data-participant-1="LifecycleUC" data-participant-2="ProjectRepo"><polygon fill="#181818" points="470.7559,282.6372,480.7559,286.6372,470.7559,290.6372,474.7559,286.6372" style="stroke:#181818;stroke-width:1;"/><line style="stroke:#181818;stroke-width:1;" x1="351.0215" x2="476.7559" y1="286.6372" y2="286.6372"/><text fill="#000000" font-family="Arial" font-size="13" lengthAdjust="spacing" textLength="52.0127" x="390.8823" y="281.8823">Detail(id)</text></g><g class="message" data-participant-1="ProjectRepo" data-participant-2="PostgreSQL"><polygon fill="#181818" points="587.9058,341.4834,597.9058,345.4834,587.9058,349.4834,591.9058,345.4834" style="stroke:#181818;stroke-width:1;"/><line style="stroke:#181818;stroke-width:1;" x1="492.7559" x2="593.9058" y1="345.4834" y2="345.4834"/><text fill="#000000" font-family="Arial" font-size="13" lengthAdjust="spacing" textLength="50.5718" x="521.0449" y="310.8311">SELECT</text><text fill="#000000" font-family="Arial" font-size="13" lengthAdjust="spacing" textLength="39.019" x="518.1504" y="325.7798">project</text><text fill="#000000" font-family="Arial" font-size="13" lengthAdjust="spacing" textLength="3.6118" x="557.1694" y="325.7798">&#160;</text><text fill="#000000" font-family="Arial" font-size="13" lengthAdjust="spacing" textLength="13.73" x="560.7813" y="325.7798">by</text><text fill="#000000" font-family="Arial" font-size="13" lengthAdjust="spacing" textLength="10.1182" x="541.2717" y="340.7285">id</text></g><g class="message" data-participant-1="PostgreSQL" data-participant-2="ProjectRepo"><polygon fill="#181818" points="503.7559,385.3809,493.7559,389.3809,503.7559,393.3809,499.7559,389.3809" style="stroke:#181818;stroke-width:1;"/><line style="stroke:#181818;stroke-width:1;stroke-dasharray:2,2;" x1="497.7559" x2="603.9058" y1="389.3809" y2="389.3809"/><text fill="#000000" font-family="Arial" font-size="13" lengthAdjust="spacing" textLength="40.46" x="528.6008" y="369.6772">current</text><text fill="#000000" font-family="Arial" font-size="13" lengthAdjust="spacing" textLength="39.019" x="529.3213" y="384.626">project</text></g><g class="message" data-participant-1="ProjectRepo" data-participant-2="LifecycleUC"><polygon fill="#181818" points="362.0215,414.3296,352.0215,418.3296,362.0215,422.3296,358.0215,418.3296" style="stroke:#181818;stroke-width:1;"/><line style="stroke:#181818;stroke-width:1;stroke-dasharray:2,2;" x1="356.0215" x2="486.7559" y1="418.3296" y2="418.3296"/><text fill="#000000" font-family="Arial" font-size="13" lengthAdjust="spacing" textLength="39.019" x="399.8792" y="413.5747">project</text></g><path d="M277.0527,433.3296 L331.2236,433.3296 L331.2236,440.2783 L321.2236,450.2783 L271.0527,450.2783 L271.0527,439.3296 A6,6 0 0 1 277.0527,433.3296" fill="#EEEEEE" style="stroke:#000000;stroke-width:1.5;"/><rect fill="none" height="802.0063" rx="6" ry="6" style="stroke:#000000;stroke-width:1.5;" width="780.7432" x="271.0527" y="433.3296"/><text fill="#000000" font-family="Arial" font-size="13" font-weight="bold" lengthAdjust="spacing" textLength="15.1709" x="286.0527" y="446.5234">alt</text><text fill="#000000" font-family="Arial" font-size="11" font-weight="bold" lengthAdjust="spacing" textLength="104.543" x="346.2236" y="445.6475">[activate or resume]</text><g class="message" data-participant-1="LifecycleUC" data-participant-2="IngestClient"><polygon fill="#181818" points="684.9468,482.1758,694.9468,486.1758,684.9468,490.1758,688.9468,486.1758" style="stroke:#181818;stroke-width:1;"/><line style="stroke:#181818;stroke-width:1;" x1="351.0215" x2="690.9468" y1="486.1758" y2="486.1758"/><text fill="#000000" font-family="Arial" font-size="13" lengthAdjust="spacing" textLength="203.0488" x="422.4597" y="466.4722">GetActivationReadiness(project_id,</text><text fill="#000000" font-family="Arial" font-size="13" lengthAdjust="spacing" textLength="61.4072" x="493.2805" y="481.4209">command)</text></g><g class="message" data-participant-1="IngestClient" data-participant-2="IngestService"><polygon fill="#181818" points="987.4546,526.0732,997.4546,530.0732,987.4546,534.0732,991.4546,530.0732" style="stroke:#181818;stroke-width:1;"/><line style="stroke:#181818;stroke-width:1;" x1="706.9468" x2="993.4546" y1="530.0732" y2="530.0732"/><text fill="#000000" font-family="Arial" font-size="13" lengthAdjust="spacing" textLength="26.7236" x="839.8389" y="510.3696">GET</text><text fill="#000000" font-family="Arial" font-size="13" lengthAdjust="spacing" textLength="273.5078" x="716.4468" y="525.3184">/projects/{id}/activation-readiness?command=...</text></g><g class="message" data-participant-1="IngestService" data-participant-2="IngestClient"><polygon fill="#181818" points="717.9468,569.9707,707.9468,573.9707,717.9468,577.9707,713.9468,573.9707" style="stroke:#181818;stroke-width:1;"/><line style="stroke:#181818;stroke-width:1;stroke-dasharray:2,2;" x1="711.9468" x2="1003.4546" y1="573.9707" y2="573.9707"/><text fill="#000000" font-family="Arial" font-size="13" lengthAdjust="spacing" textLength="56.3672" x="827.5171" y="554.2671">readiness</text><text fill="#000000" font-family="Arial" font-size="13" lengthAdjust="spacing" textLength="31.7891" x="839.8062" y="569.2158">result</text></g><g class="message" data-participant-1="IngestClient" data-participant-2="LifecycleUC"><polygon fill="#181818" points="362.0215,613.8682,352.0215,617.8682,362.0215,621.8682,358.0215,617.8682" style="stroke:#181818;stroke-width:1;"/><line style="stroke:#181818;stroke-width:1;stroke-dasharray:2,2;" x1="356.0215" x2="700.9468" y1="617.8682" y2="617.8682"/><text fill="#000000" font-family="Arial" font-size="13" lengthAdjust="spacing" textLength="72.2681" x="490.3501" y="598.1646">CanProceed</text><text fill="#000000" font-family="Arial" font-size="13" lengthAdjust="spacing" textLength="7.5918" x="503.9087" y="613.1133">+</text><text fill="#000000" font-family="Arial" font-size="13" lengthAdjust="spacing" textLength="3.6118" x="511.5005" y="613.1133">&#160;</text><text fill="#000000" font-family="Arial" font-size="13" lengthAdjust="spacing" textLength="33.9473" x="515.1123" y="613.1133">errors</text></g><g class="message" data-participant-1="LifecycleUC" data-participant-2="IngestClient"><polygon fill="#181818" points="684.9468,672.7144,694.9468,676.7144,684.9468,680.7144,688.9468,676.7144" style="stroke:#181818;stroke-width:1;"/><line style="stroke:#181818;stroke-width:1;" x1="351.0215" x2="690.9468" y1="676.7144" y2="676.7144"/><text fill="#000000" font-family="Arial" font-size="13" lengthAdjust="spacing" textLength="111.2681" x="468.3501" y="642.062">Activate(project_id)</text><text fill="#000000" font-family="Arial" font-size="13" lengthAdjust="spacing" textLength="11.5591" x="518.2046" y="657.0107">or</text><text fill="#000000" font-family="Arial" font-size="13" lengthAdjust="spacing" textLength="113.4326" x="467.2678" y="671.9595">Resume(project_id)</text></g><g class="message" data-participant-1="IngestClient" data-participant-2="IngestService"><polygon fill="#181818" points="987.4546,716.6118,997.4546,720.6118,987.4546,724.6118,991.4546,720.6118" style="stroke:#181818;stroke-width:1;"/><line style="stroke:#181818;stroke-width:1;" x1="706.9468" x2="993.4546" y1="720.6118" y2="720.6118"/><text fill="#000000" font-family="Arial" font-size="13" lengthAdjust="spacing" textLength="35.3945" x="835.5034" y="700.9082">POST</text><text fill="#000000" font-family="Arial" font-size="13" lengthAdjust="spacing" textLength="166.6831" x="769.8591" y="715.8569">/projects/{id}/activate|resume</text></g><g class="message" data-participant-1="IngestService" data-participant-2="IngestClient"><polygon fill="#181818" points="717.9468,745.5605,707.9468,749.5605,717.9468,753.5605,713.9468,749.5605" style="stroke:#181818;stroke-width:1;"/><line style="stroke:#181818;stroke-width:1;stroke-dasharray:2,2;" x1="711.9468" x2="1003.4546" y1="749.5605" y2="749.5605"/><text fill="#000000" font-family="Arial" font-size="13" lengthAdjust="spacing" textLength="21.6899" x="833.6584" y="744.8057">200</text><text fill="#000000" font-family="Arial" font-size="13" lengthAdjust="spacing" textLength="3.6118" x="855.3484" y="744.8057">&#160;</text><text fill="#000000" font-family="Arial" font-size="13" lengthAdjust="spacing" textLength="18.7827" x="858.9602" y="744.8057">OK</text></g><g class="message" data-participant-1="IngestClient" data-participant-2="LifecycleUC"><polygon fill="#181818" points="362.0215,774.5093,352.0215,778.5093,362.0215,782.5093,358.0215,778.5093" style="stroke:#181818;stroke-width:1;"/><line style="stroke:#181818;stroke-width:1;stroke-dasharray:2,2;" x1="356.0215" x2="700.9468" y1="778.5093" y2="778.5093"/><text fill="#000000" font-family="Arial" font-size="13" lengthAdjust="spacing" textLength="13.73" x="519.6191" y="773.7544">ok</text></g><line style="stroke:#000000;stroke-width:1;stroke-dasharray:2,2;" x1="271.0527" x2="1051.7959" y1="787.5093" y2="787.5093"/><text fill="#000000" font-family="Arial" font-size="11" font-weight="bold" lengthAdjust="spacing" textLength="39.1177" x="276.0527" y="797.8271">[pause]</text><g class="message" data-participant-1="LifecycleUC" data-participant-2="IngestClient"><polygon fill="#181818" points="684.9468,818.1069,694.9468,822.1069,684.9468,826.1069,688.9468,822.1069" style="stroke:#181818;stroke-width:1;"/><line style="stroke:#181818;stroke-width:1;" x1="351.0215" x2="690.9468" y1="822.1069" y2="822.1069"/><text fill="#000000" font-family="Arial" font-size="13" lengthAdjust="spacing" textLength="101.8862" x="473.041" y="817.3521">Pause(project_id)</text></g><g class="message" data-participant-1="IngestClient" data-participant-2="IngestService"><polygon fill="#181818" points="987.4546,862.0044,997.4546,866.0044,987.4546,870.0044,991.4546,866.0044" style="stroke:#181818;stroke-width:1;"/><line style="stroke:#181818;stroke-width:1;" x1="706.9468" x2="993.4546" y1="866.0044" y2="866.0044"/><text fill="#000000" font-family="Arial" font-size="13" lengthAdjust="spacing" textLength="35.3945" x="835.5034" y="846.3008">POST</text><text fill="#000000" font-family="Arial" font-size="13" lengthAdjust="spacing" textLength="110.5762" x="797.9126" y="861.2495">/projects/{id}/pause</text></g><g class="message" data-participant-1="IngestService" data-participant-2="IngestClient"><polygon fill="#181818" points="717.9468,890.9531,707.9468,894.9531,717.9468,898.9531,713.9468,894.9531" style="stroke:#181818;stroke-width:1;"/><line style="stroke:#181818;stroke-width:1;stroke-dasharray:2,2;" x1="711.9468" x2="1003.4546" y1="894.9531" y2="894.9531"/><text fill="#000000" font-family="Arial" font-size="13" lengthAdjust="spacing" textLength="21.6899" x="833.6584" y="890.1982">200</text><text fill="#000000" font-family="Arial" font-size="13" lengthAdjust="spacing" textLength="3.6118" x="855.3484" y="890.1982">&#160;</text><text fill="#000000" font-family="Arial" font-size="13" lengthAdjust="spacing" textLength="18.7827" x="858.9602" y="890.1982">OK</text></g><g class="message" data-participant-1="IngestClient" data-participant-2="LifecycleUC"><polygon fill="#181818" points="362.0215,919.9019,352.0215,923.9019,362.0215,927.9019,358.0215,923.9019" style="stroke:#181818;stroke-width:1;"/><line style="stroke:#181818;stroke-width:1;stroke-dasharray:2,2;" x1="356.0215" x2="700.9468" y1="923.9019" y2="923.9019"/><text fill="#000000" font-family="Arial" font-size="13" lengthAdjust="spacing" textLength="13.73" x="519.6191" y="919.147">ok</text></g><line style="stroke:#000000;stroke-width:1;stroke-dasharray:2,2;" x1="271.0527" x2="1051.7959" y1="932.9019" y2="932.9019"/><text fill="#000000" font-family="Arial" font-size="11" font-weight="bold" lengthAdjust="spacing" textLength="119.8291" x="276.0527" y="943.2197">[archive active project]</text><g class="message" data-participant-1="LifecycleUC" data-participant-2="IngestClient"><polygon fill="#181818" points="684.9468,963.4995,694.9468,967.4995,684.9468,971.4995,688.9468,967.4995" style="stroke:#181818;stroke-width:1;"/><line style="stroke:#181818;stroke-width:1;" x1="351.0215" x2="690.9468" y1="967.4995" y2="967.4995"/><text fill="#000000" font-family="Arial" font-size="13" lengthAdjust="spacing" textLength="101.8862" x="473.041" y="962.7446">Pause(project_id)</text></g><g class="message" data-participant-1="IngestClient" data-participant-2="IngestService"><polygon fill="#181818" points="987.4546,1007.397,997.4546,1011.397,987.4546,1015.397,991.4546,1011.397" style="stroke:#181818;stroke-width:1;"/><line style="stroke:#181818;stroke-width:1;" x1="706.9468" x2="993.4546" y1="1011.397" y2="1011.397"/><text fill="#000000" font-family="Arial" font-size="13" lengthAdjust="spacing" textLength="35.3945" x="835.5034" y="991.6934">POST</text><text fill="#000000" font-family="Arial" font-size="13" lengthAdjust="spacing" textLength="110.5762" x="797.9126" y="1006.6421">/projects/{id}/pause</text></g><g class="message" data-participant-1="IngestService" data-participant-2="IngestClient"><polygon fill="#181818" points="717.9468,1036.3457,707.9468,1040.3457,717.9468,1044.3457,713.9468,1040.3457" style="stroke:#181818;stroke-width:1;"/><line style="stroke:#181818;stroke-width:1;stroke-dasharray:2,2;" x1="711.9468" x2="1003.4546" y1="1040.3457" y2="1040.3457"/><text fill="#000000" font-family="Arial" font-size="13" lengthAdjust="spacing" textLength="21.6899" x="833.6584" y="1035.5908">200</text><text fill="#000000" font-family="Arial" font-size="13" lengthAdjust="spacing" textLength="3.6118" x="855.3484" y="1035.5908">&#160;</text><text fill="#000000" font-family="Arial" font-size="13" lengthAdjust="spacing" textLength="18.7827" x="858.9602" y="1035.5908">OK</text></g><g class="message" data-participant-1="IngestClient" data-participant-2="LifecycleUC"><polygon fill="#181818" points="362.0215,1065.2944,352.0215,1069.2944,362.0215,1073.2944,358.0215,1069.2944" style="stroke:#181818;stroke-width:1;"/><line style="stroke:#181818;stroke-width:1;stroke-dasharray:2,2;" x1="356.0215" x2="700.9468" y1="1069.2944" y2="1069.2944"/><text fill="#000000" font-family="Arial" font-size="13" lengthAdjust="spacing" textLength="13.73" x="519.6191" y="1064.5396">ok</text></g><line style="stroke:#000000;stroke-width:1;stroke-dasharray:2,2;" x1="271.0527" x2="1051.7959" y1="1078.2944" y2="1078.2944"/><text fill="#000000" font-family="Arial" font-size="11" font-weight="bold" lengthAdjust="spacing" textLength="187.0322" x="276.0527" y="1088.6123">[archive pending or paused project]</text><g class="message" data-participant-1="LifecycleUC" data-participant-2="LifecycleUC"><line style="stroke:#181818;stroke-width:1;" x1="351.0215" x2="393.0215" y1="1127.8408" y2="1127.8408"/><line style="stroke:#181818;stroke-width:1;" x1="393.0215" x2="393.0215" y1="1127.8408" y2="1140.8408"/><line style="stroke:#181818;stroke-width:1;" x1="352.0215" x2="393.0215" y1="1140.8408" y2="1140.8408"/><polygon fill="#181818" points="362.0215,1136.8408,352.0215,1140.8408,362.0215,1144.8408,358.0215,1140.8408" style="stroke:#181818;stroke-width:1;"/><text fill="#000000" font-family="Arial" font-size="13" lengthAdjust="spacing" textLength="23.1182" x="358.0215" y="1108.1372">skip</text><text fill="#000000" font-family="Arial" font-size="13" lengthAdjust="spacing" textLength="3.6118" x="381.1396" y="1108.1372">&#160;</text><text fill="#000000" font-family="Arial" font-size="13" lengthAdjust="spacing" textLength="34.6899" x="384.7515" y="1108.1372">ingest</text><text fill="#000000" font-family="Arial" font-size="13" lengthAdjust="spacing" textLength="19.5063" x="378.9783" y="1123.0859">call</text></g><line style="stroke:#000000;stroke-width:1;stroke-dasharray:2,2;" x1="271.0527" x2="1051.7959" y1="1149.8408" y2="1149.8408"/><text fill="#000000" font-family="Arial" font-size="11" font-weight="bold" lengthAdjust="spacing" textLength="147.3237" x="276.0527" y="1160.1587">[unarchive archived project]</text><g class="message" data-participant-1="LifecycleUC" data-participant-2="LifecycleUC"><line style="stroke:#181818;stroke-width:1;" x1="351.0215" x2="393.0215" y1="1214.3359" y2="1214.3359"/><line style="stroke:#181818;stroke-width:1;" x1="393.0215" x2="393.0215" y1="1214.3359" y2="1227.3359"/><line style="stroke:#181818;stroke-width:1;" x1="352.0215" x2="393.0215" y1="1227.3359" y2="1227.3359"/><polygon fill="#181818" points="362.0215,1223.3359,352.0215,1227.3359,362.0215,1231.3359,358.0215,1227.3359" style="stroke:#181818;stroke-width:1;"/><text fill="#000000" font-family="Arial" font-size="13" lengthAdjust="spacing" textLength="14.46" x="358.0215" y="1179.6836">no</text><text fill="#000000" font-family="Arial" font-size="13" lengthAdjust="spacing" textLength="3.6118" x="372.4814" y="1179.6836">&#160;</text><text fill="#000000" font-family="Arial" font-size="13" lengthAdjust="spacing" textLength="34.6899" x="376.0933" y="1179.6836">ingest</text><text fill="#000000" font-family="Arial" font-size="13" lengthAdjust="spacing" textLength="19.5063" x="374.6492" y="1194.6323">call</text><text fill="#000000" font-family="Arial" font-size="13" lengthAdjust="spacing" textLength="47.6963" x="360.5542" y="1209.5811">required</text></g><g class="message" data-participant-1="LifecycleUC" data-participant-2="ProjectRepo"><polygon fill="#181818" points="470.7559,1289.1821,480.7559,1293.1821,470.7559,1297.1821,474.7559,1293.1821" style="stroke:#181818;stroke-width:1;"/><line style="stroke:#181818;stroke-width:1;" x1="351.0215" x2="476.7559" y1="1293.1821" y2="1293.1821"/><text fill="#000000" font-family="Arial" font-size="13" lengthAdjust="spacing" textLength="96.8335" x="368.4719" y="1258.5298">UpdateStatus(id,</text><text fill="#000000" font-family="Arial" font-size="13" lengthAdjust="spacing" textLength="69.3735" x="382.2019" y="1273.4785">new_status,</text><text fill="#000000" font-family="Arial" font-size="13" lengthAdjust="spacing" textLength="112.7344" x="360.5215" y="1288.4272">expected_statuses)</text></g><g class="message" data-participant-1="ProjectRepo" data-participant-2="PostgreSQL"><polygon fill="#181818" points="587.9058,1333.0796,597.9058,1337.0796,587.9058,1341.0796,591.9058,1337.0796" style="stroke:#181818;stroke-width:1;"/><line style="stroke:#181818;stroke-width:1;" x1="492.7559" x2="593.9058" y1="1337.0796" y2="1337.0796"/><text fill="#000000" font-family="Arial" font-size="13" lengthAdjust="spacing" textLength="52.73" x="519.9658" y="1317.376">UPDATE</text><text fill="#000000" font-family="Arial" font-size="13" lengthAdjust="spacing" textLength="88.1499" x="502.2559" y="1332.3247">project.projects</text></g><g class="message" data-participant-1="PostgreSQL" data-participant-2="ProjectRepo"><polygon fill="#181818" points="503.7559,1376.9771,493.7559,1380.9771,503.7559,1384.9771,499.7559,1380.9771" style="stroke:#181818;stroke-width:1;"/><line style="stroke:#181818;stroke-width:1;stroke-dasharray:2,2;" x1="497.7559" x2="603.9058" y1="1380.9771" y2="1380.9771"/><text fill="#000000" font-family="Arial" font-size="13" lengthAdjust="spacing" textLength="46.9917" x="525.335" y="1361.2734">updated</text><text fill="#000000" font-family="Arial" font-size="13" lengthAdjust="spacing" textLength="39.019" x="517.0417" y="1376.2222">project</text><text fill="#000000" font-family="Arial" font-size="13" lengthAdjust="spacing" textLength="3.6118" x="556.0608" y="1376.2222">&#160;</text><text fill="#000000" font-family="Arial" font-size="13" lengthAdjust="spacing" textLength="20.9473" x="559.6726" y="1376.2222">row</text></g><g class="message" data-participant-1="ProjectRepo" data-participant-2="LifecycleUC"><polygon fill="#181818" points="362.0215,1420.8745,352.0215,1424.8745,362.0215,1428.8745,358.0215,1424.8745" style="stroke:#181818;stroke-width:1;"/><line style="stroke:#181818;stroke-width:1;stroke-dasharray:2,2;" x1="356.0215" x2="486.7559" y1="1424.8745" y2="1424.8745"/><text fill="#000000" font-family="Arial" font-size="13" lengthAdjust="spacing" textLength="46.9917" x="395.8928" y="1405.1709">updated</text><text fill="#000000" font-family="Arial" font-size="13" lengthAdjust="spacing" textLength="39.019" x="399.8792" y="1420.1196">project</text></g><g class="message" data-participant-1="LifecycleUC" data-participant-2="Publisher"><polygon fill="#181818" points="1088.875,1464.772,1098.875,1468.772,1088.875,1472.772,1092.875,1468.772" style="stroke:#181818;stroke-width:1;"/><line style="stroke:#181818;stroke-width:1;" x1="351.0215" x2="1094.875" y1="1468.772" y2="1468.772"/><text fill="#000000" font-family="Arial" font-size="13" lengthAdjust="spacing" textLength="166.2007" x="642.8479" y="1449.0684">PublishLifecycleEvent(event,</text><text fill="#000000" font-family="Arial" font-size="13" lengthAdjust="spacing" textLength="43.3481" x="704.2742" y="1464.0171">project)</text></g><g class="message" data-participant-1="Publisher" data-participant-2="KafkaTopic"><line style="stroke:#181818;stroke-width:1;" x1="1222.8057" x2="1212.8057" y1="1527.6182" y2="1523.6182"/><line style="stroke:#181818;stroke-width:1;" x1="1222.8057" x2="1212.8057" y1="1527.6182" y2="1531.6182"/><line style="stroke:#181818;stroke-width:1;" x1="1110.875" x2="1223.8057" y1="1527.6182" y2="1527.6182"/><text fill="#000000" font-family="Arial" font-size="13" lengthAdjust="spacing" textLength="41.1963" x="1147.2422" y="1492.9658">publish</text><text fill="#000000" font-family="Arial" font-size="13" lengthAdjust="spacing" textLength="46.2363" x="1144.7222" y="1507.9146">lifecycle</text><text fill="#000000" font-family="Arial" font-size="13" lengthAdjust="spacing" textLength="31.8018" x="1151.9395" y="1522.8633">event</text></g><g class="message" data-participant-1="Publisher" data-participant-2="LifecycleUC"><polygon fill="#181818" points="362.0215,1582.4644,352.0215,1586.4644,362.0215,1590.4644,358.0215,1586.4644" style="stroke:#181818;stroke-width:1;"/><line style="stroke:#181818;stroke-width:1;stroke-dasharray:2,2;" x1="356.0215" x2="1104.875" y1="1586.4644" y2="1586.4644"/><text fill="#000000" font-family="Arial" font-size="13" lengthAdjust="spacing" textLength="13.73" x="713.9978" y="1551.812">ok</text><text fill="#000000" font-family="Arial" font-size="13" lengthAdjust="spacing" textLength="3.6118" x="727.7278" y="1551.812">&#160;</text><text fill="#000000" font-family="Arial" font-size="13" lengthAdjust="spacing" textLength="11.5591" x="731.3396" y="1551.812">or</text><text fill="#000000" font-family="Arial" font-size="13" lengthAdjust="spacing" textLength="39.0381" x="708.9292" y="1566.7607">logged</text><text fill="#000000" font-family="Arial" font-size="13" lengthAdjust="spacing" textLength="27.4473" x="714.7246" y="1581.7095">error</text></g><g class="message" data-participant-1="LifecycleUC" data-participant-2="ProjectHandler"><polygon fill="#181818" points="199.418,1626.3618,189.418,1630.3618,199.418,1634.3618,195.418,1630.3618" style="stroke:#181818;stroke-width:1;"/><line style="stroke:#181818;stroke-width:1;stroke-dasharray:2,2;" x1="193.418" x2="345.0215" y1="1630.3618" y2="1630.3618"/><text fill="#000000" font-family="Arial" font-size="13" lengthAdjust="spacing" textLength="46.2363" x="244.1016" y="1610.6582">lifecycle</text><text fill="#000000" font-family="Arial" font-size="13" lengthAdjust="spacing" textLength="36.1436" x="249.1479" y="1625.6069">output</text></g><g class="message" data-participant-1="ProjectHandler" data-participant-2="UI"><polygon fill="#181818" points="29.5,1670.2593,19.5,1674.2593,29.5,1678.2593,25.5,1674.2593" style="stroke:#181818;stroke-width:1;"/><line style="stroke:#181818;stroke-width:1;stroke-dasharray:2,2;" x1="23.5" x2="182.418" y1="1674.2593" y2="1674.2593"/><text fill="#000000" font-family="Arial" font-size="13" lengthAdjust="spacing" textLength="21.6899" x="73.3149" y="1654.5557">200</text><text fill="#000000" font-family="Arial" font-size="13" lengthAdjust="spacing" textLength="3.6118" x="95.0049" y="1654.5557">&#160;</text><text fill="#000000" font-family="Arial" font-size="13" lengthAdjust="spacing" textLength="18.7827" x="98.6167" y="1654.5557">OK</text><text fill="#000000" font-family="Arial" font-size="13" lengthAdjust="spacing" textLength="3.6118" x="117.3994" y="1654.5557">&#160;</text><text fill="#000000" font-family="Arial" font-size="13" lengthAdjust="spacing" textLength="7.5918" x="121.0112" y="1654.5557">+</text><text fill="#000000" font-family="Arial" font-size="13" lengthAdjust="spacing" textLength="23.8481" x="69.8872" y="1669.5044">new</text><text fill="#000000" font-family="Arial" font-size="13" lengthAdjust="spacing" textLength="3.6118" x="93.7354" y="1669.5044">&#160;</text><text fill="#000000" font-family="Arial" font-size="13" lengthAdjust="spacing" textLength="34.6836" x="97.3472" y="1669.5044">status</text></g><!--SRC=[xLPHJzim47xFhpZnr6gqPRnCcZIchdHR1HjTsxmX8PCSnIErW-sqCCP_d-t4hjE6CK2Jzh2NDhRllhlxxkmxUKLPJWHPG8eNfCZKHyxKLx90w0jAiaZwStb9KhwYR0uN99COdk1rWIp1BoWbcMC_etC62JA58f0IA7FEf9FwW1bVzONWAr2Y2E4MvAQIcT8V26_sGX1Ui3JXWg60r_jHH1B51Up4enqW4k9HfCKKJMXEc8ATiU3VCL7mcR0qGs5bghrggov_J2ymkKqoX5ZYW4Yq6dut7ZJ3Jp3d8RPPHobHv5n3Q34krLpWzDjnAUINTRGHcwDKCCYePivAbZlbHbsMsfEE5Cj0S8fYIHDyAAJXKiESid5ndb5vwTXmgxhM4Rcu8g1uJfDJbfTHTJC7PJMjoCn8H54yWix11hFm5iOdqndqAdNPkwFfVUykuOk5bhWtgQDBed0p8nimJS0QCj4LucERu7MhtQ0OP4vhzPt17en98St_16MnC1zzaLpIfVcA6Ic_rmw61H25c6lVJCgrYKDKX6OjchQtmhD54KeRPLyAMdSwF1uEPb3H1UUtGDC0PLqrWLPdouEa44BdsS54AJP2X7vi4TMa6mGHaKo1Fz7NJrWM8u0DRiBwrR2VK5Kfe9nDaAIKwIIsAcjdDDs5gZZQ6iiRgDq2g8Dw8rNj6ol3hPeZtcf7EBFlArFlkjtkjZLtbM03lhCTbKUqD6J6nO2tPZZd_HRp0yB6fhOnXLU0-d4KiWcl8kDHnbt51notJSBAiWztNq1uqortM3zzQJoVuFszFJWvUX6j_EetBA9kPf2R1-5HFkspyHTfSrxyusHL3sJf9lhduZzxJs8lHvQQQKhVH-jv-Z2HTHDw6igXd00W8LbMmXRCfwNy_sCynaCq_OnT5rHW6cd_7cbtSQwd79mgeWhPCkytmzMPjCjTm9jSIs9QRQ1yHa-CnuVzsT05qdNvVdfRBAoddX8zHwwUrHetS1viaPkqkJ7Bb6xvxINiNDP2yxlhS4Eg_8Is1kaS70Jpb-dOvH7u4GqiNgZIKAccz38-d-juRA-fHUFDrcDf6iVMLdcXygB6IZWxRGve6ajFZkxQwOwdomVAQcaWjbBx1G00]--></g></svg>