<svg xmlns="http://www.w3.org/2000/svg" xmlns:xlink="http://www.w3.org/1999/xlink" contentStyleType="text/css" data-diagram-type="SEQUENCE" height="990px" preserveAspectRatio="none" style="width:1093px;height:990px;background:#FFFFFF;" version="1.1" viewBox="0 0 1093 990" width="1093px" zoomAndPan="magnify"><defs/><g><g><title>PipelineUseCase</title><rect fill="#FFFFFF" height="166.6411" style="stroke:#181818;stroke-width:1;" width="10" x="215.5098" y="193.9409"/></g><g><title>run_pipeline..</title><rect fill="#FFFFFF" height="78.8462" style="stroke:#181818;stroke-width:1;" width="10" x="356.4614" y="237.8384"/></g><g><title>PostInsightUseCase</title><rect fill="#FFFFFF" height="116.7437" style="stroke:#181818;stroke-width:1;" width="10" x="486.6851" y="437.4282"/></g><g><title>PostgreSQL</title><rect fill="#FFFFFF" height="28.9487" style="stroke:#181818;stroke-width:1;" width="10" x="663.1016" y="496.2744"/></g><g><title>ContractPublisherUseCase</title><rect fill="#FFFFFF" height="235.436" style="stroke:#181818;stroke-width:1;" width="10" x="860.5249" y="629.0181"/></g><rect fill="none" height="503.8721" rx="6" ry="6" style="stroke:#000000;stroke-width:1.5;" width="1077.2139" x="10" y="375.582"/><rect fill="none" height="162.6411" rx="6" ry="6" style="stroke:#000000;stroke-width:1.5;" width="754.0977" x="20" y="399.5308"/><rect fill="none" height="296.2822" rx="6" ry="6" style="stroke:#000000;stroke-width:1.5;" width="1057.2139" x="20" y="576.1719"/><rect fill="none" height="120.6411" rx="6" ry="6" style="stroke:#000000;stroke-width:1.5;" width="303.1162" x="764.0977" y="700.9155"/><g><title>ConsumerServer</title><rect fill="#000000" fill-opacity="0.00000" height="813.2568" width="8" x="85.9067" y="83.1973"/><line style="stroke:#181818;stroke-width:0.5;stroke-dasharray:5,5;" x1="89" x2="89" y1="83.1973" y2="896.4541"/></g><g><title>PipelineUseCase</title><rect fill="#000000" fill-opacity="0.00000" height="813.2568" width="8" x="216.5098" y="83.1973"/><line style="stroke:#181818;stroke-width:0.5;stroke-dasharray:5,5;" x1="219.8135" x2="219.8135" y1="83.1973" y2="896.4541"/></g><g><title>run_pipeline..</title><rect fill="#000000" fill-opacity="0.00000" height="813.2568" width="8" x="357.4614" y="83.1973"/><line style="stroke:#181818;stroke-width:0.5;stroke-dasharray:5,5;" x1="360.6582" x2="360.6582" y1="83.1973" y2="896.4541"/></g><g><title>PostInsightUseCase</title><rect fill="#000000" fill-opacity="0.00000" height="813.2568" width="8" x="487.6851" y="83.1973"/><line style="stroke:#181818;stroke-width:0.5;stroke-dasharray:5,5;" x1="491.2646" x2="491.2646" y1="83.1973" y2="896.4541"/></g><g><title>PostgreSQL</title><rect fill="#000000" fill-opacity="0.00000" height="813.2568" width="8" x="664.1016" y="83.1973"/><line style="stroke:#181818;stroke-width:0.5;stroke-dasharray:5,5;" x1="667.1055" x2="667.1055" y1="83.1973" y2="896.4541"/></g><g><title>ContractPublisherUseCase</title><rect fill="#000000" fill-opacity="0.00000" height="813.2568" width="8" x="861.5249" y="83.1973"/><line style="stroke:#181818;stroke-width:0.5;stroke-dasharray:5,5;" x1="865.0977" x2="865.0977" y1="83.1973" y2="896.4541"/></g><g><title>Kafka topics</title><rect fill="#000000" fill-opacity="0.00000" height="813.2568" width="8" x="1008.083" y="83.1973"/><line style="stroke:#181818;stroke-width:0.5;stroke-dasharray:5,5;" x1="1011.9521" x2="1011.9521" y1="83.1973" y2="896.4541"/></g><g class="participant participant-head" data-participant="Consumer"><rect fill="#E2E2F0" height="30.0986" rx="6" ry="6" style="stroke:#181818;stroke-width:0.5;" width="119.8135" x="30" y="52.0986"/><text fill="#000000" font-family="Arial" font-size="14" lengthAdjust="spacing" textLength="105.8135" x="37" y="72.2305">ConsumerServer</text></g><g class="participant participant-tail" data-participant="Consumer"><rect fill="#E2E2F0" height="30.0986" rx="6" ry="6" style="stroke:#181818;stroke-width:0.5;" width="119.8135" x="30" y="895.4541"/><text fill="#000000" font-family="Arial" font-size="14" lengthAdjust="spacing" textLength="105.8135" x="37" y="915.5859">ConsumerServer</text></g><g class="participant participant-head" data-participant="Pipeline"><rect fill="#E2E2F0" height="30.0986" rx="6" ry="6" style="stroke:#181818;stroke-width:0.5;" width="121.3926" x="159.8135" y="52.0986"/><text fill="#000000" font-family="Arial" font-size="14" lengthAdjust="spacing" textLength="107.3926" x="166.8135" y="72.2305">PipelineUseCase</text></g><g class="participant participant-tail" data-participant="Pipeline"><rect fill="#E2E2F0" height="30.0986" rx="6" ry="6" style="stroke:#181818;stroke-width:0.5;" width="121.3926" x="159.8135" y="895.4541"/><text fill="#000000" font-family="Arial" font-size="14" lengthAdjust="spacing" textLength="107.3926" x="166.8135" y="915.5859">PipelineUseCase</text></g><g class="participant participant-head" data-participant="Runner"><rect fill="#E2E2F0" height="30.0986" rx="6" ry="6" style="stroke:#181818;stroke-width:0.5;" width="99.6064" x="311.6582" y="52.0986"/><text fill="#000000" font-family="Arial" font-size="14" lengthAdjust="spacing" textLength="85.6064" x="318.6582" y="72.2305">run_pipeline()</text></g><g class="participant participant-tail" data-participant="Runner"><rect fill="#E2E2F0" height="30.0986" rx="6" ry="6" style="stroke:#181818;stroke-width:0.5;" width="99.6064" x="311.6582" y="895.4541"/><text fill="#000000" font-family="Arial" font-size="14" lengthAdjust="spacing" textLength="85.6064" x="318.6582" y="915.5859">run_pipeline()</text></g><g class="participant participant-head" data-participant="PostInsight"><rect fill="#E2E2F0" height="30.0986" rx="6" ry="6" style="stroke:#181818;stroke-width:0.5;" width="140.8408" x="421.2646" y="52.0986"/><text fill="#000000" font-family="Arial" font-size="14" lengthAdjust="spacing" textLength="126.8408" x="428.2646" y="72.2305">PostInsightUseCase</text></g><g class="participant participant-tail" data-participant="PostInsight"><rect fill="#E2E2F0" height="30.0986" rx="6" ry="6" style="stroke:#181818;stroke-width:0.5;" width="140.8408" x="421.2646" y="895.4541"/><text fill="#000000" font-family="Arial" font-size="14" lengthAdjust="spacing" textLength="126.8408" x="428.2646" y="915.5859">PostInsightUseCase</text></g><g class="participant participant-head" data-participant="PostgreSQL"><text fill="#000000" font-family="Arial" font-size="14" lengthAdjust="spacing" textLength="76.2617" x="626.9707" y="64.1318">PostgreSQL</text><text fill="#000000" font-family="Arial" font-size="14" lengthAdjust="spacing" textLength="185.9922" x="572.1055" y="80.2305">schema_analysis.post_insight</text><path d="M650.1016,15 C650.1016,5 668.1016,5 668.1016,5 C668.1016,5 686.1016,5 686.1016,15 L686.1016,41 C686.1016,51 668.1016,51 668.1016,51 C668.1016,51 650.1016,51 650.1016,41 L650.1016,15" fill="#E2E2F0" style="stroke:#181818;stroke-width:0.5;"/><path d="M650.1016,15 C650.1016,25 668.1016,25 668.1016,25 C668.1016,25 686.1016,25 686.1016,15" fill="none" style="stroke:#181818;stroke-width:0.5;"/></g><g class="participant participant-tail" data-participant="PostgreSQL"><text fill="#000000" font-family="Arial" font-size="14" lengthAdjust="spacing" textLength="76.2617" x="626.9707" y="908.5859">PostgreSQL</text><text fill="#000000" font-family="Arial" font-size="14" lengthAdjust="spacing" textLength="185.9922" x="572.1055" y="924.6846">schema_analysis.post_insight</text><path d="M650.1016,937.6514 C650.1016,927.6514 668.1016,927.6514 668.1016,927.6514 C668.1016,927.6514 686.1016,927.6514 686.1016,937.6514 L686.1016,963.6514 C686.1016,973.6514 668.1016,973.6514 668.1016,973.6514 C668.1016,973.6514 650.1016,973.6514 650.1016,963.6514 L650.1016,937.6514" fill="#E2E2F0" style="stroke:#181818;stroke-width:0.5;"/><path d="M650.1016,937.6514 C650.1016,947.6514 668.1016,947.6514 668.1016,947.6514 C668.1016,947.6514 686.1016,947.6514 686.1016,937.6514" fill="none" style="stroke:#181818;stroke-width:0.5;"/></g><g class="participant participant-head" data-participant="Publisher"><rect fill="#E2E2F0" height="30.0986" rx="6" ry="6" style="stroke:#181818;stroke-width:0.5;" width="182.8545" x="774.0977" y="52.0986"/><text fill="#000000" font-family="Arial" font-size="14" lengthAdjust="spacing" textLength="168.8545" x="781.0977" y="72.2305">ContractPublisherUseCase</text></g><g class="participant participant-tail" data-participant="Publisher"><rect fill="#E2E2F0" height="30.0986" rx="6" ry="6" style="stroke:#181818;stroke-width:0.5;" width="182.8545" x="774.0977" y="895.4541"/><text fill="#000000" font-family="Arial" font-size="14" lengthAdjust="spacing" textLength="168.8545" x="781.0977" y="915.5859">ContractPublisherUseCase</text></g><g class="participant participant-head" data-participant="AnalyticsTopics"><rect fill="#E2E2F0" height="46.1973" rx="6" ry="6" style="stroke:#181818;stroke-width:0.5;" width="90.2617" x="966.9521" y="36"/><text fill="#000000" font-family="Arial" font-size="14" lengthAdjust="spacing" textLength="76.2617" x="973.9521" y="56.1318">Kafka topics</text><text fill="#000000" font-family="Arial" font-size="14" lengthAdjust="spacing" textLength="63.8066" x="980.1797" y="72.2305">analytics.*</text></g><g class="participant participant-tail" data-participant="AnalyticsTopics"><rect fill="#E2E2F0" height="46.1973" rx="6" ry="6" style="stroke:#181818;stroke-width:0.5;" width="90.2617" x="966.9521" y="895.4541"/><text fill="#000000" font-family="Arial" font-size="14" lengthAdjust="spacing" textLength="76.2617" x="973.9521" y="915.5859">Kafka topics</text><text fill="#000000" font-family="Arial" font-size="14" lengthAdjust="spacing" textLength="63.8066" x="980.1797" y="931.6846">analytics.*</text></g><g><title>PipelineUseCase</title><rect fill="#FFFFFF" height="166.6411" style="stroke:#181818;stroke-width:1;" width="10" x="215.5098" y="193.9409"/></g><g><title>run_pipeline..</title><rect fill="#FFFFFF" height="78.8462" style="stroke:#181818;stroke-width:1;" width="10" x="356.4614" y="237.8384"/></g><g><title>PostInsightUseCase</title><rect fill="#FFFFFF" height="116.7437" style="stroke:#181818;stroke-width:1;" width="10" x="486.6851" y="437.4282"/></g><g><title>PostgreSQL</title><rect fill="#FFFFFF" height="28.9487" style="stroke:#181818;stroke-width:1;" width="10" x="663.1016" y="496.2744"/></g><g><title>ContractPublisherUseCase</title><rect fill="#FFFFFF" height="235.436" style="stroke:#181818;stroke-width:1;" width="10" x="860.5249" y="629.0181"/></g><path d="M5,104.1973 L5,131.1973 A6,6 0 0 0 11,137.1973 L299,137.1973 A6,6 0 0 0 305,131.1973 L305,108.1973 L295,98.1973 L11,98.1973 A6,6 0 0 0 5,104.1973" fill="#FEFFDD" style="stroke:#181818;stroke-width:0.5;"/><path d="M295,98.1973 L295,105.1973 A3,3 0 0 0 298,108.1973 L305,108.1973 L295,98.1973" fill="#FEFFDD" style="stroke:#181818;stroke-width:0.5;"/><text fill="#000000" font-family="Arial" font-size="13" lengthAdjust="spacing" textLength="138.7153" x="11" y="115.3911">ConsumerServer awaits</text><text fill="#000000" font-family="Arial" font-size="13" lengthAdjust="spacing" textLength="279.6587" x="11" y="130.3398">asyncio.to_thread(self.pipeline_usecase.run, ...).</text><g class="message" data-participant-1="Consumer" data-participant-2="Pipeline"><polygon fill="#181818" points="203.5098,189.9409,213.5098,193.9409,203.5098,197.9409,207.5098,193.9409" style="stroke:#181818;stroke-width:1;"/><line style="stroke:#181818;stroke-width:1;" x1="89.9067" x2="209.5098" y1="193.9409" y2="193.9409"/><text fill="#000000" font-family="Arial" font-size="13" lengthAdjust="spacing" textLength="65.7681" x="119.8242" y="159.2886">run(bundle,</text><text fill="#000000" font-family="Arial" font-size="13" lengthAdjust="spacing" textLength="20.2236" x="142.5964" y="174.2373">ctx,</text><text fill="#000000" font-family="Arial" font-size="13" lengthAdjust="spacing" textLength="91.0635" x="107.1765" y="189.186">pipeline_config)</text></g><g class="message" data-participant-1="Pipeline" data-participant-2="Runner"><polygon fill="#181818" points="344.4614,233.8384,354.4614,237.8384,344.4614,241.8384,348.4614,237.8384" style="stroke:#181818;stroke-width:1;"/><line style="stroke:#181818;stroke-width:1;" x1="225.5098" x2="350.4614" y1="237.8384" y2="237.8384"/><text fill="#000000" font-family="Arial" font-size="13" lengthAdjust="spacing" textLength="110.5762" x="235.6975" y="218.1348">run_pipeline(batch,</text><text fill="#000000" font-family="Arial" font-size="13" lengthAdjust="spacing" textLength="20.2236" x="259.5583" y="233.0835">ctx,</text><text fill="#000000" font-family="Arial" font-size="13" lengthAdjust="spacing" textLength="3.6118" x="279.782" y="233.0835">&#160;</text><text fill="#000000" font-family="Arial" font-size="13" lengthAdjust="spacing" textLength="39.019" x="283.3938" y="233.0835">config)</text></g><path d="M371,256.8384 L371,283.8384 A6,6 0 0 0 377,289.8384 L603,289.8384 A6,6 0 0 0 609,283.8384 L609,260.8384 L599,250.8384 L377,250.8384 A6,6 0 0 0 371,256.8384" fill="#FEFFDD" style="stroke:#181818;stroke-width:0.5;"/><path d="M599,250.8384 L599,257.8384 A3,3 0 0 0 602,260.8384 L609,260.8384 L599,250.8384" fill="#FEFFDD" style="stroke:#181818;stroke-width:0.5;"/><text fill="#000000" font-family="Arial" font-size="13" lengthAdjust="spacing" textLength="183.5425" x="377" y="268.0322">normalization -&gt; dedup -&gt; spam</text><text fill="#000000" font-family="Arial" font-size="13" lengthAdjust="spacing" textLength="217.5088" x="377" y="282.981">-&gt; thread topology -&gt; NLP enrichment</text><g class="message" data-participant-1="Runner" data-participant-2="Pipeline"><polygon fill="#181818" points="236.5098,312.6846,226.5098,316.6846,236.5098,320.6846,232.5098,316.6846" style="stroke:#181818;stroke-width:1;"/><line style="stroke:#181818;stroke-width:1;stroke-dasharray:2,2;" x1="230.5098" x2="360.4614" y1="316.6846" y2="316.6846"/><text fill="#000000" font-family="Arial" font-size="13" lengthAdjust="spacing" textLength="106.9517" x="240.0098" y="311.9297">PipelineRunResult</text></g><g class="message" data-participant-1="Pipeline" data-participant-2="Consumer"><polygon fill="#181818" points="100.9067,356.582,90.9067,360.582,100.9067,364.582,96.9067,360.582" style="stroke:#181818;stroke-width:1;"/><line style="stroke:#181818;stroke-width:1;stroke-dasharray:2,2;" x1="94.9067" x2="219.5098" y1="360.582" y2="360.582"/><text fill="#000000" font-family="Arial" font-size="13" lengthAdjust="spacing" textLength="44.8145" x="132.801" y="340.8784">pipeline</text><text fill="#000000" font-family="Arial" font-size="13" lengthAdjust="spacing" textLength="31.7891" x="139.3137" y="355.8271">result</text></g><path d="M16,375.582 L82.4346,375.582 L82.4346,382.5308 L72.4346,392.5308 L10,392.5308 L10,381.582 A6,6 0 0 1 16,375.582" fill="#EEEEEE" style="stroke:#000000;stroke-width:1.5;"/><rect fill="none" height="503.8721" rx="6" ry="6" style="stroke:#000000;stroke-width:1.5;" width="1077.2139" x="10" y="375.582"/><text fill="#000000" font-family="Arial" font-size="13" font-weight="bold" lengthAdjust="spacing" textLength="27.4346" x="25" y="388.7759">loop</text><text fill="#000000" font-family="Arial" font-size="11" font-weight="bold" lengthAdjust="spacing" textLength="177.2622" x="97.4346" y="387.8999">[each NLPFact in result.nlp_facts]</text><path d="M26,399.5308 L80.1709,399.5308 L80.1709,406.4795 L70.1709,416.4795 L20,416.4795 L20,405.5308 A6,6 0 0 1 26,399.5308" fill="#EEEEEE" style="stroke:#000000;stroke-width:1.5;"/><rect fill="none" height="162.6411" rx="6" ry="6" style="stroke:#000000;stroke-width:1.5;" width="754.0977" x="20" y="399.5308"/><text fill="#000000" font-family="Arial" font-size="13" font-weight="bold" lengthAdjust="spacing" textLength="15.1709" x="35" y="412.7246">alt</text><text fill="#000000" font-family="Arial" font-size="11" font-weight="bold" lengthAdjust="spacing" textLength="152.2437" x="95.1709" y="411.8486">[analytics_result is available]</text><g class="message" data-participant-1="Consumer" data-participant-2="PostInsight"><polygon fill="#181818" points="474.6851,433.4282,484.6851,437.4282,474.6851,441.4282,478.6851,437.4282" style="stroke:#181818;stroke-width:1;"/><line style="stroke:#181818;stroke-width:1;" x1="89.9067" x2="480.6851" y1="437.4282" y2="437.4282"/><text fill="#000000" font-family="Arial" font-size="13" lengthAdjust="spacing" textLength="167.6606" x="204.4656" y="432.6733">create(to_post_insight_input)</text></g><g class="message" data-participant-1="PostInsight" data-participant-2="PostgreSQL"><polygon fill="#181818" points="651.1016,492.2744,661.1016,496.2744,651.1016,500.2744,655.1016,496.2744" style="stroke:#181818;stroke-width:1;"/><line style="stroke:#181818;stroke-width:1;" x1="496.6851" x2="657.1016" y1="496.2744" y2="496.2744"/><text fill="#000000" font-family="Arial" font-size="13" lengthAdjust="spacing" textLength="31.7891" x="563.9988" y="461.6221">insert</text><text fill="#000000" font-family="Arial" font-size="13" lengthAdjust="spacing" textLength="69.3799" x="545.2034" y="476.5708">post_insight</text><text fill="#000000" font-family="Arial" font-size="13" lengthAdjust="spacing" textLength="20.9473" x="569.4197" y="491.5195">row</text></g><g class="message" data-participant-1="PostgreSQL" data-participant-2="PostInsight"><polygon fill="#181818" points="507.6851,521.2231,497.6851,525.2231,507.6851,529.2231,503.6851,525.2231" style="stroke:#181818;stroke-width:1;"/><line style="stroke:#181818;stroke-width:1;stroke-dasharray:2,2;" x1="501.6851" x2="667.1016" y1="525.2231" y2="525.2231"/><text fill="#000000" font-family="Arial" font-size="13" lengthAdjust="spacing" textLength="52.749" x="556.0188" y="520.4683">persisted</text></g><g class="message" data-participant-1="PostInsight" data-participant-2="Consumer"><polygon fill="#181818" points="100.9067,550.1719,90.9067,554.1719,100.9067,558.1719,96.9067,554.1719" style="stroke:#181818;stroke-width:1;"/><line style="stroke:#181818;stroke-width:1;stroke-dasharray:2,2;" x1="94.9067" x2="490.6851" y1="554.1719" y2="554.1719"/><text fill="#000000" font-family="Arial" font-size="13" lengthAdjust="spacing" textLength="13.73" x="283.9309" y="549.417">ok</text></g><path d="M26,576.1719 L80.1709,576.1719 L80.1709,583.1206 L70.1709,593.1206 L20,593.1206 L20,582.1719 A6,6 0 0 1 26,576.1719" fill="#EEEEEE" style="stroke:#000000;stroke-width:1.5;"/><rect fill="none" height="296.2822" rx="6" ry="6" style="stroke:#000000;stroke-width:1.5;" width="1057.2139" x="20" y="576.1719"/><text fill="#000000" font-family="Arial" font-size="13" font-weight="bold" lengthAdjust="spacing" textLength="15.1709" x="35" y="589.3657">alt</text><text fill="#000000" font-family="Arial" font-size="11" font-weight="bold" lengthAdjust="spacing" textLength="158.3452" x="95.1709" y="588.4897">[insight_message is available]</text><g class="message" data-participant-1="Consumer" data-participant-2="Publisher"><polygon fill="#181818" points="848.5249,625.0181,858.5249,629.0181,848.5249,633.0181,852.5249,629.0181" style="stroke:#181818;stroke-width:1;"/><line style="stroke:#181818;stroke-width:1;" x1="89.9067" x2="854.5249" y1="629.0181" y2="629.0181"/><text fill="#000000" font-family="Arial" font-size="13" lengthAdjust="spacing" textLength="143.8252" x="403.3032" y="609.3145">publish_one(uap_record,</text><text fill="#000000" font-family="Arial" font-size="13" lengthAdjust="spacing" textLength="101.8862" x="424.2727" y="624.2632">insight_message)</text></g><g class="message" data-participant-1="Publisher" data-participant-2="Publisher"><line style="stroke:#181818;stroke-width:1;" x1="870.5249" x2="912.5249" y1="672.9155" y2="672.9155"/><line style="stroke:#181818;stroke-width:1;" x1="912.5249" x2="912.5249" y1="672.9155" y2="685.9155"/><line style="stroke:#181818;stroke-width:1;" x1="871.5249" x2="912.5249" y1="685.9155" y2="685.9155"/><polygon fill="#181818" points="881.5249,681.9155,871.5249,685.9155,881.5249,689.9155,877.5249,685.9155" style="stroke:#181818;stroke-width:1;"/><text fill="#000000" font-family="Arial" font-size="13" lengthAdjust="spacing" textLength="43.3799" x="877.5249" y="653.2119">append</text><text fill="#000000" font-family="Arial" font-size="13" lengthAdjust="spacing" textLength="3.6118" x="920.9048" y="653.2119">&#160;</text><text fill="#000000" font-family="Arial" font-size="13" lengthAdjust="spacing" textLength="10.8418" x="924.5166" y="653.2119">to</text><text fill="#000000" font-family="Arial" font-size="13" lengthAdjust="spacing" textLength="33.2427" x="889.8203" y="668.1606">buffer</text></g><path d="M770.0977,700.9155 L829.3086,700.9155 L829.3086,707.8643 L819.3086,717.8643 L764.0977,717.8643 L764.0977,706.9155 A6,6 0 0 1 770.0977,700.9155" fill="#EEEEEE" style="stroke:#000000;stroke-width:1.5;"/><rect fill="none" height="120.6411" rx="6" ry="6" style="stroke:#000000;stroke-width:1.5;" width="303.1162" x="764.0977" y="700.9155"/><text fill="#000000" font-family="Arial" font-size="13" font-weight="bold" lengthAdjust="spacing" textLength="20.2109" x="779.0977" y="714.1094">opt</text><text fill="#000000" font-family="Arial" font-size="11" font-weight="bold" lengthAdjust="spacing" textLength="137.543" x="844.3086" y="713.2334">[buffer size &gt;= batch_size]</text><g class="message" data-participant-1="Publisher" data-participant-2="AnalyticsTopics"><line style="stroke:#181818;stroke-width:1;" x1="1010.083" x2="1000.083" y1="813.5566" y2="809.5566"/><line style="stroke:#181818;stroke-width:1;" x1="1010.083" x2="1000.083" y1="813.5566" y2="817.5566"/><line style="stroke:#181818;stroke-width:1;" x1="870.5249" x2="1011.083" y1="813.5566" y2="813.5566"/><text fill="#000000" font-family="Arial" font-size="13" lengthAdjust="spacing" textLength="41.1963" x="920.7058" y="734.0581">publish</text><text fill="#000000" font-family="Arial" font-size="13" lengthAdjust="spacing" textLength="95.3926" x="893.6077" y="749.0068">batch.completed</text><text fill="#000000" font-family="Arial" font-size="13" lengthAdjust="spacing" textLength="25.3018" x="928.6531" y="763.9556">then</text><text fill="#000000" font-family="Arial" font-size="13" lengthAdjust="spacing" textLength="103.3462" x="889.6309" y="778.9043">insights.published</text><text fill="#000000" font-family="Arial" font-size="13" lengthAdjust="spacing" textLength="25.3018" x="928.6531" y="793.853">then</text><text fill="#000000" font-family="Arial" font-size="13" lengthAdjust="spacing" textLength="72.2617" x="905.1731" y="808.8018">report.digest</text></g><g class="message" data-participant-1="Publisher" data-participant-2="Consumer"><polygon fill="#181818" points="100.9067,860.4541,90.9067,864.4541,100.9067,868.4541,96.9067,864.4541" style="stroke:#181818;stroke-width:1;"/><line style="stroke:#181818;stroke-width:1;stroke-dasharray:2,2;" x1="94.9067" x2="864.5249" y1="864.4541" y2="864.4541"/><text fill="#000000" font-family="Arial" font-size="13" lengthAdjust="spacing" textLength="47.7026" x="446.2791" y="844.7505">buffered</text><text fill="#000000" font-family="Arial" font-size="13" lengthAdjust="spacing" textLength="3.6118" x="493.9817" y="844.7505">&#160;</text><text fill="#000000" font-family="Arial" font-size="13" lengthAdjust="spacing" textLength="11.5591" x="497.5935" y="844.7505">or</text><text fill="#000000" font-family="Arial" font-size="13" lengthAdjust="spacing" textLength="41.9199" x="456.7559" y="859.6992">flushed</text></g><!--SRC=[XLHDQzmm4BtxLmmzRSh6jBqK0Wri0u7IDAH9UmkOMNbiYyYIAidP9B- -8t_8zcwXXsNbcJTFepSV_abgYmvRAAd2JeLheyCjjWGx9r5bFlbzWwKvI5r3XShJqaD_EjA2Vf3tMDDEoLg381t8BL2El3NQJwYlfCnXvvmvG73Tagx5bn7p8Dy8FdzOafXEby8uJGu-VieojWOff4KTuDqLqtSjkGTop-JU0NgOJ6lWdRIafARVdgxGKu-SR6kawtHXHy_ch0VUTrgV41eVlcalwoQiE6TpLcB0FJi6SEteuUVDe_QYeHOBrAXUlVIvPLyXXv14CO1FtXeSYd3NxPNq3RdLlPDn7VCTgoU4OAmK_b7tTxBJv-_xeDtq_Qi7P9asWS2maad5RH89O2qsu05by6n7_wg5D7amHMWSORdnfAfy4h7eF0dECsTbjv3d-LcUaIuXNfPb4ocSNwQ2m0KmThFdmYlQWWWlMqXimkXArcSPAo6VaVDD6QPmfXfADX3DvTnZ4Cr8UC8pLhdNmCLgWAac8t2shaKbtp18e-CD9PMTZGTliMK0duRNHxcDClLhDDtUt05f9qNJydJCxnxpEr-_UZgozvuyZsPMqd5-yoivDgbtaGIAKtSKcHJAb34MsD74nAuP05AF0RbMjgZOr9TK1KZTKWm0a1xm6QN2lOhjC3T4NxkvyJaPmK84sd17BDkR_sqNplhOERd5n4J7acZa7QQ1QPc7N80b9- -7modXE3yJtqXmVfAd9SSp6AZieKl9JabIKclTpTE_OkSNSScpKT59XdROTVyHT9hecEPmBWptS8UM2y8BiTmU4nuhctP2_uJ4TqIEriQs30RsNLMDQ6F3-0a-hkJBBz0FJn6_UiIQyV9ucSnP3u6vCArLn58_wj2GddBd1JZIJ0v7rhYGbx8cFxH4bF3emdKDXaof1EEWKbqaEodAGep8nx-_]--></g></svg>