<svg xmlns="http://www.w3.org/2000/svg" xmlns:xlink="http://www.w3.org/1999/xlink" contentStyleType="text/css" data-diagram-type="SEQUENCE" height="686px" preserveAspectRatio="none" style="width:726px;height:686px;background:#FFFFFF;" version="1.1" viewBox="0 0 726 686" width="726px" zoomAndPan="magnify"><defs/><g><rect fill="none" height="360.436" rx="6" ry="6" style="stroke:#000000;stroke-width:1.5;" width="710.5342" x="10" y="113.0474"/><rect fill="none" height="174.6924" rx="6" ry="6" style="stroke:#000000;stroke-width:1.5;" width="455.8867" x="254.6475" y="291.791"/><rect fill="none" height="103.7949" rx="6" ry="6" style="stroke:#000000;stroke-width:1.5;" width="455.8867" x="254.6475" y="487.4834"/><g><title>Kafka Topic</title><rect fill="#000000" fill-opacity="0.00000" height="541.1797" width="8" x="63.748" y="67.0986"/><line style="stroke:#181818;stroke-width:0.5;stroke-dasharray:5,5;" x1="67" x2="67" y1="67.0986" y2="608.2783"/></g><g><title>Consumer Service</title><rect fill="#000000" fill-opacity="0.00000" height="541.1797" width="8" x="186.0718" y="67.0986"/><line style="stroke:#181818;stroke-width:0.5;stroke-dasharray:5,5;" x1="189.4961" x2="189.4961" y1="67.0986" y2="608.2783"/></g><g><title>Audit Consumer Handler</title><rect fill="#000000" fill-opacity="0.00000" height="541.1797" width="8" x="344.2954" y="67.0986"/><line style="stroke:#181818;stroke-width:0.5;stroke-dasharray:5,5;" x1="347.6475" x2="347.6475" y1="67.0986" y2="608.2783"/></g><g><title>Audit Repository</title><rect fill="#000000" fill-opacity="0.00000" height="541.1797" width="8" x="507.1353" y="67.0986"/><line style="stroke:#181818;stroke-width:0.5;stroke-dasharray:5,5;" x1="510.7769" x2="510.7769" y1="67.0986" y2="608.2783"/></g><g><title>PostgreSQL</title><rect fill="#000000" fill-opacity="0.00000" height="541.1797" width="8" x="655.4033" y="67.0986"/><line style="stroke:#181818;stroke-width:0.5;stroke-dasharray:5,5;" x1="659.2725" x2="659.2725" y1="67.0986" y2="608.2783"/></g><g class="participant participant-head" data-participant="Topic"><path d="M25,24.9014 L110.4961,24.9014 C115.4961,24.9014 115.4961,46 115.4961,46 C115.4961,46 115.4961,67.0986 110.4961,67.0986 L25,67.0986 C20,67.0986 20,46 20,46 C20,46 20,24.9014 25,24.9014" fill="#E2E2F0" style="stroke:#181818;stroke-width:0.5;"/><path d="M110.4961,24.9014 C105.4961,24.9014 105.4961,46 105.4961,46 C105.4961,67.0986 110.4961,67.0986 110.4961,67.0986" fill="none" style="stroke:#181818;stroke-width:0.5;"/><text fill="#000000" font-family="Arial" font-size="14" lengthAdjust="spacing" textLength="73.9238" x="25.7861" y="43.0332">Kafka Topic</text><text fill="#000000" font-family="Arial" font-size="14" lengthAdjust="spacing" textLength="75.4961" x="25" y="59.1318">audit events</text></g><g class="participant participant-tail" data-participant="Topic"><path d="M25,607.2783 L110.4961,607.2783 C115.4961,607.2783 115.4961,628.377 115.4961,628.377 C115.4961,628.377 115.4961,649.4756 110.4961,649.4756 L25,649.4756 C20,649.4756 20,628.377 20,628.377 C20,628.377 20,607.2783 25,607.2783" fill="#E2E2F0" style="stroke:#181818;stroke-width:0.5;"/><path d="M110.4961,607.2783 C105.4961,607.2783 105.4961,628.377 105.4961,628.377 C105.4961,649.4756 110.4961,649.4756 110.4961,649.4756" fill="none" style="stroke:#181818;stroke-width:0.5;"/><text fill="#000000" font-family="Arial" font-size="14" lengthAdjust="spacing" textLength="73.9238" x="25.7861" y="625.4102">Kafka Topic</text><text fill="#000000" font-family="Arial" font-size="14" lengthAdjust="spacing" textLength="75.4961" x="25" y="641.5088">audit events</text></g><g class="participant participant-head" data-participant="ConsumerSvc"><rect fill="#E2E2F0" height="30.0986" rx="6" ry="6" style="stroke:#181818;stroke-width:0.5;" width="129.1514" x="125.4961" y="36"/><text fill="#000000" font-family="Arial" font-size="14" lengthAdjust="spacing" textLength="115.1514" x="132.4961" y="56.1318">Consumer Service</text></g><g class="participant participant-tail" data-participant="ConsumerSvc"><rect fill="#E2E2F0" height="30.0986" rx="6" ry="6" style="stroke:#181818;stroke-width:0.5;" width="129.1514" x="125.4961" y="607.2783"/><text fill="#000000" font-family="Arial" font-size="14" lengthAdjust="spacing" textLength="115.1514" x="132.4961" y="627.4102">Consumer Service</text></g><g class="participant participant-head" data-participant="AuditHandler"><rect fill="#E2E2F0" height="30.0986" rx="6" ry="6" style="stroke:#181818;stroke-width:0.5;" width="167.2959" x="264.6475" y="36"/><text fill="#000000" font-family="Arial" font-size="14" lengthAdjust="spacing" textLength="153.2959" x="271.6475" y="56.1318">Audit Consumer Handler</text></g><g class="participant participant-tail" data-participant="AuditHandler"><rect fill="#E2E2F0" height="30.0986" rx="6" ry="6" style="stroke:#181818;stroke-width:0.5;" width="167.2959" x="264.6475" y="607.2783"/><text fill="#000000" font-family="Arial" font-size="14" lengthAdjust="spacing" textLength="153.2959" x="271.6475" y="627.4102">Audit Consumer Handler</text></g><g class="participant participant-head" data-participant="AuditRepo"><text fill="#000000" font-family="Arial" font-size="14" lengthAdjust="spacing" textLength="102.7168" x="456.7769" y="64.1318">Audit Repository</text><path d="M493.1353,15 C493.1353,5 511.1353,5 511.1353,5 C511.1353,5 529.1353,5 529.1353,15 L529.1353,41 C529.1353,51 511.1353,51 511.1353,51 C511.1353,51 493.1353,51 493.1353,41 L493.1353,15" fill="#E2E2F0" style="stroke:#181818;stroke-width:0.5;"/><path d="M493.1353,15 C493.1353,25 511.1353,25 511.1353,25 C511.1353,25 529.1353,25 529.1353,15" fill="none" style="stroke:#181818;stroke-width:0.5;"/></g><g class="participant participant-tail" data-participant="AuditRepo"><text fill="#000000" font-family="Arial" font-size="14" lengthAdjust="spacing" textLength="102.7168" x="456.7769" y="620.4102">Audit Repository</text><path d="M493.1353,633.377 C493.1353,623.377 511.1353,623.377 511.1353,623.377 C511.1353,623.377 529.1353,623.377 529.1353,633.377 L529.1353,659.377 C529.1353,669.377 511.1353,669.377 511.1353,669.377 C511.1353,669.377 493.1353,669.377 493.1353,659.377 L493.1353,633.377" fill="#E2E2F0" style="stroke:#181818;stroke-width:0.5;"/><path d="M493.1353,633.377 C493.1353,643.377 511.1353,643.377 511.1353,643.377 C511.1353,643.377 529.1353,643.377 529.1353,633.377" fill="none" style="stroke:#181818;stroke-width:0.5;"/></g><g class="participant participant-head" data-participant="Postgres"><text fill="#000000" font-family="Arial" font-size="14" lengthAdjust="spacing" textLength="76.2617" x="618.2725" y="64.1318">PostgreSQL</text><path d="M641.4033,15 C641.4033,5 659.4033,5 659.4033,5 C659.4033,5 677.4033,5 677.4033,15 L677.4033,41 C677.4033,51 659.4033,51 659.4033,51 C659.4033,51 641.4033,51 641.4033,41 L641.4033,15" fill="#E2E2F0" style="stroke:#181818;stroke-width:0.5;"/><path d="M641.4033,15 C641.4033,25 659.4033,25 659.4033,25 C659.4033,25 677.4033,25 677.4033,15" fill="none" style="stroke:#181818;stroke-width:0.5;"/></g><g class="participant participant-tail" data-participant="Postgres"><text fill="#000000" font-family="Arial" font-size="14" lengthAdjust="spacing" textLength="76.2617" x="618.2725" y="620.4102">PostgreSQL</text><path d="M641.4033,633.377 C641.4033,623.377 659.4033,623.377 659.4033,623.377 C659.4033,623.377 677.4033,623.377 677.4033,633.377 L677.4033,659.377 C677.4033,669.377 659.4033,669.377 659.4033,669.377 C659.4033,669.377 641.4033,669.377 641.4033,659.377 L641.4033,633.377" fill="#E2E2F0" style="stroke:#181818;stroke-width:0.5;"/><path d="M641.4033,633.377 C641.4033,643.377 659.4033,643.377 659.4033,643.377 C659.4033,643.377 677.4033,643.377 677.4033,633.377" fill="none" style="stroke:#181818;stroke-width:0.5;"/></g><g class="message" data-participant-1="ConsumerSvc" data-participant-2="AuditHandler"><polygon fill="#181818" points="336.2954,94.0474,346.2954,98.0474,336.2954,102.0474,340.2954,98.0474" style="stroke:#181818;stroke-width:1;"/><line style="stroke:#181818;stroke-width:1;" x1="190.0718" x2="342.2954" y1="98.0474" y2="98.0474"/><text fill="#000000" font-family="Arial" font-size="13" lengthAdjust="spacing" textLength="125.0044" x="206.6814" y="93.2925">Start consumer group</text></g><path d="M16,113.0474 L82.4346,113.0474 L82.4346,119.9961 L72.4346,129.9961 L10,129.9961 L10,119.0474 A6,6 0 0 1 16,113.0474" fill="#EEEEEE" style="stroke:#000000;stroke-width:1.5;"/><rect fill="none" height="360.436" rx="6" ry="6" style="stroke:#000000;stroke-width:1.5;" width="710.5342" x="10" y="113.0474"/><text fill="#000000" font-family="Arial" font-size="13" font-weight="bold" lengthAdjust="spacing" textLength="27.4346" x="25" y="126.2412">loop</text><text fill="#000000" font-family="Arial" font-size="11" font-weight="bold" lengthAdjust="spacing" textLength="109.2749" x="97.4346" y="125.3652">[V&#7899;i m&#7895;i audit event]</text><g class="message" data-participant-1="Topic" data-participant-2="AuditHandler"><polygon fill="#181818" points="336.2954,146.9448,346.2954,150.9448,336.2954,154.9448,340.2954,150.9448" style="stroke:#181818;stroke-width:1;"/><line style="stroke:#181818;stroke-width:1;" x1="67.748" x2="342.2954" y1="150.9448" y2="150.9448"/><text fill="#000000" font-family="Arial" font-size="13" lengthAdjust="spacing" textLength="111.998" x="152.0227" y="146.1899">Consume message</text></g><g class="message" data-participant-1="AuditHandler" data-participant-2="AuditHandler"><line style="stroke:#181818;stroke-width:1;" x1="348.2954" x2="390.2954" y1="179.8936" y2="179.8936"/><line style="stroke:#181818;stroke-width:1;" x1="390.2954" x2="390.2954" y1="179.8936" y2="192.8936"/><line style="stroke:#181818;stroke-width:1;" x1="349.2954" x2="390.2954" y1="192.8936" y2="192.8936"/><polygon fill="#181818" points="359.2954,188.8936,349.2954,192.8936,359.2954,196.8936,355.2954,192.8936" style="stroke:#181818;stroke-width:1;"/><text fill="#000000" font-family="Arial" font-size="13" lengthAdjust="spacing" textLength="98.2681" x="355.2954" y="175.1387">Unmarshal event</text></g><g class="message" data-participant-1="AuditHandler" data-participant-2="AuditHandler"><line style="stroke:#181818;stroke-width:1;" x1="348.2954" x2="390.2954" y1="221.8423" y2="221.8423"/><line style="stroke:#181818;stroke-width:1;" x1="390.2954" x2="390.2954" y1="221.8423" y2="234.8423"/><line style="stroke:#181818;stroke-width:1;" x1="349.2954" x2="390.2954" y1="234.8423" y2="234.8423"/><polygon fill="#181818" points="359.2954,230.8423,349.2954,234.8423,359.2954,238.8423,355.2954,234.8423" style="stroke:#181818;stroke-width:1;"/><text fill="#000000" font-family="Arial" font-size="13" lengthAdjust="spacing" textLength="118.5298" x="355.2954" y="217.0874">Add event v&#224;o batch</text></g><g class="message" data-participant-1="AuditHandler" data-participant-2="AuditHandler"><line style="stroke:#181818;stroke-width:1;" x1="348.2954" x2="390.2954" y1="263.791" y2="263.791"/><line style="stroke:#181818;stroke-width:1;" x1="390.2954" x2="390.2954" y1="263.791" y2="276.791"/><line style="stroke:#181818;stroke-width:1;" x1="349.2954" x2="390.2954" y1="276.791" y2="276.791"/><polygon fill="#181818" points="359.2954,272.791,349.2954,276.791,359.2954,280.791,355.2954,276.791" style="stroke:#181818;stroke-width:1;"/><text fill="#000000" font-family="Arial" font-size="13" lengthAdjust="spacing" textLength="148.8398" x="355.2954" y="259.0361">Mark message processed</text></g><path d="M260.6475,291.791 L314.8184,291.791 L314.8184,298.7397 L304.8184,308.7397 L254.6475,308.7397 L254.6475,297.791 A6,6 0 0 1 260.6475,291.791" fill="#EEEEEE" style="stroke:#000000;stroke-width:1.5;"/><rect fill="none" height="174.6924" rx="6" ry="6" style="stroke:#000000;stroke-width:1.5;" width="455.8867" x="254.6475" y="291.791"/><text fill="#000000" font-family="Arial" font-size="13" font-weight="bold" lengthAdjust="spacing" textLength="15.1709" x="269.6475" y="304.9849">alt</text><text fill="#000000" font-family="Arial" font-size="11" font-weight="bold" lengthAdjust="spacing" textLength="152.7969" x="329.8184" y="304.1089">[&#272;&#7841;t batch size ho&#7863;c timeout]</text><g class="message" data-participant-1="AuditHandler" data-participant-2="AuditRepo"><polygon fill="#181818" points="499.1353,325.6885,509.1353,329.6885,499.1353,333.6885,503.1353,329.6885" style="stroke:#181818;stroke-width:1;"/><line style="stroke:#181818;stroke-width:1;" x1="348.2954" x2="505.1353" y1="329.6885" y2="329.6885"/><text fill="#000000" font-family="Arial" font-size="13" lengthAdjust="spacing" textLength="106.2153" x="376.6077" y="324.9336">BatchInsert(batch)</text></g><g class="message" data-participant-1="AuditRepo" data-participant-2="Postgres"><polygon fill="#181818" points="647.4033,354.6372,657.4033,358.6372,647.4033,362.6372,651.4033,358.6372" style="stroke:#181818;stroke-width:1;"/><line style="stroke:#181818;stroke-width:1;" x1="511.1353" x2="653.4033" y1="358.6372" y2="358.6372"/><text fill="#000000" font-family="Arial" font-size="13" lengthAdjust="spacing" textLength="95.3735" x="537.5825" y="353.8823">Insert audit rows</text></g><g class="message" data-participant-1="Postgres" data-participant-2="AuditRepo"><polygon fill="#181818" points="522.1353,383.5859,512.1353,387.5859,522.1353,391.5859,518.1353,387.5859" style="stroke:#181818;stroke-width:1;"/><line style="stroke:#181818;stroke-width:1;stroke-dasharray:2,2;" x1="516.1353" x2="658.4033" y1="387.5859" y2="387.5859"/><text fill="#000000" font-family="Arial" font-size="13" lengthAdjust="spacing" textLength="13.73" x="578.4043" y="382.8311">ok</text></g><g class="message" data-participant-1="AuditRepo" data-participant-2="AuditHandler"><polygon fill="#181818" points="359.2954,412.5347,349.2954,416.5347,359.2954,420.5347,355.2954,416.5347" style="stroke:#181818;stroke-width:1;"/><line style="stroke:#181818;stroke-width:1;stroke-dasharray:2,2;" x1="353.2954" x2="510.1353" y1="416.5347" y2="416.5347"/><text fill="#000000" font-family="Arial" font-size="13" lengthAdjust="spacing" textLength="13.73" x="422.8503" y="411.7798">ok</text></g><g class="message" data-participant-1="AuditHandler" data-participant-2="AuditHandler"><line style="stroke:#181818;stroke-width:1;" x1="348.2954" x2="390.2954" y1="445.4834" y2="445.4834"/><line style="stroke:#181818;stroke-width:1;" x1="390.2954" x2="390.2954" y1="445.4834" y2="458.4834"/><line style="stroke:#181818;stroke-width:1;" x1="349.2954" x2="390.2954" y1="458.4834" y2="458.4834"/><polygon fill="#181818" points="359.2954,454.4834,349.2954,458.4834,359.2954,462.4834,355.2954,458.4834" style="stroke:#181818;stroke-width:1;"/><text fill="#000000" font-family="Arial" font-size="13" lengthAdjust="spacing" textLength="66.479" x="355.2954" y="440.7285">Clear batch</text></g><path d="M260.6475,487.4834 L314.8184,487.4834 L314.8184,494.4321 L304.8184,504.4321 L254.6475,504.4321 L254.6475,493.4834 A6,6 0 0 1 260.6475,487.4834" fill="#EEEEEE" style="stroke:#000000;stroke-width:1.5;"/><rect fill="none" height="103.7949" rx="6" ry="6" style="stroke:#000000;stroke-width:1.5;" width="455.8867" x="254.6475" y="487.4834"/><text fill="#000000" font-family="Arial" font-size="13" font-weight="bold" lengthAdjust="spacing" textLength="15.1709" x="269.6475" y="500.6772">alt</text><text fill="#000000" font-family="Arial" font-size="11" font-weight="bold" lengthAdjust="spacing" textLength="158.9199" x="329.8184" y="499.8013">[Cleanup khi session k&#7871;t th&#250;c]</text><g class="message" data-participant-1="AuditHandler" data-participant-2="AuditRepo"><polygon fill="#181818" points="499.1353,521.3809,509.1353,525.3809,499.1353,529.3809,503.1353,525.3809" style="stroke:#181818;stroke-width:1;"/><line style="stroke:#181818;stroke-width:1;" x1="348.2954" x2="505.1353" y1="525.3809" y2="525.3809"/><text fill="#000000" font-family="Arial" font-size="13" lengthAdjust="spacing" textLength="108.3926" x="375.519" y="520.626">Flush batch c&#242;n l&#7841;i</text></g><g class="message" data-participant-1="AuditRepo" data-participant-2="Postgres"><polygon fill="#181818" points="647.4033,550.3296,657.4033,554.3296,647.4033,558.3296,651.4033,554.3296" style="stroke:#181818;stroke-width:1;"/><line style="stroke:#181818;stroke-width:1;" x1="511.1353" x2="653.4033" y1="554.3296" y2="554.3296"/><text fill="#000000" font-family="Arial" font-size="13" lengthAdjust="spacing" textLength="124.2681" x="523.1353" y="549.5747">Insert remaining rows</text></g><g class="message" data-participant-1="Postgres" data-participant-2="AuditRepo"><polygon fill="#181818" points="522.1353,579.2783,512.1353,583.2783,522.1353,587.2783,518.1353,583.2783" style="stroke:#181818;stroke-width:1;"/><line style="stroke:#181818;stroke-width:1;stroke-dasharray:2,2;" x1="516.1353" x2="658.4033" y1="583.2783" y2="583.2783"/><text fill="#000000" font-family="Arial" font-size="13" lengthAdjust="spacing" textLength="13.73" x="578.4043" y="578.5234">ok</text></g><!--SRC=[XPE_RXGn4CPxFyNegb2aWF8Af4ka20I9W0Cgceazjskjrrx6zftWAUWeQE0LQ90k1SNn8licsFldiiafbsAbtPdVV3FpsUihRHjah47H2gC95yw6Awm95gpH2B_F-nALssXRm0gDfsc6FaUoaYx9UoneONHXGP8Dn1EAoJVE-f4w8-Cs2sQtWS1nAiSkMYKTMs9u-ao891u9PgzmLI6yTusMdon6fGFGEZNnCq3VnqKI25hg1cs0sNdg5kiaiYHUQqaTDmQNwtlqebFSrxn0gmnnLzEbXe1G6F0QFOqLxwXnNWV7NsxP79k0RvmF1TFoxUiE6Jwz49DXuFJvdJvpM8Oq7iXne2BPqWXXd6lWOtlpGqFTtdpNC752G6_3eTRG2EhU-mHEyuVy1riZfmCtU-7Z_4AfdeJrxgU3QmooVBJe4haQ9uA6dKolf4IgGnFWtxTs-olqKk3rLuBIjTi_4eAkoSKyqmCDiljpECk5BzDzut3IYJovhSX4niUJc4CF3cQcE-axUCp3wLrjLztNEbXkYZpemBaXvBrRP9N8ZyZhvvID3LIbJl-NzzfPgDhjtm2Xt6sbEBhxXOc-7AoJkzyMJF9IYyUsPwfHs_o73muSsJyD-Xy0]--></g></svg>