<svg xmlns="http://www.w3.org/2000/svg" xmlns:xlink="http://www.w3.org/1999/xlink" contentStyleType="text/css" data-diagram-type="SEQUENCE" height="708px" preserveAspectRatio="none" style="width:385px;height:708px;background:#FFFFFF;" version="1.1" viewBox="0 0 385 708" width="385px" zoomAndPan="magnify"><title>Knowledge Indexing Phase 1 - Intake and Routing</title><defs/><g><text fill="#000000" font-family="Arial" font-size="14" font-weight="bold" lengthAdjust="spacing" textLength="331.3721" x="28.1152" y="28.1318">Knowledge Indexing Phase 1 - Intake and Routing</text><g><title>Kafka Consumer</title><rect fill="#FFFFFF" height="504.9214" style="stroke:#181818;stroke-width:1;" width="10" x="165.396" y="145.1421"/></g><g><title>IndexingUseCase</title><rect fill="#FFFFFF" height="58.8462" style="stroke:#181818;stroke-width:1;" width="10" x="301.3477" y="299.7832"/></g><g><title>IndexingUseCase</title><rect fill="#FFFFFF" height="58.8462" style="stroke:#181818;stroke-width:1;" width="10" x="301.3477" y="402.2271"/></g><g><title>IndexingUseCase</title><rect fill="#FFFFFF" height="58.8462" style="stroke:#181818;stroke-width:1;" width="10" x="301.3477" y="504.6709"/></g><rect fill="none" height="381.1777" rx="6" ry="6" style="stroke:#000000;stroke-width:1.5;" width="277.3408" x="101.2617" y="261.8857"/><g><title>Kafka topics</title><rect fill="#000000" fill-opacity="0.00000" height="575.7676" width="8" x="49.1309" y="84.2959"/><line style="stroke:#181818;stroke-width:0.5;stroke-dasharray:5,5;" x1="53" x2="53" y1="84.2959" y2="660.0635"/></g><g><title>Kafka Consumer</title><rect fill="#000000" fill-opacity="0.00000" height="575.7676" width="8" x="166.396" y="84.2959"/><line style="stroke:#181818;stroke-width:0.5;stroke-dasharray:5,5;" x1="170.2617" x2="170.2617" y1="84.2959" y2="660.0635"/></g><g><title>IndexingUseCase</title><rect fill="#000000" fill-opacity="0.00000" height="575.7676" width="8" x="302.3477" y="84.2959"/><line style="stroke:#181818;stroke-width:0.5;stroke-dasharray:5,5;" x1="306.0928" x2="306.0928" y1="84.2959" y2="660.0635"/></g><g class="participant participant-head" data-participant="AnalyticsTopics"><path d="M10,42.0986 L96.2617,42.0986 C101.2617,42.0986 101.2617,63.1973 101.2617,63.1973 C101.2617,63.1973 101.2617,84.2959 96.2617,84.2959 L10,84.2959 C5,84.2959 5,63.1973 5,63.1973 C5,63.1973 5,42.0986 10,42.0986" fill="#E2E2F0" style="stroke:#181818;stroke-width:0.5;"/><path d="M96.2617,42.0986 C91.2617,42.0986 91.2617,63.1973 91.2617,63.1973 C91.2617,84.2959 96.2617,84.2959 96.2617,84.2959" fill="none" style="stroke:#181818;stroke-width:0.5;"/><text fill="#000000" font-family="Arial" font-size="14" lengthAdjust="spacing" textLength="76.2617" x="10" y="60.2305">Kafka topics</text><text fill="#000000" font-family="Arial" font-size="14" lengthAdjust="spacing" textLength="63.8066" x="16.2275" y="76.3291">analytics.*</text></g><g class="participant participant-tail" data-participant="AnalyticsTopics"><path d="M10,659.0635 L96.2617,659.0635 C101.2617,659.0635 101.2617,680.1621 101.2617,680.1621 C101.2617,680.1621 101.2617,701.2607 96.2617,701.2607 L10,701.2607 C5,701.2607 5,680.1621 5,680.1621 C5,680.1621 5,659.0635 10,659.0635" fill="#E2E2F0" style="stroke:#181818;stroke-width:0.5;"/><path d="M96.2617,659.0635 C91.2617,659.0635 91.2617,680.1621 91.2617,680.1621 C91.2617,701.2607 96.2617,701.2607 96.2617,701.2607" fill="none" style="stroke:#181818;stroke-width:0.5;"/><text fill="#000000" font-family="Arial" font-size="14" lengthAdjust="spacing" textLength="76.2617" x="10" y="677.1953">Kafka topics</text><text fill="#000000" font-family="Arial" font-size="14" lengthAdjust="spacing" textLength="63.8066" x="16.2275" y="693.2939">analytics.*</text></g><g class="participant participant-head" data-participant="Consumer"><rect fill="#E2E2F0" height="30.0986" rx="6" ry="6" style="stroke:#181818;stroke-width:0.5;" width="118.2686" x="111.2617" y="53.1973"/><text fill="#000000" font-family="Arial" font-size="14" lengthAdjust="spacing" textLength="104.2686" x="118.2617" y="73.3291">Kafka Consumer</text></g><g class="participant participant-tail" data-participant="Consumer"><rect fill="#E2E2F0" height="30.0986" rx="6" ry="6" style="stroke:#181818;stroke-width:0.5;" width="118.2686" x="111.2617" y="659.0635"/><text fill="#000000" font-family="Arial" font-size="14" lengthAdjust="spacing" textLength="104.2686" x="118.2617" y="679.1953">Kafka Consumer</text></g><g class="participant participant-head" data-participant="Indexing"><rect fill="#E2E2F0" height="30.0986" rx="6" ry="6" style="stroke:#181818;stroke-width:0.5;" width="124.5098" x="244.0928" y="53.1973"/><text fill="#000000" font-family="Arial" font-size="14" lengthAdjust="spacing" textLength="110.5098" x="251.0928" y="73.3291">IndexingUseCase</text></g><g class="participant participant-tail" data-participant="Indexing"><rect fill="#E2E2F0" height="30.0986" rx="6" ry="6" style="stroke:#181818;stroke-width:0.5;" width="124.5098" x="244.0928" y="659.0635"/><text fill="#000000" font-family="Arial" font-size="14" lengthAdjust="spacing" textLength="110.5098" x="251.0928" y="679.1953">IndexingUseCase</text></g><g><title>Kafka Consumer</title><rect fill="#FFFFFF" height="504.9214" style="stroke:#181818;stroke-width:1;" width="10" x="165.396" y="145.1421"/></g><g><title>IndexingUseCase</title><rect fill="#FFFFFF" height="58.8462" style="stroke:#181818;stroke-width:1;" width="10" x="301.3477" y="299.7832"/></g><g><title>IndexingUseCase</title><rect fill="#FFFFFF" height="58.8462" style="stroke:#181818;stroke-width:1;" width="10" x="301.3477" y="402.2271"/></g><g><title>IndexingUseCase</title><rect fill="#FFFFFF" height="58.8462" style="stroke:#181818;stroke-width:1;" width="10" x="301.3477" y="504.6709"/></g><g class="message" data-participant-1="AnalyticsTopics" data-participant-2="Consumer"><line style="stroke:#181818;stroke-width:1;" x1="163.396" x2="153.396" y1="145.1421" y2="141.1421"/><line style="stroke:#181818;stroke-width:1;" x1="163.396" x2="153.396" y1="145.1421" y2="149.1421"/><line style="stroke:#181818;stroke-width:1;" x1="53.1309" x2="164.396" y1="145.1421" y2="145.1421"/><text fill="#000000" font-family="Arial" font-size="13" lengthAdjust="spacing" textLength="38.2954" x="90.1157" y="110.4897">deliver</text><text fill="#000000" font-family="Arial" font-size="13" lengthAdjust="spacing" textLength="50.5781" x="83.9744" y="125.4385">analytics</text><text fill="#000000" font-family="Arial" font-size="13" lengthAdjust="spacing" textLength="31.8018" x="93.3625" y="140.3872">event</text></g><g class="message" data-participant-1="Consumer" data-participant-2="Consumer"><line style="stroke:#181818;stroke-width:1;" x1="175.396" x2="217.396" y1="233.8857" y2="233.8857"/><line style="stroke:#181818;stroke-width:1;" x1="217.396" x2="217.396" y1="233.8857" y2="246.8857"/><line style="stroke:#181818;stroke-width:1;" x1="176.396" x2="217.396" y1="246.8857" y2="246.8857"/><polygon fill="#181818" points="186.396,242.8857,176.396,246.8857,186.396,250.8857,182.396,246.8857" style="stroke:#181818;stroke-width:1;"/><text fill="#000000" font-family="Arial" font-size="13" lengthAdjust="spacing" textLength="60.6963" x="182.396" y="169.3359">unmarshal</text><text fill="#000000" font-family="Arial" font-size="13" lengthAdjust="spacing" textLength="13.73" x="190.3433" y="184.2847">by</text><text fill="#000000" font-family="Arial" font-size="13" lengthAdjust="spacing" textLength="3.6118" x="204.0732" y="184.2847">&#160;</text><text fill="#000000" font-family="Arial" font-size="13" lengthAdjust="spacing" textLength="27.46" x="207.6851" y="184.2847">topic</text><text fill="#000000" font-family="Arial" font-size="13" lengthAdjust="spacing" textLength="21.6899" x="201.8992" y="199.2334">and</text><text fill="#000000" font-family="Arial" font-size="13" lengthAdjust="spacing" textLength="45.5381" x="189.9751" y="214.1821">payload</text><text fill="#000000" font-family="Arial" font-size="13" lengthAdjust="spacing" textLength="35.4199" x="195.0342" y="229.1309">shape</text></g><path d="M107.2617,261.8857 L161.4326,261.8857 L161.4326,268.8345 L151.4326,278.8345 L101.2617,278.8345 L101.2617,267.8857 A6,6 0 0 1 107.2617,261.8857" fill="#EEEEEE" style="stroke:#000000;stroke-width:1.5;"/><rect fill="none" height="381.1777" rx="6" ry="6" style="stroke:#000000;stroke-width:1.5;" width="277.3408" x="101.2617" y="261.8857"/><text fill="#000000" font-family="Arial" font-size="13" font-weight="bold" lengthAdjust="spacing" textLength="15.1709" x="116.2617" y="275.0796">alt</text><text fill="#000000" font-family="Arial" font-size="11" font-weight="bold" lengthAdjust="spacing" textLength="188.8369" x="176.4326" y="274.2036">[batch.completed with documents[]]</text><g class="message" data-participant-1="Consumer" data-participant-2="Indexing"><polygon fill="#181818" points="289.3477,295.7832,299.3477,299.7832,289.3477,303.7832,293.3477,299.7832" style="stroke:#181818;stroke-width:1;"/><line style="stroke:#181818;stroke-width:1;" x1="175.396" x2="295.3477" y1="299.7832" y2="299.7832"/><text fill="#000000" font-family="Arial" font-size="13" lengthAdjust="spacing" textLength="101.8926" x="187.4255" y="295.0283">IndexBatch(input)</text></g><g class="message" data-participant-1="Indexing" data-participant-2="Consumer"><polygon fill="#181818" points="186.396,354.6294,176.396,358.6294,186.396,362.6294,182.396,358.6294" style="stroke:#181818;stroke-width:1;"/><line style="stroke:#181818;stroke-width:1;stroke-dasharray:2,2;" x1="180.396" x2="305.3477" y1="358.6294" y2="358.6294"/><text fill="#000000" font-family="Arial" font-size="13" lengthAdjust="spacing" textLength="31.8018" x="224.9709" y="323.9771">batch</text><text fill="#000000" font-family="Arial" font-size="13" lengthAdjust="spacing" textLength="48.4263" x="216.6587" y="338.9258">indexing</text><text fill="#000000" font-family="Arial" font-size="13" lengthAdjust="spacing" textLength="31.7891" x="224.9773" y="353.8745">result</text></g><line style="stroke:#000000;stroke-width:1;stroke-dasharray:2,2;" x1="101.2617" x2="378.6025" y1="367.6294" y2="367.6294"/><text fill="#000000" font-family="Arial" font-size="11" font-weight="bold" lengthAdjust="spacing" textLength="230.7046" x="106.2617" y="377.9473">[insights.published with should_index=true]</text><g class="message" data-participant-1="Consumer" data-participant-2="Indexing"><polygon fill="#181818" points="289.3477,398.2271,299.3477,402.2271,289.3477,406.2271,293.3477,402.2271" style="stroke:#181818;stroke-width:1;"/><line style="stroke:#181818;stroke-width:1;" x1="175.396" x2="295.3477" y1="402.2271" y2="402.2271"/><text fill="#000000" font-family="Arial" font-size="13" lengthAdjust="spacing" textLength="106.9517" x="184.896" y="397.4722">IndexInsight(input)</text></g><g class="message" data-participant-1="Indexing" data-participant-2="Consumer"><polygon fill="#181818" points="186.396,457.0732,176.396,461.0732,186.396,465.0732,182.396,461.0732" style="stroke:#181818;stroke-width:1;"/><line style="stroke:#181818;stroke-width:1;stroke-dasharray:2,2;" x1="180.396" x2="305.3477" y1="461.0732" y2="461.0732"/><text fill="#000000" font-family="Arial" font-size="13" lengthAdjust="spacing" textLength="37.5781" x="222.0828" y="426.4209">insight</text><text fill="#000000" font-family="Arial" font-size="13" lengthAdjust="spacing" textLength="48.4263" x="216.6587" y="441.3696">indexing</text><text fill="#000000" font-family="Arial" font-size="13" lengthAdjust="spacing" textLength="31.7891" x="224.9773" y="456.3184">result</text></g><line style="stroke:#000000;stroke-width:1;stroke-dasharray:2,2;" x1="101.2617" x2="378.6025" y1="470.0732" y2="470.0732"/><text fill="#000000" font-family="Arial" font-size="11" font-weight="bold" lengthAdjust="spacing" textLength="200.7661" x="106.2617" y="480.3911">[report.digest with should_index=true]</text><g class="message" data-participant-1="Consumer" data-participant-2="Indexing"><polygon fill="#181818" points="289.3477,500.6709,299.3477,504.6709,289.3477,508.6709,293.3477,504.6709" style="stroke:#181818;stroke-width:1;"/><line style="stroke:#181818;stroke-width:1;" x1="175.396" x2="295.3477" y1="504.6709" y2="504.6709"/><text fill="#000000" font-family="Arial" font-size="13" lengthAdjust="spacing" textLength="105.498" x="185.6228" y="499.916">IndexDigest(input)</text></g><g class="message" data-participant-1="Indexing" data-participant-2="Consumer"><polygon fill="#181818" points="186.396,559.5171,176.396,563.5171,186.396,567.5171,182.396,563.5171" style="stroke:#181818;stroke-width:1;"/><line style="stroke:#181818;stroke-width:1;stroke-dasharray:2,2;" x1="180.396" x2="305.3477" y1="563.5171" y2="563.5171"/><text fill="#000000" font-family="Arial" font-size="13" lengthAdjust="spacing" textLength="34.6899" x="223.5269" y="528.8647">digest</text><text fill="#000000" font-family="Arial" font-size="13" lengthAdjust="spacing" textLength="48.4263" x="216.6587" y="543.8135">indexing</text><text fill="#000000" font-family="Arial" font-size="13" lengthAdjust="spacing" textLength="31.7891" x="224.9773" y="558.7622">result</text></g><line style="stroke:#000000;stroke-width:1;stroke-dasharray:2,2;" x1="101.2617" x2="378.6025" y1="572.5171" y2="572.5171"/><text fill="#000000" font-family="Arial" font-size="11" font-weight="bold" lengthAdjust="spacing" textLength="177.8423" x="106.2617" y="582.835">[unsupported or skipped payload]</text><g class="message" data-participant-1="Consumer" data-participant-2="Consumer"><line style="stroke:#181818;stroke-width:1;" x1="175.396" x2="217.396" y1="622.0635" y2="622.0635"/><line style="stroke:#181818;stroke-width:1;" x1="217.396" x2="217.396" y1="622.0635" y2="635.0635"/><line style="stroke:#181818;stroke-width:1;" x1="176.396" x2="217.396" y1="635.0635" y2="635.0635"/><polygon fill="#181818" points="186.396,631.0635,176.396,635.0635,186.396,639.0635,182.396,635.0635" style="stroke:#181818;stroke-width:1;"/><text fill="#000000" font-family="Arial" font-size="13" lengthAdjust="spacing" textLength="36.1372" x="190.7019" y="602.3599">ignore</text><text fill="#000000" font-family="Arial" font-size="13" lengthAdjust="spacing" textLength="52.749" x="182.396" y="617.3086">message</text></g><!--SRC=[dLDDQnin4BthLmmvfGMRf9T2e04dfH12I-d7gGrbl1hl2cj7gZJonltr7Q-zctKAXVYcqRnvxsbc94uymJs7pfEj2UxOqgFZ6Zutc0akOQPNWci2P0jVGX5Dchns735X2vPMMBny22oVi2LO98T-aiyDsj3j25VeCqqpzBiGL_IHSiQQ5jxL31MnK9gW4kKOE0-e6_AXMwGKEf1KfdGjFXumNzqVWhSNKv9Gs5OXCIMuV6EC2XU2itjShH4aH5VbduoCVYjwdBy-0yom6E9lFS0ebKOk8ijGUglEIakfnm_1CN3ev_TCjzhG7ZdS6VDC0sRNroCFN6bplTleQRG6jD466Qp4RL3eINCicXqH56unwGWyBBVxX_PZZBZr0UrkE96CGI-mHAcQUHNQw4d8GkUa0Hig9MB9FnuCm5HZN9Eh_V5cLtwk_IxoIg6ZmV6fy5GoE_ROAuCRiZfmtIV5M_gNXNI559fTtKYUnxBqBZU3szo4uksldkbTlnt_ztotvpdDzS74ItmdYY79tBgQifnc-NrVUvhZW-uB31UjZJlFsk6GGFzJZ3HkppEhqzxK7191k_-EXjWQCn4Pa7y1]--></g></svg>