<svg xmlns="http://www.w3.org/2000/svg" xmlns:xlink="http://www.w3.org/1999/xlink" contentStyleType="text/css" data-diagram-type="SEQUENCE" height="835px" preserveAspectRatio="none" style="width:1022px;height:835px;background:#FFFFFF;" version="1.1" viewBox="0 0 1022 835" width="1022px" zoomAndPan="magnify"><title>Realtime and Alert Delivery Flow</title><defs/><g><text fill="#000000" font-family="Arial" font-size="14" font-weight="bold" lengthAdjust="spacing" textLength="217.0684" x="404.3765" y="28.1318">Realtime and Alert Delivery Flow</text><g><title>Redis Subscriber</title><rect fill="#FFFFFF" height="513.7695" style="stroke:#181818;stroke-width:1;" width="10" x="325.002" y="222.9409"/></g><g><title>WebSocket UseCase</title><rect fill="#FFFFFF" height="469.8721" style="stroke:#181818;stroke-width:1;" width="10" x="507.1899" y="266.8384"/></g><g><title>Alert UseCase</title><rect fill="#FFFFFF" height="102.7437" style="stroke:#181818;stroke-width:1;" width="10" x="658.2534" y="451.377"/></g><g><title>Hub</title><rect fill="#FFFFFF" height="87.7949" style="stroke:#181818;stroke-width:1;" width="10" x="740.2222" y="619.9668"/></g><rect fill="none" height="178.5386" rx="6" ry="6" style="stroke:#000000;stroke-width:1.5;" width="588.1587" x="428.6626" y="383.582"/><g><title>Backend publisher</title><rect fill="#000000" fill-opacity="0.00000" height="636.5132" width="8" x="61.5928" y="118.1973"/><line style="stroke:#181818;stroke-width:0.5;stroke-dasharray:5,5;" x1="65" x2="65" y1="118.1973" y2="754.7104"/></g><g><title>Redis Pub.Sub</title><rect fill="#000000" fill-opacity="0.00000" height="636.5132" width="8" x="193.9438" y="118.1973"/><line style="stroke:#181818;stroke-width:0.5;stroke-dasharray:5,5;" x1="197.1855" x2="197.1855" y1="118.1973" y2="754.7104"/></g><g><title>Redis Subscriber</title><rect fill="#000000" fill-opacity="0.00000" height="636.5132" width="8" x="326.002" y="118.1973"/><line style="stroke:#181818;stroke-width:0.5;stroke-dasharray:5,5;" x1="329.7021" x2="329.7021" y1="118.1973" y2="754.7104"/></g><g><title>WebSocket UseCase</title><rect fill="#000000" fill-opacity="0.00000" height="636.5132" width="8" x="508.1899" y="118.1973"/><line style="stroke:#181818;stroke-width:0.5;stroke-dasharray:5,5;" x1="511.6626" x2="511.6626" y1="118.1973" y2="754.7104"/></g><g><title>Alert UseCase</title><rect fill="#000000" fill-opacity="0.00000" height="636.5132" width="8" x="659.2534" y="118.1973"/><line style="stroke:#181818;stroke-width:0.5;stroke-dasharray:5,5;" x1="663.126" x2="663.126" y1="118.1973" y2="754.7104"/></g><g><title>Hub</title><rect fill="#000000" fill-opacity="0.00000" height="636.5132" width="8" x="741.2222" y="118.1973"/><line style="stroke:#181818;stroke-width:0.5;stroke-dasharray:5,5;" x1="744.3809" x2="744.3809" y1="118.1973" y2="754.7104"/></g><g><title>WebSocket Connection</title><rect fill="#000000" fill-opacity="0.00000" height="636.5132" width="8" x="851.2148" y="118.1973"/><line style="stroke:#181818;stroke-width:0.5;stroke-dasharray:5,5;" x1="855.0635" x2="855.0635" y1="118.1973" y2="754.7104"/></g><g><title>Discord</title><rect fill="#000000" fill-opacity="0.00000" height="636.5132" width="8" x="972.0938" y="118.1973"/><line style="stroke:#181818;stroke-width:0.5;stroke-dasharray:5,5;" x1="975.3662" x2="975.3662" y1="118.1973" y2="754.7104"/></g><g class="participant participant-head" data-participant="Publisher"><text fill="#000000" font-family="Arial" font-size="14" lengthAdjust="spacing" textLength="115.1855" x="5" y="115.2305">Backend publisher</text><ellipse cx="65.5928" cy="50.5986" fill="#E2E2F0" rx="8" ry="8" style="stroke:#181818;stroke-width:0.5;"/><path d="M65.5928,58.5986 L65.5928,85.5986 M52.5928,66.5986 L78.5928,66.5986 M65.5928,85.5986 L52.5928,100.5986 M65.5928,85.5986 L78.5928,100.5986" fill="none" style="stroke:#181818;stroke-width:0.5;"/></g><g class="participant participant-tail" data-participant="Publisher"><text fill="#000000" font-family="Arial" font-size="14" lengthAdjust="spacing" textLength="115.1855" x="5" y="766.8423">Backend publisher</text><ellipse cx="65.5928" cy="778.3091" fill="#E2E2F0" rx="8" ry="8" style="stroke:#181818;stroke-width:0.5;"/><path d="M65.5928,786.3091 L65.5928,813.3091 M52.5928,794.3091 L78.5928,794.3091 M65.5928,813.3091 L52.5928,828.3091 M65.5928,813.3091 L78.5928,828.3091" fill="none" style="stroke:#181818;stroke-width:0.5;"/></g><g class="participant participant-head" data-participant="RedisChannels"><path d="M141.1855,76 L254.7021,76 C259.7021,76 259.7021,97.0986 259.7021,97.0986 C259.7021,97.0986 259.7021,118.1973 254.7021,118.1973 L141.1855,118.1973 C136.1855,118.1973 136.1855,97.0986 136.1855,97.0986 C136.1855,97.0986 136.1855,76 141.1855,76" fill="#E2E2F0" style="stroke:#181818;stroke-width:0.5;"/><path d="M254.7021,76 C249.7021,76 249.7021,97.0986 249.7021,97.0986 C249.7021,118.1973 254.7021,118.1973 254.7021,118.1973" fill="none" style="stroke:#181818;stroke-width:0.5;"/><text fill="#000000" font-family="Arial" font-size="14" lengthAdjust="spacing" textLength="93.3926" x="146.2476" y="94.1318">Redis Pub/Sub</text><text fill="#000000" font-family="Arial" font-size="14" lengthAdjust="spacing" textLength="103.5166" x="141.1855" y="110.2305">channel patterns</text></g><g class="participant participant-tail" data-participant="RedisChannels"><path d="M141.1855,753.7104 L254.7021,753.7104 C259.7021,753.7104 259.7021,774.8091 259.7021,774.8091 C259.7021,774.8091 259.7021,795.9077 254.7021,795.9077 L141.1855,795.9077 C136.1855,795.9077 136.1855,774.8091 136.1855,774.8091 C136.1855,774.8091 136.1855,753.7104 141.1855,753.7104" fill="#E2E2F0" style="stroke:#181818;stroke-width:0.5;"/><path d="M254.7021,753.7104 C249.7021,753.7104 249.7021,774.8091 249.7021,774.8091 C249.7021,795.9077 254.7021,795.9077 254.7021,795.9077" fill="none" style="stroke:#181818;stroke-width:0.5;"/><text fill="#000000" font-family="Arial" font-size="14" lengthAdjust="spacing" textLength="93.3926" x="146.2476" y="771.8423">Redis Pub/Sub</text><text fill="#000000" font-family="Arial" font-size="14" lengthAdjust="spacing" textLength="103.5166" x="141.1855" y="787.9409">channel patterns</text></g><g class="participant participant-head" data-participant="Subscriber"><rect fill="#E2E2F0" height="30.0986" rx="6" ry="6" style="stroke:#181818;stroke-width:0.5;" width="120.5996" x="269.7021" y="87.0986"/><text fill="#000000" font-family="Arial" font-size="14" lengthAdjust="spacing" textLength="106.5996" x="276.7021" y="107.2305">Redis Subscriber</text></g><g class="participant participant-tail" data-participant="Subscriber"><rect fill="#E2E2F0" height="30.0986" rx="6" ry="6" style="stroke:#181818;stroke-width:0.5;" width="120.5996" x="269.7021" y="753.7104"/><text fill="#000000" font-family="Arial" font-size="14" lengthAdjust="spacing" textLength="106.5996" x="276.7021" y="773.8423">Redis Subscriber</text></g><g class="participant participant-head" data-participant="WebSocketUC"><rect fill="#E2E2F0" height="30.0986" rx="6" ry="6" style="stroke:#181818;stroke-width:0.5;" width="147.0547" x="438.6626" y="87.0986"/><text fill="#000000" font-family="Arial" font-size="14" lengthAdjust="spacing" textLength="133.0547" x="445.6626" y="107.2305">WebSocket UseCase</text></g><g class="participant participant-tail" data-participant="WebSocketUC"><rect fill="#E2E2F0" height="30.0986" rx="6" ry="6" style="stroke:#181818;stroke-width:0.5;" width="147.0547" x="438.6626" y="753.7104"/><text fill="#000000" font-family="Arial" font-size="14" lengthAdjust="spacing" textLength="133.0547" x="445.6626" y="773.8423">WebSocket UseCase</text></g><g class="participant participant-head" data-participant="AlertUC"><rect fill="#E2E2F0" height="30.0986" rx="6" ry="6" style="stroke:#181818;stroke-width:0.5;" width="104.2549" x="611.126" y="87.0986"/><text fill="#000000" font-family="Arial" font-size="14" lengthAdjust="spacing" textLength="90.2549" x="618.126" y="107.2305">Alert UseCase</text></g><g class="participant participant-tail" data-participant="AlertUC"><rect fill="#E2E2F0" height="30.0986" rx="6" ry="6" style="stroke:#181818;stroke-width:0.5;" width="104.2549" x="611.126" y="753.7104"/><text fill="#000000" font-family="Arial" font-size="14" lengthAdjust="spacing" textLength="90.2549" x="618.126" y="773.8423">Alert UseCase</text></g><g class="participant participant-head" data-participant="Hub"><rect fill="#E2E2F0" height="30.0986" rx="6" ry="6" style="stroke:#181818;stroke-width:0.5;" width="39.6826" x="725.3809" y="87.0986"/><text fill="#000000" font-family="Arial" font-size="14" lengthAdjust="spacing" textLength="25.6826" x="732.3809" y="107.2305">Hub</text></g><g class="participant participant-tail" data-participant="Hub"><rect fill="#E2E2F0" height="30.0986" rx="6" ry="6" style="stroke:#181818;stroke-width:0.5;" width="39.6826" x="725.3809" y="753.7104"/><text fill="#000000" font-family="Arial" font-size="14" lengthAdjust="spacing" textLength="25.6826" x="732.3809" y="773.8423">Hub</text></g><g class="participant participant-head" data-participant="Connection"><rect fill="#E2E2F0" height="30.0986" rx="6" ry="6" style="stroke:#181818;stroke-width:0.5;" width="160.3027" x="775.0635" y="87.0986"/><text fill="#000000" font-family="Arial" font-size="14" lengthAdjust="spacing" textLength="146.3027" x="782.0635" y="107.2305">WebSocket Connection</text></g><g class="participant participant-tail" data-participant="Connection"><rect fill="#E2E2F0" height="30.0986" rx="6" ry="6" style="stroke:#181818;stroke-width:0.5;" width="160.3027" x="775.0635" y="753.7104"/><text fill="#000000" font-family="Arial" font-size="14" lengthAdjust="spacing" textLength="146.3027" x="782.0635" y="773.8423">WebSocket Connection</text></g><g class="participant participant-head" data-participant="Discord"><rect fill="#E2E2F0" height="30.0986" rx="6" ry="6" style="stroke:#181818;stroke-width:0.5;" width="61.4551" x="945.3662" y="87.0986"/><text fill="#000000" font-family="Arial" font-size="14" lengthAdjust="spacing" textLength="47.4551" x="952.3662" y="107.2305">Discord</text></g><g class="participant participant-tail" data-participant="Discord"><rect fill="#E2E2F0" height="30.0986" rx="6" ry="6" style="stroke:#181818;stroke-width:0.5;" width="61.4551" x="945.3662" y="753.7104"/><text fill="#000000" font-family="Arial" font-size="14" lengthAdjust="spacing" textLength="47.4551" x="952.3662" y="773.8423">Discord</text></g><g><title>Redis Subscriber</title><rect fill="#FFFFFF" height="513.7695" style="stroke:#181818;stroke-width:1;" width="10" x="325.002" y="222.9409"/></g><g><title>WebSocket UseCase</title><rect fill="#FFFFFF" height="469.8721" style="stroke:#181818;stroke-width:1;" width="10" x="507.1899" y="266.8384"/></g><g><title>Alert UseCase</title><rect fill="#FFFFFF" height="102.7437" style="stroke:#181818;stroke-width:1;" width="10" x="658.2534" y="451.377"/></g><g><title>Hub</title><rect fill="#FFFFFF" height="87.7949" style="stroke:#181818;stroke-width:1;" width="10" x="740.2222" y="619.9668"/></g><g class="message" data-participant-1="Publisher" data-participant-2="RedisChannels"><line style="stroke:#181818;stroke-width:1;" x1="195.9438" x2="185.9438" y1="179.0435" y2="175.0435"/><line style="stroke:#181818;stroke-width:1;" x1="195.9438" x2="185.9438" y1="179.0435" y2="183.0435"/><line style="stroke:#181818;stroke-width:1;" x1="65.5928" x2="196.9438" y1="179.0435" y2="179.0435"/><text fill="#000000" font-family="Arial" font-size="13" lengthAdjust="spacing" textLength="41.1963" x="111.1702" y="144.3911">publish</text><text fill="#000000" font-family="Arial" font-size="13" lengthAdjust="spacing" textLength="62.1499" x="100.6934" y="159.3398">notification</text><text fill="#000000" font-family="Arial" font-size="13" lengthAdjust="spacing" textLength="45.5381" x="108.9993" y="174.2886">payload</text></g><g class="message" data-participant-1="RedisChannels" data-participant-2="Subscriber"><line style="stroke:#181818;stroke-width:1;" x1="323.002" x2="313.002" y1="222.9409" y2="218.9409"/><line style="stroke:#181818;stroke-width:1;" x1="323.002" x2="313.002" y1="222.9409" y2="226.9409"/><line style="stroke:#181818;stroke-width:1;" x1="197.9438" x2="324.002" y1="222.9409" y2="222.9409"/><text fill="#000000" font-family="Arial" font-size="13" lengthAdjust="spacing" textLength="49.8608" x="236.5425" y="203.2373">matched</text><text fill="#000000" font-family="Arial" font-size="13" lengthAdjust="spacing" textLength="84.5381" x="219.2039" y="218.186">redis.Message</text></g><g class="message" data-participant-1="Subscriber" data-participant-2="WebSocketUC"><polygon fill="#181818" points="495.1899,262.8384,505.1899,266.8384,495.1899,270.8384,499.1899,266.8384" style="stroke:#181818;stroke-width:1;"/><line style="stroke:#181818;stroke-width:1;" x1="335.002" x2="501.1899" y1="266.8384" y2="266.8384"/><text fill="#000000" font-family="Arial" font-size="13" lengthAdjust="spacing" textLength="153.188" x="344.502" y="247.1348">ProcessMessage(channel,</text><text fill="#000000" font-family="Arial" font-size="13" lengthAdjust="spacing" textLength="49.8672" x="396.1624" y="262.0835">payload)</text></g><g class="message" data-participant-1="WebSocketUC" data-participant-2="WebSocketUC"><line style="stroke:#181818;stroke-width:1;" x1="517.1899" x2="559.1899" y1="355.582" y2="355.582"/><line style="stroke:#181818;stroke-width:1;" x1="559.1899" x2="559.1899" y1="355.582" y2="368.582"/><line style="stroke:#181818;stroke-width:1;" x1="518.1899" x2="559.1899" y1="368.582" y2="368.582"/><polygon fill="#181818" points="528.1899,364.582,518.1899,368.582,528.1899,372.582,524.1899,368.582" style="stroke:#181818;stroke-width:1;"/><text fill="#000000" font-family="Arial" font-size="13" lengthAdjust="spacing" textLength="80.9453" x="542.249" y="291.0322">parseChannel</text><text fill="#000000" font-family="Arial" font-size="13" lengthAdjust="spacing" textLength="7.5918" x="578.9258" y="305.981">+</text><text fill="#000000" font-family="Arial" font-size="13" lengthAdjust="spacing" textLength="117.0635" x="524.1899" y="320.9297">detectMessageType</text><text fill="#000000" font-family="Arial" font-size="13" lengthAdjust="spacing" textLength="54.9009" x="555.2712" y="335.8784">transform</text><text fill="#000000" font-family="Arial" font-size="13" lengthAdjust="spacing" textLength="45.5381" x="559.9526" y="350.8271">payload</text></g><path d="M434.6626,383.582 L493.8735,383.582 L493.8735,390.5308 L483.8735,400.5308 L428.6626,400.5308 L428.6626,389.582 A6,6 0 0 1 434.6626,383.582" fill="#EEEEEE" style="stroke:#000000;stroke-width:1.5;"/><rect fill="none" height="178.5386" rx="6" ry="6" style="stroke:#000000;stroke-width:1.5;" width="588.1587" x="428.6626" y="383.582"/><text fill="#000000" font-family="Arial" font-size="13" font-weight="bold" lengthAdjust="spacing" textLength="20.2109" x="443.6626" y="396.7759">opt</text><text fill="#000000" font-family="Arial" font-size="11" font-weight="bold" lengthAdjust="spacing" textLength="122.2676" x="508.8735" y="395.8999">[alert-eligible message]</text><g class="message" data-participant-1="WebSocketUC" data-participant-2="AlertUC"><polygon fill="#181818" points="646.2534,447.377,656.2534,451.377,646.2534,455.377,650.2534,451.377" style="stroke:#181818;stroke-width:1;"/><line style="stroke:#181818;stroke-width:1;" x1="517.1899" x2="652.2534" y1="451.377" y2="451.377"/><text fill="#000000" font-family="Arial" font-size="13" lengthAdjust="spacing" textLength="50.5781" x="562.4326" y="416.7246">Dispatch</text><text fill="#000000" font-family="Arial" font-size="13" lengthAdjust="spacing" textLength="25.2891" x="575.0771" y="431.6733">alert</text><text fill="#000000" font-family="Arial" font-size="13" lengthAdjust="spacing" textLength="45.5381" x="564.9526" y="446.6221">payload</text></g><g class="message" data-participant-1="AlertUC" data-participant-2="Discord"><line style="stroke:#181818;stroke-width:1;" x1="974.0938" x2="964.0938" y1="510.2231" y2="506.2231"/><line style="stroke:#181818;stroke-width:1;" x1="974.0938" x2="964.0938" y1="510.2231" y2="514.2231"/><line style="stroke:#181818;stroke-width:1;" x1="668.2534" x2="975.0938" y1="510.2231" y2="510.2231"/><text fill="#000000" font-family="Arial" font-size="13" lengthAdjust="spacing" textLength="28.1899" x="808.0786" y="475.5708">send</text><text fill="#000000" font-family="Arial" font-size="13" lengthAdjust="spacing" textLength="52.0381" x="796.1545" y="490.5195">webhook</text><text fill="#000000" font-family="Arial" font-size="13" lengthAdjust="spacing" textLength="52.749" x="795.7991" y="505.4683">message</text></g><g class="message" data-participant-1="AlertUC" data-participant-2="WebSocketUC"><polygon fill="#181818" points="528.1899,550.1206,518.1899,554.1206,528.1899,558.1206,524.1899,554.1206" style="stroke:#181818;stroke-width:1;"/><line style="stroke:#181818;stroke-width:1;stroke-dasharray:2,2;" x1="522.1899" x2="662.2534" y1="554.1206" y2="554.1206"/><text fill="#000000" font-family="Arial" font-size="13" lengthAdjust="spacing" textLength="58.5254" x="560.959" y="534.417">best-effort</text><text fill="#000000" font-family="Arial" font-size="13" lengthAdjust="spacing" textLength="31.7891" x="574.3271" y="549.3657">result</text></g><g class="message" data-participant-1="WebSocketUC" data-participant-2="Hub"><polygon fill="#181818" points="728.2222,615.9668,738.2222,619.9668,728.2222,623.9668,732.2222,619.9668" style="stroke:#181818;stroke-width:1;"/><line style="stroke:#181818;stroke-width:1;" x1="517.1899" x2="734.2222" y1="619.9668" y2="619.9668"/><text fill="#000000" font-family="Arial" font-size="13" lengthAdjust="spacing" textLength="92.4727" x="582.4697" y="585.3145">SendToUser(...)</text><text fill="#000000" font-family="Arial" font-size="13" lengthAdjust="spacing" textLength="11.5591" x="622.9265" y="600.2632">or</text><text fill="#000000" font-family="Arial" font-size="13" lengthAdjust="spacing" textLength="78.0254" x="589.6934" y="615.2119">Broadcast(...)</text></g><g class="message" data-participant-1="Hub" data-participant-2="Connection"><line style="stroke:#181818;stroke-width:1;" x1="853.2148" x2="843.2148" y1="678.813" y2="674.813"/><line style="stroke:#181818;stroke-width:1;" x1="853.2148" x2="843.2148" y1="678.813" y2="682.813"/><line style="stroke:#181818;stroke-width:1;" x1="750.2222" x2="854.2148" y1="678.813" y2="678.813"/><text fill="#000000" font-family="Arial" font-size="13" lengthAdjust="spacing" textLength="28.1899" x="788.6235" y="644.1606">push</text><text fill="#000000" font-family="Arial" font-size="13" lengthAdjust="spacing" textLength="62.1499" x="771.6436" y="659.1094">notification</text><text fill="#000000" font-family="Arial" font-size="13" lengthAdjust="spacing" textLength="34.6709" x="785.3831" y="674.0581">JSON</text></g><g class="message" data-participant-1="Hub" data-participant-2="WebSocketUC"><polygon fill="#181818" points="528.1899,703.7617,518.1899,707.7617,528.1899,711.7617,524.1899,707.7617" style="stroke:#181818;stroke-width:1;"/><line style="stroke:#181818;stroke-width:1;stroke-dasharray:2,2;" x1="522.1899" x2="744.2222" y1="707.7617" y2="707.7617"/><text fill="#000000" font-family="Arial" font-size="13" lengthAdjust="spacing" textLength="36.8608" x="612.7756" y="703.0068">routed</text></g><g class="message" data-participant-1="WebSocketUC" data-participant-2="Subscriber"><polygon fill="#181818" points="341.002,732.7104,331.002,736.7104,341.002,740.7104,337.002,736.7104" style="stroke:#181818;stroke-width:1;"/><line style="stroke:#181818;stroke-width:1;stroke-dasharray:2,2;" x1="335.002" x2="511.1899" y1="736.7104" y2="736.7104"/><text fill="#000000" font-family="Arial" font-size="13" lengthAdjust="spacing" textLength="13.73" x="414.231" y="731.9556">ok</text></g><!--SRC=[TLFBRjim4BphAnO-9MZjFYu5UZ1WEmYA0as3E44lkQoebKsO8bLo5TVz-YvbFIWRFTaYPsQ7ixkisH0y4HhM5G7Q0bQ6FCCT6Vr6_WJtnXspSD2sHeyL55HYO_ZUMNv0OQoyHfFSXpqMxgZj3aeqWT8R-jsGLVI3Gi0ThOpUML1acNo2yXHgPqEFMfEKNtdlZi2-IUKg_DDXjlelmPUFgOXhRA6Sj-JXq-SiGyNEmsoDwa3omhh9ZGvxyZF008_zLoR-6eBP4nMwFVwmRV9Ng_PeBHceaSMg3IsfnMpEDo6JggoLhj5oJnTgK5xdNP7nSmh-HVdMYIk6bq0R3DIYXzENpHH-xaqARKykOT-QlBsKt_-LspYnhbWxsoB7podXJWV9iMWntVyi6nA3-N8vZGA-zkc2TQnBhJ2AIdWdux38fk187vCHReMizbJ850XiqVKtja-_8LEQOaARBzF0HENHEoNKZdxJDV1zR-9s54o3JZMk92KK2RsRX7Uo1InfTGMUJpMzMlPeG-byDRmrSpK3nlxCPPbsEfTDgxed0LoKw_eefIJcEiPmfWvg08FhlkSmi6AGNNj48SGXFrA-T-wGL1p0Lw_BAOZ7KjnpN43PRu4NT5LGTBFBd6J6H64hLyzE1jFVB1QBMv1rMtknhJ1mUp9c7eSoagBdSUpQmRcSck_Rdmzdx9LbMN6c8ajCHjs9j_d5SBb32azRdnoFZ7y0]--></g></svg>