<svg xmlns="http://www.w3.org/2000/svg" xmlns:xlink="http://www.w3.org/1999/xlink" contentStyleType="text/css" data-diagram-type="SEQUENCE" height="1327px" preserveAspectRatio="none" style="width:961px;height:1327px;background:#FFFFFF;" version="1.1" viewBox="0 0 961 1327" width="961px" zoomAndPan="magnify"><title>Datasource and Target Management Flow</title><defs/><g><text fill="#000000" font-family="Arial" font-size="14" font-weight="bold" lengthAdjust="spacing" textLength="276.9443" x="343.2791" y="28.1318">Datasource and Target Management Flow</text><g><title>Datasource Handler</title><rect fill="#FFFFFF" height="1042.4443" style="stroke:#181818;stroke-width:1;" width="10" x="201.3716" y="193.9922"/></g><g><title>Datasource UseCase</title><rect fill="#FFFFFF" height="262.436" style="stroke:#181818;stroke-width:1;" width="10" x="426.1187" y="288.8384"/></g><g><title>Datasource UseCase</title><rect fill="#FFFFFF" height="437.0259" style="stroke:#181818;stroke-width:1;" width="10" x="426.1187" y="740.5132"/></g><g><title>Project Service Client</title><rect fill="#FFFFFF" height="43.8975" style="stroke:#181818;stroke-width:1;" width="10" x="590.9058" y="317.7871"/></g><g><title>Datasource Repository</title><rect fill="#FFFFFF" height="116.7437" style="stroke:#181818;stroke-width:1;" width="10" x="753.019" y="390.6333"/></g><g><title>Datasource Repository</title><rect fill="#FFFFFF" height="131.6924" style="stroke:#181818;stroke-width:1;" width="10" x="753.019" y="769.4619"/></g><g><title>Datasource Repository</title><rect fill="#FFFFFF" height="101.7949" style="stroke:#181818;stroke-width:1;" width="10" x="753.019" y="1031.8467"/></g><g><title>PostgreSQL</title><rect fill="#FFFFFF" height="43.8975" style="stroke:#181818;stroke-width:1;" width="10" x="898.3716" y="434.5308"/></g><g><title>PostgreSQL</title><rect fill="#FFFFFF" height="43.8975" style="stroke:#181818;stroke-width:1;" width="10" x="898.3716" y="828.3081"/></g><g><title>PostgreSQL</title><rect fill="#FFFFFF" height="28.9487" style="stroke:#181818;stroke-width:1;" width="10" x="898.3716" y="1075.7441"/></g><rect fill="none" height="1020.4443" rx="6" ry="6" style="stroke:#000000;stroke-width:1.5;" width="944.5024" x="10" y="208.9922"/><g><title>UI</title><rect fill="#000000" fill-opacity="0.00000" height="1128.2393" width="8" x="29.5" y="118.1973"/><line style="stroke:#181818;stroke-width:0.5;stroke-dasharray:5,5;" x1="33" x2="33" y1="118.1973" y2="1246.4365"/></g><g><title>Datasource Handler</title><rect fill="#000000" fill-opacity="0.00000" height="1128.2393" width="8" x="202.3716" y="118.1973"/><line style="stroke:#181818;stroke-width:0.5;stroke-dasharray:5,5;" x1="206.1167" x2="206.1167" y1="118.1973" y2="1246.4365"/></g><g><title>Datasource UseCase</title><rect fill="#000000" fill-opacity="0.00000" height="1128.2393" width="8" x="427.1187" y="118.1973"/><line style="stroke:#181818;stroke-width:0.5;stroke-dasharray:5,5;" x1="430.5879" x2="430.5879" y1="118.1973" y2="1246.4365"/></g><g><title>Project Service Client</title><rect fill="#000000" fill-opacity="0.00000" height="1128.2393" width="8" x="591.9058" y="118.1973"/><line style="stroke:#181818;stroke-width:0.5;stroke-dasharray:5,5;" x1="594.9922" x2="594.9922" y1="118.1973" y2="1246.4365"/></g><g><title>Datasource Repository</title><rect fill="#000000" fill-opacity="0.00000" height="1128.2393" width="8" x="754.019" y="118.1973"/><line style="stroke:#181818;stroke-width:0.5;stroke-dasharray:5,5;" x1="757.8193" x2="757.8193" y1="118.1973" y2="1246.4365"/></g><g><title>PostgreSQL</title><rect fill="#000000" fill-opacity="0.00000" height="1128.2393" width="8" x="899.3716" y="118.1973"/><line style="stroke:#181818;stroke-width:0.5;stroke-dasharray:5,5;" x1="903.2407" x2="903.2407" y1="118.1973" y2="1246.4365"/></g><g class="participant participant-head" data-participant="UI"><text fill="#000000" font-family="Arial" font-size="14" lengthAdjust="spacing" textLength="14" x="23.5" y="115.2305">UI</text><ellipse cx="33.5" cy="50.5986" fill="#E2E2F0" rx="8" ry="8" style="stroke:#181818;stroke-width:0.5;"/><path d="M33.5,58.5986 L33.5,85.5986 M20.5,66.5986 L46.5,66.5986 M33.5,85.5986 L20.5,100.5986 M33.5,85.5986 L46.5,100.5986" fill="none" style="stroke:#181818;stroke-width:0.5;"/></g><g class="participant participant-tail" data-participant="UI"><text fill="#000000" font-family="Arial" font-size="14" lengthAdjust="spacing" textLength="14" x="23.5" y="1258.5684">UI</text><ellipse cx="33.5" cy="1270.0352" fill="#E2E2F0" rx="8" ry="8" style="stroke:#181818;stroke-width:0.5;"/><path d="M33.5,1278.0352 L33.5,1305.0352 M20.5,1286.0352 L46.5,1286.0352 M33.5,1305.0352 L20.5,1320.0352 M33.5,1305.0352 L46.5,1320.0352" fill="none" style="stroke:#181818;stroke-width:0.5;"/></g><g class="participant participant-head" data-participant="Handler"><rect fill="#E2E2F0" height="30.0986" rx="6" ry="6" style="stroke:#181818;stroke-width:0.5;" width="138.5098" x="137.1167" y="87.0986"/><text fill="#000000" font-family="Arial" font-size="14" lengthAdjust="spacing" textLength="124.5098" x="144.1167" y="107.2305">Datasource Handler</text></g><g class="participant participant-tail" data-participant="Handler"><rect fill="#E2E2F0" height="30.0986" rx="6" ry="6" style="stroke:#181818;stroke-width:0.5;" width="138.5098" x="137.1167" y="1245.4365"/><text fill="#000000" font-family="Arial" font-size="14" lengthAdjust="spacing" textLength="124.5098" x="144.1167" y="1265.5684">Datasource Handler</text></g><g class="participant participant-head" data-participant="DatasourceUC"><rect fill="#E2E2F0" height="30.0986" rx="6" ry="6" style="stroke:#181818;stroke-width:0.5;" width="147.0615" x="357.5879" y="87.0986"/><text fill="#000000" font-family="Arial" font-size="14" lengthAdjust="spacing" textLength="133.0615" x="364.5879" y="107.2305">Datasource UseCase</text></g><g class="participant participant-tail" data-participant="DatasourceUC"><rect fill="#E2E2F0" height="30.0986" rx="6" ry="6" style="stroke:#181818;stroke-width:0.5;" width="147.0615" x="357.5879" y="1245.4365"/><text fill="#000000" font-family="Arial" font-size="14" lengthAdjust="spacing" textLength="133.0615" x="364.5879" y="1265.5684">Datasource UseCase</text></g><g class="participant participant-head" data-participant="ProjectClient"><rect fill="#E2E2F0" height="30.0986" rx="6" ry="6" style="stroke:#181818;stroke-width:0.5;" width="147.8271" x="521.9922" y="87.0986"/><text fill="#000000" font-family="Arial" font-size="14" lengthAdjust="spacing" textLength="133.8271" x="528.9922" y="107.2305">Project Service Client</text></g><g class="participant participant-tail" data-participant="ProjectClient"><rect fill="#E2E2F0" height="30.0986" rx="6" ry="6" style="stroke:#181818;stroke-width:0.5;" width="147.8271" x="521.9922" y="1245.4365"/><text fill="#000000" font-family="Arial" font-size="14" lengthAdjust="spacing" textLength="133.8271" x="528.9922" y="1265.5684">Project Service Client</text></g><g class="participant participant-head" data-participant="DatasourceRepo"><rect fill="#E2E2F0" height="30.0986" rx="6" ry="6" style="stroke:#181818;stroke-width:0.5;" width="156.3994" x="679.8193" y="87.0986"/><text fill="#000000" font-family="Arial" font-size="14" lengthAdjust="spacing" textLength="142.3994" x="686.8193" y="107.2305">Datasource Repository</text></g><g class="participant participant-tail" data-participant="DatasourceRepo"><rect fill="#E2E2F0" height="30.0986" rx="6" ry="6" style="stroke:#181818;stroke-width:0.5;" width="156.3994" x="679.8193" y="1245.4365"/><text fill="#000000" font-family="Arial" font-size="14" lengthAdjust="spacing" textLength="142.3994" x="686.8193" y="1265.5684">Datasource Repository</text></g><g class="participant participant-head" data-participant="PostgreSQL"><text fill="#000000" font-family="Arial" font-size="14" lengthAdjust="spacing" textLength="76.2617" x="862.2407" y="115.2305">PostgreSQL</text><path d="M885.3716,66.0986 C885.3716,56.0986 903.3716,56.0986 903.3716,56.0986 C903.3716,56.0986 921.3716,56.0986 921.3716,66.0986 L921.3716,92.0986 C921.3716,102.0986 903.3716,102.0986 903.3716,102.0986 C903.3716,102.0986 885.3716,102.0986 885.3716,92.0986 L885.3716,66.0986" fill="#E2E2F0" style="stroke:#181818;stroke-width:0.5;"/><path d="M885.3716,66.0986 C885.3716,76.0986 903.3716,76.0986 903.3716,76.0986 C903.3716,76.0986 921.3716,76.0986 921.3716,66.0986" fill="none" style="stroke:#181818;stroke-width:0.5;"/></g><g class="participant participant-tail" data-participant="PostgreSQL"><text fill="#000000" font-family="Arial" font-size="14" lengthAdjust="spacing" textLength="76.2617" x="862.2407" y="1258.5684">PostgreSQL</text><path d="M885.3716,1271.5352 C885.3716,1261.5352 903.3716,1261.5352 903.3716,1261.5352 C903.3716,1261.5352 921.3716,1261.5352 921.3716,1271.5352 L921.3716,1297.5352 C921.3716,1307.5352 903.3716,1307.5352 903.3716,1307.5352 C903.3716,1307.5352 885.3716,1307.5352 885.3716,1297.5352 L885.3716,1271.5352" fill="#E2E2F0" style="stroke:#181818;stroke-width:0.5;"/><path d="M885.3716,1271.5352 C885.3716,1281.5352 903.3716,1281.5352 903.3716,1281.5352 C903.3716,1281.5352 921.3716,1281.5352 921.3716,1271.5352" fill="none" style="stroke:#181818;stroke-width:0.5;"/></g><g><title>Datasource Handler</title><rect fill="#FFFFFF" height="1042.4443" style="stroke:#181818;stroke-width:1;" width="10" x="201.3716" y="193.9922"/></g><g><title>Datasource UseCase</title><rect fill="#FFFFFF" height="262.436" style="stroke:#181818;stroke-width:1;" width="10" x="426.1187" y="288.8384"/></g><g><title>Datasource UseCase</title><rect fill="#FFFFFF" height="437.0259" style="stroke:#181818;stroke-width:1;" width="10" x="426.1187" y="740.5132"/></g><g><title>Project Service Client</title><rect fill="#FFFFFF" height="43.8975" style="stroke:#181818;stroke-width:1;" width="10" x="590.9058" y="317.7871"/></g><g><title>Datasource Repository</title><rect fill="#FFFFFF" height="116.7437" style="stroke:#181818;stroke-width:1;" width="10" x="753.019" y="390.6333"/></g><g><title>Datasource Repository</title><rect fill="#FFFFFF" height="131.6924" style="stroke:#181818;stroke-width:1;" width="10" x="753.019" y="769.4619"/></g><g><title>Datasource Repository</title><rect fill="#FFFFFF" height="101.7949" style="stroke:#181818;stroke-width:1;" width="10" x="753.019" y="1031.8467"/></g><g><title>PostgreSQL</title><rect fill="#FFFFFF" height="43.8975" style="stroke:#181818;stroke-width:1;" width="10" x="898.3716" y="434.5308"/></g><g><title>PostgreSQL</title><rect fill="#FFFFFF" height="43.8975" style="stroke:#181818;stroke-width:1;" width="10" x="898.3716" y="828.3081"/></g><g><title>PostgreSQL</title><rect fill="#FFFFFF" height="28.9487" style="stroke:#181818;stroke-width:1;" width="10" x="898.3716" y="1075.7441"/></g><g class="message" data-participant-1="UI" data-participant-2="Handler"><polygon fill="#181818" points="189.3716,189.9922,199.3716,193.9922,189.3716,197.9922,193.3716,193.9922" style="stroke:#181818;stroke-width:1;"/><line style="stroke:#181818;stroke-width:1;" x1="33.5" x2="195.3716" y1="193.9922" y2="193.9922"/><text fill="#000000" font-family="Arial" font-size="13" lengthAdjust="spacing" textLength="35.3945" x="99.7385" y="144.3911">POST</text><text fill="#000000" font-family="Arial" font-size="13" lengthAdjust="spacing" textLength="74.4326" x="80.2195" y="159.3398">/datasources</text><text fill="#000000" font-family="Arial" font-size="13" lengthAdjust="spacing" textLength="11.5591" x="111.6563" y="174.2886">or</text><text fill="#000000" font-family="Arial" font-size="13" lengthAdjust="spacing" textLength="148.8716" x="43" y="189.2373">/datasources/{id}/targets/*</text></g><path d="M16,208.9922 L70.1709,208.9922 L70.1709,215.9409 L60.1709,225.9409 L10,225.9409 L10,214.9922 A6,6 0 0 1 16,208.9922" fill="#EEEEEE" style="stroke:#000000;stroke-width:1.5;"/><rect fill="none" height="1020.4443" rx="6" ry="6" style="stroke:#000000;stroke-width:1.5;" width="944.5024" x="10" y="208.9922"/><text fill="#000000" font-family="Arial" font-size="13" font-weight="bold" lengthAdjust="spacing" textLength="15.1709" x="25" y="222.186">alt</text><text fill="#000000" font-family="Arial" font-size="11" font-weight="bold" lengthAdjust="spacing" textLength="101.4868" x="85.1709" y="221.3101">[create datasource]</text><g class="message" data-participant-1="Handler" data-participant-2="Handler"><line style="stroke:#181818;stroke-width:1;" x1="211.3716" x2="253.3716" y1="246.8896" y2="246.8896"/><line style="stroke:#181818;stroke-width:1;" x1="253.3716" x2="253.3716" y1="246.8896" y2="259.8896"/><line style="stroke:#181818;stroke-width:1;" x1="212.3716" x2="253.3716" y1="259.8896" y2="259.8896"/><polygon fill="#181818" points="222.3716,255.8896,212.3716,259.8896,222.3716,263.8896,218.3716,259.8896" style="stroke:#181818;stroke-width:1;"/><text fill="#000000" font-family="Arial" font-size="13" lengthAdjust="spacing" textLength="117.0444" x="218.3716" y="242.1348">processCreateReq()</text></g><g class="message" data-participant-1="Handler" data-participant-2="DatasourceUC"><polygon fill="#181818" points="414.1187,284.8384,424.1187,288.8384,414.1187,292.8384,418.1187,288.8384" style="stroke:#181818;stroke-width:1;"/><line style="stroke:#181818;stroke-width:1;" x1="211.3716" x2="420.1187" y1="288.8384" y2="288.8384"/><text fill="#000000" font-family="Arial" font-size="13" lengthAdjust="spacing" textLength="75.8672" x="280.8115" y="284.0835">Create(input)</text></g><g class="message" data-participant-1="DatasourceUC" data-participant-2="ProjectClient"><polygon fill="#181818" points="578.9058,313.7871,588.9058,317.7871,578.9058,321.7871,582.9058,317.7871" style="stroke:#181818;stroke-width:1;"/><line style="stroke:#181818;stroke-width:1;" x1="436.1187" x2="584.9058" y1="317.7871" y2="317.7871"/><text fill="#000000" font-family="Arial" font-size="13" lengthAdjust="spacing" textLength="98.2617" x="464.3813" y="313.0322">Detail(project_id)</text></g><g class="message" data-participant-1="ProjectClient" data-participant-2="DatasourceUC"><polygon fill="#181818" points="447.1187,357.6846,437.1187,361.6846,447.1187,365.6846,443.1187,361.6846" style="stroke:#181818;stroke-width:1;"/><line style="stroke:#181818;stroke-width:1;stroke-dasharray:2,2;" x1="441.1187" x2="594.9058" y1="361.6846" y2="361.6846"/><text fill="#000000" font-family="Arial" font-size="13" lengthAdjust="spacing" textLength="39.019" x="496.5027" y="341.981">project</text><text fill="#000000" font-family="Arial" font-size="13" lengthAdjust="spacing" textLength="31.0781" x="500.4731" y="356.9297">detail</text></g><g class="message" data-participant-1="DatasourceUC" data-participant-2="DatasourceRepo"><polygon fill="#181818" points="741.019,386.6333,751.019,390.6333,741.019,394.6333,745.019,390.6333" style="stroke:#181818;stroke-width:1;"/><line style="stroke:#181818;stroke-width:1;" x1="436.1187" x2="747.019" y1="390.6333" y2="390.6333"/><text fill="#000000" font-family="Arial" font-size="13" lengthAdjust="spacing" textLength="158.2471" x="515.4453" y="385.8784">CreateDataSource(options)</text></g><g class="message" data-participant-1="DatasourceRepo" data-participant-2="PostgreSQL"><polygon fill="#181818" points="886.3716,430.5308,896.3716,434.5308,886.3716,438.5308,890.3716,434.5308" style="stroke:#181818;stroke-width:1;"/><line style="stroke:#181818;stroke-width:1;" x1="763.019" x2="892.3716" y1="434.5308" y2="434.5308"/><text fill="#000000" font-family="Arial" font-size="13" lengthAdjust="spacing" textLength="47.6709" x="806.8599" y="414.8271">INSERT</text><text fill="#000000" font-family="Arial" font-size="13" lengthAdjust="spacing" textLength="116.3525" x="772.519" y="429.7759">ingest.data_sources</text></g><g class="message" data-participant-1="PostgreSQL" data-participant-2="DatasourceRepo"><polygon fill="#181818" points="774.019,474.4282,764.019,478.4282,774.019,482.4282,770.019,478.4282" style="stroke:#181818;stroke-width:1;"/><line style="stroke:#181818;stroke-width:1;stroke-dasharray:2,2;" x1="768.019" x2="902.3716" y1="478.4282" y2="478.4282"/><text fill="#000000" font-family="Arial" font-size="13" lengthAdjust="spacing" textLength="64.3208" x="801.0349" y="458.7246">datasource</text><text fill="#000000" font-family="Arial" font-size="13" lengthAdjust="spacing" textLength="20.9473" x="822.7217" y="473.6733">row</text></g><g class="message" data-participant-1="DatasourceRepo" data-participant-2="DatasourceUC"><polygon fill="#181818" points="447.1187,503.377,437.1187,507.377,447.1187,511.377,443.1187,507.377" style="stroke:#181818;stroke-width:1;"/><line style="stroke:#181818;stroke-width:1;stroke-dasharray:2,2;" x1="441.1187" x2="757.019" y1="507.377" y2="507.377"/><text fill="#000000" font-family="Arial" font-size="13" lengthAdjust="spacing" textLength="64.3208" x="564.9084" y="502.6221">datasource</text></g><g class="message" data-participant-1="DatasourceUC" data-participant-2="Handler"><polygon fill="#181818" points="222.3716,547.2744,212.3716,551.2744,222.3716,555.2744,218.3716,551.2744" style="stroke:#181818;stroke-width:1;"/><line style="stroke:#181818;stroke-width:1;stroke-dasharray:2,2;" x1="216.3716" x2="430.1187" y1="551.2744" y2="551.2744"/><text fill="#000000" font-family="Arial" font-size="13" lengthAdjust="spacing" textLength="64.3208" x="289.0847" y="531.5708">datasource</text><text fill="#000000" font-family="Arial" font-size="13" lengthAdjust="spacing" textLength="36.1436" x="303.1733" y="546.5195">output</text></g><g class="message" data-participant-1="Handler" data-participant-2="UI"><polygon fill="#181818" points="44.5,591.1719,34.5,595.1719,44.5,599.1719,40.5,595.1719" style="stroke:#181818;stroke-width:1;"/><line style="stroke:#181818;stroke-width:1;stroke-dasharray:2,2;" x1="38.5" x2="200.3716" y1="595.1719" y2="595.1719"/><text fill="#000000" font-family="Arial" font-size="13" lengthAdjust="spacing" textLength="21.6899" x="89.7917" y="575.4683">200</text><text fill="#000000" font-family="Arial" font-size="13" lengthAdjust="spacing" textLength="3.6118" x="111.4817" y="575.4683">&#160;</text><text fill="#000000" font-family="Arial" font-size="13" lengthAdjust="spacing" textLength="18.7827" x="115.0935" y="575.4683">OK</text><text fill="#000000" font-family="Arial" font-size="13" lengthAdjust="spacing" textLength="3.6118" x="133.8762" y="575.4683">&#160;</text><text fill="#000000" font-family="Arial" font-size="13" lengthAdjust="spacing" textLength="7.5918" x="137.488" y="575.4683">+</text><text fill="#000000" font-family="Arial" font-size="13" lengthAdjust="spacing" textLength="64.3208" x="85.2754" y="590.417">datasource</text></g><line style="stroke:#000000;stroke-width:1;stroke-dasharray:2,2;" x1="10" x2="954.5024" y1="604.1719" y2="604.1719"/><text fill="#000000" font-family="Arial" font-size="11" font-weight="bold" lengthAdjust="spacing" textLength="120.4092" x="15" y="614.4897">[create grouped target]</text><g class="message" data-participant-1="Handler" data-participant-2="Handler"><line style="stroke:#181818;stroke-width:1;" x1="211.3716" x2="253.3716" y1="638.7695" y2="638.7695"/><line style="stroke:#181818;stroke-width:1;" x1="253.3716" x2="253.3716" y1="638.7695" y2="651.7695"/><line style="stroke:#181818;stroke-width:1;" x1="212.3716" x2="253.3716" y1="651.7695" y2="651.7695"/><polygon fill="#181818" points="222.3716,647.7695,212.3716,651.7695,222.3716,655.7695,218.3716,651.7695" style="stroke:#181818;stroke-width:1;"/><text fill="#000000" font-family="Arial" font-size="13" lengthAdjust="spacing" textLength="190.7471" x="218.3716" y="634.0146">processCreateTargetGroupReq()</text></g><g class="message" data-participant-1="Handler" data-participant-2="DatasourceUC"><polygon fill="#181818" points="414.1187,736.5132,424.1187,740.5132,414.1187,744.5132,418.1187,740.5132" style="stroke:#181818;stroke-width:1;"/><line style="stroke:#181818;stroke-width:1;" x1="211.3716" x2="420.1187" y1="740.5132" y2="740.5132"/><text fill="#000000" font-family="Arial" font-size="13" lengthAdjust="spacing" textLength="127.1689" x="255.1606" y="675.9634">CreateKeywordTarget</text><text fill="#000000" font-family="Arial" font-size="13" lengthAdjust="spacing" textLength="3.6118" x="316.9392" y="690.9121">/</text><text fill="#000000" font-family="Arial" font-size="13" lengthAdjust="spacing" textLength="113.439" x="262.0256" y="705.8608">CreateProfileTarget</text><text fill="#000000" font-family="Arial" font-size="13" lengthAdjust="spacing" textLength="3.6118" x="316.9392" y="720.8096">/</text><text fill="#000000" font-family="Arial" font-size="13" lengthAdjust="spacing" textLength="102.6035" x="267.4434" y="735.7583">CreatePostTarget</text></g><g class="message" data-participant-1="DatasourceUC" data-participant-2="DatasourceRepo"><polygon fill="#181818" points="741.019,765.4619,751.019,769.4619,741.019,773.4619,745.019,769.4619" style="stroke:#181818;stroke-width:1;"/><line style="stroke:#181818;stroke-width:1;" x1="436.1187" x2="747.019" y1="769.4619" y2="769.4619"/><text fill="#000000" font-family="Arial" font-size="13" lengthAdjust="spacing" textLength="199.4434" x="494.8472" y="764.707">DetailDataSource(data_source_id)</text></g><g class="message" data-participant-1="DatasourceRepo" data-participant-2="PostgreSQL"><polygon fill="#181818" points="886.3716,824.3081,896.3716,828.3081,886.3716,832.3081,890.3716,828.3081" style="stroke:#181818;stroke-width:1;"/><line style="stroke:#181818;stroke-width:1;" x1="763.019" x2="892.3716" y1="828.3081" y2="828.3081"/><text fill="#000000" font-family="Arial" font-size="13" lengthAdjust="spacing" textLength="50.5718" x="805.4094" y="793.6558">SELECT</text><text fill="#000000" font-family="Arial" font-size="13" lengthAdjust="spacing" textLength="116.3525" x="772.519" y="808.6045">ingest.data_sources</text><text fill="#000000" font-family="Arial" font-size="13" lengthAdjust="spacing" textLength="20.9473" x="820.2217" y="823.5532">row</text></g><g class="message" data-participant-1="PostgreSQL" data-participant-2="DatasourceRepo"><polygon fill="#181818" points="774.019,868.2056,764.019,872.2056,774.019,876.2056,770.019,872.2056" style="stroke:#181818;stroke-width:1;"/><line style="stroke:#181818;stroke-width:1;stroke-dasharray:2,2;" x1="768.019" x2="902.3716" y1="872.2056" y2="872.2056"/><text fill="#000000" font-family="Arial" font-size="13" lengthAdjust="spacing" textLength="64.3208" x="801.0349" y="852.502">datasource</text><text fill="#000000" font-family="Arial" font-size="13" lengthAdjust="spacing" textLength="20.9473" x="822.7217" y="867.4507">row</text></g><g class="message" data-participant-1="DatasourceRepo" data-participant-2="DatasourceUC"><polygon fill="#181818" points="447.1187,897.1543,437.1187,901.1543,447.1187,905.1543,443.1187,901.1543" style="stroke:#181818;stroke-width:1;"/><line style="stroke:#181818;stroke-width:1;stroke-dasharray:2,2;" x1="441.1187" x2="757.019" y1="901.1543" y2="901.1543"/><text fill="#000000" font-family="Arial" font-size="13" lengthAdjust="spacing" textLength="64.3208" x="564.9084" y="896.3994">datasource</text></g><g class="message" data-participant-1="DatasourceUC" data-participant-2="DatasourceUC"><line style="stroke:#181818;stroke-width:1;" x1="436.1187" x2="478.1187" y1="989.8979" y2="989.8979"/><line style="stroke:#181818;stroke-width:1;" x1="478.1187" x2="478.1187" y1="989.8979" y2="1002.8979"/><line style="stroke:#181818;stroke-width:1;" x1="437.1187" x2="478.1187" y1="1002.8979" y2="1002.8979"/><polygon fill="#181818" points="447.1187,998.8979,437.1187,1002.8979,447.1187,1006.8979,443.1187,1002.8979" style="stroke:#181818;stroke-width:1;"/><text fill="#000000" font-family="Arial" font-size="13" lengthAdjust="spacing" textLength="130.7871" x="443.1187" y="925.3481">prepareTargetValues()</text><text fill="#000000" font-family="Arial" font-size="13" lengthAdjust="spacing" textLength="21.6899" x="497.6672" y="940.2969">and</text><text fill="#000000" font-family="Arial" font-size="13" lengthAdjust="spacing" textLength="44.8081" x="486.1082" y="955.2456">validate</text><text fill="#000000" font-family="Arial" font-size="13" lengthAdjust="spacing" textLength="39.019" x="489.0027" y="970.1943">source</text><text fill="#000000" font-family="Arial" font-size="13" lengthAdjust="spacing" textLength="28.1772" x="494.4236" y="985.1431">rules</text></g><g class="message" data-participant-1="DatasourceUC" data-participant-2="DatasourceRepo"><polygon fill="#181818" points="741.019,1027.8467,751.019,1031.8467,741.019,1035.8467,745.019,1031.8467" style="stroke:#181818;stroke-width:1;"/><line style="stroke:#181818;stroke-width:1;" x1="436.1187" x2="747.019" y1="1031.8467" y2="1031.8467"/><text fill="#000000" font-family="Arial" font-size="13" lengthAdjust="spacing" textLength="127.1689" x="530.9844" y="1027.0918">CreateTarget(options)</text></g><g class="message" data-participant-1="DatasourceRepo" data-participant-2="PostgreSQL"><polygon fill="#181818" points="886.3716,1071.7441,896.3716,1075.7441,886.3716,1079.7441,890.3716,1075.7441" style="stroke:#181818;stroke-width:1;"/><line style="stroke:#181818;stroke-width:1;" x1="763.019" x2="892.3716" y1="1075.7441" y2="1075.7441"/><text fill="#000000" font-family="Arial" font-size="13" lengthAdjust="spacing" textLength="47.6709" x="806.8599" y="1056.0405">INSERT</text><text fill="#000000" font-family="Arial" font-size="13" lengthAdjust="spacing" textLength="115.6099" x="772.8904" y="1070.9893">ingest.crawl_targets</text></g><g class="message" data-participant-1="PostgreSQL" data-participant-2="DatasourceRepo"><polygon fill="#181818" points="774.019,1100.6929,764.019,1104.6929,774.019,1108.6929,770.019,1104.6929" style="stroke:#181818;stroke-width:1;"/><line style="stroke:#181818;stroke-width:1;stroke-dasharray:2,2;" x1="768.019" x2="902.3716" y1="1104.6929" y2="1104.6929"/><text fill="#000000" font-family="Arial" font-size="13" lengthAdjust="spacing" textLength="33.2427" x="804.2944" y="1099.938">target</text><text fill="#000000" font-family="Arial" font-size="13" lengthAdjust="spacing" textLength="3.6118" x="837.5371" y="1099.938">&#160;</text><text fill="#000000" font-family="Arial" font-size="13" lengthAdjust="spacing" textLength="20.9473" x="841.1489" y="1099.938">row</text></g><g class="message" data-participant-1="DatasourceRepo" data-participant-2="DatasourceUC"><polygon fill="#181818" points="447.1187,1129.6416,437.1187,1133.6416,447.1187,1137.6416,443.1187,1133.6416" style="stroke:#181818;stroke-width:1;"/><line style="stroke:#181818;stroke-width:1;stroke-dasharray:2,2;" x1="441.1187" x2="757.019" y1="1133.6416" y2="1133.6416"/><text fill="#000000" font-family="Arial" font-size="13" lengthAdjust="spacing" textLength="33.2427" x="580.4475" y="1128.8867">target</text></g><g class="message" data-participant-1="DatasourceUC" data-participant-2="Handler"><polygon fill="#181818" points="222.3716,1173.5391,212.3716,1177.5391,222.3716,1181.5391,218.3716,1177.5391" style="stroke:#181818;stroke-width:1;"/><line style="stroke:#181818;stroke-width:1;stroke-dasharray:2,2;" x1="216.3716" x2="430.1187" y1="1177.5391" y2="1177.5391"/><text fill="#000000" font-family="Arial" font-size="13" lengthAdjust="spacing" textLength="33.2427" x="304.6238" y="1157.8354">target</text><text fill="#000000" font-family="Arial" font-size="13" lengthAdjust="spacing" textLength="36.1436" x="303.1733" y="1172.7842">output</text></g><g class="message" data-participant-1="Handler" data-participant-2="UI"><polygon fill="#181818" points="44.5,1217.4365,34.5,1221.4365,44.5,1225.4365,40.5,1221.4365" style="stroke:#181818;stroke-width:1;"/><line style="stroke:#181818;stroke-width:1;stroke-dasharray:2,2;" x1="38.5" x2="200.3716" y1="1221.4365" y2="1221.4365"/><text fill="#000000" font-family="Arial" font-size="13" lengthAdjust="spacing" textLength="21.6899" x="89.7917" y="1201.7329">200</text><text fill="#000000" font-family="Arial" font-size="13" lengthAdjust="spacing" textLength="3.6118" x="111.4817" y="1201.7329">&#160;</text><text fill="#000000" font-family="Arial" font-size="13" lengthAdjust="spacing" textLength="18.7827" x="115.0935" y="1201.7329">OK</text><text fill="#000000" font-family="Arial" font-size="13" lengthAdjust="spacing" textLength="3.6118" x="133.8762" y="1201.7329">&#160;</text><text fill="#000000" font-family="Arial" font-size="13" lengthAdjust="spacing" textLength="7.5918" x="137.488" y="1201.7329">+</text><text fill="#000000" font-family="Arial" font-size="13" lengthAdjust="spacing" textLength="33.2427" x="100.8145" y="1216.6816">target</text></g><!--SRC=[rLLDazCm3BtdLsZsr8KfBNjXPW_Cb6uNElj9qtBjc5WD1jVEsaxBml3VKH8tTTAMARl3WLiZIq_IqvFgX9C85ymngtEJ8335OSfCYWvkc68fBb4vk9Hw7TblGcNCi2LmNB1Skakjt2rR8WoCO39ujryOrskXKbWmQJ5ymOSSLO8tQ2s13wH85IIK0atWPT1cMjcDrpkaz0DZz1gSoKEu9VlkVMBn0-5DFmJHkUA9DWeDl3wB8fOuRU1aDZu1Pc4sZiZDYKHaZ1ey2IZuG1n8DAMR_ttGTsPno2oMlblpRDWCk3VwAoOEOZGhGL53AQZbCiW_LPQ3QIQOQIke_iTMfk8XulJvcQgWHDgwr63yyRe2hp-ZQ3Q6xjjDFt0EztVn57gyHh90x8JVlP-2_-gvKWkszwBWJwoOg_aXHgM3n61XsyP5K2TfvCkC9b0xBFqd-D0vRNg6x95xvTUXOUQkyAopDrY6PXZ1DFWad0jqJCXELfddWZV0ckn3AxgxMvR7eGqeO2c2uq6mTcdDgTKz5kQuD7TqvWJf_a2_vQoX3LFqN8-PGCUtyMWo1Le-jEvLCPUv7sYZyQqo88plxgjpErnQgdMhwH2eNTekVmsT131_wB8Whw6ae1oTEzB78QXI8BN428Dsu1pE-dsukuANOIr8LseZvPGEHuOSAkKV9UVgOBul0ezLzXK-hhNX_jJsl9Kaj10IsrRYUBgfvjX5s9bYjGc1sW9jjFVYRqKNZwv7mxsYyuhvNuMtvm0W7Ma_eKzCvcWxf-M_vef9mGl8JSMvB7Vko3DG8Vw34v0OjfPpVyUVF8eg_jbZg9VgYRllotZMtliQKF4e2k9zm6y0]--></g></svg>