<svg xmlns="http://www.w3.org/2000/svg" xmlns:xlink="http://www.w3.org/1999/xlink" contentStyleType="text/css" data-diagram-type="SEQUENCE" height="798px" preserveAspectRatio="none" style="width:1022px;height:798px;background:#FFFFFF;" version="1.1" viewBox="0 0 1022 798" width="1022px" zoomAndPan="magnify"><defs/><g><g><title>Redis Subscriber</title><rect fill="#FFFFFF" height="513.7695" style="stroke:#181818;stroke-width:1;" width="10" x="325.002" y="185.8423"/></g><g><title>WebSocket UseCase</title><rect fill="#FFFFFF" height="469.8721" style="stroke:#181818;stroke-width:1;" width="10" x="507.1899" y="229.7397"/></g><g><title>Alert UseCase</title><rect fill="#FFFFFF" height="102.7437" style="stroke:#181818;stroke-width:1;" width="10" x="658.2534" y="414.2783"/></g><g><title>Hub</title><rect fill="#FFFFFF" height="87.7949" style="stroke:#181818;stroke-width:1;" width="10" x="740.2222" y="582.8682"/></g><rect fill="none" height="178.5386" rx="6" ry="6" style="stroke:#000000;stroke-width:1.5;" width="588.1587" x="428.6626" y="346.4834"/><g><title>Backend publisher</title><rect fill="#000000" fill-opacity="0.00000" height="636.5132" width="8" x="61.5928" y="81.0986"/><line style="stroke:#181818;stroke-width:0.5;stroke-dasharray:5,5;" x1="65" x2="65" y1="81.0986" y2="717.6118"/></g><g><title>Redis Pub.Sub</title><rect fill="#000000" fill-opacity="0.00000" height="636.5132" width="8" x="193.9438" y="81.0986"/><line style="stroke:#181818;stroke-width:0.5;stroke-dasharray:5,5;" x1="197.1855" x2="197.1855" y1="81.0986" y2="717.6118"/></g><g><title>Redis Subscriber</title><rect fill="#000000" fill-opacity="0.00000" height="636.5132" width="8" x="326.002" y="81.0986"/><line style="stroke:#181818;stroke-width:0.5;stroke-dasharray:5,5;" x1="329.7021" x2="329.7021" y1="81.0986" y2="717.6118"/></g><g><title>WebSocket UseCase</title><rect fill="#000000" fill-opacity="0.00000" height="636.5132" width="8" x="508.1899" y="81.0986"/><line style="stroke:#181818;stroke-width:0.5;stroke-dasharray:5,5;" x1="511.6626" x2="511.6626" y1="81.0986" y2="717.6118"/></g><g><title>Alert UseCase</title><rect fill="#000000" fill-opacity="0.00000" height="636.5132" width="8" x="659.2534" y="81.0986"/><line style="stroke:#181818;stroke-width:0.5;stroke-dasharray:5,5;" x1="663.126" x2="663.126" y1="81.0986" y2="717.6118"/></g><g><title>Hub</title><rect fill="#000000" fill-opacity="0.00000" height="636.5132" width="8" x="741.2222" y="81.0986"/><line style="stroke:#181818;stroke-width:0.5;stroke-dasharray:5,5;" x1="744.3809" x2="744.3809" y1="81.0986" y2="717.6118"/></g><g><title>WebSocket Connection</title><rect fill="#000000" fill-opacity="0.00000" height="636.5132" width="8" x="851.2148" y="81.0986"/><line style="stroke:#181818;stroke-width:0.5;stroke-dasharray:5,5;" x1="855.0635" x2="855.0635" y1="81.0986" y2="717.6118"/></g><g><title>Discord</title><rect fill="#000000" fill-opacity="0.00000" height="636.5132" width="8" x="972.0938" y="81.0986"/><line style="stroke:#181818;stroke-width:0.5;stroke-dasharray:5,5;" x1="975.3662" x2="975.3662" y1="81.0986" y2="717.6118"/></g><g class="participant participant-head" data-participant="Publisher"><text fill="#000000" font-family="Arial" font-size="14" lengthAdjust="spacing" textLength="115.1855" x="5" y="78.1318">Backend publisher</text><ellipse cx="65.5928" cy="13.5" fill="#E2E2F0" rx="8" ry="8" style="stroke:#181818;stroke-width:0.5;"/><path d="M65.5928,21.5 L65.5928,48.5 M52.5928,29.5 L78.5928,29.5 M65.5928,48.5 L52.5928,63.5 M65.5928,48.5 L78.5928,63.5" fill="none" style="stroke:#181818;stroke-width:0.5;"/></g><g class="participant participant-tail" data-participant="Publisher"><text fill="#000000" font-family="Arial" font-size="14" lengthAdjust="spacing" textLength="115.1855" x="5" y="729.7437">Backend publisher</text><ellipse cx="65.5928" cy="741.2104" fill="#E2E2F0" rx="8" ry="8" style="stroke:#181818;stroke-width:0.5;"/><path d="M65.5928,749.2104 L65.5928,776.2104 M52.5928,757.2104 L78.5928,757.2104 M65.5928,776.2104 L52.5928,791.2104 M65.5928,776.2104 L78.5928,791.2104" fill="none" style="stroke:#181818;stroke-width:0.5;"/></g><g class="participant participant-head" data-participant="RedisChannels"><path d="M141.1855,38.9014 L254.7021,38.9014 C259.7021,38.9014 259.7021,60 259.7021,60 C259.7021,60 259.7021,81.0986 254.7021,81.0986 L141.1855,81.0986 C136.1855,81.0986 136.1855,60 136.1855,60 C136.1855,60 136.1855,38.9014 141.1855,38.9014" fill="#E2E2F0" style="stroke:#181818;stroke-width:0.5;"/><path d="M254.7021,38.9014 C249.7021,38.9014 249.7021,60 249.7021,60 C249.7021,81.0986 254.7021,81.0986 254.7021,81.0986" fill="none" style="stroke:#181818;stroke-width:0.5;"/><text fill="#000000" font-family="Arial" font-size="14" lengthAdjust="spacing" textLength="93.3926" x="146.2476" y="57.0332">Redis Pub/Sub</text><text fill="#000000" font-family="Arial" font-size="14" lengthAdjust="spacing" textLength="103.5166" x="141.1855" y="73.1318">channel patterns</text></g><g class="participant participant-tail" data-participant="RedisChannels"><path d="M141.1855,716.6118 L254.7021,716.6118 C259.7021,716.6118 259.7021,737.7104 259.7021,737.7104 C259.7021,737.7104 259.7021,758.8091 254.7021,758.8091 L141.1855,758.8091 C136.1855,758.8091 136.1855,737.7104 136.1855,737.7104 C136.1855,737.7104 136.1855,716.6118 141.1855,716.6118" fill="#E2E2F0" style="stroke:#181818;stroke-width:0.5;"/><path d="M254.7021,716.6118 C249.7021,716.6118 249.7021,737.7104 249.7021,737.7104 C249.7021,758.8091 254.7021,758.8091 254.7021,758.8091" fill="none" style="stroke:#181818;stroke-width:0.5;"/><text fill="#000000" font-family="Arial" font-size="14" lengthAdjust="spacing" textLength="93.3926" x="146.2476" y="734.7437">Redis Pub/Sub</text><text fill="#000000" font-family="Arial" font-size="14" lengthAdjust="spacing" textLength="103.5166" x="141.1855" y="750.8423">channel patterns</text></g><g class="participant participant-head" data-participant="Subscriber"><rect fill="#E2E2F0" height="30.0986" rx="6" ry="6" style="stroke:#181818;stroke-width:0.5;" width="120.5996" x="269.7021" y="50"/><text fill="#000000" font-family="Arial" font-size="14" lengthAdjust="spacing" textLength="106.5996" x="276.7021" y="70.1318">Redis Subscriber</text></g><g class="participant participant-tail" data-participant="Subscriber"><rect fill="#E2E2F0" height="30.0986" rx="6" ry="6" style="stroke:#181818;stroke-width:0.5;" width="120.5996" x="269.7021" y="716.6118"/><text fill="#000000" font-family="Arial" font-size="14" lengthAdjust="spacing" textLength="106.5996" x="276.7021" y="736.7437">Redis Subscriber</text></g><g class="participant participant-head" data-participant="WebSocketUC"><rect fill="#E2E2F0" height="30.0986" rx="6" ry="6" style="stroke:#181818;stroke-width:0.5;" width="147.0547" x="438.6626" y="50"/><text fill="#000000" font-family="Arial" font-size="14" lengthAdjust="spacing" textLength="133.0547" x="445.6626" y="70.1318">WebSocket UseCase</text></g><g class="participant participant-tail" data-participant="WebSocketUC"><rect fill="#E2E2F0" height="30.0986" rx="6" ry="6" style="stroke:#181818;stroke-width:0.5;" width="147.0547" x="438.6626" y="716.6118"/><text fill="#000000" font-family="Arial" font-size="14" lengthAdjust="spacing" textLength="133.0547" x="445.6626" y="736.7437">WebSocket UseCase</text></g><g class="participant participant-head" data-participant="AlertUC"><rect fill="#E2E2F0" height="30.0986" rx="6" ry="6" style="stroke:#181818;stroke-width:0.5;" width="104.2549" x="611.126" y="50"/><text fill="#000000" font-family="Arial" font-size="14" lengthAdjust="spacing" textLength="90.2549" x="618.126" y="70.1318">Alert UseCase</text></g><g class="participant participant-tail" data-participant="AlertUC"><rect fill="#E2E2F0" height="30.0986" rx="6" ry="6" style="stroke:#181818;stroke-width:0.5;" width="104.2549" x="611.126" y="716.6118"/><text fill="#000000" font-family="Arial" font-size="14" lengthAdjust="spacing" textLength="90.2549" x="618.126" y="736.7437">Alert UseCase</text></g><g class="participant participant-head" data-participant="Hub"><rect fill="#E2E2F0" height="30.0986" rx="6" ry="6" style="stroke:#181818;stroke-width:0.5;" width="39.6826" x="725.3809" y="50"/><text fill="#000000" font-family="Arial" font-size="14" lengthAdjust="spacing" textLength="25.6826" x="732.3809" y="70.1318">Hub</text></g><g class="participant participant-tail" data-participant="Hub"><rect fill="#E2E2F0" height="30.0986" rx="6" ry="6" style="stroke:#181818;stroke-width:0.5;" width="39.6826" x="725.3809" y="716.6118"/><text fill="#000000" font-family="Arial" font-size="14" lengthAdjust="spacing" textLength="25.6826" x="732.3809" y="736.7437">Hub</text></g><g class="participant participant-head" data-participant="Connection"><rect fill="#E2E2F0" height="30.0986" rx="6" ry="6" style="stroke:#181818;stroke-width:0.5;" width="160.3027" x="775.0635" y="50"/><text fill="#000000" font-family="Arial" font-size="14" lengthAdjust="spacing" textLength="146.3027" x="782.0635" y="70.1318">WebSocket Connection</text></g><g class="participant participant-tail" data-participant="Connection"><rect fill="#E2E2F0" height="30.0986" rx="6" ry="6" style="stroke:#181818;stroke-width:0.5;" width="160.3027" x="775.0635" y="716.6118"/><text fill="#000000" font-family="Arial" font-size="14" lengthAdjust="spacing" textLength="146.3027" x="782.0635" y="736.7437">WebSocket Connection</text></g><g class="participant participant-head" data-participant="Discord"><rect fill="#E2E2F0" height="30.0986" rx="6" ry="6" style="stroke:#181818;stroke-width:0.5;" width="61.4551" x="945.3662" y="50"/><text fill="#000000" font-family="Arial" font-size="14" lengthAdjust="spacing" textLength="47.4551" x="952.3662" y="70.1318">Discord</text></g><g class="participant participant-tail" data-participant="Discord"><rect fill="#E2E2F0" height="30.0986" rx="6" ry="6" style="stroke:#181818;stroke-width:0.5;" width="61.4551" x="945.3662" y="716.6118"/><text fill="#000000" font-family="Arial" font-size="14" lengthAdjust="spacing" textLength="47.4551" x="952.3662" y="736.7437">Discord</text></g><g><title>Redis Subscriber</title><rect fill="#FFFFFF" height="513.7695" style="stroke:#181818;stroke-width:1;" width="10" x="325.002" y="185.8423"/></g><g><title>WebSocket UseCase</title><rect fill="#FFFFFF" height="469.8721" style="stroke:#181818;stroke-width:1;" width="10" x="507.1899" y="229.7397"/></g><g><title>Alert UseCase</title><rect fill="#FFFFFF" height="102.7437" style="stroke:#181818;stroke-width:1;" width="10" x="658.2534" y="414.2783"/></g><g><title>Hub</title><rect fill="#FFFFFF" height="87.7949" style="stroke:#181818;stroke-width:1;" width="10" x="740.2222" y="582.8682"/></g><g class="message" data-participant-1="Publisher" data-participant-2="RedisChannels"><line style="stroke:#181818;stroke-width:1;" x1="195.9438" x2="185.9438" y1="141.9448" y2="137.9448"/><line style="stroke:#181818;stroke-width:1;" x1="195.9438" x2="185.9438" y1="141.9448" y2="145.9448"/><line style="stroke:#181818;stroke-width:1;" x1="65.5928" x2="196.9438" y1="141.9448" y2="141.9448"/><text fill="#000000" font-family="Arial" font-size="13" lengthAdjust="spacing" textLength="41.1963" x="111.1702" y="107.2925">publish</text><text fill="#000000" font-family="Arial" font-size="13" lengthAdjust="spacing" textLength="62.1499" x="100.6934" y="122.2412">notification</text><text fill="#000000" font-family="Arial" font-size="13" lengthAdjust="spacing" textLength="45.5381" x="108.9993" y="137.1899">payload</text></g><g class="message" data-participant-1="RedisChannels" data-participant-2="Subscriber"><line style="stroke:#181818;stroke-width:1;" x1="323.002" x2="313.002" y1="185.8423" y2="181.8423"/><line style="stroke:#181818;stroke-width:1;" x1="323.002" x2="313.002" y1="185.8423" y2="189.8423"/><line style="stroke:#181818;stroke-width:1;" x1="197.9438" x2="324.002" y1="185.8423" y2="185.8423"/><text fill="#000000" font-family="Arial" font-size="13" lengthAdjust="spacing" textLength="49.8608" x="236.5425" y="166.1387">matched</text><text fill="#000000" font-family="Arial" font-size="13" lengthAdjust="spacing" textLength="84.5381" x="219.2039" y="181.0874">redis.Message</text></g><g class="message" data-participant-1="Subscriber" data-participant-2="WebSocketUC"><polygon fill="#181818" points="495.1899,225.7397,505.1899,229.7397,495.1899,233.7397,499.1899,229.7397" style="stroke:#181818;stroke-width:1;"/><line style="stroke:#181818;stroke-width:1;" x1="335.002" x2="501.1899" y1="229.7397" y2="229.7397"/><text fill="#000000" font-family="Arial" font-size="13" lengthAdjust="spacing" textLength="153.188" x="344.502" y="210.0361">ProcessMessage(channel,</text><text fill="#000000" font-family="Arial" font-size="13" lengthAdjust="spacing" textLength="49.8672" x="396.1624" y="224.9849">payload)</text></g><g class="message" data-participant-1="WebSocketUC" data-participant-2="WebSocketUC"><line style="stroke:#181818;stroke-width:1;" x1="517.1899" x2="559.1899" y1="318.4834" y2="318.4834"/><line style="stroke:#181818;stroke-width:1;" x1="559.1899" x2="559.1899" y1="318.4834" y2="331.4834"/><line style="stroke:#181818;stroke-width:1;" x1="518.1899" x2="559.1899" y1="331.4834" y2="331.4834"/><polygon fill="#181818" points="528.1899,327.4834,518.1899,331.4834,528.1899,335.4834,524.1899,331.4834" style="stroke:#181818;stroke-width:1;"/><text fill="#000000" font-family="Arial" font-size="13" lengthAdjust="spacing" textLength="80.9453" x="542.249" y="253.9336">parseChannel</text><text fill="#000000" font-family="Arial" font-size="13" lengthAdjust="spacing" textLength="7.5918" x="578.9258" y="268.8823">+</text><text fill="#000000" font-family="Arial" font-size="13" lengthAdjust="spacing" textLength="117.0635" x="524.1899" y="283.8311">detectMessageType</text><text fill="#000000" font-family="Arial" font-size="13" lengthAdjust="spacing" textLength="54.9009" x="555.2712" y="298.7798">transform</text><text fill="#000000" font-family="Arial" font-size="13" lengthAdjust="spacing" textLength="45.5381" x="559.9526" y="313.7285">payload</text></g><path d="M434.6626,346.4834 L493.8735,346.4834 L493.8735,353.4321 L483.8735,363.4321 L428.6626,363.4321 L428.6626,352.4834 A6,6 0 0 1 434.6626,346.4834" fill="#EEEEEE" style="stroke:#000000;stroke-width:1.5;"/><rect fill="none" height="178.5386" rx="6" ry="6" style="stroke:#000000;stroke-width:1.5;" width="588.1587" x="428.6626" y="346.4834"/><text fill="#000000" font-family="Arial" font-size="13" font-weight="bold" lengthAdjust="spacing" textLength="20.2109" x="443.6626" y="359.6772">opt</text><text fill="#000000" font-family="Arial" font-size="11" font-weight="bold" lengthAdjust="spacing" textLength="122.2676" x="508.8735" y="358.8013">[alert-eligible message]</text><g class="message" data-participant-1="WebSocketUC" data-participant-2="AlertUC"><polygon fill="#181818" points="646.2534,410.2783,656.2534,414.2783,646.2534,418.2783,650.2534,414.2783" style="stroke:#181818;stroke-width:1;"/><line style="stroke:#181818;stroke-width:1;" x1="517.1899" x2="652.2534" y1="414.2783" y2="414.2783"/><text fill="#000000" font-family="Arial" font-size="13" lengthAdjust="spacing" textLength="50.5781" x="562.4326" y="379.626">Dispatch</text><text fill="#000000" font-family="Arial" font-size="13" lengthAdjust="spacing" textLength="25.2891" x="575.0771" y="394.5747">alert</text><text fill="#000000" font-family="Arial" font-size="13" lengthAdjust="spacing" textLength="45.5381" x="564.9526" y="409.5234">payload</text></g><g class="message" data-participant-1="AlertUC" data-participant-2="Discord"><line style="stroke:#181818;stroke-width:1;" x1="974.0938" x2="964.0938" y1="473.1245" y2="469.1245"/><line style="stroke:#181818;stroke-width:1;" x1="974.0938" x2="964.0938" y1="473.1245" y2="477.1245"/><line style="stroke:#181818;stroke-width:1;" x1="668.2534" x2="975.0938" y1="473.1245" y2="473.1245"/><text fill="#000000" font-family="Arial" font-size="13" lengthAdjust="spacing" textLength="28.1899" x="808.0786" y="438.4722">send</text><text fill="#000000" font-family="Arial" font-size="13" lengthAdjust="spacing" textLength="52.0381" x="796.1545" y="453.4209">webhook</text><text fill="#000000" font-family="Arial" font-size="13" lengthAdjust="spacing" textLength="52.749" x="795.7991" y="468.3696">message</text></g><g class="message" data-participant-1="AlertUC" data-participant-2="WebSocketUC"><polygon fill="#181818" points="528.1899,513.022,518.1899,517.022,528.1899,521.022,524.1899,517.022" style="stroke:#181818;stroke-width:1;"/><line style="stroke:#181818;stroke-width:1;stroke-dasharray:2,2;" x1="522.1899" x2="662.2534" y1="517.022" y2="517.022"/><text fill="#000000" font-family="Arial" font-size="13" lengthAdjust="spacing" textLength="58.5254" x="560.959" y="497.3184">best-effort</text><text fill="#000000" font-family="Arial" font-size="13" lengthAdjust="spacing" textLength="31.7891" x="574.3271" y="512.2671">result</text></g><g class="message" data-participant-1="WebSocketUC" data-participant-2="Hub"><polygon fill="#181818" points="728.2222,578.8682,738.2222,582.8682,728.2222,586.8682,732.2222,582.8682" style="stroke:#181818;stroke-width:1;"/><line style="stroke:#181818;stroke-width:1;" x1="517.1899" x2="734.2222" y1="582.8682" y2="582.8682"/><text fill="#000000" font-family="Arial" font-size="13" lengthAdjust="spacing" textLength="92.4727" x="582.4697" y="548.2158">SendToUser(...)</text><text fill="#000000" font-family="Arial" font-size="13" lengthAdjust="spacing" textLength="11.5591" x="622.9265" y="563.1646">or</text><text fill="#000000" font-family="Arial" font-size="13" lengthAdjust="spacing" textLength="78.0254" x="589.6934" y="578.1133">Broadcast(...)</text></g><g class="message" data-participant-1="Hub" data-participant-2="Connection"><line style="stroke:#181818;stroke-width:1;" x1="853.2148" x2="843.2148" y1="641.7144" y2="637.7144"/><line style="stroke:#181818;stroke-width:1;" x1="853.2148" x2="843.2148" y1="641.7144" y2="645.7144"/><line style="stroke:#181818;stroke-width:1;" x1="750.2222" x2="854.2148" y1="641.7144" y2="641.7144"/><text fill="#000000" font-family="Arial" font-size="13" lengthAdjust="spacing" textLength="28.1899" x="788.6235" y="607.062">push</text><text fill="#000000" font-family="Arial" font-size="13" lengthAdjust="spacing" textLength="62.1499" x="771.6436" y="622.0107">notification</text><text fill="#000000" font-family="Arial" font-size="13" lengthAdjust="spacing" textLength="34.6709" x="785.3831" y="636.9595">JSON</text></g><g class="message" data-participant-1="Hub" data-participant-2="WebSocketUC"><polygon fill="#181818" points="528.1899,666.6631,518.1899,670.6631,528.1899,674.6631,524.1899,670.6631" style="stroke:#181818;stroke-width:1;"/><line style="stroke:#181818;stroke-width:1;stroke-dasharray:2,2;" x1="522.1899" x2="744.2222" y1="670.6631" y2="670.6631"/><text fill="#000000" font-family="Arial" font-size="13" lengthAdjust="spacing" textLength="36.8608" x="612.7756" y="665.9082">routed</text></g><g class="message" data-participant-1="WebSocketUC" data-participant-2="Subscriber"><polygon fill="#181818" points="341.002,695.6118,331.002,699.6118,341.002,703.6118,337.002,699.6118" style="stroke:#181818;stroke-width:1;"/><line style="stroke:#181818;stroke-width:1;stroke-dasharray:2,2;" x1="335.002" x2="511.1899" y1="699.6118" y2="699.6118"/><text fill="#000000" font-family="Arial" font-size="13" lengthAdjust="spacing" textLength="13.73" x="414.231" y="694.8569">ok</text></g><!--SRC=[TLFBRjim4BppAnO-9MZjFYu5UZ1WEmYA0as3Aa4lkQoebKLO8bMIgfj-VPSo9L4oUf98pimEPvVkf7IB5XiegCIkzlT6-mTi27PMOItSUEugBCnPwIEKM3jAJ-XNHrhIDt8EZxIhrL639Et99YXBhZNQ3QWzrUQyizQSmTikbMlmJyHawY_1f_UfYEbq8OtLPE73Ho5GUcDXjKTv8br0s-MrSXNP5Q23ns4bs5z7iFf1XUgttsLT_g9bXLfJ3IrwjgfTJ-enXyk94rpLAwbQr7wWCzL9g_9OP5hEmJyfpmoxyl3iw82EUlIu-toOmtSrsJcqtrd2ldHvVyZV_vKx6BOklJAwHqxBEU5EESwnw37nNuWnCLXlj_CeuFEGBcZZLQaa1b4ExxKsM8WvED2dP9ZRe9SL5Jm53Dl4_eRsgT_eAKqneQstQM2iycYDP6gatyG6lXrCt4w2QT2fnfKaXyAXnqbumw_0SrgnmDDhIo_QMzIkDBOPxofCwm53VzR4mwxocg29Lm9Ob8jzv58SSnjYk517DO3HzT1p65aXoDWULd1XoC-KLyQSaeeZ-EfsEJdsMB9x7nuWls-65tHLa7N5CYUUCLR8-EZ9y63QcyrcSmlytFQMRKjqlj-PCWz36KZ1ypHs_U0if-PhzltXWhsop4_SKo4Iaq5tvcsz62vpIk5fwvFjYV4F]--></g></svg>