<svg xmlns="http://www.w3.org/2000/svg" xmlns:xlink="http://www.w3.org/1999/xlink" contentStyleType="text/css" data-diagram-type="SEQUENCE" height="802px" preserveAspectRatio="none" style="width:782px;height:802px;background:#FFFFFF;" version="1.1" viewBox="0 0 782 802" width="782px" zoomAndPan="magnify"><title>Knowledge Indexing Phase 2 - Batch Document Indexing</title><defs/><g><text fill="#000000" font-family="Arial" font-size="14" font-weight="bold" lengthAdjust="spacing" textLength="378.0547" x="203.7458" y="28.1318">Knowledge Indexing Phase 2 - Batch Document Indexing</text><g><title>IndexingUseCase</title><rect fill="#FFFFFF" height="645.6157" style="stroke:#181818;stroke-width:1;" width="10" x="190.5234" y="104.146"/></g><g><title>EmbeddingUseCase</title><rect fill="#FFFFFF" height="28.9487" style="stroke:#181818;stroke-width:1;" width="10" x="341.646" y="317.6846"/></g><g><title>PointUseCase</title><rect fill="#FFFFFF" height="131.6924" style="stroke:#181818;stroke-width:1;" width="10" x="474.5938" y="133.0947"/></g><g><title>PointUseCase</title><rect fill="#FFFFFF" height="101.7949" style="stroke:#181818;stroke-width:1;" width="10" x="474.5938" y="390.5308"/></g><g><title>Qdrant</title><rect fill="#FFFFFF" height="43.8975" style="stroke:#181818;stroke-width:1;" width="10" x="571.5264" y="191.9409"/></g><g><title>Qdrant</title><rect fill="#FFFFFF" height="43.8975" style="stroke:#181818;stroke-width:1;" width="10" x="571.5264" y="419.4795"/></g><g><title>Cache Repo</title><rect fill="#FFFFFF" height="131.6924" style="stroke:#181818;stroke-width:1;" width="10" x="655.8398" y="552.2231"/></g><g><title>Redis</title><rect fill="#FFFFFF" height="43.8975" style="stroke:#181818;stroke-width:1;" width="10" x="736.6499" y="611.0693"/></g><rect fill="none" height="220.5386" rx="6" ry="6" style="stroke:#000000;stroke-width:1.5;" width="491.6577" x="123.2686" y="279.7871"/><rect fill="none" height="177.5898" rx="6" ry="6" style="stroke:#000000;stroke-width:1.5;" width="653.2778" x="123.2686" y="514.3257"/><g><title>Kafka Consumer</title><rect fill="#000000" fill-opacity="0.00000" height="694.5645" width="8" x="60.1343" y="73.1973"/><line style="stroke:#181818;stroke-width:0.5;stroke-dasharray:5,5;" x1="64" x2="64" y1="73.1973" y2="767.7617"/></g><g><title>IndexingUseCase</title><rect fill="#000000" fill-opacity="0.00000" height="694.5645" width="8" x="191.5234" y="73.1973"/><line style="stroke:#181818;stroke-width:0.5;stroke-dasharray:5,5;" x1="195.2686" x2="195.2686" y1="73.1973" y2="767.7617"/></g><g><title>EmbeddingUseCase</title><rect fill="#000000" fill-opacity="0.00000" height="694.5645" width="8" x="342.646" y="73.1973"/><line style="stroke:#181818;stroke-width:0.5;stroke-dasharray:5,5;" x1="346.4429" x2="346.4429" y1="73.1973" y2="767.7617"/></g><g><title>PointUseCase</title><rect fill="#000000" fill-opacity="0.00000" height="694.5645" width="8" x="475.5938" y="73.1973"/><line style="stroke:#181818;stroke-width:0.5;stroke-dasharray:5,5;" x1="478.8491" x2="478.8491" y1="73.1973" y2="767.7617"/></g><g><title>Qdrant</title><rect fill="#000000" fill-opacity="0.00000" height="694.5645" width="8" x="572.5264" y="73.1973"/><line style="stroke:#181818;stroke-width:0.5;stroke-dasharray:5,5;" x1="576.1265" x2="576.1265" y1="73.1973" y2="767.7617"/></g><g><title>Cache Repo</title><rect fill="#000000" fill-opacity="0.00000" height="694.5645" width="8" x="656.8398" y="73.1973"/><line style="stroke:#181818;stroke-width:0.5;stroke-dasharray:5,5;" x1="659.9263" x2="659.9263" y1="73.1973" y2="767.7617"/></g><g><title>Redis</title><rect fill="#000000" fill-opacity="0.00000" height="694.5645" width="8" x="737.6499" y="73.1973"/><line style="stroke:#181818;stroke-width:0.5;stroke-dasharray:5,5;" x1="740.7534" x2="740.7534" y1="73.1973" y2="767.7617"/></g><g class="participant participant-head" data-participant="Consumer"><rect fill="#E2E2F0" height="30.0986" rx="6" ry="6" style="stroke:#181818;stroke-width:0.5;" width="118.2686" x="5" y="42.0986"/><text fill="#000000" font-family="Arial" font-size="14" lengthAdjust="spacing" textLength="104.2686" x="12" y="62.2305">Kafka Consumer</text></g><g class="participant participant-tail" data-participant="Consumer"><rect fill="#E2E2F0" height="30.0986" rx="6" ry="6" style="stroke:#181818;stroke-width:0.5;" width="118.2686" x="5" y="766.7617"/><text fill="#000000" font-family="Arial" font-size="14" lengthAdjust="spacing" textLength="104.2686" x="12" y="786.8936">Kafka Consumer</text></g><g class="participant participant-head" data-participant="Indexing"><rect fill="#E2E2F0" height="30.0986" rx="6" ry="6" style="stroke:#181818;stroke-width:0.5;" width="124.5098" x="133.2686" y="42.0986"/><text fill="#000000" font-family="Arial" font-size="14" lengthAdjust="spacing" textLength="110.5098" x="140.2686" y="62.2305">IndexingUseCase</text></g><g class="participant participant-tail" data-participant="Indexing"><rect fill="#E2E2F0" height="30.0986" rx="6" ry="6" style="stroke:#181818;stroke-width:0.5;" width="124.5098" x="133.2686" y="766.7617"/><text fill="#000000" font-family="Arial" font-size="14" lengthAdjust="spacing" textLength="110.5098" x="140.2686" y="786.8936">IndexingUseCase</text></g><g class="participant participant-head" data-participant="Embedding"><rect fill="#E2E2F0" height="30.0986" rx="6" ry="6" style="stroke:#181818;stroke-width:0.5;" width="142.4063" x="275.4429" y="42.0986"/><text fill="#000000" font-family="Arial" font-size="14" lengthAdjust="spacing" textLength="128.4063" x="282.4429" y="62.2305">EmbeddingUseCase</text></g><g class="participant participant-tail" data-participant="Embedding"><rect fill="#E2E2F0" height="30.0986" rx="6" ry="6" style="stroke:#181818;stroke-width:0.5;" width="142.4063" x="275.4429" y="766.7617"/><text fill="#000000" font-family="Arial" font-size="14" lengthAdjust="spacing" textLength="128.4063" x="282.4429" y="786.8936">EmbeddingUseCase</text></g><g class="participant participant-head" data-participant="PointUC"><rect fill="#E2E2F0" height="30.0986" rx="6" ry="6" style="stroke:#181818;stroke-width:0.5;" width="103.4893" x="427.8491" y="42.0986"/><text fill="#000000" font-family="Arial" font-size="14" lengthAdjust="spacing" textLength="89.4893" x="434.8491" y="62.2305">PointUseCase</text></g><g class="participant participant-tail" data-participant="PointUC"><rect fill="#E2E2F0" height="30.0986" rx="6" ry="6" style="stroke:#181818;stroke-width:0.5;" width="103.4893" x="427.8491" y="766.7617"/><text fill="#000000" font-family="Arial" font-size="14" lengthAdjust="spacing" textLength="89.4893" x="434.8491" y="786.8936">PointUseCase</text></g><g class="participant participant-head" data-participant="Qdrant"><rect fill="#E2E2F0" height="30.0986" rx="6" ry="6" style="stroke:#181818;stroke-width:0.5;" width="56.7998" x="548.1265" y="42.0986"/><text fill="#000000" font-family="Arial" font-size="14" lengthAdjust="spacing" textLength="42.7998" x="555.1265" y="62.2305">Qdrant</text></g><g class="participant participant-tail" data-participant="Qdrant"><rect fill="#E2E2F0" height="30.0986" rx="6" ry="6" style="stroke:#181818;stroke-width:0.5;" width="56.7998" x="548.1265" y="766.7617"/><text fill="#000000" font-family="Arial" font-size="14" lengthAdjust="spacing" textLength="42.7998" x="555.1265" y="786.8936">Qdrant</text></g><g class="participant participant-head" data-participant="CacheRepo"><rect fill="#E2E2F0" height="30.0986" rx="6" ry="6" style="stroke:#181818;stroke-width:0.5;" width="91.8271" x="614.9263" y="42.0986"/><text fill="#000000" font-family="Arial" font-size="14" lengthAdjust="spacing" textLength="77.8271" x="621.9263" y="62.2305">Cache Repo</text></g><g class="participant participant-tail" data-participant="CacheRepo"><rect fill="#E2E2F0" height="30.0986" rx="6" ry="6" style="stroke:#181818;stroke-width:0.5;" width="91.8271" x="614.9263" y="766.7617"/><text fill="#000000" font-family="Arial" font-size="14" lengthAdjust="spacing" textLength="77.8271" x="621.9263" y="786.8936">Cache Repo</text></g><g class="participant participant-head" data-participant="Redis"><rect fill="#E2E2F0" height="30.0986" rx="6" ry="6" style="stroke:#181818;stroke-width:0.5;" width="49.793" x="716.7534" y="42.0986"/><text fill="#000000" font-family="Arial" font-size="14" lengthAdjust="spacing" textLength="35.793" x="723.7534" y="62.2305">Redis</text></g><g class="participant participant-tail" data-participant="Redis"><rect fill="#E2E2F0" height="30.0986" rx="6" ry="6" style="stroke:#181818;stroke-width:0.5;" width="49.793" x="716.7534" y="766.7617"/><text fill="#000000" font-family="Arial" font-size="14" lengthAdjust="spacing" textLength="35.793" x="723.7534" y="786.8936">Redis</text></g><g><title>IndexingUseCase</title><rect fill="#FFFFFF" height="645.6157" style="stroke:#181818;stroke-width:1;" width="10" x="190.5234" y="104.146"/></g><g><title>EmbeddingUseCase</title><rect fill="#FFFFFF" height="28.9487" style="stroke:#181818;stroke-width:1;" width="10" x="341.646" y="317.6846"/></g><g><title>PointUseCase</title><rect fill="#FFFFFF" height="131.6924" style="stroke:#181818;stroke-width:1;" width="10" x="474.5938" y="133.0947"/></g><g><title>PointUseCase</title><rect fill="#FFFFFF" height="101.7949" style="stroke:#181818;stroke-width:1;" width="10" x="474.5938" y="390.5308"/></g><g><title>Qdrant</title><rect fill="#FFFFFF" height="43.8975" style="stroke:#181818;stroke-width:1;" width="10" x="571.5264" y="191.9409"/></g><g><title>Qdrant</title><rect fill="#FFFFFF" height="43.8975" style="stroke:#181818;stroke-width:1;" width="10" x="571.5264" y="419.4795"/></g><g><title>Cache Repo</title><rect fill="#FFFFFF" height="131.6924" style="stroke:#181818;stroke-width:1;" width="10" x="655.8398" y="552.2231"/></g><g><title>Redis</title><rect fill="#FFFFFF" height="43.8975" style="stroke:#181818;stroke-width:1;" width="10" x="736.6499" y="611.0693"/></g><g class="message" data-participant-1="Consumer" data-participant-2="Indexing"><polygon fill="#181818" points="178.5234,100.146,188.5234,104.146,178.5234,108.146,182.5234,104.146" style="stroke:#181818;stroke-width:1;"/><line style="stroke:#181818;stroke-width:1;" x1="64.1343" x2="184.5234" y1="104.146" y2="104.146"/><text fill="#000000" font-family="Arial" font-size="13" lengthAdjust="spacing" textLength="101.8926" x="76.3826" y="99.3911">IndexBatch(input)</text></g><g class="message" data-participant-1="Indexing" data-participant-2="PointUC"><polygon fill="#181818" points="462.5938,129.0947,472.5938,133.0947,462.5938,137.0947,466.5938,133.0947" style="stroke:#181818;stroke-width:1;"/><line style="stroke:#181818;stroke-width:1;" x1="200.5234" x2="468.5938" y1="133.0947" y2="133.0947"/><text fill="#000000" font-family="Arial" font-size="13" lengthAdjust="spacing" textLength="200.8906" x="237.1133" y="128.3398">EnsureCollection(proj_{project_id})</text></g><g class="message" data-participant-1="PointUC" data-participant-2="Qdrant"><polygon fill="#181818" points="559.5264,187.9409,569.5264,191.9409,559.5264,195.9409,563.5264,191.9409" style="stroke:#181818;stroke-width:1;"/><line style="stroke:#181818;stroke-width:1;" x1="484.5938" x2="565.5264" y1="191.9409" y2="191.9409"/><text fill="#000000" font-family="Arial" font-size="13" lengthAdjust="spacing" textLength="36.1309" x="509.9946" y="157.2886">create</text><text fill="#000000" font-family="Arial" font-size="13" lengthAdjust="spacing" textLength="54.1963" x="495.906" y="172.2373">collection</text><text fill="#000000" font-family="Arial" font-size="13" lengthAdjust="spacing" textLength="3.6118" x="550.1023" y="172.2373">&#160;</text><text fill="#000000" font-family="Arial" font-size="13" lengthAdjust="spacing" textLength="6.5" x="553.7141" y="172.2373">if</text><text fill="#000000" font-family="Arial" font-size="13" lengthAdjust="spacing" textLength="44.0654" x="506.0273" y="187.186">missing</text></g><g class="message" data-participant-1="Qdrant" data-participant-2="PointUC"><polygon fill="#181818" points="495.5938,231.8384,485.5938,235.8384,495.5938,239.8384,491.5938,235.8384" style="stroke:#181818;stroke-width:1;"/><line style="stroke:#181818;stroke-width:1;stroke-dasharray:2,2;" x1="489.5938" x2="575.5264" y1="235.8384" y2="235.8384"/><text fill="#000000" font-family="Arial" font-size="13" lengthAdjust="spacing" textLength="54.1963" x="503.4619" y="216.1348">collection</text><text fill="#000000" font-family="Arial" font-size="13" lengthAdjust="spacing" textLength="32.519" x="514.3005" y="231.0835">ready</text></g><g class="message" data-participant-1="PointUC" data-participant-2="Indexing"><polygon fill="#181818" points="211.5234,260.7871,201.5234,264.7871,211.5234,268.7871,207.5234,264.7871" style="stroke:#181818;stroke-width:1;"/><line style="stroke:#181818;stroke-width:1;stroke-dasharray:2,2;" x1="205.5234" x2="478.5938" y1="264.7871" y2="264.7871"/><text fill="#000000" font-family="Arial" font-size="13" lengthAdjust="spacing" textLength="13.73" x="333.1936" y="260.0322">ok</text></g><path d="M129.2686,279.7871 L195.7031,279.7871 L195.7031,286.7358 L185.7031,296.7358 L123.2686,296.7358 L123.2686,285.7871 A6,6 0 0 1 129.2686,279.7871" fill="#EEEEEE" style="stroke:#000000;stroke-width:1.5;"/><rect fill="none" height="220.5386" rx="6" ry="6" style="stroke:#000000;stroke-width:1.5;" width="491.6577" x="123.2686" y="279.7871"/><text fill="#000000" font-family="Arial" font-size="13" font-weight="bold" lengthAdjust="spacing" textLength="27.4346" x="138.2686" y="292.981">loop</text><text fill="#000000" font-family="Arial" font-size="11" font-weight="bold" lengthAdjust="spacing" textLength="141.8076" x="210.7031" y="292.105">[each indexable document]</text><g class="message" data-participant-1="Indexing" data-participant-2="Embedding"><polygon fill="#181818" points="329.646,313.6846,339.646,317.6846,329.646,321.6846,333.646,317.6846" style="stroke:#181818;stroke-width:1;"/><line style="stroke:#181818;stroke-width:1;" x1="200.5234" x2="335.646" y1="317.6846" y2="317.6846"/><text fill="#000000" font-family="Arial" font-size="13" lengthAdjust="spacing" textLength="122.1226" x="210.0234" y="312.9297">Generate(clean_text)</text></g><g class="message" data-participant-1="Embedding" data-participant-2="Indexing"><polygon fill="#181818" points="211.5234,342.6333,201.5234,346.6333,211.5234,350.6333,207.5234,346.6333" style="stroke:#181818;stroke-width:1;"/><line style="stroke:#181818;stroke-width:1;stroke-dasharray:2,2;" x1="205.5234" x2="345.646" y1="346.6333" y2="346.6333"/><text fill="#000000" font-family="Arial" font-size="13" lengthAdjust="spacing" textLength="35.4009" x="255.8843" y="341.8784">vector</text></g><g class="message" data-participant-1="Indexing" data-participant-2="PointUC"><polygon fill="#181818" points="462.5938,386.5308,472.5938,390.5308,462.5938,394.5308,466.5938,390.5308" style="stroke:#181818;stroke-width:1;"/><line style="stroke:#181818;stroke-width:1;" x1="200.5234" x2="468.5938" y1="390.5308" y2="390.5308"/><text fill="#000000" font-family="Arial" font-size="13" lengthAdjust="spacing" textLength="81.6372" x="296.74" y="370.8271">Upsert(project</text><text fill="#000000" font-family="Arial" font-size="13" lengthAdjust="spacing" textLength="32.519" x="321.2991" y="385.7759">point)</text></g><g class="message" data-participant-1="PointUC" data-participant-2="Qdrant"><polygon fill="#181818" points="559.5264,415.4795,569.5264,419.4795,559.5264,423.4795,563.5264,419.4795" style="stroke:#181818;stroke-width:1;"/><line style="stroke:#181818;stroke-width:1;" x1="484.5938" x2="565.5264" y1="419.4795" y2="419.4795"/><text fill="#000000" font-family="Arial" font-size="13" lengthAdjust="spacing" textLength="36.1309" x="494.0938" y="414.7246">upsert</text><text fill="#000000" font-family="Arial" font-size="13" lengthAdjust="spacing" textLength="3.6118" x="530.2246" y="414.7246">&#160;</text><text fill="#000000" font-family="Arial" font-size="13" lengthAdjust="spacing" textLength="28.1899" x="533.8364" y="414.7246">point</text></g><g class="message" data-participant-1="Qdrant" data-participant-2="PointUC"><polygon fill="#181818" points="495.5938,459.377,485.5938,463.377,495.5938,467.377,491.5938,463.377" style="stroke:#181818;stroke-width:1;"/><line style="stroke:#181818;stroke-width:1;stroke-dasharray:2,2;" x1="489.5938" x2="575.5264" y1="463.377" y2="463.377"/><text fill="#000000" font-family="Arial" font-size="13" lengthAdjust="spacing" textLength="28.1899" x="516.4651" y="443.6733">point</text><text fill="#000000" font-family="Arial" font-size="13" lengthAdjust="spacing" textLength="45.5381" x="507.791" y="458.6221">indexed</text></g><g class="message" data-participant-1="PointUC" data-participant-2="Indexing"><polygon fill="#181818" points="211.5234,488.3257,201.5234,492.3257,211.5234,496.3257,207.5234,492.3257" style="stroke:#181818;stroke-width:1;"/><line style="stroke:#181818;stroke-width:1;stroke-dasharray:2,2;" x1="205.5234" x2="478.5938" y1="492.3257" y2="492.3257"/><text fill="#000000" font-family="Arial" font-size="13" lengthAdjust="spacing" textLength="13.73" x="333.1936" y="487.5708">ok</text></g><path d="M129.2686,514.3257 L188.4795,514.3257 L188.4795,521.2744 L178.4795,531.2744 L123.2686,531.2744 L123.2686,520.3257 A6,6 0 0 1 129.2686,514.3257" fill="#EEEEEE" style="stroke:#000000;stroke-width:1.5;"/><rect fill="none" height="177.5898" rx="6" ry="6" style="stroke:#000000;stroke-width:1.5;" width="653.2778" x="123.2686" y="514.3257"/><text fill="#000000" font-family="Arial" font-size="13" font-weight="bold" lengthAdjust="spacing" textLength="20.2109" x="138.2686" y="527.5195">opt</text><text fill="#000000" font-family="Arial" font-size="11" font-weight="bold" lengthAdjust="spacing" textLength="67.5469" x="203.4795" y="526.6436">[indexed &gt; 0]</text><g class="message" data-participant-1="Indexing" data-participant-2="CacheRepo"><polygon fill="#181818" points="643.8398,548.2231,653.8398,552.2231,643.8398,556.2231,647.8398,552.2231" style="stroke:#181818;stroke-width:1;"/><line style="stroke:#181818;stroke-width:1;" x1="200.5234" x2="649.8398" y1="552.2231" y2="552.2231"/><text fill="#000000" font-family="Arial" font-size="13" lengthAdjust="spacing" textLength="199.4434" x="328.46" y="547.4683">InvalidateSearchCache(project_id)</text></g><g class="message" data-participant-1="CacheRepo" data-participant-2="Redis"><polygon fill="#181818" points="724.6499,607.0693,734.6499,611.0693,724.6499,615.0693,728.6499,611.0693" style="stroke:#181818;stroke-width:1;"/><line style="stroke:#181818;stroke-width:1;" x1="665.8398" x2="730.6499" y1="611.0693" y2="611.0693"/><text fill="#000000" font-family="Arial" font-size="13" lengthAdjust="spacing" textLength="35.4199" x="683.5349" y="576.417">delete</text><text fill="#000000" font-family="Arial" font-size="13" lengthAdjust="spacing" textLength="46.2554" x="678.1172" y="591.3657">affected</text><text fill="#000000" font-family="Arial" font-size="13" lengthAdjust="spacing" textLength="26.73" x="687.8799" y="606.3145">keys</text></g><g class="message" data-participant-1="Redis" data-participant-2="CacheRepo"><polygon fill="#181818" points="676.8398,650.9668,666.8398,654.9668,676.8398,658.9668,672.8398,654.9668" style="stroke:#181818;stroke-width:1;"/><line style="stroke:#181818;stroke-width:1;stroke-dasharray:2,2;" x1="670.8398" x2="740.6499" y1="654.9668" y2="654.9668"/><text fill="#000000" font-family="Arial" font-size="13" lengthAdjust="spacing" textLength="34.6899" x="686.3999" y="635.2632">cache</text><text fill="#000000" font-family="Arial" font-size="13" lengthAdjust="spacing" textLength="42.6372" x="682.4263" y="650.2119">cleared</text></g><g class="message" data-participant-1="CacheRepo" data-participant-2="Indexing"><polygon fill="#181818" points="211.5234,679.9155,201.5234,683.9155,211.5234,687.9155,207.5234,683.9155" style="stroke:#181818;stroke-width:1;"/><line style="stroke:#181818;stroke-width:1;stroke-dasharray:2,2;" x1="205.5234" x2="659.8398" y1="683.9155" y2="683.9155"/><text fill="#000000" font-family="Arial" font-size="13" lengthAdjust="spacing" textLength="62.1563" x="399.6035" y="679.1606">invalidated</text></g><g class="message" data-participant-1="Indexing" data-participant-2="Consumer"><polygon fill="#181818" points="75.1343,745.7617,65.1343,749.7617,75.1343,753.7617,71.1343,749.7617" style="stroke:#181818;stroke-width:1;"/><line style="stroke:#181818;stroke-width:1;stroke-dasharray:2,2;" x1="69.1343" x2="194.5234" y1="749.7617" y2="749.7617"/><text fill="#000000" font-family="Arial" font-size="13" lengthAdjust="spacing" textLength="31.8018" x="113.928" y="715.1094">batch</text><text fill="#000000" font-family="Arial" font-size="13" lengthAdjust="spacing" textLength="48.4263" x="105.6157" y="730.0581">indexing</text><text fill="#000000" font-family="Arial" font-size="13" lengthAdjust="spacing" textLength="31.7891" x="113.9343" y="745.0068">result</text></g><!--SRC=[TLJ1Rjim3BtxAuYUiaE0hfS1FHH8qsuOYWrTYvu3HM9YBRBaINAIRjY_ZvOjMJAoIsABxpsIJwIzz0hXIPkJGh57-Ae5dgNUmtFD7C8DBE6UULx3W-5TWzedHEKEKhVCiWO4xbYd_6UZ_NVM8AoiP2gBkve9S-fLTqmvp2FugqFDyHiwn_QuKdAlWLCQj1dAeckDTX5rZygSLjQQ4tZRvN8DEu-OL_aRuTDrBc8wBRYn6YrylAagElMIovPHJrTFR7TWiAOarAIz0kRIImcCtRyvN9D10PaSAP2FpHQ5c47JOObzDbBx73SSh4lK3s7fFyI7npAyPhn6UC7M3FNth_rRYNf18Lq0XAUgYdt2ycww_TlXCLpzWXpi_8UASI-Fp4ypKYKuKSUAYVb8UXRNHYaaXj6BrfgVcp_zBnrifFYRQSL68vsKXjv8Y5li8JmfWTn18vthSoU5qOgHjInAoQYa9TuhWNDUIbosRmuvDbPPAMDQeFCQP8zbMreUCMv61P0RagwQrBuWJHq9BRX2fZSUp-GdGDAVnW8otgoa8tLYB26omdBYvTjuQnrQlnZTXxOF5BbZRm2Nxg0Bz86MiqRt02xw7k23HIZAYXFn_yON-5WUQb5LfasgS0VNiwRJn8VnFJ8b1Icy8hEy3h75D8E51TEgG2P2Yc55I4sWGiAntOxObFk0xouN65O9HlnoLWiFYzbVlPsx4ObPrj8EcVgOCQUQWpEJ3ttokDAti0qVRncZz2Mb3tK-sf7u3m00]--></g></svg>